<?xml version="1.0" encoding="UTF-8" standalone="no"?>
<!-- Created with Inkscape (http://www.inkscape.org/) -->

<svg
   xmlns:dc="http://purl.org/dc/elements/1.1/"
   xmlns:cc="http://creativecommons.org/ns#"
   xmlns:rdf="http://www.w3.org/1999/02/22-rdf-syntax-ns#"
   xmlns:svg="http://www.w3.org/2000/svg"
   xmlns="http://www.w3.org/2000/svg"
   version="1.1"
   width="885.82678"
   height="667.42853"
   id="svg3006">
  <defs
     id="defs3008" />
  <metadata
     id="metadata3011">
    <rdf:RDF>
      <cc:Work
         rdf:about="">
        <dc:format>image/svg+xml</dc:format>
        <dc:type
           rdf:resource="http://purl.org/dc/dcmitype/StillImage" />
        <dc:title></dc:title>
      </cc:Work>
    </rdf:RDF>
  </metadata>
  <g
     transform="translate(-17.767932,-380.58616)"
     id="layer1">
    <path
       d="m 57.289434,1045.2077 c 0,-1.5084 -2.478257,-14.2336 -5.507253,-28.2783 -6.94942,-32.22271 -10.218202,-54.29319 -12.763973,-86.18089 -3.26821,-40.9367 -3.455924,-44.97274 -2.091628,-44.97274 1.531349,0 1.702259,1.28112 1.363519,10.22108 -0.330113,8.71249 3.489735,54.0656 6.198225,73.59176 1.143685,8.245 4.729934,27.56286 7.969457,42.92859 7.319137,34.716 7.440645,35.433 6.005483,35.433 -0.645604,0 -1.17383,-1.2341 -1.17383,-2.7425 z m 94.033916,-9.758 c -7.12068,-6.8395 -16.54847,-15.8706 -20.95063,-20.0689 -4.40216,-4.1984 -12.13799,-12.5396 -17.19072,-18.53597 C 104.00336,985.95203 72.8637,944.75835 61.157227,928.02289 52.806728,916.0851 39.030596,892.67786 39.864459,891.844 c 0.369403,-0.36939 3.611529,4.40009 7.204729,10.59887 9.878985,17.04261 21.504766,34.04166 34.564061,50.53904 6.473867,8.17822 16.931788,21.39301 23.239841,29.3662 15.90692,20.10589 26.64938,31.85429 42.71564,46.71529 l 13.78833,12.7542 -6.28513,-11.5839 c -7.29632,-13.4477 -14.02397,-29.7205 -12.79526,-30.94916 0.4674,-0.46731 0.84982,-0.15659 0.84982,0.69067 0,2.06939 13.68315,30.64619 18.95631,39.58949 7.17463,12.1681 5.51235,11.5336 -10.77945,-4.115 z m 43.48905,3.9587 c -4.93852,-4.6713 -13.65891,-12.6596 -19.37864,-17.7516 -11.48044,-10.2205 -29.45944,-31.06263 -38.12367,-44.19467 -3.07728,-4.66413 -5.80215,-8.27312 -6.05528,-8.01999 -0.25311,0.25311 1.71292,5.85068 4.36897,12.43902 2.65606,6.58839 4.52329,12.28466 4.14939,12.65862 -0.77532,0.7753 -7.51823,-13.93621 -7.55003,-16.47246 -0.0151,-1.20548 -0.29704,-1.23778 -1.02211,-0.11706 -1.34758,2.08294 -15.47111,10.33026 -16.28934,9.51203 -0.35659,-0.35665 1.71083,-1.89689 4.59427,-3.4227 2.88343,-1.52593 6.66482,-3.90306 8.4031,-5.28256 l 3.16052,-2.50817 -5.54544,-13.9193 c -3.04998,-7.65561 -5.54543,-14.57682 -5.54543,-15.38046 0,-0.80365 3.77398,4.11479 8.38662,10.92986 4.61264,6.81509 8.96414,12.39106 9.66999,12.39106 1.84109,0 8.50634,-4.84907 19.0556,-13.86325 l 9.1746,-7.83952 -18.45733,-21.51537 c -20.80744,-24.25484 -39.3458,-48.07679 -48.845662,-62.76714 -4.799082,-7.42116 -6.174172,-10.66985 -5.480051,-12.9467 2.109399,-6.91911 16.195803,-32.77242 23.096803,-42.3904 l 7.41538,-10.33488 -2.86076,-6.50177 c -4.34818,-9.88233 -7.49574,-18.30176 -14.776,-39.52444 L 99.704769,733.19201 98.232607,701.8096 c -1.361897,-29.03206 -2.516784,-38.54173 -8.85606,-72.9236 -1.105607,-5.99637 -2.031582,-14.36179 -2.057735,-18.58983 -0.02875,-4.65582 -1.110595,-10.03008 -2.743228,-13.6281 -3.598583,-7.93053 -3.65578,-16.94697 -0.119519,-18.83952 5.300515,-2.83674 11.10587,-1.67135 15.644015,3.14049 8.89333,9.42967 18.50517,33.55812 18.52373,46.49977 0.0166,11.63794 3.71085,27.56348 11.86725,51.15977 1.94319,5.62159 3.67653,10.40732 3.85185,10.63494 0.17533,0.22761 3.76102,-2.16041 7.9682,-5.30675 8.48343,-6.34427 8.54094,-6.54349 6.25987,-21.68192 -0.73413,-4.87204 -2.28851,-15.60417 -3.45418,-23.84918 -3.03153,-21.44257 -13.74139,-90.52762 -17.64097,-113.79467 -1.82154,-10.86841 -7.31577,-43.37144 -12.2094,-72.22895 -4.89362,-28.85751 -8.90162,-53.33699 -8.90665,-54.39885 -0.0286,-6.02778 1.8193,2.83738 6.66312,31.96571 2.98659,17.95982 8.51184,50.74553 12.27834,72.85713 3.76651,22.11159 8.7264,52.4682 11.02198,67.45911 2.2956,14.99092 5.02309,32.46896 6.0611,38.8401 1.03802,6.37114 3.60879,24.29002 5.71285,39.81974 l 3.82555,28.23585 3.93168,0.86354 c 2.23103,0.49003 8.34061,5.0516 14.12452,10.54576 l 10.19284,9.68219 -0.82221,-4.71134 c -0.45221,-2.59124 -2.35622,-15.13683 -4.23112,-27.87911 -1.8749,-12.74228 -4.33404,-29.30042 -5.46475,-36.79588 -1.13069,-7.49546 -2.41894,-24.0536 -2.86276,-36.79588 -0.78476,-22.53092 -0.67065,-23.90807 4.15114,-50.09844 7.33933,-39.86488 21.53228,-98.65684 30.67518,-127.06692 l 2.63147,-8.17686 -2.95421,-2.33309 c -6.12124,-4.8343 -19.56232,-10.69768 -26.36223,-11.49998 l -7.05431,-0.8323 -1.37151,5.28847 c -0.75433,2.90866 -2.08212,8.01526 -2.95065,11.348 -2.48394,9.53154 -11.67503,61.26738 -15.08112,84.89033 -1.70076,11.79561 -3.35567,21.18316 -3.6776,20.86124 -0.7309,-0.7309 3.22538,-30.51323 6.70635,-50.48463 1.4371,-8.245 3.05158,-22.35009 3.58775,-31.34464 0.7485,-12.55635 1.13625,-14.77149 1.66984,-9.53967 l 0.69498,6.81405 3.05981,-14.30951 c 5.41307,-25.31489 5.04376,-24.53933 11.65445,-24.47391 3.15034,0.0312 8.50688,1.10438 11.90343,2.38492 8.22757,3.10188 20.20039,10.06535 21.03193,12.23231 0.36693,0.9562 -0.81082,6.47813 -2.61723,12.27096 -3.67082,11.77166 -11.1701,39.59271 -15.69633,58.23078 -7.40469,30.49095 -9.72003,41.20626 -14.26321,66.01 -5.28673,28.86315 -5.99415,42.98068 -3.42867,68.42314 1.45236,14.40341 8.00952,58.71747 8.81017,59.54021 0.24314,0.24986 1.7442,-0.84785 3.33569,-2.43934 3.37346,-3.37346 8.42669,-5.51039 13.03051,-5.51039 2.5996,0 3.53975,1.02805 4.67351,5.11054 0.78059,2.8108 1.43334,7.5636 1.45053,10.56178 0.0632,11.02642 9.55823,44.3361 16.67617,58.50219 1.76014,3.50303 2.99042,9.59524 3.5604,17.63081 l 0.87093,12.27822 4.58692,0.52016 c 7.77306,0.88147 10.69994,2.59821 11.43657,6.70805 1.94908,10.87432 13.87361,47.77689 23.78232,73.59853 0.47454,1.23666 2.75297,-1.44144 6.23356,-7.32706 3.0171,-5.10186 8.66094,-13.26234 12.54185,-18.13439 3.88093,-4.87204 8.71671,-11.09416 10.74621,-13.82692 l 3.69,-4.96867 -5.99362,-8.65943 c -5.69439,-8.22713 -13.1928,-21.99925 -13.1928,-24.23086 0,-0.57086 3.67959,-3.98923 8.17686,-7.59637 7.33444,-5.88275 8.17687,-7.07705 8.17687,-11.59231 0,-5.2306 3.5664,-11.21728 12.06324,-20.24968 4.25386,-4.52199 6.43648,-4.94179 12.46734,-2.39792 1.5091,0.63654 3.41407,-1.80911 7.27721,-9.3426 2.87814,-5.61267 7.51998,-13.74094 10.31519,-18.06284 5.6507,-8.73702 25.41842,-28.74177 33.86166,-34.26772 11.50316,-7.52863 11.65889,-7.1205 -2.39288,-6.27102 -7.12069,0.43047 -16.01302,1.10823 -19.76075,1.50616 -5.08134,0.53951 -6.29424,0.35011 -4.76984,-0.74487 4.09218,-2.93941 35.0458,-12.19685 46.16985,-13.80824 11.09972,-1.60786 39.37903,-1.1821 43.86811,0.66044 2.52085,1.0347 9.35471,-12.98945 16.7364,-34.34572 4.00586,-11.58956 4.68674,-15.57356 5.41014,-31.65607 0.73665,-16.37732 2.94796,-29.01062 7.03702,-40.20291 2.28581,-6.25657 -5.89303,8.19668 -15.22969,26.91318 -11.17178,22.39518 -21.7728,49.41135 -24.06515,61.3288 -1.88589,9.80436 -3.8642,10.26111 -2.95128,0.6814 3.77578,-39.62099 5.0395,-47.04848 13.85427,-81.42792 6.60048,-25.74331 11.88257,-40.51434 20.40384,-57.05813 12.2143,-23.71371 29.07014,-44.27785 46.16634,-56.32301 l 9.53493,-6.71785 2.44788,-13.87304 c 1.34633,-7.63017 3.0127,-14.43786 3.70303,-15.12819 0.69033,-0.69034 9.70979,-1.36234 20.04323,-1.49334 16.39101,-0.20782 19.533,-0.6206 24.62657,-3.23536 10.28847,-5.28153 26.62314,-10.72346 37.41204,-12.46389 22.86283,-3.68818 59.11927,0.64439 80.33647,9.60004 3.7093,1.56568 9.47403,2.69519 13.75546,2.69519 8.36766,0 17.54246,2.86209 34.20414,10.67002 15.75325,7.38222 22.7031,12.41438 36.47832,26.41273 l 11.78022,11.97103 0.95313,-12.04271 c 0.52424,-6.62348 1.3558,-13.9023 1.84791,-16.17514 l 0.89475,-4.13244 7.49546,1.92122 c 10.82653,2.77505 18.00745,6.62599 21.12356,11.32798 1.76786,2.6676 4.30283,4.41029 7.21406,4.95938 6.33946,1.19572 18.09634,14.78517 35.68611,41.24855 22.85865,34.39029 55.90358,90.60957 55.90358,95.10866 0,3.8887 -2.36041,0.19168 -20.16343,-31.58121 -28.22127,-50.36624 -54.16509,-89.57542 -65.68256,-99.26673 -4.68985,-3.94624 -10.32943,-4.63745 -17.48492,-2.14303 -4.69005,1.63495 -4.38104,0.69063 -7.76474,23.72957 -2.89597,19.7181 -2.69442,21.39064 4.66963,38.74921 9.46731,22.31636 18.69848,48.3974 22.61879,63.90538 4.62851,18.30954 17.62605,96.3862 22.49959,135.15582 8.87388,70.59287 12.12758,117.32943 13.14032,188.74925 0.78997,55.70957 0.0763,74.45937 -4.40877,115.8389 -0.98584,9.09545 0.53077,6.42385 7.34979,-12.94669 11.5509,-32.81228 17.65953,-70.09292 22.21864,-135.59966 2.70952,-38.9308 0.32544,-104.65654 -5.01745,-138.32526 -0.53526,-3.37296 -0.52238,-5.71606 0.0286,-5.2069 0.551,0.50916 2.21664,9.70813 3.70144,20.44215 3.45187,24.95475 4.93483,97.22685 2.61339,127.36406 -2.05971,26.73947 -7.8767,79.04735 -9.70811,87.2979 -9.06768,40.85018 -21.33561,78.56225 -31.723,97.51805 -2.36174,4.3099 -5.07242,7.8361 -6.02372,7.8361 -2.29797,0 -2.26141,-0.1544 1.66095,-7.0156 1.86485,-3.2621 3.39801,-7.0405 3.40703,-8.3964 0.0109,-1.5332 0.61932,-2.0927 1.61083,-1.48 1.04602,0.6465 1.31762,0.2641 0.78966,-1.1117 -0.4426,-1.1534 0.71742,-5.3825 2.57782,-9.398 2.72372,-5.8789 3.91583,-12.3489 6.12055,-33.21881 7.7949,-73.78611 2.70039,-205.91238 -11.8503,-307.3383 -3.56085,-24.82093 -16.81371,-105.25571 -17.44682,-105.88882 -0.19938,-0.19938 -1.14893,7.13921 -2.11012,16.30798 -2.00534,19.12886 -2.79462,23.59724 -8.54455,48.37381 -3.9486,17.01458 -4.52415,18.40723 -9.80837,23.73275 -6.39757,6.44762 -24.13968,19.92558 -33.28381,25.2844 l -6.1599,3.60993 -8.84731,-2.32047 c -4.86602,-1.27626 -9.11475,-2.05303 -9.44161,-1.72618 -0.60534,0.60534 14.77968,31.39631 18.78689,37.59934 8.86681,13.72554 13.29434,19.93528 21.55183,30.22712 9.05668,11.28793 9.25532,11.69188 5.17371,10.52128 -10.78743,-3.0938 -44.29649,-31.31419 -57.80226,-48.67946 l -3.51856,-4.52406 -5.23889,14.69879 c -2.88139,8.08432 -5.84236,15.30223 -6.57991,16.03978 -2.27352,2.27353 -1.53349,3.24791 3.76952,4.96307 2.8108,0.90912 7.25697,2.7334 9.88038,4.05398 5.22474,2.63006 13.21636,9.4954 11.05313,9.4954 -0.74394,0 -1.74698,-0.63811 -2.22899,-1.41804 -1.55621,-2.51799 -10.68131,-7.6363 -17.82372,-9.9974 -5.96893,-1.97318 -8.38488,-2.07866 -17.03513,-0.74378 -16.64084,2.56796 -41.98091,13.60016 -49.21914,21.42832 -1.87024,2.02268 -8.19636,10.73014 -14.05806,19.34991 -26.03694,38.28805 -52.42036,77.63454 -52.42036,78.17628 0,0.3251 6.95626,5.84207 15.45834,12.25993 8.5021,6.41785 20.93702,17.05869 27.63318,23.64629 11.2183,11.03644 33.35876,35.94137 39.11908,44.00351 l 2.43429,3.40703 3.40715,-4.08844 c 1.87393,-2.24863 11.27203,-14.51393 20.88468,-27.2562 16.88152,-22.37772 25.85248,-32.73854 23.86715,-27.56485 -0.49658,1.29407 -1.42288,2.35285 -2.05844,2.35285 -0.63556,0 -5.45994,5.97933 -10.72082,13.2874 -5.2609,7.30807 -15.01798,20.33457 -21.68243,28.94776 -11.47264,14.82738 -12.01166,15.82138 -10.1336,18.68766 1.78764,2.72828 1.59257,4.24381 -1.97497,15.34358 -2.1772,6.77395 -3.45922,12.31629 -2.84895,12.31629 1.80697,0 1.26843,3.94193 -1.01457,7.42623 -2.00839,3.0651 -1.95269,3.29446 1.0221,4.20727 6.1678,1.89253 6.84038,3.32716 3.89791,8.31427 -2.18656,3.7059 -2.32159,4.5828 -0.70567,4.5828 1.13077,0 2.0465,1.3312 2.10941,3.0663 0.0929,2.5632 0.44015,2.3123 2.11613,-1.5294 1.82223,-4.1769 2.41656,-4.5291 6.52165,-3.8628 4.29766,0.6974 4.59627,0.4673 6.15753,-4.7437 1.47269,-4.91548 2.02687,-5.41999 5.40812,-4.92365 3.42874,0.50314 3.97619,-0.0354 6.0919,-5.99228 1.67136,-4.70579 3.05219,-6.54504 4.91376,-6.54504 1.42403,0 2.96816,0.61327 3.43141,1.36281 1.39384,2.25532 2.57605,1.56001 5.79373,-3.40753 2.15965,-3.33407 3.94948,-4.64054 6.04469,-4.41226 2.40871,0.26245 3.21416,-0.65063 4.22201,-4.78622 1.06717,-4.37891 1.78699,-5.11053 5.02816,-5.11053 3.13774,0 3.9264,-0.71845 4.62544,-4.21366 0.52724,-2.63622 1.86647,-4.48137 3.57737,-4.92879 1.50405,-0.39332 2.73465,-1.82879 2.73465,-3.18995 0,-1.36116 1.18677,-2.85152 2.63728,-3.31189 2.84016,-0.90143 4.95593,-6.36638 9.51118,-24.56698 5.47949,-21.89342 7.29695,-37.79669 8.3314,-72.902 l 1.02403,-34.75166 -0.39032,36.79588 c -0.41915,39.51437 -1.16572,45.88829 -8.92795,76.2226 -5.41982,21.18032 -6.31025,23.94482 -20.00318,62.10267 -14.23071,39.65638 -19.54554,53.49698 -20.26632,52.77618 -0.30704,-0.307 1.97105,-7.2478 5.06244,-15.424 3.09138,-8.1762 6.12178,-16.399 6.73422,-18.2728 0.61243,-1.8739 3.0375,-8.6198 5.38904,-14.99095 2.35154,-6.37114 6.38577,-17.71655 8.96496,-25.21201 l 4.68943,-13.6281 -8.59122,8.85827 c -13.86972,14.3008 -27.40524,26.2412 -42.18757,37.21589 -4.08191,3.0305 -5.62108,3.4999 -7.74657,2.3625 -5.53165,-2.9606 -7.0194,-1.0509 -10.32952,13.2589 -0.56709,2.4515 -1.52573,4.7631 -2.13029,5.1368 -0.60456,0.3737 -0.54827,-1.2416 0.12511,-3.5895 0.94106,-3.2812 0.62968,-5.4343 -1.34598,-9.307 -1.41366,-2.771 -3.59315,-8.9876 -4.84332,-13.8147 -1.25018,-4.82708 -2.67701,-9.47577 -3.17074,-10.33052 -0.82912,-1.43531 -26.38707,24.97362 -39.09236,40.39412 -8.96206,10.8773 -15.86274,17.9444 -16.70215,17.105 -0.4503,-0.4502 2.24655,-4.0233 5.993,-7.9397 3.74645,-3.9166 9.64179,-10.4941 13.10078,-14.6166 3.45899,-4.1225 13.99844,-15.7745 23.42102,-25.89335 9.42258,-10.11887 17.13049,-19.31785 17.12868,-20.44217 -10e-4,-1.12432 -1.99044,-4.59011 -4.4192,-7.70176 -2.42875,-3.11165 -5.64243,-7.37785 -7.14152,-9.48045 -20.76211,-29.1205 -47.27273,-54.47458 -75.36561,-72.07769 -10.89556,-6.8272 -12.94308,-7.67258 -14.57518,-6.01783 -1.04438,1.05886 -7.77476,9.59102 -14.95643,18.96034 -7.18167,9.36933 -19.32741,25.21651 -26.99055,35.21597 -7.66312,9.99945 -16.18993,21.34485 -18.94847,25.21199 -3.63936,5.10195 -6.35983,7.41527 -9.91499,8.43108 l -4.8995,1.39993 11.27782,10.91004 c 15.93282,15.41325 33.88316,31.2623 37.62864,33.2238 1.75066,0.9168 2.8764,1.9735 2.50163,2.3483 -1.11514,1.1152 -5.95828,-1.9866 -13.54222,-8.673 -15.66049,-13.80686 -43.24786,-40.3668 -43.24786,-41.63712 0,-0.7424 0.91193,-0.59299 2.02651,0.33203 3.39438,2.81708 8.82512,0.46925 11.00999,-4.75987 2.91335,-6.97263 2.38056,-7.39999 -1.66271,-1.33373 -1.98941,2.98479 -3.75731,5.61052 -3.92865,5.83496 -0.17135,0.22442 -2.48367,-1.06601 -5.13851,-2.86761 -3.24451,-2.20179 -7.70974,-3.57103 -13.62029,-4.17658 -11.23318,-1.15088 -41.33748,-8.85809 -61.18177,-15.66359 -8.47322,-2.90584 -31.83033,-11.8402 -51.9047,-19.85414 l -36.49885,-14.5708 -6.60401,4.84779 c -3.63221,2.66628 -8.27397,7.03721 -10.31503,9.71318 -2.04106,2.67598 -4.02119,4.55524 -4.4003,4.17614 -1.12414,-1.12415 8.04328,-11.46138 13.67366,-15.41849 l 5.21367,-3.66423 -5.86028,-2.29128 c -8.23136,-3.21832 -12.10177,-1.51263 -24.12893,10.63374 -7.99413,8.07335 -11.21779,12.64878 -15.93055,22.6106 -11.2712,23.82505 -12.20595,29.21705 -12.20595,70.4086 0,19.8629 -0.19033,33.8147 -0.42297,31.0039 -0.27668,-3.3431 -1.10151,-5.1105 -2.38492,-5.1105 -3.60389,0 -7.05838,-5.0365 -9.93586,-14.486 -5.34548,-17.5543 -5.55627,-19.9798 -2.91628,-33.55761 5.14853,-26.47941 11.29845,-48.82611 15.07683,-54.78402 3.89367,-6.13966 14.22792,-13.97374 26.86397,-20.36472 l 7.20141,-3.64229 -6.16163,-8.47097 C 279.57172,885.41578 271.44352,872.43012 266.03909,860.92906 261.15625,850.538 249.54684,820.72511 245.73057,808.77698 l -1.30586,-4.08843 -3.13257,6.13265 c -3.58115,7.01083 -11.96164,19.44651 -16.62169,24.66465 -14.27571,15.98535 -19.50916,22.13168 -19.46727,22.86298 0.7363,12.85261 7.34451,52.59309 15.01118,90.27417 4.1762,20.52564 9.42272,46.51832 11.65895,57.7615 l 4.06588,20.4422 10.46901,10.5617 c 5.75796,5.809 9.84582,10.5618 9.08413,10.5618 -0.76169,0 -5.41202,-4.1395 -10.33408,-9.1989 l -8.94921,-9.199 -10.07609,-0.1616 c -5.62548,-0.09 -12.26698,-1.0851 -15.03619,-2.2525 l -4.96007,-2.091 -1.72398,-14.5467 -1.724,-14.54694 -13.63745,-17.95231 c -7.5006,-9.87376 -15.44776,-20.21086 -17.66033,-22.9713 l -4.02287,-5.01898 -10.40728,8.88612 c -5.72398,4.88737 -12.09374,9.88451 -14.15499,11.10477 -2.06125,1.22024 -3.74773,2.62546 -3.74773,3.12271 0,0.90635 14.06646,18.70948 30.21481,38.24113 4.77128,5.7708 15.32362,15.7605 23.6162,22.3569 8.245,6.5585 15.57352,12.4427 16.28558,13.076 0.74797,0.6654 -0.11529,1.1414 -2.04421,1.1274 -2.20581,-0.016 -6.38604,-2.9065 -12.31804,-8.5176 z m 68.60583,-33.3646 c 0.53684,-26.17088 1.08985,-32.63606 3.54752,-41.4739 4.01319,-14.43156 12.68854,-32.32056 20.06722,-41.37957 5.57377,-6.8431 5.80283,-7.38901 2.35128,-5.60384 -7.80164,4.03506 -20.53662,14.36259 -23.37616,18.95706 -3.00351,4.85977 -7.29284,17.05274 -8.98804,25.5496 -0.52338,2.62341 -2.50524,11.82238 -4.40412,20.44216 -2.52761,11.47392 -3.24942,17.86279 -2.69443,23.84919 1.14869,12.3901 8.10624,30.6632 11.67514,30.6632 0.65209,0 1.47181,-13.9517 1.82159,-31.0039 z m -35.26226,15.8787 c -1.1349,-3.8218 -1.79974,-7.2123 -1.47741,-7.5346 0.32234,-0.3223 1.36807,2.2069 2.32387,5.6208 0.95579,3.4137 2.13082,6.4496 2.61116,6.7466 2.29821,1.4203 -0.37194,-16.8656 -7.35261,-50.35264 -10.40427,-49.91044 -15.1529,-75.88608 -18.51119,-101.25877 -1.55743,-11.7668 -3.66822,-26.91355 -4.69063,-33.65945 -10.73724,-70.84427 -12.93993,-85.4661 -12.93993,-85.89737 0,-0.27513 -3.36689,1.4336 -7.48199,3.7972 -5.70438,3.27642 -7.85437,5.42574 -9.04933,9.04654 -2.51581,7.62297 -6.80735,16.78038 -7.52681,16.06091 -0.36442,-0.36443 0.54272,-3.02522 2.01589,-5.91287 1.47317,-2.88764 3.34237,-7.69988 4.15379,-10.69384 1.24033,-4.57664 2.6195,-6.0719 8.65976,-9.38881 3.95147,-2.16988 8.3392,-4.92957 9.75051,-6.13264 2.40254,-2.04805 2.51056,-2.00885 1.69539,0.61513 -0.47885,1.54139 -0.32428,5.72705 0.34349,9.30142 1.90655,10.2053 12.30604,18.99701 14.2961,12.08591 0.3777,-1.3117 1.09591,-7.64392 1.59601,-14.0716 l 0.90928,-11.68667 -7.1829,-12.63328 c -3.95059,-6.9483 -7.99286,-12.94408 -8.98282,-13.32397 -2.00944,-0.77109 -9.39238,3.27552 -25.86578,14.17712 -7.14193,4.72631 -12.95963,7.54866 -16.35371,7.93369 -4.78971,0.54336 -4.88606,0.49575 -1.06082,-0.52402 4.97758,-1.327 4.52845,-1.07453 21.0046,-11.80738 16.87626,-10.99349 18.76641,-11.92823 22.3179,-11.03686 1.64159,0.41201 4.33007,3.07054 5.97441,5.90783 2.19959,3.79537 2.99664,4.43838 3.01593,2.43309 0.0346,-3.60019 -4.14615,-10.29919 -12.72054,-20.3826 -8.29594,-9.75595 -8.88059,-10.23269 -12.58203,-10.25977 -3.62645,-0.0266 -19.70715,11.23149 -30.82916,21.58333 -8.59058,7.99573 -14.34039,11.91515 -15.61285,10.64268 -0.37478,-0.37477 0.75096,-1.41462 2.50164,-2.31078 1.75066,-0.89616 6.24936,-4.58684 9.99708,-8.20152 7.72223,-7.44806 24.02346,-19.60044 29.64113,-22.09712 2.06125,-0.9161 3.74773,-2.06312 3.74773,-2.54896 0,-1.78275 -16.58187,-16.17294 -18.81632,-16.32931 -6.08674,-0.42597 -9.14524,1.57007 -27.92641,18.22539 -6.59509,5.84858 -12.65317,10.22458 -13.4624,9.72445 -0.92617,-0.57241 -0.52282,-1.42458 1.08858,-2.2999 1.40796,-0.76483 6.02452,-4.3668 10.25903,-8.00439 l 7.6991,-6.61383 -2.76221,-7.13863 c -5.88642,-15.21278 -12.09821,-40.22835 -13.29518,-53.5412 -2.28722,-25.43884 -15.98919,-52.4012 -26.629683,-52.4012 -8.272914,0 -9.394643,4.11132 -4.737184,17.36264 1.499092,4.26519 2.725621,10.94237 2.725621,14.83818 0,3.8958 1.790188,16.48899 3.978207,27.98484 4.51927,23.74444 6.391254,41.37623 7.717379,72.68835 l 0.92348,21.80497 8.10611,23.84919 c 9.75851,28.71077 16.84774,43.59253 31.13503,65.35897 11.84182,18.04081 16.28031,26.05445 16.28031,29.3939 0,2.47594 1.93607,2.10647 12.606,-2.40559 3.96409,-1.67633 6.46859,-3.59684 6.46106,-4.95453 -0.007,-1.2194 -1.84654,-14.76313 -4.08843,-30.09716 -3.98152,-27.23292 -4.68601,-33.82915 -3.48471,-32.62783 0.32529,0.32529 1.52729,7.63336 2.67111,16.24016 3.57325,26.88734 7.52503,51.77188 11.11188,69.97207 1.89985,9.64011 4.30555,23.13193 5.34599,29.98183 1.04044,6.84989 4.97176,30.23903 8.73627,51.97585 3.7645,21.73683 7.91257,47.38248 9.21791,56.99025 2.01546,14.8346 2.79604,17.6983 5.17645,18.9909 3.14538,1.7082 10.47927,3.3504 16.01705,3.5866 l 3.67428,0.1567 -2.06348,-6.9484 z m 2.31798,-3.1592 c -0.0591,-1.4365 0.26291,-2.2415 0.71578,-1.7887 0.45284,0.4529 0.50125,1.6283 0.10752,2.6121 -0.43504,1.0871 -0.75797,0.7643 -0.82335,-0.8234 z m 466.07034,-16.3395 c 3.12933,-2.63325 3.48181,-3.43881 1.78879,-4.08846 -3.56447,-1.36785 -4.29439,-0.95301 -5.76979,3.27936 -1.72384,4.9449 -1.08787,5.0743 3.981,0.8091 z m -22.72452,-0.2507 c 1.0537,-2.74588 -0.0961,-4.64686 -2.81048,-4.64686 -1.36377,0 -1.81713,0.76208 -1.28238,2.15569 0.45497,1.18567 0.82721,2.71877 0.82721,3.40707 0,2.0729 2.37421,1.4071 3.26565,-0.9159 z m 37.48699,-11.98369 c 1.36014,-1.63878 1.16441,-2.28366 -1.05355,-3.47067 -4.33957,-2.32236 -4.49605,-2.15978 -7.64778,7.9456 l -1.02007,3.27061 4.02547,-2.8664 c 2.214,-1.5765 4.77718,-3.77213 5.69593,-4.87914 z m -514.40094,-27.4585 c -2.58592,-14.9669 -6.84098,-40.09112 -9.45567,-55.83158 -2.6147,-15.74046 -5.0717,-29.97117 -5.46001,-31.62381 l -0.706,-3.00481 -6.46283,3.24327 c -11.64434,5.84354 -28.01886,10.54377 -42.24714,12.12685 l -13.97933,1.55538 7.11846,8.85156 c 3.91515,4.86835 15.03418,18.05053 24.70895,29.29372 15.68139,18.22357 38.29347,46.57116 47.07861,59.02006 1.74955,2.47909 3.38927,4.29926 3.64383,4.04469 0.25454,-0.25444 -1.65294,-12.70843 -4.23887,-27.67533 z m 472.28549,27.41135 c 0,-0.31345 0.37224,-1.53998 0.82721,-2.72562 0.54283,-1.4146 0.0743,-2.1557 -1.36281,-2.1557 -1.28147,0 -2.19002,1.13073 -2.19002,2.72563 0,1.49909 0.61327,2.72562 1.36281,2.72562 0.74955,0 1.36281,-0.25648 1.36281,-0.56993 z m 53.14961,-9.29758 c 0,-1.55549 -1.96996,-1.24553 -3.81587,0.60038 -2.6055,2.60557 -1.89382,4.00041 1.09025,2.13677 1.49909,-0.93612 2.72562,-2.16791 2.72562,-2.73715 z M 673.0183,968.71324 c 1.17545,-4.63094 1.03121,-6.2837 -0.80286,-9.19897 l -2.23574,-3.55376 3.01283,2.59614 c 5.83888,5.03132 2.89415,0.19527 -7.94663,-13.05052 -26.35882,-32.20648 -46.89533,-52.3652 -69.71194,-68.42955 l -9.12385,-6.42377 -5.18565,2.68496 c -2.85212,1.47672 -6.4045,3.5978 -7.89421,4.71351 -2.63321,1.97213 -2.58327,2.09828 1.79523,4.53581 19.92777,11.09391 48.64415,34.47014 64.08701,52.16929 4.28962,4.91636 12.89881,15.83806 19.13154,24.27045 6.23272,8.43239 11.80678,15.33162 12.38679,15.33162 0.58001,0 1.69938,-2.54035 2.48748,-5.64521 z m 58.58973,4.00984 c 2.17699,-2.177 2.06967,-3.81587 -0.2499,-3.81587 -1.03689,0 -2.20601,1.22653 -2.59803,2.72562 -0.80271,3.06955 0.40594,3.53224 2.84793,1.09025 z M 527.923,931.49176 c 12.62269,-16.52402 24.73589,-32.1901 26.91824,-34.81351 2.18234,-2.62341 5.93044,-7.65304 8.32909,-11.17695 2.39867,-3.52392 6.38365,-7.49628 8.85554,-8.82747 2.47188,-1.33121 4.49433,-3.0251 4.49433,-3.7642 0,-3.23931 -18.19797,-93.25828 -23.97794,-118.61045 -3.05692,-13.40834 -5.88995,-19.79537 -8.78043,-19.79537 -0.89299,0 -2.78444,5.58094 -10.854,32.02605 -1.55702,5.10257 -3.33315,18.93689 -4.72407,36.79588 -5.37024,68.95236 -13.34348,121.72606 -22.33997,147.86493 -6.33281,18.39967 -6.10269,17.45436 -3.33267,13.68995 1.35384,-1.83985 12.78919,-16.86483 25.41188,-33.38886 z M 498.70538,958.051 c 2.38346,-4.47181 4.88173,-8.46937 5.55173,-8.88345 0.67001,-0.41409 2.14921,-3.96118 3.28712,-7.88244 2.1096,-7.26969 10.37513,-51.3648 10.37513,-55.34941 0,-1.22084 -5.78748,3.84822 -13.04891,11.42911 -7.1769,7.49262 -18.67562,19.32894 -25.5527,26.30294 -13.33092,13.51875 -13.11208,12.84337 -5.62266,17.35224 2.21698,1.33468 2.21796,1.66349 0.0176,5.91859 -1.28139,2.47796 -1.93053,4.90834 -1.4425,5.40084 1.43983,1.45305 20.36104,13.71132 21.26945,13.7796 0.45774,0.0343 2.78234,-3.5962 5.16578,-8.06802 z m 242.40348,1.91366 c -0.45681,-0.45681 -1.56517,0.60181 -2.46299,2.35247 -1.56058,3.04297 -1.52403,3.07952 0.83056,0.83058 1.35465,-1.29387 2.08925,-2.72623 1.63243,-3.18305 z m -261.3482,0.19543 c 0,-0.31364 -2.2325,-1.95002 -4.9611,-3.63639 -4.8622,-3.00499 -4.99947,-3.014 -6.88529,-0.45185 -1.79192,2.43459 -1.56802,2.67124 3.25759,3.44299 7.49594,1.19882 8.5888,1.28093 8.5888,0.64525 z m -11.04455,-8.74803 c 2.32678,-3.62596 4.22066,-7.15223 4.20863,-7.83616 -0.0123,-0.68393 -4.85454,-3.91981 -10.76111,-7.19086 -16.49164,-9.13303 -16.57739,-9.32447 -16.89138,-37.71204 -0.14478,-13.08973 -0.64108,-23.79955 -1.10285,-23.79961 -0.46178,-5e-5 -2.06297,3.21954 -3.55819,7.15465 -1.49522,3.93512 -3.53546,7.15476 -4.53385,7.15476 -3.07166,0 -13.34845,-14.56903 -15.86158,-22.48638 -1.30857,-4.1225 -3.37373,-9.18377 -4.58925,-11.24727 l -2.21003,-3.75182 -5.74913,6.81814 c -3.16202,3.74998 -6.59285,6.81814 -7.62403,6.81814 -1.03118,0 -2.6488,-2.14022 -3.59468,-4.75606 -2.93032,-8.10361 -5.23639,0.4984 -3.05611,11.39976 l 0.85176,4.25879 13.99601,0 13.99602,0 0.58332,5.79194 c 0.32867,3.26332 -0.055,6.22907 -0.87895,6.79319 -0.80427,0.55068 -6.72558,1.01063 -13.15848,1.02211 l -11.69619,0.0208 -1.40356,-6.47335 c -1.33893,-6.17531 -1.41198,-6.25374 -1.58651,-1.70352 -0.10058,2.62341 0.71761,14.27544 1.8183,25.8934 1.1007,11.61796 2.1423,23.40071 2.31467,26.18388 l 0.31341,5.06032 14.37507,4.98853 c 19.97358,6.93138 44.24464,13.86519 49.32534,14.09141 1.25322,0.0557 4.1095,-2.80907 6.47335,-6.49281 z M 423.4209,902.88463 c -0.44701,-1.16488 -0.26981,-2.11795 0.39374,-2.11795 0.66356,0 1.44767,0.7236 1.74247,1.608 0.73003,2.19012 5.14238,0.34375 5.14238,-2.15184 0,-1.09571 -1.37985,-2.25797 -3.06633,-2.58281 -2.56764,-0.49455 -2.44211,-0.62077 0.77193,-0.77619 3.41872,-0.1653 3.79112,0.22405 3.40702,3.56214 -0.33282,2.89255 -1.24667,3.8423 -4.00485,4.16216 -2.26375,0.26252 -3.87154,-0.36189 -4.38636,-1.70351 z m 323.45061,51.63263 c 0,-0.33053 -0.61327,-0.60097 -1.36281,-0.60097 -0.74955,0 -1.36281,0.64946 -1.36281,1.44324 0,0.79379 0.61326,1.06422 1.36281,0.60098 0.74954,-0.46325 1.36281,-1.11271 1.36281,-1.44325 z M 396.10572,927.00078 c -0.50789,-5.80897 -1.81377,-21.60054 -2.90192,-35.09236 -1.08815,-13.49183 -2.12125,-26.07767 -2.29579,-27.96855 -0.17452,-1.89088 0.42431,-5.26383 1.33076,-7.49546 1.36247,-3.35435 1.22766,-5.45603 -0.77796,-12.12783 l -2.42603,-8.07034 -3.71503,8.27816 c -3.08281,6.86942 -3.47125,8.91931 -2.28261,12.0457 0.90971,2.3927 0.95299,4.06385 0.11857,4.57954 -3.09935,1.91549 -13.7746,39.21105 -15.9232,55.63007 -0.51495,3.93511 -1.39687,7.15475 -1.95979,7.15475 -2.35394,0 8.58133,-46.80102 13.57078,-58.08049 3.70768,-8.38181 3.76915,-11.36427 0.16708,-8.10442 -2.541,2.29956 -2.67732,2.20534 -4.13098,-2.85511 -0.82679,-2.87822 -2.50545,-11.97905 -3.73038,-20.22406 -1.22492,-8.245 -2.63244,-15.46701 -3.12782,-16.04892 -1.75327,-2.05948 -33.56364,77.98679 -34.91764,87.86527 l -0.80988,5.90868 31.14556,12.49193 c 17.13005,6.87057 31.69548,12.53318 32.36763,12.58358 0.69698,0.0523 0.82529,-4.4465 0.29862,-10.47014 z m 85.38089,-8.17686 c 9.33526,-9.55671 21.58235,-22.25476 27.21575,-28.2179 l 10.24254,-10.84207 2.27515,-19.13976 c 2.30689,-19.40673 7.74458,-80.15456 7.21113,-80.55996 -0.15992,-0.12156 -2.89712,-1.8443 -6.08269,-3.82843 -3.961,-2.46708 -5.80748,-4.5714 -5.84112,-6.6567 -0.0298,-1.84979 -1.01855,-0.36884 -2.51351,3.76481 -1.35539,3.74773 -3.75789,9.34024 -5.33888,12.42783 l -2.87452,5.61375 3.16841,2.97656 c 1.74263,1.63712 4.24148,4.96915 5.55302,7.40454 2.31582,4.3002 2.29629,4.60285 -0.67684,10.48902 -6.5008,12.87017 -17.61526,28.54742 -20.23885,28.54742 -1.42413,0 -3.19775,0.76658 -3.94139,1.70351 -1.09176,1.37554 -4.57755,10.40706 -5.12837,13.2874 -0.0717,0.37477 -6.67397,7.33687 -14.67179,15.47132 -18.29217,18.60471 -22.81451,26.75007 -22.74243,40.96228 0.0559,11.00231 2.35013,15.03766 11.70236,20.58257 2.90607,1.723 5.37941,3.19053 5.49629,3.26119 0.11693,0.0706 7.85049,-7.69067 17.18574,-17.24738 z m 0.76061,-57.12146 c 3.99652,-3.35029 5.36295,-5.26859 4.24502,-5.95949 -1.14096,-0.70516 -0.64775,-1.55229 1.60187,-2.75128 2.96447,-1.58 3.08588,-1.53295 1.38007,0.53492 -2.36618,2.86834 -1.0419,2.89894 3.26725,0.0755 3.02975,-1.98517 3.42265,-1.99 4.16662,-0.0512 0.73994,1.92824 1.18075,1.9144 4.44302,-0.13958 l 3.62159,-2.28018 -2.72562,3.16297 c -1.4991,1.73964 -5.17868,5.04695 -8.17687,7.34957 l -5.45124,4.18659 4.52099,-4.83709 c 3.76284,-4.02593 4.15091,-4.97909 2.31413,-5.68392 -1.21376,-0.46577 -1.88508,-0.32622 -1.4918,0.31012 0.39328,0.63633 -1.77127,3.38901 -4.81013,6.11704 -5.977,5.36567 -8.60535,6.63641 -4.62162,2.23444 1.35666,-1.4991 1.85339,-2.72562 1.10385,-2.72562 -0.74955,0 -2.47281,1.22652 -3.82947,2.72562 -1.35666,1.49909 -3.13819,2.71361 -3.95895,2.69895 -0.82075,-0.0147 1.15982,-2.24996 4.40129,-4.9673 z m 10.46482,-5.67671 c -0.41899,-0.41899 -2.12461,0.65791 -3.79026,2.39311 l -3.02847,3.15491 3.79026,-2.39311 c 2.08464,-1.31622 3.44745,-2.73592 3.02847,-3.15491 z m -161.48297,52.57709 c 0.0203,-4.21589 2.5313,-12.1245 10.87139,-34.24008 l 7.13062,-18.90845 -3.89783,-3.1882 c -2.14381,-1.75351 -4.26894,-3.21026 -4.72249,-3.23722 -1.92007,-0.11406 -12.7575,17.31252 -19.22599,30.91543 -4.50341,9.47044 -7.02443,16.59354 -7.09543,20.04803 -0.10793,5.24799 0.0442,5.42071 7.38531,8.39018 9.55216,3.8638 9.5369,3.86345 9.55442,0.22031 z m -18.61025,-9.98065 c 1.01453,-7.4018 12.55713,-31.58839 20.37945,-42.70351 5.10376,-7.25217 5.88559,-9.15096 4.60937,-11.19451 -1.003,-1.60605 -2.54047,-2.20908 -4.4258,-1.7359 -2.30282,0.57796 -5.42909,-1.95901 -15.41038,-12.50563 -6.88683,-7.27687 -12.74398,-12.99112 -13.01589,-12.69834 -0.27192,0.2928 -3.3682,5.28516 -6.88064,11.09414 -3.51243,5.80898 -6.63379,10.56178 -6.93635,10.56178 -1.13024,0 2.86096,-7.75235 7.85477,-15.25684 2.84062,-4.26876 5.16477,-8.27815 5.16477,-8.90974 0,-0.63161 -1.83577,-3.27163 -4.07949,-5.86672 l -4.07949,-4.71837 -2.78792,3.40703 c -13.42672,16.40833 -24.92073,32.91247 -27.96714,40.15775 -1.5583,3.70608 -1.23827,4.96903 3.79906,14.99277 5.90002,11.74038 12.1932,21.57261 23.6732,36.98612 l 7.21461,9.68662 6.05456,-2.80748 c 5.45627,-2.53007 6.1315,-3.36892 6.83331,-8.48917 z m 145.20459,-17.14997 5.59408,-6.34777 -4.19874,-3.533 c -3.88336,-3.26763 -10.2573,-5.89831 -11.43135,-4.718 -0.4778,0.48035 -1.18449,26.26768 -0.79812,29.1234 0.1014,0.74954 1.32192,-0.78362 2.71221,-3.40703 1.39032,-2.62341 5.04517,-7.62633 8.12192,-11.1176 z m -39.72992,6.1702 c 2.41378,-0.64685 3.06633,-1.80298 3.06633,-5.43262 l 0,-4.61089 -12.43565,0 -12.43564,0 0.85175,4.25878 c 0.46847,2.34233 0.85176,4.79539 0.85176,5.45124 0,1.34276 15.38305,1.59798 20.10145,0.33349 z M 154.4907,881.55737 c 17.9429,-5.92973 27.06159,-10.54427 26.24474,-13.28126 -0.37114,-1.2436 -1.37763,-6.40063 -2.23665,-11.46006 -0.85901,-5.05944 -1.83597,-9.19897 -2.17102,-9.19897 -0.33506,0 -2.36106,0.90593 -4.50224,2.01318 -13.851,7.16262 -50.70999,12.99903 -64.0397,10.14032 -9.02756,-1.93606 -8.288303,-2.88661 1.09177,-1.40382 7.7188,1.22017 27.83726,-0.19621 39.37943,-2.77243 10.50669,-2.34507 10.28322,-3.50191 -5.09488,-26.37519 -5.03932,-7.49546 -11.15271,-17.16067 -13.58528,-21.47825 l -4.42288,-7.85015 -3.70099,5.12453 c -9.23488,12.787 -21.875299,35.14725 -25.996111,45.98579 -1.259877,3.31373 1.368057,7.93165 15.402201,27.06556 l 6.84034,9.32599 12.38283,-0.93053 c 7.83691,-0.58891 16.79761,-2.38951 24.40844,-4.90471 z m 284.37915,0.14966 c 0.98591,-2.98735 2.92387,-6.45535 4.30656,-7.70668 3.90738,-3.53612 3.11543,-4.12404 -5.55543,-4.12404 -7.56279,0 -16.64826,-3.44705 -14.56813,-5.52719 0.4217,-0.4217 1.68406,-0.005 2.80524,0.9251 3.20387,2.65898 11.37036,4.00852 16.15169,2.66912 5.57053,-1.56046 9.54352,-7.48164 13.18132,-19.64486 1.56923,-5.24681 4.0183,-13.06643 5.44237,-17.3769 l 2.58922,-7.83724 -7.35767,0.86475 c -10.5408,1.23886 -20.60159,-3.77748 -26.8185,-13.37179 l -4.47363,-6.904 -2.26555,7.44157 c -1.24604,4.09286 -3.24777,15.0123 -4.44828,24.2654 l -2.18273,16.82384 3.40317,5.14253 c 1.87175,2.82839 3.07393,6.00055 2.67152,7.04922 -1.12068,2.92045 11.33961,22.74272 14.2961,22.74272 0.56658,0 1.83682,-2.4442 2.82273,-5.43155 z m 30.56364,-12.17424 c 2.09598,-2.18774 3.39315,-4.65357 2.88262,-5.47963 -1.01137,-1.63642 -14.36253,-9.58849 -16.13347,-9.60925 -0.90943,-0.0109 -5.041,8.18462 -5.041,9.99919 0,0.30791 1.79547,1.30354 3.98992,2.21251 2.19444,0.90898 5.04918,2.82317 6.34385,4.25378 3.06716,3.38916 3.45676,3.32177 7.95808,-1.3766 z m 113.62406,0.22996 c 4.85575,-4.20978 19.35605,-26.55849 19.35605,-29.83267 0,-6.52689 -3.33481,-22.29318 -4.70653,-22.25149 -0.78437,0.0239 -2.6032,0.93399 -4.04187,2.02255 -2.38023,1.80099 -2.4252,2.19589 -0.49948,4.38579 4.53415,5.1562 8.01878,13.91983 6.59366,16.58269 -1.02839,1.92155 -20.396,19.96929 -22.98635,21.41986 -0.88999,0.49838 1.46093,10.05819 2.47349,10.05819 0.58309,0 2.29805,-1.07322 3.81103,-2.38492 z M 408.99846,854.17578 c 6.33034,-7.60668 6.81609,-8.70434 6.43784,-14.54783 -0.4024,-6.21641 -0.49192,-6.32726 -5.44203,-6.73872 -3.60041,-0.29927 -5.802,0.35076 -7.73503,2.28378 -3.20387,3.20388 -7.51611,2.51951 -10.44154,-1.65712 -2.65377,-3.78877 -2.57709,-3.20968 1.44105,10.88241 4.4449,15.58886 6.12678,19.7144 7.65259,18.7714 0.68209,-0.42156 4.3213,-4.46882 8.08712,-8.99392 z m 71.51431,2.87894 c 4.51494,-6.51504 4.0895,-7.0358 -7.63168,-9.34181 -4.31669,-0.84925 -8.59601,-2.44477 -9.50961,-3.54558 -0.9136,-1.10082 -2.42565,-2.00149 -3.36012,-2.00149 -1.9013,0 -4.00628,10.00154 -2.23246,10.60723 0.62199,0.21238 4.44249,2.44972 8.48999,4.97187 4.04752,2.52215 8.0423,4.64812 8.8773,4.72439 0.83499,0.0763 3.24996,-2.36031 5.36658,-5.41461 z m 108.15048,-7.8579 c 5.31406,-4.75272 9.66192,-9.52995 9.66192,-10.61606 0,-3.10042 -4.84932,-11.65509 -9.36248,-16.51637 -3.81252,-4.10657 -4.74668,-4.42914 -12.82711,-4.42914 l -8.71513,0 2.47828,12.606 c 1.36306,6.9333 3.20506,16.41274 4.09334,21.06543 1.15685,6.05953 2.0965,8.18597 3.31216,7.49546 0.93341,-0.53019 6.04498,-4.85259 11.35902,-9.60532 z m -205.01441,-5.40973 c 6.1887,-12.71638 5.6679,-14.82752 -4.83589,-19.60287 -5.11541,-2.32562 -8.07521,-3.07519 -8.07193,-2.04421 0.005,1.92422 3.46874,22.8268 4.85533,29.30997 1.18966,5.56241 1.98402,4.80648 8.05249,-7.66289 z M 225.54466,831.26336 c 3.93149,-4.87205 9.70406,-13.20873 12.82795,-18.52597 l 5.67977,-9.66769 -4.57839,-16.11409 c -4.9465,-17.4097 -6.26608,-19.00093 -15.01445,-18.10532 -3.53533,0.36192 -4.23792,1.27825 -6.5803,8.58206 -4.75143,14.81546 -5.09843,41.32718 -0.49087,37.50326 4.4514,-3.69434 13.79004,-20.29514 16.04589,-28.52388 2.39977,-8.75381 2.44322,-8.80985 1.72942,-2.23084 -0.40271,3.71171 -1.98052,9.32724 -3.50624,12.47897 -4.20923,8.69509 -18.30681,27.60951 -24.5814,32.98034 -5.98052,5.11909 -6.10702,6.00512 -3.05168,21.37515 l 0.81098,4.07967 6.78058,-7.48669 c 3.72932,-4.11769 9.99725,-11.47293 13.92874,-16.34497 z m 132.61993,3.85048 7.1895,-17.91034 -3.02252,-3.21734 c -1.6624,-1.76952 -3.44726,-3.05223 -3.96637,-2.85044 -1.41014,0.54815 -21.69963,28.13321 -21.69963,29.50226 0,1.42622 11.76656,12.43952 13.25696,12.40828 0.5789,-0.0123 4.28782,-8.08173 8.24206,-17.93242 z m 129.72464,6.9637 c 0.0266,-0.42333 -2.25145,-1.84151 -5.06224,-3.1515 -6.89723,-3.21448 -18.05135,-10.78789 -18.05461,-12.25868 -10e-4,-0.65394 0.93208,-0.41323 2.07452,0.5349 2.77256,2.30103 3.10759,1.62217 2.32133,-4.70353 l -0.66593,-5.35761 -2.49057,4.6762 c -1.3698,2.57191 -2.51625,5.33239 -2.54766,6.13441 -0.0882,2.25076 9.37417,12.7557 15.46212,17.16578 l 5.45909,3.95454 1.72782,-3.1124 c 0.95032,-1.71182 1.74958,-3.45876 1.77613,-3.88211 z m -10.85419,5.1971 c 0,-0.93193 -15.13423,-16.32224 -15.59629,-15.86017 -0.29473,0.29473 -0.93987,2.14551 -1.43365,4.11283 -0.73301,2.92055 -0.18149,4.08698 3.00534,6.35621 2.14672,1.52859 6.02713,3.38866 8.62316,4.13351 2.59602,0.74483 4.87335,1.40955 5.06074,1.47715 0.18739,0.0676 0.3407,-0.0312 0.3407,-0.21953 z M 337.22647,831.60406 c 2.81737,-3.93512 5.41863,-7.15476 5.78061,-7.15476 0.36198,0 -0.5096,1.68648 -1.93683,3.74773 -4.02078,5.80694 -4.98378,7.67353 -3.47914,6.7436 0.74067,-0.45776 3.12216,-3.46552 5.29219,-6.68392 2.17003,-3.21838 5.85652,-8.30468 8.19222,-11.30286 5.59158,-7.17758 6.48956,-8.85827 4.7329,-8.85827 -0.8031,0 -3.61782,3.37296 -6.25496,7.49546 -2.63713,4.1225 -5.10414,7.49545 -5.48226,7.49545 -0.95169,0 1.78841,-5.03497 6.48905,-11.92374 l 3.95164,-5.79111 -4.22126,-5.25281 c -2.32169,-2.88903 -5.69618,-9.61224 -7.49883,-14.94046 -1.80267,-5.32822 -4.29949,-11.66385 -5.54851,-14.07917 l -2.27092,-4.39148 -6.06332,6.72512 c -3.33482,3.69881 -9.0669,10.03926 -12.73794,14.08989 -3.67105,4.05061 -6.95245,8.03683 -7.29201,8.85827 -0.33955,0.82142 -0.66578,0.49588 -0.72496,-0.72342 -0.1206,-2.48445 10.39334,-33.72271 14.77243,-43.89092 3.17064,-7.36217 3.25644,-7.72696 1.81441,-7.71399 -3.83635,0.0345 -43.95079,30.28531 -43.95046,33.14364 0,2.52185 13.00884,22.16922 22.19064,33.51548 11.46411,14.1666 27.18556,30.35715 28.24771,29.09058 0.48132,-0.57396 3.18024,-4.2632 5.9976,-8.19831 z m 164.05529,-1.70351 c 3.21683,-4.87205 7.64224,-12.1485 9.83425,-16.16989 3.67481,-6.74167 3.83534,-7.60197 2.05929,-11.03647 -2.07488,-4.01236 -15.37045,-16.40358 -17.60078,-16.40358 -1.78841,0 -8.9998,6.94664 -8.9998,8.6694 0,0.73996 1.47314,-0.0386 3.27366,-1.73005 1.9799,-1.86003 4.53817,-2.89469 6.47335,-2.61807 4.21995,0.60321 3.76588,5.11384 -1.26888,12.60473 -16.57565,24.66184 -18.36432,26.9669 -19.51545,25.14961 -1.87204,-2.95538 -1.42402,-13.07494 0.81624,-18.43663 2.79097,-6.67974 2.61638,-6.923 -1.70352,-2.37372 -3.28435,3.45876 -3.76942,5.09487 -3.92323,13.23289 l -0.17551,9.28615 5.38867,3.40172 c 13.68259,8.63744 17.64695,8.07802 25.34171,-3.57609 z m -17.09196,3.19798 c -1.68648,-1.19219 -3.06633,-2.79927 -3.06633,-3.57126 0,-0.772 4.598,-8.36643 10.21777,-16.8765 l 10.21778,-15.47284 4.87886,5.40031 4.87886,5.40033 -4.15232,5.85045 c -2.28378,3.21774 -6.52704,9.2234 -9.42947,13.34591 -5.65524,8.03251 -8.6866,9.35818 -13.54515,5.9236 z m 10.95405,-5.35144 c 11.55947,-16.25318 13.63039,-19.80207 12.32004,-21.11243 -0.91176,-0.91176 -4.38137,3.15071 -10.44579,12.23076 -4.99432,7.4778 -9.08057,13.9908 -9.08057,14.47335 0,2.18157 3.7441,-0.72364 7.20632,-5.59168 z m 0.42337,-10.0126 c 4.95416,-7.44086 8.58094,-14.21915 8.0595,-15.06284 -0.52143,-0.8437 -1.43495,-1.34831 -2.03004,-1.12136 -1.99609,0.76126 -19.05637,27.33513 -18.31702,28.53141 1.63155,2.63992 3.67865,0.58288 12.28756,-12.34721 z m 131.71004,-11.93737 c 11.05162,-16.23364 19.88573,-29.7238 19.63141,-29.97814 -0.25434,-0.25433 -6.53687,2.2303 -13.96119,5.52139 -7.42431,3.29109 -18.25155,7.67056 -24.06053,9.73217 -12.49592,4.4348 -11.96802,2.35736 -7.58164,29.83592 2.32008,14.53419 3.35652,18.41685 4.4512,16.67496 0.78481,-1.24884 10.46915,-15.55267 21.52075,-31.7863 z m -225.93372,28.28171 c 0.4327,-0.70013 -0.67252,-4.53304 -2.45605,-8.51757 -5.56026,-12.42201 -6.05591,-14.04961 -7.01354,-23.03024 -0.87685,-8.22324 -0.72287,-8.9414 2.58113,-12.03787 6.5737,-6.16077 16.27598,-36.90999 11.6462,-36.90999 -2.43348,0 -8.10924,-5.46729 -8.10924,-7.81138 0,-1.37108 -1.55359,-1.77077 -5.69827,-1.46596 l -5.69826,0.41907 -3.73654,10.22108 c -4.72134,12.91494 -7.30761,26.84731 -6.13952,33.0738 0.75249,4.01107 1.81111,5.18134 6.31843,6.9848 l 5.41449,2.16646 0,13.0254 c 0,12.71343 1.36046,18.04624 5.93696,23.27208 1.82652,2.08566 5.82549,2.43662 6.95421,0.61032 z m -191.95415,-9.02457 c 5.00449,-5.07636 5.92239,-6.75456 5.03151,-9.19897 -0.59932,-1.64444 -1.08967,-9.12252 -1.08967,-16.61798 0,-10.78565 0.67577,-15.60298 3.23998,-23.09657 2.73971,-8.00647 3.13699,-11.27503 2.57289,-21.16845 -0.42214,-7.40366 -1.55879,-13.42433 -3.09539,-16.39578 -1.33555,-2.58267 -5.10545,-12.59789 -8.37755,-22.25603 -5.43756,-16.04982 -7.08217,-23.43427 -9.38663,-42.14687 -0.59518,-4.83291 -1.64229,-7.05083 -4.08422,-8.65084 -3.04637,-1.99605 -3.61293,-1.94828 -7.83428,0.66065 -7.48177,4.624 -8.36696,7.59354 -6.41236,21.51192 l 1.69315,12.0568 9.40893,11.20968 c 8.09512,9.64441 9.61095,12.30252 10.85572,19.03611 0.79574,4.30454 2.69252,10.26825 4.21507,13.25271 2.44665,4.79583 2.6591,6.91357 1.8286,18.22761 -0.51683,7.04074 -1.25253,13.61662 -1.63489,14.61305 -1.27259,3.3163 -4.35906,3.27227 -9.37818,-0.13383 l -4.96771,-3.37118 0.72892,3.78582 c 0.4009,2.08219 2.42006,15.28453 4.48704,29.33851 2.06697,14.05398 4.28008,25.5527 4.918,25.5527 0.63793,0 3.91441,-2.79411 7.28107,-6.2091 z m 207.68199,3.57557 c 0,-1.44843 1.84815,-9.88082 4.10701,-18.73864 4.37198,-17.14411 7.62456,-22.23777 14.20006,-22.23777 1.74028,0 4.00583,-1.01709 5.03455,-2.26019 3.12598,-3.77747 12.10105,-7.10657 17.01091,-6.3098 3.88177,0.62992 4.58624,0.29321 5.2429,-2.50591 0.41721,-1.77848 3.17724,-13.37694 6.13341,-25.77434 5.90195,-24.75137 10.2771,-45.05275 11.70703,-54.32242 0.73544,-4.76762 0.54421,-5.84829 -0.93286,-5.27148 -1.02187,0.39905 -6.91738,2.68233 -13.10113,5.07396 -6.18375,2.39163 -11.24318,4.77475 -11.24318,5.29582 0,0.52107 1.50842,3.16725 3.35207,5.88041 4.43479,6.52639 10.89788,17.58778 12.01946,20.57099 1.72495,4.58805 -0.26057,2.31981 -4.77181,-5.45124 -10.57442,-18.21551 -12.50409,-20.70719 -15.36956,-19.84582 -4.72409,1.42006 -43.37661,19.77168 -48.69339,23.11886 -2.79591,1.76017 -5.44297,3.20031 -5.88237,3.20031 -3.7495,0 29.98177,-34.34215 42.97884,-43.75716 3.00535,-2.17708 5.46427,-4.33254 5.46427,-4.78993 0,-1.40068 -17.76916,0.89626 -29.30042,3.78751 -5.99637,1.50348 -19.34399,5.53631 -29.66139,8.96183 -18.20819,6.04537 -18.89095,6.41223 -23.25598,12.49542 -6.80312,9.48095 -14.2235,23.31616 -17.32236,32.29734 -2.16013,6.26052 -2.77629,11.50904 -2.78378,23.71245 -0.0139,22.72992 3.42488,31.83649 17.64689,46.73157 5.67633,5.94497 19.70788,15.26932 24.71338,16.42272 l 3.40703,0.78508 -0.43354,-13.68008 -0.43353,-13.68007 -4.62786,-1.93364 c -2.54531,-1.0635 -5.34146,-3.26702 -6.21364,-4.89673 -2.52758,-4.72282 -0.3293,-20.70785 4.93446,-35.8815 2.68376,-7.73639 4.13893,-13.82451 3.36594,-14.08238 -0.74892,-0.24986 -1.35263,-1.78302 -1.34158,-3.40703 0.0189,-2.7926 0.11311,-2.76797 1.73485,0.45427 1.30525,2.59339 2.97053,3.51058 6.97314,3.84067 3.89789,0.32146 6.39961,1.6437 9.66925,5.11055 2.89374,3.06826 5.76177,4.73127 8.3384,4.83498 2.3011,0.0927 2.93991,0.41617 1.54259,0.78134 -1.63453,0.42714 -2.39066,1.9854 -2.40315,4.95244 -0.0279,6.64846 -7.46328,26.51796 -12.06678,32.2464 -4.04832,5.0376 -4.09258,5.26381 -2.80665,14.34415 0.7186,5.07422 3.16799,13.12617 5.44309,17.89321 l 4.13655,8.66738 6.74444,0 c 5.75728,0 6.74444,-0.38546 6.74444,-2.63353 z m 21.38687,-78.72661 c -5.36838,-1.39131 -5.96529,-14.07529 -0.79265,-16.84361 3.3236,-1.77873 9.1233,-0.23331 10.78637,2.87418 2.19914,4.10915 1.51262,8.04783 -2.01822,11.57867 -3.41478,3.41479 -3.69739,3.4995 -7.9755,2.39076 z m 7.99516,-5.11161 c 1.28911,-1.96745 1.82421,-4.48854 1.30192,-6.13409 -1.04324,-3.28701 -5.5687,-6.03248 -8.24849,-5.00416 -2.54871,0.97803 -4.63361,9.08971 -3.10835,12.09363 1.78911,3.5236 7.47411,2.98344 10.05492,-0.95538 z m -70.7206,-27.55007 c -0.49971,-0.49969 -0.90855,-2.85771 -0.90855,-5.24002 0,-5.75627 3.86317,-9.16178 9.7529,-8.5975 3.85574,0.36941 4.62425,1.02655 4.99633,4.27237 0.67372,5.87705 -3.02197,10.47369 -8.42087,10.47369 -2.4812,0 -4.92013,-0.40884 -5.41981,-0.90854 z m 10.57363,-3.0675 c 2.91286,-3.21867 2.32954,-8.7779 -0.98741,-9.41027 -5.61877,-1.07121 -11.90838,7.42999 -8.22341,11.11496 1.79878,1.79878 6.89354,0.85587 9.21082,-1.70469 z m 103.47247,93.77099 c 4.23407,-6.45393 7.69829,-12.73989 7.69829,-13.96881 0,-3.07703 -3.15252,-2.80174 -6.17615,0.53932 -1.38058,1.52552 -3.29578,2.47221 -4.256,2.10373 -0.96022,-0.36848 -2.16688,0.0109 -2.68147,0.84391 -0.62164,1.00585 -0.2933,1.12674 0.97846,0.36028 2.04899,-1.23488 1.37865,-0.20255 -5.12583,7.89367 -3.15854,3.93151 -5.45574,14.39045 -3.99614,18.19411 1.03584,2.69936 2.25623,1.2623 13.55884,-15.96621 z m -31.33997,14.24362 c 3.91493,-0.64678 5.90977,-1.94479 7.83106,-5.09555 3.82674,-6.27552 3.45164,-8.14694 -1.15955,-5.78528 -6.41281,3.28437 -17.6381,4.18992 -21.39821,1.72619 -4.84612,-3.17529 -11.37752,-10.53029 -13.14903,-14.8071 -1.87794,-4.53377 -3.36402,-4.79285 -4.41604,-0.76992 -1.15419,4.41363 5.24251,15.14532 11.85622,19.89106 7.68213,5.51241 11.25146,6.35788 20.43555,4.8406 z m 136.9363,-6.10485 c 0.25142,-0.65513 1.11139,-0.78678 1.91107,-0.29255 1.69995,1.05063 0.22864,-10.40958 -1.56734,-12.20819 -0.60713,-0.60802 -0.7048,-3.05677 -0.21704,-5.44168 0.83838,-4.09914 1.77795,-4.67963 17.18666,-10.61835 23.05505,-8.88572 33.95913,-14.07496 44.99523,-21.4132 l 9.61607,-6.39402 2.32277,-17.03514 c 1.27752,-9.36932 2.31635,-17.83648 2.30851,-18.81589 -0.01,-1.18346 -1.95695,-0.57183 -5.80618,1.82347 -10.6034,6.59832 -34.21394,17.35137 -50.76469,23.12002 l -16.35372,5.69995 -0.76623,8.77702 c -0.48463,5.5513 -1.95933,10.89984 -4.01256,14.5531 -2.86737,5.10178 -3.05634,6.30154 -1.6187,10.27725 1.92818,5.33229 2.09992,9.07751 0.41626,9.07751 -0.66626,0 -1.12621,1.07291 -1.02211,2.38426 0.12524,1.57691 -0.96439,2.54407 -3.21774,2.85619 -5.02963,0.69671 -6.34301,2.31843 -6.57004,8.11238 -0.17653,4.50497 0.30281,5.4127 3.52356,6.67263 3.87354,1.51531 8.84389,0.93 9.63622,-1.13476 z m -15.29746,-1.75646 c 0.41052,-1.0698 0.54459,-3.36862 0.29792,-5.10845 -0.43496,-3.06812 -0.61258,-3.01067 -5.89971,1.90822 l -5.45124,5.07158 5.1533,0.0369 c 3.23406,0.0232 5.4313,-0.68754 5.89973,-1.90822 z m -0.58364,-9.93747 c 5.75818,-4.54898 11.25008,-8.53109 12.20426,-8.84914 1.35258,-0.45087 1.2228,-1.91908 -0.58902,-6.66328 -2.54817,-6.67228 -3.10037,-16.937 -0.9816,-18.24647 0.8387,-0.51834 1.01453,0.80922 0.46867,3.5385 -0.66306,3.31531 -0.46037,4.11269 0.84099,3.3084 2.82518,-1.74605 5.52492,-9.76831 5.52492,-16.41724 l 0,-6.23818 -5.11054,0.92817 c -3.35542,0.6094 -7.91875,3.35926 -13.2874,8.00698 -4.49728,3.89334 -9.62612,8.25627 -11.39744,9.69537 -6.14686,4.99402 -6.86641,9.02028 -4.08376,22.85072 3.62573,18.02073 3.98535,19.29418 5.01306,17.7511 0.51066,-0.76675 5.63969,-5.11597 11.39786,-9.66493 z m -117.69308,5.81214 c 1.11858,-1.06673 2.09353,-6.61864 2.57272,-14.65066 0.76177,-12.76842 0.73018,-12.94413 -2.48253,-13.8039 -9.45791,-2.53109 -15.86343,-0.0362 -24.18762,9.4205 -6.32865,7.18972 -6.27802,7.53233 2.46903,16.70665 5.59398,5.86724 5.68969,5.90466 12.73181,4.97835 3.90249,-0.51333 7.90596,-1.70626 8.89659,-2.65094 z m 7.81875,-2.70357 c 2.61483,-1.93731 2.61408,-1.98315 -0.0651,-3.96759 -3.35973,-2.48837 -4.78492,-1.71368 -4.78492,2.60095 0,3.81805 1.11666,4.13269 4.85006,1.36664 z m 16.89911,-15.57276 c 14.23682,-16.19724 23.31047,-30.09644 28.59754,-43.80628 2.29113,-5.94113 4.16571,-11.3989 4.16571,-12.12839 0,-0.72949 0.58594,-1.68848 1.30209,-2.13109 0.71616,-0.4426 0.47309,2.12758 -0.54013,5.71152 -1.97469,6.98477 -4.08345,29.35232 -2.22036,23.5514 0.60181,-1.87387 3.11935,-10.35562 5.59451,-18.84834 l 4.50029,-15.44129 -7.00192,-13.78747 c -3.85104,-7.5831 -6.7639,-14.02548 -6.47301,-14.31637 0.71538,-0.71539 11.47247,18.68062 12.4959,22.53125 1.05323,3.96278 2.40259,3.87375 5.164,-0.3407 1.22781,-1.87387 1.70271,-3.40703 1.05533,-3.40703 -0.64737,0 -5.06515,-4.5672 -9.8173,-10.14934 -4.75215,-5.58212 -9.07387,-9.88135 -9.60382,-9.55383 -0.52994,0.32754 -3.40928,-2.61775 -6.39852,-6.54509 -11.59472,-15.23344 -22.50144,-22.99107 -47.0892,-33.49318 -19.72475,-8.42497 -30.88499,-11.23299 -47.94848,-12.06422 -17.75605,-0.86498 -33.71803,1.53308 -51.10539,7.67783 l -11.58389,4.09378 12.26529,-0.62037 c 6.74591,-0.3412 21.46427,-0.88236 32.70745,-1.20256 l 20.44216,-0.58219 -17.10601,1.66476 c -15.01708,1.46148 -18.02306,2.18945 -24.61566,5.96136 -10.27099,5.87647 -30.88925,26.19223 -38.34043,37.77792 -5.7509,8.94197 -18.74166,33.61367 -18.74166,35.59367 0,0.49305 5.19836,-4.09419 11.55192,-10.19385 6.35356,-6.09967 12.10291,-11.09031 12.77635,-11.09031 0.67343,0 1.56673,-1.71148 1.98509,-3.8033 0.41851,-2.09258 4.53905,-7.76279 9.16076,-12.606 7.56014,-7.92248 7.84179,-8.10241 2.81671,-1.79951 -3.07086,3.85175 -5.58338,7.33485 -5.58338,7.74022 0,0.40538 2.60638,-0.71687 5.79195,-2.49388 3.18557,-1.77699 11.00469,-5.16101 17.37583,-7.52002 6.37114,-2.35902 13.73032,-5.12781 16.35373,-6.15288 l 4.76983,-1.86375 -6.81405,0.60235 c -5.06464,0.4477 -5.93935,0.29224 -3.40703,-0.60551 1.87387,-0.66433 5.83648,-1.26899 8.80583,-1.3437 2.96933,-0.0747 11.55504,-1.6469 19.07935,-3.49376 12.35152,-3.03169 38.75392,-6.77464 39.87558,-5.65298 0.24779,0.24779 -4.03792,3.82881 -9.52382,7.95782 -10.7761,8.11074 -38.74121,34.63118 -37.65892,35.71346 0.36369,0.36369 4.31481,-1.11683 8.78026,-3.29005 24.12369,-11.74036 57.35742,-25.73527 66.65522,-28.06886 2.78786,-0.69971 3.4713,-0.37248 3.4698,1.66132 -0.004,6.35721 -8.29223,45.22932 -16.48903,77.34055 -1.93012,7.56131 -2.31747,11.18388 -1.30419,12.19715 0.79274,0.79275 1.44136,4.81143 1.44136,8.93039 0,6.28096 0.59406,8.1091 3.68275,11.33298 2.0255,2.11418 4.08836,3.68091 4.58413,3.4816 0.49575,-0.1993 5.94952,-6.10565 12.11948,-13.12523 z m -4.71404,9.35585 c 1.35666,-1.49909 2.16003,-2.72562 1.78525,-2.72562 -0.37477,0 -1.7914,1.22653 -3.14806,2.72562 -1.35667,1.49909 -2.16003,2.72562 -1.78526,2.72562 0.37478,0 1.79141,-1.22653 3.14807,-2.72562 z m 108.34343,-1.44325 c 0,-0.79378 -0.61327,-1.06421 -1.36281,-0.60097 -0.74955,0.46325 -1.36281,1.11271 -1.36281,1.44325 0,0.33053 0.61326,0.60097 1.36281,0.60097 0.74954,0 1.36281,-0.64946 1.36281,-1.44325 z m -154.65548,-10.5714 c -0.2593,-0.25931 -1.72769,0.20083 -3.26307,1.02253 -1.7823,0.95386 -2.48781,2.28564 -1.95138,3.68356 0.71152,1.85421 1.21125,1.69762 3.26307,-1.02253 1.33257,-1.76664 2.2107,-3.42424 1.95138,-3.68356 z M 332.26302,767.27616 c 6.90958,-7.06701 7.32499,-7.90045 8.49078,-17.03513 0.67416,-5.28252 2.10352,-12.05763 3.17637,-15.05582 2.27066,-6.34567 9.59451,-20.00299 13.88554,-25.8934 5.4242,-7.44593 5.19959,-7.90898 -1.90986,-3.93747 -5.47908,3.06075 -8.54276,6.21333 -13.7593,14.15855 -8.98609,13.68658 -19.07871,35.26187 -25.81891,55.19383 l -5.53018,16.35373 7.10027,-8.17686 c 3.90517,-4.49728 10.36953,-11.52062 14.36529,-15.60743 z m 177.32046,11.8597 c 3.99373,-9.18203 7.75401,-25.22602 6.26201,-26.71802 -0.35847,-0.35846 -0.65176,-0.0508 -0.65176,0.68353 0,1.86161 -10.45937,19.14648 -15.43573,25.50862 l -4.11903,5.26608 3.30404,2.53979 c 1.81721,1.39686 3.9878,2.5534 4.82352,2.57006 0.83571,0.0166 3.45335,-4.41586 5.81695,-9.85006 z m 59.69936,-9.88038 9.2592,-8.85827 -4.88276,0 c -2.68551,0 -7.86461,-0.89741 -11.50911,-1.99424 -3.64449,-1.09683 -6.75204,-1.86341 -6.90566,-1.70351 -0.40996,0.42671 3.86064,21.41429 4.35742,21.41429 0.23193,0 4.58833,-3.98622 9.68091,-8.85827 z m -41.11782,6.09288 c 0.47675,-0.77142 2.91271,-8.35525 5.4132,-16.85297 5.83391,-19.82596 12.44576,-36.44831 15.40566,-38.73016 2.15425,-1.66076 2.08891,-1.98486 -0.89296,-4.42913 -1.76953,-1.4505 -4.06438,-2.63726 -5.09968,-2.63726 -1.03532,0 -4.68725,4.21814 -8.11544,9.37364 -5.00208,7.52244 -7.32124,13.20827 -11.7431,28.79025 l -5.51006,19.41659 3.89609,3.1868 c 4.39581,3.59555 5.40991,3.88274 6.64629,1.88224 z M 294.12337,763.06094 c 8.03253,-6.03041 15.83111,-11.9038 17.33021,-13.05198 4.63014,-3.5463 12.97782,-7.46991 14.23698,-6.69171 1.71196,1.05805 0.72766,-5.97782 -1.09067,-7.79615 -0.83434,-0.83434 -1.69954,-1.25125 -1.92264,-0.92643 -2.90185,4.22459 -10.48315,11.67038 -10.82835,10.63478 -0.24965,-0.74896 -5.67645,2.51073 -12.05955,7.24372 -18.17087,13.47349 -21.72455,16.60883 -21.72459,19.16723 -3e-5,1.31171 0.32713,2.38492 0.72699,2.38492 0.39988,0 7.29911,-4.93397 15.33162,-10.96438 z m 45.86781,4.99254 c -0.49251,-1.96231 -1.44225,-3.56783 -2.11054,-3.56783 -1.57628,0 -1.53449,0.53352 0.36911,4.71146 1.95864,4.29873 2.94482,3.65107 1.74143,-1.14363 z m 440.97539,-12.7076 c -9.57771,-10.85796 -21.34633,-29.88357 -32.43985,-52.44352 -5.78242,-11.7592 -10.84575,-21.41812 -11.25184,-21.46426 -0.4061,-0.0462 -2.65279,6.5087 -4.99265,14.56631 l -4.25429,14.65021 4.48039,5.45125 c 9.19263,11.1846 26.07863,27.04032 39.29165,36.89436 7.50031,5.59359 13.92762,9.87948 14.28291,9.52418 0.3553,-0.35528 -1.94705,-3.58563 -5.11632,-7.17853 z m -197.82972,1.88216 c 1.16835,-1.40777 0.37873,-2.34065 -3.57844,-4.22771 -2.79268,-1.33172 -10.49456,-6.39728 -17.1153,-11.25677 -6.62074,-4.85948 -12.32052,-8.55262 -12.66618,-8.20695 -0.79201,0.79199 3.60151,18.97391 4.94967,20.48347 3.46078,3.87508 25.7663,6.39373 28.41025,3.20796 z m 103.95206,-5.53418 10.04002,-3.34724 5.16174,-11.86031 c 4.62442,-10.62569 16.65057,-47.63638 21.89991,-67.3974 1.09511,-4.1225 2.04683,-6.57152 2.11495,-5.44225 0.0681,1.12927 -0.5063,4.19559 -1.27647,6.81405 -1.46611,4.98467 -9.59576,65.7666 -8.89066,66.47171 0.7173,0.7173 12.90287,-35.27011 17.77982,-52.50883 8.73242,-30.86672 14.04017,-69.26442 15.87165,-114.81984 1.05423,-26.22241 0.99004,-38.55933 -0.26154,-50.26562 l -1.65867,-15.51395 -10.48937,-10.48936 c -14.86073,-14.86074 -32.59394,-28.76958 -46.42214,-36.41071 -6.53436,-3.61072 -11.63621,-7.20197 -11.33743,-7.98056 1.33332,-3.47458 -17.74106,-17.67737 -35.6414,-26.53858 -19.96756,-9.88456 -36.81465,-14.00834 -57.23804,-14.01056 -26.34398,-0.003 -48.05294,6.00747 -74.38259,20.59359 -29.92301,16.57676 -52.93159,45.56055 -69.43442,87.46614 -4.32659,10.98649 -18.48157,68.19614 -20.40005,82.45003 -2.70011,20.06132 -1.44067,20.85039 5.27025,3.30193 7.00243,-18.31074 24.908,-54.77617 33.27436,-67.76461 3.23424,-5.02099 8.81983,-14.54052 12.41245,-21.15448 3.59262,-6.61398 6.74045,-11.81698 6.9952,-11.56225 0.25474,0.25475 -2.93397,7.19933 -7.086,15.43244 -20.14688,39.94933 -21.53955,51.01763 -15.92004,126.52464 0.86306,11.59636 1.0616,12.16953 5.05781,14.59976 2.28771,1.39124 4.30253,2.3865 4.47735,2.21167 0.17482,-0.17483 0.99282,-11.95747 1.81777,-26.18364 0.82495,-14.22619 2.07135,-28.31885 2.76978,-31.31703 1.23603,-5.30596 1.25158,-5.26965 0.58377,1.36281 -0.96239,9.55799 -3.31721,57.01244 -2.8522,57.47744 0.21078,0.21078 1.76568,0.54978 3.45534,0.75332 2.74654,0.33087 3.57728,-1.07415 7.83904,-13.25801 2.6218,-7.49546 5.25816,-15.16127 5.85856,-17.03513 2.07304,-6.47 12.17834,-29.37241 22.47424,-50.93506 5.68165,-11.89905 10.33027,-21.8646 10.33027,-22.14567 0,-0.28108 -1.68648,-0.59177 -3.74773,-0.69044 -3.45872,-0.16557 -3.39926,-0.24439 0.77091,-1.02211 3.98633,-0.74342 5.19955,-2.12707 10.2986,-11.74519 3.17896,-5.99636 10.12934,-17.85245 15.44529,-26.34683 5.45252,-8.71264 12.42451,-22.3748 15.99557,-31.34464 3.48163,-8.74517 7.55607,-17.43345 9.05433,-19.30732 l 2.72409,-3.40702 -2.31401,5.45124 c -10.03397,23.6375 -14.68659,36.38886 -18.18388,49.83622 -8.74366,33.62004 -14.71199,76.06743 -12.91532,91.85519 l 0.9259,8.13598 5.72526,-16.31284 c 3.14888,-8.97208 8.02715,-20.83909 10.8406,-26.37114 2.81344,-5.53206 7.51895,-15.60009 10.4567,-22.3734 8.94931,-20.63366 45.99938,-84.0886 49.09766,-84.0886 1.82001,0 24.539,59.34495 32.59322,85.13779 2.8022,8.97372 5.93584,16.74777 6.96368,17.27564 1.02781,0.52788 6.93194,3.24975 13.12028,6.04863 6.18833,2.79885 11.05297,5.28736 10.81033,5.53001 -0.24265,0.24263 -5.54544,-1.71154 -11.78398,-4.34262 -6.23855,-2.63109 -11.62841,-4.49818 -11.9775,-4.14909 -0.34908,0.34908 2.23638,10.63718 5.74546,22.86244 5.61335,19.55626 8.37574,32.00279 14.30958,64.47487 0.82183,4.49727 2.39401,12.46972 3.49376,17.71654 1.09974,5.24682 2.6822,13.19032 3.51659,17.65225 l 1.51705,8.11258 4.35567,-10.8382 c 2.39562,-5.96102 4.79381,-11.99919 5.32931,-13.41818 0.53552,-1.41899 1.26124,-2.29238 1.61274,-1.94089 0.73733,0.73734 -9.85716,28.48626 -11.52126,30.17626 -0.60916,0.61865 -1.55023,-2.41825 -2.09128,-6.74865 -1.1514,-9.21547 -2.65863,-7.68837 -3.96736,4.01965 -0.8681,7.7661 -0.82108,7.91699 2.20287,7.06934 3.07773,-0.86274 3.07695,-0.85574 -0.19773,1.77698 -2.76562,2.22347 -3.55159,4.67136 -4.95005,15.41704 -0.91434,7.02565 -2.11934,15.74303 -2.67776,19.37195 l -1.01532,6.59803 4.10223,-2.12134 c 2.25623,-1.16674 8.62023,-3.62761 14.14224,-5.46857 z m 12.08423,-91.37866 c 0,-0.32826 0.8998,-4.47669 1.99956,-9.21876 3.42902,-14.78567 10.27053,-58.59738 11.57767,-74.14126 l 1.24854,-14.84689 -0.50067,15.67232 c -0.27537,8.61977 -2.09713,25.48455 -4.04839,37.47729 -3.52908,21.69038 -8.62523,45.65414 -9.70885,45.65414 -0.31232,0 -0.56786,-0.26858 -0.56786,-0.59684 z m 27.3638,-1.33381 c -0.0591,-1.43662 0.26293,-2.24154 0.71578,-1.78869 0.45285,0.45285 0.50125,1.62828 0.10752,2.61206 -0.43503,1.08716 -0.75796,0.76424 -0.82335,-0.82337 z m -421.95228,87.82475 c 7.89435,-5.32707 10.24405,-7.69193 10.9823,-11.05315 1.14817,-5.22758 -1.69653,-8.79772 -5.93752,-7.45167 -2.85355,0.90567 -12.16316,11.24662 -15.01168,16.67468 -1.60925,3.06652 -2.13656,8.60716 -0.81917,8.60716 0.40862,0 5.26235,-3.04965 10.78607,-6.77702 z m 307.01588,1.45106 c 22.15461,-7.86898 33.0635,-12.68848 47.89596,-21.16024 l 13.31532,-7.60522 1.72295,-15.08968 c 1.39278,-12.19798 1.39011,-16.83155 -0.0139,-24.17931 -0.9553,-4.99929 -1.90678,-9.31996 -2.11439,-9.60146 -0.20762,-0.2815 -1.99037,1.40498 -3.96167,3.74773 -3.00567,3.57204 -4.54364,4.25956 -9.5286,4.25956 -7.93375,0 -19.91665,-2.64617 -18.96389,-4.18777 0.41886,-0.67774 -0.21302,-0.85827 -1.40418,-0.40117 -2.2282,0.85503 -7.91323,-3.20462 -6.86433,-4.90178 0.32278,-0.52227 -0.29766,-4.27322 -1.37877,-8.33543 -1.0811,-4.06221 -1.9153,-9.53227 -1.85377,-12.15568 0.0826,-3.52006 0.59357,-2.34794 1.95026,4.47341 1.01111,5.08378 2.17922,10.31716 2.59581,11.62972 1.91721,6.04058 21.15885,11.36555 30.23969,8.36861 7.74938,-2.55753 8.66014,-6.30297 5.7422,-23.61434 -1.37343,-8.1482 -3.1249,-17.1462 -3.89214,-19.99555 l -1.395,-5.18064 -8.90624,-0.95378 c -9.32785,-0.99893 -21.78757,-0.31511 -23.38616,1.2835 -0.51472,0.51472 -1.33919,3.82309 -1.83216,7.35192 l -0.89631,6.41607 -0.18209,-5.79194 c -0.10017,-3.18557 -0.68062,-5.79195 -1.28993,-5.79195 -0.60931,0 -2.88855,1.85866 -5.06495,4.13034 -3.90025,4.07097 -3.97288,4.08775 -5.05331,1.16708 -0.72545,-1.96109 -0.41086,-3.93409 0.93019,-5.83385 7.49914,-10.62346 11.60827,-12.375 29.03455,-12.37618 7.68285,-10e-4 13.96881,-0.14446 13.96881,-0.31984 0,-0.17538 -2.45306,-8.70779 -5.45124,-18.9609 -2.99818,-10.25312 -5.45124,-18.80681 -5.45124,-19.00821 0,-1.18755 -14.53412,-4.86273 -23.19679,-5.86567 -7.91335,-0.91618 -8.82094,-1.21424 -4.05942,-1.33315 3.37295,-0.0842 10.3832,0.7473 15.57831,1.84785 5.19512,1.10054 9.70493,1.74173 10.02181,1.42485 1.67436,-1.67439 -32.99315,-96.14427 -35.282,-96.14427 -3.35049,0 -38.25311,60.05967 -48.31037,83.13143 -3.10399,7.12069 -7.22773,16.01302 -9.16386,19.76075 -1.93613,3.74773 -5.01404,10.5507 -6.8398,15.11771 -3.27274,8.1866 -3.28182,8.32721 -0.64361,9.9748 1.47177,0.91913 2.32441,2.02268 1.89476,2.45233 -0.42964,0.42965 -1.61901,0.0859 -2.64301,-0.764 -1.02402,-0.84987 -2.26536,-1.14167 -2.75856,-0.64848 -1.8743,1.87431 -0.76666,5.54022 2.63544,8.72246 1.94269,1.81713 4.18953,4.5304 4.99296,6.0295 1.30315,2.43147 1.21853,2.52577 -0.78416,0.87382 -1.94971,-1.60827 -1.88943,-0.81848 0.45828,6.00529 3.19299,9.28055 3.55101,23.2055 0.76789,29.86643 -1.49144,3.56954 -3.1325,4.96437 -7.15475,6.08126 -6.80126,1.88859 -6.9045,1.87841 -14.07767,-1.38743 -5.53232,-2.51879 -5.89863,-2.96455 -3.74198,-4.55366 2.27367,-1.67533 2.26505,-2.05413 -0.1763,-7.73974 -3.40211,-7.92308 -4.79171,-13.96401 -2.95039,-12.82601 0.77958,0.48181 1.41743,1.94595 1.41743,3.25363 0,4.55661 7.07398,16.70717 10.48092,18.00248 4.10994,1.5626 11.39779,1.60762 13.79855,0.0853 1.09356,-0.69345 2.09782,-5.16593 2.57415,-11.46398 0.67853,-8.97186 0.37991,-11.09996 -2.27583,-16.21792 -1.68126,-3.24005 -3.91283,-6.38141 -4.95905,-6.98081 -1.04621,-0.59941 -1.90221,-1.70881 -1.90221,-2.46535 0,-0.75654 0.61327,-0.9965 1.36281,-0.53326 0.74955,0.46325 1.36281,0.19281 1.36281,-0.60097 0,-0.79385 -0.67887,-1.44331 -1.50861,-1.44331 -0.82974,0 -1.16316,-0.90026 -0.74092,-2.00056 0.91312,-2.37958 -1.2582,-4.12999 -2.54346,-2.05041 -0.4911,0.79462 -0.15175,2.33778 0.7541,3.42926 1.32031,1.59086 1.23217,1.98452 -0.44429,1.98452 -1.35658,0 -2.39628,1.80521 -2.95942,5.13842 -1.59555,9.44397 -3.41654,9.81813 -3.43901,0.70662 -0.0218,-8.86139 -2.31344,-12.83571 -8.54068,-14.81215 -3.40242,-1.0799 -3.71993,-0.63984 -5.1448,7.13038 l -1.2115,6.60657 0.42396,-7.15476 c 0.36211,-6.11111 0.07,-7.15475 -2.00271,-7.15475 -3.20586,0 -8.07573,6.32291 -8.07573,10.4853 0,4.704 -2.12023,2.77488 -4.87335,-4.43406 l -2.36241,-6.18586 5.14384,-5.26777 c 4.46535,-4.57293 4.80775,-5.34771 2.59577,-5.87378 -1.40143,-0.33331 0.50589,-0.30866 4.2385,0.0548 3.73262,0.36345 9.17578,1.50378 12.09594,2.53407 2.92015,1.03029 5.5389,1.87326 5.81943,1.87326 1.2272,0 0.36402,-5.38064 -0.99824,-6.22257 -1.07085,-0.66182 -1.01517,-1.23697 0.19195,-1.98301 0.94261,-0.58258 2.49622,-7.03481 3.48653,-14.47986 2.49584,-18.76342 2.64223,-17.8697 -3.19229,-19.49003 -6.25502,-1.73711 -12.60599,-1.85519 -12.60599,-0.23439 0,0.66005 -3.59254,8.78581 -7.98342,18.05724 -4.39088,9.27144 -9.64455,20.37579 -11.67482,24.67632 -2.03026,4.30054 -3.38773,8.31052 -3.01657,8.91107 2.39829,3.88052 8.06192,31.8404 10.41382,51.41029 1.53135,12.74228 3.39828,25.06195 4.14873,27.37705 1.67031,5.15278 5.56011,10.51493 14.93354,20.58609 l 7.17126,7.70506 3.56551,-4.23563 3.56551,-4.23564 5.1996,2.13551 5.1996,2.13551 -0.8844,8.33629 -0.88438,8.33628 10.59273,7.49546 c 24.86307,17.59321 27.09001,18.0185 50.60885,9.66496 z m -15.31959,-34.19555 c 0.46325,-0.74955 1.45553,-1.36281 2.20507,-1.36281 0.74955,0 0.9838,0.61326 0.52056,1.36281 -0.46325,0.74955 -1.45553,1.36281 -2.20507,1.36281 -0.74955,0 -0.9838,-0.61326 -0.52056,-1.36281 z m -22.51371,-2.07715 c -2.61538,-3.15135 -1.065,-3.47262 2.56323,-0.53116 2.1917,1.77685 2.57073,2.60831 1.18899,2.60831 -1.11559,0 -2.80408,-0.93471 -3.75222,-2.07715 z m 0.93589,-27.45041 c -0.4997,-0.49969 -0.90855,-1.54224 -0.90855,-2.31678 0,-0.85394 0.63476,-0.77348 1.61266,0.20442 0.88697,0.88697 1.29581,1.92952 0.90854,2.31678 -0.38727,0.38727 -1.11296,0.29528 -1.61265,-0.20442 z m 58.37371,-80.86008 c 1.49909,-0.64419 4.56541,-1.14179 6.81405,-1.10579 l 4.08843,0.0654 -4.08843,1.04033 c -2.24864,0.57217 -5.31496,1.06977 -6.81405,1.10578 -2.72562,0.0654 -2.72562,0.0654 0,-1.10578 z m 79.29633,142.61463 c 0.25781,-0.2578 1.64978,-9.60746 3.09328,-20.777 1.44351,-11.16954 2.99039,-23.06795 3.43753,-26.4409 0.50341,-3.79741 -1.72299,1.39201 -5.8468,13.6281 -3.66286,10.86841 -8.28854,23.37084 -10.27927,27.78317 l -3.61951,8.02241 6.37302,-0.87352 c 3.50516,-0.48043 6.58395,-1.08445 6.84175,-1.34226 z M 337.67016,721.44833 c -0.17775,-0.16549 -3.02237,2.1034 -6.32136,5.04196 -5.64566,5.02885 -5.90006,5.55821 -4.32856,9.00726 l 1.66962,3.66442 4.65175,-8.70638 c 2.55846,-4.7885 4.50631,-8.84178 4.32855,-9.00726 z m 211.38688,4.19721 -0.0154,-4.08843 -2.01008,4.60834 c -1.10554,2.5346 -1.60296,5.60092 -1.10536,6.81405 0.78258,1.90795 1.05601,1.83777 2.02546,-0.51991 0.61642,-1.49909 1.11383,-4.56541 1.10537,-6.81405 z m -37.21018,-32.36675 c -1.01473,-2.43602 -2.24942,-7.49546 -2.74376,-11.24318 -1.48763,-11.27841 -2.24115,-14.30951 -3.55733,-14.30951 -0.68997,0 -1.25452,4.03928 -1.25452,8.97617 0,7.90657 0.51472,9.69291 4.31946,14.99092 2.3757,3.30811 4.49082,6.01474 4.70029,6.01474 0.20946,0 -0.4494,-1.99311 -1.46414,-4.42914 z m 261.7008,-11.78399 c 12.02025,-7.94131 26.96105,-20.17427 30.17367,-24.70504 3.42127,-4.825 11.09199,-41.77022 14.09551,-67.88955 2.03728,-17.71667 1.74924,-18.12077 -13.54796,-19.00631 -14.67099,-0.84929 -17.87587,0.0501 -17.87587,5.01715 0,3.54464 -1.06588,4.40917 -11.92459,9.67205 -6.55853,3.17872 -14.48365,6.08929 -17.6114,6.46793 -6.35153,0.76892 -5.63191,-1.14247 -8.08742,21.48124 l -0.8875,8.17687 6.08978,-8.22394 c 3.34938,-4.52317 8.66937,-10.43197 11.82222,-13.13069 5.87952,-5.03265 21.69029,-14.12274 22.73945,-13.07359 0.32211,0.32211 -2.94074,2.37422 -7.25079,4.56024 -9.13273,4.63204 -23.8959,18.81865 -29.45081,28.30062 -4.12233,7.03661 -7.55675,22.4892 -7.63852,34.36816 -0.0634,9.20439 3.07782,19.29179 8.21625,26.38519 2.31123,3.19056 3.89561,6.10766 3.52084,6.48243 -1.49659,1.4966 -9.35814,-11.59164 -11.42245,-19.0166 l -2.19751,-7.90396 -2.31603,9.20044 c -2.49143,9.89728 -1.90461,12.54834 3.40563,15.38537 3.02433,1.61577 14.14582,5.2493 16.5194,5.39708 0.8053,0.0502 6.93794,-3.52514 13.6281,-7.94509 z m -12.2119,-5.65647 c -9.84002,-11.6942 -10.08486,-39.67049 -0.49046,-56.0421 3.88371,-6.62703 10.1442,-13.3966 12.38919,-13.3966 0.8034,0 -1.06854,2.60637 -4.15987,5.79194 -7.93013,8.17189 -11.14166,15.25681 -12.88307,28.42122 -1.84989,13.98447 -0.14927,23.84905 5.70215,33.07579 4.62344,7.2904 4.4217,8.0677 -0.55794,2.14975 z m 4.88077,-3.3424 c -0.0278,-2.24863 0.25493,-3.33351 0.62824,-2.41085 0.37331,0.92266 0.39602,2.76246 0.0506,4.08843 -0.34552,1.32598 -0.65096,0.57106 -0.67873,-1.67758 z m 7.14124,0.34071 c 0.35464,-1.68648 2.3106,-15.10687 4.34657,-29.82307 l 3.70176,-26.75673 6.06527,-2.94674 c 3.33589,-1.62071 6.29218,-2.71983 6.56951,-2.44249 0.27733,0.27734 -1.01511,11.19083 -2.87212,24.25222 -1.85699,13.0614 -3.41071,25.28116 -3.45269,27.15502 -0.0542,2.4198 -1.99742,4.88789 -6.70614,8.51757 -7.72704,5.95635 -8.51932,6.168 -7.65216,2.04422 z m 11.97227,-11.59751 c -3.13276,-1.04425 -9.84157,5.08932 -9.80544,8.96468 0.0335,3.59169 0.13273,3.55043 5.73121,-2.38439 3.31558,-3.51471 5.01873,-6.26546 4.07423,-6.58029 z m -2.71128,-2.03737 c 3.37061,-2.7713 3.9805,-4.75223 6.47335,-21.02578 1.51367,-9.88143 2.75214,-19.59681 2.75214,-21.58971 l 0,-3.62348 -4.40732,2.574 c -4.37349,2.55427 -4.43036,2.72518 -7.41069,22.27112 -4.19004,27.47976 -4.24617,27.01657 2.59252,21.39385 z m -15.28753,7.72937 c 0.01,-0.68709 2.14818,-13.82118 4.75227,-29.18686 2.60408,-15.36569 4.74261,-28.49978 4.75227,-29.18686 0.01,-0.68708 0.34629,-0.92053 0.74806,-0.51876 0.76605,0.76607 -8.59491,58.46646 -9.65767,59.52921 -0.33687,0.33689 -0.60459,0.0503 -0.59493,-0.63673 z m 22.58349,-7.7226 c 2.83138,-20.07391 7.50408,-50.61757 7.75375,-50.68338 0.16962,-0.0447 2.344,-1.21427 4.83191,-2.599 2.48792,-1.38474 4.81238,-2.22881 5.16547,-1.87572 0.35309,0.35309 -0.87675,11.91156 -2.73299,25.68547 l -3.37497,25.0435 -5.08389,4.42913 c -2.79612,2.43602 -5.55639,4.42913 -6.13394,4.42913 -0.57754,0 -0.76895,-1.99311 -0.42534,-4.42913 z m 7.37573,-3.06095 c 1.75762,-1.87091 2.86367,-3.73367 2.45788,-4.13946 -1.48701,-1.487 -7.90408,2.60014 -7.90408,5.03425 0,3.41797 1.6491,3.14703 5.4462,-0.89479 z m 6.28455,-28.77972 c 1.63992,-13.02124 2.11382,-20.72736 1.24832,-20.29849 -0.76735,0.38022 -2.40373,1.05296 -3.6364,1.49496 -1.69339,0.60721 -2.79499,4.52155 -4.50676,16.01391 -1.24605,8.36564 -2.75024,18.06867 -3.34264,21.56232 l -1.07709,6.35207 4.33553,-2.06748 4.33555,-2.06748 2.64349,-20.98981 z m -21.27042,-16.17884 c 0,-1.11357 0.71081,-4.68233 1.5796,-7.9306 1.23729,-4.62608 2.69864,-6.55 6.74334,-8.87783 2.84007,-1.63454 5.5022,-2.97188 5.91586,-2.97188 0.41366,0 0.75211,3.06248 0.75211,6.80551 0,6.41408 -0.32529,7.04114 -5.65572,10.90248 -6.20633,4.49585 -9.33519,5.19043 -9.33519,2.07232 z m 9.19897,-4.3784 c 3.5188,-2.60215 4.42913,-4.24861 4.42913,-8.0108 l 0,-4.73548 -4.04804,2.09332 c -4.52179,2.33831 -6.07232,4.69587 -7.52034,11.43458 -1.09643,5.10251 -0.76928,5.06669 7.13925,-0.78162 z m 7.16976,-4.15872 c 0.0512,-8.15619 1.92142,-12.99519 5.97839,-15.46906 6.51878,-3.97507 7.63502,-3.40686 7.63227,3.88517 -0.003,6.15629 -0.29301,6.65691 -5.93485,10.22108 -6.96757,4.40169 -7.69574,4.53096 -7.67581,1.36281 z m 7.69252,-3.81708 c 3.35231,-2.55694 4.55777,-4.53938 4.55777,-7.49546 0,-7.9204 -8.73213,-2.79668 -9.98915,5.8613 -0.40809,2.81079 -0.37848,5.11054 0.0658,5.11054 0.44429,0 2.85878,-1.56437 5.36556,-3.47638 z m -303.43739,76.21784 c 0,-7.33871 -0.25241,-7.88653 -5.94064,-12.89351 -4.43989,-3.90814 -6.36295,-6.87794 -7.6123,-11.7557 -3.20847,-12.52655 -3.30163,-12.50679 -8.21349,1.74298 -3.24218,9.4059 -4.12529,13.53601 -2.97622,13.91903 2.92914,0.97638 17.31182,10.98556 19.90812,13.85444 3.92229,4.33409 4.83453,3.41568 4.83453,-4.86724 z m 161.38785,1.02049 c 0.67886,-1.09842 -11.44327,-0.43884 -12.72795,0.69254 -0.3123,0.27504 2.25788,0.50008 5.71152,0.50008 3.45364,0 6.61104,-0.53668 7.01643,-1.19262 z m -15.31161,-1.10114 c -0.98378,-0.39368 -2.15921,-0.34527 -2.61205,0.10753 -0.45285,0.45284 0.35206,0.77494 1.78868,0.71577 1.58761,-0.0654 1.91053,-0.38832 0.82337,-0.82336 z M 506.25446,657.16432 c -1.08114,-11.86347 -8.76463,-44.53972 -10.12238,-43.04831 -0.57176,0.62804 -2.73564,5.43474 -4.80861,10.68156 -3.57025,9.03647 -3.68116,9.96804 -2.10246,17.66055 2.23484,10.88974 4.57123,15.01626 11.23517,19.84361 3.08375,2.23385 5.83853,4.06156 6.12172,4.06156 0.28318,0 0.13764,-4.13954 -0.32344,-9.19897 z m 35.51408,2.41924 c -2.99819,-0.54302 -7.13772,-1.45264 -9.19897,-2.02137 -2.06125,-0.56873 -3.74773,-0.64118 -3.74773,-0.16099 0,1.69166 6.20245,3.33711 12.26529,3.25389 l 6.13265,-0.0842 -5.45124,-0.98732 z m -85.92987,-16.04735 c -0.4687,-6.55852 -1.27009,-18.36387 -1.78087,-26.2341 l -0.92871,-14.30951 -3.02221,9.09455 c -1.66222,5.00201 -5.48236,14.76668 -8.48918,21.69928 -3.00684,6.93259 -5.46697,13.2786 -5.46697,14.10224 0,1.34395 14.42574,7.04126 18.78761,7.41997 1.36507,0.11857 1.5641,-2.48395 0.90033,-11.77243 z m 169.13785,-17.3398 c 6.40373,-4.34567 11.7454,-5.27823 25.96015,-4.53215 11.08551,0.58184 11.55019,0.48956 11.16309,-2.21691 -0.33632,-2.35149 -1.77211,-3.00468 -8.58077,-3.90376 -10.48887,-1.38502 -17.70668,-0.2768 -24.53059,3.76644 -4.93055,2.92142 -10.22107,7.8861 -10.22107,9.59155 0,1.21735 1.19842,0.69523 6.20919,-2.70517 z M 513.32937,610.33442 c 4.16035,-3.59177 10.49891,-4.10243 16.0149,-1.29022 l 4.92881,2.51285 0,-3.09324 c 0,-3.78371 -1.76202,-5.20577 -9.01638,-7.27682 -7.82132,-2.23291 -8.05226,-2.17966 -14.05152,3.24031 -5.04231,4.55544 -5.27133,5.09382 -3.87302,9.10503 1.29809,3.72369 1.61057,3.93021 2.46882,1.63163 0.54044,-1.44743 2.12821,-3.62072 3.52839,-4.82954 z m 258.07272,-26.32912 12.9467,-5.89728 0.40574,-8.34056 c 0.31034,-6.3796 -0.0365,-8.34058 -1.47526,-8.34058 -1.03455,0 -8.55952,2.75969 -16.72219,6.13265 -8.16266,3.37296 -15.01128,6.13265 -15.21917,6.13265 -0.20788,0 -0.37797,3.32185 -0.37797,7.38189 0,10.957 2.14678,11.26483 20.44215,2.93123 z m 47.65047,-20.2159 c -1.48882,-6.65277 -2.14564,-7.57881 -6.59475,-9.29791 -2.71768,-1.0501 -5.40119,-2.11676 -5.96335,-2.37035 -0.56216,-0.25358 -1.02211,3.23205 -1.02211,7.74586 l 0,8.20692 6.14941,0.92216 c 3.38217,0.5072 6.5099,1.50547 6.95051,2.2184 1.81132,2.93076 2.03253,-0.48899 0.48029,-7.42508 z m -52.4203,1.93313 12.26529,-5.15776 0.43238,-5.97423 c 0.68571,-9.47445 -2.28655,-27.95822 -6.77424,-42.1273 -4.8258,-15.23656 -16.20172,-39.26822 -24.56061,-51.88433 -7.51618,-11.34418 -22.90311,-27.54993 -31.72773,-33.41611 -3.78022,-2.51291 -8.09966,-5.70795 -9.59875,-7.10011 -9.75246,-9.05672 -29.63573,-18.01774 -49.20888,-22.17751 -28.90691,-6.14344 -62.19441,-5.04845 -86.51892,2.84602 -10.0566,3.26386 -24.70005,9.58038 -23.94963,10.33079 0.28018,0.28019 4.43246,-0.39785 9.22729,-1.50673 22.22267,-5.13937 47.32621,-3.87373 69.99413,3.52889 19.83745,6.47827 35.97337,16.078 54.7096,32.54833 4.41644,3.88232 12.62936,10.02718 18.25095,13.65526 12.99573,8.38722 41.71845,33.14271 46.73412,40.27916 3.21979,4.5812 4.0468,7.62086 5.19704,19.10174 0.75235,7.50948 1.18097,22.34956 0.95248,32.97795 -0.26382,12.27191 0.0819,19.30784 0.94737,19.27904 0.74955,-0.0249 6.8822,-2.36633 13.62811,-5.2031 z m 31.43336,1.1556 4.68111,0 0,-8.23411 c 0,-8.14324 -0.094,-8.3426 -8.51756,-18.06587 -4.68466,-5.40747 -10.54277,-12.28094 -13.01802,-15.27438 -2.81378,-3.40286 -4.22959,-4.42111 -3.77772,-2.71698 1.53192,5.77747 3.45556,22.1558 3.48134,29.64112 0.0236,6.82723 0.3661,7.83616 2.66078,7.83616 2.9323,0 4.7072,3.85515 3.37421,7.32888 -0.74834,1.95014 -0.365,2.07043 2.78344,0.8734 2.00821,-0.76353 5.75779,-1.38822 8.33242,-1.38822 z M 540.37888,553.59072 c 0.81519,-5.47385 5.33129,-26.49044 8.27286,-38.49939 0.47798,-1.95135 -1.658,0.37773 -4.99928,5.45124 -6.82183,10.35853 -20.28186,33.82203 -20.28186,35.35532 0,0.58147 3.21964,1.67618 7.15475,2.43266 3.93512,0.7565 7.54508,1.45601 8.02213,1.55449 0.47705,0.0984 1.30118,-2.73397 1.8314,-6.29432 z m 273.94764,-6.71356 c -1.64608,-5.46951 -9.135,-18.0275 -13.60108,-22.8073 -0.76215,-0.81569 -3.99211,-5.26014 -7.17768,-9.87655 -5.68406,-8.23714 -5.79174,-8.6052 -5.78077,-19.76076 0.0164,-16.55783 6.70683,-68.41189 9.11286,-70.62784 0.41987,-0.38669 0.48474,1.29003 0.14414,3.72605 -0.52828,3.77849 -0.20348,4.42607 2.21104,4.40827 1.55667,-0.0109 3.73943,-0.59573 4.85058,-1.29831 1.68539,-1.06569 1.34654,-1.98601 -2.04421,-5.55205 -2.23547,-2.35102 -5.59766,-5.05018 -7.47153,-5.99811 -4.11338,-2.08083 -16.44877,-5.20644 -17.27737,-4.37782 -0.32566,0.32565 -1.77107,13.07851 -3.21202,28.33967 -3.22328,34.1378 -3.45404,57.23247 -0.65127,65.17639 3.66643,10.3918 27.79665,39.73716 35.45017,43.11181 7.00799,3.09005 7.57948,2.62178 5.44714,-4.46345 z m -7.26029,-21.22405 c -1.91216,-4.86758 -2.34713,-5.28464 -2.7255,-2.61323 -0.3559,2.51282 2.89709,8.40517 4.64023,8.40517 0.19831,0 -0.66332,-2.60637 -1.91473,-5.79194 z m -10.50562,-26.73722 c -2.75395,-6.4692 -5.55502,-12.34478 -6.2246,-13.05684 -0.7217,-0.76754 -1.21738,2.75103 -1.21738,8.64164 0,9.48251 0.26453,10.31448 5.79194,18.21585 l 5.79195,8.27952 0.43265,-5.159 c 0.30361,-3.62024 -1.06083,-8.66726 -4.57456,-16.92117 z m -25.83206,-51.36846 c -0.85478,-3.92061 -21.79448,-24.97534 -30.75096,-30.91989 -8.76816,-5.81957 -28.51326,-15.08958 -38.38512,-18.02121 -3.85136,-1.14373 -9.94347,-2.07951 -13.53805,-2.07951 -3.65672,0 -10.54053,-1.50746 -15.62759,-3.42222 -20.17401,-7.59347 -31.39707,-9.39091 -58.42934,-9.35779 -14.20754,0.0174 -19.80128,0.62246 -28.2422,3.0549 -13.58514,3.91487 -28.15447,10.58988 -40.00508,18.32858 -17.32941,11.31643 -22.1033,17.40706 -5.8793,7.50093 10.05942,-6.14213 23.57438,-11.83967 37.05863,-15.6229 23.40492,-6.56664 65.77664,-5.80589 91.94327,1.65078 12.45509,3.54931 26.44757,10.79551 40.21505,20.8259 10.99172,8.0081 14.92468,10.06916 22.48637,11.78393 9.42892,2.13821 25.27377,7.52246 24.47826,8.31797 -0.2461,0.2461 -6.49856,-1.36931 -13.89437,-3.58978 -7.3958,-2.22048 -14.08142,-4.03723 -14.85691,-4.03723 -0.7755,0 1.8382,3.18069 5.80823,7.06821 3.97003,3.88751 8.14786,8.48699 9.28408,10.22107 1.71376,2.61552 3.37465,3.19475 9.74526,3.39853 l 7.67943,0.24563 -6.56085,0.51401 c -4.32816,0.33908 -6.36519,1.06708 -5.98596,2.13927 0.61943,1.7513 1.49215,1.80401 9.82118,0.5933 5.7877,-0.84132 3.10699,0.85593 -3.6188,2.29117 l -3.61881,0.77224 5.91495,10.37939 c 3.25324,5.70868 7.64139,14.44983 9.75146,19.42477 l 3.8365,9.04537 0.9917,-23.84751 c 0.54544,-13.11614 0.71598,-25.11218 0.37897,-26.65791 z M 642.95721,388.93328 c -2.06125,-1.11825 -3.74773,-2.32022 -3.74773,-2.67106 0,-1.31638 2.15392,-0.49146 5.45124,2.08774 4.0501,3.16803 3.44364,3.37569 -1.70351,0.58332 z m -122.25797,32.03928 c 3.62885,-2.8426 5.29925,-5.57945 6.74174,-11.046 1.0547,-3.99689 2.13729,-6.25188 2.40576,-5.01107 0.92035,4.25372 6.6799,4.23569 12.58145,-0.0394 l 5.46521,-3.95897 -4.92447,-0.92385 c -4.51205,-0.84645 -18.85822,-0.0923 -25.92826,1.36305 -2.50084,0.51478 -3.23918,2.32498 -5.11331,12.53628 -1.20472,6.56405 -2.18916,12.41616 -2.18763,13.00469 0.004,1.43441 5.04184,-1.28922 10.95951,-5.92475 z m 12.72386,-11.0904 c -1.34886,-2.1825 -4.60126,-1.01822 -4.60126,1.64712 0,2.36554 0.3581,2.51354 2.63747,1.09004 1.45061,-0.90591 2.33431,-2.13763 1.96379,-2.73716 z M 283.25294,1034.5657 c -0.61166,-10.0833 -1.47451,-14.7526 -3.04737,-16.4906 -2.45271,-2.7101 -6.22928,-20.43766 -6.22928,-29.24073 0,-13.23936 9.03144,-36.04511 18.30933,-46.23381 l 4.71974,-5.18308 8.54163,1.54889 c 15.6509,2.83805 95.29956,28.22459 114.50978,36.49788 l 5.34335,2.30122 -0.87345,6.81407 c -0.48041,3.74773 -2.04763,14.17323 -3.48271,23.16776 -1.43508,8.9946 -2.64469,19.4201 -2.68803,23.1678 -0.0433,3.7477 -0.62499,9.2671 -1.29255,12.2653 -2.44673,10.989 0.18999,-20.3187 3.51561,-41.7433 1.81854,-11.71568 3.30645,-21.62757 3.30645,-22.02643 0,-3.18411 -105.78372,-37.29122 -119.92732,-38.66733 l -7.49546,-0.72928 -4.94817,6.61042 c -6.3826,8.52669 -9.73348,15.29472 -13.29623,26.85542 -3.23485,10.49673 -3.55571,17.12149 -1.40001,28.9065 2.10123,11.4873 4.92099,16.68 10.63298,19.5812 6.70907,3.4074 22.7203,7.7372 38.31186,10.3603 19.8594,3.3411 72.14291,15.363 67.45911,15.5113 -1.49909,0.048 -9.47153,-1.458 -17.71653,-3.3456 -22.14761,-5.0702 -38.01658,-8.394 -51.7868,-10.8465 -14.17752,-2.5251 -31.18,-7.0283 -36.13435,-9.5702 l -3.42689,-1.7583 0.49445,9.7918 c 0.27197,5.3854 0.26038,11.3059 -0.0258,13.1564 -0.28611,1.8507 -0.90416,-2.9649 -1.37343,-10.7011 z m -265.485008,-2.1782 c 0,-0.3146 3.21964,-1.6304 7.154755,-2.9239 3.935115,-1.2936 11.062586,-4.1299 15.838828,-6.3029 4.776242,-2.1729 8.955054,-3.6797 9.286245,-3.3486 0.763296,0.7634 -12.938073,7.1613 -22.6128,10.5594 -7.408647,2.602 -9.667028,3.073 -9.667028,2.016 z m 664.370078,-19.1467 c 4.2436,-3.4784 6.13265,-4.2116 6.13265,-2.3803 0,1.1754 -7.22803,5.7492 -9.06854,5.7383 -0.6339,0 0.68725,-1.5148 2.93589,-3.358 z M 762.2336,813.54682 c 0,-3.37295 0.26577,-4.7528 0.5906,-3.06632 0.32484,1.68648 0.32484,4.44617 0,6.13264 -0.32483,1.68648 -0.5906,0.30664 -0.5906,-3.06632 z m -605.2765,-414.1988 0.4989,-16.93955 -8.85827,0.33005 c -10.92966,0.40722 -26.75643,3.55425 -35.79815,7.11815 -3.74183,1.4749 -7.08276,2.4022 -7.42427,2.06068 -3.30268,-3.30268 45.24003,-13.49928 51.97038,-10.9166 1.94475,0.74627 2.10447,2.85691 1.31565,17.3867 -0.49379,9.09552 -1.1915,16.84395 -1.55047,17.21872 -0.35897,0.37477 -0.42817,-6.94139 -0.15377,-16.25815 z"
       id="path3031"
       style="fill:#000000" />
  </g>
</svg>
