<?xml version="1.0" encoding="UTF-8" standalone="no"?>
<!-- Created with Inkscape (http://www.inkscape.org/) -->

<svg
   xmlns:dc="http://purl.org/dc/elements/1.1/"
   xmlns:cc="http://creativecommons.org/ns#"
   xmlns:rdf="http://www.w3.org/1999/02/22-rdf-syntax-ns#"
   xmlns:svg="http://www.w3.org/2000/svg"
   xmlns="http://www.w3.org/2000/svg"
   xmlns:sodipodi="http://sodipodi.sourceforge.net/DTD/sodipodi-0.dtd"
   xmlns:inkscape="http://www.inkscape.org/namespaces/inkscape"
   width="744.09448819"
   height="1052.3622047"
   id="svg12411"
   version="1.1"
   inkscape:version="0.48.4 r9939"
   sodipodi:docname="新建文档 1">
  <defs
     id="defs12413" />
  <sodipodi:namedview
     id="base"
     pagecolor="#ffffff"
     bordercolor="#666666"
     borderopacity="1.0"
     inkscape:pageopacity="0.0"
     inkscape:pageshadow="2"
     inkscape:zoom="0.98994949"
     inkscape:cx="524.30514"
     inkscape:cy="555.39329"
     inkscape:document-units="px"
     inkscape:current-layer="layer1"
     showgrid="false"
     inkscape:window-width="1680"
     inkscape:window-height="988"
     inkscape:window-x="-8"
     inkscape:window-y="-8"
     inkscape:window-maximized="1" />
  <metadata
     id="metadata12416">
    <rdf:RDF>
      <cc:Work
         rdf:about="">
        <dc:format>image/svg+xml</dc:format>
        <dc:type
           rdf:resource="http://purl.org/dc/dcmitype/StillImage" />
        <dc:title></dc:title>
      </cc:Work>
    </rdf:RDF>
  </metadata>
  <g
     inkscape:label="Layer 1"
     inkscape:groupmode="layer"
     id="layer1">
    <path
       style="fill:#000000"
       d="M 220.15681,647.93543 C 118.28349,598.50501 39.334161,559.63406 39.474921,558.97613 c 0.1375,-0.64268 -0.2,-1.16851 -0.75,-1.16851 -1.59197,0 -1.28987,-118.03555 0.30746,-120.13432 1.56012,-2.04987 57.32464,-30.06185 60.6066,-30.44429 1.327729,-0.15471 5.486549,1.26598 9.241809,3.15711 l 6.82775,3.4384 21.9995,-11.00845 c 12.09972,-6.05465 22.91624,-11.00845 24.0367,-11.00845 1.12047,0 4.71988,1.35421 7.9987,3.00935 l 5.96149,3.00935 22.0013,-11.00935 c 12.10072,-6.05514 22.89524,-11.00935 23.98784,-11.00935 1.0926,0 4.45023,1.2083 7.4614,2.68512 l 5.47486,2.68513 24.16797,-11.63808 24.16796,-11.63808 6.62211,3.33845 6.62212,3.33845 13.00721,-6.53755 c 7.15397,-3.59565 17.66612,-8.67377 23.36034,-11.2847 l 10.35311,-4.74715 6.54005,3.06045 6.54005,3.06046 22.60684,-11.23342 c 12.43375,-6.17839 23.50683,-11.26335 24.60683,-11.29992 2.76986,-0.0921 61.63835,29.17797 60.94373,30.30188 -0.30897,0.49993 -0.0852,0.90896 0.49725,0.90896 0.61269,0 1.05902,2.24284 1.05902,5.32166 l 0,5.32165 28.59675,13.89496 c 15.72821,7.64222 29.45321,14.63776 30.5,15.54564 1.39575,1.21053 1.90325,2.98002 1.90325,6.63606 l 0,4.98539 28.55453,14.13042 c 15.70499,7.77174 29.20499,14.78089 30,15.57589 1.24184,1.24184 1.44547,15.89546 1.44547,104.0169 0,67.71429 -0.33983,102.57143 -1,102.57143 -0.55,0 -1,0.58845 -1,1.30767 0,0.73266 -22.09611,12.14211 -50.25,25.94687 -27.6375,13.55156 -67.8,33.27386 -89.25,43.82734 -21.45,10.55348 -40.15565,19.33407 -41.56811,19.51242 -1.79139,0.22621 -57.29077,-26.22794 -183.5,-87.46649 z m 180.56811,-7.06851 0,-88.94069 -26.64503,-13.05931 c -14.65477,-7.18261 -27.02977,-13.0593 -27.5,-13.0593 -0.47023,0 -0.85497,1.69175 -0.85497,3.75945 0,2.72872 -0.57221,4.11681 -2.08706,5.06285 -1.87259,1.16945 -4.98103,-0.0851 -30.25,-12.20898 l -28.16294,-13.51237 -0.30056,3.80761 c -0.21663,2.74425 -0.93239,4.14574 -2.56298,5.01841 -2.01263,1.07712 -5.28125,-0.17687 -29.60568,-11.35808 -15.0388,-6.91289 -27.6679,-12.56889 -28.06466,-12.56889 -0.39677,0 -0.60473,1.37112 -0.46213,3.04694 0.26053,3.06165 -1.63016,5.9854 -3.82542,5.91557 -0.64821,-0.0206 -13.55357,-6.01212 -28.67857,-13.31445 l -27.5,-13.27698 -0.29945,4.18371 c -0.55747,7.78853 -1.30921,7.62018 -32.33044,-7.24027 -15.28676,-7.32298 -28.01722,-13.31452 -28.2899,-13.31452 -0.27269,0 -0.36744,1.62981 -0.21056,3.62181 0.20224,2.56798 -0.28289,4.15109 -1.66731,5.44087 -1.902649,1.77259 -2.664429,1.46294 -29.820539,-12.12181 -15.32741,-7.66748 -28.09611,-13.94087 -28.3749,-13.94087 -0.2788,0 -0.5069,25.66114 -0.5069,57.02475 l 0,57.02475 2.25,0.88416 c 1.2375,0.48629 13.95,6.59845 28.25,13.58259 14.3,6.98413 30.949999,15.07598 36.999999,17.98187 6.05,2.9059 20,9.65949 31,15.00799 11,5.34849 26.75,12.99261 35,16.98693 19.86738,9.61899 43.91882,21.27997 66,31.9991 9.9,4.80587 23.85,11.56065 31,15.01062 7.15,3.44997 23.18151,11.22064 35.62557,17.26817 12.44406,6.04752 30.40463,14.76055 39.91239,19.36228 9.50775,4.60174 24.75125,12.04329 33.87443,16.5368 9.12319,4.49351 16.92511,8.20601 17.33761,8.25 0.4125,0.044 0.75,-39.94332 0.75,-88.86071 z m 96.75,43.93197 84.25,-41.32128 0,-99.91833 c 0,-58.97006 -0.36973,-99.78172 -0.90219,-99.58499 -0.4962,0.18333 -12.8712,6.14655 -27.5,13.2516 l -26.59781,12.91827 0,4.90316 c 0,2.78362 -0.58375,5.48691 -1.3504,6.25356 -0.74273,0.74272 -14.46773,7.91208 -30.5,15.93191 l -29.1496,14.5815 0,4.99666 c 0,2.85008 -0.45496,4.99667 -1.05902,4.99667 -0.58246,0 -0.81989,0.3869 -0.52764,0.85979 0.29226,0.47288 -5.19368,3.58924 -12.19098,6.92525 -6.9973,3.336 -20.25986,9.74276 -29.47236,14.23724 l -16.75,8.17179 0,88.92329 0,88.92329 3.75,-1.86405 c 2.0625,-1.02522 41.6625,-20.45862 88,-43.18533 z m -62.88452,-152.15015 23.36547,-11.36244 -27.44911,-13.32376 -27.44912,-13.32376 -27.25854,13.29797 -27.25855,13.29797 5.34219,2.53113 c 2.9382,1.39212 15.16275,7.34085 27.16568,13.21941 l 21.8235,10.68828 4.1765,-1.83118 c 2.29707,-1.00714 14.69096,-6.94427 27.54198,-13.19362 z m -93.86548,-6.88293 c 0,-2.51528 0.6823,-4.77418 1.80653,-5.9809 0.99359,-1.0665 10.96076,-6.38088 22.14926,-11.80975 l 20.34273,-9.87067 -10.89926,-5.22964 c -5.99459,-2.8763 -15.64894,-7.46787 -21.45409,-10.20348 l -10.55484,-4.97384 -27.24085,13.48142 -27.24086,13.48142 17.29569,8.32316 c 9.51263,4.57774 21.12069,10.20369 25.79569,12.50211 4.675,2.29842 8.8375,4.21113 9.25,4.25046 0.4125,0.0393 0.75,-1.7473 0.75,-3.97029 z m 119.99233,-11.70819 c -0.007,-2.59311 -1.53305,-3.5202 -26.74422,-16.25 -14.7051,-7.425 -27.07665,-13.65 -27.49233,-13.83333 -0.41568,-0.18334 -0.75578,1.19169 -0.75578,3.05561 l 0,3.38895 26.71137,13.19439 c 14.69126,7.25691 27.06626,13.19438 27.5,13.19438 0.43375,0 0.78518,-1.2375 0.78096,-2.75 z m -180.99233,-4.81574 c 0,-1.96116 0.41098,-4.32366 0.91329,-5.25 0.50232,-0.92634 9.95232,-6.17527 21,-11.66427 11.04769,-5.48901 20.08671,-10.23839 20.08671,-10.55417 0,-0.31579 -9.06539,-4.93468 -20.14531,-10.2642 l -20.14532,-9.69004 -26.8232,13.74421 -26.8232,13.74421 3.71852,1.80299 c 15.91357,7.71598 45.95495,21.53703 46.96851,21.60866 0.78281,0.0553 1.25,-1.24435 1.25,-3.47739 z m 211.37321,-15.5211 c 14.65062,-7.19776 26.44665,-13.38526 26.21342,-13.75 -0.23324,-0.36474 -12.61348,-6.73291 -27.51165,-14.1515 l -27.08759,-13.48833 -27.24235,13.61028 -27.24235,13.61028 26.99866,13.57414 c 14.84926,7.46578 27.50169,13.59841 28.11652,13.62806 0.61483,0.0297 13.10473,-5.83517 27.75534,-13.03293 z m -271.79637,-10e-4 c 0.17842,-5.59968 1.07662,-6.27718 22.41613,-16.90825 11.55387,-5.7564 21.00703,-10.72134 21.00703,-11.03362 0,-0.31228 -9.3375,-5.06801 -20.75,-10.56829 l -20.75,-10.00051 -26.75,12.99858 c -14.7125,7.14921 -26.75,13.26741 -26.75,13.59599 0,0.86836 49.31279,24.86297 50.5,24.57228 0.55,-0.13466 1.03458,-1.33013 1.07684,-2.65659 z m 176.89641,-1.11143 4.52675,-2.19926 0,-45.80074 c 0,-31.56874 0.32908,-45.80073 1.05902,-45.80073 0.58246,0 0.7867,-0.44062 0.45386,-0.97916 -0.33283,-0.53854 12.69061,-7.62249 28.94098,-15.74211 29.50814,-14.74397 29.54614,-14.76708 29.54614,-17.96678 l 0,-3.20383 -28.4006,14.01649 c -25.59604,12.63235 -28.60792,13.88702 -30.5,12.70539 -1.59874,-0.99843 -2.0994,-2.32688 -2.0994,-5.57055 0,-2.3427 -0.22821,-4.25945 -0.50714,-4.25945 -0.27893,0 -12.59652,6.04788 -27.37241,13.43975 -18.59515,9.30249 -27.52022,13.26847 -28.99286,12.88336 -1.80397,-0.47174 -2.12759,-1.29969 -2.12759,-5.44319 l 0,-4.88682 -28.15987,14.08687 c -25.62362,12.81813 -28.37063,13.97408 -30.5,12.83447 -1.82797,-0.9783 -2.34013,-2.09036 -2.34013,-5.08113 l 0,-3.82874 -28.44625,14.2127 -28.44625,14.2127 -1.90554,-2.19711 c -1.39239,-1.60543 -1.79734,-3.27909 -1.50375,-6.21498 0.24304,-2.43043 -0.0196,-4.01788 -0.66487,-4.01788 -1.32069,0 -23.03334,10.83491 -23.03334,11.49396 0,0.26249 2.7776,1.87938 6.17245,3.59309 l 6.17244,3.11584 5.57756,-2.50306 c 3.06765,-1.37668 6.5801,-2.51861 7.80544,-2.53763 1.22535,-0.019 12.43237,4.93622 24.9045,11.01164 l 22.67661,11.04621 5.73158,-2.73945 c 3.15237,-1.50669 6.23285,-2.42965 6.8455,-2.051 0.61266,0.37864 1.11392,0.23522 1.11392,-0.31871 0,-0.55393 10.16377,3.99424 22.58616,10.10705 l 22.58616,11.11418 5.66384,-2.80711 c 3.11511,-1.54391 6.70157,-2.93178 7.96992,-3.08416 1.29931,-0.1561 9.59413,3.23552 19,7.76879 33.65648,16.22116 29.1509,14.75694 35.66717,11.59109 z M 159.83873,471.80762 c 0.55232,0 0.72483,-0.45206 0.38335,-1.00459 -0.35159,-0.56889 8.77968,-5.55041 21.05411,-11.48596 l 21.67497,-10.48138 -20.14862,-10.01404 c -11.08175,-5.50771 -20.69515,-9.99796 -21.36312,-9.97831 -0.66798,0.0197 -13.3645,6.02496 -28.2145,13.34515 l -27,13.30942 17.5,8.40236 c 9.625,4.6213 21.325,10.24691 26,12.50135 l 8.5,4.09899 0.30479,-4.3465 c 0.16764,-2.39057 0.75669,-4.34649 1.30902,-4.34649 z m 361.71699,0.52527 c -0.18194,-0.16665 -13.1558,-6.70279 -28.8308,-14.52474 -15.675,-7.82196 -29.2875,-15.05315 -30.25,-16.06932 -1.17454,-1.24004 -1.75,-3.45016 -1.75,-6.72113 l 0,-4.87354 -26.59781,-12.91827 c -14.6288,-7.10505 -27.0038,-13.06827 -27.5,-13.2516 -0.5256,-0.1942 -0.90219,14.51999 -0.90219,35.25 0,19.57083 0.22821,35.58333 0.50714,35.58333 0.27893,0 12.58634,-6.04279 27.3498,-13.42843 16.70108,-8.35496 27.74949,-13.32274 29.24286,-13.14869 1.32011,0.15386 15.0002,6.59721 30.4002,14.31856 24.76053,12.41459 28.03827,13.8102 28.3308,12.06282 0.18194,-1.08679 0.18194,-2.11234 0,-2.27899 z m 29.41902,-19.15025 27.23554,-13.62498 -26.86136,-13.43805 -26.86136,-13.43806 -27.3661,13.81304 c -15.05135,7.59717 -27.34627,14.03803 -27.32204,14.31303 0.0618,0.70156 51.14565,25.84481 52.68264,25.93018 0.69143,0.0384 13.51314,-6.06142 28.49268,-13.55516 z m -452.654369,7.12498 c -0.0676,-2.475 0.22075,-4.5 0.64081,-4.5 0.42005,0 0.76374,-0.58059 0.76374,-1.2902 0,-0.70961 9.246219,-5.73691 20.547149,-11.17178 11.30093,-5.43487 20.78532,-10.26695 21.07641,-10.73795 0.2911,-0.471 -8.84262,-5.3864 -20.29715,-10.92312 l -20.82641,-10.06676 -26.749999,13.3301 c -14.7125,7.33155 -26.75,13.5931 -26.75,13.91455 0,0.32146 11.5875,6.25233 25.75,13.17973 14.1625,6.92739 25.79913,12.63355 25.85919,12.68034 0.0601,0.0468 0.0539,-1.93991 -0.0137,-4.41491 z m 106.904549,-31.48036 11,-5.91865 -26.67535,-13.0505 c -14.67144,-7.17777 -27.0945,-13.05049 -27.60679,-13.05049 -1.26234,0 -40.21786,18.81102 -40.21786,19.42058 0,0.74215 25.09845,12.57942 26.67202,12.57942 0.76176,0 3.98869,-1.31433 7.17096,-2.92074 l 5.78595,-2.92073 13.93553,6.75766 c 16.04645,7.78129 13.67554,7.8523 29.93554,-0.89655 z m 316.5,-23.02309 c 0,-1.6481 -0.22287,-2.99655 -0.49526,-2.99655 -0.2724,0 -12.8724,6.1837 -28,13.74154 l -27.50474,13.74155 0,3.2619 0,3.26191 28,-14.0069 c 27.32105,-13.66726 28,-14.07956 28,-17.00345 z m -271.38244,-11.638 c -14.78534,-7.34721 -27.61034,-13.33458 -28.5,-13.30529 -0.88966,0.0293 -10.39256,4.49217 -21.11756,9.9175 l -19.5,9.86424 20.66905,10.03976 c 21.92959,10.65206 22.02371,10.7283 22.37484,18.12524 0.0914,1.925 0.23139,3.83917 0.31113,4.25371 0.0797,0.41453 11.95748,-5.16162 26.39498,-12.39146 l 26.25,-13.14516 -26.88244,-13.35854 z m 240.63958,17.98639 27.24286,-13.65505 -27.3783,-13.52239 -27.3783,-13.52239 -27.6217,13.82344 -27.6217,13.82345 27,13.34836 c 14.85,7.3416 27.34071,13.3509 27.75714,13.354 0.41643,0.003 13.01643,-6.13914 28,-13.64942 z m -179.43254,-9.18991 25.3246,-12.73737 -26.64283,-13.20883 c -14.65355,-7.26486 -27.15537,-13.20883 -27.78181,-13.20883 -1.53523,0 -40.72456,19.1929 -40.72456,19.94477 0,0.32632 9.42119,5.28682 20.93598,11.02334 11.51479,5.73652 20.71324,10.79045 20.44099,11.23096 -0.27225,0.44051 -0.0184,0.80093 0.56401,0.80093 0.58847,0 1.05902,1.99948 1.05902,4.5 0,2.475 0.3375,4.47579 0.75,4.4462 0.4125,-0.0296 12.14607,-5.78562 26.0746,-12.79117 z m 60.05933,-16.84282 24.61508,-12.6878 -26.90166,-13.23308 -26.90166,-13.23309 -20.35409,10.16267 -20.35409,10.16267 18.75625,9.34811 c 25.07189,12.49582 25.24088,12.61575 25.24941,17.91831 0.004,2.3375 0.29232,4.25 0.64126,4.25 0.34893,0 11.71121,-5.70951 25.2495,-12.68779 z m 59.61097,-16.05309 c 14.0278,-7.00749 25.5051,-12.9928 25.5051,-13.30068 0,-0.30789 -12.18321,-6.48149 -27.0738,-13.71912 l -27.07381,-13.15932 -20.42619,10.19867 c -11.23441,5.60927 -20.42485,10.42877 -20.4232,10.71 0.002,0.28123 9.22665,4.96619 20.5,10.41102 11.65542,5.62936 20.497,10.48216 20.497,11.25 0,0.74267 0.45,1.35031 1,1.35031 0.55,0 1,2.025 1,4.5 0,2.475 0.2227,4.5 0.4949,4.5 0.27219,0 11.97219,-5.7334 26,-12.74088 z"
       id="path12452"
       inkscape:connector-curvature="0" />
    <path
       inkscape:connector-curvature="0"
       id="path12496"
       d="M 220.15681,647.93543 C 118.28349,598.50501 39.334161,559.63406 39.474921,558.97613 c 0.1375,-0.64268 -0.2,-1.16851 -0.75,-1.16851 -1.59197,0 -1.28987,-118.03555 0.30746,-120.13432 1.56012,-2.04987 57.32464,-30.06185 60.6066,-30.44429 1.327729,-0.15471 5.486549,1.26598 9.241809,3.15711 l 6.82775,3.4384 21.9995,-11.00845 c 12.09972,-6.05465 22.91624,-11.00845 24.0367,-11.00845 1.12047,0 4.71988,1.35421 7.9987,3.00935 l 5.96149,3.00935 22.0013,-11.00935 c 12.10072,-6.05514 22.89524,-11.00935 23.98784,-11.00935 1.0926,0 4.45023,1.2083 7.4614,2.68512 l 5.47486,2.68513 24.16797,-11.63808 24.16796,-11.63808 6.62211,3.33845 6.62212,3.33845 13.00721,-6.53755 c 7.15397,-3.59565 17.66612,-8.67377 23.36034,-11.2847 l 10.35311,-4.74715 6.54005,3.06045 6.54005,3.06046 22.60684,-11.23342 c 12.43375,-6.17839 23.50683,-11.26335 24.60683,-11.29992 2.76986,-0.0921 61.63835,29.17797 60.94373,30.30188 -0.30897,0.49993 -0.0852,0.90896 0.49725,0.90896 0.61269,0 1.05902,2.24284 1.05902,5.32166 l 0,5.32165 28.59675,13.89496 c 15.72821,7.64222 29.45321,14.63776 30.5,15.54564 1.39575,1.21053 1.90325,2.98002 1.90325,6.63606 l 0,4.98539 28.55453,14.13042 c 15.70499,7.77174 29.20499,14.78089 30,15.57589 1.24184,1.24184 1.44547,15.89546 1.44547,104.0169 0,67.71429 -0.33983,102.57143 -1,102.57143 -0.55,0 -1,0.58845 -1,1.30767 0,0.73266 -22.09611,12.14211 -50.25,25.94687 -27.6375,13.55156 -67.8,33.27386 -89.25,43.82734 -21.45,10.55348 -40.15565,19.33407 -41.56811,19.51242 -1.79139,0.22621 -57.29077,-26.22794 -183.5,-87.46649 z m 180.56811,-7.06851 0,-88.94069 -26.64503,-13.05931 c -14.65477,-7.18261 -27.02977,-13.0593 -27.5,-13.0593 -0.47023,0 -0.85497,1.69175 -0.85497,3.75945 0,2.72872 -0.57221,4.11681 -2.08706,5.06285 -1.87259,1.16945 -4.98103,-0.0851 -30.25,-12.20898 l -28.16294,-13.51237 -0.30056,3.80761 c -0.21663,2.74425 -0.93239,4.14574 -2.56298,5.01841 -2.01263,1.07712 -5.28125,-0.17687 -29.60568,-11.35808 -15.0388,-6.91289 -27.6679,-12.56889 -28.06466,-12.56889 -0.39677,0 -0.60473,1.37112 -0.46213,3.04694 0.26053,3.06165 -1.63016,5.9854 -3.82542,5.91557 -0.64821,-0.0206 -13.55357,-6.01212 -28.67857,-13.31445 l -27.5,-13.27698 -0.29945,4.18371 c -0.55747,7.78853 -1.30921,7.62018 -32.33044,-7.24027 -15.28676,-7.32298 -28.01722,-13.31452 -28.2899,-13.31452 -0.27269,0 -0.36744,1.62981 -0.21056,3.62181 0.20224,2.56798 -0.28289,4.15109 -1.66731,5.44087 -1.902649,1.77259 -2.664429,1.46294 -29.820539,-12.12181 -15.32741,-7.66748 -28.09611,-13.94087 -28.3749,-13.94087 -0.2788,0 -0.5069,25.66114 -0.5069,57.02475 l 0,57.02475 2.25,0.88416 c 1.2375,0.48629 13.95,6.59845 28.25,13.58259 14.3,6.98413 30.949999,15.07598 36.999999,17.98187 6.05,2.9059 20,9.65949 31,15.00799 11,5.34849 26.75,12.99261 35,16.98693 19.86738,9.61899 43.91882,21.27997 66,31.9991 9.9,4.80587 23.85,11.56065 31,15.01062 7.15,3.44997 23.18151,11.22064 35.62557,17.26817 12.44406,6.04752 30.40463,14.76055 39.91239,19.36228 9.50775,4.60174 24.75125,12.04329 33.87443,16.5368 9.12319,4.49351 16.92511,8.20601 17.33761,8.25 0.4125,0.044 0.75,-39.94332 0.75,-88.86071 z m 96.75,43.93197 84.25,-41.32128 0,-99.91833 c 0,-58.97006 -0.36973,-99.78172 -0.90219,-99.58499 -0.4962,0.18333 -12.8712,6.14655 -27.5,13.2516 l -26.59781,12.91827 0,4.90316 c 0,2.78362 -0.58375,5.48691 -1.3504,6.25356 -0.74273,0.74272 -14.46773,7.91208 -30.5,15.93191 l -29.1496,14.5815 0,4.99666 c 0,2.85008 -0.45496,4.99667 -1.05902,4.99667 -0.58246,0 -0.81989,0.3869 -0.52764,0.85979 0.29226,0.47288 -5.19368,3.58924 -12.19098,6.92525 -6.9973,3.336 -20.25986,9.74276 -29.47236,14.23724 l -16.75,8.17179 0,88.92329 0,88.92329 3.75,-1.86405 c 2.0625,-1.02522 41.6625,-20.45862 88,-43.18533 z m -62.88452,-152.15015 23.36547,-11.36244 -27.44911,-13.32376 -27.44912,-13.32376 -27.25854,13.29797 -27.25855,13.29797 5.34219,2.53113 c 2.9382,1.39212 15.16275,7.34085 27.16568,13.21941 l 21.8235,10.68828 4.1765,-1.83118 c 2.29707,-1.00714 14.69096,-6.94427 27.54198,-13.19362 z m -93.86548,-6.88293 c 0,-2.51528 0.6823,-4.77418 1.80653,-5.9809 0.99359,-1.0665 10.96076,-6.38088 22.14926,-11.80975 l 20.34273,-9.87067 -10.89926,-5.22964 c -5.99459,-2.8763 -15.64894,-7.46787 -21.45409,-10.20348 l -10.55484,-4.97384 -27.24085,13.48142 -27.24086,13.48142 17.29569,8.32316 c 9.51263,4.57774 21.12069,10.20369 25.79569,12.50211 4.675,2.29842 8.8375,4.21113 9.25,4.25046 0.4125,0.0393 0.75,-1.7473 0.75,-3.97029 z m 119.99233,-11.70819 c -0.007,-2.59311 -1.53305,-3.5202 -26.74422,-16.25 -14.7051,-7.425 -27.07665,-13.65 -27.49233,-13.83333 -0.41568,-0.18334 -0.75578,1.19169 -0.75578,3.05561 l 0,3.38895 26.71137,13.19439 c 14.69126,7.25691 27.06626,13.19438 27.5,13.19438 0.43375,0 0.78518,-1.2375 0.78096,-2.75 z m -180.99233,-4.81574 c 0,-1.96116 0.41098,-4.32366 0.91329,-5.25 0.50232,-0.92634 9.95232,-6.17527 21,-11.66427 11.04769,-5.48901 20.08671,-10.23839 20.08671,-10.55417 0,-0.31579 -9.06539,-4.93468 -20.14531,-10.2642 l -20.14532,-9.69004 -26.8232,13.74421 -26.8232,13.74421 3.71852,1.80299 c 15.91357,7.71598 45.95495,21.53703 46.96851,21.60866 0.78281,0.0553 1.25,-1.24435 1.25,-3.47739 z m 211.37321,-15.5211 c 14.65062,-7.19776 26.44665,-13.38526 26.21342,-13.75 -0.23324,-0.36474 -12.61348,-6.73291 -27.51165,-14.1515 l -27.08759,-13.48833 -27.24235,13.61028 -27.24235,13.61028 26.99866,13.57414 c 14.84926,7.46578 27.50169,13.59841 28.11652,13.62806 0.61483,0.0297 13.10473,-5.83517 27.75534,-13.03293 z m -271.79637,-10e-4 c 0.17842,-5.59968 1.07662,-6.27718 22.41613,-16.90825 11.55387,-5.7564 21.00703,-10.72134 21.00703,-11.03362 0,-0.31228 -9.3375,-5.06801 -20.75,-10.56829 l -20.75,-10.00051 -26.75,12.99858 c -14.7125,7.14921 -26.75,13.26741 -26.75,13.59599 0,0.86836 49.31279,24.86297 50.5,24.57228 0.55,-0.13466 1.03458,-1.33013 1.07684,-2.65659 z m 176.89641,-1.11143 4.52675,-2.19926 0,-45.80074 c 0,-31.56874 0.32908,-45.80073 1.05902,-45.80073 0.58246,0 0.7867,-0.44062 0.45386,-0.97916 -0.33283,-0.53854 12.69061,-7.62249 28.94098,-15.74211 29.50814,-14.74397 29.54614,-14.76708 29.54614,-17.96678 l 0,-3.20383 -28.4006,14.01649 c -25.59604,12.63235 -28.60792,13.88702 -30.5,12.70539 -1.59874,-0.99843 -2.0994,-2.32688 -2.0994,-5.57055 0,-2.3427 -0.22821,-4.25945 -0.50714,-4.25945 -0.27893,0 -12.59652,6.04788 -27.37241,13.43975 -18.59515,9.30249 -27.52022,13.26847 -28.99286,12.88336 -1.80397,-0.47174 -2.12759,-1.29969 -2.12759,-5.44319 l 0,-4.88682 -28.15987,14.08687 c -25.62362,12.81813 -28.37063,13.97408 -30.5,12.83447 -1.82797,-0.9783 -2.34013,-2.09036 -2.34013,-5.08113 l 0,-3.82874 -28.44625,14.2127 -28.44625,14.2127 -1.90554,-2.19711 c -1.39239,-1.60543 -1.79734,-3.27909 -1.50375,-6.21498 0.24304,-2.43043 -0.0196,-4.01788 -0.66487,-4.01788 -1.32069,0 -23.03334,10.83491 -23.03334,11.49396 0,0.26249 2.7776,1.87938 6.17245,3.59309 l 6.17244,3.11584 5.57756,-2.50306 c 3.06765,-1.37668 6.5801,-2.51861 7.80544,-2.53763 1.22535,-0.019 12.43237,4.93622 24.9045,11.01164 l 22.67661,11.04621 5.73158,-2.73945 c 3.15237,-1.50669 6.23285,-2.42965 6.8455,-2.051 0.61266,0.37864 1.11392,0.23522 1.11392,-0.31871 0,-0.55393 10.16377,3.99424 22.58616,10.10705 l 22.58616,11.11418 5.66384,-2.80711 c 3.11511,-1.54391 6.70157,-2.93178 7.96992,-3.08416 1.29931,-0.1561 9.59413,3.23552 19,7.76879 33.65648,16.22116 29.1509,14.75694 35.66717,11.59109 z M 159.83873,471.80762 c 0.55232,0 0.72483,-0.45206 0.38335,-1.00459 -0.35159,-0.56889 8.77968,-5.55041 21.05411,-11.48596 l 21.67497,-10.48138 -20.14862,-10.01404 c -11.08175,-5.50771 -20.69515,-9.99796 -21.36312,-9.97831 -0.66798,0.0197 -13.3645,6.02496 -28.2145,13.34515 l -27,13.30942 17.5,8.40236 c 9.625,4.6213 21.325,10.24691 26,12.50135 l 8.5,4.09899 0.30479,-4.3465 c 0.16764,-2.39057 0.75669,-4.34649 1.30902,-4.34649 z m 361.71699,0.52527 c -0.18194,-0.16665 -13.1558,-6.70279 -28.8308,-14.52474 -15.675,-7.82196 -29.2875,-15.05315 -30.25,-16.06932 -1.17454,-1.24004 -1.75,-3.45016 -1.75,-6.72113 l 0,-4.87354 -26.59781,-12.91827 c -14.6288,-7.10505 -27.0038,-13.06827 -27.5,-13.2516 -0.5256,-0.1942 -0.90219,14.51999 -0.90219,35.25 0,19.57083 0.22821,35.58333 0.50714,35.58333 0.27893,0 12.58634,-6.04279 27.3498,-13.42843 16.70108,-8.35496 27.74949,-13.32274 29.24286,-13.14869 1.32011,0.15386 15.0002,6.59721 30.4002,14.31856 24.76053,12.41459 28.03827,13.8102 28.3308,12.06282 0.18194,-1.08679 0.18194,-2.11234 0,-2.27899 z m 29.41902,-19.15025 27.23554,-13.62498 -26.86136,-13.43805 -26.86136,-13.43806 -27.3661,13.81304 c -15.05135,7.59717 -27.34627,14.03803 -27.32204,14.31303 0.0618,0.70156 51.14565,25.84481 52.68264,25.93018 0.69143,0.0384 13.51314,-6.06142 28.49268,-13.55516 z m -452.654369,7.12498 c -0.0676,-2.475 0.22075,-4.5 0.64081,-4.5 0.42005,0 0.76374,-0.58059 0.76374,-1.2902 0,-0.70961 9.246219,-5.73691 20.547149,-11.17178 11.30093,-5.43487 20.78532,-10.26695 21.07641,-10.73795 0.2911,-0.471 -8.84262,-5.3864 -20.29715,-10.92312 l -20.82641,-10.06676 -26.749999,13.3301 c -14.7125,7.33155 -26.75,13.5931 -26.75,13.91455 0,0.32146 11.5875,6.25233 25.75,13.17973 14.1625,6.92739 25.79913,12.63355 25.85919,12.68034 0.0601,0.0468 0.0539,-1.93991 -0.0137,-4.41491 z m 106.904549,-31.48036 11,-5.91865 -26.67535,-13.0505 c -14.67144,-7.17777 -27.0945,-13.05049 -27.60679,-13.05049 -1.26234,0 -40.21786,18.81102 -40.21786,19.42058 0,0.74215 25.09845,12.57942 26.67202,12.57942 0.76176,0 3.98869,-1.31433 7.17096,-2.92074 l 5.78595,-2.92073 13.93553,6.75766 c 16.04645,7.78129 13.67554,7.8523 29.93554,-0.89655 z m 316.5,-23.02309 c 0,-1.6481 -0.22287,-2.99655 -0.49526,-2.99655 -0.2724,0 -12.8724,6.1837 -28,13.74154 l -27.50474,13.74155 0,3.2619 0,3.26191 28,-14.0069 c 27.32105,-13.66726 28,-14.07956 28,-17.00345 z m -271.38244,-11.638 c -14.78534,-7.34721 -27.61034,-13.33458 -28.5,-13.30529 -0.88966,0.0293 -10.39256,4.49217 -21.11756,9.9175 l -19.5,9.86424 20.66905,10.03976 c 21.92959,10.65206 22.02371,10.7283 22.37484,18.12524 0.0914,1.925 0.23139,3.83917 0.31113,4.25371 0.0797,0.41453 11.95748,-5.16162 26.39498,-12.39146 l 26.25,-13.14516 -26.88244,-13.35854 z m 240.63958,17.98639 27.24286,-13.65505 -27.3783,-13.52239 -27.3783,-13.52239 -27.6217,13.82344 -27.6217,13.82345 27,13.34836 c 14.85,7.3416 27.34071,13.3509 27.75714,13.354 0.41643,0.003 13.01643,-6.13914 28,-13.64942 z m -179.43254,-9.18991 25.3246,-12.73737 -26.64283,-13.20883 c -14.65355,-7.26486 -27.15537,-13.20883 -27.78181,-13.20883 -1.53523,0 -40.72456,19.1929 -40.72456,19.94477 0,0.32632 9.42119,5.28682 20.93598,11.02334 11.51479,5.73652 20.71324,10.79045 20.44099,11.23096 -0.27225,0.44051 -0.0184,0.80093 0.56401,0.80093 0.58847,0 1.05902,1.99948 1.05902,4.5 0,2.475 0.3375,4.47579 0.75,4.4462 0.4125,-0.0296 12.14607,-5.78562 26.0746,-12.79117 z m 60.05933,-16.84282 24.61508,-12.6878 -26.90166,-13.23308 -26.90166,-13.23309 -20.35409,10.16267 -20.35409,10.16267 18.75625,9.34811 c 25.07189,12.49582 25.24088,12.61575 25.24941,17.91831 0.004,2.3375 0.29232,4.25 0.64126,4.25 0.34893,0 11.71121,-5.70951 25.2495,-12.68779 z m 59.61097,-16.05309 c 14.0278,-7.00749 25.5051,-12.9928 25.5051,-13.30068 0,-0.30789 -12.18321,-6.48149 -27.0738,-13.71912 l -27.07381,-13.15932 -20.42619,10.19867 c -11.23441,5.60927 -20.42485,10.42877 -20.4232,10.71 0.002,0.28123 9.22665,4.96619 20.5,10.41102 11.65542,5.62936 20.497,10.48216 20.497,11.25 0,0.74267 0.45,1.35031 1,1.35031 0.55,0 1,2.025 1,4.5 0,2.475 0.2227,4.5 0.4949,4.5 0.27219,0 11.97219,-5.7334 26,-12.74088 z"
       style="fill:#000000" />
  </g>
</svg>
