<?xml version="1.0" encoding="UTF-8" standalone="no"?>
<!-- Created with Inkscape (http://www.inkscape.org/) -->

<svg
   xmlns:dc="http://purl.org/dc/elements/1.1/"
   xmlns:cc="http://creativecommons.org/ns#"
   xmlns:rdf="http://www.w3.org/1999/02/22-rdf-syntax-ns#"
   xmlns:svg="http://www.w3.org/2000/svg"
   xmlns="http://www.w3.org/2000/svg"
   version="1.1"
   width="744.09448"
   height="1052.3622"
   id="svg3099">
  <defs
     id="defs3101" />
  <metadata
     id="metadata3104">
    <rdf:RDF>
      <cc:Work
         rdf:about="">
        <dc:format>image/svg+xml</dc:format>
        <dc:type
           rdf:resource="http://purl.org/dc/dcmitype/StillImage" />
        <dc:title></dc:title>
      </cc:Work>
    </rdf:RDF>
  </metadata>
  <g
     id="layer1">
    <path
       d="m 100.18185,1048.3706 c -34.668742,-5.2949 -41.83805,-58.4374 -9.437532,-72.24766 22.284752,-14.64458 73.627302,12.81197 27.631912,1.48924 -29.459468,-5.05291 -54.8602,43.55832 -23.832348,57.14392 22.634748,14.475 62.095518,-16.2302 36.255158,-37.38752 -32.790681,-20.8147 -30.02559,46.85442 -13.91742,13.84952 -4.40625,-26.11815 27.16238,9.7514 -1.8284,21.1576 -54.383086,-0.082 -6.46378,-77.82991 25.67502,-38.60462 22.3923,21.62272 -1.46198,60.45402 -30.64633,55.57512 l -5.53948,-0.3035 -4.36052,-0.6702 -6e-5,0 z m 20.26209,-2.8136 c 37.59754,-8.408 31.75896,-71.1315 -8.13718,-56.90261 -40.115517,21.22551 8.34016,67.76411 11.33372,23.07141 -8.77068,-9.6752 2.05241,26.6281 -21.33359,8.2 -8.896778,-46.84778 58.94515,-36.07264 34.76711,6.2145 -18.16684,26.2887 -71.031521,14.519 -58.033948,-24.0663 6.564898,-23.27676 21.412538,-25.36445 39.088528,-27.88522 -31.290795,-6.88937 -59.261078,30.89062 -39.438498,57.70882 9.90301,12.1483 26.587718,17.0862 41.753858,13.6594 z m 228.33521,-30.0097 c 6.15794,-19.44769 59.01988,-5.9542 82.0725,-10.0609 20.16449,0.8926 -34.7648,3.2983 -43.20808,3.3041 -14.54336,-2.3311 -56.15983,6.3355 -18.14595,3.4065 -6.09315,3.125 -13.92067,4.6917 -20.71847,3.3503 z m 41.4308,-13.8042 c 20.20695,-19.69588 60.33802,2.8758 60.4028,-17.80322 18.46179,-3.02056 38.68547,5.577 35.6506,-7.1579 13.17314,-4.03356 70.65452,9.52631 30.32466,-4.74477 24.09704,-7.65339 63.6747,-7.49926 93.19254,-1.36563 16.95315,2.33005 54.21539,15.97257 16.2256,5.653 -13.15681,-4.28806 -65.16334,-9.78488 -55.221,-6.3022 18.4865,1.44478 53.49448,7.21798 62.0381,12.7789 -35.79332,-7.26156 -72.65078,-13.28749 -109.2314,-10.9356 30.14321,8.36097 62.03028,11.6095 92.3925,19.8928 -41.98871,-3.72631 -83.95202,-11.19466 -126.1645,-12.269 23.85348,9.69825 52.52964,10.69996 78.2961,16.1488 -39.23401,-0.68341 -78.34069,-10.91694 -117.60177,-8.18054 9.39162,10.90778 86.36107,10.51423 36.65734,11.09712 -32.03513,0.18475 -65.8865,-5.91044 -96.96157,3.18824 z m -14.1801,-23.37002 c -29.2746,-13.76244 3.27295,-60.34507 -33.2298,-65.4953 -12.61416,32.78911 -67.89569,25.43096 -57.35355,-14.81813 8.54791,-28.52878 -19.92223,-5.99762 -17.47301,-37.50417 6.67297,-27.11043 39.21791,-33.17997 62.829,-25.46847 11.15925,15.38436 16.001,19.85633 22.3099,-0.76546 3.71531,-11.57174 -7.203,-46.03849 -14.99203,-17.2503 -17.56605,-3.03755 -58.63275,28.011 -49.0589,-8.87673 13.12576,-6.96478 28.67837,-2.34443 5.21103,-11.21961 -11.79201,-1.71014 -32.44888,22.98568 -35.44505,-7.58916 -6.7887,-23.91779 8.52271,-44.71764 34.00997,-42.81786 23.77732,15.33321 10.42799,-1.39018 7.4559,-11.45896 -0.56214,-22.1392 -9.67262,-34.87761 -15.78516,-58.26683 -3.16551,-15.99156 6.70457,-47.23019 -18.37441,-45.74227 -14.21291,20.3749 -42.12594,-15.07722 -48.52981,-26.42592 22.18707,-9.74753 8.18936,-10.90673 -8.27295,-5.14279 -21.25336,-20.42638 39.64627,-18.68461 3.01246,-36.20513 -10.09483,9.66438 -5.45081,32.46729 -23.57165,19.39948 -20.33122,0.0627 1.78015,63.57234 -9.86779,19.40545 5.73439,-42.0327 -33.36652,-4.94789 -31.30222,12.39914 4.73817,-15.44601 28.57367,-51.74754 -3.25913,-41.88078 -31.61573,15.35021 20.2982,-4.07862 6.11816,-21.23583 -13.92273,-24.50751 -6.31051,-78.11346 35.68214,-59.71386 17.06643,4.19411 16.53334,52.95039 32.98288,37.65606 14.67232,-17.23862 43.98291,-44.03404 66.28409,-31.00935 11.36376,-8.94139 -40.45134,-72.23484 -6.94627,-33.59428 11.44491,15.83562 20.82727,49.40467 20.6588,10.34256 3.3257,-15.20599 -11.90855,-68.79888 2.88377,-26.66986 11.59833,14.81408 -7.69239,78.40768 11.54262,35.654 20.86178,-33.22036 -20.18046,36.3651 2.88014,30.15668 27.8999,-2.54222 27.90016,20.00945 2.21564,24.53001 -43.19501,-4.3026 15.39314,39.266 18.16832,48.06972 -23.05789,-15.04999 11.98499,29.36197 19.2892,40.13487 23.3343,17.0401 -17.9953,-5.16221 2.2026,9.14519 -24.51397,-7.84839 -29.60307,-13.02878 -50.47724,-8.24335 -8.60475,23.09526 27.03668,-5.30431 37.39239,18.06098 20.11123,14.0054 40.16087,28.43883 62.91035,37.94192 -39.1563,-8.36746 25.36859,13.2159 -1.0812,9.09827 16.77955,5.77182 13.18477,7.66621 4.7639,7.47611 21.71097,13.28659 42.23955,33.11826 64.289,13.30845 19.33395,19.33226 14.67735,6.10494 14.6576,-20.55324 -6.52854,-20.30196 -11.45734,-39.95893 1.149,-13.1002 11.13802,25.07468 -9.377,-31.33608 7.0731,-3.03812 13.41335,19.05178 -3.43293,-31.79043 -5.0535,-41.46649 -10.75651,-35.37081 6.11112,4.81943 13.1852,12.01541 -4.91777,-24.87821 -1.75085,-14.99568 6.2794,-5.14875 -2.79747,-16.93317 -19.28692,-51.55292 5.55838,-23.15608 -4.98372,-18.47019 -19.80808,-36.82376 -26.85285,-52.31794 9.87432,11.07478 32.43505,23.29879 15.67397,0.55837 -12.48524,-20.85935 37.1765,31.04061 16.3144,-2.41369 -8.34065,-13.42065 -16.07942,-27.57721 -1.30911,-7.33798 19.72625,43.57348 12.83234,-24.04749 11.91171,-41.93731 -3.75943,-36.37579 11.13239,61.27858 14.1151,15.14953 1.56203,-14.67755 14.15374,-78.79555 8.445,-31.82028 2.03885,7.54107 -5.69583,61.32282 5.69792,32.89078 19.3361,-37.6477 1.52315,11.78066 0.90788,27.37945 -11.02651,24.43483 19.37339,23.76503 25.1227,19.17297 -14.15377,11.20884 -47.29495,55.04561 -7.9235,29.793 20.88925,-12.68632 24.61598,-4.28085 6.3458,6.66371 -10.50426,8.81854 -30.51417,21.39504 -9.0436,17.46417 -25.5992,22.91487 -21.31768,26.67388 -34.4708,57.1536 -3.92583,13.69358 33.47568,-27.51812 11.8298,-1.65297 -5.44293,6.17446 -16.01672,21.59537 -1.4751,7.16639 -26.56666,37.52687 44.87932,-30.88596 15.6551,3.37529 -15.52806,15.34355 -46.58282,51.06785 -33.61362,54.25578 -10.09883,6.45783 14.55947,26.58273 -14.17228,25.80886 -13.82556,-1.98021 -14.12846,14.37509 -6.2836,9.04851 -16.6122,15.36635 -4.05129,35.3728 -7.19067,54.7969 -10.9741,50.99188 -54.33633,86.74731 -93.35593,117.51761 -11.79336,7.25689 -24.64883,19.49714 -39.24959,18.34823 z m 6.878,-4.0768 c 15.76194,-2.63036 42.84642,-30.75728 10.42239,-15.26913 7.7972,-8.11598 13.42055,-24.17022 1.94041,-15.73037 4.75759,-15.28901 3.15603,-19.37591 9.40272,-40.41965 5.77319,-14.15527 -17.64482,-41.48367 -12.25232,-18.81485 -1.01827,-31.61008 -64.12707,-6.47165 -20.64886,-1.9663 15.58438,16.07369 -32.22885,-18.09874 -28.98634,14.8442 0.14294,28.88082 33.33616,12.89732 22.94045,46.99496 0.54289,12.48713 -4.18471,33.91707 17.18155,30.36114 z m 15.6264,-17.5899 c 14.88189,-9.33193 15.71603,6.38068 31.0103,-13.2248 34.61496,-31.88178 78.39202,-69.56732 75.0023,-121.39489 -2.51756,-19.79023 -12.69407,-43.36459 -32.7104,-23.50404 -18.94668,-4.12784 -40.16365,-12.66313 -31.328,17.22803 -14.63845,27.468 -24.25182,56.89624 -31.9209,87.1917 -5.7237,16.73566 -14.30964,35.08349 -2.67504,38.2631 0.8782,4.07076 -11.42827,16.02503 -7.37826,15.4409 z m -81.44818,-26.3781 c 21.94827,-4.49305 24.53798,-28.34067 17.99588,-39.02134 27.18377,-13.35136 -3.26718,-75.93244 -29.44755,-46.78896 -7.02075,21.27121 15.5329,9.29677 11.84553,24.3067 12.32642,1.01232 26.54683,-15.94659 10.46522,2.3166 -35.72304,16.80497 -21.65222,-41.53973 -25.0882,-36.93991 -27.41218,2.61533 -20.74204,31.28801 -5.16935,32.41231 10.81925,1.97883 -19.13646,15.64239 -6.26781,34.64949 -0.69527,14.39071 8.1063,34.20124 25.66628,29.06511 z m -17.07426,-28.7897 c -13.65502,-20.52338 11.79487,-36.20505 4.67927,-3.7104 l -2.04858,3.39709 z m 2.03866,-2.9212 c 8.81225,-28.87577 -13.35008,-22.73726 0,0 z m 10.07281,1.5832 c -13.08783,-22.43797 19.38217,-36.2741 6.82726,-5.12093 -0.1429,1.54193 -4.15603,8.20556 -6.82726,5.12093 z m 3.71541,-2.8452 c 13.16631,-25.08329 -11.51081,-30.38975 0,0 z m 23.93696,-2.8704 c 1.97179,-14.07523 -10.14334,9.06381 0,0 z m 68.9931,-1.7675 c 10.30451,-15.20751 1.17082,-34.58702 -12.0499,-20.091 8.8431,1.32947 9.65174,22.94389 12.0499,20.091 z m -58.8386,-13.6078 c 8.9563,-32.68338 36.68805,-1.7275 53.06899,-14.45864 -25.20209,9.86827 -40.84803,-46.05272 -51.18569,-20.56223 -8.26901,6.01169 -7.46587,37.71389 -1.8833,35.02087 z m -70.70112,-1.7717 c 7.04779,-15.29454 -13.20608,-4.52758 0,0 z m 9.57337,-3.128 c -5.34688,-11.46746 -15.08111,-42.45279 -16.78823,-9.98479 4.93027,3.29918 9.2265,12.01701 16.78823,9.98479 z m 6.31862,-5.0645 c 2.11663,-19.60816 -13.37621,7.8055 0,0 z m 19.53832,-0.8899 c 1.53816,-15.53504 -10.91807,9.98536 0,0 z m 101.65871,-4.3662 c 2.19434,-24.18477 36.62752,-51.50434 17.2209,-72.73445 -15.57495,21.13292 -53.88411,7.98672 -30.6589,-17.96449 37.7115,-4.37662 -13.04973,-31.9288 -27.1318,-43.40984 -30.87316,-22.87893 -72.18108,-46.49444 -77.2312,-88.41962 20.02483,-28.20958 -46.51449,-19.00023 -13.99826,-0.60606 16.53368,18.58489 0.0508,29.1758 15.29637,53.36494 10.37144,30.45522 48.60942,46.35445 45.83149,81.34511 2.7944,30.62465 12.39058,68.90558 42.369,83.12063 9.11739,-1.9631 21.58798,8.73425 28.3024,5.30378 z M 294.52903,660.51681 c 0.19661,-1.9322 0.64148,1.19265 0,0 z m 7.81553,163.4751 c 19.33249,-7.55901 57.816,-16.51448 33.12009,-33.75748 -9.63176,-7.95208 -8.0466,17.70131 -14.27222,-5.11492 -10.65328,11.58065 -12.13048,-55.2595 -42.37159,-32.12003 15.57852,5.18216 28.37025,18.61843 7.36454,6.15088 -24.46905,-20.40637 -38.98481,33.94683 -8.84912,13.23071 46.31006,12.67379 -28.08883,-9.01182 -13.92274,22.80801 20.94127,18.43696 16.02187,-16.55656 39.51219,1.81915 27.69645,10.20143 -36.8115,11.97251 -4.75843,27.74035 l 4.17728,-0.75717 z m 201.56429,-22.97467 c 13.80062,-15.46892 -7.55667,-4.30201 8.2133,-22.41432 -16.0051,-28.87256 -29.78483,16.20865 -8.2133,22.41432 z m -91.4874,-1.57214 c 15.30327,-20.00146 52.81841,-1.93184 61.0968,-10.95066 -4.05139,20.48045 39.32783,-21.24949 6.5568,-22.97315 -15.57368,14.9764 -46.32084,-8.32086 -38.2157,-22.42172 -1.37761,35.66287 59.24332,21.06865 21.93382,-2.12436 -9.35808,-29.82539 -42.67518,-12.11287 -27.04782,13.42015 9.53412,27.44472 -64.54842,15.9292 -27.182,45.66064 l 2.8579,-0.611 z m -69.06051,-5.49326 c 10.55719,-31.73874 -12.32205,-55.89795 -33.5723,-77.21523 -16.62004,-18.73321 -20.35224,-44.70596 -22.50615,-67.19198 -7.3985,34.63212 13.33207,48.06961 13.60352,74.81564 2.11098,15.24397 6.28397,7.04549 10.83412,37.49213 2.59548,25.35157 9.13032,23.59674 24.39682,26.01341 2.39869,0.0486 5.72721,9.12193 7.24399,6.08603 z m 181.44321,-18.99027 c 29.07509,-11.5072 -42.12203,-53.16717 -15.817,-14.85141 -12.3291,8.62899 9.86292,16.72282 15.817,14.85141 z m -93.2983,-6.90436 c 4.08828,-14.67556 -4.08078,-39.68872 3.9818,-48.81153 -18.82108,-8.73751 -18.85977,-9.12488 -8.5086,-6.49085 -8.49894,-5.1655 -35.02232,-18.35878 -23.2537,-18.23008 -28.01591,-7.05161 9.72762,-4.62892 -13.1483,-10.73666 -2.8783,-8.78515 -20.23752,-14.84553 -35.9646,-27.36689 -12.93764,-14.97909 -40.51444,-20.73764 -49.04016,-13.5326 -3.00338,-44.76054 -9.56399,31.6639 14.41589,38.73167 22.79131,24.04755 50.40513,42.67226 77.75917,61.03488 -20.18764,-24.5942 -41.0874,-50.65717 -68.2391,-66.93831 23.74772,17.12776 -11.39584,-18.72382 9.1499,0.90097 33.30689,26.70754 58.81439,61.41659 86.559,93.11451 l 6.2887,-1.67506 z m 67.5055,-3.11578 c 13.63831,-11.72479 -16.42844,-37.12155 -24.95915,-47.58902 -32.29553,6.20941 7.88365,37.22758 14.31095,48.2876 l 4.2554,0.36607 6.3928,-1.06477 z m 32.4004,-10.35182 c 6.28751,-6.66279 -8.28488,5.42096 0,0 z m -3.7104,-1.24682 c 3.46524,-22.23246 30.03548,-41.57306 38.2952,-54.85559 -7.34698,7.46586 -34.17362,28.2747 -17.9927,4.80361 -22.31782,21.35785 14.61739,-25.34881 -8.6037,-4.37246 3.28242,-19.97369 12.03066,-23.61667 -1.60294,-32.42002 -0.13554,-30.02215 -0.0274,-3.76487 -10.94786,4.72144 -8.52779,-12.00612 -1.64134,-32.27981 -12.31001,-10.8536 -13.84997,-7.93395 -25.02483,-46.14158 -14.14079,-9.97359 8.32469,17.15769 10.49723,55.11962 -6.0388,23.87127 8.37278,17.09937 9.15681,33.34665 -4.12664,7.75161 1.74668,11.03672 13.04595,46.72182 2.54954,24.52502 1.94723,20.75425 -9.02132,39.53202 20.2477,33.63241 4.79253,1.99534 11.39713,14.5306 14.671,13.1699 z m 40.8157,-56.12711 c -0.002,-1.44402 -1.37768,1.37412 0,0 z m -22.4595,-27.9568 c 5.01497,-16.0401 38.80608,-42.19215 14.60478,-31.33903 0.3464,-10.97225 55.61934,-43.88544 22.67765,-27.50348 -17.32818,17.31328 -37.68219,9.73537 -18.53713,-9.35582 14.17556,-14.33967 18.47444,-15.1353 -1.97862,-17.37869 -12.3444,-13.41402 15.45611,-80.10657 -4.24978,-36.39471 -10.37193,22.12131 1.36808,-69.83264 -6.68112,-19.63693 1.60532,24.03168 -12.894,27.82215 -14.09988,2.44436 1.50897,26.23518 5.20263,71.20414 -22.8417,41.21182 -14.929,-15.34995 17.92433,28.57845 -6.52853,11.85149 -22.64072,-23.66272 37.3916,61.12233 1.59453,31.53664 -6.88482,-7.4574 14.96643,43.06857 -1.3899,26.91213 1.20792,29.57361 13.39273,5.91882 12.7575,0.71719 1.17125,18.43361 8.97751,35.65057 14.1337,6.50015 14.40205,-43.26382 -5.07631,23.66456 10.5385,20.43488 z M 258.84631,634.88549 c 10.36543,-8.32059 5.73412,-35.93547 8.7075,-8.07733 11.58026,-14.84679 79.70502,6.17175 41.12027,-9.62361 13.76498,-1.35658 55.70704,26.48283 26.55842,-0.65209 -23.0566,-29.62464 37.01742,34.27657 9.40921,-0.6961 -4.81517,-12.10194 -38.55699,-51.9902 -22.55255,-39.85892 16.69783,10.97379 -23.66354,-26.73133 -32.91276,-31.40213 -23.24145,-18.38708 -50.91966,1.18129 -74.00259,-0.85855 -5.04952,4.24993 -5.26893,-21.32392 -11.75353,3.77486 4.21583,-15.19678 1.20103,-35.32824 -10.47664,-13.13875 -27.34386,-8.66596 -56.78083,19.98465 -27.49531,41.54612 1.65709,-0.36992 16.23463,6.57052 16.4226,3.4728 19.15088,-0.42035 30.61091,-21.99659 28.32968,-25.18581 34.11451,-0.51175 52.45866,42.85074 46.59444,71.99955 -4.27421,-8.98262 -25.93137,-19.55973 -21.52479,-30.16 -15.30768,6.96647 -19.52457,16.89867 2.05975,24.84056 6.84253,4.42181 11.08341,17.74828 21.5163,14.0194 z M 169.3281,564.52386 c -2.95978,-6.28414 7.97372,2.13956 0,0 z m 9.50435,-0.31391 c -2.7451,-7.41712 15.08327,3.71226 0,0 z m -10.63025,-7.6569 c -5.79861,-4.80567 4.98165,-3.85548 0,0 z m 87.65097,61.92197 c 2.96909,-30.37344 -39.17647,-18.89821 0,0 z m -2.09037,-17.0573 c 2.46476,-30.4118 -66.92481,-18.38751 -36.87655,-5.39321 11.52536,-9.96042 37.46047,2.26017 28.0881,1.60416 0.0706,-5.28994 8.49448,8.88618 8.78845,3.78905 z m -6.83071,-17.50718 c -4.14598,-20.40898 -52.7211,-39.05594 -17.70582,-13.6564 0.87793,5.34324 19.09342,19.95351 17.70582,13.6564 z m -44.97618,0.73903 c 8.40823,-20.68455 -18.55458,2.03677 0,0 z m 30.05526,-5.87031 c -6.73233,-14.54152 -32.06863,-27.3906 -6.25061,-5.49151 1.7435,1.91913 2.76755,6.11513 6.25061,5.49151 z m 67.57886,-35.63877 c 10.92039,-12.77848 -14.49957,-25.58848 14.37892,-23.02993 35.34699,1.56073 -33.27014,-4.13029 -3.32608,-22.8151 7.28174,-16.62821 -20.38362,29.4538 -8.40582,-1.7854 6.26654,-16.14635 -4.63511,-69.19212 -0.82276,-23.86271 -0.0993,17.89898 -5.81469,49.7152 -12.23779,16.19232 -21.23591,-41.27495 15.32384,27.10534 -5.31755,14.84088 -5.889,15.79341 0.73635,-22.00537 -8.61147,7.56273 -23.48423,30.30009 18.29385,-29.92669 -9.65796,-10.78635 11.21307,18.14142 -45.52794,45.63915 -0.47157,34.0671 11.8933,-3.78058 32.53223,18.5815 34.47208,9.61646 z m -73.98722,-0.82247 c 21.12631,-0.77395 60.75588,-58.20863 19.3536,-33.66464 -14.08154,4.90979 -4.51616,27.86005 -28.14037,30.00826 -1.01811,5.32127 5.64796,5.20919 8.78677,3.65638 z m -71.25929,-1.19482 c 14.85011,-14.77815 62.40038,-0.72024 38.57821,-37.74041 -27.0217,-33.36158 -65.38341,13.86954 -38.57821,37.74041 z m 24.93355,-22.53211 c -37.7823,-5.24907 -3.94778,-40.02062 11.82938,-13.02851 4.40743,8.20006 -3.69161,15.3294 -11.82938,13.02851 z m 8.50433,-2.77964 c 14.87193,-27.00151 -51.90619,-19.03725 -12.7107,-0.004 l 6.82691,0.80956 5.88379,-0.80556 0,3e-5 z m 26.94259,22.39789 c -2.27184,-1.69387 -0.53465,2.87819 0,0 z m 100.69243,-1.84058 c 23.16014,-4.41094 28.13468,-20.55304 0.31195,-14.25315 -22.59813,-2.88295 -11.20215,5.67931 -9.32056,10.87082 -8.60377,4.97014 7.29088,4.10649 9.00861,3.38233 z m 240.08083,-27.63425 c -1.13143,-1.60713 -1.13138,1.60715 0,0 z M 211.29037,934.22032 c -29.00365,-3.36975 -35.13556,-51.15506 -10.75212,-62.83808 -26.07462,22.85838 8.65329,75.43743 33.64479,41.46274 22.86886,-30.5962 -42.01357,-46.96671 -23.83581,-10.4271 16.58882,10.86066 9.55169,-7.51176 3.04875,-8.8983 28.47257,-25.15053 21.37296,43.01256 -7.78932,19.55597 -22.51694,-15.58543 2.95377,-54.65468 26.1406,-41.53237 32.2635,13.6009 12.7377,69.94832 -20.45689,62.67714 z m 11.85986,-4.70594 c 31.34047,-6.60069 28.99523,-64.80348 -7.3273,-56.5801 -36.77678,12.66154 2.01497,67.49544 14.62377,26.7039 -0.26039,-16.2265 -24.67656,-6.27943 -3.46521,-2.6898 -6.54922,39.86229 -47.40575,-25.04573 0.93817,-20.2417 43.43031,30.37177 -25.25391,80.76754 -38.71696,23.8551 -7.05962,-7.05931 1.77333,38.39051 33.94753,28.9526 z M 601.36115,828.09557 c -42.61474,-17.5732 23.54372,4.41929 32.0655,-17.41856 27.48684,-28.52741 -15.44122,-67.1323 -42.78121,-40.06214 -33.06515,32.57637 43.71605,47.68144 25.70131,7.10726 -23.17674,-5.11653 5.82224,29.34302 -18,13.72016 -15.30677,-42.49204 59.47543,-21.95116 27.83045,19.50954 -20.71696,20.67228 -60.97799,-5.34351 -52.53634,-34.00423 9.02839,-39.92607 78.80183,-32.8862 78.17383,8.80254 4.1313,27.67605 -24.97702,47.87309 -50.45354,42.34543 z m 13.737,-2.43173 c 35.08937,-0.32083 48.76693,-54.10329 15.2314,-68.09761 -30.68905,-21.26676 -76.76304,23.16755 -43.3417,49.69555 31.11369,29.08943 65.84947,-39.13455 19.33281,-34.91387 -18.73085,8.04664 3.29745,32.84652 -1.90968,6.18004 37.32832,-16.62594 4.27601,57.61005 -19.98378,20.68346 -18.16395,-32.76784 35.22905,-53.6264 54.56428,-29.75183 15.11911,22.38913 -3.59677,56.84283 -30.94903,56.27677 l 7.0513,-0.0725 0.004,-10e-6 z M 98.630902,817.3766 c -36.422156,-3.78575 -69.965384,-37.19821 -65.454617,-74.4984 -1.66391,-48.84003 60.448528,-80.32413 103.531695,-67.1427 20.03414,2.09557 35.17484,24.34851 4.9038,11.65812 -36.26907,-12.55122 -81.676486,8.6373 -87.445726,48.41395 -11.225454,34.52755 20.092906,67.19742 54.954286,61.81504 32.99568,3.32128 69.22169,-32.66169 50.08512,-65.05764 -16.61165,-31.02424 -75.426017,-11.09658 -63.744428,25.2846 7.670928,34.25548 42.368428,-6.51639 17.544658,-20.42698 52.54022,-0.0132 22.82872,61.15491 -14.92744,48.15992 -41.513551,-4.67915 -36.108043,-75.01262 2.22213,-84.51298 38.87474,-16.61229 95.62814,14.53859 85.71142,57.59381 1.60594,45.24049 -51.44254,63.55301 -87.380898,58.71326 z m 23.042718,-3.1597 c 42.60552,-0.19532 73.42582,-53.16188 47.88652,-88.73571 -21.26903,-34.77034 -89.683929,-31.16964 -93.991122,14.51308 -11.63893,39.21176 56.738162,59.04452 63.141812,18.43576 3.0536,-16.94232 -31.16089,-25.21317 -7.21144,-6.46592 -19.40381,50.17076 -61.018945,8.80578 -34.486113,-21.23312 18.649783,-29.10934 73.378523,-16.80707 69.863203,20.91791 -0.34015,41.98258 -53.97357,59.42046 -87.572168,43.9889 -43.657774,-15.91269 -34.454154,-82.83365 0.498962,-103.39868 18.952641,-18.00596 62.080396,-6.75397 71.767256,-5.98293 -41.83182,-22.22268 -106.693845,-1.18391 -112.61495,49.84564 -6.021371,35.73055 18.907433,72.64944 55.574302,77.24709 8.806988,2.29534 18.184198,2.03911 27.143738,0.86798 z M 47.615642,533.1848 c -23.847725,-3.48383 -6.725502,-8.58199 4.48668,-0.19896 z M 464.39845,487.27513 c 17.23367,-10.97623 38.01336,-8.13103 6.0492,-0.54963 z M 103.52199,419.6192 c -17.312998,-8.59901 -24.96515,-30.27665 -4.025758,-5.42763 -6.683889,-1.71068 8.614508,5.97563 4.025758,5.42763 z m 288.91826,-6.64279 c 6.22533,-15.01731 33.76317,-45.80184 13.3729,-15.7905 -4.35509,5.35221 -8.45993,10.91611 -13.3729,15.7905 z M 231.14613,382.54189 c -3.88097,-17.78438 4.64214,-34.64118 1.63855,-5.57166 2.48109,-9.22822 -2.26957,13.52399 -1.63855,5.57166 z m 328.12245,-10.00473 c -41.88951,-12.03003 -18.45045,-86.51352 22.32454,-78.09971 34.10958,4.50369 43.49136,58.901 16.06343,74.99834 19.94521,-22.83998 3.47679,-72.58608 -33.67369,-60.50046 -31.04356,13.89184 -5.32724,76.93513 20.84109,43.20568 15.97736,-22.57556 -36.17138,-32.93693 -14.87765,-10.73045 26.69795,-10.39883 -17.08623,28.43759 -14.47719,-4.31598 4.13913,-44.48782 59.33452,-14.12062 37.71033,24.15994 -6.83399,10.44427 -21.76491,14.06295 -33.91086,11.28264 z m 14.38367,-4.33744 c 34.78772,-3.48045 21.20385,-68.43775 -11.4884,-43.68274 -12.62555,14.70694 9.81509,26.95323 11.1023,19.06906 -32.89202,-7.22314 13.37512,-32.79265 15.4616,-3.16744 6.64044,36.16446 -49.62354,27.18829 -41.44335,-4.48703 -3.29945,-45.54575 64.82244,-36.1266 59.92681,4.30047 2.32173,17.05326 3.63231,-42.51831 -20.32996,-38.19985 -37.24846,-17.1743 -65.52496,47.34948 -29.89421,64.2632 5.28375,1.978 11.02578,3.5018 16.66521,1.90433 z m 32.3238,-17.71031 c -1.23364,0.0628 0.071,3.33997 0,0 z m -207.35,14.20765 c -15.37932,4.95619 -61.56503,-26.23679 -22.5962,-12.83995 34.91435,12.9002 80.14554,-4.80085 88.3782,-43.05833 12.49118,-30.88168 -9.92482,-67.83724 -44.41606,-66.23961 -31.86514,-6.11274 -69.52499,19.28037 -60.33861,55.25659 6.37439,36.49566 62.19689,31.01293 61.96594,-6.01654 6.11826,-43.5589 -39.85622,-11.61912 -14.76207,8.57776 -35.61046,13.51296 -36.69636,-51.84823 2.651,-44.17998 37.08776,-3.53007 49.8345,48.89473 24.6854,70.58659 -33.37692,31.79436 -99.35192,5.3182 -95.9839,-42.67113 -2.03364,-42.06985 43.37694,-67.57879 81.2287,-61.38863 38.62364,2.83559 71.34584,38.93677 64.85303,78.31143 -2.60309,41.66619 -46.74001,68.02583 -85.66543,63.6618 z m 23.2677,-3.66148 c 40.02925,-5.4856 70.86394,-47.32876 57.68521,-87.13879 -14.58935,-59.8841 -114.97792,-67.68762 -135.95871,-8.58179 -13.96706,34.74071 16.11994,74.85547 53.0098,72.49313 31.21764,2.5094 58.84186,-30.55081 44.5345,-60.36996 -10.20579,-34.67405 -81.46201,-15.37124 -53.8494,17.48958 28.49015,23.02433 -13.66515,-39.04609 29.9204,-28.60334 30.6727,25.75402 -8.10072,72.2615 -41.50065,57.04505 -33.66481,-11.35375 -28.32598,-63.19882 2.06215,-75.95055 31.91928,-17.69166 89.54442,-7.87132 91.5634,35.83595 6.11984,42.42346 -34.08832,82.58175 -76.66253,74.52349 -15.94249,-2.81611 -40.5751,-9.13188 -10.63908,1.09101 12.80548,4.0136 26.65923,4.2435 39.83491,2.16622 z"
       id="path3118"
       style="fill:#000000" />
  </g>
</svg>
