<?xml version="1.0" encoding="UTF-8" standalone="no"?>
<!-- Created with Inkscape (http://www.inkscape.org/) -->

<svg
   xmlns:dc="http://purl.org/dc/elements/1.1/"
   xmlns:cc="http://creativecommons.org/ns#"
   xmlns:rdf="http://www.w3.org/1999/02/22-rdf-syntax-ns#"
   xmlns:svg="http://www.w3.org/2000/svg"
   xmlns="http://www.w3.org/2000/svg"
   version="1.0"
   width="100%"
   height="100%"
   viewBox="0 0 300 300"
   id="svg2">
  <defs
     id="defs15" />
  <g
     transform="translate(0,-2889)"
     id="layer3">
    <g
       transform="matrix(0.14481,0,0,0.14481,481.77,2552.8)"
       id="g5183">
      <path
         d="m 983.8428,2010.9083 a 243.93753,243.93753 0 1 1 -487.87506,0 243.93753,243.93753 0 1 1 487.87506,0 z"
         transform="matrix(3.9555,0,0,3.9555,-5217.8,-4596.5)"
         id="path2741"
         style="fill:none;stroke:#000000;stroke-width:1.26409996" />
      <rect
         width="1598.3"
         height="1577.6"
         x="-3084"
         y="2741.3"
         id="rect3712"
         style="fill:none;stroke:#000000;stroke-width:5" />
      <path
         d="m -2450.4,3469.7 c 0,0 -40.942,60.072 -52.311,85.35 -11.368,25.278 -12.014,47.373 -19.272,63.324 -7.2584,15.952 -15,15.946 -20.649,33.038 -5.6494,17.092 2.0118,50.68 -5.5064,68.83 -7.5182,18.15 -24.573,25.323 -31.662,37.169 -7.0887,11.845 -4.2392,19.937 -12.389,31.662 -8.1502,11.724 -28.58,23.4 -38.545,34.415 -9.9647,11.015 -12.423,17.411 -22.026,30.285 -9.6024,12.875 -24.339,24.181 -35.791,46.805 -11.453,22.624 -18.719,67.542 -26.156,89.479 -7.4372,21.937 -12.365,26.084 -16.519,42.675 -4.1542,16.591 -3.0912,40.812 -6.8833,56.441 -3.7921,15.629 -7.1059,28.74 -13.766,37.168 -6.6601,8.4282 -13.939,10.131 -20.649,13.766 -6.7096,3.6348 -13.47,6.5126 -19.272,8.2597 -5.8026,1.747 -11.644,-0.6874 -15.142,2.7535 -3.4986,3.4376 -6.3936,3.9073 -2.7533,13.766 3.6404,9.8586 24.731,21.291 38.545,30.285 13.814,8.9945 31.617,24.023 44.052,23.403 12.434,-0.6219 16.385,-4.566 20.649,-13.767 4.2638,-9.2008 -7.6568,-23.772 -4.1297,-35.792 3.5271,-12.02 20.002,-16.294 24.779,-30.285 4.7765,-13.992 -7.594,-28.313 -1.3768,-49.557 6.2172,-21.244 37.498,-53.925 46.805,-68.83 9.3068,-14.905 3.0611,-6.8907 11.013,-19.272 7.9518,-12.381 27.722,-31.772 38.545,-53.688 10.823,-21.916 8.1994,-51.443 23.403,-77.089 15.203,-25.646 51.894,-50.872 68.83,-70.208 16.936,-19.335 23.93,-24.777 34.415,-44.051 10.485,-19.274 10.529,-53.61 24.779,-71.583 14.25,-17.974 37.489,-19.684 52.311,-33.039 14.821,-13.355 26.254,-30.828 35.792,-45.428 9.5375,-14.601 10.638,-42.258 22.026,-41.298 11.388,0.9598 1.9423,15.106 6.8829,20.649 4.9406,5.543 14.8,9.7154 20.649,9.6361 5.8494,-0.082 6.9995,-5.8213 11.013,-5.5062 4.0134,0.3109 5.3533,5.5103 9.6361,6.8825 4.2828,1.3723 11.451,0.7119 15.142,0 3.6915,-0.7119 -1.6913,-7.2802 6.8832,-2.7527 8.5745,4.5276 2.1324,29.272 11.013,49.558 8.8806,20.286 32.128,48.983 46.804,67.454 14.677,18.471 30.4,28.722 39.921,44.051 9.5209,15.33 11.702,30.283 17.896,45.428 6.1943,15.145 13.843,34.017 19.272,45.428 5.4294,11.412 4.9733,5.3556 12.389,23.402 7.416,18.046 16.881,64.117 26.155,86.726 9.274,22.609 16.367,37.302 26.155,49.558 9.7883,12.256 19.528,11.796 28.909,24.778 9.3815,12.983 9.2368,34.988 22.026,53.687 12.7892,18.699 44.203,35.077 56.441,53.688 12.238,18.611 14.857,38.242 19.272,52.311 4.415,14.069 3.1264,23.45 8.2597,31.662 5.1332,8.2114 9.0041,14.82 19.273,16.519 10.268,1.6996 28.488,-6.151 34.415,-13.766 5.9272,-7.6149 -3.8293,-14.886 2.7532,-20.649 6.5826,-5.7631 21.928,1.5007 31.662,0 9.7335,-1.5007 12.603,-1.8149 26.156,-8.2597 13.553,-6.4448 47.944,-21.811 52.311,-34.414 4.3672,-12.603 0.8393,-11.288 -5.5065,-16.519 -6.3458,-5.2312 -21.309,-5.1281 -31.662,-4.1306 -10.353,0.9974 -15.995,8.4994 -28.909,9.6368 -12.913,1.1374 -31.987,1.0769 -46.805,-6.8833 -14.818,-7.9603 -23.894,-19.213 -35.792,-39.921 -11.897,-20.708 -19.538,-59.18 -27.532,-85.35 -7.9934,-26.17 -6.7715,-43.554 -20.649,-71.583 -13.8775,-28.029 -57.423,-68.275 -67.453,-90.856 -10.031,-22.581 -4.588,-22.714 -6.8832,-34.415 -2.2952,-11.701 -2.1756,-23.379 -6.8829,-35.792 -4.7072,-12.412 -17.879,-22.037 -22.026,-37.169 -4.1467,-15.132 3.1423,-30.421 0,-50.935 -3.1422,-20.513 -15.959,-52.111 -22.026,-70.206 -6.0672,-18.095 -6.863,-22.583 -13.766,-38.545 -6.9031,-15.962 -20.53,-41.353 -28.909,-56.442 -8.378,-15.088 -15.651,-18.652 -20.649,-34.414 -4.9983,-15.762 0.049,-39.561 -4.3507,-58.923 -4.3993,-19.361 -21.89,-55.914 -21.89,-55.914"
         id="path4703"
         style="fill:none;stroke:#000000;stroke-width:5" />
      <path
         d="m -2922.3,-94.875 c 0,0 -21.429,-2.4514 -28.477,-5.0625 -7.0475,-2.6111 -8.8287,-6.9889 -13.922,-8.2266 -5.0931,-1.2377 -12.843,-13.25 -24.68,-5.6953 -11.837,7.5543 7.3918,18.071 15.82,21.516 8.4285,3.4448 27.211,15.82 27.211,15.82 m 549.9,160.58 c 0,0 -31.204,-18.988 -54.417,-24.461 -23.214,-5.4726 -74.642,0.221 -83.37,-3.3844 -8.7278,-3.6061 -0.781,-1.3534 -18.917,-8.5256 0,0 -31.542,-15.186 -48.748,-19.279 -17.207,-4.0922 -39.617,1.2389 -53.478,-4.845 -13.861,-6.0839 -11.566,-14.246 -27.494,-24.949 -15.929,-10.703 -43.935,-24.898 -70.374,-33.677 -26.439,-8.7793 -62.012,-9.1696 -87.445,-17.26 -25.433,-8.0903 -53.523,-17.067 -64.797,-29.02 -11.274,-11.953 -3.3736,-17.092 -9.7864,-25.794 -6.4127,-8.7016 -18.895,-16.491 -29.368,-22.943 -10.473,-6.4522 -23.321,-14.253 -33.039,-15.602 -9.7178,-1.3494 -13.545,3.3803 -22.025,3.6716 -8.4804,0.2946 -22.406,-7.0831 -28.45,-2.7535 -6.0442,4.3295 -7.0169,10.297 -3.6707,15.601 3.3463,5.3041 19.938,-0.9697 21.108,4.5889 1.1694,5.5585 -6.2716,5.9333 -10.095,7.3416 -3.8238,1.4082 -9.1355,-3.5718 -11.93,0.9181 -2.7949,4.4899 -0.5512,9.7064 7.3417,18.355 7.893,8.6484 51.171,9.2809 44.969,22.943 -6.2017,13.662 -28.587,-13.119 -36.709,-14.683 -8.1227,-1.5645 -7.772,-3.7583 -10.095,0 -2.323,3.7584 0,7.0192 7.3418,14.683 7.3377,7.664 28.761,14.93 41.298,22.944 12.537,8.0143 23.197,20.856 33.956,24.779 10.759,3.9228 17.476,-1.4443 26.614,1.8354 9.1388,3.2796 14.769,13.272 25.697,18.355 10.928,5.0823 22.608,2.364 39.463,10.095 16.854,7.7311 35.815,29.116 57.817,40.38 22.002,11.264 52.927,20.211 73.419,25.696 20.492,5.4858 34.304,4.03 48.64,9.177 14.336,5.147 25.65,17.35 36.709,20.191 11.059,2.841 14.926,-3.643 26.614,0 11.688,3.6429 24.711,19.064 38.545,26.614 13.834,7.5494 32.986,15.132 44.051,18.355 11.064,3.2232 6.9029,-4.4826 21.108,3.6708 14.205,8.1533 32.582,39.001 49.558,58.735 16.976,19.734 31.2,50.481 52.311,59.652 21.111,9.1713 41.337,2.247 58.735,-1.8354 17.398,-4.0823 35.77,-7.907 44.052,-20.189 8.2813,-12.282 1.8353,-40.38 1.8353,-40.38"
         transform="translate(0,2889)"
         id="path5153"
         style="fill:none;stroke:#000000;stroke-width:5" />
      <path
         d="m -1650.4,-59.438 c 1.7257,1.3806 24.913,-21.727 28.476,-34.805 3.5638,-13.078 22.976,-8.5912 27.211,-15.188 4.2352,-6.5963 3.7969,-15.82 1.2656,-15.82 -2.5313,0 -14.964,2.5218 -22.148,4.4297 -7.1842,1.9079 -15.425,4.6334 -20.883,6.9609 -5.4577,2.3275 -12.023,6.3281 -12.023,6.3281 m -642.27,308.29 c 0,0 5.3839,32.572 11.012,41.298 5.6286,8.7269 4.73,7.8162 15.143,12.39 10.413,4.5725 33.016,7.5453 48.181,6.8833 15.165,-0.6628 29.398,-0.8706 41.298,-9.6369 24.451,-44.144 52.744,-75.654 97.739,-101.87 17.949,-9.0518 31.378,-8.0061 51.393,-15.601 40.441,-13.625 75.714,-39.674 115.63,-54.147 17.606,-5.372 33.488,-1.2708 56.9,-8.2597 72.322,-16.944 119.28,-82.63 189.97,-102.79 14.862,-3.0064 19.522,4.9244 29.368,0.9172 9.8459,-4.0071 12.088,-15.984 23.861,-24.778 11.773,-8.7948 40.32,-15.944 47.722,-24.779 7.4021,-8.8349 5.9778,-11.15 4.5889,-14.684 -1.3889,-3.5341 0.5581,-3.6021 -6.4243,-3.6708 -6.9825,-0.082 -24.179,19.581 -30.285,16.519 -6.1064,-3.062 -3.7442,-0.4091 -0.9175,-6.4235 2.8268,-6.0119 18.962,-11.932 28.45,-17.438 9.4878,-5.5046 24.486,-8.4627 28.45,-15.601 3.9637,-7.1387 4.5801,-12.986 -0.9179,-16.519 -5.498,-3.5325 -17.231,13.479 -21.108,8.2597 -3.8768,-5.2182 11.345,-7.9521 10.095,-12.848 -1.2499,-4.8966 -1.1852,-3.9916 -12.848,-5.507 -11.663,-1.5155 -42.722,3.2264 -55.982,8.2597 -13.26,5.0332 -14.794,11.217 -23.861,15.601 -9.0674,4.3851 -21.418,2.4884 -30.285,10.095 -8.8669,7.6067 -1.6565,20.144 -17.437,33.957 -47.526,34.242 -108.28,25.853 -161.52,40.38 -34.809,11.347 -57.202,42.583 -86.267,61.488 -15.618,7.6836 -56.968,8.6656 -76.172,15.601 -19.203,6.9357 -27.832,20.188 -39.462,21.108 -11.631,0.9206 -10.124,-6.3948 -23.862,-8.2597 -13.738,-1.8649 -44.654,-0.9206 -57.817,3.6708 -13.163,4.5914 -13.971,11.047 -21.108,14.684 -7.1367,3.6365 -13.622,3.4507 -21.108,7.3416 -7.4857,3.8918 -19.126,10.591 -22.944,16.519 -3.8178,5.9293 -2.7533,13.766 -2.7533,13.766"
         transform="translate(0,2889)"
         id="path5164"
         style="fill:none;stroke:#000000;stroke-width:5" />
      <path
         d="m -2198.4,483.52 c -7.1719,25.108 -14.344,47.45 -21.516,65.812 m -164.53,-55.688 c 5.7554,22.781 7.3818,45.562 29.109,68.344 m 58.038,-74.049 c 6.4,-8.2306 1.7249,-14.246 -3.5798,-20.136 5.8171,1.731 11.634,0.65504 17.451,-3.5797 -10.621,10.592 -6.2613,20.114 -0.4475,29.533 m -688.65,-383.03 c -0.01,0 -23.26,-1.9568 -26.4,-1.7899 -3.1406,0.16696 -20.167,-5.7678 -24.163,0.44746 -3.9963,6.2152 -5.3121,11.501 0,15.661 5.3121,4.1601 12.43,-0.74971 25.953,3.1323 13.522,3.882 17.899,15.977 26.848,12.529 m -82.651,-49.613 c -4.794,7.84 -1.1165,6.6076 3.6711,10.095 4.7877,3.4875 21.976,-4.0545 24.779,0.9173 2.8029,4.9719 2.0807,4.1135 -4.589,8.2597 -6.6696,4.1463 -28.284,0 -37.627,1.8354 -9.3435,1.8232 -16.366,1.5188 -18.355,6.4243 -1.9891,4.9056 2.1485,8.7556 5.5064,11.013 3.358,2.2576 5.5055,0.671 11.931,0.9181 6.4253,0.2455 21.516,-2.3878 26.614,0 5.0987,2.3877 5.1633,2.2371 4.5886,5.5062 -0.5747,3.269 -5.7704,4.7476 -11.013,6.4235 -5.2425,1.6758 -14.523,1.5784 -20.19,1.8354 -5.6674,0.2536 -10.399,-2.9205 -13.766,0 -3.3675,2.9204 -4.3551,9.9437 -1.8354,12.849 2.5197,2.9049 2.5988,0.098 10.095,0 7.4962,-0.098 27.37,-1.8215 34.874,-0.9173 7.504,0.9042 10.915,-3.3721 10.095,2.7527 -0.8201,6.1248 -20.94,-2.1325 -26.614,0 -5.6743,2.1324 -6.7231,3.7027 -7.3418,6.4243 -0.6186,2.7216 -5.5786,0.8264 2.7532,6.4243 8.3319,5.5978 39.253,-1.2765 53.229,0.9181 13.976,2.1946 3.6709,7.3416 30.285,9.177 26.6141,1.8354 34.755,0.9091 44.051,-0.9173 9.2962,-1.8264 3.0688,-2.9442 11.931,-4.5897 8.862,-1.6456 25.334,-2.2912 41.298,0 15.964,2.2912 29.189,11.281 53.229,15.602 24.04,4.3213 69.866,5.9595 90.856,6.4243 20.99,0.4664 27.755,1.3404 34.874,-0.9181 7.1193,-2.2584 -7.9162,-0.4337 8.2597,-5.5062 16.176,-5.075 72.505,-4.8786 91.774,-1.8354 19.268,3.0432 11.8,5.525 23.861,8.2597 12.061,2.7347 33.154,4.7943 48.64,5.5062 15.486,0.7119 30.776,-8.6263 44.052,-0.9173 13.276,7.709 17.201,32.166 22.944,42.216 5.7429,10.05 4.3093,0.9115 11.013,18.354 6.7037,17.4425 9.9101,66.941 17.437,89.021 7.5267,22.08 20.965,29.933 22.026,44.051 1.0611,14.119 -7.8374,20.946 -11.013,33.957 -3.1755,13.011 -8.3187,35.013 -7.3417,44.051 0.9769,9.0379 3.7883,-1.4475 3.6707,9.177 -0.1179,10.624 -16.769,34.688 -21.108,49.558 -4.339,14.87 -4.9466,28.593 -6.4243,38.544 -1.4778,9.9511 -1.0152,-23.607 -2.7528,21.108 -1.7376,44.715 5.6738,193.16 12.848,246.87 7.1743,53.714 15.463,56.132 16.519,76.173 1.0559,20.04 -3.0594,28.144 -4.589,42.216 -1.5296,14.072 -3.2034,27.531 -4.5885,42.21604 -1.3852,14.685 -0.8353,27.599 -3.6712,45.887 -2.8358,18.288 -12.183,41.467 -14.684,63.324 -2.5009,21.857 -4.8115,38.576 0,66.994 4.8115,28.418 23.155,74.67 34.874,100.03 11.719,25.363 26.14,35.23 31.203,53.229 5.0627,17.999 0.696,25.281 -1.7669,36.156 -2.4629,10.875 -6.7902,7.47 -7.3418,14.684 -0.5515,7.2139 6.2857,19.42 8.2597,25.696 1.9739,6.2762 -0.7848,8.794 3.6707,11.931 4.4555,3.1373 14.856,-2.2306 20.19,-0.9181 5.3343,1.3125 5.1768,4.6036 11.013,6.4243 5.836,1.8207 17.221,2.3485 23.861,1.8354 6.64,-0.5155 10.46,-4.5537 15.601,-3.6708 5.1416,0.8829 7.7641,6.7655 12.848,8.2589 5.0842,1.4934 10.509,6.3261 16.519,0 6.0102,-6.3261 1.8212,-27.565 -1.8354,-35.791 -3.6565,-8.2253 -8.0573,-7.5265 -12.849,-12.849 -4.7912,-5.3221 -11.963,-10.639 -15.601,-19.273 -3.6382,-8.6337 3.6414,-4.8231 -0.986,-16.884 -4.6273,-12.061 -17.902,-11.626 -26.614,-37.628 -8.7122,-26.002 -2.5738,-86.574 -3.6712,-118.39 -1.0973,-31.814 1.7606,-55.314 -2.7531,-72.501 -4.5138,-17.187 -13.139,-17.785 -15.602,-30.285 -2.4622,-12.5 0.1555,-25.655 3.6707,-42.216 3.5151,-16.561 14.417,-41.437 19.272,-55.98204 4.8559,-14.545 6.8313,-14.091 10.095,-31.203 3.2638,-17.113 4.9915,-52.403 4.589,-71.583 -0.4026,-19.18 -6.65,-30.04 -4.589,-43.134 2.0611,-13.094 10.587,-22.768 14.684,-33.038 4.0972,-10.27 -12.517,-32.244 10.095,-28.45 22.612,3.7936 0.8869,67.605 0.9179,107.37 0.033,39.77 3.2222,98.121 -0.9179,131.24004 -4.1401,33.116 -13.054,41.96 -16.519,66.995 -3.4652,25.035 -6.3664,60.306 -2.7532,82.596 3.6132,22.291 11.629,24.564 18.355,49.557 1.3912,49.869 19.87,83.71 31.248,130.62 2.1577,14.4 -3.7059,29.104 -3.6481,40.448 0.057,11.345 -3.8036,17.608 1.8358,24.779 5.6393,7.1714 17.759,9.411 28.45,9.1778 10.69,-0.2291 20.629,-9.8652 32.121,-11.93 11.492,-2.0653 25.326,-2.4704 35.792,0 10.466,2.4704 17.017,10.799 25.696,12.848 8.6795,2.049 21.268,-8.772 37.308,-9.8443 11.854,-0.7925 28.113,16.022 59.054,6.1735 15.319,-4.8758 4.7293,-18.855 0,-24.779 -4.7292,-5.9244 -10.529,-3.5039 -20.19,-4.5881 -9.6614,-1.0842 -26.853,1.459 -37.627,0 -10.774,-1.459 -14.932,-1.6079 -26.614,-7.3424 -11.682,-5.7345 -27.187,-8.7599 -37.696,-15.966 -10.508,-7.2058 -12.898,-1.5179 -22.026,-13.767 -9.1281,-12.249 -13.388,-29.977 -17.437,-63.324 -4.0495,-33.347 5.5676,-102.27 3.6711,-135.82 -1.8965,-33.559 -9.4393,-46.902 -9.1775,-65.16 0.2618,-18.257 3.7709,-29.478 7.3422,-43.133 3.5713,-13.655 11.03,-23.557 13.766,-38.545 2.7366,-14.98804 0.8142,-39.15604 0.9175,-50.47604 0.1031,-11.319 -2.4097,-4.7305 0,-17.437 2.4097,-12.7065 14.806,-32.612 22.026,-55.983 7.2198,-23.371 15.465,-51.864 19.272,-84.432 3.8073,-32.568 2.4423,-82.879 0.9179,-110.13 -1.5245,-27.249 -4.9371,-23.064 -6.4244,-53.229 -1.4873,-30.165 5.5457,-102.67 2.7533,-127.57 -2.7924,-24.894 -5.0021,-11.916 -5.5064,-22.025 -0.5041,-10.109 6.4058,-27.46 5.5064,-37.628 -0.8994,-10.168 -5.3829,-11.446 -7.3418,-22.026 -1.9588,-10.58 -4.3812,-30.668 -1.8358,-41.299 2.5455,-10.63 9.4241,-11.579 11.931,-21.108 2.5067,-9.5288 -2.6713,-23.558 0,-34.874 2.6713,-11.316 11.05,-18.339 15.602,-31.203 4.5516,-12.863 5.4428,-33.492 10.095,-45.887 4.6521,-12.394 9.0014,-19.475 15.602,-28.451 6.6004,-8.9757 10.844,-19.242 23.861,-24.778 13.017,-5.5365 36.709,-0.1964 50.475,0 13.767,0.1964 21.608,2.1725 32.121,0.9173 10.513,-1.2552 11.88,-6.0103 30.285,-8.2597 18.406,-2.2495 61.338,-0.7855 79.843,1.8362 18.505,2.6242 9.7622,5.6756 31.203,8.2597 21.4408,2.5841 73.671,2.2241 97.28,-1.8362 23.609,-4.0603 25.518,-10.627 44.052,-14.683 18.533,-4.0562 47.586,-7.5576 66.995,-7.3424 19.408,0.2127 36.977,7.4578 48.64,6.4243 11.663,-1.0335 7.4961,-4.3467 20.19,-6.4243 12.6939,-2.0776 43.603,1.5719 55.982,-0.9173 12.378,-2.4892 15.588,-3.7567 18.355,-7.3416 2.7667,-3.5849 5.7831,-1.8313 0.9179,-7.3424 -4.8652,-5.5111 -31.693,6.0102 -36.709,0 -5.016,-6.0103 -3.9353,-5.0226 1.8354,-10.095 5.7708,-5.0725 27.699,-0.7692 35.792,-1.8354 8.093,-1.0679 11.159,0.761 12.848,-2.7535 1.6894,-3.5154 -6.3586,-4.7076 -4.5886,-9.177 1.7699,-4.4695 14.783,-2.2593 17.437,-6.4243 2.6541,-4.1651 2.5298,-7.5077 -0.9175,-11.012 -3.4473,-3.5047 -14.563,2.5947 -18.355,-1.8363 -3.7917,-4.4309 5.5458,-11.627 0.9178,-16.519 -4.6279,-4.8925 -18.936,2.4622 -23.861,0 -4.925,-2.4622 7.9793,-0.7937 -5.5064,-7.3416 -13.486,-6.5519 -61.312,-3.8303 -80.761,1.8363 -19.449,5.6665 -22.065,16.578 -34.874,21.108 -12.809,4.5291 -23.065,4.4571 -40.38,5.5062 -17.316,1.049 -35.79,-0.3437 -63.324,-0.9173 -27.533,-0.5728 -78.225,-5.9236 -101.87,-2.7535 -23.644,3.17 -27.126,12.05 -39.463,11.93 -12.336,-0.1228 -12.453,-7.4644 -31.203,-10.095 -18.75,-2.6308 -62.454,8.4029 -80.761,2.7535 -18.306,-5.6494 -15.631,-15.567 -27.532,-20.19 -11.901,-4.6232 -22.777,-3.5357 -42.216,-4.5889 -19.438,-1.0531 -56.9,0 -74.337,0 -17.437,0 -20.742,3.7224 -30.285,0 -9.5434,-3.7223 -13.967,-15.323 -22.944,-21.108 -8.9763,-5.7852 -23.152,-5.8351 -30.285,-12.848 -7.1326,-7.0126 -10.349,-17.136 -11.013,-24.779 -0.6636,-7.6435 1.6003,-9.6762 4.5886,-18.355 2.9882,-8.6787 11.623,-18.616 14.684,-33.039 3.0607,-14.423 3.7556,-38.751 0,-52.31 -3.7556,-13.559 -12.463,-20.144 -16.519,-27.533 -4.0563,-7.3891 1.4779,-9.4118 -8.2597,-16.519 -9.7375,-7.1076 -38.946,-8.6108 -53.229,-8.2597 -14.283,0.3518 -24.244,2.6741 -31.203,6.4243 -6.9593,3.7502 -8.0904,5.7198 -11.013,11.013 -2.9224,5.2934 -2.0988,11.727 -4.5885,20.19 -2.4898,8.4635 -9.9286,17.339 -11.013,30.285 -1.0843,12.946 6.3465,32.563 8.2596,44.969 1.9131,12.406 3.6543,18.118 3.6711,29.368 0.016,11.25 3.1509,27.475 -4.589,37.627 -7.7398,10.152 -23.998,9.1762 -35.791,14.684 -11.793,5.5079 -14.809,12.822 -34.874,18.355 -20.065,5.5332 -62.518,-1.1848 -85.35,4.5881 -22.832,5.773 -29.628,19.74 -50.475,23.862 -20.848,4.1216 -53.706,-5.7411 -71.583,-3.6708 -17.878,2.0702 -21.424,10.32 -34.874,10.095 -13.45,-0.2291 -26.015,-11.051 -42.216,-13.767 -16.2,-2.7158 -31.963,-0.2127 -54.146,-0.9172 -22.183,-0.7038 -51.943,-4.2395 -78.926,-3.6708 -26.983,0.5728 -63.9,13.152 -82.596,7.3416 -18.696,-5.8106 -16.605,-17.9 -26.614,-22.026 -10.009,-4.1257 -22.019,0.2701 -30.285,-2.7526 -8.2668,-3.0244 -7.549,-10.168 -18.355,-12.849 -10.806,-2.6806 -39.258,-2.3337 -44.052,5.5062 z m 729.69,-74.783 c 0,0 5.6013,-5.2966 8.5019,-5.817 5.5352,2.2087 6.8761,0.9025 11.634,-0.8949 2.7392,-0.6467 8.2575,1.0297 11.634,0.8949 3.3766,-0.1349 5.4993,-1.6135 8.5019,-1.3424 3.0026,0.2711 8.9493,3.1322 8.9493,3.1322 m -10.739,-71.147 c 0,0 0.3536,-6.6709 5.3696,-4.9222 5.016,1.7488 25.813,1.4247 32.665,0 6.8516,-1.4247 3.1323,4.0272 3.1323,4.0272 m -109.18,5.3696 c 0,0 4.5478,-15.279 11.187,-12.529 6.6388,2.75 29.878,2.2087 36.245,4.4746 6.3665,2.266 1.7694,1.5618 2.6848,6.2645 0.9154,4.7028 0.3387,16.701 -0.4475,21.926 -0.7862,5.225 -0.5668,6.6955 -2.6848,9.3968 -2.118,2.7012 -8.0548,2.8547 -9.3968,5.3696 -1.342,2.5149 -1.7957,4.7662 0.4475,6.2645 2.2432,1.4983 5.6973,-1.4419 8.7256,-0.3356 3.0283,1.1063 3.058,4.2426 5.5933,5.2577 2.5353,1.0151 4.9937,-0.5309 6.712,-1.7899 1.7183,-1.2589 1.2992,-3.9158 3.1322,-4.9221 1.833,-1.0062 4.9465,-1.048 6.712,0 1.7655,1.0481 1.1003,4.5067 2.6848,4.9221 1.5845,0.4155 2.741,-0.1591 3.5798,-2.2373 0.8388,-2.0781 -2.2374,-8.9493 -2.2374,-8.9493"
         transform="translate(0,2889)"
         id="path5173"
         style="fill:none;stroke:#000000;stroke-width:5" />
      <path
         d="m -2395.8,88.641 c 0,0 -18.737,-41.431 -20.25,-54.422 -1.5129,-12.991 5.0285,-10.847 2.5313,-20.25 -2.4972,-9.4035 -21.821,-21.55 -22.781,-30.375 -0.9607,-8.8248 5.1187,-8.3385 6.3281,-13.922 1.2094,-5.5833 9.2575,-12.722 11.391,-25.313 2.1331,-12.591 -5.5089,-33.318 2.5313,-48.094 8.0402,-14.776 15.632,-23.499 31.641,-34.172 16.009,-10.673 39.885,-18.239 69.609,-18.984 29.725,-0.74576 86.05,8.4386 103.78,22.781 17.732,14.343 6.0562,17.864 12.656,27.844 6.6,9.9802 22.993,20.122 27.844,30.375 4.8509,10.253 1.432,14.505 3.7969,26.578 2.3649,12.073 10.022,34.444 11.391,45.563 1.3687,11.119 4.6262,15.326 0,20.25 -4.6262,4.9244 -14.881,-3.5781 -20.25,1.2656 -5.3687,4.8437 -1.3595,14.462 -3.7969,22.781 -2.4374,8.3189 -2.8893,23.146 -11.391,26.578 -8.5013,3.432 -15.073,-11.148 -24.047,-10.125 -8.9741,1.0228 -22.781,16.453 -22.781,16.453"
         transform="translate(0,2889)"
         id="path5180"
         style="fill:none;stroke:#000000;stroke-width:5" />
    </g>
  </g>
  <metadata
     id="metadata13">
    <rdf:RDF>
      <cc:Work>
        <dc:format>image/svg+xml</dc:format>
        <dc:type
           rdf:resource="http://purl.org/dc/dcmitype/StillImage" />
        <cc:license
           rdf:resource="http://creativecommons.org/licenses/publicdomain/" />
        <dc:publisher>
          <cc:Agent
             rdf:about="http://openclipart.org/">
            <dc:title>Openclipart</dc:title>
          </cc:Agent>
        </dc:publisher>
        <dc:title></dc:title>
        <dc:date>2010-03-22T00:46:27</dc:date>
        <dc:description>A simple vectorized version of the vitruvian man.\nThe image i used for refrence was http://en.wikipedia.org/wiki/File:Da_Vinci_Vitruve_Luc_Viatour.jpg</dc:description>
        <dc:source>https://openclipart.org/detail/32923/vitruvian-man-by-yrd</dc:source>
        <dc:creator>
          <cc:Agent>
            <dc:title>YRD</dc:title>
          </cc:Agent>
        </dc:creator>
        <dc:subject>
          <rdf:Bag>
            <rdf:li>da vinci</rdf:li>
            <rdf:li>man</rdf:li>
            <rdf:li>vitruvian</rdf:li>
          </rdf:Bag>
        </dc:subject>
      </cc:Work>
      <cc:License
         rdf:about="http://creativecommons.org/licenses/publicdomain/">
        <cc:permits
           rdf:resource="http://creativecommons.org/ns#Reproduction" />
        <cc:permits
           rdf:resource="http://creativecommons.org/ns#Distribution" />
        <cc:permits
           rdf:resource="http://creativecommons.org/ns#DerivativeWorks" />
      </cc:License>
    </rdf:RDF>
  </metadata>
</svg>
