<?xml version="1.0" encoding="UTF-8" standalone="no"?>
<!-- Created with Inkscape (http://www.inkscape.org/) -->

<svg
   xmlns:dc="http://purl.org/dc/elements/1.1/"
   xmlns:cc="http://creativecommons.org/ns#"
   xmlns:rdf="http://www.w3.org/1999/02/22-rdf-syntax-ns#"
   xmlns:svg="http://www.w3.org/2000/svg"
   xmlns="http://www.w3.org/2000/svg"
   version="1.1"
   width="744.09448"
   height="1052.3622"
   id="svg3124">
  <defs
     id="defs3126" />
  <metadata
     id="metadata3129">
    <rdf:RDF>
      <cc:Work
         rdf:about="">
        <dc:format>image/svg+xml</dc:format>
        <dc:type
           rdf:resource="http://purl.org/dc/dcmitype/StillImage" />
        <dc:title></dc:title>
      </cc:Work>
    </rdf:RDF>
  </metadata>
  <g
     id="layer1">
    <g
       transform="matrix(1.25,0,0,1.25,-44.16932,148.53897)"
       id="g3272"
       style="fill-rule:evenodd">
      <g
         id="g3232">
        <g
           id="g3234">
          <path
             d="m 328.844,347.28 0.692,0.284 c 0.04,0.012 0.06,0.057 0.06,0.138 l 0,1.574 1.107,0.466 c 0.109,-0.456 0.215,-0.783 0.32,-0.985 0.155,-0.329 0.385,-0.613 0.69,-0.855 0.438,-0.341 0.969,-0.508 1.591,-0.502 0.639,0.018 1.177,0.23 1.616,0.64 0.438,0.414 0.657,0.947 0.657,1.599 0,0.552 -0.138,0.883 -0.416,0.992 -0.01,0.006 -0.03,0.009 -0.06,0.009 -0.161,0 -0.242,-0.077 -0.242,-0.233 0,-0.185 0.058,-0.406 0.173,-0.665 0.116,-0.26 0.174,-0.466 0.174,-0.622 -0.006,-0.335 -0.13,-0.62 -0.372,-0.856 -0.299,-0.281 -0.732,-0.429 -1.297,-0.44 -0.755,-0.012 -1.317,0.29 -1.685,0.906 -0.266,0.444 -0.406,0.991 -0.424,1.643 0,0.012 -0.017,0.012 -0.051,0 l -2.291,-0.909 0,-1.58 c 0,-0.149 -0.075,-0.288 -0.224,-0.415 l -0.018,-0.189 z"
             id="path3236"
             style="fill:#000000;stroke:none" />
          <path
             d="m 333.365,342.856 c 0.518,0 0.979,0.113 1.382,0.338 0.553,0.317 0.83,0.797 0.83,1.441 0,0.531 -0.237,0.963 -0.709,1.297 -0.518,0.357 -1.255,0.536 -2.212,0.536 -0.98,0 -1.841,-0.323 -2.584,-0.969 -0.738,-0.644 -1.135,-1.456 -1.192,-2.435 l 0.172,-0.052 c 0.155,0.807 0.506,1.451 1.055,1.935 0.489,0.444 1.077,0.709 1.762,0.794 -0.38,-0.373 -0.57,-0.822 -0.57,-1.347 0,-0.449 0.19,-0.817 0.57,-1.106 0.369,-0.288 0.868,-0.432 1.496,-0.432 z m 0.379,0.528 c -0.587,-0.006 -1.065,0.094 -1.434,0.302 -0.444,0.242 -0.649,0.605 -0.613,1.088 0.034,0.426 0.181,0.749 0.441,0.967 0.155,0.139 0.445,0.208 0.871,0.208 0.761,0 1.349,-0.155 1.764,-0.466 0.346,-0.265 0.518,-0.588 0.518,-0.968 0,-0.311 -0.118,-0.566 -0.354,-0.769 -0.271,-0.235 -0.668,-0.356 -1.193,-0.362 z"
             id="path3238"
             style="fill:#000000;stroke:none" />
          <path
             d="m 335.058,341.112 c 0.15,0 0.277,0.054 0.381,0.163 0.075,0.099 0.112,0.199 0.112,0.304 0,0.109 -0.037,0.206 -0.112,0.293 -0.099,0.104 -0.226,0.155 -0.381,0.155 -0.16,0 -0.299,-0.043 -0.414,-0.13 -0.109,-0.085 -0.165,-0.191 -0.165,-0.318 0,-0.127 0.056,-0.241 0.165,-0.338 0.115,-0.087 0.254,-0.129 0.414,-0.129 z"
             id="path3240"
             style="fill:#000000;stroke:none" />
          <path
             d="m 333.735,336.611 0,0.916 1.729,0 0,0.448 -1.729,0 0,2.463 -0.354,0 -4.407,-2.738 0,-0.173 4.425,0 0,-0.916 0.336,0 z m -0.336,1.373 -3.397,0 3.397,2.091 0,-2.091 z"
             id="path3242"
             style="fill:#000000;stroke:none" />
          <path
             d="m 323.035,324.338 1.261,0.45 0,3.248 -0.043,0 -1.832,-1.504 c -0.974,-0.795 -1.829,-1.215 -2.566,-1.261 -0.363,-0.023 -0.701,0.073 -1.012,0.285 -0.387,0.254 -0.578,0.616 -0.578,1.09 0,0.333 0.169,0.604 0.508,0.811 0.116,0.069 0.421,0.196 0.916,0.38 l -0.025,0.172 c -0.657,-0.115 -1.144,-0.348 -1.46,-0.698 -0.265,-0.295 -0.398,-0.64 -0.398,-1.037 0,-0.41 0.15,-0.758 0.45,-1.045 0.333,-0.311 0.753,-0.468 1.261,-0.468 0.824,0 1.602,0.302 2.333,0.907 l 1.971,1.616 0,-1.934 c 0,-0.191 -0.055,-0.338 -0.164,-0.441 -0.087,-0.099 -0.294,-0.23 -0.622,-0.399 l 0,-0.172 z"
             id="path3244"
             style="fill:#000000;stroke:none" />
          <path
             d="m 323.035,320.183 1.261,0.449 0,3.249 -0.043,0 -1.832,-1.504 c -0.974,-0.795 -1.829,-1.215 -2.566,-1.261 -0.363,-0.023 -0.701,0.073 -1.012,0.285 -0.387,0.253 -0.578,0.616 -0.578,1.089 0,0.334 0.169,0.605 0.508,0.811 0.116,0.069 0.421,0.196 0.916,0.381 l -0.025,0.172 c -0.657,-0.115 -1.144,-0.348 -1.46,-0.699 -0.265,-0.295 -0.398,-0.639 -0.398,-1.036 0,-0.41 0.15,-0.758 0.45,-1.045 0.333,-0.312 0.753,-0.468 1.261,-0.468 0.824,0 1.602,0.302 2.333,0.907 l 1.971,1.616 0,-1.934 c 0,-0.191 -0.055,-0.338 -0.164,-0.442 -0.087,-0.098 -0.294,-0.23 -0.622,-0.398 l 0,-0.172 z"
             id="path3246"
             style="fill:#000000;stroke:none" />
          <path
             d="m 323.89,318.481 c 0.15,0 0.277,0.055 0.38,0.164 0.076,0.099 0.113,0.199 0.113,0.304 0,0.109 -0.037,0.206 -0.113,0.293 -0.098,0.103 -0.225,0.155 -0.38,0.155 -0.161,0 -0.3,-0.043 -0.414,-0.13 -0.11,-0.085 -0.166,-0.192 -0.166,-0.318 0,-0.127 0.056,-0.241 0.166,-0.338 0.114,-0.087 0.253,-0.13 0.414,-0.13 z"
             id="path3248"
             style="fill:#000000;stroke:none" />
          <path
             d="m 322.197,313.989 c 0.517,0 0.979,0.113 1.382,0.337 0.553,0.317 0.83,0.798 0.83,1.442 0,0.531 -0.237,0.963 -0.709,1.296 -0.518,0.357 -1.255,0.537 -2.213,0.537 -0.979,0 -1.84,-0.323 -2.584,-0.969 -0.737,-0.644 -1.134,-1.457 -1.191,-2.436 l 0.172,-0.051 c 0.155,0.807 0.506,1.451 1.055,1.934 0.489,0.444 1.076,0.71 1.762,0.795 -0.38,-0.373 -0.571,-0.823 -0.571,-1.348 0,-0.448 0.191,-0.817 0.571,-1.105 0.369,-0.288 0.867,-0.432 1.496,-0.432 z m 0.379,0.527 c -0.587,-0.006 -1.065,0.095 -1.434,0.303 -0.444,0.241 -0.649,0.604 -0.613,1.088 0.033,0.426 0.181,0.749 0.44,0.967 0.156,0.139 0.446,0.208 0.872,0.208 0.761,0 1.348,-0.155 1.764,-0.466 0.345,-0.265 0.518,-0.588 0.518,-0.969 0,-0.311 -0.118,-0.566 -0.354,-0.768 -0.271,-0.236 -0.668,-0.357 -1.193,-0.363 z"
             id="path3250"
             style="fill:#000000;stroke:none" />
          <path
             d="m 325.528,353.066 -0.849,-7.653 1.7,0 -0.851,7.653 z m 0,-64.14 0.851,7.654 -1.7,0 0.849,-7.654 z"
             id="path3252"
             style="fill:none;stroke:#000000;stroke-width:0.50995302" />
          <path
             d="m 336.7,263.701 0.85,7.654 -1.7,0 0.85,-7.654 z m 0,159.858 -0.85,-7.653 1.7,0 -0.85,7.653 z"
             id="path3254"
             style="fill:none;stroke:#000000;stroke-width:0.50995302" />
          <path
             d="m 238.122,353.066 91.659,0 m -27.518,-64.14 27.518,0 m -4.252,64.14 0,-64.14"
             id="path3256"
             style="fill:none;stroke:#000000;stroke-width:0.50995302;stroke-linecap:round;stroke-linejoin:round" />
          <path
             d="m 302.262,263.701 38.69,0 m -111.976,159.858 111.976,0 m -4.252,-159.858 0,159.858"
             id="path3258"
             style="fill:none;stroke:#000000;stroke-width:0.50995302;stroke-linecap:round;stroke-linejoin:round" />
          <path
             d="m 325.528,353.066 -0.849,-7.653 1.7,0 m -0.851,-56.487 0.851,7.654 -1.7,0 0.849,-7.654 z"
             id="path3260"
             style="fill:#000000;stroke:none" />
          <path
             d="m 336.7,263.701 0.85,7.654 -1.7,0 m 0.85,152.204 -0.85,-7.653 1.7,0 -0.85,7.653 z"
             id="path3262"
             style="fill:#000000;stroke:none" />
          <path
             d="m 297.591,263.721 0.242,0.436 0.654,1.474 0.387,1.564 0.012,0.806 -0.048,0.803 0.066,0.523 0.24,0.509 0.497,0.488 m 0,0 0.158,0.026 0.157,0.028 0.157,0.029 0.157,0.031 0.157,0.032 0.156,0.033 0.156,0.034 0.156,0.036 m 0,0 0.645,-0.261 0.417,-0.377 0.262,-0.459 0.262,-0.76 0.319,-0.74 0.956,-1.297 1.169,-1.111 0.39,-0.311 m 1.846,0.765 -0.228,-0.104 -0.228,-0.101 -0.229,-0.099 -0.23,-0.097 -0.232,-0.094 -0.232,-0.092 -0.233,-0.09 -0.234,-0.088 m 1.846,0.765 0.056,0.495 0.041,1.612 -0.241,1.593 -0.298,0.749 -0.352,0.723 -0.139,0.51 0.028,0.561 0.272,0.641 m 0,0 0.135,0.085 0.135,0.086 0.134,0.087 0.133,0.088 0.133,0.09 0.131,0.09 0.131,0.092 0.131,0.092 m 0,0 0.696,0.006 0.53,-0.189 0.417,-0.324 0.533,-0.601 0.578,-0.562 1.38,-0.832 1.505,-0.58 0.479,-0.137 m 1.412,1.412 -0.17,-0.182 -0.172,-0.181 -0.174,-0.179 -0.176,-0.178 -0.177,-0.176 -0.179,-0.174 -0.181,-0.172 -0.183,-0.17 m 1.412,1.412 -0.137,0.48 -0.579,1.505 -0.833,1.379 -0.561,0.578 -0.602,0.534 -0.323,0.417 -0.19,0.53 0.006,0.696 m 0,0 0.093,0.13 0.091,0.131 0.091,0.132 0.089,0.132 0.088,0.133 0.087,0.134 0.086,0.135 0.085,0.135 m 0,0 0.641,0.272 0.562,0.028 0.509,-0.139 0.723,-0.352 0.75,-0.298 1.592,-0.241 1.612,0.041 0.496,0.056 m 0.764,1.846 -0.087,-0.234 -0.09,-0.233 -0.092,-0.232 -0.094,-0.232 -0.097,-0.23 -0.099,-0.229 -0.101,-0.228 -0.104,-0.228 m 0.764,1.846 -0.31,0.39 -1.111,1.169 -1.297,0.956 -0.74,0.319 -0.76,0.262 -0.459,0.262 -0.377,0.417 -0.261,0.646 m 0,0 0.036,0.155 0.034,0.156 0.033,0.157 0.032,0.156 0.031,0.157 0.029,0.157 0.028,0.157 0.026,0.158 m 0,0 0.488,0.497 0.509,0.24 0.524,0.067 0.802,-0.049 0.806,0.012 1.564,0.387 1.474,0.654 0.436,0.242 m 0,1.997 0.009,-0.249 0.006,-0.25 0.004,-0.25 10e-4,-0.249 -10e-4,-0.25 -0.004,-0.25 -0.006,-0.25 -0.009,-0.249 m 0,1.997 -0.436,0.242 -1.474,0.655 -1.564,0.387 -0.806,0.011 -0.802,-0.048 -0.524,0.066 -0.509,0.241 -0.488,0.497 m 0,0 -0.026,0.157 -0.028,0.157 -0.029,0.157 -0.031,0.157 -0.032,0.157 -0.033,0.156 -0.034,0.156 -0.036,0.156 m 0,0 0.261,0.645 0.378,0.417 0.458,0.262 0.76,0.262 0.74,0.32 1.297,0.956 1.111,1.168 0.311,0.391 m -0.764,1.845 0.103,-0.227 0.101,-0.229 0.099,-0.229 0.097,-0.23 0.094,-0.231 0.093,-0.232 0.089,-0.234 0.088,-0.233 m -0.764,1.845 -0.496,0.056 -1.612,0.041 -1.593,-0.241 -0.749,-0.297 -0.723,-0.352 -0.509,-0.14 -0.562,0.028 -0.641,0.272 m 0,0 -0.085,0.136 -0.086,0.134 -0.087,0.134 -0.088,0.134 -0.09,0.132 -0.09,0.132 -0.092,0.131 -0.092,0.13 m 0,0 -0.006,0.696 0.189,0.53 0.324,0.417 0.601,0.533 0.562,0.579 0.832,1.379 0.58,1.505 0.137,0.479 m -1.412,1.413 0.183,-0.171 0.18,-0.172 0.18,-0.174 0.177,-0.175 0.176,-0.178 0.174,-0.179 0.172,-0.181 0.17,-0.183 m -1.412,1.413 -0.479,-0.138 -1.506,-0.579 -1.379,-0.832 -0.578,-0.562 -0.533,-0.602 -0.418,-0.323 -0.529,-0.19 -0.697,0.006 m 0,0 -0.13,0.093 -0.131,0.092 -0.131,0.09 -0.133,0.089 -0.133,0.089 -0.134,0.087 -0.135,0.086 -0.135,0.084 m 0,0 -0.272,0.641 -0.028,0.562 0.139,0.51 0.352,0.722 0.298,0.75 0.241,1.592 -0.041,1.613 -0.056,0.495 m -1.846,0.765 0.234,-0.088 0.233,-0.09 0.232,-0.092 0.232,-0.094 0.23,-0.097 0.229,-0.099 0.228,-0.101 0.228,-0.104 m -1.846,0.765 -0.39,-0.311 -1.169,-1.111 -0.956,-1.297 -0.319,-0.74 -0.262,-0.76 -0.262,-0.458 -0.417,-0.378 -0.645,-0.261 m 0,0 -0.156,0.036 -0.156,0.034 -0.157,0.033 -0.156,0.032 -0.157,0.031 -0.157,0.029 -0.157,0.028 -0.158,0.026 m 0,0 -0.497,0.488 -0.24,0.509 -0.066,0.524 0.048,0.802 -0.012,0.806 -0.387,1.564 -0.654,1.474 -0.242,0.436 m -1.997,0 0.249,0.009 0.25,0.006 0.25,0.004 0.25,0.001 0.249,-0.001 0.25,-0.004 0.25,-0.006 0.249,-0.009 m -1.997,0 -0.242,-0.436 -0.654,-1.474 -0.387,-1.564 -0.012,-0.806 0.048,-0.802 -0.066,-0.524 -0.241,-0.508 -0.496,-0.489 m 0,0 -0.158,-0.026 -0.157,-0.028 -0.157,-0.029 -0.157,-0.031 -0.157,-0.031 -0.156,-0.034 -0.156,-0.034 -0.156,-0.036 m 0,0 -0.645,0.261 -0.417,0.378 -0.262,0.458 -0.262,0.76 -0.32,0.741 -0.955,1.296 -1.169,1.112 -0.39,0.31 m -1.846,-0.764 0.228,0.103 0.228,0.102 0.229,0.099 0.23,0.096 0.232,0.095 0.232,0.092 0.233,0.09 0.234,0.087 m -1.846,-0.764 -0.056,-0.496 -0.041,-1.612 0.241,-1.593 0.298,-0.749 0.352,-0.723 0.139,-0.509 -0.028,-0.562 -0.272,-0.641 m 0,0 -0.136,-0.085 -0.134,-0.086 -0.134,-0.087 -0.133,-0.088 -0.133,-0.089 -0.132,-0.091 -0.13,-0.091 -0.131,-0.093 m 0,0 -0.696,-0.006 -0.53,0.189 -0.417,0.324 -0.533,0.602 -0.578,0.561 -1.38,0.833 -1.505,0.579 -0.479,0.138 m -1.413,-1.413 0.171,0.183 0.172,0.181 0.174,0.179 0.176,0.177 0.177,0.176 0.179,0.174 0.181,0.172 0.183,0.171 m -1.413,-1.413 0.138,-0.479 0.579,-1.505 0.832,-1.38 0.562,-0.578 0.602,-0.533 0.323,-0.417 0.19,-0.53 -0.006,-0.696 m 0,0 -0.093,-0.131 -0.092,-0.131 -0.09,-0.131 -0.089,-0.133 -0.089,-0.133 -0.087,-0.134 -0.086,-0.135 -0.084,-0.135 m 0,0 -0.641,-0.272 -0.562,-0.028 -0.51,0.14 -0.722,0.351 -0.75,0.298 -1.592,0.241 -1.613,-0.041 -0.495,-0.056 m -0.765,-1.845 0.088,0.234 0.09,0.233 0.092,0.232 0.094,0.231 0.097,0.23 0.099,0.229 0.101,0.229 0.104,0.227 m -0.765,-1.845 0.311,-0.391 1.111,-1.168 1.297,-0.956 0.74,-0.32 0.76,-0.262 0.458,-0.262 0.378,-0.417 0.261,-0.645 m 0,0 -0.036,-0.156 -0.034,-0.156 -0.033,-0.156 -0.032,-0.157 -0.031,-0.157 -0.029,-0.157 -0.028,-0.157 -0.026,-0.158 m 0,0 -0.488,-0.496 -0.509,-0.241 -0.524,-0.066 -0.802,0.048 -0.806,-0.011 -1.564,-0.387 -1.474,-0.655 -0.436,-0.242 m 0,-1.997 -0.009,0.25 -0.006,0.249 -0.004,0.25 -0.001,0.25 0.001,0.25 0.004,0.249 0.006,0.25 0.009,0.249 m 0,-1.997 0.436,-0.242 1.474,-0.654 1.564,-0.387 0.806,-0.012 0.802,0.049 0.524,-0.067 0.509,-0.24 0.488,-0.497 m 0,0 0.026,-0.158 0.028,-0.157 0.029,-0.157 0.031,-0.157 0.032,-0.156 0.033,-0.157 0.034,-0.156 0.036,-0.155 m -4.552,-6.266 -0.103,0.227 -0.101,0.228 -0.099,0.229 -0.097,0.231 -0.095,0.231 -0.092,0.232 -0.089,0.233 -0.088,0.234 m 0.764,-1.845 0.496,-0.057 1.612,-0.041 1.593,0.241 0.749,0.298 0.723,0.352 0.509,0.139 0.562,-0.028 0.641,-0.272 m 0,0 0.085,-0.135 0.086,-0.135 0.087,-0.134 0.088,-0.133 0.09,-0.133 0.09,-0.131 0.091,-0.131 0.093,-0.13 m 0,0 0.006,-0.697 -0.189,-0.529 -0.324,-0.418 -0.602,-0.533 -0.561,-0.578 -0.832,-1.379 -0.58,-1.506 -0.137,-0.479 m 1.412,-1.412 -0.183,0.17 -0.181,0.172 -0.179,0.174 -0.177,0.176 -0.176,0.177 -0.174,0.18 -0.172,0.18 -0.17,0.183 m 1.412,-1.412 0.479,0.137 1.505,0.58 1.38,0.832 0.578,0.561 0.533,0.602 0.417,0.324 0.53,0.189 0.697,-0.006 m 0,0 0.13,-0.093 0.131,-0.091 0.131,-0.091 0.133,-0.089 0.133,-0.088 0.134,-0.087 0.135,-0.086 0.135,-0.085 m 0,0 0.272,-0.641 0.028,-0.562 -0.139,-0.509 -0.352,-0.723 -0.298,-0.749 -0.241,-1.593 0.041,-1.612 0.056,-0.496 m 1.845,-0.764 0.391,0.31 1.169,1.111 0.955,1.297 0.32,0.74 0.262,0.76 0.262,0.459 0.417,0.378 0.645,0.26 m 0,0 0.156,-0.035 0.156,-0.035 0.156,-0.033 0.157,-0.032 0.157,-0.03 0.157,-0.03 0.157,-0.027 0.158,-0.027 m 0,0 0.496,-0.488 0.241,-0.509 0.066,-0.523 -0.048,-0.803 0.012,-0.806 0.386,-1.564 0.655,-1.474 0.242,-0.436 m 6.559,26.311 0.107,-0.956 -0.056,-0.959 -0.217,-0.937 -0.373,-0.887 -0.517,-0.81 -0.647,-0.712 -0.758,-0.592 -0.847,-0.455 -0.911,-0.306 -0.95,-0.148 -0.962,0.016 -0.945,0.177 -0.901,0.335 -0.832,0.482 -0.739,0.616 -0.623,0.732 -0.491,0.827 -0.345,0.898 -0.187,0.943 -0.026,0.961 0.138,0.952 0.296,0.915 0.446,0.851 0.584,0.764 0.705,0.654 0.805,0.526 0.883,0.382 0.934,0.227 0.959,0.067 0.957,-0.097 0.927,-0.257 0.869,-0.41 0.788,-0.551 0.684,-0.677 0.559,-0.782 0.419,-0.865 0.267,-0.924 z m -14.284,-24.774 -0.233,0.087 -0.234,0.09 -0.232,0.092 -0.231,0.095 -0.23,0.096 -0.229,0.099 -0.229,0.102 -0.227,0.103 m 11.567,-2.301 -0.25,-0.009 -0.249,-0.006 -0.25,-0.003 -0.25,-0.002 -0.249,0.002 -0.25,0.003 -0.25,0.006 -0.249,0.009 m -17.354,20.904 -0.261,-0.646 -0.378,-0.417 -0.458,-0.262 -0.76,-0.262 -0.74,-0.319 -1.297,-0.956 -1.111,-1.169 -0.311,-0.39 m -89.511,64.926 0.166,0.016 0.159,0.049 0.147,0.078 0.129,0.106 0.106,0.129 0.079,0.147 0.048,0.159 0.016,0.166 m 0,0 0,1.368 m 0,0 -0.006,0.106 -0.02,0.104 -0.033,0.101 -0.045,0.096 -0.056,0.09 -0.067,0.082 -0.077,0.073 -0.086,0.063 m 0,0 -0.781,0.601 -0.672,0.721 -0.543,0.822 -0.4,0.901 -0.246,0.954 -0.086,0.982 0.078,0.982 0.239,0.957 0.393,0.903 0.537,0.827 0.666,0.726 0.777,0.607 0.866,0.47 0.932,0.321 0.972,0.162 0.986,0 0.972,-0.162 0.932,-0.321 0.866,-0.47 0.777,-0.607 0.666,-0.726 0.537,-0.827 0.393,-0.903 0.239,-0.957 0.078,-0.982 -0.086,-0.982 -0.246,-0.954 -0.4,-0.901 -0.544,-0.822 -0.671,-0.721 -0.782,-0.601 m 0,0 -0.085,-0.063 -0.077,-0.073 -0.067,-0.082 -0.057,-0.09 -0.045,-0.096 -0.032,-0.101 -0.02,-0.104 -0.006,-0.106 m 0,0 0,-1.368 m 0,0 0.016,-0.166 0.048,-0.159 0.079,-0.147 0.106,-0.129 0.128,-0.106 0.148,-0.078 0.159,-0.049 0.166,-0.016 m 0,0 15.307,0 m 0,0 0.166,0.016 0.159,0.049 0.147,0.078 0.129,0.106 0.106,0.129 0.079,0.147 0.048,0.159 0.016,0.166 m 0,0 0,1.368 m 0,0 -0.006,0.106 -0.02,0.104 -0.032,0.101 -0.045,0.096 -0.057,0.09 -0.067,0.082 -0.077,0.073 -0.085,0.063 m 0,0 -0.782,0.601 -0.671,0.721 -0.544,0.822 -0.4,0.901 -0.246,0.954 -0.086,0.982 0.078,0.982 0.239,0.957 0.393,0.903 0.537,0.827 0.666,0.726 0.777,0.607 0.866,0.47 0.932,0.321 0.972,0.162 0.986,0 0.972,-0.162 0.932,-0.321 0.866,-0.47 0.777,-0.607 0.666,-0.726 0.537,-0.827 0.393,-0.903 0.239,-0.957 0.078,-0.982 -0.086,-0.982 -0.246,-0.954 -0.4,-0.901 -0.543,-0.822 -0.672,-0.721 -0.782,-0.601 m 0,0 -0.085,-0.063 -0.077,-0.073 -0.067,-0.082 -0.057,-0.09 -0.044,-0.096 -0.033,-0.101 -0.02,-0.104 -0.006,-0.106 m 0,0 0,-1.368 m 0,0 0.007,-0.108 0.02,-0.106 0.034,-0.103 0.047,-0.098 0.059,-0.091 0.069,-0.082 0.08,-0.074 0.089,-0.062 m 8.099,-14.488 -0.089,1.731 -0.264,1.713 -0.437,1.677 -0.605,1.624 -0.768,1.554 -0.921,1.468 -1.066,1.366 -1.2,1.251 -1.321,1.122 -1.428,0.982 m 8.099,-14.488 0,-32.594 m 0,0 -0.074,-0.64 -0.216,-0.608 -0.348,-0.543 -0.461,-0.45 -0.551,-0.334 -0.613,-0.201 -0.642,-0.058 -0.639,0.09 m 0,0 -3.07,0.881 -3.018,1.044 -2.958,1.205 -2.89,1.362 -2.812,1.515 -2.726,1.664 -2.634,1.808 -2.533,1.946 -2.424,2.079 -2.31,2.206 -2.188,2.327 -2.06,2.441 -1.926,2.548 -1.787,2.648 -1.642,2.739 -1.493,2.824 -1.339,2.9 -1.182,2.968 -1.021,3.026 -0.857,3.077 -0.691,3.119 m 0,0 -0.05,0.621 0.086,0.617 0.219,0.583 0.341,0.521 0.447,0.434 0.531,0.326 0.59,0.202 0.619,0.069 m 0,0 6.621,0 m 98.079,15.874 -0.166,-0.016 -0.16,-0.049 -0.147,-0.078 -0.129,-0.106 -0.105,-0.129 -0.079,-0.147 -0.048,-0.16 -0.017,-0.166 m 0,0 0,-1.367 m 0,0 0.007,-0.106 0.02,-0.104 0.032,-0.101 0.045,-0.096 0.056,-0.09 0.068,-0.082 0.077,-0.073 0.085,-0.063 m 0,0 0.781,-0.601 0.672,-0.721 0.543,-0.822 0.401,-0.901 0.246,-0.954 0.085,-0.982 -0.078,-0.983 -0.238,-0.956 -0.394,-0.903 -0.537,-0.827 -0.666,-0.726 -0.777,-0.607 -0.866,-0.47 -0.932,-0.321 -0.972,-0.162 -0.985,0 -0.972,0.162 -0.932,0.321 -0.866,0.47 -0.777,0.607 -0.666,0.726 -0.537,0.827 -0.394,0.903 -0.238,0.956 -0.078,0.983 0.085,0.982 0.246,0.954 0.401,0.901 0.543,0.822 0.672,0.721 0.781,0.601 m 0,0 0.086,0.063 0.076,0.073 0.068,0.082 0.056,0.09 0.045,0.096 0.033,0.101 0.019,0.104 0.007,0.106 m 0,0 0,1.367 m 0,0 -0.016,0.166 -0.049,0.16 -0.078,0.147 -0.106,0.129 -0.129,0.106 -0.147,0.078 -0.16,0.049 -0.165,0.016 m 0,0 -15.308,0 m 0,0 -0.165,-0.016 -0.16,-0.049 -0.147,-0.078 -0.129,-0.106 -0.106,-0.129 -0.078,-0.147 -0.049,-0.16 -0.016,-0.166 m 0,0 0,-1.367 m 0,0 0.007,-0.106 0.019,-0.104 0.033,-0.101 0.045,-0.096 0.056,-0.09 0.068,-0.082 0.076,-0.073 0.086,-0.063 m 0,0 0.781,-0.601 0.672,-0.721 0.543,-0.822 0.401,-0.901 0.246,-0.954 0.085,-0.982 -0.078,-0.983 -0.239,-0.956 -0.393,-0.903 -0.537,-0.827 -0.666,-0.726 -0.777,-0.607 -0.866,-0.47 -0.932,-0.321 -0.972,-0.162 -0.985,0 -0.972,0.162 -0.932,0.321 -0.867,0.47 -0.776,0.607 -0.666,0.726 -0.537,0.827 -0.394,0.903 -0.239,0.956 -0.077,0.983 0.085,0.982 0.246,0.954 0.401,0.901 0.543,0.822 0.672,0.721 0.781,0.601 m 0,0 0.085,0.063 0.077,0.073 0.067,0.082 0.057,0.09 0.045,0.096 0.032,0.101 0.02,0.104 0.007,0.106 m 0,0 0,1.367 m 0,0 -0.007,0.109 -0.021,0.106 -0.034,0.103 -0.046,0.097 -0.059,0.091 -0.07,0.083 -0.08,0.073 -0.088,0.063 m -8.099,14.488 0.088,-1.731 0.264,-1.713 0.437,-1.677 0.605,-1.624 0.768,-1.554 0.922,-1.468 1.066,-1.366 1.2,-1.251 1.321,-1.122 1.428,-0.982 m -8.099,14.488 0,32.594 m 0,0 0.073,0.64 0.216,0.608 0.348,0.542 0.462,0.451 0.551,0.334 0.612,0.201 0.643,0.057 0.638,-0.089 m 0,0 3.07,-0.881 3.019,-1.045 2.958,-1.205 2.889,-1.362 2.812,-1.515 2.727,-1.663 2.633,-1.808 2.533,-1.946 2.425,-2.079 2.31,-2.206 2.188,-2.327 2.06,-2.441 1.926,-2.548 1.787,-2.648 1.642,-2.74 1.493,-2.823 1.339,-2.9 1.182,-2.968 1.021,-3.026 0.857,-3.077 0.69,-3.119 m 0,0 0.051,-0.621 -0.087,-0.617 -0.219,-0.583 -0.341,-0.521 -0.447,-0.435 -0.531,-0.326 -0.589,-0.202 -0.62,-0.068 m 0,0 -6.62,0 m -60.378,-7.937 0.082,-1.367 0.247,-1.347 0.407,-1.307 0.562,-1.248 0.709,-1.172 0.844,-1.078 0.968,-0.968 1.078,-0.845 1.172,-0.708 1.249,-0.562 1.307,-0.407 1.347,-0.247 1.366,-0.083 1.367,0.083 1.347,0.247 1.307,0.407 1.249,0.562 1.171,0.708 1.078,0.845 0.968,0.968 0.845,1.078 0.708,1.172 0.562,1.248 0.407,1.307 0.247,1.347 0.083,1.367 -0.083,1.367 -0.247,1.346 -0.407,1.308 -0.562,1.248 -0.708,1.172 -0.845,1.078 -0.968,0.968 -1.078,0.844 -1.171,0.709 -1.249,0.562 -1.307,0.407 -1.347,0.247 -1.367,0.082 -1.366,-0.082 -1.347,-0.247 -1.307,-0.407 -1.249,-0.562 -1.172,-0.709 -1.078,-0.844 -0.968,-0.968 -0.844,-1.078 -0.709,-1.172 -0.562,-1.248 -0.407,-1.308 -0.247,-1.346 -0.082,-1.367 z m 19.275,-49.039 -0.016,0.165 -0.049,0.16 -0.078,0.147 -0.106,0.129 -0.129,0.106 -0.147,0.078 -0.159,0.049 -0.166,0.016 m 0,0 -1.368,0 m 0,0 -0.106,-0.007 -0.104,-0.019 -0.101,-0.033 -0.096,-0.045 -0.09,-0.056 -0.082,-0.068 -0.073,-0.076 -0.063,-0.086 m 0,0 -0.601,-0.781 -0.721,-0.672 -0.822,-0.543 -0.901,-0.401 -0.954,-0.246 -0.982,-0.085 -0.982,0.078 -0.956,0.238 -0.904,0.394 -0.827,0.537 -0.726,0.666 -0.607,0.777 -0.47,0.866 -0.32,0.932 -0.163,0.972 0,0.985 0.163,0.972 0.32,0.932 0.47,0.867 0.607,0.776 0.726,0.666 0.827,0.537 0.904,0.394 0.956,0.238 0.982,0.078 0.982,-0.085 0.954,-0.246 0.901,-0.401 0.822,-0.543 0.721,-0.672 0.601,-0.781 m 0,0 0.063,-0.085 0.073,-0.077 0.082,-0.068 0.09,-0.056 0.096,-0.045 0.101,-0.032 0.104,-0.02 0.106,-0.007 m 0,0 1.368,0 m 0,0 0.166,0.017 0.159,0.048 0.147,0.079 0.129,0.105 0.106,0.129 0.078,0.147 0.049,0.16 0.016,0.166 m 0,0 0,15.307 m 0,0 -0.016,0.166 -0.049,0.159 -0.078,0.147 -0.106,0.129 -0.129,0.106 -0.147,0.078 -0.159,0.049 -0.166,0.016 m 0,0 -1.368,0 m 0,0 -0.106,-0.007 -0.104,-0.019 -0.101,-0.033 -0.096,-0.045 -0.09,-0.056 -0.082,-0.067 -0.073,-0.077 -0.063,-0.086 m 0,0 -0.601,-0.781 -0.721,-0.672 -0.822,-0.543 -0.901,-0.4 -0.954,-0.247 -0.982,-0.085 -0.982,0.078 -0.956,0.239 -0.904,0.393 -0.827,0.537 -0.726,0.666 -0.607,0.777 -0.47,0.866 -0.32,0.932 -0.163,0.972 0,0.985 0.163,0.973 0.32,0.931 0.47,0.867 0.607,0.776 0.726,0.666 0.827,0.537 0.904,0.394 0.956,0.239 0.982,0.077 0.982,-0.085 0.954,-0.246 0.901,-0.4 0.822,-0.544 0.721,-0.671 0.601,-0.782 m 0,0 0.063,-0.085 0.073,-0.077 0.082,-0.067 0.09,-0.057 0.096,-0.045 0.101,-0.032 0.104,-0.02 0.106,-0.007 m 0,0 1.368,0 m 0,0 0.108,0.007 0.106,0.021 0.103,0.034 0.098,0.046 0.091,0.059 0.083,0.07 0.073,0.08 0.062,0.088 m 14.488,8.099 -1.731,-0.088 -1.713,-0.264 -1.677,-0.437 -1.624,-0.605 -1.554,-0.768 -1.468,-0.922 -1.366,-1.066 -1.251,-1.2 -1.122,-1.32 -0.982,-1.429 m 14.488,8.099 32.594,0 m 0,0 0.64,-0.073 0.608,-0.216 0.543,-0.348 0.45,-0.461 0.334,-0.552 0.201,-0.612 0.058,-0.642 -0.089,-0.639 m 0,0 -0.882,-3.07 -1.044,-3.019 -1.205,-2.958 -1.362,-2.889 -1.515,-2.812 -1.664,-2.727 -1.807,-2.633 -1.947,-2.533 -2.079,-2.425 -2.206,-2.309 -2.327,-2.188 -2.441,-2.061 -2.548,-1.926 -2.648,-1.787 -2.739,-1.642 -2.824,-1.493 -2.9,-1.339 -2.967,-1.182 -3.027,-1.02 -3.077,-0.857 -3.119,-0.691 m 0,0 -0.621,-0.051 -0.617,0.087 -0.583,0.219 -0.521,0.341 -0.434,0.447 -0.326,0.531 -0.202,0.589 -0.069,0.62 m 0,0 0,6.621 m -15.874,98.078 0.017,-0.166 0.048,-0.159 0.079,-0.147 0.105,-0.129 0.129,-0.106 0.147,-0.078 0.16,-0.049 0.166,-0.016 m 0,0 1.368,0 m 0,0 0.105,0.007 0.105,0.019 0.101,0.033 0.096,0.045 0.089,0.056 0.082,0.067 0.073,0.077 0.063,0.086 m 0,0 0.601,0.781 0.721,0.672 0.822,0.543 0.901,0.4 0.954,0.247 0.982,0.085 0.983,-0.078 0.956,-0.239 0.904,-0.393 0.826,-0.537 0.726,-0.666 0.607,-0.777 0.47,-0.866 0.321,-0.932 0.163,-0.972 0,-0.986 -0.163,-0.972 -0.321,-0.932 -0.47,-0.866 -0.607,-0.776 -0.726,-0.666 -0.826,-0.538 -0.904,-0.393 -0.956,-0.239 -0.983,-0.077 -0.982,0.085 -0.954,0.246 -0.901,0.4 -0.822,0.544 -0.721,0.671 -0.601,0.782 m 0,0 -0.063,0.085 -0.073,0.077 -0.082,0.067 -0.089,0.057 -0.096,0.045 -0.101,0.032 -0.105,0.02 -0.105,0.007 m 0,0 -1.368,0 m 0,0 -0.166,-0.017 -0.16,-0.048 -0.147,-0.079 -0.129,-0.105 -0.105,-0.129 -0.079,-0.147 -0.048,-0.16 -0.017,-0.166 m 0,0 0,-15.307 m 0,0 0.017,-0.166 0.048,-0.159 0.079,-0.147 0.105,-0.129 0.129,-0.106 0.147,-0.079 0.16,-0.048 0.166,-0.016 m 0,0 1.368,0 m 0,0 0.105,0.006 0.105,0.02 0.101,0.033 0.096,0.044 0.089,0.057 0.082,0.067 0.073,0.077 0.063,0.085 m 0,0 0.601,0.782 0.721,0.672 0.822,0.543 0.901,0.4 0.954,0.246 0.982,0.086 0.983,-0.078 0.956,-0.239 0.904,-0.393 0.826,-0.537 0.726,-0.666 0.607,-0.777 0.47,-0.866 0.321,-0.932 0.163,-0.972 0,-0.986 -0.163,-0.972 -0.321,-0.932 -0.47,-0.866 -0.607,-0.777 -0.726,-0.666 -0.826,-0.537 -0.904,-0.393 -0.956,-0.239 -0.983,-0.078 -0.982,0.086 -0.954,0.246 -0.901,0.4 -0.822,0.544 -0.721,0.671 -0.601,0.782 m 0,0 -0.063,0.085 -0.073,0.077 -0.082,0.067 -0.089,0.057 -0.096,0.045 -0.101,0.032 -0.105,0.02 -0.105,0.006 m 0,0 -1.368,0 m 0,0 -0.108,-0.006 -0.107,-0.021 -0.103,-0.034 -0.097,-0.047 -0.091,-0.058 -0.083,-0.07 -0.073,-0.08 -0.063,-0.089 m -14.488,-8.099 1.731,0.089 1.713,0.264 1.677,0.437 1.624,0.605 1.554,0.768 1.468,0.921 1.366,1.067 1.251,1.199 1.122,1.321 0.982,1.428 m -14.488,-8.099 -32.593,0 m 0,0 -0.641,0.074 -0.607,0.216 -0.543,0.348 -0.45,0.461 -0.335,0.552 -0.201,0.612 -0.057,0.642 0.089,0.639 m 0,0 0.881,3.07 1.045,3.018 1.205,2.959 1.362,2.889 1.515,2.812 1.663,2.726 1.808,2.634 1.946,2.533 2.079,2.424 2.207,2.31 2.326,2.188 2.441,2.06 2.548,1.927 2.648,1.786 2.74,1.642 2.824,1.493 2.899,1.34 2.968,1.181 3.026,1.021 3.077,0.857 3.119,0.691 m 0,0 0.621,0.051 0.617,-0.087 0.583,-0.219 0.522,-0.341 0.434,-0.447 0.326,-0.531 0.202,-0.59 0.068,-0.619 m 0,0 0,-6.621 m 76.728,-42.778 -0.6,0.176 -2.427,0.535 -0.616,0.082 -0.594,0.124 -0.354,0.184 -0.298,0.324 -0.223,0.513 m 0,0 -0.006,0.046 -0.005,0.045 -0.006,0.045 -0.006,0.045 -0.006,0.046 -0.006,0.045 -0.006,0.045 -0.006,0.045 m 0,0 0.082,0.554 0.204,0.39 0.294,0.269 0.542,0.273 0.573,0.24 2.206,1.144 0.535,0.326 m -0.683,3.429 0.095,-0.427 0.092,-0.427 0.09,-0.428 0.086,-0.428 0.084,-0.429 0.081,-0.43 0.079,-0.43 0.076,-0.43 m -0.683,3.429 -0.618,0.097 -2.476,0.213 -0.621,0.001 -0.606,0.045 -0.374,0.137 -0.338,0.282 -0.288,0.48 m 0,0 -0.011,0.044 -0.012,0.044 -0.012,0.044 -0.012,0.044 -0.012,0.044 -0.011,0.044 -0.012,0.044 -0.012,0.044 m 0,0 0.009,0.56 0.151,0.413 0.256,0.306 0.502,0.341 0.538,0.313 2.037,1.422 0.488,0.393 m -1.124,3.311 0.149,-0.411 0.147,-0.412 0.145,-0.412 0.142,-0.414 0.139,-0.414 0.136,-0.415 0.134,-0.416 0.132,-0.417 m -1.124,3.311 -0.626,0.015 -2.482,-0.112 -0.617,-0.08 -0.606,-0.034 -0.389,0.086 -0.372,0.236 -0.348,0.438 m 0,0 -0.017,0.042 -0.017,0.043 -0.018,0.042 -0.017,0.042 -0.018,0.042 -0.017,0.042 -0.018,0.042 -0.017,0.042 m 0,0 -0.064,0.556 0.096,0.43 0.214,0.336 0.453,0.404 0.492,0.38 1.834,1.676 0.432,0.453 m -1.546,3.136 0.202,-0.387 0.199,-0.389 0.197,-0.391 0.195,-0.391 0.192,-0.393 0.19,-0.393 0.187,-0.395 0.184,-0.397 m -1.546,3.136 -0.623,-0.067 -2.446,-0.435 -0.601,-0.159 -0.596,-0.113 -0.397,0.035 -0.4,0.185 -0.402,0.389 m 0,0 -0.023,0.04 -0.022,0.039 -0.023,0.04 -0.023,0.039 -0.023,0.04 -0.023,0.039 -0.022,0.04 -0.023,0.039 m 0,0 -0.136,0.543 0.039,0.438 0.168,0.362 0.397,0.46 0.438,0.44 1.6,1.902 0.369,0.505 m -1.943,2.907 0.251,-0.358 0.249,-0.359 0.246,-0.361 0.244,-0.363 0.242,-0.364 0.239,-0.366 0.237,-0.367 0.235,-0.369 m -1.943,2.907 -0.608,-0.147 -2.369,-0.751 -0.574,-0.236 -0.577,-0.19 -0.398,-0.018 -0.42,0.132 -0.45,0.333 m 0,0 -0.028,0.037 -0.027,0.036 -0.028,0.036 -0.028,0.036 -0.027,0.036 -0.028,0.037 -0.028,0.036 -0.028,0.036 m 0,0 -0.206,0.52 -0.018,0.44 0.12,0.381 0.333,0.507 0.377,0.494 1.338,2.094 0.3,0.549 m -2.306,2.629 0.296,-0.322 0.293,-0.324 0.291,-0.326 0.29,-0.328 0.287,-0.329 0.285,-0.332 0.283,-0.333 0.281,-0.335 m -2.306,2.629 -0.583,-0.226 -2.251,-1.053 -0.539,-0.309 -0.547,-0.264 -0.393,-0.069 -0.433,0.076 -0.489,0.271 m 0,0 -0.032,0.033 -0.033,0.032 -0.032,0.032 -0.032,0.032 -0.032,0.033 -0.033,0.032 -0.032,0.032 -0.032,0.032 m 0,0 -0.272,0.49 -0.076,0.433 0.069,0.393 0.264,0.547 0.31,0.539 1.053,2.25 0.225,0.584 m -2.628,2.305 0.335,-0.28 0.333,-0.283 0.331,-0.285 0.33,-0.288 0.327,-0.289 0.326,-0.291 0.324,-0.294 0.322,-0.295 m -2.628,2.305 -0.55,-0.3 -2.093,-1.338 -0.495,-0.377 -0.507,-0.333 -0.381,-0.119 -0.439,0.018 -0.521,0.206 m 0,0 -0.036,0.027 -0.036,0.028 -0.036,0.028 -0.036,0.028 -0.037,0.028 -0.036,0.027 -0.036,0.028 -0.036,0.028 m 0,0 -0.334,0.449 -0.131,0.42 0.017,0.399 0.19,0.576 0.237,0.575 0.75,2.369 0.148,0.608 m -2.908,1.943 0.369,-0.235 0.367,-0.237 0.366,-0.239 0.364,-0.242 0.363,-0.244 0.361,-0.246 0.36,-0.249 0.358,-0.251 m -2.908,1.943 -0.505,-0.369 -1.901,-1.6 -0.441,-0.439 -0.46,-0.396 -0.361,-0.169 -0.439,-0.038 -0.543,0.135 m 0,0 -0.039,0.023 -0.039,0.023 -0.04,0.023 -0.039,0.023 -0.04,0.023 -0.039,0.022 -0.04,0.023 -0.04,0.023 m 0,0 -0.389,0.402 -0.185,0.399 -0.035,0.398 0.114,0.596 0.159,0.601 0.435,2.446 0.067,0.622 m -3.136,1.547 0.396,-0.185 0.395,-0.187 0.394,-0.189 0.392,-0.192 0.392,-0.195 0.39,-0.197 0.389,-0.2 0.388,-0.202 m -3.136,1.547 -0.453,-0.432 -1.677,-1.834 -0.379,-0.492 -0.404,-0.453 -0.337,-0.215 -0.429,-0.096 -0.556,0.064 m 0,0 -0.042,0.018 -0.042,0.017 -0.043,0.018 -0.042,0.017 -0.042,0.018 -0.042,0.017 -0.042,0.018 -0.042,0.017 m 0,0 -0.439,0.348 -0.236,0.371 -0.086,0.39 0.035,0.606 0.079,0.616 0.112,2.483 -0.015,0.625 m -3.311,1.124 0.417,-0.131 0.416,-0.134 0.415,-0.137 0.415,-0.139 0.413,-0.142 0.413,-0.144 0.411,-0.147 0.411,-0.15 m -3.311,1.124 -0.393,-0.487 -1.422,-2.037 -0.312,-0.538 -0.342,-0.502 -0.305,-0.256 -0.414,-0.151 -0.559,-0.01 m 0,0 -0.044,0.012 -0.044,0.012 -0.044,0.012 -0.044,0.012 -0.044,0.012 -0.045,0.011 -0.044,0.012 -0.044,0.012 m 0,0 -0.48,0.288 -0.282,0.337 -0.137,0.375 -0.044,0.605 -0.002,0.622 -0.213,2.476 -0.097,0.618 m -3.429,0.682 0.431,-0.076 0.43,-0.078 0.429,-0.081 0.429,-0.084 0.429,-0.087 0.427,-0.089 0.428,-0.092 0.426,-0.095 m -3.429,0.682 -0.326,-0.534 -1.144,-2.206 -0.239,-0.573 -0.273,-0.543 -0.27,-0.294 -0.39,-0.203 -0.553,-0.083 m 0,0 -0.046,0.006 -0.045,0.006 -0.045,0.006 -0.045,0.006 -0.046,0.006 -0.045,0.006 -0.045,0.006 -0.045,0.006 m 0,0 -0.514,0.223 -0.324,0.297 -0.184,0.354 -0.123,0.595 -0.083,0.616 -0.535,2.426 -0.176,0.601 m -3.489,0.228 0.437,-0.018 0.436,-0.022 0.437,-0.025 0.436,-0.027 0.436,-0.03 0.436,-0.033 0.436,-0.035 0.435,-0.038 m -3.489,0.228 -0.253,-0.572 -0.847,-2.336 -0.162,-0.6 -0.2,-0.573 -0.229,-0.327 -0.36,-0.253 -0.538,-0.154 m 0,0 -0.046,0 -0.046,10e-4 -0.045,0 -0.046,0 -0.045,0 -0.046,0 -0.046,-10e-4 -0.045,0 m 0,0 -0.538,0.154 -0.36,0.253 -0.229,0.327 -0.2,0.573 -0.163,0.6 -0.846,2.336 -0.254,0.572 m -3.489,-0.228 0.436,0.038 0.436,0.035 0.435,0.033 0.437,0.03 0.436,0.027 0.436,0.025 0.437,0.022 0.436,0.018 m -3.489,-0.228 -0.176,-0.601 -0.534,-2.426 -0.083,-0.616 -0.123,-0.595 -0.185,-0.354 -0.324,-0.297 -0.513,-0.223 m 0,0 -0.045,-0.006 -0.046,-0.006 -0.045,-0.006 -0.045,-0.006 -0.045,-0.006 -0.046,-0.006 -0.045,-0.006 -0.045,-0.006 m 0,0 -0.554,0.083 -0.39,0.203 -0.269,0.294 -0.273,0.543 -0.24,0.573 -1.144,2.206 -0.326,0.534 m -3.429,-0.682 0.427,0.095 0.427,0.092 0.428,0.089 0.428,0.087 0.429,0.084 0.43,0.081 0.43,0.078 0.43,0.076 m -3.429,-0.682 -0.096,-0.618 -0.214,-2.476 -10e-4,-0.622 -0.045,-0.605 -0.137,-0.375 -0.282,-0.337 -0.48,-0.288 m 0,0 -0.044,-0.012 -0.044,-0.012 -0.044,-0.011 -0.044,-0.012 -0.044,-0.012 -0.044,-0.012 -0.044,-0.012 -0.044,-0.012 m 0,0 -0.56,0.01 -0.413,0.151 -0.306,0.256 -0.341,0.502 -0.313,0.538 -1.422,2.037 -0.393,0.487 m -3.311,-1.124 0.411,0.15 0.412,0.147 0.412,0.144 0.414,0.142 0.414,0.139 0.415,0.137 0.416,0.134 0.417,0.131 m -3.311,-1.124 -0.014,-0.625 0.111,-2.483 0.08,-0.616 0.034,-0.606 -0.086,-0.39 -0.236,-0.371 -0.438,-0.348 m 0,0 -0.042,-0.017 -0.043,-0.018 -0.042,-0.017 -0.042,-0.018 -0.042,-0.017 -0.042,-0.018 -0.042,-0.017 -0.042,-0.018 m 0,0 -0.556,-0.064 -0.43,0.096 -0.336,0.215 -0.404,0.453 -0.38,0.492 -1.676,1.834 -0.453,0.432 m -3.136,-1.547 0.388,0.202 0.388,0.2 0.391,0.197 0.391,0.195 0.393,0.192 0.394,0.189 0.395,0.187 0.396,0.185 m -3.136,-1.547 0.067,-0.622 0.435,-2.446 0.159,-0.601 0.113,-0.596 -0.034,-0.398 -0.186,-0.399 -0.389,-0.402 m 0,0 -0.04,-0.023 -0.039,-0.023 -0.04,-0.022 -0.039,-0.023 -0.04,-0.023 -0.039,-0.023 -0.04,-0.023 -0.039,-0.023 m 0,0 -0.543,-0.135 -0.438,0.038 -0.362,0.169 -0.46,0.396 -0.44,0.439 -1.901,1.6 -0.506,0.369 m -2.907,-1.943 0.358,0.251 0.359,0.249 0.361,0.246 0.363,0.244 0.364,0.242 0.366,0.239 0.367,0.237 0.369,0.235 m -2.907,-1.943 0.147,-0.608 0.751,-2.369 0.236,-0.575 0.191,-0.576 0.017,-0.399 -0.132,-0.42 -0.333,-0.449 m 0,0 -0.036,-0.028 -0.037,-0.028 -0.036,-0.027 -0.036,-0.028 -0.036,-0.028 -0.036,-0.028 -0.037,-0.028 -0.036,-0.027 m 0,0 -0.52,-0.206 -0.44,-0.018 -0.38,0.119 -0.508,0.333 -0.494,0.377 -2.094,1.338 -0.549,0.3 m -2.629,-2.305 0.322,0.295 0.324,0.294 0.326,0.291 0.328,0.289 0.329,0.288 0.332,0.285 0.333,0.283 0.335,0.28 m -2.629,-2.305 0.226,-0.584 1.053,-2.25 0.309,-0.539 0.264,-0.547 0.069,-0.393 -0.075,-0.433 -0.272,-0.49 m 0,0 -0.032,-0.032 -0.033,-0.032 -0.032,-0.032 -0.032,-0.033 -0.033,-0.032 -0.032,-0.032 -0.032,-0.032 -0.032,-0.033 m 0,0 -0.489,-0.271 -0.434,-0.076 -0.393,0.069 -0.546,0.264 -0.54,0.309 -2.25,1.053 -0.584,0.226 m -2.305,-2.629 0.281,0.335 0.283,0.333 0.285,0.332 0.287,0.329 0.289,0.328 0.291,0.326 0.294,0.324 0.295,0.322 m -2.305,-2.629 0.3,-0.549 1.338,-2.094 0.377,-0.494 0.333,-0.507 0.12,-0.381 -0.019,-0.44 -0.206,-0.52 m 0,0 -0.027,-0.036 -0.028,-0.036 -0.028,-0.037 -0.028,-0.036 -0.028,-0.036 -0.027,-0.036 -0.028,-0.036 -0.028,-0.037 m 0,0 -0.449,-0.333 -0.42,-0.132 -0.399,0.018 -0.576,0.19 -0.575,0.236 -2.369,0.751 -0.608,0.147 m -1.943,-2.907 0.235,0.369 0.237,0.367 0.24,0.366 0.241,0.364 0.244,0.363 0.247,0.361 0.248,0.359 0.251,0.358 m -1.943,-2.907 0.37,-0.505 1.599,-1.902 0.439,-0.44 0.396,-0.46 0.169,-0.362 0.039,-0.438 -0.136,-0.543 m 0,0 -0.023,-0.039 -0.023,-0.04 -0.023,-0.039 -0.023,-0.04 -0.022,-0.039 -0.023,-0.04 -0.023,-0.039 -0.023,-0.04 m 0,0 -0.402,-0.389 -0.399,-0.185 -0.397,-0.035 -0.597,0.113 -0.601,0.159 -2.446,0.435 -0.622,0.067 m -1.547,-3.136 0.185,0.397 0.187,0.395 0.189,0.393 0.193,0.393 0.194,0.391 0.197,0.391 0.2,0.389 0.202,0.387 m -1.547,-3.136 0.432,-0.453 1.834,-1.676 0.493,-0.38 0.453,-0.404 0.214,-0.336 0.096,-0.43 -0.064,-0.556 m 0,0 -0.018,-0.042 -0.017,-0.042 -0.018,-0.042 -0.017,-0.042 -0.018,-0.042 -0.017,-0.042 -0.017,-0.043 -0.018,-0.042 m 0,0 -0.348,-0.438 -0.371,-0.236 -0.39,-0.086 -0.606,0.034 -0.616,0.08 -2.482,0.112 -0.626,-0.015 m -1.124,-3.311 0.131,0.417 0.134,0.416 0.137,0.415 0.139,0.414 0.142,0.414 0.144,0.412 0.147,0.412 0.15,0.411 m -1.124,-3.311 0.487,-0.393 2.038,-1.422 0.537,-0.313 0.502,-0.341 0.256,-0.306 0.151,-0.413 0.01,-0.56 m 0,0 -0.012,-0.044 -0.012,-0.044 -0.012,-0.044 -0.012,-0.044 -0.012,-0.044 -0.011,-0.044 -0.012,-0.044 -0.012,-0.044 m -6.003,-4.684 0.076,0.43 0.078,0.43 0.081,0.43 0.084,0.429 0.087,0.428 0.089,0.428 0.092,0.427 0.095,0.427 m -0.682,-3.429 0.534,-0.326 2.206,-1.144 0.574,-0.24 0.542,-0.273 0.294,-0.269 0.204,-0.39 0.082,-0.554 m 0,0 -0.006,-0.045 -0.006,-0.045 -0.006,-0.045 -0.006,-0.046 -0.006,-0.045 -0.006,-0.045 -0.006,-0.045 -0.006,-0.046 m -5.34,-5.427 0.019,0.436 0.021,0.437 0.025,0.436 0.027,0.437 0.03,0.436 0.033,0.436 0.035,0.435 0.038,0.436 m -0.228,-3.489 0.572,-0.253 2.336,-0.847 0.6,-0.163 0.573,-0.199 0.327,-0.229 0.253,-0.361 0.154,-0.538 m 0,0 0,-0.045 0,-0.046 0,-0.045 -10e-4,-0.046 10e-4,-0.046 0,-0.045 0,-0.046 0,-0.046 m 0,0 -0.154,-0.538 -0.253,-0.36 -0.327,-0.229 -0.573,-0.2 -0.6,-0.162 -2.336,-0.847 -0.572,-0.253 m 0.228,-3.489 -0.038,0.436 -0.035,0.435 -0.033,0.436 -0.03,0.436 -0.027,0.436 -0.025,0.437 -0.021,0.436 -0.019,0.437 m 0.228,-3.489 0.601,-0.176 2.427,-0.535 0.616,-0.082 0.594,-0.124 0.354,-0.184 0.297,-0.324 0.223,-0.514 m 0,0 0.006,-0.045 0.006,-0.045 0.006,-0.045 0.006,-0.046 0.006,-0.045 0.006,-0.045 0.006,-0.045 0.006,-0.045 m 0,0 -0.082,-0.554 -0.204,-0.39 -0.294,-0.27 -0.542,-0.273 -0.574,-0.239 -2.206,-1.144 -0.534,-0.326 m 0.682,-3.429 -0.095,0.426 -0.092,0.428 -0.089,0.428 -0.087,0.428 -0.084,0.429 -0.081,0.429 -0.078,0.43 -0.076,0.431 m 0.682,-3.429 0.619,-0.097 2.475,-0.213 0.622,-0.002 0.605,-0.044 0.375,-0.137 0.337,-0.282 0.288,-0.48 m 0,0 0.012,-0.044 0.012,-0.044 0.011,-0.044 0.012,-0.045 0.012,-0.044 0.012,-0.044 0.012,-0.044 0.012,-0.044 m 0,0 -0.01,-0.559 -0.151,-0.414 -0.256,-0.305 -0.502,-0.342 -0.537,-0.312 -2.038,-1.422 -0.487,-0.393 m 1.124,-3.311 -0.15,0.411 -0.147,0.411 -0.144,0.413 -0.142,0.413 -0.139,0.415 -0.137,0.415 -0.134,0.416 -0.131,0.417 m 1.124,-3.311 0.626,-0.015 2.482,0.112 0.616,0.079 0.606,0.035 0.39,-0.086 0.371,-0.236 0.348,-0.438 m 0,0 0.018,-0.043 0.017,-0.042 0.017,-0.042 0.018,-0.042 0.017,-0.042 0.018,-0.042 0.017,-0.043 0.018,-0.042 m 0,0 0.064,-0.556 -0.096,-0.429 -0.214,-0.337 -0.453,-0.404 -0.493,-0.379 -1.834,-1.677 -0.432,-0.453 m 1.547,-3.135 -0.202,0.387 -0.2,0.389 -0.197,0.39 -0.194,0.392 -0.193,0.392 -0.189,0.394 -0.187,0.395 -0.185,0.396 m 1.547,-3.135 0.622,0.066 2.446,0.435 0.601,0.16 0.597,0.113 0.397,-0.035 0.399,-0.185 0.402,-0.389 m 0,0 0.023,-0.04 0.023,-0.039 0.023,-0.04 0.022,-0.039 0.023,-0.04 0.023,-0.039 0.023,-0.04 0.023,-0.039 m 0,0 0.136,-0.543 -0.039,-0.439 -0.169,-0.361 -0.396,-0.46 -0.439,-0.441 -1.599,-1.901 -0.37,-0.505 m 1.943,-2.908 -0.251,0.358 -0.248,0.36 -0.247,0.361 -0.244,0.363 -0.241,0.364 -0.24,0.366 -0.237,0.367 -0.235,0.369 m 1.943,-2.908 0.608,0.148 2.369,0.75 0.575,0.237 0.576,0.19 0.399,0.017 0.42,-0.131 0.449,-0.334 m 0,0 0.028,-0.036 0.028,-0.036 0.027,-0.036 0.028,-0.036 0.028,-0.037 0.028,-0.036 0.028,-0.036 0.027,-0.036 m 0,0 0.206,-0.521 0.019,-0.439 -0.12,-0.381 -0.333,-0.507 -0.377,-0.494 -1.338,-2.094 -0.3,-0.55 m 2.305,-2.628 -0.295,0.322 -0.294,0.324 -0.291,0.326 -0.289,0.327 -0.287,0.33 -0.285,0.331 -0.283,0.334 -0.281,0.334 m 2.305,-2.628 0.584,0.225 2.25,1.054 0.54,0.309 0.546,0.264 0.393,0.069 0.434,-0.076 0.489,-0.271 m 0,0 0.032,-0.033 0.032,-0.032 0.032,-0.032 0.033,-0.033 0.032,-0.032 0.032,-0.032 0.033,-0.032 0.032,-0.033 m 0,0 0.272,-0.489 0.075,-0.433 -0.069,-0.393 -0.264,-0.547 -0.309,-0.539 -1.053,-2.25 -0.226,-0.584 m 2.629,-2.306 -0.335,0.281 -0.333,0.283 -0.332,0.285 -0.329,0.287 -0.328,0.29 -0.326,0.291 -0.324,0.293 -0.322,0.296 m 2.629,-2.306 0.549,0.3 2.094,1.338 0.494,0.377 0.508,0.333 0.38,0.12 0.44,-0.018 0.52,-0.206 m 0,0 0.036,-0.028 0.037,-0.028 0.036,-0.027 0.036,-0.028 0.036,-0.028 0.036,-0.028 0.037,-0.027 0.036,-0.028 m 0,0 0.333,-0.45 0.132,-0.42 -0.017,-0.398 -0.191,-0.576 -0.236,-0.575 -0.751,-2.369 -0.147,-0.608 m 2.907,-1.943 -0.369,0.235 -0.367,0.237 -0.366,0.239 -0.364,0.242 -0.363,0.244 -0.361,0.246 -0.359,0.249 -0.358,0.251 m 2.907,-1.943 0.506,0.369 1.901,1.6 0.44,0.438 0.46,0.397 0.362,0.168 0.438,0.039 0.543,-0.136 m 0,0 0.039,-0.022 0.04,-0.023 0.039,-0.023 0.04,-0.023 0.039,-0.023 0.04,-0.023 0.039,-0.022 0.04,-0.023 m 0,0 0.389,-0.402 0.186,-0.399 0.034,-0.398 -0.113,-0.596 -0.159,-0.601 -0.435,-2.446 -0.067,-0.623 m 3.136,-1.546 -0.396,0.184 -0.395,0.188 -0.394,0.189 -0.393,0.192 -0.391,0.195 -0.391,0.197 -0.388,0.199 -0.388,0.202 m 3.136,-1.546 0.453,0.432 1.676,1.834 0.38,0.492 0.404,0.453 0.336,0.214 0.43,0.096 0.556,-0.063 m 0,0 0.042,-0.018 0.042,-0.018 0.042,-0.017 0.042,-0.018 0.042,-0.017 0.042,-0.017 0.043,-0.018 0.042,-0.017 m 0,0 0.438,-0.348 0.236,-0.372 0.086,-0.389 -0.034,-0.606 -0.08,-0.617 -0.111,-2.482 0.014,-0.626 m 3.311,-1.123 -0.417,0.131 -0.416,0.134 -0.415,0.136 -0.414,0.14 -0.414,0.141 -0.412,0.145 -0.412,0.147 -0.411,0.149 m 3.311,-1.123 0.393,0.487 1.422,2.037 0.313,0.538 0.341,0.502 0.306,0.256 0.413,0.151 0.56,0.009 m 0,0 0.044,-0.012 0.044,-0.011 0.044,-0.012 0.044,-0.012 0.044,-0.012 0.044,-0.012 0.044,-0.011 0.044,-0.012 m 0,0 0.48,-0.288 0.282,-0.337 0.137,-0.375 0.045,-0.606 10e-4,-0.621 0.214,-2.476 0.096,-0.618 m 3.429,-0.682 -0.43,0.075 -0.43,0.079 -0.43,0.081 -0.429,0.084 -0.428,0.087 -0.428,0.089 -0.427,0.092 -0.427,0.095 m 3.429,-0.682 0.326,0.534 1.144,2.206 0.24,0.573 0.273,0.542 0.269,0.295 0.39,0.203 0.554,0.083 m 0,0 0.045,-0.007 0.045,-0.006 0.046,-0.006 0.045,-0.006 0.045,-0.005 0.045,-0.006 0.046,-0.006 0.045,-0.006 m 0,0 0.513,-0.223 0.324,-0.298 0.185,-0.353 0.123,-0.595 0.083,-0.616 0.534,-2.426 0.176,-0.601 m 3.489,-0.229 -0.436,0.019 -0.437,0.022 -0.436,0.024 -0.436,0.028 -0.437,0.03 -0.435,0.032 -0.436,0.036 -0.436,0.038 m 3.489,-0.229 0.254,0.573 0.846,2.336 0.163,0.6 0.2,0.573 0.229,0.327 0.36,0.253 0.538,0.153 m 0,0 0.045,0 0.046,0 0.046,0 0.045,0 0.046,0 0.045,0 0.046,0 0.046,0 m 0,0 0.538,-0.153 0.36,-0.253 0.229,-0.327 0.2,-0.573 0.162,-0.6 0.847,-2.336 0.253,-0.573 m 3.489,0.229 -0.435,-0.038 -0.436,-0.036 -0.436,-0.032 -0.436,-0.03 -0.436,-0.028 -0.437,-0.024 -0.436,-0.022 -0.437,-0.019 m 3.489,0.229 0.176,0.601 0.535,2.426 0.083,0.616 0.123,0.595 0.184,0.353 0.324,0.298 0.514,0.223 m 0,0 0.045,0.006 0.045,0.006 0.045,0.006 0.046,0.005 0.045,0.006 0.045,0.006 0.045,0.006 0.046,0.007 m 0,0 0.553,-0.083 0.39,-0.203 0.27,-0.295 0.273,-0.542 0.239,-0.573 1.144,-2.206 0.326,-0.534 m 3.429,0.682 -0.426,-0.095 -0.428,-0.092 -0.427,-0.089 -0.429,-0.087 -0.429,-0.084 -0.429,-0.081 -0.43,-0.079 -0.431,-0.075 m 3.429,0.682 0.097,0.618 0.213,2.476 0.002,0.621 0.044,0.606 0.137,0.375 0.282,0.337 0.48,0.288 m 0,0 0.044,0.012 0.044,0.011 0.045,0.012 0.044,0.012 0.044,0.012 0.044,0.012 0.044,0.011 0.044,0.012 m 0,0 0.559,-0.009 0.414,-0.151 0.305,-0.256 0.342,-0.502 0.312,-0.538 1.422,-2.037 0.393,-0.487 m 3.311,1.123 -0.411,-0.149 -0.411,-0.147 -0.413,-0.145 -0.413,-0.141 -0.415,-0.14 -0.415,-0.136 -0.416,-0.134 -0.417,-0.131 m 3.311,1.123 0.015,0.626 -0.112,2.482 -0.079,0.617 -0.035,0.606 0.086,0.389 0.236,0.372 0.439,0.348 m 0,0 0.042,0.017 0.042,0.018 0.042,0.017 0.042,0.017 0.042,0.018 0.043,0.017 0.042,0.018 0.042,0.018 m 0,0 0.556,0.063 0.429,-0.096 0.337,-0.214 0.404,-0.453 0.379,-0.492 1.677,-1.834 0.453,-0.432 m 3.136,1.546 -0.388,-0.202 -0.389,-0.199 -0.39,-0.197 -0.392,-0.195 -0.392,-0.192 -0.394,-0.189 -0.395,-0.188 -0.396,-0.184 m 3.136,1.546 -0.067,0.623 -0.435,2.446 -0.159,0.601 -0.114,0.596 0.035,0.398 0.185,0.399 0.389,0.402 m 0,0 0.04,0.023 0.04,0.022 0.039,0.023 0.04,0.023 0.039,0.023 0.04,0.023 0.039,0.023 0.039,0.022 m 0,0 0.543,0.136 0.439,-0.039 0.361,-0.168 0.46,-0.397 0.441,-0.438 1.901,-1.6 0.505,-0.369 m 2.908,1.943 -0.358,-0.251 -0.36,-0.249 -0.361,-0.246 -0.363,-0.244 -0.364,-0.242 -0.366,-0.239 -0.367,-0.237 -0.369,-0.235 m 2.908,1.943 -0.148,0.608 -0.75,2.369 -0.237,0.575 -0.19,0.576 -0.017,0.398 0.131,0.42 0.334,0.45 m 0,0 0.036,0.028 0.036,0.027 0.036,0.028 0.037,0.028 0.036,0.028 0.036,0.027 0.036,0.028 0.036,0.028 m 0,0 0.521,0.206 0.439,0.018 0.381,-0.12 0.507,-0.333 0.495,-0.377 2.093,-1.338 0.55,-0.3 m 2.628,2.306 -0.322,-0.296 -0.324,-0.293 -0.326,-0.291 -0.327,-0.29 -0.33,-0.287 -0.331,-0.285 -0.333,-0.283 -0.335,-0.281 m 2.628,2.306 -0.225,0.584 -1.053,2.25 -0.31,0.539 -0.264,0.547 -0.069,0.393 0.076,0.433 0.272,0.489 m 0,0 0.032,0.033 0.032,0.032 0.033,0.032 0.032,0.032 0.032,0.033 0.032,0.032 0.033,0.032 0.032,0.033 m 0,0 0.489,0.271 0.433,0.076 0.393,-0.069 0.547,-0.264 0.539,-0.309 2.251,-1.054 0.583,-0.225 m 2.306,2.628 -0.281,-0.334 -0.283,-0.334 -0.285,-0.331 -0.287,-0.33 -0.29,-0.327 -0.291,-0.326 -0.293,-0.324 -0.296,-0.322 m 2.306,2.628 -0.3,0.55 -1.338,2.094 -0.377,0.494 -0.333,0.507 -0.12,0.381 0.018,0.439 0.206,0.521 m 0,0 0.028,0.036 0.028,0.036 0.028,0.036 0.027,0.037 0.028,0.036 0.028,0.036 0.027,0.036 0.028,0.036 m 0,0 0.45,0.334 0.42,0.131 0.398,-0.017 0.577,-0.19 0.574,-0.237 2.369,-0.75 0.608,-0.148 m 1.943,2.908 -0.235,-0.369 -0.237,-0.367 -0.239,-0.366 -0.242,-0.364 -0.244,-0.363 -0.246,-0.361 -0.249,-0.36 -0.251,-0.358 m 1.943,2.908 -0.369,0.505 -1.6,1.901 -0.438,0.441 -0.397,0.46 -0.168,0.361 -0.039,0.439 0.136,0.543 m 0,0 0.023,0.039 0.022,0.04 0.023,0.039 0.023,0.04 0.023,0.039 0.023,0.04 0.022,0.039 0.023,0.04 m 0,0 0.402,0.389 0.4,0.185 0.397,0.035 0.596,-0.113 0.601,-0.16 2.446,-0.435 0.623,-0.066 m 1.546,3.135 -0.184,-0.396 -0.187,-0.395 -0.19,-0.394 -0.192,-0.392 -0.195,-0.392 -0.197,-0.39 -0.199,-0.389 -0.202,-0.387 m 1.546,3.135 -0.432,0.453 -1.834,1.677 -0.492,0.379 -0.453,0.404 -0.214,0.337 -0.096,0.429 0.064,0.556 m 0,0 0.017,0.042 0.018,0.043 0.017,0.042 0.018,0.042 0.017,0.042 0.018,0.042 0.017,0.042 0.017,0.043 m 0,0 0.348,0.438 0.372,0.236 0.389,0.086 0.606,-0.035 0.617,-0.079 2.482,-0.112 0.626,0.015 m 1.124,3.311 -0.132,-0.417 -0.134,-0.416 -0.136,-0.415 -0.139,-0.415 -0.142,-0.413 -0.145,-0.413 -0.147,-0.411 -0.149,-0.411 m 1.124,3.311 -0.488,0.393 -2.037,1.422 -0.538,0.312 -0.502,0.342 -0.256,0.305 -0.151,0.414 -0.009,0.559 m 0,0 0.012,0.044 0.012,0.044 0.011,0.044 0.012,0.044 0.012,0.045 0.012,0.044 0.012,0.044 0.011,0.044 m 0,0 0.288,0.48 0.338,0.282 0.374,0.137 0.606,0.044 0.621,0.002 2.476,0.213 0.618,0.097 m 0.683,3.429 -0.076,-0.431 -0.079,-0.43 -0.081,-0.429 -0.084,-0.429 -0.086,-0.428 -0.09,-0.428 -0.092,-0.428 -0.095,-0.426 m 0.683,3.429 -0.535,0.326 -2.206,1.144 -0.573,0.239 -0.542,0.273 -0.294,0.27 -0.204,0.39 -0.082,0.554 m 0,0 0.006,0.045 0.006,0.045 0.006,0.045 0.006,0.045 0.006,0.046 0.006,0.045 0.005,0.045 0.006,0.045 m 0,0 0.223,0.514 0.298,0.324 0.354,0.184 0.594,0.124 0.616,0.082 2.427,0.535 0.6,0.176 m 0.229,3.489 -0.019,-0.437 -0.022,-0.436 -0.024,-0.437 -0.027,-0.436 -0.03,-0.436 -0.033,-0.436 -0.036,-0.435 -0.038,-0.436 m 0.229,3.489 -0.573,0.253 -2.336,0.847 -0.6,0.162 -0.573,0.2 -0.327,0.229 -0.252,0.36 -0.154,0.538 m 0,0 0,0.046 0,0.046 0,0.045 0,0.046 0,0.046 0,0.045 0,0.046 0,0.045 m 0,0 0.154,0.538 0.252,0.361 0.327,0.229 0.573,0.199 0.6,0.163 2.336,0.847 0.573,0.253 m -0.229,3.489 0.038,-0.436 0.036,-0.435 0.033,-0.436 0.03,-0.436 0.027,-0.437 0.024,-0.436 0.022,-0.437 0.019,-0.436 m -131.084,13.669 -0.288,-0.48 -0.337,-0.282 -0.375,-0.137 -0.605,-0.045 -0.622,-0.001 -2.475,-0.213 -0.619,-0.097 m 3.706,-6.987 -0.223,-0.513 -0.297,-0.324 -0.354,-0.184 -0.594,-0.124 -0.616,-0.082 -2.427,-0.535 -0.601,-0.176 m -0.205,8.604 -0.058,-0.274 -0.058,-0.273 -0.056,-0.274 -0.055,-0.275 -0.054,-0.274 -0.053,-0.275 -0.052,-0.275 -0.051,-0.275 m 1.366,-0.913 -1.366,0.913 m 0.437,2.195 1.611,0.321 m 0.92,8.558 -0.094,-0.264 -0.092,-0.264 -0.092,-0.264 -0.09,-0.265 -0.09,-0.265 -0.088,-0.266 -0.087,-0.265 -0.087,-0.267 m 1.235,-1.083 -1.235,1.083 m 0.72,2.12 1.639,0.108 m -2.359,-45.477 0.087,-0.266 0.087,-0.265 0.088,-0.266 0.09,-0.265 0.09,-0.265 0.092,-0.264 0.092,-0.264 0.094,-0.264 m 1.639,-0.108 -1.639,0.108 m -0.72,2.119 1.235,1.084 m -3.483,7.871 0.051,-0.275 0.052,-0.275 0.053,-0.275 0.054,-0.274 0.055,-0.275 0.056,-0.274 0.058,-0.274 0.058,-0.273 m 1.611,-0.321 -1.611,0.321 m -0.437,2.195 1.366,0.913 m -2.425,8.258 0.014,-0.279 0.016,-0.28 0.016,-0.279 0.018,-0.279 0.019,-0.279 0.02,-0.279 0.021,-0.279 0.022,-0.279 m 1.555,-0.529 -1.555,0.529 m -0.146,2.233 1.473,0.727 m -1.327,8.504 -0.022,-0.279 -0.021,-0.279 -0.02,-0.279 -0.019,-0.279 -0.018,-0.279 -0.016,-0.279 -0.016,-0.28 -0.014,-0.279 m 1.473,-0.727 -1.473,0.727 m 0.146,2.233 1.555,0.529 m 5.994,25.955 -0.128,-0.249 -0.126,-0.25 -0.125,-0.25 -0.124,-0.251 -0.124,-0.251 -0.122,-0.252 -0.121,-0.252 -0.12,-0.252 m 1.082,-1.236 -1.082,1.236 m 0.99,2.007 1.639,-0.107 m -2.629,-62.318 0.12,-0.253 0.121,-0.252 0.122,-0.251 0.124,-0.251 0.124,-0.251 0.125,-0.25 0.126,-0.25 0.128,-0.249 m 1.639,0.107 -1.639,-0.107 m -0.99,2.007 1.082,1.235 m 8.91,-16.715 0.181,-0.213 0.183,-0.212 0.183,-0.212 0.184,-0.21 0.185,-0.21 0.186,-0.209 0.186,-0.209 0.187,-0.208 m 1.556,0.528 -1.556,-0.528 m -1.475,1.683 0.726,1.473 m -4.986,84.353 -0.159,-0.23 -0.158,-0.231 -0.156,-0.232 -0.156,-0.232 -0.155,-0.233 -0.154,-0.234 -0.153,-0.234 -0.153,-0.235 m 0.912,-1.366 -0.912,1.366 m 1.244,1.861 1.611,-0.32 m -2.855,-78.093 0.153,-0.235 0.153,-0.234 0.154,-0.234 0.155,-0.233 0.156,-0.232 0.156,-0.232 0.158,-0.231 0.159,-0.23 m 1.611,0.319 -1.611,-0.319 m -1.244,1.861 0.912,1.366 m 6.067,84.282 -0.187,-0.208 -0.186,-0.209 -0.186,-0.209 -0.185,-0.21 -0.184,-0.211 -0.183,-0.211 -0.183,-0.212 -0.181,-0.213 m 0.726,-1.474 -0.726,1.474 m 1.475,1.683 1.556,-0.528 m 3.393,-99.164 0.207,-0.187 0.209,-0.187 0.209,-0.186 0.21,-0.184 0.211,-0.184 0.211,-0.184 0.212,-0.182 0.213,-0.182 m 1.474,0.726 -1.474,-0.726 m -1.682,1.476 0.527,1.556 m 1.155,104.559 -0.213,-0.181 -0.212,-0.183 -0.211,-0.183 -0.211,-0.184 -0.21,-0.185 -0.209,-0.185 -0.209,-0.187 -0.207,-0.187 m 0.527,-1.556 -0.527,1.556 m 1.682,1.475 1.474,-0.726 m 4.078,-111.125 0.23,-0.158 0.231,-0.158 0.232,-0.157 0.233,-0.156 0.232,-0.155 0.234,-0.154 0.234,-0.153 0.235,-0.152 m 1.366,0.912 -1.366,-0.912 m -1.861,1.243 0.32,1.612 m 7.601,-6.354 0.249,-0.127 0.25,-0.126 0.25,-0.125 0.251,-0.125 0.251,-0.123 0.252,-0.122 0.252,-0.121 0.252,-0.121 m 1.236,1.083 -1.236,-1.083 m -2.007,0.99 0.107,1.639 m -6.167,120.458 -0.235,-0.152 -0.234,-0.154 -0.234,-0.154 -0.232,-0.155 -0.233,-0.155 -0.232,-0.157 -0.231,-0.158 -0.23,-0.159 m 0.32,-1.611 -0.32,1.611 m 1.861,1.244 1.366,-0.912 m 6.701,5.401 -0.252,-0.121 -0.252,-0.121 -0.252,-0.122 -0.251,-0.123 -0.251,-0.125 -0.25,-0.125 -0.25,-0.126 -0.249,-0.127 m 0.107,-1.64 -0.107,1.64 m 2.007,0.99 1.236,-1.083 m 5.229,-129.171 0.264,-0.093 0.264,-0.093 0.265,-0.091 0.264,-0.091 0.265,-0.089 0.266,-0.088 0.266,-0.088 0.266,-0.086 m 1.083,1.235 -1.083,-1.235 m -2.12,0.719 -0.108,1.639 m 2.228,132.012 -0.266,-0.086 -0.266,-0.088 -0.266,-0.088 -0.265,-0.089 -0.264,-0.091 -0.265,-0.091 -0.264,-0.093 -0.264,-0.094 m -0.108,-1.639 0.108,1.639 m 2.12,0.72 1.083,-1.235 m 5.676,-134.946 0.274,-0.059 0.274,-0.057 0.274,-0.056 0.274,-0.055 0.274,-0.054 0.275,-0.053 0.275,-0.052 0.275,-0.051 m 0.913,1.366 -0.913,-1.366 m -2.195,0.437 -0.321,1.611 m 2.516,136.818 -0.275,-0.051 -0.275,-0.052 -0.275,-0.053 -0.274,-0.054 -0.274,-0.055 -0.274,-0.056 -0.274,-0.058 -0.274,-0.058 m -0.321,-1.611 0.321,1.611 m 2.195,0.437 0.913,-1.366 m 6.025,-138.413 -0.529,1.555 m 0.529,-1.555 0.279,-0.022 0.279,-0.021 0.279,-0.02 0.279,-0.019 0.279,-0.018 0.28,-0.017 0.279,-0.015 0.279,-0.015 m 0.727,1.473 -0.727,-1.473 m 0,140.985 -0.279,-0.014 -0.279,-0.016 -0.28,-0.016 -0.279,-0.018 -0.279,-0.019 -0.279,-0.02 -0.279,-0.021 -0.279,-0.022 m -0.529,-1.555 0.529,1.555 m 2.233,0.146 0.727,-1.473 m 6.271,-139.512 0.279,0.015 0.28,0.015 0.279,0.017 0.279,0.018 0.279,0.019 0.28,0.02 0.279,0.021 0.278,0.022 m 0.529,1.555 -0.529,-1.555 m -2.233,-0.147 -0.727,1.473 m 2.96,139.366 -0.278,0.022 -0.279,0.021 -0.28,0.02 -0.279,0.019 -0.279,0.018 -0.279,0.016 -0.28,0.016 -0.279,0.014 m -0.727,-1.473 0.727,1.473 m 2.233,-0.146 0.529,-1.555 m 6.409,-138.224 0.275,0.051 0.275,0.052 0.275,0.053 0.275,0.054 0.274,0.055 0.274,0.056 0.274,0.057 0.273,0.059 m 0.321,1.611 -0.321,-1.611 m -2.195,-0.437 -0.913,1.366 m 3.108,137.063 -0.273,0.058 -0.274,0.058 -0.274,0.056 -0.274,0.055 -0.275,0.054 -0.275,0.053 -0.275,0.052 -0.275,0.051 m -0.913,-1.366 0.913,1.366 m 2.195,-0.437 0.321,-1.611 m 8.558,-0.92 -0.264,0.094 -0.264,0.093 -0.264,0.091 -0.265,0.091 -0.265,0.089 -0.265,0.088 -0.266,0.088 -0.266,0.086 m -1.084,-1.235 1.084,1.235 m 2.119,-0.72 0.108,-1.639 m -2.227,-132.011 0.266,0.086 0.266,0.088 0.265,0.088 0.265,0.089 0.265,0.091 0.264,0.091 0.264,0.093 0.264,0.093 m 0.108,1.639 -0.108,-1.639 m -2.119,-0.719 -0.552,0.611 -0.532,0.624 m 9.668,2.162 0.253,0.121 0.252,0.121 0.251,0.122 0.252,0.123 0.25,0.125 0.25,0.125 0.25,0.126 0.249,0.127 m -0.106,1.639 0.106,-1.639 m -2.007,-0.99 -1.235,1.083 m 9.303,3.406 0.234,0.152 0.234,0.153 0.234,0.154 0.233,0.155 0.232,0.156 0.232,0.157 0.231,0.158 0.23,0.158 m -0.319,1.612 0.171,-0.801 0.148,-0.811 m -1.86,-1.243 -1.367,0.912 m -4.694,121.185 -0.249,0.127 -0.25,0.126 -0.25,0.125 -0.25,0.125 -0.252,0.123 -0.251,0.122 -0.252,0.121 -0.253,0.121 m -1.235,-1.083 1.235,1.083 m 2.007,-0.99 -0.106,-1.64 m 8.027,-3.103 -0.23,0.159 -0.231,0.158 -0.232,0.157 -0.232,0.155 -0.233,0.155 -0.234,0.154 -0.234,0.154 -0.234,0.152 m -1.367,-0.912 1.367,0.912 m 1.86,-1.244 -0.319,-1.611 m 7.554,-4.124 -0.208,0.187 -0.208,0.187 -0.21,0.185 -0.21,0.185 -0.21,0.184 -0.212,0.183 -0.212,0.183 -0.213,0.181 m -1.473,-0.726 1.473,0.726 m 1.683,-1.475 -0.528,-1.556 m -1.155,-104.56 0.213,0.182 0.212,0.182 0.212,0.184 0.21,0.184 0.21,0.184 0.21,0.186 0.208,0.187 0.208,0.187 m -0.528,1.556 0.528,-1.556 m -1.683,-1.476 -1.473,0.726 m 8.104,5.698 0.187,0.208 0.187,0.209 0.186,0.209 0.185,0.21 0.184,0.21 0.183,0.212 0.182,0.212 0.182,0.213 m -0.726,1.473 0.726,-1.473 m -1.476,-1.683 -1.556,0.528 m 7.292,6.707 0.158,0.23 0.158,0.231 0.157,0.232 0.156,0.232 0.155,0.233 0.154,0.234 0.153,0.234 0.152,0.235 m -0.912,1.366 0.912,-1.366 m -1.243,-1.861 -1.612,0.319 m 2.855,78.094 -0.152,0.235 -0.153,0.234 -0.154,0.234 -0.155,0.233 -0.156,0.232 -0.157,0.232 -0.158,0.231 -0.158,0.23 m -1.612,-0.32 1.612,0.32 m 1.243,-1.861 -0.912,-1.366 m -4.591,8.779 -0.182,0.213 -0.182,0.212 -0.183,0.211 -0.184,0.211 -0.185,0.21 -0.186,0.209 -0.187,0.209 -0.187,0.208 m -1.556,-0.528 1.556,0.528 m 1.476,-1.683 -0.726,-1.474 m 10.718,-14.006 -0.12,0.252 -0.122,0.252 -0.122,0.252 -0.123,0.251 -0.124,0.251 -0.126,0.25 -0.126,0.25 -0.127,0.249 m -1.639,-0.107 1.639,0.107 m 0.99,-2.007 -1.083,-1.236 m 0.093,-61.189 0.127,0.249 0.126,0.25 0.126,0.25 0.124,0.251 0.123,0.251 0.122,0.251 0.122,0.252 0.12,0.253 m -1.083,1.235 0.549,-0.608 0.534,-0.627 m -0.99,-2.007 -1.639,0.107 m 9.187,26.377 0.023,0.279 0.021,0.279 0.02,0.279 0.018,0.279 0.018,0.279 0.017,0.279 0.015,0.28 0.015,0.279 m -1.473,0.727 1.473,-0.727 m -0.147,-2.233 -1.555,-0.529 m 1.702,9.76 -0.015,0.279 -0.015,0.28 -0.017,0.279 -0.018,0.279 -0.018,0.279 -0.02,0.279 -0.021,0.279 -0.023,0.279 m -1.555,0.529 1.555,-0.529 m 0.147,-2.233 -1.473,-0.727 m -0.024,-17.637 0.059,0.273 0.057,0.274 0.056,0.274 0.055,0.275 0.054,0.274 0.053,0.275 0.052,0.275 0.051,0.275 m -1.365,0.913 1.365,-0.913 m -0.437,-2.195 -1.611,-0.321 m -0.2,36.81 -0.086,0.267 -0.087,0.265 -0.089,0.266 -0.089,0.265 -0.091,0.265 -0.091,0.264 -0.093,0.264 -0.093,0.264 m -1.639,0.108 1.639,-0.108 m 0.719,-2.12 -1.234,-1.083 m 0.515,-44.285 0.093,0.264 0.093,0.264 0.091,0.264 0.091,0.265 0.089,0.265 0.089,0.266 0.087,0.265 0.086,0.266 m -1.234,1.084 1.234,-1.084 m -0.719,-2.119 -1.639,-0.108 m 4.606,36.522 -0.051,0.275 -0.052,0.275 -0.053,0.275 -0.054,0.274 -0.055,0.275 -0.056,0.274 -0.057,0.273 -0.059,0.274 m -1.611,0.321 1.611,-0.321 m 0.437,-2.195 -1.365,-0.913"
             id="path3264"
             style="fill:none;stroke:#000000;stroke-width:0.99212599;stroke-linecap:round;stroke-linejoin:round" />
        </g>
      </g>
    </g>
  </g>
</svg>
