<?xml version="1.0" encoding="UTF-8" standalone="no"?>
<!-- Created with Inkscape (http://www.inkscape.org/) -->

<svg
   xmlns:dc="http://purl.org/dc/elements/1.1/"
   xmlns:cc="http://creativecommons.org/ns#"
   xmlns:rdf="http://www.w3.org/1999/02/22-rdf-syntax-ns#"
   xmlns:svg="http://www.w3.org/2000/svg"
   xmlns="http://www.w3.org/2000/svg"
   version="1.1"
   width="744.09448"
   height="1052.3622"
   id="svg3697">
  <defs
     id="defs3699" />
  <metadata
     id="metadata3702">
    <rdf:RDF>
      <cc:Work
         rdf:about="">
        <dc:format>image/svg+xml</dc:format>
        <dc:type
           rdf:resource="http://purl.org/dc/dcmitype/StillImage" />
        <dc:title></dc:title>
      </cc:Work>
    </rdf:RDF>
  </metadata>
  <g
     id="layer1">
    <path
       d="m 149.39659,487.48225 c 0.8148,-1.52242 0.7623,-2.1199 -0.2148,-2.44474 -0.7112,-0.23645 -8.7181,-2.50201 -17.7931,-5.03456 -9.075,-2.53256 -22.9523,-6.4675 -30.8385,-8.74431 -14.052896,-4.05719 -16.834996,-4.2411 -17.855296,-1.18031 -0.3113,0.93402 7.8825,3.50556 31.693796,9.94676 6.875,1.85976 17,4.71862 22.5,6.35301 12.1909,3.6227 11.2065,3.5358 12.5079,1.10415 z m 178.45309,-1.48516 c -1.83312,-7.7 -4.71988,-19.625 -6.41503,-26.5 -6.18272,-25.07523 -8.06379,-32.8227 -12.01852,-49.5 -2.21719,-9.35 -4.7054,-19.28955 -5.52935,-22.08789 -0.82396,-2.79834 -1.4981,-5.91428 -1.4981,-6.92432 0,-1.6453 -0.26017,-1.592 -2.5,0.51221 -1.375,1.29174 -2.5,3.06856 -2.5,3.94848 0,1.60287 2.76684,11.3563 18.02822,63.55152 4.50282,15.4 8.99671,30.925 9.98644,34.5 2.8473,10.28472 5.09312,17.22724 5.45034,16.84863 0.18092,-0.19174 -1.17088,-6.64863 -3.004,-14.34863 z m -43.25654,17.34266 -0.43068,-34.65734 -4.13689,-1.48429 c -2.27529,-0.81636 -6.16189,-2.13452 -8.63689,-2.92925 -8.51027,-2.73265 -38.51287,-12.98882 -48.44017,-16.55891 l -9.94018,-3.57473 -5.34964,5.88664 -5.3497,5.88663 41.24595,41.25488 c 22.68524,22.69019 41.29607,41.16012 41.35739,41.0443 0.0613,-0.11583 -0.0823,-15.80639 -0.31919,-34.86793 z m -18.11066,27.86998 c -4.41212,-4.35083 -7.50196,-6.71667 -7.78736,-5.96264 -0.26021,0.6875 -1.35405,1.25 -2.43076,1.25 -2.09934,0 -24.76175,-8.47187 -62.87567,-23.50476 -1.925,-0.75926 -7.775,-3.01059 -13,-5.00296 -5.225,-1.99237 -12.1944,-4.7517 -15.4876,-6.13184 l -5.9876,-2.50934 -2.2624,2.63021 c -1.2443,1.44662 -2.2624,3.91868 -2.2624,5.49347 0,2.54298 0.4754,2.97655 4.25,3.87615 3.947,0.9407 31.848,10.08153 43.25,14.16946 2.75,0.98595 17.82499,5.94201 33.49999,11.01348 27.9971,9.05814 29.96974,9.7188 35,11.72199 1.375,0.54757 2.70431,0.80969 2.95402,0.5825 0.24972,-0.22719 -2.83738,-3.65876 -6.86022,-7.62572 z m 81.6562,9.53736 c 0.26165,-0.78495 -0.54444,-1.25 -2.16667,-1.25 -2.27468,0 -2.58333,-0.409 -2.58333,-3.42327 0,-2.2346 0.91001,-4.50477 2.62074,-6.53785 2.52493,-3.00071 2.55582,-3.1863 0.84501,-5.07673 -2.55726,-2.82573 -3.06099,-2.51084 -4.45968,2.78785 -0.68962,2.6125 -1.8731,6.67823 -2.62996,9.03495 -1.69976,5.29273 -1.71604,5.00294 0.30278,5.39173 3.69603,0.71179 7.67732,0.25468 8.07111,-0.92668 z m 44.94951,-13.52407 c 2.37492,-9.47426 4.50999,-18.24229 4.7446,-19.48451 0.23461,-1.24221 0.72508,-3.19914 1.08994,-4.34872 0.56395,-1.77682 0.34878,-1.99029 -1.43533,-1.42403 -1.66965,0.52993 -2.09872,0.24345 -2.09872,-1.40128 0,-3.11084 -1.10368,-2.49041 -5.5,3.09184 -3.80649,4.8333 -7.55577,9.27739 -18.52418,21.95703 l -4.85829,5.61626 2.48829,1.13374 c 1.36856,0.62356 3.35514,1.13374 4.41462,1.13374 1.05949,0 4.75081,2.65854 8.20295,5.90787 3.45213,3.24932 6.47494,5.71349 6.71735,5.47593 0.24241,-0.23757 2.38385,-8.18361 4.75877,-17.65787 z m 2.83361,10.52407 c 1.98107,-6.4625 5.14655,-16.47584 7.03441,-22.25188 3.65798,-11.19185 3.9304,-12.42389 2.55974,-11.57678 -0.47999,0.29666 -1.17504,-2.52865 -1.54453,-6.27846 l -0.67181,-6.81783 -3.57355,0.12409 c -2.52718,0.0878 -4.19779,0.87939 -5.70546,2.70356 -6.48095,7.84148 -6.0558,7.47136 -6.42956,5.5973 -0.19195,-0.9625 -0.68341,-1.75 -1.09212,-1.75 -0.40871,0 -3.06365,3.2625 -5.89987,7.25 -2.83622,3.9875 -8.27126,11.525 -12.07787,16.75 -3.8066,5.225 -6.46662,9.66735 -5.91115,9.87188 0.55548,0.20454 1.29541,-0.0774 1.6443,-0.62648 0.34889,-0.5491 2.88435,-3.60546 5.63435,-6.7919 9.83447,-11.39529 13.0892,-15.20131 19.43067,-22.72186 3.53687,-4.1945 6.79937,-7.39849 7.25,-7.11998 0.45063,0.27851 0.81933,1.67456 0.81933,3.10234 0,2.53528 0.0469,2.55353 2.00613,0.78045 1.10337,-0.99854 2.29775,-1.5239 2.65417,-1.16748 0.35643,0.35642 -2.17097,11.86631 -5.61644,25.57754 -5.4492,21.68504 -6.3516,27.09549 -4.51925,27.09549 0.22362,0 2.02745,-5.2875 4.00851,-11.75 z m -7.53312,20.21119 c 0,-0.6129 -3.49985,-4.52022 -7.77743,-8.68294 -6.27177,-6.10335 -8.81635,-7.8771 -13.14385,-9.16223 -7.36967,-2.18856 -14.97909,-0.92225 -15.06341,2.50675 -0.008,0.34252 2.34719,0.84574 5.23469,1.11826 5.18907,0.48973 5.36606,0.61929 15.25,11.16267 l 10,10.66719 2.75,-3.24767 c 1.5125,-1.78622 2.75,-3.74913 2.75,-4.36203 z m 62.85659,6.78881 c 1.38708,-9.51207 2.69945,-17.70935 4.18924,-26.16678 1.26164,-7.16226 1.20879,-8.11816 -0.41441,-7.49528 -0.83465,0.32029 -1.59944,-0.35765 -1.96034,-1.73771 -0.32546,-1.24459 -0.78291,-2.05754 -1.01655,-1.80656 -1.18684,1.27494 -19.65453,32.38662 -19.65453,33.1111 0,0.46488 1.28931,0.84523 2.86514,0.84523 3.4816,0 6.82679,2.50495 10.58246,7.92438 1.55342,2.24159 3.11884,4.07562 3.47871,4.07562 0.35988,0 1.2285,-3.9375 1.93028,-8.75 z m -42.35659,8.75 1.55136,-3 -4.27568,-0.008 c -3.71339,-0.007 -4.86747,-0.59292 -8.77568,-4.45458 -5.15767,-5.09623 -6.23169,-5.40988 -7.83223,-2.28724 -0.63429,1.2375 -1.70808,3.0238 -2.38619,3.96955 -1.04662,1.4597 -0.71583,2.25307 2.18891,5.25 3.29907,3.40378 3.68298,3.53045 10.7,3.53045 7.07542,0 7.32136,-0.0836 8.82951,-3 z m 47.93622,-10.5 c 1.51959,-6.6 4.00415,-17.06754 5.52124,-23.26121 2.39269,-9.76837 2.5452,-11.22657 1.15044,-11 -1.34135,0.21791 -1.65635,-1.02563 -1.90019,-7.50134 -0.2742,-7.28217 -0.41014,-7.69948 -2.19661,-6.74339 -1.44551,0.77361 -2.11295,0.64636 -2.77026,-0.52819 -0.6767,-1.20919 -1.83176,-0.0633 -5.28531,5.24339 -3.6538,5.61437 -4.47786,6.40097 -4.757,4.54074 -0.1857,-1.2375 -0.64383,-2.23227 -1.01808,-2.2106 -0.73332,0.0425 -20.31721,38.96523 -20.23185,40.2106 0.10922,1.59357 2.63793,0.64279 3.98943,-1.5 8.17252,-12.95745 22.06197,-36.16434 22.06197,-36.86178 0,-0.48852 0.675,-0.88822 1.5,-0.88822 0.95668,0 1.5,0.96167 1.5,2.65499 0,2.59435 0.0458,2.61352 2.00613,0.83946 1.10337,-0.99854 2.23627,-1.58539 2.51754,-1.30411 0.55811,0.55811 -0.34296,7.21874 -4.57386,33.80966 -2.39997,15.08364 -2.6894,17.51683 -2.18614,18.37842 0.84935,1.45408 1.77627,-1.29907 4.67255,-13.87842 z m -150.13465,16.78886 c 4.23729,-1.51878 5.42784,-2.66519 10.13052,-9.75495 5.72517,-8.63126 9.61653,-17.45468 14.34831,-32.53391 4.80731,-15.31991 5.76714,-19.89215 4.57814,-21.80847 -0.57724,-0.93034 -1.60351,-4.01056 -2.2806,-6.84492 -0.80843,-3.38417 -1.83285,-5.31076 -2.98395,-5.61178 -1.17394,-0.30699 -2.33051,-2.56827 -3.50181,-6.84661 -0.96191,-3.51352 -3.10032,-10.83187 -4.75201,-16.263 -1.65168,-5.43113 -3.16488,-10.60613 -3.36265,-11.5 -0.19778,-0.89387 -1.97875,-7.02522 -3.95772,-13.62522 -4.23613,-14.12779 -3.85711,-12.84061 -5.44745,-18.5 -4.33754,-15.43551 -14.18573,-48.44671 -14.56671,-48.82769 -0.2506,-0.2506 -1.39628,0.62061 -2.54597,1.93603 -2.06869,2.3669 -2.08395,2.80573 -1.47366,42.39166 0.86741,56.26493 2.3875,147.96495 2.45634,148.18045 0.0859,0.26882 4.26873,1.0268 6.55765,1.18831 1.1,0.0776 4.16071,-0.63333 6.80157,-1.5799 z m 141.09061,7.13151 c 0.39301,-1.02416 -1.51477,-4.17521 -5.42536,-8.96097 -3.31733,-4.05974 -6.57504,-7.71726 -7.23934,-8.12783 -1.24594,-0.77003 -15.98653,-0.57926 -18.82572,0.24364 -1.75464,0.50856 -4.12554,4.86768 -3.1682,5.82502 0.32988,0.32987 4.91227,0.61218 10.18311,0.62735 l 9.58333,0.0276 6.41851,5.97242 c 3.53018,3.28483 6.74454,5.97242 7.14301,5.97242 0.39848,0 0.99727,-0.71083 1.33066,-1.57963 z m 52.46112,-6.67037 c 11.58797,-7.2875 34.24901,-21.62911 50.35787,-31.87025 16.10886,-10.24113 32.52008,-20.59113 36.46939,-23 3.94931,-2.40886 7.65216,-5.39225 8.22856,-6.62975 0.5764,-1.2375 0.81813,-2.25 0.53718,-2.25 -0.28095,0 -3.58457,2.025 -7.34139,4.5 -3.75681,2.475 -7.15623,4.5 -7.55426,4.5 -0.39803,0 -2.59726,1.30365 -4.88717,2.897 -3.40718,2.37076 -25.20818,15.70193 -47.46799,29.02637 -2.36748,1.41715 -6.64248,4.01726 -9.5,5.77803 -2.85752,1.76077 -7.22049,4.36281 -9.69549,5.7823 -2.475,1.4195 -6.525,3.90184 -9,5.5163 -2.475,1.61446 -6.525,4.08946 -9,5.5 -9.61283,5.47848 -13.49608,8.17819 -13.4,9.31591 0.28827,3.41334 0.43418,4.18409 0.79213,4.18409 0.21567,0 9.87319,-5.9625 21.46117,-13.25 z M 458.27037,593.729 c 1.15875,-2.27133 3.94736,-5.08027 7.02032,-7.07148 2.8039,-1.81686 5.09799,-3.67243 5.09799,-4.1235 0,-0.45106 -1.23057,-1.12897 -2.73459,-1.50645 -2.81489,-0.70649 -4.45382,0.54291 -8.26541,6.30097 -1.43887,2.17365 -3.86828,2.8947 -6.94061,2.05996 -2.81662,-0.76527 -2.39962,3.42524 0.57794,5.80792 1.57447,1.2599 2.96602,2.29297 3.09235,2.2957 0.12632,0.003 1.09472,-1.69067 2.15201,-3.76312 z m -75.42633,25.51809 c 3.78918,-6.7375 9.75075,-17.1486 13.24792,-23.13578 3.49717,-5.98718 6.11637,-11.12791 5.82043,-11.42384 -0.29594,-0.29594 -3.29232,-0.42567 -6.65863,-0.28828 l -6.12055,0.2498 -4.66239,-4.96607 -4.66239,-4.96606 -6.85226,11.64011 c -3.76874,6.40207 -8.73918,14.79012 -11.04543,18.64012 -7.64451,12.76161 -9.45833,16.2304 -8.82039,16.86834 1.27031,1.2703 3.07837,0.58078 3.58808,-1.36834 0.74601,-2.85274 4.21735,-2.55148 12.17474,1.05657 6.6274,3.00501 6.73433,3.11465 6.33911,6.5 -0.2211,1.89389 -0.14002,3.44343 0.18017,3.44343 0.32019,0 3.6824,-5.5125 7.47159,-12.25 z m 232.52957,24 c 0.71777,-2.3375 1.87048,-6.05 2.56156,-8.25 0.69108,-2.2 1.05004,-4.33627 0.79769,-4.74726 -0.25235,-0.41099 -3.47053,-2.18296 -7.1515,-3.93772 -3.68097,-1.75476 -8.04268,-4.18066 -9.69268,-5.39089 -1.65,-1.21023 -5.25,-3.38942 -8,-4.84265 -2.75,-1.45324 -8.825,-4.85344 -13.5,-7.556 -4.675,-2.70257 -11.875,-6.7544 -16,-9.00408 -4.125,-2.24967 -9.01271,-5.04556 -10.86159,-6.21308 -1.84887,-1.16752 -5.77273,-2.68325 -8.71968,-3.36829 l -5.35811,-1.24554 -4.28031,3.70764 c -2.35417,2.03919 -5.85531,4.77688 -7.78031,6.08374 -1.925,1.30687 -5.3,3.88676 -7.5,5.73309 -8.00599,6.71898 -17.10966,13.92743 -21.86763,17.3152 -5.31212,3.78232 -6.63237,6.13807 -6.63237,11.8343 l 0,3.73826 13.25,1.23522 c 7.2875,0.67937 17.75,1.65738 23.25,2.17337 17.57376,1.64868 31.65175,2.91012 45,4.03217 7.15,0.60102 16.375,1.45283 20.5,1.89291 4.125,0.44008 10.46547,0.85852 14.08994,0.92987 l 6.58994,0.12974 1.30505,-4.25 z m -154.79221,-2.4086 c 3.01093,-2.28722 7.51514,-5.88722 10.00935,-8 2.49421,-2.11277 5.78938,-4.7414 7.32259,-5.8414 1.53322,-1.1 6.727,-5.15 11.54173,-9 11.77492,-9.41556 33.51484,-26.37646 37.99434,-29.64215 1.9933,-1.45318 7.19651,-5.95318 11.56267,-10 4.36617,-4.04682 13.29147,-12.08285 19.834,-17.85785 6.54254,-5.775 14.62861,-13.04762 17.96906,-16.16137 3.34045,-3.11376 7.93293,-7.16376 10.20552,-9 2.39757,-1.93723 4.58765,-4.78642 5.21752,-6.78778 1.26294,-4.0128 0.84881,-4.87529 -1.43199,-2.98239 -0.89695,0.7444 -2.4745,1.82103 -3.50567,2.3925 -2.32228,1.28699 -24.73148,15.43221 -43.41184,27.40257 -7.7,4.93415 -22.1,14.04563 -32,20.24771 -9.9,6.20209 -21.35838,13.44482 -25.46307,16.09495 -4.10469,2.65014 -7.91728,4.66703 -8.47242,4.48198 -0.55514,-0.18505 -1.25917,-1.39472 -1.56451,-2.68817 -0.30534,-1.29345 -1.02602,-2.50867 -1.60151,-2.7005 -1.88889,-0.62963 -10.35182,6.659 -11.01801,9.48917 -0.35102,1.49123 -1.46881,4.28633 -2.48399,6.21133 -9.11095,17.27643 -13.76893,33.95693 -11.28786,40.42249 0.54661,1.42444 0.83795,1.4073 2.85915,-0.16821 1.23778,-0.96486 4.71401,-3.62565 7.72494,-5.91288 z m -284.20791,14.4086 c 1.6261,-1.7875 2.9697,-3.53018 2.9859,-3.87262 0.016,-0.34244 -4.3582,-5.30908 -9.7207,-11.03698 -5.3625,-5.7279 -17.625,-18.9362 -27.25,-29.35179 -9.625,-10.41559 -20.875,-22.58299 -25,-27.03866 -4.125,-4.45567 -14.7,-15.92183 -23.499996,-25.48036 -8.8,-9.55852 -20.274997,-21.9084 -25.499997,-27.44417 -5.225,-5.53577 -16.025,-17.21322 -24,-25.94988 -7.975,-8.73666 -16.8057,-18.37125 -19.6238,-21.4102 l -5.1239,-5.52535 -2.6862,4.25522 c -3.0292,4.79865 -3.2752,4.11373 4.5275,12.60479 2.527,2.75 12.4146,13.55 21.9723,24 9.5578,10.45 18.1155,19.675 19.0172,20.5 0.9018,0.825 8.5644,9.05648 17.0282,18.29217 8.463797,9.2357 20.113697,21.91232 25.888693,28.17028 5.775,6.25795 20.3656,22.10147 32.4235,35.20782 21.2311,23.07712 34.714,37.32973 35.3138,37.32973 0.16,0 1.6213,-1.4625 3.2475,-3.25 z m 431.56116,48.5 c 1.45079,-3.45907 1.4422,-3.82758 -0.1107,-4.75 -0.92593,-0.55 -3.09016,-1.90724 -4.80939,-3.0161 -1.71924,-1.10885 -6.50088,-3.99162 -10.62588,-6.40614 -4.125,-2.41452 -9.3,-5.52274 -11.5,-6.90715 -8.43159,-5.30581 -11.602,-7.23087 -31.73723,-19.27076 -11.40548,-6.81992 -21.98048,-13.16061 -23.5,-14.09043 -1.66499,-1.01883 -5.94156,-1.92437 -10.76277,-2.27894 -4.4,-0.3236 -9.4625,-0.85042 -11.25,-1.17071 -5.08421,-0.91101 -3.93674,1.24332 2.5,4.69366 3.1625,1.69522 9.125,5.04618 13.25,7.44657 4.125,2.40039 9.975,5.76726 13,7.48193 3.025,1.71466 8.875,5.11206 13,7.54976 4.125,2.43771 9.975,5.81271 13,7.5 3.025,1.6873 8.875,5.0618 13,7.4989 4.125,2.4371 9.75,5.62373 12.5,7.08139 2.75,1.45767 5.225,2.98325 5.5,3.39019 0.275,0.40693 3.27972,2.13784 6.67715,3.84647 3.39744,1.70863 6.46149,3.56667 6.80902,4.12898 1.30149,2.10586 3.5383,0.90005 5.0598,-2.72762 z m -338.34749,27.76365 c 3.61374,-0.0105 5.32126,-0.59082 7.39602,-2.51365 1.48365,-1.375 2.51934,-2.5428 2.30152,-2.5951 -0.21781,-0.0523 -4.05077,-0.31669 -8.51768,-0.58752 l -8.12167,-0.49242 -1.12833,3.23674 c -1.48619,4.26327 -1.48497,4.26714 1.12166,3.56859 1.2375,-0.33164 4.36432,-0.60913 6.94848,-0.61664 z M 254.77272,628.0555 c -1.0792,-2.81236 0.0929,-5.05375 2.80725,-5.36834 3.30763,-0.38335 5.69668,3.03507 3.75566,5.37385 -1.54279,1.85894 -5.84884,1.85533 -6.56291,-0.006 z m -47.68109,107.19191 c 3.77169,-1.68514 6.22347,-4.72045 6.26378,-7.75457 0.0246,-1.85173 1.97957,-4.18884 7.50283,-8.9694 9.18336,-7.94851 10.54615,-10.63701 7.72397,-15.23783 -1.10946,-1.80869 -2.24094,-4.74035 -2.51439,-6.5148 -0.80942,-5.25237 3.32275,-7.88435 23.04287,-14.67712 20.6331,-7.10725 20.23912,-6.57351 14.66462,-19.86695 -3.68133,-8.77884 -3.71324,-8.96769 -2.03986,-12.07399 1.33174,-2.47211 4.41577,-4.53018 14.2377,-9.50126 17.68997,-8.95326 18.22351,-11.49676 3.7213,-17.74028 -5.97682,-2.57315 -6.27904,-2.88168 -8.61081,-8.79043 -1.32912,-3.36803 -2.72206,-7.39812 -3.09542,-8.95576 -0.77575,-3.23635 -4.40928,-6.82051 -9.84611,-9.71231 -3.61554,-1.92307 -4.12266,-1.93975 -14.5,-0.47671 -5.91439,0.83383 -14.35343,1.98887 -18.75343,2.56674 -4.4,0.57788 -10.7,1.45958 -14,1.95934 -3.3,0.49976 -8.10069,1.17514 -10.66819,1.50084 -6.4195,0.81434 -7.4649,2.33287 -4.9712,7.2209 1.0884,2.13353 3.0739,4.37803 4.4122,4.98778 1.3382,0.60975 5.98681,3.7763 10.33017,7.03677 4.34336,3.26047 8.9075,6.46501 10.14253,7.1212 2.02901,1.07805 9.25449,10.65259 9.25449,12.2632 0,1.68355 -8.5038,4.81022 -14.66838,5.39327 -8.77708,0.83015 -15.89161,2.1652 -18.24221,3.42317 -1.0211,0.54653 -2.1504,2.55956 -2.5095,4.47341 -0.5259,2.80331 0.024,4.80106 2.8307,10.2771 1.916,3.73855 4.4044,8.14737 5.5299,9.79737 1.1255,1.65 2.0493,3.53186 2.0529,4.18191 0.012,2.22259 -5.9151,5.40307 -11.2081,6.01385 -2.9069,0.33544 -5.6159,1.10363 -6.02,1.70707 -1.3154,1.96433 -0.8087,3.16829 1.4034,3.33493 1.1929,0.0899 4.073,1.17353 6.4003,2.40817 7.4559,3.95536 7.6863,12.37504 0.632,23.10275 -3.7072,5.6377 -3.617,14.02831 0.2047,19.03879 3.1008,4.06535 6.1988,4.74074 11.29724,2.46285 z m 471.11027,5.96927 c 0.195,-1.00522 -1.31481,-2.6408 -4,-4.33322 -4.62937,-2.91781 -18.34323,-11.73748 -20.81322,-13.38543 -0.825,-0.55043 -6.71502,-4.48831 -13.08894,-8.75086 -17.04028,-11.39566 -20.8042,-13.69327 -21.41738,-13.07382 -0.3378,0.34127 16.15591,12.61317 28.00632,20.83769 11.01787,7.64672 20.22037,14.20976 24.79212,17.68124 4.46853,3.39311 6.0145,3.63597 6.5211,1.0244 z m -334.42606,21.19318 c 1.47761,-2.55568 1.37876,-2.70566 -8.10626,-12.29914 -9.52499,-9.6339 -11.22229,-10.43209 -11.26559,-5.29789 -0.008,0.99866 -0.4522,2.63208 -0.98618,3.62982 -0.77393,1.44611 0.35614,3.81279 5.57121,11.66759 3.59813,5.41943 7.03012,10.44159 7.62664,11.16035 1.08577,1.30827 1.77114,0.46014 7.16018,-8.86073 z m 334.9125,15.46664 c 7.3888,-3.74154 8.31319,-6.54162 4.17166,-12.63643 -2.9914,-4.40223 -7.51874,-6.99363 -11.49049,-6.57702 -3.18315,0.33389 -4.94706,-0.80737 -17.98083,-11.63375 -17.10319,-14.20661 -17.16537,-14.24237 -27.13609,-15.60493 l -9.01167,-1.23151 -5.67612,-6.37768 c -3.12187,-3.50772 -7.25112,-7.33194 -9.17612,-8.49826 -4.13184,-2.5034 -26.91985,-15.70708 -35.5,-20.56917 -3.3,-1.87 -9.375,-5.3894 -13.5,-7.82088 -13.80881,-8.13962 -13.26155,-7.9625 -20.67726,-6.69224 l -6.62202,1.1343 -8.00894,-4.02681 c -5.94985,-2.99153 -8.80374,-3.8965 -11.10036,-3.51995 -11.77259,1.93022 -19.28949,2.91379 -27.37908,3.58249 -5.10821,0.42226 -9.70457,1.18466 -10.21414,1.69423 -0.56864,0.56864 -0.45517,2.46596 0.29378,4.91234 1.15954,3.78754 1.97156,5.28662 7.30499,13.48586 1.25217,1.925 2.55463,4.64085 2.89436,6.03523 0.52964,2.17387 0.0754,2.83163 -3.18683,4.61484 -2.09247,1.1438 -9.2045,3.54606 -15.8045,5.33836 -14.16124,3.84564 -16.98245,5.14569 -18.83361,8.67876 -1.53299,2.92583 -0.84413,8.06586 1.93513,14.43912 2.28533,5.24062 5.93924,6.59282 18.40297,6.81039 5.77253,0.10077 13.19551,0.88027 16.49551,1.73222 3.3,0.85194 6.76886,1.70004 7.70857,1.88464 0.93971,0.18461 4.31491,2.10558 7.50045,4.26884 9.09414,6.17571 31.42809,16.9563 40.68612,19.63917 l 8.42142,2.44044 9.34172,-2.37863 c 5.13795,-1.30824 11.01477,-3.0817 13.0596,-3.941 4.76898,-2.00409 18.39116,-2.04259 25.78212,-0.0729 12.88405,3.43365 68.42757,12.05429 79.79966,12.38534 2.36481,0.0688 5.73981,-0.60411 7.5,-1.49543 z m -308.5,15.2008 c 4.43234,-2.33046 17.20034,-16.81587 17.20034,-19.51395 0,-0.63027 0.86994,-2.85116 1.9332,-4.93533 2.10888,-4.13374 1.76903,-7.95889 -1.21937,-13.72455 -0.8819,-1.70149 -1.88403,-5.30149 -2.22695,-8 -0.60702,-4.77665 -0.50595,-5.02763 3.82224,-9.4921 5.84574,-6.0298 10.53496,-7.38692 20.55117,-5.94776 4.04816,0.58165 8.01645,1.42475 8.81842,1.87355 0.80306,0.44942 3.5396,0.2875 6.09133,-0.36041 8.55461,-2.1721 14.56472,-11.84205 12.39725,-19.94652 -0.66896,-2.50136 -1.28326,-2.93464 -4.22503,-2.98003 -3.10962,-0.048 -3.47162,-0.35484 -3.7461,-3.17552 -0.24699,-2.53817 -1.03264,-3.45104 -4.19884,-4.8788 -2.72845,-1.23036 -4.0543,-2.54143 -4.42691,-4.37759 -0.6476,-3.19122 -2.55236,-15.33953 -2.56286,-16.34552 -0.0144,-1.3817 -5.92571,-3.77568 -9.32303,-3.77568 -3.57651,0 -8.68452,3.19176 -8.68452,5.42656 0,0.70477 1.1169,2.48654 2.48199,3.95951 3.61246,3.89791 4.52725,6.01877 4.44193,10.29819 -0.20358,10.21072 -5.11817,14.68395 -17.34073,15.78343 -11.63746,1.04684 -11.85825,1.14265 -14.83455,6.43737 -1.49964,2.66779 -4.51061,7.0094 -6.69105,9.64803 -2.18044,2.63863 -4.11716,5.73113 -4.30382,6.87221 -0.41811,2.55596 1.49275,8.49604 3.92701,12.2075 1.00057,1.52554 2.56584,5.1825 3.47837,8.12657 1.48456,4.7896 1.51289,6.19059 0.2693,13.31409 -1.14792,6.5754 -2.08732,8.88503 -5.39667,13.26823 -2.20376,2.91885 -5.13744,5.91208 -6.5193,6.65163 -3.42517,1.83309 -3.16433,2.63487 1.23752,3.80399 5.27155,1.4001 6.00743,1.38245 9.04966,-0.2171 z M 172.57729,585.99709 c 3.8118,-1.375 8.1397,-2.5 9.6176,-2.5 1.4778,0 6.0635,-1.12769 10.1904,-2.50598 5.7803,-1.9305 7.8701,-3.15087 9.1002,-5.31415 1.444,-2.53932 2.5449,-2.97768 11.50002,-4.57879 23.76099,-4.24831 30.25565,-8.6728 27.62616,-18.82034 -1.05923,-4.0877 -4.65967,-5.9705 -25.22299,-13.18997 -8.525,-2.99301 -18.64999,-6.57788 -22.49999,-7.96639 -14.1283,-5.09538 -33.2945,-11.88948 -44.5,-15.7745 -9.9614,-3.45367 -12.169,-4.64028 -16.5,-8.86898 -4.6589,-4.54884 -6.6372,-5.50574 -29,-14.02757 -32.855993,-12.52048 -39.238593,-14.61477 -40.548393,-13.30498 -0.5867,0.58671 -1.3035,3.49335 -1.5929,6.4592 l -0.5262,5.39245 8.5838,7.83781 c 4.721,4.31079 8.5837,8.43206 8.5837,9.15837 0,0.72631 3.0375,3.823 6.749997,6.88153 3.7125,3.05853 11.025,9.07049 16.249996,13.35992 8.1791,6.7146 9.7251,8.47489 11.1187,12.66049 3.1002,9.31061 10.757,17.80672 17.9771,19.94758 2.42,0.71756 7.5503,9.08095 9.8979,16.13528 2.5806,7.75497 4.1608,9.23788 11.0634,10.38259 9.5705,1.58714 14.8539,1.26162 22.1315,-1.36357 z m -20.7595,3.50629 c -9.0862,-1.3335 -11.2534,-3.22675 -14.4269,-12.60339 -3.1168,-9.20934 -6.6136,-13.98279 -11.653,-15.90732 -5.4892,-2.09636 -13.7746,-12.19758 -15.914,-19.40177 -1.3473,-4.53675 -2.4505,-5.8056 -11.141596,-12.81457 -16.5007,-13.30705 -23.293597,-19.32488 -23.293597,-20.63579 0,-0.69461 -3.825,-4.93046 -8.5,-9.413 -7.3957,-7.09123 -8.4901,-8.57752 -8.4239,-11.44026 0.1086,-4.69907 2.3205,-10.23561 4.2383,-10.60886 1.9925,-0.38782 9.0833,2.05244 40.185593,13.82977 22.2918,8.44111 24.3559,9.43252 29,13.92924 5.2966,5.12848 3.8099,4.48085 38,16.55291 7.15,2.52457 15.25,5.44741 18,6.49522 2.75,1.0478 14.225,5.12324 25.49999,9.05653 11.275,3.93328 22.01413,8.07584 23.86473,9.20568 6.27838,3.83311 7.60534,12.25859 2.77731,17.63437 -2.71079,3.01833 -11.35946,6.92728 -16.89485,7.63599 -2.33595,0.29908 -7.64437,1.25718 -11.79649,2.12911 -6.33723,1.33079 -7.80099,2.0238 -9.11669,4.31633 -1.2064,2.102 -3.4083,3.34164 -9.5605,5.38226 -4.3962,1.45819 -9.1024,2.65126 -10.4582,2.65126 -1.3557,0 -5.7726,1.125 -9.8153,2.5 -7.473,2.54174 -11.5042,2.83692 -20.5709,1.50629 z m 32.3146,163.40405 c -1.1833,-1.18323 -0.8623,-5.07341 0.5063,-6.13595 1.5999,-1.24215 22.29285,-6.48357 26.24999,-6.64899 2.4583,-0.10276 3.06186,0.31263 3.3426,2.30045 0.38671,2.73823 -3.03141,6.00664 -6.3426,6.06482 -1.1,0.0193 -4.71889,0.88772 -8.04199,1.92977 -7.4287,2.32947 -14.7196,3.48469 -15.7143,2.4899 z m 22.78003,42.58966 c 3.0365,-8.15449 3.74505,-9.15052 16.00575,-22.5 4.54628,-4.95 9.09948,-9.95204 10.11824,-11.11565 1.01875,-1.16361 4.66477,-4.22741 8.10227,-6.80845 3.4375,-2.58104 6.28443,-5.22899 6.32651,-5.88435 0.24881,-3.87478 3.16624,-14.24323 5.96279,-21.19155 1.54955,-3.85 3.7951,-9.77189 4.99012,-13.15975 2.88928,-8.1911 5.67499,-10.5387 16.41994,-13.83755 13.81133,-4.24027 16.65851,-8.2769 13.05064,-18.5027 -3.02632,-8.5775 -2.30861,-9.50099 10,-12.86722 3.85,-1.05292 11.725,-3.76104 17.5,-6.01804 5.775,-2.257 11.04516,-4.10613 11.71146,-4.10919 1.70929,-0.008 3.43043,-7.15436 2.81615,-11.69328 -1.33434,-9.85953 -1.33017,-10.17406 0.14232,-10.7391 0.81048,-0.31101 3.05706,0.64228 4.99239,2.11844 4.10476,3.13085 6.29372,2.44405 7.68631,-2.41162 0.6576,-2.29292 0.35025,-4.17229 -1.28802,-7.87587 -2.05822,-4.65295 -2.07369,-4.92145 -0.35617,-6.17882 0.98756,-0.72296 2.73974,-1.07799 3.89373,-0.78895 1.48716,0.3725 2.43175,-0.12413 3.2437,-1.70541 0.63004,-1.22702 1.94905,-3.58094 2.93112,-5.23094 0.98208,-1.65 4.43387,-7.5 7.67066,-13 3.23679,-5.5 8.51111,-14.40335 11.72071,-19.78523 3.2096,-5.38187 5.83564,-10.24373 5.83564,-10.80413 0,-0.5604 -4.29841,-5.44862 -9.55203,-10.86273 l -9.55202,-9.84382 -9.19798,-0.67356 c -5.05888,-0.37045 -9.88608,-0.86515 -10.7271,-1.09933 -1.13074,-0.31484 -2.38201,1.82973 -4.80265,8.23136 -2.95847,7.82396 -5.10617,11.73526 -12.93635,23.55914 -3.4144,5.15586 -10.60749,7.7783 -21.33512,7.7783 -12.34724,0 -11.55388,1.44043 -12.40991,-22.53128 -0.72635,-20.34 -0.75719,-20.55565 -2.64983,-18.52415 -1.0532,1.13049 -2.23489,2.06602 -2.62597,2.07895 -0.80024,0.0265 -47.9722,-15.2613 -55.71104,-18.05518 -2.75,-0.9928 -14.675,-4.98139 -26.49999,-8.86352 -11.825,-3.88214 -23.075,-7.57637 -25,-8.20941 -1.925,-0.63303 -6.425,-2.18303 -10,-3.44444 -3.575,-1.26141 -9.0875,-3.01648 -12.25,-3.90015 -3.1625,-0.88368 -5.8117,-2.15662 -5.8871,-2.82875 -0.2248,-2.00412 -0.1238,-4.13199 0.2683,-5.65103 0.3352,-1.29901 -13.5283,-5.61592 -48.631196,-15.14299 -2.2,-0.59709 -6.925,-1.92958 -10.5,-2.96109 -3.575,-1.0315 -7.847497,-2.15723 -9.494397,-2.5016 -1.6469,-0.34438 -3.5594,-1.09507 -4.25,-1.6682 -1.6784,-1.39292 -1.5894,-4.87556 0.1894,-7.41517 1.4351,-2.0489 1.3239,-2.07121 -16.25,-3.25957 -9.7323,-0.65811 -19.72,-1.35927 -22.195,-1.55815 -4.1992,-0.33743 -4.6504,-0.12975 -6.75,3.10641 -1.2375,1.9074 -2.2283,3.7743 -2.2019,4.14866 0.091,1.29181 21.9889,25.56157 44.3735,49.18066 3.9094,4.125 11.8085,12.675 17.553497,19 5.7451,6.325 13.910696,15.1 18.145796,19.5 4.2351,4.4 9.5275,10.3329 11.7609,13.18423 2.2334,2.85132 4.6446,5.55132 5.3582,6 0.7137,0.44867 5.8325,5.76577 11.3752,11.81577 5.5427,6.05 11.7984,12.8 13.9016,15 2.1032,2.2 9.3738,10.075 16.1571,17.5 6.7832,7.425 14.8151,15.975 17.8486,19 5.6258,5.60998 7.4773,9.27429 5.8747,11.62648 -0.4935,0.72431 -2.629,3.78933 -4.7455,6.81115 l -3.8483,5.49422 5.1877,5.96452 c 4.1315,4.74998 5.0443,6.41683 4.4828,8.18583 -0.68,2.14245 -0.5328,2.19771 4.1459,1.55643 2.7843,-0.38163 5.6998,-1.51382 6.8436,-2.6576 1.9205,-1.9205 1.929,-2.09219 0.2356,-4.73688 -0.9663,-1.50928 -3.3596,-5.85117 -5.3184,-9.64865 -3.0316,-5.87744 -3.467,-7.53376 -2.927,-11.13483 0.3489,-2.32669 1.4021,-4.91774 2.3404,-5.7579 1.902,-1.70303 11.40001,-3.69979 17.63965,-3.70835 4.81396,-0.007 10.43015,-1.44313 13.0062,-3.32678 1.77698,-1.29936 1.75453,-1.48768 -0.58837,-4.93557 -1.33971,-1.97156 -6.01686,-6.14857 -10.39367,-9.28225 -4.3768,-3.13367 -8.18282,-6.02483 -8.45782,-6.4248 -0.275,-0.39996 -2.52499,-1.83254 -4.99999,-3.18351 -6.046,-3.30019 -10.1022,-10.41355 -8.0861,-14.18071 1.0748,-2.00815 2.3639,-2.63291 6.4643,-3.13281 7.78962,-0.94966 19.43406,-2.5355 26.12179,-3.55747 24.36053,-3.72262 29.91747,-4.15058 33.5,-2.57994 6.01929,2.63894 11.0202,7.68771 12.0093,12.12423 0.4923,2.20814 1.84046,6.15198 2.99592,8.76408 1.84249,4.16527 2.86287,5.10727 8.29781,7.66045 3.40833,1.60115 7.29459,3.79845 8.63612,4.8829 2.26215,1.82864 2.35535,2.25143 1.28434,5.82616 -1.09392,3.65117 -1.81377,4.18268 -13.65,10.07845 -7.20879,3.59079 -13.15246,7.22714 -14.04876,8.59507 -1.45691,2.22351 -1.32455,2.91211 2.12709,11.066 3.1706,7.48999 3.55369,9.19733 2.76442,12.3201 l -0.91624,3.62516 -18,6.40406 c -9.9,3.52223 -18.97003,7.31081 -20.15563,8.41906 -2.44934,2.28956 -2.09228,4.93151 1.45362,10.75575 2.055,3.37539 2.057,3.45187 0.18599,7.11935 -1.04023,2.03902 -5.05368,6.3536 -8.91878,9.58796 -4.34551,3.63636 -7.03609,6.64392 -7.05007,7.88064 -0.0459,4.05809 -3.52148,7.94058 -8.80242,9.83288 -6.0444,2.16586 -7.7402,1.78163 -12.1311,-2.74864 -3.0954,-3.19366 -3.3032,-3.85265 -3.4091,-10.81197 -0.1038,-6.81633 0.1598,-7.83584 3.2845,-12.70525 2.4451,-3.81044 3.5205,-6.7797 3.8368,-10.59443 0.4371,-5.2701 0.4167,-5.31464 -3.594,-7.84648 -2.2185,-1.40047 -5.1818,-2.83446 -6.585,-3.18665 -2.245,-0.56345 -2.7471,-0.17794 -4.1815,3.21009 -0.8965,2.11775 -2.2608,5.12442 -3.0317,6.68149 -0.7709,1.55707 -1.4016,3.51264 -1.4016,4.34571 0,0.83307 -0.6471,2.7091 -1.438,4.16896 -0.7909,1.45986 -3.5387,8.05429 -6.1061,14.65429 -2.5674,6.6 -7.1189,17.84727 -10.1143,24.99394 l -5.4462,12.99393 13.8023,13.07285 c 21.6734,20.52793 32.7499,30.34327 33.4178,29.61264 0.3385,-0.37035 1.8722,-4.04836 3.40823,-8.17336 z m 504.06719,10.00467 c 0.86035,-3.83389 0.91276,-5.69338 0.17333,-6.15036 -0.58292,-0.36027 -6.05584,-0.93742 -12.16206,-1.28257 -6.10621,-0.34514 -16.5022,-1.05279 -23.1022,-1.57254 -6.6,-0.51975 -19.2,-1.42383 -28,-2.00906 -8.8,-0.58523 -21.85,-1.48368 -29,-1.99655 -7.15,-0.51287 -19.75,-1.40376 -28,-1.97975 -8.25,-0.57598 -21.075,-1.48495 -28.5,-2.01992 -7.425,-0.53497 -20.475,-1.43461 -29,-1.99919 -20.28549,-1.34345 -41.66927,-2.88707 -56.17209,-4.05487 -17.32578,-1.39511 -16.49338,-1.52638 -17.82003,2.81014 -0.63097,2.0625 -1.64155,4.76182 -2.24573,5.99849 -0.60417,1.23667 -0.78207,2.56492 -0.39532,2.95167 0.38674,0.38674 6.42492,1.04608 13.41817,1.4652 6.99325,0.41912 19.915,1.24377 28.715,1.83256 8.8,0.5888 22.3,1.48483 30,1.99118 7.7,0.50635 20.75,1.3925 29,1.96924 8.25,0.57673 21.75,1.488 30,2.02505 8.25,0.53704 21.75,1.43242 30,1.98971 8.25,0.5573 22.82149,1.47624 32.3811,2.04209 9.5596,0.56585 17.6596,1.19485 18,1.39776 0.34039,0.20292 7.35282,0.66444 15.58317,1.02561 8.23035,0.36116 15.18807,0.88044 15.46159,1.15397 0.27352,0.27352 2.73259,0.3646 5.4646,0.20239 l 4.96728,-0.29492 1.23319,-5.49533 z m -515.86382,9.44146 c 2.1297,-4.46613 2.0484,-4.59591 -9.5805,-15.29124 -9.6975,-8.9189 -9.849,-8.87974 -5.2037,1.34511 0.9995,2.2 2.868,6.40471 4.1521,9.3438 3.7734,8.63665 7.8639,10.4073 10.6321,4.60233 z m 166.18974,10.95994 c -6.69105,-14.15678 -7.20606,-17.70042 -2.64859,-18.22425 2.63893,-0.30332 3.04991,0.27861 8.79658,12.45558 6.69119,14.17835 7.19914,17.66001 2.65266,18.18216 -2.65648,0.30508 -3.05508,-0.25715 -8.80065,-12.41349 z m 21.40152,41.34393 c 0.92883,-1.7875 3.59968,-6.20586 5.93521,-9.81858 3.87075,-5.98748 11.60427,-18.0649 17.24497,-26.93142 1.22464,-1.925 4.87596,-7.70041 8.11404,-12.83424 3.23807,-5.13383 8.05638,-12.65541 10.70734,-16.71463 l 4.81993,-7.38039 9.50915,-0.28537 9.50914,-0.28537 3.17093,-9.5 3.17092,-9.5 5,0.0582 c 2.75,0.032 12.65,0.60234 22,1.26737 9.35,0.66503 22.85,1.6264 30,2.13637 7.15,0.50997 19.75,1.39245 28,1.96107 8.25,0.56861 21.525,1.50328 29.5,2.07703 19.30143,1.38863 40.49729,2.87586 57,3.99946 7.425,0.50554 20.1375,1.38746 28.25,1.95982 8.1125,0.57236 21.1625,1.4812 29,2.01966 7.8375,0.53846 18.07874,1.27262 22.75832,1.63148 l 8.50831,0.65246 1.16398,-4.36084 c 1.15781,-4.33775 1.14187,-4.38513 -3.00832,-8.94253 -3.95907,-4.34753 -6.97342,-7.76796 -21.78179,-24.71611 l -6.34036,-7.25654 -1.79896,3.50654 c -2.33851,4.55822 -4.90331,4.54518 -11.29886,-0.0575 -6.19328,-4.45704 -16.38069,-11.56714 -24.98239,-17.43594 -3.62753,-2.475 -11.17975,-7.88617 -16.78272,-12.02482 -5.60297,-4.13865 -11.39231,-8.2903 -12.8652,-9.22587 l -2.67799,-1.70105 -2.42834,4.34476 -2.42833,4.34476 4.60633,5.03076 c 4.54753,4.96656 4.71456,5.04594 13.08744,6.21962 8.48972,1.19006 10.70756,1.90552 13.1909,4.25529 0.73039,0.6911 3.12798,2.58526 5.32798,4.20924 3.8412,2.83547 6.48248,4.98301 18.44023,14.99315 4.73209,3.96135 6.04078,4.55416 10.05383,4.55416 3.90742,0 5.08447,0.49747 7.68978,3.25 3.85594,4.07383 5.31616,6.88926 5.31616,10.25 0,4.12837 -1.46098,5.90566 -6.97924,8.49028 -4.9993,2.34154 -5.3883,2.37183 -15.32513,1.19314 -9.78474,-1.16064 -25.55701,-3.13002 -28.69563,-3.58304 -0.825,-0.11908 -4.2,-0.56116 -7.5,-0.9824 -8.38528,-1.07037 -31.9008,-5.51766 -38.5,-7.28116 -7.6799,-2.05231 -18.53007,-1.73996 -25.64986,0.73838 -3.21758,1.12002 -9.50297,2.91398 -13.96755,3.9866 l -8.1174,1.95021 -8.8826,-2.52877 c -8.61611,-2.45291 -30.50803,-12.85059 -39.12293,-18.58165 -2.33218,-1.55148 -5.24915,-3.36078 -6.48216,-4.02067 -4.66755,-2.498 -16.53534,-4.84849 -24.7775,-4.90733 -11.2291,-0.0802 -17.01437,-1.27312 -19.18722,-3.95646 -1.4881,-1.83774 -2.65157,-5.01232 -5.46646,-14.91561 -0.25655,-0.90259 -1.49191,0.0254 -3.48382,2.61716 -2.50139,3.2546 -4.20944,4.3279 -9.01251,5.66327 -4.22074,1.17347 -6.4677,1.35783 -7.80783,0.64061 -1.03489,-0.55386 -5.18025,-1.47935 -9.21189,-2.05665 -6.66309,-0.95411 -7.73985,-0.85663 -11.83027,1.071 -5.09579,2.40141 -10,8.11842 -10,11.65736 0,1.30472 1.06364,4.49476 2.36365,7.08897 3.64314,7.27004 4.07541,11.4358 1.67494,16.14111 -1.12122,2.19779 -2.03859,4.49808 -2.03859,5.11177 0,1.50318 -7.8857,11.57724 -12.65357,16.16505 -2.11554,2.03565 -5.42143,4.34907 -7.34643,5.14093 -3.19213,1.31311 -4.02115,1.25143 -9.42459,-0.70117 -3.25852,-1.17751 -6.0971,-2.66918 -6.30796,-3.31481 -0.21085,-0.64563 1.55691,-2.31096 3.92836,-3.70072 4.61708,-2.70579 11.75397,-12.33334 11.87168,-16.01471 0.0371,-1.16088 0.30408,-3.68569 0.59325,-5.61069 0.74681,-4.97153 0.74346,-5.02586 -0.61559,-10 -0.67623,-2.475 -2.22523,-5.85 -3.44224,-7.5 -2.82221,-3.82633 -4.71277,-10.30547 -3.94258,-13.51161 0.32878,-1.36862 2.49177,-4.96339 4.80665,-7.98839 2.31488,-3.025 5.43184,-7.60724 6.92656,-10.18276 2.96119,-5.10232 3.27655,-5.23516 15.10435,-6.36252 9.83169,-0.9371 14.1214,-3.32716 15.55991,-8.66936 1.36523,-5.07009 0.60339,-10.83583 -1.59427,-12.06571 -0.87984,-0.49238 -2.44204,-2.28034 -3.47156,-3.97325 -1.70197,-2.79866 -1.73682,-3.33913 -0.38401,-5.95517 2.52363,-4.88017 10.98872,-6.38181 17.76356,-3.15111 3.32198,1.58415 3.47855,1.91694 4.58702,9.75 0.63121,4.46044 1.38804,8.92558 1.68183,9.92255 0.2938,0.99697 3.53241,3.26122 7.19691,5.03166 7.69512,3.71779 9.5097,6.4218 9.60225,14.30887 0.0333,2.83427 0.39797,4.94521 0.81047,4.69099 0.4125,-0.25422 0.75,-1.10463 0.75,-1.88979 0,-1.8638 4.11803,-3.52151 18.60596,-7.48979 13.70021,-3.75252 17.39404,-5.3723 17.39404,-7.62746 0,-0.88632 -1.95624,-4.58727 -4.34719,-8.22432 -4.50109,-6.84694 -7.65455,-16.51109 -5.94537,-18.22027 0.52014,-0.52014 3.38625,-1.16791 6.36914,-1.4395 16.70118,-1.52059 25.98561,-2.76189 30.57176,-4.08733 l 5.14833,-1.48792 8.98404,4.51206 c 4.94122,2.48163 9.1576,4.33849 9.36973,4.12636 0.21212,-0.21213 1.72756,-0.56539 3.36762,-0.78502 4.52859,-0.60646 3.60502,-2.51025 -3.01806,-6.22128 -3.3,-1.84904 -8.925,-4.99641 -12.5,-6.99414 -3.575,-1.99774 -9.425,-5.37946 -13,-7.51493 -3.575,-2.13548 -9.04308,-5.24333 -12.15129,-6.90634 -5.46223,-2.9225 -5.67419,-3.19016 -6.33584,-8.00094 -0.3765,-2.73751 -0.3906,-5.90346 -0.0313,-7.03544 0.35927,-1.13198 0.25354,-2.05814 -0.23496,-2.05814 -0.4885,0 -7.96192,5.65314 -16.60762,12.56254 -12.69775,10.1477 -16.23967,12.50246 -18.42582,12.25 -4.24701,-0.49046 -6.11453,-5.46053 -6.1295,-16.31254 -0.0149,-10.84129 1.47454,-17.39535 6.36335,-28 l 3.68804,-8 -11.81752,-11.27764 -11.81752,-11.27764 -10.24839,0.30284 c -9.58825,0.28334 -10.36123,0.46178 -12,2.77025 -1.81617,2.55832 -13.25163,22.05184 -13.25163,22.58942 0,0.16762 -1.30538,2.51868 -2.90084,5.22459 -1.59546,2.70591 -4.24909,7.33821 -5.89696,10.29401 -1.64786,2.95579 -3.81842,6.8022 -4.82347,8.54757 -1.77993,3.09105 -1.77698,3.22906 0.11379,5.31834 1.7797,1.96654 1.8162,2.36797 0.4388,4.8266 -0.9139,1.63129 -3.05518,3.18929 -5.46683,3.97766 -2.18047,0.7128 -4.81988,2.14319 -5.86536,3.17865 -1.64956,1.63375 -1.73978,2.27157 -0.6824,4.82432 1.40484,3.39157 0.22134,6.70586 -4.97057,13.91967 -3.36933,4.68145 -3.74848,8.19901 -2.62184,24.32405 0.92468,13.2345 1.35278,12.68811 -15.28119,19.50336 -7.79645,3.19436 -9.34442,6.32371 -8.63385,17.45395 0.29846,4.675 0.55347,8.80678 0.56669,9.18174 0.0132,0.37496 3.62403,4.31578 8.02403,8.75737 5.76814,5.82266 8,8.78213 8,10.60809 0,2.43887 -3.48996,10.42428 -5.00535,11.4528 -0.40518,0.275 -2.15121,3.3125 -3.88007,6.75 -2.7751,5.51777 -3.48478,6.25 -6.05755,6.25 -3.42392,0 -4.39869,-0.92642 -9.04608,-8.59734 l -3.48905,-5.75898 -1.10821,6.42816 c -0.60951,3.53549 -1.83266,8.22816 -2.71811,10.42816 -1.70405,4.23392 -3.67455,16.82973 -3.72679,23.82236 -0.0198,2.64675 -0.93402,5.64343 -2.49488,8.17764 -2.88339,4.68146 -3.14635,9.49812 -0.97391,17.83869 1.87093,7.18299 1.87093,10.69092 0,17.66131 -0.81194,3.025 -1.4816,5.78872 -1.48813,6.14159 -0.0158,0.85549 3.70383,1.74235 11.80485,2.81459 31.80251,4.20934 40.8885,5.75785 41.72486,7.1111 0.31705,0.513 3.61655,0.93272 7.33222,0.93272 6.60881,0 6.79251,-0.0707 8.44457,-3.25 z M 332.729,878.60405 c 6.13782,-1.59118 12.45028,-3.18808 14.02768,-3.54867 1.5774,-0.36059 2.6873,-0.83632 2.46645,-1.05718 -0.22086,-0.22085 -6.91146,-1.33442 -14.868,-2.47459 -7.95655,-1.14018 -15.46941,-2.29376 -16.69524,-2.56351 -1.76805,-0.38908 -2.7625,0.35498 -4.81059,3.59937 -4.16815,6.60277 -4.17136,6.5917 2.22937,7.68684 3.19551,0.54674 5.96315,1.05183 6.15033,1.12242 0.18718,0.0706 5.36218,-1.17351 11.5,-2.76468 z M 310.58868,690.29709 c -2.35193,-2.35193 -1.1003,-4.54127 6.36101,-11.12664 7.54312,-6.65757 9.96963,-7.74272 12.23899,-5.47336 2.35193,2.35193 1.1003,4.54127 -6.36101,11.12664 -7.54312,6.65757 -9.96963,7.74272 -12.23899,5.47336 z m 15.83291,6.73161 c -4.33903,-1.59292 -5.94084,-3.87916 -4.40108,-6.28161 1.16176,-1.81266 4.05239,-2.13563 8.36817,-0.93496 2.46166,0.68483 2.46516,0.67759 0.22826,-0.47228 -2.367,-1.21676 -3.89155,-4.96052 -2.76339,-6.78592 0.86252,-1.39559 4.81,-1.34435 7.98808,0.10368 2.55057,1.16211 2.79705,1.54452 2.79705,4.33948 0,3.11239 -0.31811,3.5 -2.87244,3.5 -2.17329,0 -2.41705,0.24749 -1.42324,1.44496 0.65956,0.79472 1.05216,2.48222 0.87244,3.75 -0.39144,2.76128 -3.58921,3.24734 -8.79385,1.33665 z m 13.52834,6.24273 c -1.8656,-1.04405 -1.68767,-4.49153 0.89158,-17.27434 1.13763,-5.63813 1.39403,-6.01832 4.25126,-6.30384 4.81874,-0.48152 4.88722,1.4547 0.75809,21.43435 -0.51147,2.47485 -3.42076,3.5318 -5.90093,2.14383 z m -58.74321,147.32304 c 0.92761,-0.49644 3.41279,-4.65894 5.52262,-9.25 2.10984,-4.59106 5.57568,-11.94738 7.70187,-16.34738 4.92596,-10.19393 10.95673,-29.75131 10.95993,-35.5423 0.004,-6.73763 -5.63539,-23.47003 -9.32666,-27.67416 l -3.09463,-3.52459 -8.46394,0.68675 c -6.53557,0.5303 -10.45539,1.5403 -17.20477,4.43309 -7.92667,3.39737 -9.27194,4.39251 -14.44281,10.68376 -5.25362,6.39196 -12.46965,16.79486 -12.46965,17.97674 0,0.27525 -1.22315,2.40401 -2.71811,4.73058 -1.49497,2.32657 -3.80502,6.23483 -5.13345,8.68501 -1.32844,2.45018 -3.01839,5.05793 -3.75546,5.795 -1.228,1.228 -2.05837,3.73988 -3.8435,11.6266 -0.5646,2.49445 -0.41191,2.77792 1.14972,2.13434 4.6278,-1.90721 10.47043,-2.65241 17.91274,-2.28467 7.45827,0.36853 8.50583,0.69264 13,4.02212 5.70677,4.22783 14.25878,13.57949 18.42266,20.14523 3.15719,4.97838 3.26864,5.04976 5.78344,3.70388 z m -27.31804,22.41975 c 2.2,-1.32717 5.68876,-3.34625 7.75281,-4.48684 2.06404,-1.14059 6.52605,-4.721 9.91557,-7.95647 l 6.16277,-5.88267 -3.36777,-5.34558 c -3.99728,-6.34479 -13.81776,-17.2324 -19.03788,-21.1066 -4.75645,-3.53008 -11.05253,-4.7003 -18.89915,-3.51269 -8.94466,1.35381 -12.65527,3.14892 -13.40562,6.48537 -0.3449,1.53359 -0.9114,9.53835 -1.25889,17.78835 l -0.6318,15 5.0208,4.68327 c 3.50777,3.27196 6.18526,4.87411 8.88497,5.31659 11.42091,1.87184 14.38854,1.71724 18.86419,-0.98273 z m -23.93705,7.82842 c -3.66283,-1.1241 -6.43733,-3.0484 -10.75,-7.45583 -6.67526,-6.82193 -6.32969,-4.7551 -4.76251,-28.48451 1.23366,-18.6793 4.07076,-32.00745 8.17515,-38.40521 1.5878,-2.475 6.3491,-10.44015 10.58066,-17.70033 4.23156,-7.26018 10.59923,-16.58771 14.15038,-20.72785 6.04915,-7.05245 7.05891,-7.77779 16,-11.49318 5.24885,-2.18112 11.79337,-4.26769 14.54337,-4.63684 7.49645,-1.00628 19.69872,-0.52043 21.36421,0.85064 2.65007,2.18161 7.77552,11.10302 9.59867,16.70756 0.98403,3.025 2.18244,6.53367 2.66313,7.79705 0.4807,1.26338 0.87399,6.52479 0.87399,11.69203 0,8.03388 -0.52261,11.03321 -3.60733,20.70295 -1.98403,6.21938 -5.64714,15.58297 -8.14024,20.80797 -11.69716,24.51469 -11.05677,23.50805 -21.2429,33.39223 -5.33111,5.17308 -11.45166,10.37451 -13.60123,11.55873 -2.14956,1.18423 -5.7083,3.24731 -7.9083,4.58464 -3.51702,2.1379 -5.14709,2.42508 -13.5,2.3783 -5.49338,-0.0308 -11.5822,-0.69222 -14.43705,-1.56835 z m 24.54295,66.14314 c 9.95107,-12.62143 30.23447,-41.1159 34.04994,-47.83393 0.36071,-0.63512 3.47291,-6.32976 6.916,-12.65476 3.44309,-6.325 7.00228,-12.625 7.90933,-14 0.90704,-1.375 2.54882,-3.85 3.64841,-5.5 2.25472,-3.38336 5.35094,-10.78983 6.01925,-14.39868 0.24431,-1.31927 0.79145,-4.01927 1.21585,-6 0.52044,-2.42893 0.30656,-4.73497 -0.657,-7.08363 -0.78575,-1.91526 -1.66249,-6.89395 -1.94829,-11.06373 -0.47749,-6.96649 -0.30274,-7.92504 2.1545,-11.81755 2.08766,-3.30707 2.76411,-5.81522 3.08437,-11.43626 0.63583,-11.15959 1.57812,-16.71254 3.66024,-21.56992 1.05366,-2.45809 2.28266,-7.15219 2.73111,-10.43135 0.80759,-5.90522 0.77387,-6.02524 -3.53511,-12.58049 -5.16145,-7.85212 -5.34777,-10.0903 -1.83623,-22.0577 3.50321,-11.93903 5.07465,-12.58565 12.42896,-5.1143 l 4.86891,4.9464 0.10341,-10.13944 c 0.14114,-13.83945 -0.0385,-13.60786 15.4216,-19.88261 3.21263,-1.30391 6.52815,-3.38517 7.36782,-4.62504 1.78385,-2.63403 1.87653,-8.10838 0.26843,-15.85457 -1.51335,-7.28976 -0.40652,-14.82181 2.89607,-19.70804 5.03445,-7.44853 6.08677,-9.88886 5.07748,-11.77473 -2.41268,-4.50814 0.487,-9.46918 6.16473,-10.54721 6.53186,-1.2402 7.56295,-3.9996 3.19723,-8.55643 -1.9908,-2.07795 -3.64056,-2.80472 -6.36665,-2.80472 -4.73419,0 -13.63152,-3.68842 -14.20714,-5.88962 -0.28101,-1.07455 -2.52783,-2.27912 -6.1119,-3.27669 -5.86837,-1.63338 -7.37401,-1.14172 -5.80509,1.89564 2.63977,5.1105 2.02687,13.47471 -1.13469,15.48501 -2.09931,1.33485 -5.34995,0.83897 -7.96031,-1.21434 -1.39842,-1.1 -2.73663,-2 -2.97378,-2 -0.23716,0 -0.0246,2.68666 0.47244,5.97036 1.02817,6.79322 -0.035,13.96197 -2.2373,15.08567 -3.29004,1.67869 -25.94708,9.9016 -32.78652,11.89918 -4.01391,1.17235 -7.51139,2.68756 -7.77218,3.36715 -0.26078,0.67959 0.43421,3.87579 1.54442,7.10267 3.83407,11.14393 0.23324,15.77504 -15.97421,20.54478 -4.125,1.21395 -8.49944,3.13354 -9.72098,4.26574 -2.22715,2.06427 -4.92341,8.45339 -3.96982,9.40699 0.2797,0.27969 6.55064,0.8523 13.93542,1.27247 7.38479,0.42017 13.9508,1.08773 14.59114,1.48348 0.64033,0.39575 1.16424,2.08779 1.16424,3.76008 0,2.35686 -1.29291,4.35544 -5.75,8.88829 l -5.75,5.84775 -13.42027,0.8027 -13.42026,0.80269 -1.24226,4 c -0.68325,2.2 -1.5032,5.125 -1.82211,6.5 -0.37655,1.62351 -2.81348,4.01442 -6.95084,6.81957 -3.50406,2.37576 -7.28839,5.52576 -8.40962,7 -1.12124,1.47423 -6.47523,7.49791 -11.89774,13.38594 -9.10483,9.88647 -10.10076,11.37836 -13.01745,19.5 -1.73708,4.83697 -3.40505,10.56678 -3.70659,12.73291 -0.30155,2.16613 -5.51285,14.16874 -11.58055,26.67246 -6.0678,12.50373 -11.0323,23.13679 -11.0323,23.62903 0,0.49224 -2.1916,5.81464 -4.8702,11.82754 -2.6786,6.0129 -5.1115,12.28255 -5.4066,13.93255 -0.295,1.65 -2.6184,9.92385 -5.1631,18.38634 -4.186,13.9208 -9.0117,34.99544 -8.1992,35.80787 0.1779,0.17791 3.207,-0.96662 6.7313,-2.5434 10.9421,-4.89552 20.2572,-6.55726 30.2372,-5.39401 7.4024,0.86282 9.22375,1.47893 13.37021,4.52278 8.3726,6.14619 10.82472,9.64377 14.60383,20.83021 1.93057,5.71462 3.83308,12.4001 4.2278,14.85663 l 0.71767,4.46643 6.62554,-6.97773 c 3.64405,-3.83775 12.2982,-14.17264 19.23144,-22.96643 z m -81.46969,67.87112 c 16.693,-5.6046 30.6463,-13.9844 43.05937,-25.85981 l 6.27167,-6 -1.03758,-5 c -0.57068,-2.75 -2.4391,-9.5 -4.15205,-15 -2.63257,-8.45274 -3.82335,-10.74745 -7.69604,-14.83077 -7.10227,-7.48861 -10.87617,-9.03145 -20.54227,-8.39808 -8.7925,0.57613 -14.31,2.17324 -25.1701,7.28579 -8.1019,3.8141 -7.7168,3.07172 -9.793,18.87924 -1.6628,12.66058 -0.3855,24.65676 4.3188,40.56173 1.7077,5.7738 3.105,10.6113 3.105,10.75 0,0.8836 4.8659,-0.115 11.6362,-2.3881 z m -19.7051,1.3902 c -1.7278,-5.6375 -3.7925,-12.005 -4.5882,-14.15 -1.9416,-5.23396 -3.5056,-23.43435 -2.7585,-32.10001 1.1877,-13.77449 8.7457,-53.39223 12.4003,-65 1.5585,-4.95 3.9926,-13.20605 5.4092,-18.34677 1.4166,-5.14073 4.6687,-14.14073 7.2268,-20 2.5582,-5.85928 5.6011,-12.90323 6.7621,-15.65323 1.161,-2.75 4.2351,-9.38585 6.8314,-14.74634 l 4.7205,-9.74634 -3.7174,-1.90673 c -2.8227,-1.44784 -4.4774,-3.43424 -6.8756,-8.25366 -5.6234,-11.30087 -16.3417,-35.69102 -16.3417,-37.18651 0,-0.79995 -3.15,-4.24714 -7,-7.66042 -7.6305,-6.76496 -8.3709,-8.78809 -5.5682,-15.21607 2.4828,-5.69422 10.3151,-24.99637 13.1001,-32.28393 1.4712,-3.85 4.152,-10.6 5.9571,-15 1.8052,-4.4 5.1608,-12.85521 7.4568,-18.78935 l 4.1745,-10.78935 -3.9666,-4.71065 c -2.1817,-2.59086 -5.4036,-6.06065 -7.1599,-7.71065 -1.7563,-1.65 -9.0898,-9.525 -16.2967,-17.5 -7.207,-7.975 -16.0496,-17.65996 -19.6503,-21.52214 -3.6008,-3.86218 -9.4332,-10.16218 -12.9611,-14 -3.5279,-3.83782 -9.3779,-10.12786 -13,-13.97786 -8.036696,-8.54223 -29.406493,-31.56408 -37.567193,-40.47131 -3.2898,-3.59078 -9.8228,-10.57869 -14.5177,-15.52869 -4.695,-4.95 -14.8283,-15.96722 -22.5186,-24.4827 -7.6902,-8.51549 -17.0184,-18.64049 -20.7293,-22.5 -7.9440998,-8.26217 -8.3010998,-10.10393 -3.3255998,-17.15811 1.8849998,-2.67255 5.1287998,-7.33419 7.2083998,-10.35919 9.0644,-13.18512 8.8416,-13 15.6461,-13 5.8787,0 19.5208,0.88905 47.2182,3.07721 11.716997,0.92566 21.390993,2.97974 36.999993,7.85612 1.65,0.51548 7.95,2.31548 14,4 6.05,1.68452 12.35,3.47994 14,3.98981 1.65,0.50987 5.925,1.70934 9.5,2.66549 3.575,0.95615 7.625,2.51474 9,3.46354 2.2161,1.52921 12.3895,5.73544 33,13.64394 13.57183,5.20769 32.6178,12.61975 35.49999,13.81541 7.92377,3.28713 19.76017,7.56164 20.07286,7.24895 0.19264,-0.19264 -12.68245,-13.37714 -28.6113,-29.2989 -20.88205,-20.87269 -28.96155,-29.57971 -28.96155,-31.21075 0,-1.36456 2.1503,-4.54131 5.4194,-8.00646 2.9807,-3.1594 6.38834,-6.98186 7.57258,-8.49436 2.95462,-3.77361 6.10784,-3.56077 20.00801,1.35053 6.325,2.23479 13.525,4.66862 16,5.40852 2.475,0.7399 11.4958,3.79715 20.04623,6.7939 8.55043,2.99675 17.02714,5.77389 18.83713,6.17143 l 3.29091,0.72281 -0.56949,-9.8486 c -0.31323,-5.41672 -0.83232,-21.32359 -1.15356,-35.34859 l -0.58405,-25.5 4.01586,-4.40412 c 2.20873,-2.42226 6.40112,-7.23386 9.31642,-10.69244 4.09189,-4.85441 5.93251,-6.30143 8.07199,-6.34587 1.97664,-0.041 3.02488,0.5877 3.6552,2.19244 0.83777,2.13292 4.5915,17.41282 16.02959,65.24999 2.76166,11.55 5.93834,24.375 7.05929,28.5 1.12094,4.125 2.7236,10.84201 3.56146,14.92668 0.83786,4.08468 1.70232,7.71621 1.92102,8.07008 0.2187,0.35386 0.60125,1.73685 0.85012,3.07331 0.24887,1.33646 1.36182,6.06147 2.47321,10.50001 1.96656,7.85374 2.2239,8.26709 9.5997,15.419 7.78553,7.54921 8.82536,9.81349 6.5011,14.15642 -0.94695,1.76939 -0.80214,1.97396 1.19217,1.68425 2.24237,-0.32573 4.49616,-3.17424 23.00844,-29.07975 6.72947,-9.41702 8.87726,-11.41305 8.87726,-8.25 0,1.48031 1.96478,2.20353 2.03755,0.75 0.0206,-0.4125 1.55657,-2.52503 3.41317,-4.69451 2.80651,-3.27948 3.62703,-3.73585 4.8668,-2.70694 0.87788,0.72858 2.55872,0.96963 4.08683,0.5861 l 2.59565,-0.65147 0,6.60841 c 0,6.07022 0.93171,8.14595 2.51008,5.5921 0.34546,-0.55897 0.98818,-0.79378 1.42826,-0.5218 0.44009,0.27199 -0.68642,5.34183 -2.50335,11.26632 -1.81692,5.92448 -5.42291,17.67707 -8.01331,26.11686 l -4.7098,15.34507 5.56105,5.56105 5.56105,5.56105 7.83301,-0.21641 c 4.46824,-0.12346 8.32363,-0.72747 8.97514,-1.40612 0.62818,-0.65434 6.18307,-11.20221 12.3442,-23.43971 6.16113,-12.2375 11.60967,-22.25 12.10786,-22.25 0.4982,0 0.90581,0.9 0.90581,2 0,3.29691 1.39322,2.30394 4.91077,-3.5 3.609,-5.95481 4.61092,-6.58238 5.58899,-3.50075 0.50684,1.59691 1.01028,1.79815 2.50165,1 1.02691,-0.54959 2.12169,-0.99925 2.43285,-0.99925 0.31116,0 0.56574,3.15 0.56574,7 0,6.96686 0.52856,8.07144 2.78333,5.81667 1.89598,-1.89598 2.43712,-0.31294 1.31128,3.83597 -0.57421,2.11605 -2.40104,9.69736 -4.05962,16.84736 -1.65858,7.15 -4.1269,17.70556 -5.48516,23.4568 -1.35826,5.75124 -2.32358,10.60279 -2.14515,10.78121 0.17842,0.17842 1.06036,-0.7988 1.95986,-2.17162 2.6453,-4.03723 5.04489,-4.83998 9.23475,-3.08935 2.00473,0.83763 4.30949,1.52296 5.1217,1.52296 0.81222,0 2.95104,0.69959 4.75294,1.55465 3.10157,1.4718 3.46723,1.43182 6.86075,-0.75 1.97151,-1.26756 5.74023,-3.60569 8.37494,-5.19586 2.63471,-1.59016 6.59038,-4.03062 8.79038,-5.42325 6.72334,-4.25594 10.4571,-6.53212 25,-15.2405 7.7,-4.61081 18.95,-11.42905 25,-15.15165 6.05,-3.7226 13.025,-7.90931 15.5,-9.30381 2.475,-1.39449 8.775,-5.20063 14,-8.45807 22.50421,-14.02991 25.20709,-15.05272 25.81677,-9.7694 0.17422,1.50975 -1.57909,8.7042 -3.89624,15.98768 -4.71326,14.81516 -3.16531,12.75892 -22.39612,29.75021 -6.53616,5.775 -16.5551,14.73787 -22.2643,19.91749 l -10.38037,9.41749 6.81013,3.39955 c 12.08634,6.0334 19.17618,9.90085 23.03557,12.56573 2.07601,1.43347 6.02456,3.58466 8.77456,4.78042 2.75,1.19576 5.60964,2.67928 6.35477,3.29671 1.61711,1.34 15.25678,9.25345 23.58425,13.68309 12.54559,6.67338 12.88742,7.31386 9.65158,18.08418 -1.05017,3.49544 -2.63774,8.94284 -3.52793,12.10534 l -1.61854,5.75 -5.89971,0 c -3.24483,0 -9.19476,-0.42601 -13.22206,-0.94668 -4.0273,-0.52068 -11.14736,-1.22382 -15.82236,-1.56253 -4.675,-0.33872 -15.7,-1.25346 -24.5,-2.03275 -8.8,-0.7793 -16.8891,-1.42616 -17.97579,-1.43747 -1.09204,-0.0114 1.36803,1.90664 5.5,4.28811 12.73545,7.3401 25.29524,14.8507 29.47579,17.62615 2.2,1.46057 5.125,3.20492 6.5,3.87633 1.375,0.67141 4.525,2.54903 7,4.17249 2.475,1.62345 6.525,4.11399 9,5.53453 2.475,1.42053 6.3,3.67712 8.5,5.01464 3.01662,1.83399 4.81902,2.28216 7.33144,1.82295 2.9154,-0.53287 4.53888,0.19906 13,5.86091 5.31771,3.5584 19.79356,13.13844 32.16856,21.28897 12.375,8.15053 24.45392,16.88356 26.84205,19.40675 4.48497,4.7386 18.62892,20.66213 30.63696,34.49169 l 6.86302,7.90409 -1.69326,6.09591 c -0.93129,3.35275 -3.0514,11.27091 -4.71135,17.59591 -1.65995,6.325 -3.82851,12.31607 -4.81902,13.31348 -1.66207,1.67367 -2.75764,1.73418 -14.20966,0.78485 -6.82481,-0.56575 -20.05874,-1.50872 -29.40874,-2.09548 -9.35,-0.58677 -23.075,-1.48338 -30.5,-1.99248 -7.425,-0.5091 -20.7,-1.40795 -29.5,-1.99744 -8.8,-0.58948 -22.3,-1.49541 -30,-2.01317 -7.7,-0.51776 -21.2,-1.41132 -30,-1.9857 -16.25862,-1.0612 -33.00523,-2.18312 -60,-4.01963 -22.53295,-1.53297 -44.28794,-2.9613 -50.83237,-3.33743 -5.36919,-0.30859 -5.95892,-0.12959 -7.42594,2.2539 -0.87647,1.424 -3.89939,6.1891 -6.71761,10.5891 -2.81821,4.4 -6.45154,10.15415 -8.07405,12.78699 -3.81277,6.18696 -11.09631,17.60779 -19.36747,30.36882 -3.62041,5.5857 -8.15573,12.70907 -10.0785,15.82972 l -3.49593,5.67391 -10.00407,-0.23907 c -6.59041,-0.15749 -12.05142,0.29633 -16.00406,1.32998 -3.3,0.86297 -12.3,3.23071 -20,5.26164 -14.37997,3.79281 -17.1152,3.96555 -30.1657,1.90501 l -4.16571,-0.65772 -3.83429,7.20767 c -4.20988,7.91368 -23.54185,37.50778 -29.85336,45.70062 -29.15332,37.84329 -47.53367,56.62336 -70.99343,72.53734 -2.1932,1.4877 -7.5875,4.11 -11.9875,5.8272 -4.4,1.7173 -8.9,3.5232 -10,4.0131 -2.3685,1.0549 -18.1902,4.9548 -20.1011,4.9548 -0.8113,0 -2.5465,-3.9809 -4.4678,-10.25 z"
       id="path3896"
       style="fill:#000000" />
  </g>
</svg>
