<?xml version="1.0" encoding="UTF-8" standalone="no"?>
<!-- Created with Inkscape (http://www.inkscape.org/) -->

<svg
   xmlns:dc="http://purl.org/dc/elements/1.1/"
   xmlns:cc="http://creativecommons.org/ns#"
   xmlns:rdf="http://www.w3.org/1999/02/22-rdf-syntax-ns#"
   xmlns:svg="http://www.w3.org/2000/svg"
   xmlns="http://www.w3.org/2000/svg"
   xmlns:sodipodi="http://sodipodi.sourceforge.net/DTD/sodipodi-0.dtd"
   xmlns:inkscape="http://www.inkscape.org/namespaces/inkscape"
   width="744.09448819"
   height="1052.3622047"
   id="svg2988"
   version="1.1"
   inkscape:version="0.48.4 r9939"
   sodipodi:docname="新建文档 1">
  <defs
     id="defs2990" />
  <sodipodi:namedview
     id="base"
     pagecolor="#ffffff"
     bordercolor="#666666"
     borderopacity="1.0"
     inkscape:pageopacity="0.0"
     inkscape:pageshadow="2"
     inkscape:zoom="1.4"
     inkscape:cx="276.29152"
     inkscape:cy="565.84191"
     inkscape:document-units="px"
     inkscape:current-layer="layer1"
     showgrid="false"
     inkscape:window-width="1680"
     inkscape:window-height="988"
     inkscape:window-x="-8"
     inkscape:window-y="-8"
     inkscape:window-maximized="1" />
  <metadata
     id="metadata2993">
    <rdf:RDF>
      <cc:Work
         rdf:about="">
        <dc:format>image/svg+xml</dc:format>
        <dc:type
           rdf:resource="http://purl.org/dc/dcmitype/StillImage" />
        <dc:title></dc:title>
      </cc:Work>
    </rdf:RDF>
  </metadata>
  <g
     inkscape:label="Layer 1"
     inkscape:groupmode="layer"
     id="layer1">
    <path
       id="path3039"
       style="fill:#000000"
       d="m 320.61604,411.89789 c -0.65892,-1.7875 -2.9954,-7.3 -5.19219,-12.25 -7.31579,-16.48462 -23.38063,-55.92125 -25.10425,-61.62694 l -1.09565,-3.62693 17.23933,-16.87307 c 9.48164,-9.28018 17.77232,-16.87306 18.42375,-16.87306 1.8533,0 31.68441,30.92497 31.68441,32.84623 0,0.94272 -1.18403,4.51297 -2.63117,7.9339 -1.44715,3.42093 -3.65385,8.91987 -4.90378,12.21987 -1.24994,3.3 -4.81746,12.075 -7.92782,19.5 -6.02004,14.37091 -12.07602,29.46011 -14.95012,37.25 -2.04838,5.55187 -3.86741,6.04416 -5.54251,1.5 z m -14.0446,3.31011 c -9.37614,-3.90601 -55.99197,-21.94322 -67.26752,-26.02803 l -11.76751,-4.26303 0.26751,-24.13453 0.26752,-24.13452 26,-0.53774 c 14.3,-0.29576 26.5625,-0.36012 27.25,-0.14301 0.6875,0.2171 1.25,0.96088 1.25,1.65284 0,2.13942 21.15358,53.63006 28.11079,68.42541 2.68907,5.71862 4.88921,10.55612 4.88921,10.75 0,0.96031 -5.00228,0.078 -9,-1.58739 z m 54.58585,-75.22609 1.46553,-2.83402 27.37698,0 27.37697,0 -0.28681,24.08416 c -0.15775,13.24629 -0.67645,24.44236 -1.15266,24.88016 -0.47621,0.43781 -6.94084,3.07875 -14.36584,5.86877 -14.27691,5.36469 -29.99387,11.56672 -46.5,18.34925 -5.5,2.26 -11.35,4.65528 -13,5.32285 -1.65,0.66756 -4.25867,1.72699 -5.79705,2.35428 -3.44661,1.40539 -4.40781,1.4271 -5.21699,0.11781 l -2e-5,0 c -0.34764,-0.56249 2.37121,-8.15677 6.11597,-17.61865 7.97041,-20.13884 7.9026,-20.02412 11.39078,-29.7559 1.09025,-3.05108 10.46513,-26.65359 12.59314,-30.76871 z m 52.91415,117.98702 c -4.64337,-1.63766 -13.30187,-4.98117 -34.5,-13.32231 -10.725,-4.22012 -23.1,-9.02172 -27.5,-10.67021 -14.06529,-5.26968 -14.99802,-5.77353 -13.40605,-7.2417 1.25684,-1.1591 9.41516,-4.52151 52.40605,-21.59891 6.6,-2.62174 15.44546,-6.23636 19.65659,-8.03248 l 7.65659,-3.26569 15.46227,15.59966 c 8.50425,8.57981 15.70967,16.54571 16.01205,17.70201 0.44382,1.69716 -2.33899,4.93622 -14.43828,16.80548 -8.24344,8.08671 -15.74433,14.78841 -16.66864,14.89266 -0.92432,0.10426 -3.03058,-0.28657 -4.68058,-0.86851 z m -202.75,-12.64324 c -10.07653,-10.09246 -16.75,-17.5448 -16.75,-18.70493 0,-1.62825 17.24644,-19.42606 30.68035,-31.6612 l 3.18036,-2.89655 9.81964,3.63959 c 12.46776,4.62109 36.15062,13.85786 43.31965,16.89549 3.025,1.28174 11.4625,4.6747 18.75,7.53991 7.2875,2.86521 13.25,5.63987 13.25,6.16591 0,1.08989 -2.42084,2.17185 -34.5,15.41925 -4.4,1.81702 -17.06031,7.15591 -28.13402,11.8642 -11.07371,4.70829 -20.74871,8.55024 -21.5,8.53767 -0.75129,-0.0126 -8.90348,-7.57228 -18.11598,-16.79934 z m 160.89643,73.8222 -8.85357,-0.5 -5.48982,-13 c -13.65979,-32.34661 -27.54197,-67.21951 -27.66651,-69.5 -0.11377,-2.08319 0.26768,-2.45513 2.28791,-2.23088 1.33345,0.14801 15.95845,5.71457 32.5,12.37012 16.54156,6.65556 33.75636,13.52352 38.25511,15.26214 12.24119,4.73083 12.66875,5.29058 11.91497,15.59862 -0.34187,4.675 -0.67766,15.584 -0.74621,24.24222 -0.10088,12.74281 -0.41366,15.98187 -1.64156,17 -1.60616,1.33177 -23.23983,1.73594 -40.56032,0.75778 z m -144.11636,-0.35435 c -1.66375,-1.21657 -1.76645,-2.95372 -1.34488,-22.74997 0.26232,-12.31844 0.90668,-22.23742 1.51524,-23.32486 0.99975,-1.78646 8.45134,-5.10728 42.79957,-19.07372 7.15,-2.90729 17.05,-6.95863 22,-9.00298 18.52474,-7.65071 20.48072,-8.33434 21.07853,-7.36705 0.32979,0.53361 -1.24408,5.56081 -3.49748,11.17156 -2.2534,5.61075 -8.16525,20.32637 -13.13744,32.70137 -4.97219,12.375 -10.13706,25.425 -11.47748,29 -3.86303,10.303 -2.65792,9.92094 -31.36431,9.94341 -18.9363,0.0148 -25.19471,-0.29084 -26.57175,-1.29776 z m 75.57434,18.92002 -15.52357,-15.43432 3.12811,-7.31568 c 1.72046,-4.02362 4.00504,-9.79067 5.07683,-12.81567 8.55712,-24.15138 24.25676,-62.07909 25.96869,-62.73602 1.80679,-0.69333 2.07319,-0.3043 3.65468,5.33731 0.75529,2.69429 3.415,9.62371 5.91049,15.39871 2.49548,5.775 6.9852,16.575 9.97715,24 2.99194,7.425 7.41165,18.39808 9.82156,24.38462 l 4.38165,10.88462 -17.49794,16.86538 c -9.62386,9.27596 -17.92007,16.86538 -18.43601,16.86538 -0.51594,0 -7.92368,-6.94545 -16.46164,-15.43433 z" />
  </g>
</svg>
