<?xml version="1.0" encoding="UTF-8" standalone="no"?>
<!-- Created with Inkscape (http://www.inkscape.org/) -->

<svg
   xmlns:dc="http://purl.org/dc/elements/1.1/"
   xmlns:cc="http://creativecommons.org/ns#"
   xmlns:rdf="http://www.w3.org/1999/02/22-rdf-syntax-ns#"
   xmlns:svg="http://www.w3.org/2000/svg"
   xmlns="http://www.w3.org/2000/svg"
   version="1.1"
   width="100%"
   height="100%"
   viewBox="0 0 822 567"
   id="svg2"
   xml:space="preserve"><metadata
   id="metadata122"><rdf:RDF><cc:Work
       rdf:about=""><dc:format>image/svg+xml</dc:format><dc:type
         rdf:resource="http://purl.org/dc/dcmitype/StillImage" /><dc:title></dc:title></cc:Work></rdf:RDF></metadata><defs
   id="defs120" />
<path
   d="M 0,0 H 822 V 567 H 0 z"
   id="path4"
   style="fill:#ffffff" />
<path
   d="m 608.5,400.1 0.1,0.301 c -0.1,0.199 -12.1,67.399 -37.699,106.101 -23.4,1.8 -30.9,-21.3 -30.9,-21.3 L 539.802,485.1 C 563,444.8 567,410.6 568,400.8 c 15,5.2 28.8,3.6 40.5,-0.7 z"
   id="path6"
   style="fill:#ffffff;stroke:#000000;stroke-miterlimit:10" />
<path
   d="m 544.4,507.6 c -0.7,0.2 -26.899,9.9 -22.801,4.7 7.101,-9.2 13.2,-18.398 18.301,-27.2 l 0.199,0.102 c 0,0 7.5,23.1 30.899,21.3 -7.1,10.7 -15.199,19.2 -24.3,23.5 C 546.6,530 535.699,515.9 544.4,507.6 z"
   id="path8"
   style="fill:#ffffff;stroke:#000000;stroke-miterlimit:10" />
<path
   d="m 401.9,461.7 c 0,0 26.101,25.898 34.8,23.6 l 0.399,0.3 C 419,509 404.699,505.4 398.6,507.7 c -7.5,-2.3 5.101,-26.5 5.4,-27.102 -0.7,0.4 -29,14.302 -23.9,8.2 6.5,-7.6 13.9,-17.3 21.301,-27.398 l 0.499,0.3 z"
   id="path10"
   style="fill:#ffffff;stroke:#000000;stroke-miterlimit:10" />
<path
   d="m 440.9,404.2 -0.3,-0.601 c 11.5,-5 16.801,-16.1 16.801,-16.1 6.3,5.7 12.3,10 17.899,13.2 l -0.5,0.899 c -13.399,43.999 -26.3,69.301 -37.7,83.999 l -0.399,-0.3 c -8.7,2.3 -34.8,-23.6 -34.8,-23.6 l -0.5,-0.3 C 420.3,435.5 439,407.2 440.9,404.2 z"
   id="path12"
   style="fill:#ffffff;stroke:#000000;stroke-miterlimit:10" />
<path
   d="m 351.9,405.9 v 0.398 c -7.601,36.5 -20.7,56.5 -20.7,56.5 -0.2,3.5 -2.2,7.602 -5,11.9 -15.2,3 -35.3,-10.7 -35.3,-10.7 l -0.699,-0.5 C 318.4,423.098 306.7,394.099 307,387.099 317.5,402.5 335,406.5 351.9,405.9 z"
   id="path14"
   style="fill:#ffffff;stroke:#000000;stroke-miterlimit:10" />
<path
   d="m 291,464 c 0,0 20.1,13.8 35.3,10.7 -9.601,14.8 -29.8,31.7 -29.8,31.7 -9.8,0 -1.101,-23.602 -1.101,-23.602 -27.199,16.5 -29.399,8.3 -29.399,8.3 10.3,-9.698 18.2,-18.898 24.3,-27.6 L 291,464 z"
   id="path16"
   style="fill:#ffffff;stroke:#000000;stroke-miterlimit:10" />
<path
   d="m 186.5,481.7 c 0,0 16.3,18.8 32.6,11.8 -19.6,21.2 -41.3,17.7 -41.3,17.7 l 10.9,-16.5 -27.2,5.898 c 9.7,-6.5 17.7,-13 24.2,-19.6 l 0.8,0.702 z"
   id="path18"
   style="fill:#ffffff;stroke:#000000;stroke-miterlimit:10" />
<path
   d="m 262.7,386.3 c 21,14.8 -40.801,103 -43.601,107.2 -16.3,7.1 -32.6,-11.8 -32.6,-11.8 l -0.8,-0.8 c 37.699,-37.802 28.399,-75 28.5,-80 11.601,15.4 30.301,-1.3 48.501,-14.6 z"
   id="path20"
   style="fill:#ffffff;stroke:#000000;stroke-miterlimit:10" />
<path
   d="m 262.7,386.3 c -18.301,13.3 -36.9,30 -48.5,14.601 -1.801,-2.399 -3.5,-5.699 -4.9,-9.899 0,0 -7.3,7.899 -41.2,1.101 27.101,-31.801 16.2,-78.801 16.2,-78.801 -2.2,-27.1 -27.2,-44.8 -27.2,-44.8 2.2,-21.2 -30.5,-15.3 -30.5,-15.3 13.101,-30.6 -20.7,-31.8 -20.7,-31.8 l -0.5,-0.5 c 1.301,-1.3 2.7,-2.5 4.101,-3.7 -10.8,9.3 -64.7,52 -47.101,-31.9 0,0 19.2,-30.6 37.7,-9.4 -0.6,-1.3 -43.5,-93.3 66.7,-79.3 3.4,-10.6 44,-83.2 79,-12.6 0,0 33.7,-65.2 72.5,-29.9 0,0 98.3,-67.1 75.399,9.4 0,0 101.5,-66 114.601,13.4 0,0 160.601,-24.7 107.3,44.8 0,0 130.9,-9.8 66.7,52.6 0,0 120.7,66 39.2,63.6 0,0 44.6,58.9 4.399,86 0,0 -7.601,100.101 -81.601,50.601 0,0 -14.2,17.5 -36,25.601 -11.601,4.301 -25.399,5.899 -40.399,0.699 -8,-2.699 -16.301,-7.398 -24.7,-14.5 0,0 -25.399,38.5 -68,14.4 -5.699,-3.2 -11.699,-7.5 -17.899,-13.2 0,0 -5.3,11.101 -16.8,16.101 -9.301,4.101 -22.801,4.199 -40.9,-9 0,0 -23.399,10.5 -47.899,11.399 -16.899,0.601 -34.3,-3.5 -44.8,-18.8 -0.7,-1 -1.3,-2.102 -2,-3.2 C 294.8,365.6 278.9,374.6 262.7,386.3 z M 198.5,289.7 C 236.6,248.5 153.9,232 153.9,232 c 29.4,68.3 44.6,57.7 44.6,57.7 z"
   id="path22"
   style="fill:#ffffff;stroke:#000000;stroke-miterlimit:10" />
<path
   d="m 153.9,232 c 0,0 82.7,16.5 44.601,57.7 -0.001,0 -15.201,10.6 -44.601,-57.7 z"
   id="path24"
   style="fill:#ffffff;stroke:#000000;stroke-miterlimit:10" />
<path
   d="m 184.4,313.3 c 0,0 10.9,47 -16.199,78.8 -3.101,-0.6 -6.4,-1.398 -9.9,-2.199 0,0 -26.1,76.601 -81.6,28.301 0,0 -62.601,-110.801 28.899,-197.2 l 0.5,0.5 c 0,0 33.7,1.2 20.7,31.8 0,0 32.6,-5.9 30.5,15.3 -0.1,-0.102 24.9,17.598 27.1,44.698 z m -65.3,-11.8 c 0,-20 6.5,-25.9 2.2,-29.5 -4.3,-3.6 -2,15.9 -22.8,23.6 -10.2,3.801 -8.601,30.602 -4.4,34.2 4.3,3.5 25,-16.6 25,-28.3 z m -4.3,-31.8 c -15.2,-3.5 -34.8,21.2 -40.3,29.4 -5.4,8.301 8.7,5.9 8.7,5.9 10.5,-28.1 31.6,-35.3 31.6,-35.3 z m -6.6,138.4 c 0,-3.6 -3.9,-6.5 -8.7,-6.5 -4.8,0 -8.7,2.9 -8.7,6.5 0,3.6 3.9,6.5 8.7,6.5 4.8,0 8.7,-2.9 8.7,-6.5 z"
   id="path26"
   style="fill:#ffffff;stroke:#000000;stroke-miterlimit:10" />
<path
   d="m 121.3,272 c 4.3,3.6 -2.2,9.4 -2.2,29.5 0,11.7 -20.7,31.8 -25,28.3 -4.3,-3.6 -5.899,-30.399 4.4,-34.2 20.8,-7.7 18.5,-27.1 22.8,-23.6 z m -8.2,38.4 c 0,-5.5 -4.1,-9.9 -9.2,-9.9 -5.1,0 -9.199,4.4 -9.199,9.9 0,5.5 4.1,9.898 9.199,9.898 5.099,0 9.2,-4.398 9.2,-9.898 z"
   id="path28"
   style="fill:#ffffff;stroke:#000000;stroke-miterlimit:10" />
<path
   d="m 74.5,299.1 c 5.399,-8.199 25,-33 40.3,-29.398 0,0 -21,7.3 -31.5,35.3 C 83.2,305 69.1,307.4 74.5,299.1 z"
   id="path30"
   style="fill:#ffffff;stroke:#000000;stroke-miterlimit:10" />
<path
   d="m 104,300.5 c 5.1,0 9.2,4.4 9.2,9.9 0,5.5 -4.101,9.898 -9.2,9.898 -5.099,0 -9.2,-4.398 -9.2,-9.898 0,-5.5 4.1,-9.9 9.2,-9.9 z m 3,9.8 c 0,-1.899 -1.5,-3.5 -3.3,-3.5 -1.8,0 -3.301,1.601 -3.301,3.5 0,2 1.5,3.5 3.301,3.5 1.801,0 3.3,-1.5 3.3,-3.5 z"
   id="path32"
   style="fill:#ffffff;stroke:#000000;stroke-miterlimit:10" />
<path
   d="m 103.7,306.8 c 1.8,0 3.3,1.601 3.3,3.5 0,2 -1.5,3.5 -3.3,3.5 -1.8,0 -3.301,-1.6 -3.301,-3.5 0,-1.9 1.501,-3.5 3.301,-3.5 z"
   id="path34"
   style="fill:#ffffff;stroke:#000000;stroke-miterlimit:10" />
<path
   d="m 99.5,401.6 c 4.8,0 8.7,2.9 8.7,6.5 0,3.6 -3.9,6.5 -8.7,6.5 -4.8,0 -8.7,-2.898 -8.7,-6.5 0,-3.602 3.9,-6.5 8.7,-6.5 z"
   id="path36"
   style="fill:#ffffff;stroke:#000000;stroke-miterlimit:10" />
<path
   d="m 153.9,232 c 0,0 82.7,16.5 44.601,57.7 -0.001,0 -15.201,10.6 -44.601,-57.7 z"
   id="path38"
   style="fill:none;stroke:#000000" />
<path
   d="m 158.3,389.8 c 0,0 4.4,-42.399 -5.4,-49.5"
   id="path40"
   style="fill:none;stroke:#000000" />
<path
   d="m 135.4,343.9 c 0,0 23.9,3.5 25,-15.301"
   id="path42"
   style="fill:none;stroke:#000000" />
<path
   d="m 111.5,215.5 c 0,0 22.8,-20 -35.9,-13 0,0 -13.1,23.6 6.5,22.4"
   id="path44"
   style="fill:none;stroke:#000000" />
<path
   d="m 100.3,175.8 c 0,0 55.8,0.8 62.4,-20.4 6.899,-22.4 -24,-95.9 -62,-20 0,0 9.8,40.1 46.8,3.5 0,0 -1.101,-25.9 -22.8,-10.6"
   id="path46"
   style="fill:none;stroke:#000000" />
<path
   d="m 167,94.2 c 0,0 26.1,57.7 64.2,10.6 0,0 0,-61.3 -25,-27.1 0,0 -6.5,28.3 9.8,20"
   id="path48"
   style="fill:none;stroke:#000000" />
<path
   d="m 246,84 c 0,0 1.399,38.9 55.8,16.5 0,0 31.5,-25.1 2.2,-39.3 0,0 -38.101,-9.4 -27.2,24.7"
   id="path50"
   style="fill:none;stroke:#000000" />
<path
   d="m 318.5,54.1 c 0,0 10.199,29.8 33.399,23.6 0,0 54,-22.8 7.3,-32.2 0,0 -17,0.4 -9.399,15.7"
   id="path52"
   style="fill:none;stroke:#000000" />
<path
   d="m 393.9,63.5 c 0,0 -18.101,55.4 63.5,45.9 0,0 44.601,-30.6 16.3,-47.1 0,0 -46.8,-23.6 -31.5,22.4"
   id="path54"
   style="fill:none;stroke:#000000" />
<path
   d="m 615.8,121.6 c 0,0 -41,36.1 8,37.3 0,0 57.3,11.8 29,-24.7 0,0 -16.7,-10.6 -23.2,16.5"
   id="path56"
   style="fill:none;stroke:#000000" />
<path
   d="m 682.6,174.3 c 0,0 -99,16.5 -45.699,43.6 0,0 82.699,21.2 64.199,-8.2 0,0 -23.899,-20 -32.6,-5.9"
   id="path58"
   style="fill:none;stroke:#000000" />
<path
   d="m 720.6,236.7 c 0,0 -84.8,-13 -50,24.7 0,0 57.7,61.3 51.101,22.4"
   id="path60"
   style="fill:none;stroke:#000000" />
<path
   d="m 723.9,321.5 c 0,0 -107.7,-78.9 -81.601,-14.1 0,0 33.699,78.898 40.199,38.898"
   id="path62"
   style="fill:none;stroke:#000000" />
<path
   d="m 644.5,373.3 c 0,0 -118.601,-61.3 -68.5,-63.6 0,0 69.6,2.399 51.1,23.6"
   id="path64"
   style="fill:none;stroke:#000000" />
<path
   d="m 543.3,386.3 c 0,0 -71.8,-89.5 -27.2,-77.7 0,0 63.101,31.801 34.801,47.102"
   id="path66"
   style="fill:none;stroke:#000000" />
<path
   d="m 456.3,385.1 c 0,0 -8.7,-74.199 16.3,-48.3 0,0 27.2,25.9 5.399,29.4"
   id="path68"
   style="fill:none;stroke:#000000" />
<path
   d="m 398.699,393.4 c 0,0 -63.101,-82.5 -22.8,-67.102 0,0 48.899,4.7 27.199,28.301 0,0 -8.699,9.399 -17.399,-1.199"
   id="path70"
   style="fill:none;stroke:#000000" />
<path
   d="m 210.5,389.8 c 0,0 43.5,-45.899 13.1,-57.7 0,0 -35.899,5.9 -19.6,29.4"
   id="path72"
   style="fill:none;stroke:#000000" />
<path
   d="m 294.2,373.3 c 0,0 -54.4,-63.6 -30.5,-61.3 0,0 114.199,9.4 68.499,33 0,0 -43.499,23.6 -42.399,2.4"
   id="path74"
   style="fill:none;stroke:#000000" />
<path
   d="m 197.4,179 c 0,0 -21.8,24.7 4.4,33 0,0 30.5,16.5 34.8,-5.9 0,0 -2.2,-45.9 -14.1,-33 0,0 -15.2,16.5 -3.3,23.6"
   id="path76"
   style="fill:none;stroke:#000000" />
<path
   d="m 331.199,135.4 c 0,0 -35.899,-27.1 -33.699,29.4 0,0 2.199,28.3 22.8,28.3 6.5,0 51.101,2.4 45.7,-20 0,0 -52.2,-44.8 -56.601,-9.4"
   id="path78"
   style="fill:none;stroke:#000000" />
<path
   d="m 294.2,230.8 c 0,0 -50,9.4 -20.7,34.2 29.3,24.8 29.399,40 47.899,25.9 18.5,-14.1 46.8,-18.8 29.399,-38.9 -17.401,-20.1 -37,-27.1 -42.399,-7.1 -5.399,20 -3.301,29.4 2.199,29.4 5.399,0 20.7,-1.2 20.7,-11.8"
   id="path80"
   style="fill:none;stroke:#000000" />
<path
   d="m 424.8,146 c 0,0 -26.101,-16.5 -25,18.8 0,0 -13.101,37.7 5.399,40 18.5,2.4 21.8,9.4 37,-9.4 15.2,-18.8 30.5,-29.4 14.101,-31.8 -16.3,-2.4 -39.2,-1.2 -38.101,15.3"
   id="path82"
   style="fill:none;stroke:#000000" />
<path
   d="m 498.699,226.1 c 0,0 -40.199,5.9 -22.8,21.2 17.399,15.3 31.5,25.9 44.601,16.5 13.101,-9.4 44.6,-13 34.8,-37.7 -9.8,-24.7 -26.101,-54.2 -37,-30.6 -10.899,23.6 -20.7,40 -9.8,44.8 10.899,4.7 16.3,5.9 26.1,-2.4 9.801,-8.2 9.801,-20 1.101,-22.4"
   id="path84"
   style="fill:none;stroke:#000000" />
<path
   d="m 485.699,134.2 c 0,0 -16.3,20 -6.5,24.7 9.8,4.7 3.301,21.2 15.2,18.8 12,-2.4 23.899,-10.6 30.5,-22.4 6.5,-11.8 4.399,-34.2 -9.801,-27.1 -14.2,7.1 -25,21.2 -18.5,24.7"
   id="path86"
   style="fill:none;stroke:#000000" />
<path
   d="m 579.199,171.9 c 0,0 -17.399,-9.4 -15.199,13 2.2,22.4 2.199,34.2 14.1,35.3 12,1.2 28.301,0 28.301,-7.1 0,-7.1 -21.801,-36.5 -25,-25.9"
   id="path88"
   style="fill:none;stroke:#000000" />
<path
   d="m 561.8,115.4 c 0,0 -27.2,22.4 -15.2,30.6 12,8.2 20.7,13 29.4,5.9 8.7,-7.1 8.699,-21.2 5.399,-22.4 -3.3,-1.2 -15.2,-1.2 -16.301,10.6"
   id="path90"
   style="fill:none;stroke:#000000" />
<path
   d="m 412.8,237.9 c 0,0 -28.3,2.4 -16.3,33 12,30.6 13.1,22.4 30.5,16.5 17.4,-5.9 33.699,-9.4 28.3,-24.7 -5.399,-15.3 -22.8,-20 -29.399,-5.9 -6.599,14.1 -14.101,10.6 -14.101,23.6"
   id="path92"
   style="fill:none;stroke:#000000" />
<path
   d="m 233.3,260.3 c 0,0 -21.8,24.7 -10.9,30.601 10.9,5.901 19.601,15.301 27.2,7.101 7.599,-8.2 17.4,-17.7 9.8,-25.9 -7.6,-8.2 -25,-1.2 -18.5,7.1"
   id="path94"
   style="fill:none;stroke:#000000" />
<path
   d="m 140.9,183.7 c 0,0 -19.6,15.3 -5.399,21.2 14.201,5.9 25,17.7 30.5,7.1 5.399,-10.6 7.6,-27.1 0,-24.7 -7.6,2.4 -13.101,14.1 -13.101,14.1"
   id="path96"
   style="fill:none;stroke:#000000" />
<path
   d="m 236.6,127.1 c 0,0 -35.899,10.6 -26.1,18.8 9.799,8.2 25,15.3 35.899,10.6 10.899,-4.7 27.2,-2.4 26.101,-13 -1.099,-10.6 -15.2,-17.7 -23.9,-5.9"
   id="path98"
   style="fill:none;stroke:#000000" />
<path
   d="m 263.8,176.6 c 0,0 -21.8,37.7 -8.7,40 13.101,2.4 19.601,13 30.5,3.5 10.9,-9.4 16.3,-28.3 3.3,-24.7 -13.1,3.5 -25,10.6 -21.8,14.1"
   id="path100"
   style="fill:none;stroke:#000000" />
<path
   d="m 374.699,207.2 c 0,0 -20.699,7.1 -12,22.4 8.699,15.3 12,30.6 16.301,28.3 4.399,-2.4 13.1,-18.8 13.1,-28.3 0,-9.4 -14.1,-15.3 -14.1,-4.7"
   id="path102"
   style="fill:none;stroke:#000000" />
<path
   d="m 601,247.3 c 0,0 -30.5,-8.2 -29.4,5.9 1.1,14.1 -5.399,35.3 3.301,36.5 8.7,1.2 16.3,5.899 26.1,-2.4 9.801,-8.2 5.4,-29.4 -5.399,-25.9"
   id="path104"
   style="fill:none;stroke:#000000" />
<path
   d="m 360.6,104.8 c 0,0 -15.199,-3.5 -14.1,9.4 1.1,13 5.399,27.1 14.1,27.1 8.701,0 20.7,4.7 26.101,-4.7 5.401,-9.4 0,-23.6 -10.899,-17.7 -10.899,5.9 -17.399,1.2 -15.2,7.1"
   id="path106"
   style="fill:none;stroke:#000000" />
<path
   d="m 478.1,281.5 c 0,0 -12,-2.4 -12,10.6 0,13 5.4,22.4 10.9,21.2 5.5,-1.2 17.399,-9.399 19.6,-16.5 2.201,-7.101 -8.699,-16.5 -14.1,-5.899"
   id="path108"
   style="fill:none;stroke:#000000" />
<path
   d="m 368.199,282.6 c 0,0 -25,10.6 -14.101,16.5 10.899,5.9 13.101,13 20.7,10.602 7.599,-2.398 15.199,-5.9 14.101,-11.801 -1.098,-5.901 -8.7,-8.199 -13.101,0"
   id="path110"
   style="fill:none;stroke:#000000" />
<path
   d="m 423.699,315.6 c 0,0 -10.899,17.7 -2.199,18.801 8.699,1.199 12,7.101 18.5,1.199 6.5,-5.902 6.5,-16.5 5.399,-20 -1.101,-3.5 -13.101,1.2 -12,7.102"
   id="path112"
   style="fill:none;stroke:#000000" />
<path
   d="m 349.699,362.7 c 0,0 -25,0 -20.699,13 4.399,13 12,16.5 20.699,14.1 8.699,-2.4 17.399,-10.6 18.5,-15.3 C 369.3,369.8 353,366.3 350.8,373.3"
   id="path114"
   style="fill:none;stroke:#000000" />
<path
   d="m 539,85.5 c 0,0 68.899,-2.4 58,9.4 -10.899,11.8 -40.601,1.6 -40.601,1.6 -2.2,13 -14.101,10.6 -43.5,5.9 C 483.5,97.7 508.5,76.9 508.5,76.9"
   id="path116"
   style="fill:none;stroke:#000000" />
</svg>