<?xml version="1.0" encoding="UTF-8" standalone="no"?>
<!-- Created with Inkscape (http://www.inkscape.org/) -->

<svg
   xmlns:dc="http://purl.org/dc/elements/1.1/"
   xmlns:cc="http://creativecommons.org/ns#"
   xmlns:rdf="http://www.w3.org/1999/02/22-rdf-syntax-ns#"
   xmlns:svg="http://www.w3.org/2000/svg"
   xmlns="http://www.w3.org/2000/svg"
   version="1.1"
   width="744.09448"
   height="1052.3622"
   id="svg2991">
  <defs
     id="defs2993" />
  <metadata
     id="metadata2996">
    <rdf:RDF>
      <cc:Work
         rdf:about="">
        <dc:format>image/svg+xml</dc:format>
        <dc:type
           rdf:resource="http://purl.org/dc/dcmitype/StillImage" />
        <dc:title></dc:title>
      </cc:Work>
    </rdf:RDF>
  </metadata>
  <g
     id="layer1">
    <path
       d="m 427.74409,346.28689 c -1.0034,0.78869 -4.05185,1.30942 -1.8231,2.27431 2.79692,2.15672 1.98495,5.88597 1.48452,8.80812 -0.40311,4.63618 5.99978,5.96909 9.08855,3.61231 3.83556,-1.92961 4.4951,-7.78655 0.90722,-10.25963 -2.53342,-1.91417 -0.59709,-4.76479 2.54359,-6.62126 -1.00266,-4.48691 -7.7205,-1.1176 -12.20078,2.18615 z"
       id="path3108"
       style="fill:#000000" />
    <path
       d="m 376.32163,344.02519 c 1.95329,4.11724 -2.20379,7.52094 -3.8267,10.75447 -0.70279,5.09326 7.32801,8.96892 10.0781,4.14015 1.05597,-3.68295 -2.28584,-8.31337 1.00623,-11.51323 -2.31938,-1.05171 -5.25639,-2.65681 -7.25763,-3.38139 z"
       id="path3096"
       style="fill:#000000" />
    <path
       d="m 463.06243,282.05575 c -5.18516,-9.9666 -11.706,-16.15054 -16.45178,-15.6018 -4.1211,0.4765 -5.59488,4.09958 -5.61334,13.79929 l -0.016,8.18111 8.18115,0.12489 c 4.49962,0.0687 9.60622,0.48753 11.34792,0.93074 7.25631,1.84639 7.3054,1.70319 2.5516,-7.43423 z"
       id="path3084"
       style="fill:#000000" />
    <path
       d="m 381.5954,295.17182 c 4.31167,-3.28868 4.31855,-4.99672 0.0358,-8.90823 -4.82096,-4.40331 -8.82147,-4.15078 -15.24037,0.96201 -5.96577,4.75167 -9.37061,8.38314 -8.59114,9.16258 0.30325,0.30333 2.63582,0.98332 5.18366,1.51108 6.97124,1.44408 14.61032,0.32462 18.61177,-2.72744 z"
       id="path3082"
       style="fill:#000000" />
    <path
       d="m 471.26148,232.43658 c -10.8913,-9.58692 -23.21662,-14.96107 -37.55186,-16.37364 -4.15444,-0.40936 -7.79367,-1.13308 -8.08741,-1.60825 -1.35705,-2.19568 4.48926,-3.32491 14.83237,-2.86489 9.31465,0.41426 11.70129,0.9288 18.03494,3.88839 7.84134,3.66409 11.62386,6.70878 16.40836,13.20769 2.92523,3.97346 3.99721,8.02273 2.1239,8.02273 -0.49892,0 -3.09094,-1.92242 -5.7603,-4.27203 z"
       id="path3080"
       style="fill:#000000" />
    <path
       d="m 513.60415,350.18856 c 3.24101,-9.4562 6.23407,-21.01864 8.19773,-31.66882 2.46098,-13.34786 1.6588,-38.8053 -1.59597,-50.63859 -5.93684,-21.5849 -18.03795,-39.32875 -33.5163,-49.14479 -6.15135,-3.90108 -8.41779,-4.17916 -6.23605,-0.76514 0.83468,1.30633 2.23432,4.83228 3.10988,7.83541 1.36271,4.67255 1.37759,5.54268 0.10353,6.03164 -0.96496,0.37031 -3.47747,-2.10824 -7.14015,-7.0437 -12.26522,-16.52762 -23.98545,-23.99555 -43.75494,-27.87991 -7.54449,-1.48236 -10.4083,-1.56078 -19.22478,-0.52637 -15.84961,1.85959 -31.9892,7.80283 -46.23079,17.02405 -6.83549,4.42592 -11.23855,5.80243 -8.67329,2.71153 0.72286,-0.87089 1.01857,-1.58344 0.6571,-1.58344 -2.78543,0 13.07955,-11.68627 22.03894,-16.23411 8.49203,-4.31057 6.87326,-4.81906 -5.37321,-1.68794 -37.66453,9.62988 -68.6231,35.0921 -82.40788,67.77726 -10.84448,25.71324 -13.71583,58.87897 -7.44963,86.0479 1.37156,5.94619 2.69546,10.99611 2.94237,11.22205 0.50938,0.46631 16.64548,-1.98017 17.26367,-2.61742 0.91928,-0.94765 0.97109,-4.13322 0.22977,-14.13775 -2.46107,-33.21278 13.35124,-59.67807 30.92212,-51.75472 5.77896,2.60598 10.33077,0.84325 19.10711,-7.3995 8.52369,-8.00536 12.14464,-9.98938 18.2308,-9.98938 3.92647,0 5.40411,0.66011 9.45022,4.2216 l 4.7959,4.22161 1.26605,-3.42989 c 0.69628,-1.88643 1.62978,-10.55536 2.07435,-19.26429 0.92935,-18.1993 2.88444,-24.24408 10.52125,-32.52907 13.12081,-14.23438 42.01257,-14.22914 57.80067,0.0105 5.15983,4.65368 3.10225,6.11755 -3.93362,2.79848 -8.54168,-4.02938 -15.38621,-5.61757 -24.24198,-5.62499 -9.78455,-0.008 -14.2447,1.18529 -20.7482,5.55205 -3.66174,2.45867 -5.93336,5.10151 -8.18981,9.52845 -2.90272,5.69464 -3.17639,7.25594 -3.88652,22.16818 -0.55752,11.70624 -1.36818,17.95594 -2.99966,23.12312 -5.2448,16.61097 -17.32782,24.3901 -32.05722,20.63864 l -5.9051,-1.50396 1.98806,2.79204 c 3.0054,4.22053 10.65993,10.97784 15.94279,14.07374 11.74943,6.88564 28.74056,7.82952 39.67274,2.20389 7.1883,-3.69907 11.20181,-8.43627 14.24932,-16.81868 2.00991,-5.52859 2.27105,-8.27783 2.13653,-22.49021 -0.18503,-19.53706 0.66199,-22.45331 7.41053,-25.51624 5.89144,-2.6739 8.86057,-2.61801 14.58667,0.27455 5.49803,2.77726 11.02573,9.65799 16.54044,20.5889 4.7163,9.34859 6.32517,11.13586 13.12693,14.58252 11.75839,5.9585 19.30514,16.5469 22.1437,31.0692 0.73764,3.77386 1.36525,13.61878 1.39445,21.87756 0.0518,14.57946 0.10344,14.91702 1.77195,11.6119 0.94537,-1.87224 2.69574,-6.25428 3.88963,-9.73785 z"
       id="path3078"
       style="fill:#000000" />
    <path
       d="m 427.60565,366.06756 c -4.17621,-1.81661 -5.95324,-5.0192 -5.4025,-9.73646 l 0.42563,-3.64556 -5.00759,0.68872 c -2.75424,0.37879 -5.7766,0.25839 -6.71641,-0.26757 -2.89056,-1.61761 0.97109,-4.87029 12.65919,-10.66289 22.5649,-11.18316 22.695,-11.22167 38.00255,-11.24005 11.74453,-0.0141 14.14861,0.2719 16.67412,1.9837 5.61654,3.80698 3.49292,5.22498 -9.82262,6.55867 -12.70328,1.27237 -19.64334,2.77557 -24.57255,5.32239 l -2.94228,1.52022 2.15057,2.73399 c 4.13221,5.2532 1.72578,13.57504 -4.82417,16.68319 -4.10282,1.94691 -6.26111,1.95943 -10.62394,0.0616 z"
       id="path3076"
       style="fill:#000000" />
    <path
       d="m 372.83968,365.96866 c -6.41881,-3.16786 -8.73791,-11.45764 -4.65685,-16.64593 l 2.15056,-2.73399 -2.94238,-1.48972 c -5.62134,-2.84627 -10.69987,-3.97762 -23.67475,-5.27414 -11.81199,-1.18036 -13.04751,-1.49976 -13.04751,-3.37304 0,-3.8753 5.1536,-5.26457 19.52906,-5.26457 l 13.19543,0 12.38994,5.56724 c 16.88807,7.58832 25.302,12.61426 24.84359,14.83979 -0.29402,1.42667 -1.46794,1.71278 -6.1816,1.50648 l -5.81871,-0.25466 0.4163,3.56527 c 0.55177,4.72638 -1.28207,7.87854 -5.64367,9.70096 -4.49717,1.879 -6.51669,1.85152 -10.55941,-0.14369 z"
       id="path3074"
       style="fill:#000000" />
    <path
       d="m 343.16553,401.60645 c -0.66492,-0.41127 -1.73502,-3.59795 -2.37808,-7.08153 -0.64315,-3.48357 -1.6084,-6.48183 -2.14481,-6.66283 -2.63093,-0.88753 -9.55733,-6.72896 -9.55733,-8.06028 0,-2.74364 1.51523,-2.54612 9.16966,1.19539 6.97916,3.41135 7.61638,4.00001 8.18143,7.55798 0.7335,4.61781 0.10354,11.63285 -1.15686,12.89379 -0.49789,0.49788 -1.44929,0.56875 -2.11401,0.15748 z"
       id="path3072"
       style="fill:#000000" />
    <path
       d="m 380.38163,401.79013 c -0.85248,-2.22148 -1.275,-1.92773 6.56502,-4.56375 8.16541,-2.7454 23.56368,-4.30647 34.66459,-3.51429 10.16544,0.72539 21.8722,4.30065 22.33843,6.82218 0.3025,1.63519 -1.44448,1.76957 -20.58382,1.58344 -11.50298,-0.11188 -25.72809,0.16499 -31.61133,0.61523 -9.48253,0.72568 -10.77373,0.61864 -11.37289,-0.94281 z"
       id="path3070"
       style="fill:#000000" />
    <path
       d="m 472.65659,401.65041 c 0,-2.17723 0.47811,-5.65899 1.0555,-7.73723 1.17901,-4.24433 11.65495,-16.45424 14.11752,-16.45424 1.96055,0 1.23205,1.52415 -5.31507,11.11886 -3.12787,4.58389 -4.58573,7.82854 -4.58573,10.20603 0,4.85351 -0.94754,6.82518 -3.27983,6.82518 -1.60651,0 -1.99719,-0.77625 -1.99239,-3.9586 z"
       id="path3068"
       style="fill:#000000" />
    <path
       d="m 441.81484,439.34787 c 27.20432,-2.13253 48.87265,-6.07417 52.59016,-9.56655 3.46023,-3.2507 4.11544,-10.6335 5.23707,-59.00802 0.77175,-33.28936 0.15893,-41.51659 -3.90102,-52.36772 -4.32628,-11.56315 -11.2866,-16.28431 -31.9032,-21.6401 -8.61525,-2.23806 -19.70646,-2.61341 -21.58928,-0.7306 -0.69676,0.69672 -1.26681,2.78432 -1.26681,4.63912 0,5.51489 -3.97065,16.43567 -7.9232,21.79185 -6.93903,9.40318 -17.99133,14.45309 -31.66278,14.46711 -10.35893,0.0106 -15.3782,-1.09509 -24.55936,-5.41028 -9.36929,-4.40351 -20.1644,-15.03472 -24.43397,-24.06269 l -3.09942,-6.55368 -6.15022,-0.48692 c -15.19912,-1.2033 -15.07646,-1.22546 -19.2505,3.47802 -2.16319,2.43765 -4.96793,7.47432 -6.4482,11.5795 -2.41943,6.7096 -2.62349,8.74041 -2.66767,26.54909 -0.0584,23.36284 -0.12332,23.49553 -12.10186,24.59351 -4.0837,0.3743 -7.7412,0.99691 -8.12792,1.38355 -1.17458,1.17466 1.68471,34.76826 3.96509,46.58517 2.57977,13.36839 5.1846,19.80926 9.03014,22.32894 1.85946,1.21834 5.90274,2.11245 11.41471,2.52416 15.34768,1.14637 107.93033,1.07594 122.84824,-0.0935 z"
       id="path3066"
       style="fill:#000000" />
    <path
       d="m 436.7593,461.56541 c 6.67684,-0.56617 16.72687,-1.81446 22.33343,-2.77396 l 10.1936,-1.74455 0.4163,-3.56488 c 0.22883,-1.96068 0.1545,-3.96157 -0.16524,-4.44643 -0.31983,-0.48485 -4.61926,-0.22604 -9.55421,0.57517 -14.42879,2.34245 -64.75279,2.9702 -84.97805,1.06002 -9.28959,-0.87735 -20.52607,-1.33994 -24.9702,-1.02796 l -8.08006,0.56723 1.06567,3.05681 c 0.58606,1.68126 1.95848,3.5347 3.04977,4.11874 2.02103,1.08164 20.42385,3.83495 29.99041,4.48699 12.23112,0.83366 49.4671,0.64523 60.69858,-0.30718 z"
       id="path3064"
       style="fill:#000000" />
    <path
       d="m 454.17718,479.88269 c 22.06259,-7.29202 41.03857,-13.60378 42.16868,-14.02613 1.47001,-0.54929 -0.58475,-1.38093 -7.2176,-2.92124 l -9.27263,-2.15334 -2.34661,2.3466 c -2.56696,2.56697 -17.25914,5.77662 -37.05501,8.09504 -14.04178,1.64452 -58.29563,1.63406 -72.83831,-0.0172 -20.57882,-2.33666 -25.89475,-3.79174 -29.98598,-8.20772 l -3.59533,-3.88069 -9.07215,2.99138 -9.07226,2.99138 3.69472,1.01429 c 2.03205,0.55784 20.55828,6.59854 41.16941,13.42374 46.8617,15.51789 44.07034,14.71544 49.08669,14.11095 2.3224,-0.27984 22.2738,-6.47501 44.33638,-13.76706 z"
       id="path3062"
       style="fill:#000000" />
    <path
       d="m 439.92617,526.47836 c 0,-1.80415 -0.58437,-2.64363 -1.84731,-2.65349 -1.01612,-0.008 -3.03498,-0.28481 -4.48643,-0.61529 -2.43262,-0.55388 -2.34991,-0.34845 1.05559,2.62507 4.50951,3.93744 5.27815,4.03119 5.27815,0.64371 z"
       id="path3060"
       style="fill:#000000" />
    <path
       d="m 449.28698,567.33557 c 4.43141,-3.94561 12.45109,-10.8934 17.82156,-15.43952 5.37057,-4.54614 9.76458,-8.46831 9.76458,-8.71596 0,-0.24764 -2.6426,-4.46312 -5.87259,-9.36772 -5.62276,-8.5381 -6.03982,-8.91745 -9.80312,-8.91745 l -3.93061,0 0.73878,8.59721 c 0.77325,8.99752 0.5138,10.98667 -1.53483,11.76945 -0.68093,0.26014 -7.02776,1.09468 -14.10414,1.85453 l -12.86626,1.38154 -5.08578,-5.417 c -16.26045,-17.31958 -52.04856,-18.24921 -52.04856,-1.352 0,3.26338 0.67292,5.04779 2.6492,7.02395 6.07486,6.07488 15.34589,7.55169 32.50809,5.17835 7.20516,-0.99641 14.37697,-1.41451 17.14459,-0.99948 9.21978,1.38258 15.38847,8.06944 15.52084,16.82447 0.0396,2.61441 0.28997,4.75347 0.55657,4.75347 0.26651,0 4.11036,-3.22823 8.54168,-7.17384 z"
       id="path3058"
       style="fill:#000000" />
    <path
       d="m 377.39893,572.13932 c -10.97882,-1.69905 -20.63393,-9.27694 -25.70991,-20.17858 -4.45807,-9.57463 -2.88189,-18.61588 4.58055,-26.27411 l 3.85741,-3.95859 -2.75905,0 c -2.1288,0 -4.95135,2.34698 -12.35406,10.27276 -5.27721,5.65001 -9.59482,10.57947 -9.59482,10.95435 0,0.87993 14.00146,13.5489 30.01585,27.15927 l 12.59805,10.70685 2.22451,-3.94765 2.22461,-3.94766 z"
       id="path3056"
       style="fill:#000000" />
    <path
       d="m 408.92624,581.8116 c 3.47888,-2.15003 5.46826,-6.11401 4.14389,-8.25693 -0.9529,-1.5416 -7.46149,-2.5711 -10.86078,-1.71791 -2.38626,0.5989 -2.59729,0.8932 -1.20104,1.6746 2.17364,1.21642 4.50659,6.81425 3.70781,8.89629 -0.81932,2.13478 -0.0264,2.0226 4.21012,-0.59605 z"
       id="path3054"
       style="fill:#000000" />
    <path
       d="m 419.71005,590.81213 c 5.37471,-2.15052 14.48125,-11.84105 15.87665,-16.8949 1.99588,-7.22856 -2.21217,-14.36677 -9.65012,-16.3696 -3.07502,-0.82805 -7.44162,-0.6719 -17.48656,0.62528 -19.78908,2.55553 -30.13275,0.62004 -36.38303,-6.808 -5.16256,-6.13533 -5.16435,-13.91016 0,-19.33963 4.25487,-4.47723 7.92679,-6.07744 15.58706,-6.79277 13.58883,-1.26895 29.44749,4.32213 38.95046,13.73227 l 5.1472,5.09702 10.46464,-1.13841 c 5.75531,-0.62614 10.91174,-1.13843 11.45843,-1.13843 0.86755,0 0.65945,-4.32545 -0.58399,-12.13972 -0.18484,-1.1612 -0.37128,-2.94256 -0.41442,-3.95861 -0.0622,-1.47408 -1.03835,-1.84734 -4.82878,-1.84734 l -4.75031,0 0,6.33376 c 0,3.89055 -0.44654,6.33377 -1.15762,6.33377 -0.63665,0 -3.19975,-1.7977 -5.69596,-3.99489 -2.49611,-2.19718 -6.90972,-5.28551 -9.80791,-6.86292 -5.22474,-2.84366 -5.49916,-2.87397 -32.25676,-3.56249 l -26.98736,-0.69442 -4.9422,4.04981 c -8.87489,7.27232 -10.93671,16.67361 -5.84236,26.63879 6.92141,13.53877 22.55689,19.44179 42.83255,16.17097 12.03516,-1.9415 18.40612,0.62043 18.48902,7.43491 0.0631,5.21675 -7.09418,11.49036 -13.10932,11.49036 -1.48046,0 -2.75094,-0.47504 -2.82348,-1.05563 -0.0725,-0.5806 -0.25069,-1.53066 -0.39586,-2.11126 -0.14517,-0.58059 -0.32341,-2.23101 -0.39586,-3.66758 -0.24852,-4.91917 -8.81921,-7.39972 -14.82907,-4.29191 -3.34143,1.728 -4.39712,4.29634 -3.15057,7.66594 0.98946,2.67496 3.32457,4.04014 12.56951,7.34857 7.86235,2.81363 16.6874,2.7211 24.12026,-0.25294 z"
       id="path3052"
       style="fill:#000000" />
    <path
       d="m 411.27737,601.07973 4.60353,-3.97987 -6.71481,0.0528 c -3.69302,0.029 -8.3007,-0.30007 -10.2391,-0.7313 l -3.52449,-0.78409 5.10792,4.70077 c 2.80936,2.58541 5.34542,4.70542 5.63567,4.71118 0.29034,0.006 2.59936,-1.78052 5.13128,-3.96947 z"
       id="path3050"
       style="fill:#000000" />
    <path
       d="m 397.88666,603.76295 c -6.34882,-5.9151 -21.09819,-19.04555 -25.52065,-22.71951 -5.19488,-4.3156 -19.53925,-16.51889 -20.05692,-17.0632 -0.29034,-0.3052 -4.86665,-4.47497 -10.16967,-9.26613 -5.88786,-5.31945 -9.83712,-9.73201 -10.1432,-11.33303 -0.39284,-2.0551 0.76741,-4.05116 5.36784,-9.23446 8.45161,-9.52243 15.09671,-15.53657 17.99876,-16.28995 2.73361,-0.70959 76.71334,0.31947 81.92432,1.13957 1.74171,0.27412 9.17494,0.80843 16.51821,1.18734 l 13.35124,0.68896 6.42418,9.28569 c 9.99887,14.4527 10.0375,13.25331 -0.72587,22.50615 -5.04734,4.33899 -13.47324,11.62295 -18.72416,16.18658 -33.53788,29.14795 -47.15629,40.49418 -48.60397,40.49418 -0.90675,0 -4.34484,-2.51199 -7.64011,-5.58219 z"
       id="path3048"
       style="fill:#000000" />
    <path
       d="m 420.96545,606.96997 c 7.0078,-5.95114 17.61638,-14.85796 23.57471,-19.79303 14.33203,-11.8708 34.55456,-29.96492 42.06664,-37.63922 l 6.03888,-6.16933 -6.9134,-8.97283 c -3.80239,-4.93506 -9.21903,-11.62954 -12.03686,-14.87664 l -5.12346,-5.90381 -14.05902,-0.66898 c -7.73234,-0.36794 -15.2465,-0.93095 -16.69805,-1.25113 -3.89528,-0.85927 -55.05688,-0.90919 -73.36606,-0.0716 l -15.83445,0.72438 -4.97188,5.24547 c -2.73446,2.88501 -8.53414,9.8548 -12.88803,15.48843 l -7.91614,10.24295 2.33173,2.53744 c 1.28244,1.39557 10.16986,9.65602 19.7497,18.35652 9.57975,8.70051 19.04597,17.30667 21.03601,19.1248 1.99003,1.81815 5.59054,4.73083 8.0013,6.4726 3.98563,2.87971 19.49685,16.02081 28.93595,24.51476 2.07953,1.87125 4.12967,3.4151 4.55595,3.43082 0.4261,0.0158 6.50859,-4.84054 13.51648,-10.79163 z"
       id="path3046"
       style="fill:#000000" />
    <path
       d="m 343.29874,630.53712 c 5.48634,-2.03071 27.62241,-5.6564 48.8603,-8.00286 3.62877,-0.40088 6.59762,-1.12791 6.59762,-1.61551 0,-1.77926 -21.60408,-19.24896 -26.3037,-21.27006 -2.66051,-1.14406 -12.13286,-3.22507 -21.04967,-4.62439 -17.87545,-2.80525 -30.93615,-5.67657 -41.17846,-9.05286 -7.82259,-2.57865 -7.60366,-2.73816 -10.1497,7.39769 -1.94001,7.72269 -2.28264,21.17863 -0.61866,24.28785 1.45136,2.71198 22.42236,15.83713 27.94583,17.4906 3.72693,1.11561 4.6854,1.04774 6.96116,-0.4931 1.45145,-0.98276 5.47231,-2.83553 8.93528,-4.11736 z"
       id="path3044"
       style="fill:#000000" />
    <path
       d="m 505.24891,625.85308 c 4.86571,-2.96502 9.53924,-6.44777 10.3856,-7.73942 2.06304,-3.1486 1.9775,-14.68852 -0.17843,-24.07514 -2.39607,-10.43275 -2.49499,-10.53731 -8.14855,-8.6179 -10.65117,3.61617 -25.93761,6.95462 -46.26876,10.1048 -7.25754,1.12447 -15.08484,2.8453 -17.39415,3.8241 -8.52057,3.61134 -18.8878,12.39982 -22.46371,19.04289 -1.51759,2.81939 -1.93427,2.68632 14.5228,4.63811 9.18219,1.08896 21.24543,3.2578 29.36685,5.27986 5.06072,1.25992 16.55786,6.78093 17.58623,8.44502 0.77523,1.25438 9.74951,-3.07628 22.59212,-10.90232 z"
       id="path3042"
       style="fill:#000000" />
    <path
       d="m 447.3155,660.48713 c 1.45155,-0.14436 9.23957,-0.30958 17.30663,-0.36721 l 14.6675,-0.10472 -0.62902,-6.59763 c -1.02111,-10.71071 -2.2572,-13.03416 -8.47677,-15.93304 -8.24502,-3.84289 -25.81853,-7.52829 -41.49226,-8.70153 -13.20258,-0.98826 -14.68889,-0.50545 -15.67364,5.0911 -1.32992,7.55784 -1.64297,15.87038 -0.78418,20.81775 0.77561,4.46742 1.05578,4.77092 5.54579,6.00884 4.15209,1.14479 16.79819,1.05338 29.53595,-0.21356 z"
       id="path3040"
       style="fill:#000000" />
    <path
       d="m 397.69127,660.6773 c 4.45327,-1.33123 4.79147,-1.69807 5.58206,-6.0538 0.81471,-4.48843 0.39652,-11.73602 -1.18136,-20.47113 l -0.7627,-4.22251 -13.68991,0.29505 c -14.55484,0.31364 -32.98611,3.23489 -42.29312,6.70313 -4.76275,1.77488 -5.52498,2.4905 -6.64925,6.24262 -0.69826,2.33088 -1.53256,7.07446 -1.85362,10.54128 l -0.58408,6.3033 12.51128,0.0116 c 12.95218,0.0122 33.29266,1.03491 34.06384,1.7128 1.04099,0.91525 10.50505,0.23847 14.85686,-1.06247 z"
       id="path3038"
       style="fill:#000000" />
    <path
       d="m 474.54526,680.73387 c 1.53586,-0.94924 3.36998,-7.55415 3.37761,-12.16282 l 0.0104,-3.58389 -7.65331,0.67061 c -4.20927,0.3689 -19.17277,0.98888 -33.25233,1.37779 l -25.59894,0.70713 0,4.37952 c 0,8.17478 -0.49468,8.0217 28.54697,8.83113 29.49695,0.82209 32.92393,0.80029 34.57415,-0.21947 z"
       id="path3036"
       style="fill:#000000" />
    <path
       d="m 381.33887,680.69537 c 17.86056,-0.49262 19.11211,-0.66084 20.84863,-2.80187 2.1271,-2.62266 2.48293,-9.30284 0.52775,-9.90777 -0.72568,-0.22454 -12.00766,-0.67319 -25.0711,-0.99691 -13.06343,-0.32377 -27.43315,-0.90739 -31.93277,-1.29693 l -8.18105,-0.70829 0.0104,3.58568 c 0.0104,5.09433 1.90996,11.28864 3.78817,12.33975 0.8799,0.49241 5.96784,0.76372 11.30647,0.60283 5.33873,-0.16082 18.25727,-0.52825 28.70797,-0.81649 z"
       id="path3034"
       style="fill:#000000" />
    <path
       d="m 272.60929,683.67791 c 6.9671,-0.4249 14.56764,-0.87144 16.88995,-0.99232 2.32239,-0.12087 4.57884,-0.28328 5.01427,-0.36093 1.08847,-0.19413 0.99549,-6.30647 -0.15704,-10.32497 -0.52182,-1.81953 -2.68274,-5.61666 -4.80193,-8.43805 -10.52738,-14.01534 -12.19495,-16.76141 -12.19495,-20.08181 0,-1.86829 0.43213,-3.66396 0.96035,-3.99042 1.43572,-0.88739 4.31771,0.49689 4.31771,2.07389 0,0.75848 2.96904,5.29452 6.59771,10.08001 12.43856,16.4038 12.52966,16.56062 13.15774,22.64604 l 0.5952,5.7665 8.56203,-0.2077 c 5.1212,-0.1243 10.08903,0.36531 12.3614,1.21818 2.08961,0.78429 4.98733,1.1278 6.43954,0.76334 2.57007,-0.64511 2.60784,-0.78958 1.4246,-5.44971 -0.6685,-2.63285 -1.34358,-11.07348 -1.50035,-18.757 -0.15666,-7.68347 -0.60726,-14.27941 -1.00151,-14.65765 -0.39407,-0.37825 -4.99186,-2.4336 -10.21716,-4.5674 -5.22539,-2.13378 -11.57882,-5.08545 -14.11855,-6.5593 -5.84905,-3.39408 -12.79994,-9.6359 -12.79994,-11.49417 0,-0.78239 -1.66822,-2.55611 -3.70715,-3.94159 -7.03304,-4.77905 -12.1273,-10.20053 -12.1273,-12.90622 0,-3.78631 3.29188,-3.34331 8.12236,1.09314 2.20963,2.02932 4.37366,3.69193 4.80909,3.69467 0.43543,0.006 0.79172,-2.31246 0.79172,-5.14498 0,-4.72701 -0.26011,-5.25785 -3.16678,-6.46182 -4.35445,-1.80364 -9.18455,-6.92651 -12.32249,-13.0698 -2.26117,-4.42643 -2.42302,-5.36166 -1.1483,-6.63645 2.15311,-2.15303 4.19722,-0.92258 6.89644,4.15125 2.17911,4.09606 7.92754,9.22124 10.34264,9.22124 0.54923,0 1.81509,-2.25642 2.81312,-5.01426 l 1.81462,-5.01424 -3.69273,-3.16688 c -3.90075,-3.34528 -5.75898,-8.0035 -5.75898,-14.43677 0,-3.01446 0.49496,-4.05155 2.19079,-4.58977 2.80652,-0.89075 2.94218,-0.72138 4.66985,5.82815 1.73068,6.56082 3.71007,8.94909 10.0294,12.10193 5.74937,2.86846 24.17348,7.30691 39.58598,9.53637 14.40231,2.08334 17.8973,2.51658 18.1625,2.25145 0.16316,-0.16325 -4.56906,-4.61766 -10.51627,-9.89863 -16.11481,-14.30945 -31.1354,-29.99276 -31.99127,-33.40247 -0.47518,-1.89365 -0.1691,-4.18847 0.84146,-6.30772 1.94934,-4.08766 11.0311,-16.24148 18.50598,-24.76568 l 5.55879,-6.33907 7.63663,-0.59051 c 19.95639,-1.54314 69.03177,-2.23789 85.75309,-1.214 5.2253,0.31997 15.4385,0.7862 22.69594,1.03606 l 13.19533,0.4543 5.06288,5.6106 c 6.94506,7.69637 17.55656,21.7407 19.48988,25.79484 1.01603,2.13074 1.32371,4.42493 0.84787,6.32118 -0.85578,3.40971 -15.87656,19.09302 -31.99118,33.40247 -5.94721,5.28097 -10.64966,9.76531 -10.44966,9.9652 0.55092,0.551 22.06239,-2.72838 33.4024,-5.09211 12.23197,-2.54967 24.6628,-6.52451 29.35724,-9.38715 3.62161,-2.20848 6.53413,-7.53504 6.53413,-11.94992 0,-3.55545 2.27764,-5.26864 4.67446,-3.51605 1.5824,1.15712 1.74811,2.30401 1.10242,7.63541 -0.67895,5.60742 -1.24797,6.7335 -5.35663,10.60235 l -4.59693,4.32858 1.75998,4.64425 c 0.96798,2.55432 1.89714,4.83153 2.06464,5.06045 0.67293,0.91921 7.55599,-4.67007 9.82007,-7.97431 2.59372,-3.78527 6.98707,-4.8321 8.1007,-1.93019 0.74404,1.93908 -7.33451,11.69151 -12.72769,15.36487 -3.43187,2.33748 -3.77168,3.01932 -3.77818,7.58265 0,2.75785 0.48366,5.01425 1.08357,5.01425 0.60001,0 2.75349,-1.6626 4.78554,-3.69468 3.95219,-3.95216 5.84679,-4.52105 7.68411,-2.30723 1.70101,2.04944 -3.16112,8.64801 -9.16872,12.44335 -2.70563,1.70942 -6.11791,4.87844 -7.58265,7.04227 -3.37883,4.99139 -13.51327,11.83847 -22.83583,15.42833 -3.97404,1.53027 -7.82326,3.16336 -8.55383,3.62901 -1.64835,1.05065 -4.42058,10.55533 -5.13392,17.60123 -0.89403,8.83087 -2.26361,19.96484 -2.66192,21.64038 -0.3042,1.27908 0.63806,1.51829 4.9016,1.2443 2.903,-0.18649 9.94301,-0.40992 15.64443,-0.49643 l 10.36619,-0.15729 -0.64748,-3.45099 c -1.07274,-5.7191 1.26991,-10.88826 8.49391,-18.74159 6.00081,-6.52346 10.83581,-14.20066 12.53625,-19.90541 0.38004,-1.27496 1.37336,-1.8077 2.95255,-1.58342 4.42511,0.62837 3.54813,5.18743 -3.37733,17.55753 -1.0766,1.92302 -4.40221,6.30721 -7.39027,9.74251 -5.33618,6.13525 -5.42691,6.35372 -5.11527,12.31156 l 0.3171,6.06541 5.806,0.18823 c 5.83576,0.18918 14.21898,0.88432 25.73826,2.13422 l 6.20911,0.67371 -0.71484,-9.91665 c -0.39313,-5.45414 -0.91928,-11.81677 -1.16893,-14.13916 -0.24993,-2.32238 -0.96581,-8.97284 -1.59097,-14.77878 -1.56638,-14.54533 -6.90407,-46.17113 -10.15554,-60.17077 -1.48339,-6.38654 -3.11883,-13.68128 -3.63452,-16.21051 -1.96215,-9.62428 -10.91146,-39.27857 -16.11792,-53.40806 -5.97462,-16.2141 -19.23203,-43.60659 -21.90167,-45.25313 -1.93907,-1.19593 -9.14188,0.99787 -52.14033,15.88067 -33.0755,11.44824 -40.7939,13.44542 -48.32474,12.50451 -3.04091,-0.37994 -18.11351,-4.99035 -33.49472,-10.24538 -50.71243,-17.32599 -57.12229,-19.29596 -58.9826,-18.12706 -2.31637,1.45553 -13.42519,23.53838 -19.01441,37.79815 -16.84435,42.97486 -29.78099,100.29326 -34.42738,152.53819 -2.03563,22.88731 -2.02828,23.49389 0.27235,22.84498 1.01603,-0.28656 7.5477,-0.8687 14.51489,-1.2936 z"
       id="path3032"
       style="fill:#000000" />
    <path
       d="m 585.20082,698.01786 c 4.14408,0 5.60382,-2.33712 10.54857,-16.89004 2.88491,-8.49068 3.04657,-9.90889 3.00964,-26.3907 -0.0773,-34.4159 -9.17588,-69.16653 -27.08638,-103.45149 -10.96035,-20.98042 -28.51502,-45.48408 -41.97272,-58.58732 l -5.42097,-5.27814 4.12355,8.97283 c 20.73426,45.11806 36.21506,109.21811 41.30074,171.01165 1.92871,23.43449 2.09866,25.73149 2.13841,28.90933 0.0377,3.0132 0.0914,3.03917 4.93571,2.37516 2.69357,-0.36926 6.48419,-0.67128 8.42345,-0.67128 z"
       id="path3030"
       style="fill:#000000" />
    <path
       d="m 197.6597,697.98406 c 10.69742,-1.10406 26.6989,-0.8222 40.37769,0.71108 4.92667,0.55232 5.54212,0.40263 5.54316,-1.3477 0.0104,-8.97263 3.7876,-48.36186 6.34806,-66.10613 9.03052,-62.58196 27.42467,-122.11315 48.10948,-155.70264 l 2.76602,-4.49179 -7.23588,3.27445 c -3.97978,1.80096 -9.61102,4.33861 -12.51402,5.63925 -14.59081,6.53722 -29.83336,15.81563 -36.2387,22.0593 -33.87156,33.01622 -61.69661,93.36335 -65.06122,141.10502 -0.34772,4.93503 -0.80199,11.61029 -1.00943,14.8339 -0.39002,6.06151 0.70919,25.46864 2.05042,36.20411 0.69478,5.5596 0.9741,6.07702 3.00907,5.57406 1.23393,-0.30498 7.46875,-1.09376 13.85535,-1.75291 z"
       id="path3028"
       style="fill:#000000" />
    <path
       d="m 580.70845,711.70006 1.84684,-3.12627 -5.33788,0 -5.33778,0 0,7.53796 0,7.53789 3.49104,-4.41158 c 1.92003,-2.42642 4.32213,-5.8185 5.33778,-7.538 z"
       id="path3026"
       style="fill:#000000" />
    <path
       d="m 434.01212,720.58138 c 15.92235,-6.09508 14.57895,-17.23978 -3.05881,-25.37485 -5.41457,-2.49742 -7.6421,-2.91134 -15.34919,-2.85265 -14.84857,0.11328 -29.41669,4.87375 -33.81437,11.0498 -2.69716,3.78779 -2.56894,5.42832 0.73048,9.34955 3.41586,4.05968 7.38246,6.17726 16.23643,8.66829 9.02939,2.54049 27.57879,2.09837 35.25546,-0.84014 z"
       id="path3024"
       style="fill:#000000" />
    <path
       d="m 491.12414,706.93695 0,-18.94788 -31.14096,-0.2429 -31.14106,-0.24291 6.82249,3.679 c 3.75237,2.02344 8.60433,5.41883 10.78211,7.5454 7.39509,7.22115 6.22635,17.52818 -2.65334,23.39957 l -4.248,2.80882 23.1504,0.52778 c 12.73249,0.2903 24.33778,0.50376 25.78923,0.47441 l 2.63913,-0.0538 0,-18.94788 z"
       id="path3022"
       style="fill:#000000" />
    <path
       d="m 387.95052,724.9559 c 0.1529,-0.12309 -1.89856,-1.59963 -4.55859,-3.28102 -8.27875,-5.23293 -11.11731,-13.16907 -7.3298,-20.49309 1.88971,-3.65446 8.63909,-8.44987 15.56907,-11.06182 2.75782,-1.03946 5.01427,-2.07949 5.01427,-2.3112 0,-0.23167 -16.03237,-0.28587 -35.62748,-0.1205 l -35.62739,0.3008 -0.2879,19.29139 -0.28771,19.29149 31.42876,-0.69609 c 17.2859,-0.38289 31.55397,-0.79676 31.70677,-0.91996 z"
       id="path3020"
       style="fill:#000000" />
    <path
       d="m 514.46492,707.89612 c -0.34913,-10.76055 -0.9026,-19.99794 -1.22997,-20.52756 -0.32718,-0.52962 -4.01106,-0.96218 -8.18604,-0.96123 l -7.59103,0 -0.29525,20.00622 -0.29524,20.00628 6.9914,0.3129 c 3.84535,0.17207 7.94761,0.4059 9.11625,0.51959 2.08056,0.20236 2.11146,-0.199 1.48988,-19.3579 z"
       id="path3018"
       style="fill:#000000" />
    <path
       d="m 317.29565,726.97827 c 0.98315,-0.32081 1.23317,-1.64824 0.83157,-4.41728 -0.31569,-2.17733 -0.592,-11.23041 -0.61386,-20.11807 l -0.0405,-16.15925 -7.38698,0.30302 c -7.31707,0.30023 -7.39282,0.33364 -7.99244,3.53016 -0.33303,1.77493 -0.48621,3.68481 -0.34037,4.24431 0.14564,0.55949 -0.11334,7.98 -0.57542,16.48994 -0.46218,8.51005 -0.57787,15.89757 -0.25709,16.41663 0.55629,0.9001 13.42557,0.67261 16.37453,-0.28946 z"
       id="path3016"
       style="fill:#000000" />
    <path
       d="m 560.2196,711.39751 c -0.0697,-10.05896 -0.44381,-18.7815 -0.8311,-19.3836 -0.38729,-0.60203 -6.87967,-1.41911 -14.42737,-1.81572 -7.54779,-0.39656 -16.03379,-1.00552 -18.85812,-1.35319 l -5.13477,-0.63213 0.39972,19.08058 c 0.21988,10.4943 0.66737,19.34807 0.99436,19.67511 0.32709,0.32704 5.5456,0.89852 11.59672,1.2699 6.05122,0.37138 11.20002,0.84917 11.44194,1.06157 0.24183,0.2125 3.70357,0.38631 7.69269,0.38631 l 7.25282,0 z"
       id="path3014"
       style="fill:#000000" />
    <path
       d="m 269.06653,730.7535 c 6.01268,-0.57438 13.78233,-1.31233 17.26583,-1.64001 3.4836,-0.32778 6.62927,-0.92665 6.99047,-1.33108 0.36128,-0.40426 0.9497,-8.63313 1.30769,-18.28619 l 0.65106,-17.55114 -19.25342,-0.47678 c -13.08698,-0.32414 -19.50174,-0.11237 -20.02893,0.66105 -0.42657,0.62579 -0.78286,9.80723 -0.79172,20.40309 -0.0132,15.77781 0.25022,19.26515 1.45541,19.26515 0.80943,0 6.39112,-0.46981 12.40361,-1.04409 z"
       id="path3012"
       style="fill:#000000" />
    <path
       d="m 297.94426,772.28281 c 4.64479,-0.34483 56.18567,-0.61634 114.53538,-0.60314 71.61485,0.0158 106.77657,-0.33391 108.20183,-1.07688 4.47975,-2.33526 37.47499,-30.93007 37.47499,-32.47708 0,-0.75807 -4.82539,-1.30806 -23.22379,-2.647 -25.37943,-1.84692 -45.29908,-2.69798 -74.42175,-3.17968 -17.99848,-0.2977 -42.93768,-0.73542 -55.42042,-0.97284 -21.13267,-0.40178 -76.91881,0.81354 -91.3118,1.98944 -3.48359,0.2846 -12.03412,0.79791 -19.00132,1.14068 -6.96709,0.34277 -13.85506,0.8156 -15.30651,1.0509 -1.45154,0.23521 -7.15193,0.73353 -12.66757,1.10743 -5.51565,0.37392 -10.4376,0.92877 -10.93737,1.23301 -0.90175,0.54878 -0.14348,22.97309 1.07537,31.80152 l 0.63496,4.59938 15.96144,-0.66929 c 8.77889,-0.36821 19.76186,-0.95157 24.40656,-1.29645 z"
       id="path3010"
       style="fill:#000000" />
    <path
       d="m 205.80825,796.00742 c 2.48537,-1.26209 4.69858,-2.43144 4.91818,-2.59845 0.2196,-0.16705 -0.55818,-2.34091 -1.72833,-4.83082 -6.09097,-12.96006 -7.06987,-23.75322 -2.90488,-32.02996 4.43048,-8.80448 14.71989,-13.13054 23.96972,-10.07786 4.91451,1.62197 11.02375,8.12727 13.55416,14.43296 l 2.08763,5.20221 -0.68969,-12.13971 c -0.37928,-6.67684 -0.7968,-13.08978 -0.92794,-14.25095 -0.13095,-1.16122 -0.29882,-8.71452 -0.37297,-16.78511 l -0.13471,-14.67374 -25.85339,0.58087 -25.85349,0.58093 -5.02369,2.92622 c -6.98481,4.0686 -18.72407,15.62927 -22.94606,22.59695 -11.04467,18.22771 -10.59907,38.14151 1.12342,50.20309 10.23072,10.52672 30.70497,15.98054 40.78204,10.86337 z"
       id="path3008"
       style="fill:#000000" />
    <path
       d="m 425.642,843.43023 c 0.40659,-1.80607 3.72787,-56.68644 3.72787,-61.59967 0,-0.52719 -9.5838,-0.94628 -21.64035,-0.94628 -13.71808,0 -21.64308,0.38648 -21.64798,1.05565 -0.033,4.60519 3.50188,61.33058 3.84479,61.69404 0.24249,0.25726 6.72272,0.77364 14.40033,1.14766 7.67752,0.37391 15.49389,0.75722 17.36984,0.8518 2.74614,0.1384 3.51487,-0.29083 3.9455,-2.2032 z"
       id="path3006"
       style="fill:#000000" />
    <path
       d="m 460.96821,822.51656 c 14.69341,-14.68757 22.63244,-21.82046 37.75892,-33.92448 4.76237,-3.8107 8.36466,-7.22262 8.00526,-7.58207 -0.3594,-0.35946 -15.70934,-0.65351 -34.11075,-0.65351 l -33.45732,0 -0.70326,17.15396 c -0.75046,18.3055 -1.3905,29.70103 -2.31213,41.16711 -0.31503,3.91785 -0.2341,7.67106 0.17956,8.34041 0.47838,0.77411 2.49357,-0.85841 5.53533,-4.48411 2.63065,-3.13571 11.22762,-12.1435 19.10439,-20.01731 z"
       id="path3004"
       style="fill:#000000" />
    <path
       d="m 333.30782,873.73007 c 6.44482,-0.79238 27.35317,-3.67088 30.58872,-4.21121 3.25882,-0.54441 5.03472,-2.87333 10.94914,-14.35921 l 4.69558,-9.11901 -1.68264,-32.84217 -1.68282,-32.84203 -35.94883,0.0105 c -38.06859,0.0106 -79.16377,1.53054 -83.26122,3.08842 -2.15263,0.81845 -2.8638,2.73948 -5.75483,15.54582 -4.05883,17.979 -8.60066,42.92256 -9.42723,51.77312 -0.45643,4.88883 -0.14725,7.83901 1.18842,11.3364 2.91694,7.63792 8.89421,10.21477 28.18549,12.1512 9.02854,0.90628 53.56295,0.52846 62.15022,-0.52724 z"
       id="path3002"
       style="fill:#000000" />
    <path
       d="m 54.201883,866.5559 c 13.203617,-13.07438 30.423949,-23.02682 49.849107,-28.80996 6.90596,-2.05593 12.43178,-2.86129 22.46683,-3.27426 21.47567,-0.88364 33.92931,2.25155 61.235,15.41608 18.2779,8.81218 30.02488,13.59476 35.56729,14.48109 l 4.03329,0.64501 2.92429,-18.31327 c 3.30714,-20.71066 7.93055,-42.15416 12.14567,-56.33217 l 2.85617,-9.60644 -2.29357,-1.72996 c -1.26143,-0.95151 -3.10431,-4.24922 -4.09528,-7.32824 -3.01501,-9.36766 -6.83191,-13.87847 -13.57979,-16.04842 -2.69037,-0.86516 -8.77211,1.91385 -10.25587,4.68637 -2.84223,5.31056 -0.59106,17.96648 5.22257,29.36215 1.28112,2.51125 2.0149,5.37381 1.66219,6.48484 -0.34715,1.09407 -3.58185,3.63916 -7.1882,5.65598 -22.19382,12.41152 -54.21684,2.00495 -64.77125,-21.04873 -7.36447,-16.08616 -4.99732,-35.28708 6.48268,-52.58249 4.1177,-6.20349 11.70742,-14.37583 15.90614,-17.12682 2.42687,-1.59028 2.46851,-1.80585 0.92559,-4.78966 -7.55731,-14.61409 -8.99802,-56.25651 -2.97092,-85.86818 2.27435,-11.17383 8.45792,-31.83266 12.67652,-42.35103 7.5444,-18.81091 20.25993,-41.89751 30.74379,-55.81949 l 3.97253,-5.27532 -5.806,4.15869 c -34.84782,24.9608 -68.43158,57.4023 -92.89504,89.73533 -33.007862,43.62632 -55.443507,90.91616 -68.586643,144.56765 -8.595281,35.0873 -11.746702,62.6701 -13.14389,115.03902 l -0.503538,18.87229 5.206364,-7.93039 c 2.863524,-4.36185 8.359763,-11.05317 12.21397,-14.86967 z"
       id="path3000"
       style="fill:#000000" />
    <path
       d="m 428.31433,896.84208 c 11.5825,-7.93714 28.26481,-14.48183 44.33638,-17.39369 10.02007,-1.81546 40.88642,-1.82074 52.25356,-0.0106 4.64479,0.74033 18.65822,3.67051 31.14096,6.51143 25.87016,5.88786 35.19592,7.2353 46.51163,6.72024 22.67446,-1.03201 47.81413,-11.15852 70.66306,-28.46354 19.47443,-14.74943 32.35482,-37.92436 37.50985,-67.4891 2.04637,-11.73618 2.68716,-42.23808 1.20877,-57.5317 -6.88928,-71.26402 -43.03312,-144.33646 -100.97887,-204.15002 -15.85809,-16.36943 -25.43633,-24.60487 -40.77732,-35.06075 -11.1272,-7.58392 -47.37344,-26.6473 -48.50835,-25.51246 -0.23901,0.23916 3.67888,4.20219 8.70672,8.80673 32.39694,29.66919 55.82044,67.7918 68.41698,111.35143 3.978,13.75569 5.29351,20.36577 7.41468,37.25571 0.81329,6.47628 2.0004,15.57532 2.6379,20.2201 3.07567,22.40799 -4.56284,47.71396 -21.19814,70.22857 -15.04207,20.35817 -26.93866,31.55755 -70.66505,66.52396 -14.80523,11.83916 -31.1939,25.3129 -36.4192,29.94173 -19.9595,17.68056 -36.92067,36.62801 -49.07303,54.81988 -5.11527,7.65729 -14.51414,26.20919 -16.39668,32.36423 -0.72436,2.36853 -0.3318,2.20247 3.82943,-1.61984 2.55,-2.34234 6.77407,-5.72371 9.38672,-7.51415 z"
       id="path2998"
       style="fill:#000000" />
    <path
       d="m 580.9247,935.79755 c -0.85474,-28.44871 -1.41782,-34.04399 -3.42575,-34.04399 -0.85945,0 -11.71137,-2.36667 -24.11545,-5.25932 -12.40399,-2.89265 -28.39906,-6.03406 -35.54449,-6.98099 -29.10025,-3.85641 -59.67719,1.34459 -80.02407,13.61171 l -5.8059,3.50033 -0.66774,10.49558 c -0.36722,5.77263 -0.72351,16.12115 -0.79172,22.99683 l -0.12397,12.50142 5.54202,-0.53162 c 3.04808,-0.29232 8.62976,-1.31957 12.40361,-2.28259 10.65371,-2.71889 51.49434,-3.36727 74.42175,-1.18149 21.54265,2.05372 37.15656,4.2811 48.55884,6.92715 4.6448,1.07782 8.84691,2.00283 9.33802,2.05551 0.4911,0.0528 0.5968,-9.76115 0.23485,-21.80853 z"
       id="path2996"
       style="fill:#000000" />
    <path
       d="m 243.05172,955.56091 c 4.89482,-1.38433 21.65241,-3.99565 38.53039,-6.00429 22.31044,-2.65502 74.50088,-2.59433 84.97805,0.0992 4.06419,1.04473 9.88328,2.13892 12.93135,2.43165 l 5.54212,0.53204 0,-8.67567 c 0,-13.79919 -3.21096,-81.64985 -3.8933,-82.26984 -0.33999,-0.30889 -0.8392,0.0592 -1.10929,0.81697 -1.2164,3.41578 -7.51491,10.3974 -10.85286,12.02991 -10.16431,4.97097 -51.03282,8.934 -81.26224,7.88009 -26.08532,-0.90945 -37.67046,-3.16575 -45.1378,-8.79075 -4.19232,-3.15803 -4.03706,-3.52593 -5.42021,12.83718 -1.68763,19.96737 -2.14359,28.11427 -2.82339,50.44894 l -0.636,20.89139 2.99316,-0.66537 c 1.64627,-0.36595 4.41822,-1.06838 6.16002,-1.56106 z"
       id="path2994"
       style="fill:#000000" />
    <path
       d="m 245.21076,969.93749 c 1.18758,-0.23065 8.55063,-0.97157 16.36229,-1.64655 7.81167,-0.67499 15.39074,-1.4026 16.84219,-1.6169 2.802,-0.4137 12.60643,-1.18856 33.25224,-2.62778 26.77285,-1.86645 62.05591,-0.038 71.51875,3.70672 2.95585,1.16966 2.59852,-6.40798 -0.37721,-8.00059 -1.22365,-0.65483 -9.41799,-1.89833 -18.2096,-2.76344 -40.68491,-4.00335 -121.14449,2.03656 -132.94197,9.97962 -6.47016,4.35627 -6.09851,4.85458 3.04864,4.08792 4.58996,-0.38479 9.31719,-0.88823 10.50467,-1.119 z"
       id="path2992"
       style="fill:#000000" />
    <path
       d="m 585.53671,968.27405 c -4.45911,-3.81831 -3.9095,-3.64549 -19.99077,-6.28785 -24.67053,-4.05371 -41.65082,-5.51552 -70.19929,-6.04324 -29.314,-0.54198 -57.79992,1.18882 -62.69643,3.80943 -1.60529,0.8592 -2.22461,2.20879 -2.22461,4.8482 0,4.10396 -0.0886,4.04019 3.63998,2.62271 9.304,-3.53744 36.24501,-4.89296 64.97577,-3.26931 11.90224,0.67266 23.54051,1.42207 25.86291,1.66525 2.3224,0.24321 8.02269,0.72871 12.66748,1.07887 4.6448,0.35016 9.6326,0.80663 11.08414,1.01433 1.45146,0.20764 6.20176,0.68681 10.5563,1.06463 4.35445,0.37781 12.66749,1.26958 18.47339,1.98172 5.80599,0.71214 10.76402,1.14343 11.01801,0.95865 0.25407,-0.18496 -1.1711,-1.73445 -3.16688,-3.44339 z"
       id="path2990"
       style="fill:#000000" />
    <path
       d="m 594.04787,1009.1359 c 0,-10.63627 -1.54896,-30.11113 -2.46795,-31.03013 -0.56053,-0.56045 -45.32923,-4.0431 -72.48164,-5.63856 -18.94847,-1.11325 -60.43669,-1.17764 -78.11647,-0.12119 l -11.08405,0.66242 -0.69242,12.1397 c -0.38069,6.67685 -0.99087,15.22746 -1.35592,19.00126 l -0.66351,6.8616 6.63408,0.251 c 3.64874,0.1379 15.4222,0.9628 26.16324,1.8329 23.06221,1.8684 58.08348,4.5035 70.72694,5.3217 4.93504,0.3193 11.34801,0.7859 14.25101,1.0368 2.903,0.2509 10.26595,0.7679 16.3622,1.1488 6.09624,0.3807 11.28198,0.8725 11.52399,1.0926 0.24183,0.2202 5.11094,0.4003 10.82018,0.4003 l 10.38032,0 z"
       id="path2988"
       style="fill:#000000" />
    <path
       d="m 255.19145,1020.6158 c 1.45146,-0.2506 7.62683,-0.7578 13.72308,-1.127 14.3862,-0.8714 61.6642,-4.3592 86.56148,-6.3862 10.74104,-0.8743 22.52251,-1.7027 26.18105,-1.8406 l 6.65178,-0.251 -0.69138,-6.471 c -0.38022,-3.559 -0.99851,-12.10958 -1.37373,-19.00127 l -0.68225,-12.53029 -14.25102,-0.84737 c -13.74512,-0.81723 -76.39134,-0.26043 -82.86677,0.73663 -1.74179,0.26814 -8.6534,0.77275 -15.35908,1.12127 -6.70567,0.34847 -14.30621,0.84948 -16.89004,1.11329 -2.58382,0.2637 -10.8653,0.99416 -18.40338,1.62333 -7.538,0.62906 -13.80391,1.24219 -13.92412,1.36253 -0.91428,0.91415 -2.4557,20.48739 -2.4557,31.18198 l 0,13.1232 15.57048,-0.676 c 8.56372,-0.3719 16.75815,-0.8809 18.2096,-1.1315 z"
       id="path2986"
       style="fill:#000000" />
    <path
       d="m 216.4425,1030.9973 c -5.66439,-2.4794 -6.90341,-7.1851 -6.79092,-25.7922 0.15968,-26.41828 2.35951,-36.09234 9.9284,-43.66122 l 5.13213,-5.132 -1.10618,-12.94443 c -1.02356,-11.97676 -0.20801,-41.952 1.53699,-56.49268 0.31362,-2.61263 0.80839,-6.69928 1.09978,-9.0813 l 0.52954,-4.33094 -7.507,-0.69778 c -9.77514,-0.90844 -16.19432,-3.14606 -35.05348,-12.21929 -8.54941,-4.11315 -19.94679,-9.00632 -25.32772,-10.87361 -9.52718,-3.30631 -10.25276,-3.39519 -27.72887,-3.39519 -16.88948,0 -18.47367,0.17592 -26.9185,2.99066 -31.98204,10.65973 -56.751105,33.37904 -65.35477,59.94614 -1.345374,4.1538 -3.557266,5.75505 -5.146166,3.7253 -0.541126,-0.69124 -1.788901,-6.7196 -2.77299,-13.39646 -0.984089,-6.67679 -1.994462,-13.32725 -2.245053,-14.77878 -0.250874,-1.45147 -0.935666,-11.90218 -1.521824,-23.2238 C 24.764943,814.69195 31.741084,766.12929 47.759614,718.49118 71.668567,647.38715 113.59645,586.12916 173.38028,534.9548 217.02339,497.59675 280.6455,461.6543 320.1125,452.0603 l 7.38942,-1.79627 -8.97286,-0.77767 c -19.44975,-1.68569 -24.41786,-7.09026 -29.6603,-32.26581 -1.14848,-5.51566 -2.5713,-16.20388 -3.16169,-23.75162 -1.27378,-16.28521 -2.05674,-20.21926 -7.40008,-37.18354 -5.03415,-15.9827 -6.65621,-28.52555 -5.90802,-45.68322 2.1175,-48.55605 24.806,-87.24207 64.60357,-110.15549 13.47258,-7.75679 19.63439,-9.79845 32.72449,-10.84293 13.97753,-1.11532 42.0494,-1.08034 62.28201,0.0776 17.07591,0.97726 21.02452,2.25529 32.63594,10.56296 5.26618,3.76777 8.68647,5.45142 11.56422,5.69236 9.97278,0.83504 21.65768,7.50271 31.57874,18.01962 17.92708,19.00354 26.92208,45.92529 25.77576,77.14524 -0.83901,22.8495 -5.87174,41.76764 -17.28147,64.9607 l -6.14777,12.49705 -0.71786,20.65017 c -0.84862,24.4156 -2.64497,34.1276 -7.16786,38.75384 -2.28914,2.34137 -5.35766,3.69522 -12.6168,5.5667 -5.27551,1.36009 -9.5919,2.88484 -9.5919,3.38833 0,0.50348 0.23505,0.91543 0.52229,0.91543 2.31288,0 32.18402,9.43873 40.22348,12.7099 14.81494,6.02796 37.24192,17.9441 50.97187,27.08286 64.34233,42.82686 123.34489,126.82552 142.67151,203.11397 13.97819,55.17622 12.05702,109.99125 -5.04631,143.98076 -15.52789,30.85877 -47.35195,56.22686 -83.13837,66.27273 -4.79618,1.34633 -12.13964,2.25873 -20.92512,2.59981 l -13.5356,0.52546 0.49553,16.49897 c 0.27263,9.07434 0.0198,20.89772 -0.56007,26.274 l -1.05568,9.77525 5.29322,5.00353 c 5.74278,5.42849 6.73327,7.87354 8.65567,21.36591 1.28847,9.04357 1.58447,32.3557 0.48969,38.5764 -1.96413,11.1605 -3.8186,11.6 -42.60363,10.0949 -44.45857,-1.725 -121.85934,-7.317 -134.18419,-9.6942 -8.88761,-1.7144 -9.24126,-1.8891 -11.62386,-5.744 -2.09404,-3.3884 -2.16224,-4.2256 -1.13435,-13.9326 0.60152,-5.68025 1.59276,-18.64072 2.20276,-28.80113 0.61018,-10.16045 1.3092,-20.84868 1.55347,-23.75162 0.24438,-2.903 0.73831,-11.92863 1.09761,-20.05694 l 0.65352,-14.77879 -7.0353,7.65333 c -3.86938,4.20932 -7.70079,7.65328 -8.51427,7.65328 -1.48442,0 -1.87906,-2.72924 -1.52653,-10.55627 0.35563,-7.89503 5.91847,-24.09704 13.45308,-39.1827 6.41297,-12.83997 7.707,-16.29645 7.7069,-20.58472 l -9e-5,-5.15365 -14.51479,-0.0486 c -7.98313,-0.0274 -15.82117,-0.39228 -17.41779,-0.8119 l -2.903,-0.76293 0,9.02289 c 0,4.96274 0.69666,15.7787 1.54801,24.03571 0.85145,8.257 2.03648,24.03829 2.63328,35.0696 0.59681,11.03132 1.33341,23.61968 1.63667,27.97414 0.30315,4.35446 1.25041,18.36791 2.10468,31.141 0.85446,12.77309 1.81132,25.599 2.12682,28.502 0.8164,7.5161 -2.06568,10.7755 -11.223,12.6921 -11.75773,2.4607 -86.90732,8.1523 -131.83551,9.9846 -32.35482,1.3196 -36.6616,1.2586 -40.86014,-0.5792 z"
       id="path4092"
       style="fill:#000000" />
  </g>
</svg>
