<?xml version="1.0" encoding="UTF-8" standalone="no"?>
<!-- Created with Inkscape (http://www.inkscape.org/) -->

<svg
   xmlns:dc="http://purl.org/dc/elements/1.1/"
   xmlns:cc="http://creativecommons.org/ns#"
   xmlns:rdf="http://www.w3.org/1999/02/22-rdf-syntax-ns#"
   xmlns:svg="http://www.w3.org/2000/svg"
   xmlns="http://www.w3.org/2000/svg"
   version="1.1"
   width="744.09448"
   height="1052.3622"
   id="svg4585">
  <defs
     id="defs4587" />
  <metadata
     id="metadata4590">
    <rdf:RDF>
      <cc:Work
         rdf:about="">
        <dc:format>image/svg+xml</dc:format>
        <dc:type
           rdf:resource="http://purl.org/dc/dcmitype/StillImage" />
        <dc:title></dc:title>
      </cc:Work>
    </rdf:RDF>
  </metadata>
  <g
     id="layer1">
    <g
       id="text4595"
       style="font-size:144px;font-style:normal;font-weight:normal;line-height:125%;letter-spacing:0px;word-spacing:0px;fill:#000000;fill-opacity:1;stroke:none;font-family:Sans">
      <path
         d="m 105.49387,830.34186 0,-20.74219 3.14453,0 0,2.91016 c 0.65103,-1.01561 1.51692,-1.83267 2.59765,-2.45118 1.08072,-0.61846 2.31119,-0.92771 3.69141,-0.92773 1.53644,2e-5 2.79621,0.31903 3.7793,0.95703 0.98305,0.63804 1.67641,1.52997 2.08007,2.67578 1.64061,-2.42185 3.77602,-3.63279 6.40625,-3.63281 2.05727,2e-5 3.6393,0.56968 4.7461,1.70898 1.10674,1.13935 1.66012,2.8939 1.66015,5.26368 l 0,14.23828 -3.49609,0 0,-13.06641 c -3e-5,-1.40623 -0.11396,-2.4186 -0.3418,-3.03711 -0.22789,-0.61847 -0.6413,-1.11652 -1.24023,-1.49414 -0.59898,-0.37758 -1.30211,-0.56639 -2.10938,-0.5664 -1.45835,10e-6 -2.66929,0.48504 -3.63281,1.45507 -0.96356,0.97007 -1.44533,2.5228 -1.44531,4.65821 l 0,12.05078 -3.51563,0 0,-13.47656 c -10e-6,-1.56249 -0.28647,-2.73436 -0.85937,-3.51563 -0.57293,-0.78123 -1.51043,-1.17186 -2.8125,-1.17187 -0.98959,10e-6 -1.90431,0.26043 -2.74414,0.78125 -0.83985,0.52085 -1.44858,1.28256 -1.82617,2.28515 -0.37761,1.00262 -0.56642,2.44793 -0.56641,4.33594 l 0,10.76172 z"
         id="path4703"
         style="font-size:40px" />
      <path
         d="m 152.3884,827.78326 c -1.3021,1.10678 -2.55535,1.88803 -3.75977,2.34375 -1.20444,0.45573 -2.49675,0.6836 -3.87695,0.6836 -2.27865,0 -4.02995,-0.55664 -5.25391,-1.66992 -1.22396,-1.11328 -1.83594,-2.53581 -1.83594,-4.26758 0,-1.01562 0.23112,-1.94335 0.69336,-2.78321 0.46224,-0.83983 1.06771,-1.51366 1.81641,-2.02148 0.74869,-0.5078 1.59179,-0.89192 2.5293,-1.15234 0.69009,-0.18228 1.73176,-0.35806 3.125,-0.52735 2.83853,-0.33853 4.92837,-0.74217 6.26953,-1.21093 0.013,-0.48176 0.0195,-0.78775 0.0195,-0.91797 -2e-5,-1.43228 -0.33205,-2.44139 -0.99609,-3.02735 -0.89846,-0.79425 -2.23309,-1.19139 -4.00391,-1.1914 -1.65366,1e-5 -2.87436,0.28973 -3.66211,0.86914 -0.78777,0.57944 -1.37045,1.60483 -1.74805,3.07617 l -3.4375,-0.46875 c 0.3125,-1.47134 0.82682,-2.65949 1.54297,-3.56445 0.71614,-0.90493 1.7513,-1.60155 3.10547,-2.08985 1.35416,-0.48826 2.92317,-0.7324 4.70703,-0.73242 1.77082,2e-5 3.20962,0.20835 4.31641,0.625 1.10675,0.41669 1.92055,0.94078 2.4414,1.57227 0.52082,0.63152 0.8854,1.42905 1.09375,2.39257 0.11717,0.59898 0.17577,1.67971 0.17579,3.24219 l 0,4.6875 c -2e-5,3.26824 0.0749,5.33529 0.22461,6.20117 0.14972,0.86589 0.44594,1.69597 0.88867,2.49024 l -3.67188,0 c -0.3646,-0.72917 -0.59897,-1.58203 -0.70312,-2.5586 z m -0.29297,-7.85156 c -1.27606,0.52084 -3.19012,0.96355 -5.74219,1.32813 -1.44532,0.20834 -2.46745,0.44271 -3.06641,0.70312 -0.59896,0.26043 -1.0612,0.64129 -1.38671,1.14258 -0.32553,0.50131 -0.48829,1.05795 -0.48829,1.66992 0,0.93751 0.35482,1.71876 1.06446,2.34375 0.70963,0.625 1.74804,0.9375 3.11523,0.9375 1.35416,0 2.55858,-0.29622 3.61328,-0.88867 1.05468,-0.59244 1.82942,-1.40299 2.32422,-2.43164 0.37759,-0.79427 0.56639,-1.96614 0.56641,-3.51563 z"
         id="path4705"
         style="font-size:40px" />
      <path
         d="m 161.1384,830.34186 0,-28.63281 3.51562,0 0,16.32812 8.32031,-8.4375 4.55079,0 -7.92969,7.69531 8.73047,13.04688 -4.33594,0 -6.85547,-10.60547 -2.48047,2.38281 0,8.22266 z"
         id="path4707"
         style="font-size:40px" />
      <path
         d="m 195.31808,823.66217 3.63282,0.44922 c -0.57294,2.1224 -1.63414,3.76953 -3.1836,4.94141 -1.54949,1.17187 -3.52866,1.75781 -5.9375,1.75781 -3.03386,0 -5.43946,-0.93425 -7.21679,-2.80274 -1.77735,-1.86848 -2.66602,-4.48892 -2.66602,-7.86132 0,-3.48957 0.89844,-6.1979 2.69531,-8.125 1.79687,-1.92707 4.1276,-2.89061 6.99219,-2.89063 2.77342,2e-5 5.03905,0.94403 6.79688,2.83203 1.75779,1.88804 2.63669,4.54429 2.63671,7.96875 -2e-5,0.20835 -0.007,0.52084 -0.0195,0.9375 l -15.46875,0 c 0.13021,2.27865 0.77474,4.02344 1.9336,5.23438 1.15884,1.21094 2.60415,1.81641 4.33593,1.8164 1.28905,10e-6 2.38931,-0.33854 3.30079,-1.01562 0.91144,-0.67708 1.63409,-1.75781 2.16796,-3.24219 z m -11.54296,-5.68359 11.58203,0 c -0.15627,-1.74478 -0.59898,-3.05337 -1.32813,-3.92578 -1.1198,-1.35415 -2.57163,-2.03124 -4.35547,-2.03125 -1.61459,10e-6 -2.97201,0.54038 -4.07226,1.62109 -1.10027,1.08074 -1.70899,2.52605 -1.82617,4.33594 z"
         id="path4709"
         style="font-size:40px" />
      <path
         d="m 206.62668,830.34186 -3.26172,0 0,-28.63281 3.51562,0 0,10.21484 c 1.48437,-1.86196 3.3789,-2.79295 5.6836,-2.79297 1.27603,2e-5 2.48371,0.25718 3.62305,0.77148 1.1393,0.51435 2.0768,1.237 2.8125,2.16797 0.73565,0.93101 1.31182,2.05406 1.72851,3.36914 0.41665,1.31512 0.62498,2.72137 0.625,4.21875 -2e-5,3.5547 -0.87893,6.30209 -2.63672,8.24219 -1.75783,1.94011 -3.8672,2.91016 -6.32812,2.91016 -2.44793,0 -4.3685,-1.02214 -5.76172,-3.06641 z m -0.0391,-10.52735 c -1e-5,2.48699 0.33853,4.28386 1.01562,5.39063 1.10676,1.8099 2.60416,2.71485 4.49219,2.71484 1.53644,10e-6 2.86457,-0.66731 3.98437,-2.00195 1.11978,-1.33463 1.67967,-3.32356 1.67969,-5.9668 -2e-5,-2.70832 -0.53712,-4.70701 -1.61133,-5.99609 -1.07423,-1.28905 -2.37306,-1.93358 -3.89648,-1.93359 -1.53647,10e-6 -2.86459,0.66733 -3.98438,2.00195 -1.11979,1.33465 -1.67969,3.26499 -1.67968,5.79101 z"
         id="path4711"
         style="font-size:40px" />
      <path
         d="m 225.57199,830.34186 0,-28.63281 3.51563,0 0,28.63281 z"
         id="path4713"
         style="font-size:40px" />
      <path
         d="m 233.24777,819.97076 c 0,-3.84113 1.06771,-6.68618 3.20313,-8.53515 1.78385,-1.53644 3.95832,-2.30467 6.52343,-2.30469 2.85155,2e-5 5.18228,0.93427 6.99219,2.80273 1.80988,1.86851 2.71483,4.44989 2.71485,7.74415 -2e-5,2.66927 -0.40042,4.76888 -1.20118,6.29882 -0.8008,1.52995 -1.96616,2.7181 -3.49609,3.56446 -1.52996,0.84635 -3.19988,1.26953 -5.00977,1.26953 -2.90365,0 -5.25065,-0.93099 -7.04101,-2.79297 -1.79037,-1.86198 -2.68555,-4.54426 -2.68555,-8.04688 z m 3.61328,0 c 0,2.65626 0.57943,4.64519 1.73828,5.9668 1.15885,1.32162 2.61718,1.98243 4.375,1.98242 1.74478,10e-6 3.19661,-0.66406 4.35547,-1.99218 1.15884,-1.32812 1.73827,-3.35286 1.73828,-6.07422 -1e-5,-2.56509 -0.58269,-4.50845 -1.74804,-5.83008 -1.16538,-1.3216 -2.61395,-1.98241 -4.34571,-1.98242 -1.75782,1e-5 -3.21615,0.65757 -4.375,1.97265 -1.15885,1.31512 -1.73828,3.3008 -1.73828,5.95703 z"
         id="path4715"
         style="font-size:40px" />
      <path
         d="m 270.35715,822.7442 3.45703,0.44922 c -0.37762,2.38282 -1.34442,4.24805 -2.90039,5.5957 -1.55601,1.34766 -3.46681,2.02149 -5.73242,2.02149 -2.83855,0 -5.12045,-0.92774 -6.84571,-2.78321 -1.72526,-1.85546 -2.58789,-4.51496 -2.58789,-7.97851 0,-2.23957 0.37109,-4.19921 1.11328,-5.87891 0.74219,-1.67967 1.87174,-2.93943 3.38868,-3.77929 1.51691,-0.83983 3.1673,-1.25975 4.95117,-1.25977 2.25259,2e-5 4.09503,0.56968 5.52734,1.70898 1.43227,1.13935 2.35024,2.75718 2.75391,4.85352 l -3.41797,0.52734 c -0.32554,-1.39321 -0.90171,-2.44139 -1.72852,-3.14453 -0.82683,-0.7031 -1.82618,-1.05467 -2.99804,-1.05468 -1.77085,10e-6 -3.20965,0.63478 -4.31641,1.90429 -1.10678,1.26955 -1.66016,3.27801 -1.66016,6.02539 0,2.78647 0.53385,4.81121 1.60157,6.07422 1.0677,1.26303 2.46092,1.89454 4.17968,1.89453 1.3802,10e-6 2.53254,-0.42317 3.45703,-1.26953 0.92447,-0.84635 1.51041,-2.14843 1.75782,-3.90625 z"
         id="path4717"
         style="font-size:40px" />
      <path
         d="m 276.84152,830.34186 0,-28.63281 3.51563,0 0,16.32812 8.32031,-8.4375 4.55078,0 -7.92969,7.69531 8.73047,13.04688 -4.33594,0 -6.85546,-10.60547 -2.48047,2.38281 0,8.22266 z"
         id="path4719"
         style="font-size:40px" />
    </g>
    <g
       id="text4595-1"
       style="font-size:144px;font-style:normal;font-weight:normal;line-height:125%;letter-spacing:0px;word-spacing:0px;fill:#000000;fill-opacity:1;stroke:none;font-family:Sans">
      <path
         d="m 104.2002,871.49524 0,-10.37109 1.57227,0 0,1.45507 c 0.32552,-0.5078 0.75846,-0.91633 1.29883,-1.22558 0.54036,-0.30924 1.15559,-0.46386 1.8457,-0.46387 0.76822,10e-6 1.3981,0.15952 1.88965,0.47852 0.49153,0.31902 0.83821,0.76498 1.04004,1.33789 0.8203,-1.21093 1.88801,-1.8164 3.20312,-1.81641 1.02863,10e-6 1.81965,0.28484 2.37305,0.85449 0.55337,0.56967 0.83006,1.44695 0.83008,2.63184 l 0,7.11914 -1.74805,0 0,-6.5332 c -1e-5,-0.70312 -0.057,-1.20931 -0.1709,-1.51856 -0.11394,-0.30923 -0.32065,-0.55826 -0.62012,-0.74707 -0.29949,-0.18879 -0.65105,-0.28319 -1.05468,-0.2832 -0.72918,10e-6 -1.33465,0.24252 -1.81641,0.72754 -0.48178,0.48503 -0.72266,1.2614 -0.72266,2.3291 l 0,6.02539 -1.75781,0 0,-6.73828 c -10e-6,-0.78124 -0.14323,-1.36718 -0.42969,-1.75781 -0.28646,-0.39062 -0.75521,-0.58593 -1.40625,-0.58594 -0.49479,10e-6 -0.95215,0.13022 -1.37207,0.39062 -0.41992,0.26043 -0.72428,0.64129 -0.91308,1.14258 -0.18881,0.50131 -0.28321,1.22397 -0.2832,2.16797 l 0,5.38086 z"
         id="path4684"
         style="font-size:20px" />
      <path
         d="m 127.64747,870.21594 c -0.65105,0.55339 -1.27768,0.94401 -1.87988,1.17188 -0.60222,0.22786 -1.24838,0.34179 -1.93848,0.34179 -1.13933,0 -2.01498,-0.27832 -2.62695,-0.83496 -0.61198,-0.55664 -0.91797,-1.2679 -0.91797,-2.13379 0,-0.5078 0.11556,-0.97167 0.34668,-1.3916 0.23112,-0.41991 0.53385,-0.75683 0.9082,-1.01074 0.37435,-0.2539 0.7959,-0.44596 1.26465,-0.57617 0.34505,-0.0911 0.86588,-0.17903 1.5625,-0.26367 1.41926,-0.16927 2.46418,-0.37109 3.13476,-0.60547 0.007,-0.24088 0.01,-0.39388 0.01,-0.45899 -1e-5,-0.71613 -0.16602,-1.22069 -0.49805,-1.51367 -0.44922,-0.39712 -1.11654,-0.59569 -2.00195,-0.5957 -0.82683,1e-5 -1.43718,0.14486 -1.83105,0.43457 -0.39389,0.28972 -0.68523,0.80242 -0.87403,1.53808 l -1.71875,-0.23437 c 0.15625,-0.73567 0.41341,-1.32974 0.77149,-1.78223 0.35807,-0.45246 0.87564,-0.80077 1.55273,-1.04492 0.67708,-0.24413 1.46158,-0.3662 2.35352,-0.36621 0.88541,10e-6 1.60481,0.10418 2.1582,0.3125 0.55338,0.20834 0.96028,0.47039 1.2207,0.78613 0.26041,0.31577 0.4427,0.71453 0.54688,1.19629 0.0586,0.29949 0.0879,0.83985 0.0879,1.6211 l 0,2.34375 c -1e-5,1.63411 0.0374,2.66764 0.1123,3.10058 0.0749,0.43295 0.22297,0.84798 0.44434,1.24512 l -1.83594,0 c -0.1823,-0.36458 -0.29949,-0.79102 -0.35156,-1.2793 z m -0.14649,-3.92578 c -0.63802,0.26042 -1.59505,0.48178 -2.87109,0.66406 -0.72266,0.10417 -1.23373,0.22136 -1.5332,0.35157 -0.29949,0.13021 -0.5306,0.32064 -0.69336,0.57129 -0.16277,0.25065 -0.24415,0.52897 -0.24414,0.83496 -10e-6,0.46875 0.1774,0.85937 0.53222,1.17187 0.35482,0.3125 0.87402,0.46875 1.55762,0.46875 0.67708,0 1.27929,-0.14811 1.80664,-0.44433 0.52734,-0.29623 0.91471,-0.7015 1.16211,-1.21583 0.1888,-0.39713 0.2832,-0.98306 0.2832,-1.75781 z"
         id="path4686"
         style="font-size:20px" />
      <path
         d="m 132.02247,871.49524 0,-14.31641 1.75781,0 0,8.16407 4.16016,-4.21875 2.27539,0 -3.96485,3.84765 4.36524,6.52344 -2.16797,0 -3.42773,-5.30274 -1.24024,1.19141 0,4.11133 z"
         id="path4688"
         style="font-size:20px" />
      <path
         d="m 149.11231,868.1554 1.81641,0.2246 c -0.28647,1.0612 -0.81707,1.88477 -1.5918,2.47071 -0.77475,0.58594 -1.76433,0.8789 -2.96875,0.8789 -1.51693,0 -2.71973,-0.46712 -3.6084,-1.40136 -0.88867,-0.93425 -1.33301,-2.24447 -1.333,-3.93067 -1e-5,-1.74478 0.44921,-3.09895 1.34765,-4.0625 0.89844,-0.96353 2.0638,-1.4453 3.4961,-1.44531 1.38671,10e-6 2.51952,0.47202 3.39843,1.41602 0.8789,0.94401 1.31835,2.27214 1.31836,3.98437 -1e-5,0.10417 -0.003,0.26042 -0.01,0.46875 l -7.73438,0 c 0.0651,1.13933 0.38737,2.01172 0.9668,2.61719 0.57942,0.60547 1.30208,0.9082 2.16797,0.9082 0.64452,0 1.19465,-0.16927 1.65039,-0.50781 0.45572,-0.33854 0.81705,-0.8789 1.08398,-1.62109 z m -5.77148,-2.8418 5.79101,0 c -0.0781,-0.87239 -0.29948,-1.52669 -0.66406,-1.96289 -0.5599,-0.67708 -1.28581,-1.01562 -2.17773,-1.01563 -0.8073,1e-5 -1.48601,0.27019 -2.03614,0.81055 -0.55013,0.54037 -0.85449,1.26303 -0.91308,2.16797 z"
         id="path4690"
         style="font-size:20px" />
      <path
         d="m 154.76661,871.49524 -1.63086,0 0,-14.31641 1.75781,0 0,5.10742 c 0.74219,-0.93097 1.68945,-1.39647 2.8418,-1.39648 0.63801,10e-6 1.24185,0.12859 1.81152,0.38574 0.56966,0.25717 1.03841,0.6185 1.40625,1.08399 0.36783,0.4655 0.65592,1.02702 0.86426,1.68457 0.20832,0.65756 0.31249,1.36068 0.3125,2.10937 -10e-6,1.77735 -0.43946,3.15105 -1.31836,4.1211 -0.87891,0.97005 -1.9336,1.45507 -3.16406,1.45507 -1.22396,0 -2.18425,-0.51106 -2.88086,-1.5332 z m -0.0195,-5.26367 c 0,1.24349 0.16927,2.14193 0.50781,2.69531 0.55338,0.90495 1.30208,1.35742 2.24609,1.35742 0.76823,0 1.43229,-0.33366 1.99219,-1.00097 0.55989,-0.66732 0.83984,-1.66178 0.83985,-2.9834 -10e-6,-1.35416 -0.26857,-2.35351 -0.80567,-2.99805 -0.53712,-0.64452 -1.18653,-0.96679 -1.94824,-0.9668 -0.76823,1e-5 -1.4323,0.33367 -1.99219,1.00098 -0.5599,0.66732 -0.83984,1.63249 -0.83984,2.89551 z"
         id="path4692"
         style="font-size:20px" />
      <path
         d="m 164.23927,871.49524 0,-14.31641 1.75781,0 0,14.31641 z"
         id="path4694"
         style="font-size:20px" />
      <path
         d="m 168.07716,866.30969 c 0,-1.92056 0.53385,-3.34309 1.60156,-4.26758 0.89192,-0.76821 1.97916,-1.15233 3.26172,-1.15234 1.42577,10e-6 2.59114,0.46713 3.49609,1.40137 0.90494,0.93425 1.35741,2.22494 1.35742,3.87207 -1e-5,1.33464 -0.2002,2.38444 -0.60058,3.14941 -0.4004,0.76498 -0.98308,1.35905 -1.74805,1.78223 -0.76498,0.42318 -1.59994,0.63476 -2.50488,0.63476 -1.45183,0 -2.62533,-0.46549 -3.52051,-1.39648 -0.89518,-0.93099 -1.34277,-2.27213 -1.34277,-4.02344 z m 1.80664,0 c -1e-5,1.32813 0.28971,2.3226 0.86914,2.9834 0.57942,0.66081 1.30859,0.99121 2.1875,0.99121 0.87239,0 1.5983,-0.33203 2.17773,-0.99609 0.57942,-0.66406 0.86913,-1.67643 0.86914,-3.03711 -1e-5,-1.28255 -0.29135,-2.25423 -0.87402,-2.91504 -0.58269,-0.6608 -1.30697,-0.9912 -2.17285,-0.99121 -0.87891,1e-5 -1.60808,0.32878 -2.1875,0.98633 -0.57943,0.65756 -0.86915,1.65039 -0.86914,2.97851 z"
         id="path4696"
         style="font-size:20px" />
      <path
         d="m 186.63184,867.69641 1.72852,0.22461 c -0.18881,1.19141 -0.67221,2.12403 -1.4502,2.79785 -0.778,0.67383 -1.7334,1.01074 -2.86621,1.01074 -1.41927,0 -2.56022,-0.46386 -3.42285,-1.3916 -0.86263,-0.92773 -1.29394,-2.25748 -1.29394,-3.98926 0,-1.11978 0.18554,-2.0996 0.55664,-2.93945 0.37109,-0.83983 0.93587,-1.46972 1.69433,-1.88965 0.75846,-0.41991 1.58366,-0.62987 2.47559,-0.62988 1.12629,10e-6 2.04752,0.28484 2.76367,0.85449 0.71614,0.56967 1.17512,1.37859 1.37695,2.42676 l -1.70898,0.26367 c -0.16277,-0.6966 -0.45085,-1.22069 -0.86426,-1.57226 -0.41342,-0.35156 -0.91309,-0.52734 -1.49902,-0.52735 -0.88542,1e-5 -1.60482,0.31739 -2.15821,0.95215 -0.55338,0.63477 -0.83008,1.63901 -0.83007,3.0127 -1e-5,1.39323 0.26692,2.4056 0.80078,3.03711 0.53385,0.63151 1.23046,0.94726 2.08984,0.94726 0.6901,0 1.26627,-0.21159 1.72852,-0.63476 0.46223,-0.42318 0.7552,-1.07422 0.8789,-1.95313 z"
         id="path4698"
         style="font-size:20px" />
      <path
         d="m 189.87403,871.49524 0,-14.31641 1.75781,0 0,8.16407 4.16016,-4.21875 2.27539,0 -3.96484,3.84765 4.36523,6.52344 -2.16797,0 -3.42773,-5.30274 -1.24024,1.19141 0,4.11133 z"
         id="path4700"
         style="font-size:20px" />
    </g>
    <g
       id="text4620"
       style="font-size:144px;font-style:normal;font-weight:normal;line-height:125%;letter-spacing:0px;word-spacing:0px;fill:#000000;fill-opacity:1;stroke:none;font-family:Sans">
      <path
         d="m 104.11135,882.92084 0,-5.18555 0.78613,0 0,0.72754 c 0.16276,-0.2539 0.37923,-0.45817 0.64942,-0.61279 0.27018,-0.15462 0.57779,-0.23193 0.92285,-0.23194 0.38411,10e-6 0.69905,0.0798 0.94482,0.23926 0.24577,0.15951 0.41911,0.38249 0.52002,0.66895 0.41015,-0.60547 0.94401,-0.9082 1.60157,-0.90821 0.51431,10e-6 0.90982,0.14242 1.18652,0.42725 0.27668,0.28483 0.41503,0.72347 0.41504,1.31592 l 0,3.55957 -0.87403,0 0,-3.2666 c 0,-0.35156 -0.0285,-0.60466 -0.0854,-0.75928 -0.057,-0.15462 -0.16033,-0.27913 -0.31006,-0.37354 -0.14975,-0.0944 -0.32553,-0.14159 -0.52735,-0.1416 -0.36459,10e-6 -0.66732,0.12126 -0.9082,0.36377 -0.24089,0.24252 -0.36133,0.6307 -0.36133,1.16455 l 0,3.0127 -0.8789,0 0,-3.36914 c -10e-6,-0.39062 -0.0716,-0.68359 -0.21485,-0.87891 -0.14323,-0.19531 -0.37761,-0.29296 -0.70312,-0.29297 -0.2474,10e-6 -0.47608,0.0651 -0.68604,0.19531 -0.20996,0.13022 -0.36214,0.32065 -0.45654,0.57129 -0.0944,0.25066 -0.1416,0.61199 -0.1416,1.08399 l 0,2.69043 z"
         id="path4665"
         style="font-size:10px" />
      <path
         d="m 115.83498,882.28119 c -0.32552,0.27669 -0.63883,0.472 -0.93994,0.58594 -0.30111,0.11393 -0.62419,0.17089 -0.96924,0.17089 -0.56966,0 -1.00748,-0.13916 -1.31347,-0.41748 -0.30599,-0.27832 -0.45899,-0.63395 -0.45899,-1.06689 0,-0.2539 0.0578,-0.48584 0.17334,-0.6958 0.11556,-0.20996 0.26693,-0.37842 0.4541,-0.50537 0.18718,-0.12695 0.39795,-0.22298 0.63233,-0.28809 0.17252,-0.0456 0.43294,-0.0895 0.78125,-0.13183 0.70963,-0.0846 1.23209,-0.18555 1.56738,-0.30274 0.003,-0.12044 0.005,-0.19693 0.005,-0.22949 0,-0.35807 -0.083,-0.61035 -0.24902,-0.75684 -0.22461,-0.19856 -0.55827,-0.29784 -1.00098,-0.29785 -0.41341,10e-6 -0.71858,0.0724 -0.91552,0.21729 -0.19694,0.14486 -0.34262,0.40121 -0.43701,0.76904 l -0.85938,-0.11719 c 0.0781,-0.36783 0.20671,-0.66487 0.38574,-0.89111 0.17904,-0.22623 0.43783,-0.40039 0.77637,-0.52246 0.33854,-0.12207 0.73079,-0.1831 1.17676,-0.18311 0.4427,10e-6 0.8024,0.0521 1.0791,0.15625 0.27669,0.10417 0.48014,0.2352 0.61035,0.39307 0.1302,0.15788 0.22135,0.35726 0.27344,0.59814 0.0293,0.14975 0.0439,0.41993 0.0439,0.81055 l 0,1.17188 c 0,0.81705 0.0187,1.33382 0.0562,1.55029 0.0374,0.21647 0.11148,0.42399 0.22216,0.62256 l -0.91796,0 c -0.0911,-0.18229 -0.14975,-0.39551 -0.17579,-0.63965 z m -0.0732,-1.96289 c -0.31901,0.13021 -0.79753,0.24089 -1.43555,0.33203 -0.36133,0.0521 -0.61686,0.11068 -0.7666,0.17578 -0.14974,0.0651 -0.2653,0.16032 -0.34668,0.28565 -0.0814,0.12532 -0.12207,0.26448 -0.12207,0.41748 0,0.23437 0.0887,0.42968 0.26612,0.58593 0.1774,0.15625 0.43701,0.23438 0.77881,0.23438 0.33853,0 0.63964,-0.0741 0.90332,-0.22217 0.26366,-0.14811 0.45735,-0.35075 0.58105,-0.60791 0.0944,-0.19857 0.1416,-0.49153 0.1416,-0.87891 z"
         id="path4667"
         style="font-size:10px" />
      <path
         d="m 118.02248,882.92084 0,-7.15821 0.87891,0 0,4.08204 2.08008,-2.10938 1.13769,0 -1.98242,1.92383 2.18262,3.26172 -1.08399,0 -1.71386,-2.65137 -0.62012,0.5957 0,2.05567 z"
         id="path4669"
         style="font-size:10px" />
      <path
         d="m 126.56741,881.25092 0.9082,0.1123 c -0.14324,0.5306 -0.40853,0.94238 -0.7959,1.23535 -0.38737,0.29297 -0.88216,0.43945 -1.48437,0.43945 -0.75847,0 -1.35987,-0.23356 -1.8042,-0.70068 -0.44434,-0.46712 -0.66651,-1.12223 -0.66651,-1.96533 0,-0.87239 0.22461,-1.54948 0.67383,-2.03125 0.44922,-0.48177 1.0319,-0.72265 1.74805,-0.72266 0.69335,10e-6 1.25976,0.23601 1.69922,0.70801 0.43944,0.47201 0.65917,1.13607 0.65918,1.99219 -10e-6,0.0521 -0.002,0.13021 -0.005,0.23437 l -3.86718,0 c 0.0326,0.56967 0.19368,1.00586 0.48339,1.3086 0.28972,0.30273 0.65104,0.4541 1.08399,0.4541 0.32226,0 0.59733,-0.0846 0.82519,-0.25391 0.22786,-0.16927 0.40853,-0.43945 0.542,-0.81054 z m -2.88575,-1.4209 2.89551,0 c -0.0391,-0.4362 -0.14974,-0.76335 -0.33203,-0.98145 -0.27995,-0.33854 -0.64291,-0.50781 -1.08887,-0.50781 -0.40365,0 -0.743,0.13509 -1.01806,0.40527 -0.27507,0.27019 -0.42725,0.63152 -0.45655,1.08399 z"
         id="path4671"
         style="font-size:10px" />
      <path
         d="m 129.39455,882.92084 -0.81543,0 0,-7.15821 0.87891,0 0,2.55372 c 0.37109,-0.46549 0.84472,-0.69824 1.4209,-0.69825 0.31901,10e-6 0.62093,0.0643 0.90576,0.19287 0.28483,0.12859 0.5192,0.30925 0.70313,0.542 0.18391,0.23275 0.32795,0.51351 0.43212,0.84228 0.10417,0.32878 0.15625,0.68034 0.15625,1.05469 0,0.88867 -0.21973,1.57552 -0.65917,2.06055 -0.43946,0.48502 -0.96681,0.72753 -1.58204,0.72753 -0.61198,0 -1.09212,-0.25553 -1.44043,-0.7666 z m -0.01,-2.63184 c 0,0.62175 0.0846,1.07097 0.2539,1.34766 0.2767,0.45247 0.65104,0.67871 1.12305,0.67871 0.38411,0 0.71614,-0.16683 0.9961,-0.50049 0.27994,-0.33366 0.41991,-0.83089 0.41992,-1.4917 -10e-6,-0.67708 -0.13428,-1.17675 -0.40283,-1.49902 -0.26856,-0.32226 -0.59327,-0.4834 -0.97413,-0.4834 -0.38411,0 -0.71614,0.16683 -0.99609,0.50049 -0.27995,0.33366 -0.41992,0.81624 -0.41992,1.44775 z"
         id="path4673"
         style="font-size:10px" />
      <path
         d="m 134.13088,882.92084 0,-7.15821 0.87891,0 0,7.15821 z"
         id="path4675"
         style="font-size:10px" />
      <path
         d="m 136.04983,880.32806 c 0,-0.96028 0.26692,-1.67154 0.80078,-2.13379 0.44596,-0.3841 0.98958,-0.57616 1.63086,-0.57617 0.71289,10e-6 1.29557,0.23357 1.74805,0.70069 0.45246,0.46712 0.6787,1.11247 0.67871,1.93603 -1e-5,0.66732 -0.10011,1.19222 -0.3003,1.57471 -0.2002,0.38249 -0.49154,0.67952 -0.87402,0.89111 -0.38249,0.21159 -0.79997,0.31738 -1.25244,0.31738 -0.72592,0 -1.31267,-0.23274 -1.76026,-0.69824 -0.44759,-0.46549 -0.67138,-1.13606 -0.67138,-2.01172 z m 0.90332,0 c 0,0.66407 0.14485,1.1613 0.43457,1.4917 0.28971,0.33041 0.65429,0.49561 1.09375,0.49561 0.43619,0 0.79915,-0.16602 1.08887,-0.49805 0.2897,-0.33203 0.43456,-0.83821 0.43457,-1.51855 -1e-5,-0.64128 -0.14568,-1.12712 -0.43702,-1.45752 -0.29134,-0.3304 -0.65348,-0.4956 -1.08642,-0.49561 -0.43946,10e-6 -0.80404,0.16439 -1.09375,0.49317 -0.28972,0.32878 -0.43457,0.82519 -0.43457,1.48925 z"
         id="path4677"
         style="font-size:10px" />
      <path
         d="m 145.32717,881.02142 0.86426,0.11231 c -0.0944,0.5957 -0.33611,1.06201 -0.7251,1.39892 -0.389,0.33692 -0.8667,0.50537 -1.4331,0.50537 -0.70964,0 -1.28012,-0.23193 -1.71143,-0.6958 -0.43132,-0.46386 -0.64697,-1.12874 -0.64697,-1.99462 0,-0.5599 0.0928,-1.04981 0.27832,-1.46973 0.18554,-0.41992 0.46793,-0.73486 0.84717,-0.94483 0.37923,-0.20995 0.79182,-0.31493 1.23779,-0.31494 0.56315,10e-6 1.02376,0.14242 1.38183,0.42725 0.35807,0.28483 0.58757,0.68929 0.68848,1.21338 l -0.85449,0.13183 c -0.0814,-0.3483 -0.22543,-0.61034 -0.43213,-0.78613 -0.20671,-0.17578 -0.45655,-0.26367 -0.74951,-0.26367 -0.44271,0 -0.80241,0.1587 -1.0791,0.47607 -0.2767,0.31739 -0.41504,0.81951 -0.41504,1.50635 0,0.69662 0.13346,1.2028 0.40039,1.51856 0.26692,0.31575 0.61523,0.47363 1.04492,0.47363 0.34505,0 0.63314,-0.10579 0.86426,-0.31738 0.23111,-0.21159 0.3776,-0.53711 0.43945,-0.97657 z"
         id="path4679"
         style="font-size:10px" />
      <path
         d="m 146.94827,882.92084 0,-7.15821 0.8789,0 0,4.08204 2.08008,-2.10938 1.13769,0 -1.98242,1.92383 2.18262,3.26172 -1.08398,0 -1.71387,-2.65137 -0.62012,0.5957 0,2.05567 z"
         id="path4681"
         style="font-size:10px" />
    </g>
    <g
       id="text4595-4"
       style="font-size:144px;font-style:normal;font-weight:normal;line-height:125%;letter-spacing:0px;word-spacing:0px;fill:#000000;fill-opacity:1;stroke:none;font-family:Sans">
      <path
         d="m 104.58427,853.58704 0,-14.51954 2.20117,0 0,2.03711 c 0.45572,-0.71092 1.06184,-1.28286 1.81836,-1.71582 0.7565,-0.43292 1.61783,-0.6494 2.58398,-0.64941 1.07551,10e-6 1.95735,0.22332 2.64551,0.66992 0.68814,0.44663 1.17349,1.07098 1.45605,1.87305 1.14843,-1.6953 2.64322,-2.54296 4.48438,-2.54297 1.44009,10e-6 2.54751,0.39878 3.32227,1.19629 0.77471,0.79754 1.16208,2.02573 1.1621,3.68457 l 0,9.9668 -2.44726,0 0,-9.14649 c -2e-5,-0.98436 -0.0798,-1.69302 -0.23926,-2.12597 -0.15952,-0.43294 -0.44891,-0.78157 -0.86816,-1.0459 -0.41929,-0.26431 -0.91148,-0.39647 -1.47657,-0.39649 -1.02084,2e-5 -1.8685,0.33953 -2.54296,1.01856 -0.6745,0.67904 -1.01174,1.76596 -1.01172,3.26074 l 0,8.43555 -2.46094,0 0,-9.4336 c -1e-5,-1.09374 -0.20053,-1.91405 -0.60156,-2.46094 -0.40105,-0.54686 -1.0573,-0.82029 -1.96875,-0.82031 -0.69272,2e-5 -1.33302,0.18231 -1.9209,0.54688 -0.5879,0.36459 -1.014,0.8978 -1.27832,1.59961 -0.26433,0.70183 -0.39649,1.71355 -0.39649,3.03515 l 0,7.53321 z"
         id="path4646"
         style="font-size:28px" />
      <path
         d="m 137.41044,851.79602 c -0.91147,0.77474 -1.78875,1.32162 -2.63184,1.64063 -0.8431,0.31901 -1.74773,0.47851 -2.71386,0.47851 -1.59506,0 -2.82097,-0.38965 -3.67774,-1.16894 -0.85677,-0.7793 -1.28516,-1.77507 -1.28516,-2.98731 0,-0.71093 0.16179,-1.36035 0.48536,-1.94824 0.32356,-0.58789 0.74739,-1.05956 1.27148,-1.41504 0.52409,-0.35546 1.11425,-0.62434 1.77051,-0.80664 0.48307,-0.1276 1.21223,-0.25064 2.1875,-0.36914 1.98697,-0.23697 3.44986,-0.51952 4.38867,-0.84766 0.009,-0.33723 0.0137,-0.55142 0.0137,-0.64258 -1e-5,-1.00259 -0.23243,-1.70897 -0.69726,-2.11914 -0.62892,-0.55597 -1.56316,-0.83397 -2.80274,-0.83398 -1.15756,1e-5 -2.01205,0.20281 -2.56347,0.6084 -0.55144,0.40561 -0.95932,1.12338 -1.22364,2.15332 l -2.40625,-0.32813 c 0.21875,-1.02993 0.57878,-1.86164 1.08008,-2.49511 0.5013,-0.63345 1.22591,-1.12108 2.17383,-1.46289 0.94791,-0.34179 2.04622,-0.51269 3.29492,-0.5127 1.23958,10e-6 2.24674,0.14585 3.02149,0.4375 0.77472,0.29168 1.34438,0.65854 1.70898,1.10059 0.36457,0.44207 0.61978,1.00033 0.76562,1.6748 0.082,0.41928 0.12304,1.17579 0.12305,2.26953 l 0,3.28125 c -1e-5,2.28777 0.0524,3.7347 0.15723,4.34082 0.1048,0.60612 0.31216,1.18718 0.62207,1.74317 l -2.57031,0 c -0.25522,-0.51042 -0.41929,-1.10742 -0.49219,-1.79102 z m -0.20508,-5.49609 c -0.89324,0.36459 -2.23308,0.67448 -4.01953,0.92968 -1.01173,0.14584 -1.72722,0.30991 -2.14649,0.49219 -0.41927,0.1823 -0.74284,0.4489 -0.9707,0.79981 -0.22787,0.35091 -0.3418,0.74056 -0.3418,1.16894 0,0.65625 0.24837,1.20313 0.74512,1.64063 0.49674,0.4375 1.22363,0.65625 2.18067,0.65625 0.94791,0 1.791,-0.20736 2.52929,-0.62207 0.73827,-0.41471 1.28059,-0.9821 1.62696,-1.70215 0.26431,-0.55599 0.39647,-1.3763 0.39648,-2.46094 z"
         id="path4648"
         style="font-size:28px" />
      <path
         d="m 143.53544,853.58704 0,-20.04297 2.46094,0 0,11.42968 5.82421,-5.90625 3.18555,0 -5.55078,5.38672 6.11133,9.13282 -3.03516,0 -4.79883,-7.42383 -1.73632,1.66797 0,5.75586 z"
         id="path4650"
         style="font-size:28px" />
      <path
         d="m 167.46122,848.91125 2.54297,0.31446 c -0.40106,1.48568 -1.14389,2.63867 -2.22852,3.45898 -1.08464,0.82031 -2.47006,1.23047 -4.15625,1.23047 -2.1237,0 -3.80762,-0.65397 -5.05175,-1.96191 -1.24415,-1.30794 -1.86622,-3.14225 -1.86622,-5.50293 0,-2.4427 0.62891,-4.33853 1.88672,-5.6875 1.25781,-1.34895 2.88932,-2.02343 4.89453,-2.02344 1.9414,10e-6 3.52734,0.66082 4.75782,1.98242 1.23045,1.32163 1.84569,3.181 1.8457,5.57813 -1e-5,0.14584 -0.005,0.36459 -0.0137,0.65625 l -10.82813,0 c 0.0911,1.59505 0.54232,2.81641 1.35352,3.66406 0.81119,0.84766 1.82291,1.27149 3.03515,1.27148 0.90234,1e-5 1.67252,-0.23697 2.31055,-0.71093 0.63801,-0.47396 1.14387,-1.23047 1.51758,-2.26954 z m -8.08008,-3.97851 8.10742,0 c -0.10938,-1.22135 -0.41928,-2.13736 -0.92968,-2.74805 -0.78387,-0.9479 -1.80014,-1.42186 -3.04883,-1.42187 -1.13022,10e-6 -2.08041,0.37827 -2.85059,1.13476 -0.77018,0.75652 -1.19629,1.76824 -1.27832,3.03516 z"
         id="path4652"
         style="font-size:28px" />
      <path
         d="m 175.37724,853.58704 -2.28321,0 0,-20.04297 2.46094,0 0,7.15039 c 1.03906,-1.30337 2.36523,-1.95507 3.97852,-1.95508 0.89322,10e-6 1.73859,0.18003 2.53613,0.54004 0.79751,0.36004 1.45376,0.8659 1.96875,1.51758 0.51496,0.6517 0.91828,1.43783 1.20996,2.3584 0.29165,0.92058 0.43748,1.90495 0.4375,2.95312 -2e-5,2.48829 -0.61525,4.41146 -1.8457,5.76953 -1.23048,1.35808 -2.70705,2.03711 -4.42969,2.03711 -1.71355,0 -3.05795,-0.71549 -4.0332,-2.14648 z m -0.0274,-7.36914 c 0,1.74089 0.23698,2.9987 0.71094,3.77343 0.77473,1.26693 1.82291,1.9004 3.14453,1.90039 1.07551,1e-5 2.0052,-0.46712 2.78906,-1.40136 0.78385,-0.93424 1.17577,-2.3265 1.17578,-4.17676 -1e-5,-1.89583 -0.37598,-3.29491 -1.12793,-4.19727 -0.75196,-0.90233 -1.66114,-1.3535 -2.72753,-1.35351 -1.07553,10e-6 -2.00522,0.46713 -2.78907,1.40136 -0.78386,0.93426 -1.17578,2.2855 -1.17578,4.05372 z"
         id="path4654"
         style="font-size:28px" />
      <path
         d="m 188.63895,853.58704 0,-20.04297 2.46094,0 0,20.04297 z"
         id="path4656"
         style="font-size:28px" />
      <path
         d="m 194.012,846.32727 c 0,-2.68879 0.7474,-4.68033 2.24219,-5.97461 1.24869,-1.07551 2.77083,-1.61327 4.5664,-1.61328 1.99609,10e-6 3.6276,0.65399 4.89454,1.96191 1.26691,1.30796 1.90037,3.11492 1.90039,5.4209 -2e-5,1.8685 -0.28029,3.33822 -0.84082,4.40918 -0.56056,1.07097 -1.37632,1.90267 -2.44727,2.49512 -1.07097,0.59245 -2.23992,0.88867 -3.50684,0.88867 -2.03255,0 -3.67546,-0.65169 -4.92871,-1.95508 -1.25325,-1.30338 -1.87988,-3.18098 -1.87988,-5.63281 z m 2.5293,0 c -1e-5,1.85938 0.40559,3.25163 1.21679,4.17676 0.8112,0.92513 1.83203,1.3877 3.0625,1.38769 1.22135,1e-5 2.23763,-0.46484 3.04883,-1.39453 0.81119,-0.92968 1.21679,-2.347 1.2168,-4.25195 -1e-5,-1.79556 -0.40789,-3.15591 -1.22363,-4.08106 -0.81577,-0.92511 -1.82976,-1.38768 -3.042,-1.38769 -1.23047,1e-5 -2.2513,0.4603 -3.0625,1.38086 -0.8112,0.92058 -1.2168,2.31055 -1.21679,4.16992 z"
         id="path4658"
         style="font-size:28px" />
      <path
         d="m 219.98856,848.26868 2.41993,0.31445 c -0.26434,1.66797 -0.9411,2.97363 -2.03028,3.91699 -1.0892,0.94336 -2.42677,1.41504 -4.01269,1.41504 -1.98699,0 -3.58432,-0.64941 -4.792,-1.94824 -1.20768,-1.29883 -1.81152,-3.16048 -1.81152,-5.58496 0,-1.5677 0.25977,-2.93944 0.7793,-4.11524 0.51953,-1.17577 1.31022,-2.0576 2.37207,-2.6455 1.06184,-0.58788 2.21711,-0.88183 3.46582,-0.88184 1.57681,10e-6 2.86652,0.39878 3.86914,1.19629 1.00259,0.79754 1.64517,1.93002 1.92773,3.39746 l -2.39257,0.36914 c -0.22788,-0.97525 -0.6312,-1.70897 -1.20997,-2.20117 -0.57878,-0.49218 -1.27832,-0.73827 -2.09863,-0.73828 -1.23959,10e-6 -2.24675,0.44435 -3.02148,1.33301 -0.77475,0.88868 -1.16212,2.2946 -1.16211,4.21777 -1e-5,1.95052 0.37369,3.36784 1.12109,4.25195 0.74739,0.88412 1.72265,1.32618 2.92578,1.32617 0.96614,1e-5 1.77278,-0.29622 2.41992,-0.88867 0.64713,-0.59244 1.05729,-1.5039 1.23047,-2.73437 z"
         id="path4660"
         style="font-size:28px" />
      <path
         d="m 224.52763,853.58704 0,-20.04297 2.46093,0 0,11.42968 5.82422,-5.90625 3.18555,0 -5.55078,5.38672 6.11133,9.13282 -3.03516,0 -4.79883,-7.42383 -1.73633,1.66797 0,5.75586 z"
         id="path4662"
         style="font-size:28px" />
    </g>
    <path
       d="m 194.95944,718.00171 c -0.24953,1.9855 -2.79953,0.64322 -3.30004,-0.41473 -1.35635,-2.86699 1.47043,-5.69283 4.12951,-6.18535 4.75646,-0.88102 8.69329,3.36695 9.07066,7.84428 0.5538,6.57066 -5.27731,11.74977 -11.55906,11.95596 -8.37258,0.27482 -14.82815,-7.19101 -14.84127,-15.27383 -0.0165,-10.1714 9.10593,-17.91745 18.9886,-17.72658 11.96924,0.23118 21.01301,11.02147 20.61189,22.70338 -0.47271,13.76673 -12.93736,24.11248 -26.41815,23.4972 -15.5641,-0.71037 -27.21455,-14.85351 -26.38251,-30.13293 0.94543,-17.36144 16.76983,-30.31846 33.8477,-29.26781 19.15879,1.17866 33.4237,18.68628 32.15312,37.56247 -1.41058,20.95615 -20.60283,36.52993 -41.27724,35.03843 -22.75353,-1.64149 -39.63694,-22.51947 -37.92374,-44.99202 1.87164,-24.55093 24.43617,-42.74454 48.70679,-40.80904 26.34836,2.10118 45.85264,26.35292 43.69436,52.42156 -2.33025,28.1458 -28.26972,48.96112 -56.13634,46.57966 -29.94327,-2.55892 -52.06993,-30.18654 -49.46497,-59.85111 2.78726,-31.74074 32.1034,-55.179 63.56588,-52.35028 33.53823,3.01535 58.2883,34.0203 55.23559,67.28066 -3.24319,35.33574 -35.93721,61.3978 -70.99544,58.1209 -37.13324,-3.47085 -64.50745,-37.85414 -61.0062,-74.71021 3.69834,-38.93077 39.77109,-67.61726 78.42499,-63.89151 40.7283,3.92569 70.72718,41.68805 66.77681,82.13975 -4.15291,42.52585 -43.60502,73.83722 -85.85453,69.66213 -20.24701,-2.0008 -39.28151,-11.88018 -52.67588,-27.17815"
       id="path4725"
       style="fill:none;stroke:#000000;stroke-width:1px;stroke-linecap:butt;stroke-linejoin:miter;stroke-opacity:1" />
  </g>
</svg>
