<?xml version="1.0" encoding="UTF-8" standalone="no"?>
<!-- Created with Inkscape (http://www.inkscape.org/) -->

<svg
   xmlns:dc="http://purl.org/dc/elements/1.1/"
   xmlns:cc="http://creativecommons.org/ns#"
   xmlns:rdf="http://www.w3.org/1999/02/22-rdf-syntax-ns#"
   xmlns:svg="http://www.w3.org/2000/svg"
   xmlns="http://www.w3.org/2000/svg"
   version="1.1"
   width="744.09448"
   height="1052.3622"
   id="svg4343">
  <defs
     id="defs4345" />
  <metadata
     id="metadata4348">
    <rdf:RDF>
      <cc:Work
         rdf:about="">
        <dc:format>image/svg+xml</dc:format>
        <dc:type
           rdf:resource="http://purl.org/dc/dcmitype/StillImage" />
        <dc:title></dc:title>
      </cc:Work>
    </rdf:RDF>
  </metadata>
  <g
     id="layer1">
    <path
       d="m 610,584.50507 a 115,115 0 1 1 -230,0 115,115 0 1 1 230,0 z"
       id="path4351"
       style="fill:#000000;fill-opacity:1;stroke:#000000;stroke-width:0.70866144;stroke-miterlimit:4;stroke-opacity:1;stroke-dasharray:none" />
    <path
       d="m 492.21875,475.53125 c -49.65155,0.30344 -95.76668,39.36437 -104.3125,88.15625 -8.92191,44.32249 12.7185,93.15054 52.3331,115.19039 38.43779,22.5622 90.72764,18.79983 124.6044,-10.65914 C 596.0944,642.40466 611.33223,598.26758 601,558.6875 c -9.66516,-39.89654 -43.10422,-73.07989 -83.59375,-80.84375 -8.25192,-1.7826 -16.74866,-2.50985 -25.1875,-2.3125 z"
       id="path4363"
       style="fill:#000000;fill-opacity:1;stroke:#000000;stroke-width:0.70866144;stroke-miterlimit:4;stroke-opacity:1;stroke-dasharray:none" />
    <path
       d="M 494.15625,481.46875 C 441.30067,480.65423 392.89963,527.05072 392,579.84375 c -2.46353,47.28803 30.95753,93.98766 77.46875,104.5625 39.78342,10.19289 85.44896,-5.28421 108.90458,-39.27463 25.46808,-34.59743 26.71301,-85.35424 0.77811,-120.08013 -19.25589,-27.02181 -51.65785,-44.43778 -84.99519,-43.58274 z"
       id="path4375"
       style="fill:#000000;fill-opacity:1;stroke:#000000;stroke-width:0.70866144;stroke-miterlimit:4;stroke-opacity:1;stroke-dasharray:none" />
    <path
       d="m 491.78125,487.46875 c -52.19304,0.31714 -98.84529,50.57177 -93.75012,103.0293 2.48654,44.7118 39.21998,85.79816 84.271,90.30186 43.04489,5.91866 88.82672,-20.08309 103.41662,-61.51866 C 600.02662,582.31522 589.655,536.4614 558.49742,511.279 540.19743,495.31571 516.08395,486.34263 491.78125,487.46875 z"
       id="path4387"
       style="fill:#000000;fill-opacity:1;stroke:#000000;stroke-width:0.70866144;stroke-miterlimit:4;stroke-opacity:1;stroke-dasharray:none" />
    <path
       d="m 494.1875,493.40625 c -51.3415,-1.09011 -97.2576,49.72176 -89.84416,100.62063 4.1697,44.79894 45.83999,83.67762 91.43791,81.62937 42.15336,-0.14975 82.69423,-32.53979 88.90416,-74.82641 7.04365,-37.2866 -11.61261,-78.4427 -45.64503,-95.95512 -13.67638,-7.63955 -29.1997,-11.84753 -44.85288,-11.46847 z"
       id="path4399"
       style="fill:#000000;fill-opacity:1;stroke:#000000;stroke-width:0.70866144;stroke-miterlimit:4;stroke-opacity:1;stroke-dasharray:none" />
    <path
       d="m 493.21875,499.375 c -48.13877,-0.38266 -90.68532,48.05231 -82.75644,95.8992 5.04642,44.40517 49.95903,81.13108 94.7497,73.76617 40.74773,-4.54701 76.19726,-42.01649 74.97549,-83.75912 0.70414,-37.63315 -26.40225,-74.18465 -63.25,-83.03125 -7.70587,-2.16369 -15.70206,-3.02995 -23.71875,-2.875 z"
       id="path4411"
       style="fill:#000000;fill-opacity:1;stroke:#000000;stroke-width:0.70866144;stroke-miterlimit:4;stroke-opacity:1;stroke-dasharray:none" />
    <path
       d="m 493.3125,505.375 c -46.266,-0.41561 -86.31107,47.68384 -76.328,93.0476 6.88729,41.62681 51.40147,73.73312 93.12299,63.79732 39.03468,-6.97809 70.25219,-47.677 63.54876,-87.50117 -4.53589,-38.82158 -40.84377,-71.56912 -80.34375,-69.34375 z"
       id="path4423"
       style="fill:#000000;fill-opacity:1;stroke:#000000;stroke-width:0.70866144;stroke-miterlimit:4;stroke-opacity:1;stroke-dasharray:none" />
    <path
       d="m 491.09375,511.3125 c -42.62869,1.3605 -78.51811,46.83564 -67.757,88.72732 7.97183,39.13373 52.51853,67.58017 91.0695,55.05393 38.14,-9.83805 64.25981,-54.47994 50.59375,-92.1875 -9.77883,-30.96977 -41.09238,-54.27179 -73.90625,-51.59375 z"
       id="path4435"
       style="fill:#000000;fill-opacity:1;stroke:#000000;stroke-width:0.70866144;stroke-miterlimit:4;stroke-opacity:1;stroke-dasharray:none" />
    <path
       d="m 494.375,517.125 c -41.86226,-0.73888 -77.59717,45.78764 -64.15341,85.99005 9.87219,35.63063 53.63681,59.45891 88.46591,44.32245 34.59954,-12.41546 54.84028,-56.83927 37.75,-90.09375 C 545.64689,533.67751 520.75535,516.2803 494.375,517.125 z"
       id="path4447"
       style="fill:#000000;fill-opacity:1;stroke:#000000;stroke-width:0.70866144;stroke-miterlimit:4;stroke-opacity:1;stroke-dasharray:none" />
    <path
       d="m 494.5625,523.125 c -38.73693,-0.84575 -71.35126,42.90796 -58.21875,79.75 10.23081,33.48701 52.69919,53.61844 84.38681,37.38481 29.47762,-13.50809 45.4161,-52.99069 29.55069,-82.04106 C 539.89689,537.61272 518.16037,522.39972 494.5625,523.125 z"
       id="path4459"
       style="fill:#000000;fill-opacity:1;stroke:#000000;stroke-width:0.70866144;stroke-miterlimit:4;stroke-opacity:1;stroke-dasharray:none" />
    <path
       d="m 494.75,529.125 c -36.08985,-0.92828 -65.86329,41.06821 -51.71875,74.71875 11.22795,31.38718 54.57112,47.10431 82.09375,27.125 24.37394,-15.76701 34.00813,-52.77958 15.9375,-76.59375 -10.12184,-15.05726 -27.81819,-25.9124 -46.3125,-25.25 z"
       id="path4471"
       style="fill:#000000;fill-opacity:1;stroke:#000000;stroke-width:0.70866144;stroke-miterlimit:4;stroke-opacity:1;stroke-dasharray:none" />
    <path
       d="m 492.53125,535.125 c -32.61788,0.943 -57.71328,40.54842 -42.46875,70.03125 12.42362,27.38097 52.32351,38.44663 75.53125,18.15625 19.33873,-15.41798 25.7864,-47.22391 9.41303,-67.09086 -9.55387,-13.29705 -25.70442,-22.3336 -42.47553,-21.09664 z"
       id="path4483"
       style="fill:#000000;fill-opacity:1;stroke:#000000;stroke-width:0.70866144;stroke-miterlimit:4;stroke-opacity:1;stroke-dasharray:none" />
    <path
       d="m 494.3125,541.03125 c -30.15045,-0.31443 -53.25645,37.38111 -37.84378,63.61799 12.65971,24.41862 50.51393,31.66938 69.28128,10.47576 15.85509,-15.99159 17.3551,-45.29466 -0.0625,-60.6875 -8.08086,-8.34664 -19.62018,-13.87799 -31.375,-13.40625 z"
       id="path4495"
       style="fill:#000000;fill-opacity:1;stroke:#000000;stroke-width:0.70866144;stroke-miterlimit:4;stroke-opacity:1;stroke-dasharray:none" />
    <path
       d="m 494.4375,545.03125 c -28.13302,-0.45556 -49.30149,35.97136 -33.3125,59.75 12.61316,21.09986 46.94124,26.13104 63,6.3125 14.52361,-15.83642 13.49879,-44.4323 -4.84375,-57.125 -6.95708,-5.705 -15.80289,-9.30817 -24.84375,-8.9375 z"
       id="path4503"
       style="fill:#000000;fill-opacity:1;stroke:#000000;stroke-width:0.70866144;stroke-miterlimit:4;stroke-opacity:1;stroke-dasharray:none" />
    <path
       d="m 494.65625,551.03125 c -24.83481,-0.54981 -42.95173,33.10362 -26.90625,52.9375 12.63261,17.67215 44.00898,18.70267 55.21875,-1.125 10.8294,-16.43502 4.08016,-41.75973 -14.84375,-48.9375 -4.20353,-1.91663 -8.8166,-3.11112 -13.46875,-2.875 z"
       id="path4515"
       style="fill:#000000;fill-opacity:1;stroke:#000000;stroke-width:0.70866144;stroke-miterlimit:4;stroke-opacity:1;stroke-dasharray:none" />
    <path
       d="m 494.875,557.03125 c -22.58915,-0.68565 -36.9029,32.4322 -18.90625,47.25 12.85803,12.05304 38.10576,8.78642 44.15625,-8.8125 7.57668,-17.11042 -5.93607,-39.48487 -25.25,-38.4375 z"
       id="path4527"
       style="fill:#000000;fill-opacity:1;stroke:#000000;stroke-width:0.70866144;stroke-miterlimit:4;stroke-opacity:1;stroke-dasharray:none" />
    <path
       d="m 493.3125,563.03125 c -17.64454,0.939 -27.15783,28.66026 -11.21875,38.53125 11.67908,8.81503 32.76125,2.33611 33.96875,-13.40625 1.96186,-12.84968 -9.04284,-27.02876 -22.75,-25.125 z"
       id="path4539"
       style="fill:#000000;fill-opacity:1;stroke:#000000;stroke-width:0.70866144;stroke-miterlimit:4;stroke-opacity:1;stroke-dasharray:none" />
    <path
       d="m 494.09375,568.875 c -13.30065,0.65817 -20.00993,22.49376 -7.0625,28.8125 9.76894,5.99868 25.86467,-2.32731 23.15625,-14.5 -0.98296,-7.75327 -7.79966,-15.23881 -16.09375,-14.3125 z"
       id="path4551"
       style="fill:#000000;fill-opacity:1;stroke:#000000;stroke-width:0.70866144;stroke-miterlimit:4;stroke-opacity:1;stroke-dasharray:none" />
    <path
       d="m 494.1875,574.84375 c -9.30449,1.13705 -11.52243,17.89785 -0.96875,18.84375 6.67628,1.22182 14.37699,-6.2434 10.1875,-12.6875 -1.52637,-3.63951 -4.98977,-6.7517 -9.21875,-6.15625 z"
       id="path4563"
       style="fill:#000000;fill-opacity:1;stroke:#000000;stroke-width:0.70866144;stroke-miterlimit:4;stroke-opacity:1;stroke-dasharray:none" />
    <path
       d="m 495.1875,580.8125 c -4.1858,0.14448 -3.95119,9.44069 1.125,6.75 3.46144,-1.5154 2.18606,-6.21969 -1.125,-6.75 z"
       id="path4575"
       style="fill:#000000;fill-opacity:1;stroke:#000000;stroke-width:0.70866144;stroke-miterlimit:4;stroke-opacity:1;stroke-dasharray:none" />
  </g>
</svg>
