<?xml version="1.0" encoding="UTF-8" standalone="no"?>
<!-- Created with Inkscape (http://www.inkscape.org/) -->

<svg
   xmlns:dc="http://purl.org/dc/elements/1.1/"
   xmlns:cc="http://creativecommons.org/ns#"
   xmlns:rdf="http://www.w3.org/1999/02/22-rdf-syntax-ns#"
   xmlns:svg="http://www.w3.org/2000/svg"
   xmlns="http://www.w3.org/2000/svg"
   xmlns:sodipodi="http://sodipodi.sourceforge.net/DTD/sodipodi-0.dtd"
   xmlns:inkscape="http://www.inkscape.org/namespaces/inkscape"
   width="744.09448819"
   height="1052.3622047"
   id="svg2"
   version="1.1"
   inkscape:version="0.48.4 r9939"
   sodipodi:docname="新建文档 1">
  <defs
     id="defs4" />
  <sodipodi:namedview
     id="base"
     pagecolor="#ffffff"
     bordercolor="#666666"
     borderopacity="1.0"
     inkscape:pageopacity="0.0"
     inkscape:pageshadow="2"
     inkscape:zoom="0.98994949"
     inkscape:cx="229.97112"
     inkscape:cy="173.16844"
     inkscape:document-units="px"
     inkscape:current-layer="layer1"
     showgrid="false"
     inkscape:window-width="1680"
     inkscape:window-height="988"
     inkscape:window-x="-8"
     inkscape:window-y="-8"
     inkscape:window-maximized="1" />
  <metadata
     id="metadata7">
    <rdf:RDF>
      <cc:Work
         rdf:about="">
        <dc:format>image/svg+xml</dc:format>
        <dc:type
           rdf:resource="http://purl.org/dc/dcmitype/StillImage" />
        <dc:title></dc:title>
      </cc:Work>
    </rdf:RDF>
  </metadata>
  <g
     inkscape:label="Layer 1"
     inkscape:groupmode="layer"
     id="layer1">
    <path
       style="fill:#000000"
       d="m 143.07143,957.32578 c 4.675,-0.43969 10.975,-1.13334 14,-1.54146 4.55544,-0.61459 5.28451,-0.51379 4.24527,0.58694 -0.89318,0.94601 -4.9273,1.39019 -14,1.54146 -12.09572,0.20167 -12.31208,0.17175 -4.24527,-0.58694 z m -14.26903,-0.69097 c 0.67703,-0.27392 2.02703,-0.29059 3,-0.0371 0.97297,0.25354 0.41903,0.47766 -1.23097,0.49804 -1.65,0.0204 -2.44606,-0.18706 -1.76903,-0.46099 z m -6.73097,-8.78181 c -12.76859,-2.70823 -23.20414,-7.05315 -33.30206,-13.86557 -5.22438,-3.52455 -6.93078,-4.2535 -7.35699,-3.1428 -0.70092,1.82657 -2.34095,1.89112 -2.34095,0.0921 0,-1.6855 4.89619,-7.08317 5.69788,-6.28147 0.32292,0.32292 0.0322,1.25571 -0.64594,2.07287 -1.03853,1.25135 -0.10023,2.21858 5.94731,6.13072 26.96038,17.44058 60.88092,18.9934 87.37166,3.99971 9.11683,-5.1601 17.68773,-12.25146 16.99367,-14.06016 -0.67145,-1.74975 0.93209,-1.95447 3.70116,-0.47251 2.57352,1.37731 2.47514,2.91902 -0.14258,2.23448 -1.52131,-0.39784 -3.32686,0.65962 -6.75,3.95324 -8.88523,8.54907 -20.38235,14.86531 -33.17316,18.22455 -8.75681,2.29979 -27.65406,2.88497 -36,1.1148 z m 4.59043,-25.41593 c -0.29019,-0.46953 3.19521,-1.11641 7.74533,-1.43752 4.55011,-0.3211 10.16098,-1.23431 12.46859,-2.02935 4.59602,-1.58346 5.88435,-0.57153 1.44565,1.13551 -6.97239,2.68144 -20.54061,4.14188 -21.65957,2.33136 z m 0.01,-10.57426 c 4.96623,-2.16192 5.65632,-6.18904 2.32573,-13.57206 -1.11651,-2.475 -4.12721,-6.6375 -6.69045,-9.25 -2.56323,-2.6125 -4.21043,-4.75 -3.66043,-4.75 1.74619,0 10.13563,9.335 12.32144,13.71016 2.12802,4.25949 2.61533,7.79216 1.4822,10.74504 -0.66547,1.73417 -5.43607,4.5702 -7.57916,4.50566 -0.71481,-0.0215 0.0955,-0.64649 1.80068,-1.3888 z m 20.4196,-1.32361 c -4.42527,-2.22334 -8.01993,-7.56986 -8.01993,-11.92845 0,-4.10157 2.05214,-9.29083 4.46576,-11.29259 1.45828,-1.20944 1.39728,-0.85204 -0.34136,2 -3.55885,5.83791 -2.43238,13.66894 2.62455,18.24539 1.07454,0.97245 3.93311,2.38939 6.35238,3.14877 4.01906,1.26154 4.13977,1.38909 1.39867,1.47801 -1.65,0.0535 -4.56603,-0.68949 -6.48007,-1.65113 z m -44.48513,-2.35204 c -3.17153,-2.78463 -3.5348,-3.62347 -3.5348,-8.16215 0,-6.09448 3.60166,-12.95979 7.98923,-15.22869 4.34879,-2.24885 4.46963,-1.84736 0.49448,1.64287 -4.74303,4.16444 -6.48371,7.76244 -6.48371,13.4019 0,3.95452 0.50831,5.15798 3.4,8.04966 4.25478,4.25478 2.89012,4.47164 -1.8652,0.29641 z m 63.48205,-1.19607 c -0.009,-0.43981 0.70824,-2.20183 1.59447,-3.9156 1.11135,-2.14912 1.4615,-4.67513 1.12847,-8.14095 -0.39255,-4.08536 -1.09163,-5.56897 -3.73852,-7.93396 -2.38762,-2.13334 -3.95499,-2.7786 -5.87847,-2.42007 -1.44254,0.26888 -3.5228,0.12031 -4.6228,-0.33016 -1.42713,-0.58443 -0.5097,-0.83916 3.20295,-0.88931 2.86162,-0.0387 6.32743,0.44206 7.70181,1.06827 5.73119,2.61131 7.16998,13.14604 2.74026,20.0641 -1.16123,1.81354 -2.11891,2.93749 -2.12817,2.49768 z m -51.4987,-2.67097 c -0.32994,-0.53385 0.11923,-2.36126 0.99816,-4.06091 1.27656,-2.46859 2.13976,-3.02773 4.29086,-2.77936 2.29634,0.26512 2.66174,0.74039 2.48171,3.22786 -0.11612,1.60432 -0.79112,3.28493 -1.5,3.73468 -1.77758,1.12779 -5.54354,1.05435 -6.27073,-0.12227 z m 35.89275,-2.40097 c -0.85648,-2.23195 2.17931,-6.6284 4.57697,-6.6284 2.15029,0 4.01213,2.75381 4.01213,5.93426 0,2.15304 -0.76048,2.47862 -3.41247,1.46096 -0.86682,-0.33264 -1.27628,-1.12014 -0.90989,-1.75 0.36638,-0.62987 -0.30182,-0.29647 -1.4849,0.7409 -1.95038,1.71017 -2.20989,1.73277 -2.78184,0.24228 z m -54.4109,-29.59209 c 0,-1.16906 9.0001,-4.49581 16.1581,-5.97261 4.83083,-0.99666 6.21982,-0.92413 9.5,0.4961 4.55807,1.97352 2.88692,3.10521 -2.13701,1.44716 -4.01591,-1.32537 -11.87203,-0.0714 -19.18106,3.06161 -2.38701,1.0232 -4.34003,1.45868 -4.34003,0.96774 z m 74.07103,-5.13368 c -1.33594,-0.53383 -4.71094,-1.38792 -7.5,-1.89799 -4.93273,-0.9021 -4.89516,-0.91285 1.37758,-0.39389 3.54674,0.29343 7.59674,1.15803 9,1.92134 2.89538,1.57495 0.80888,1.84362 -2.87758,0.37054 z m -19.8002,-1.5068 c 0.33229,-0.33229 1.19479,-0.36782 1.91667,-0.079 0.79773,0.31923 0.56078,0.55619 -0.60417,0.60417 -1.05416,0.0434 -1.64479,-0.19293 -1.3125,-0.52522 z"
       id="path2996"
       inkscape:connector-curvature="0" />
  </g>
</svg>
