<?xml version="1.0" encoding="UTF-8" standalone="no"?>
<!-- Created with Inkscape (http://www.inkscape.org/) -->

<svg
   xmlns:dc="http://purl.org/dc/elements/1.1/"
   xmlns:cc="http://creativecommons.org/ns#"
   xmlns:rdf="http://www.w3.org/1999/02/22-rdf-syntax-ns#"
   xmlns:svg="http://www.w3.org/2000/svg"
   xmlns="http://www.w3.org/2000/svg"
   version="1.1"
   width="744.09448"
   height="1052.3622"
   id="svg2">
  <defs
     id="defs4" />
  <metadata
     id="metadata7">
    <rdf:RDF>
      <cc:Work
         rdf:about="">
        <dc:format>image/svg+xml</dc:format>
        <dc:type
           rdf:resource="http://purl.org/dc/dcmitype/StillImage" />
        <dc:title></dc:title>
      </cc:Work>
    </rdf:RDF>
  </metadata>
  <g
     id="layer1">
    <path
       d="m 243.53303,1001.0812 c -9.5667,-0.7845 -14.5,-1.5284 -14.5,-2.18639 0,-0.96867 21.02933,0.75783 22.95376,1.88449 1.61854,0.9476 0.0874,1.0023 -8.45376,0.3019 z m -10.75,-15.08304 c -10.7596,-0.26375 -12.75,-0.55645 -12.75,-1.87494 0,-1.7343 3.80309,-6.9876 4.84057,-6.68641 0.36269,0.10529 0.59774,-0.45236 0.52233,-1.23924 -0.0754,-0.78687 0.25695,-1.18715 0.73855,-0.8895 0.4816,0.29765 0.62512,-0.11168 0.31892,-0.90961 -0.30619,-0.79793 -0.0812,-1.74468 0.5,-2.10388 0.6431,-0.39745 0.82362,-0.0456 0.46119,0.89885 -0.82177,2.14149 0.33117,1.95722 1.5076,-0.24095 0.74013,-1.38295 0.57611,-1.82178 -0.71735,-1.91921 -0.98257,-0.074 -3.12283,2.01396 -5.16916,5.04289 l -3.49228,5.16921 -0.64665,-6 c -1.12773,-10.46374 -0.96109,-19.18098 0.38628,-20.20677 0.6875,-0.52342 6.5703,-1.51213 13.07289,-2.19715 17.17867,-1.80968 18.66702,-2.12541 18.7474,-3.97692 0.0599,-1.38093 0.17029,-1.39846 0.75,-0.11916 0.37384,0.825 1.80471,1.5 3.17971,1.5 2.37846,0 2.5571,0.41323 3.67462,8.5 0.64604,4.675 1.20854,12.8875 1.25,18.25 l 0.0754,9.75 -7.25,-0.21733 c -3.9875,-0.11953 -12.9875,-0.35798 -20,-0.52988 z m 20.79008,-8.25279 c 0.45876,0 -0.48759,1.41574 -2.10299,3.14609 -2.75727,2.95347 -2.6136,2.90825 2.34675,-0.73872 2.90611,-2.13665 4.79983,-4.04615 4.20826,-4.24334 -0.74545,-0.24848 -0.71825,-0.78907 0.0886,-1.76128 0.64031,-0.77151 0.87549,-1.40275 0.52263,-1.40275 -1.13145,0 -14.60333,10.41624 -14.60333,11.29106 0,0.46356 1.95885,-0.76229 4.35299,-2.72411 2.39415,-1.96182 4.72834,-3.56695 5.18709,-3.56695 z m 0.95992,-1 c 0.33992,-0.55 1.06803,-1 1.61803,-1 0.55,0 0.72189,0.45 0.38197,1 -0.33992,0.55 -1.06803,1 -1.61803,1 -0.55,0 -0.72189,-0.45 -0.38197,-1 z m 1.88486,4.17908 c 1.58667,-1.19849 2.48667,-2.16697 2,-2.15218 -0.48667,0.0148 -2.25241,1.2523 -3.92386,2.75 -3.36625,3.01633 -2.50764,2.74953 1.92386,-0.59782 z m -28.34765,-1.34089 c 2.13445,-2.28899 3.66673,-4.5082 3.40508,-4.93157 -0.26166,-0.42338 0.53191,-1.47557 1.76349,-2.3382 1.75956,-1.23244 1.88277,-1.56842 0.57517,-1.56842 -1.42535,0 -10.78095,10.78145 -10.78095,12.42404 0,1.32126 1.37246,0.34424 5.03721,-3.58585 z m 5.96279,3.10279 c 0,-0.58246 -0.45,-0.7809 -1,-0.44098 -0.55,0.33992 -1,0.81648 -1,1.05902 0,0.24254 0.45,0.44098 1,0.44098 0.55,0 1,-0.47656 1,-1.05902 z m 11.34334,-5.32059 c 3.76384,-3.45788 6.16093,-6.28706 5.32686,-6.28706 -0.83406,0 -4.58856,2.83169 -8.34334,6.29265 -3.75477,3.46096 -6.15186,6.29013 -5.32686,6.28705 0.825,-0.003 4.5795,-2.83476 8.34334,-6.29264 z m -9.0976,-3.2315 c 4.41193,-4.60382 4.42977,-4.61111 11.27808,-4.61111 6.4374,0 10.47618,-1.18961 10.47618,-3.08571 0,-0.45477 -0.9,-0.5412 -2,-0.19207 -1.1,0.34913 -2,0.37945 -2,0.0674 0,-0.31207 0.9,-1.46739 2,-2.56739 1.1,-1.1 2,-2.54 2,-3.2 0,-0.93333 -0.26667,-0.93333 -1.2,0 -2.2246,2.2246 -3.46023,1.22366 -4.3824,-3.55 -0.90295,-4.67419 -0.97346,-4.74507 -4.4176,-4.44132 -6.67968,0.58911 -7.16398,0.98122 -6.88169,5.57169 0.1421,2.31064 -0.078,4.74531 -0.489,5.41039 -0.41104,0.66508 -0.27079,1.20924 0.31167,1.20924 1.52376,0 1.30724,2.69077 -0.26507,3.29412 -1.36355,0.52324 -10.26192,10.70587 -9.35562,10.70587 0.27858,0 2.49504,-2.075 4.92545,-4.61111 z m 6.17044,0.70373 c 3.05554,-3.37634 0.24443,-2.39782 -2.97909,1.03699 -2.09669,2.23412 -2.36162,2.83289 -0.9259,2.09262 1.10615,-0.57034 2.8634,-1.97866 3.90499,-3.12961 z m 16.14096,-5.18508 c 1.40301,-2.27011 -1.54957,-0.50807 -6.08452,3.63113 l -4.97262,4.53867 5.24813,-3.63113 c 2.88646,-1.99712 5.50052,-4.03952 5.80901,-4.53867 z m -34.93795,-1.2676 c 0.8503,-1.57304 1.05883,-2.55898 0.46341,-2.19099 -0.59543,0.368 -1.0826,0.21908 -1.0826,-0.33092 0,-0.55 0.45318,-1.28008 1.00706,-1.6224 1.66669,-1.03007 2.40507,2.61433 0.99011,4.88684 -1.13533,1.82338 -1.11832,1.95221 0.12249,0.92741 0.79253,-0.65457 3.88392,-1.32957 6.86976,-1.5 l 5.42879,-0.30988 0.0409,-5.24901 c 0.0225,-2.88696 -0.2966,-5.24946 -0.7091,-5.25 -0.41251,-5.4e-4 -0.75001,-0.67599 -0.75001,-1.50099 0,-1.1301 -1.21339,-1.5 -4.92054,-1.5 -4.74009,0 -4.94641,0.11919 -5.62564,3.25 -0.38779,1.7875 -1.0098,3.475 -1.38224,3.75 -0.92709,0.68455 -5.07158,7.57113 -5.07158,8.42705 0,0.38004 0.49821,0.38307 1.10713,0.007 0.75305,-0.46541 0.89201,0.0754 0.4345,1.69098 -0.53319,1.88279 -0.44416,2.06425 0.42945,0.87523 0.60616,-0.825 1.7978,-2.78703 2.64811,-4.36006 z m -2.61919,0.47809 c 0,-0.55 0.45,-1.27811 1,-1.61803 0.55,-0.33992 1,-0.16803 1,0.38197 0,0.55 -0.45,1.27811 -1,1.61803 -0.55,0.33992 -1,0.16803 -1,-0.38197 z m 1.92152,-9.36803 c 1.23288,-2.0625 1.83334,-3.75 1.33435,-3.75 -1.65481,0 -4.90982,4.46197 -5.03289,6.89908 -0.13771,2.7272 0.5214,2.16601 3.69854,-3.14908 z m 17.07848,2.69098 c 0,-0.24254 -0.45,-0.44098 -1,-0.44098 -0.55,0 -1,0.47656 -1,1.05902 0,0.58246 0.45,0.7809 1,0.44098 0.55,-0.33992 1,-0.81648 1,-1.05902 z m 17,-5.03204 c 0,-0.19039 -0.675,-0.0872 -1.5,0.22943 -0.825,0.31659 -1.5,1.03256 -1.5,1.59106 0,0.58531 0.63541,0.48812 1.5,-0.22943 0.825,-0.68469 1.5,-1.40067 1.5,-1.59106 z m 9.63029,21.34106 c -1.03684,-3.86894 -0.71867,-27.75 0.36971,-27.75 0.62222,0 1,5.66667 1,15 0,8.25 -0.17252,15 -0.38337,15 -0.21085,0 -0.65471,-1.0125 -0.98634,-2.25 z m -149.9323,-0.14077 c -4.57307,-1.69513 -10.3544,-5.59739 -14.12769,-9.53585 -2.605771,-2.71984 -2.952061,-2.81185 -5.919001,-1.57271 -6.01561,2.51241 -18.62065,4.49933 -28.54377,4.49933 -13.84842,0 -27.68922,-3.17481 -39.00254,-8.94644 -6.42864,-3.27965 -4.07022,-3.75986 2.96334,-0.60338 3.36044,1.50807 9.10729,3.63703 12.77078,4.73102 8.7235,2.605 28.731,3.56425 38.52664,1.84716 18.876451,-3.3089 39.161381,-15.42516 49.134251,-29.34807 4.17063,-5.82253 5.49475,-6.59647 7.3863,-4.31729 0.90967,1.09608 0.6835,1.27742 -1.15488,0.92599 -1.80777,-0.34558 -2.98455,0.5356 -5.62442,4.21155 l -3.33834,4.64855 2.86567,3.09595 2.86567,3.09596 -3.26458,-2.24898 c -1.79551,-1.23693 -3.64367,-2.10115 -4.107,-1.92049 -0.46333,0.18066 -3.2272,2.48554 -6.14194,5.12195 -4.01115,3.62814 -5.01835,5.07465 -4.143,5.95 1.93511,1.93511 1.29581,2.77711 -1.23354,1.62466 -2.03626,-0.92778 -3.39239,-0.52845 -9.16113,2.69761 l -6.77106,3.78659 3.91112,3.40159 c 5.28207,4.59393 13.08884,8.22442 17.71079,8.2363 7.17573,0.0185 11.86212,-3.82828 14.90917,-12.2379 l 1.90307,-5.25233 -0.5617,5 c -1.23204,10.96704 -11.31425,17.0154 -21.85221,13.10923 z m 90.38096,-0.0259 c -0.0434,-1.05416 0.19292,-1.64479 0.52522,-1.3125 0.33229,0.3323 0.36781,1.1948 0.0789,1.91667 -0.31922,0.79773 -0.55618,0.56078 -0.60416,-0.60417 z M 57.393089,948.05637 c -0.63283,-0.45022 2.25879,-0.91658 6.5,-1.04833 4.20197,-0.13053 10.00244,-0.85211 12.88994,-1.60351 5.74872,-1.49596 7.20172,-0.54976 2,1.30242 -4.06184,1.44629 -19.85345,2.44253 -21.38994,1.34942 z m 171.615191,-1.8761 c -0.53639,-1.4108 -0.92706,-3.7733 -0.86816,-5.25 0.0806,-2.01977 0.34287,-1.63205 1.05885,1.5651 l 0.95176,4.25 5.69115,-0.0153 c 3.13013,-0.008 6.22264,-0.35331 6.87224,-0.76643 0.6496,-0.41311 1.35848,-2.76872 1.57529,-5.23468 0.37656,-4.28286 0.40203,-4.23225 0.56891,1.1305 l 0.17471,5.61407 -4.63957,0.63593 c -8.54714,1.17151 -10.32055,0.87101 -11.38518,-1.92918 z M 78.026559,941.81103 c -4.18413,-1.27275 -8.36625,-3.73936 -10.85189,-6.40044 l -2.35835,-2.5248 -2.14165,2.43086 c -1.21277,1.37655 -3.65965,2.64579 -5.64164,2.9264 l -3.5,0.49554 3.12424,-0.99261 c 4.29836,-1.36565 5.81928,-3.53587 5.63939,-8.04693 -0.18942,-4.74997 -2.28582,-9.00787 -7.55628,-15.34719 -2.23763,-2.69143 -3.42468,-4.68024 -2.63789,-4.41957 0.7868,0.26066 3.25494,2.70902 5.48476,5.4408 l 4.05422,4.96687 1.66441,-5.5473 c 0.91542,-3.05101 2.80456,-6.89729 4.19808,-8.54729 2.41448,-2.85886 2.39243,-2.7247 -0.46862,2.85155 -7.97127,15.53613 -0.10127,29.94485 17.78828,32.56754 l 5.70941,0.83703 -5,0.036 c -2.75,0.0198 -6.12791,-0.30711 -7.50647,-0.72645 z m -41.80371,-7.09129 c -6.34238,-3.86685 -7.55225,-12.17299 -2.80025,-19.22449 2.19398,-3.25565 8.00465,-7.75294 10.00831,-7.74614 0.60617,0.002 -0.29803,0.85752 -2.00932,1.90104 -4.8248,2.94207 -7.69226,7.71226 -8.18136,13.61017 -0.50636,6.10609 0.71025,8.85416 5.10662,11.53482 1.7524,1.06852 2.73618,1.94275 2.18618,1.94275 -0.55,0 -2.48958,-0.90817 -4.31018,-2.01815 z m 67.644511,-2.97437 c 3.20934,-5.46537 4.34025,-12.08751 3.07322,-17.99547 -1.41684,-6.60651 -4.8933,-10.62912 -10.741611,-12.42913 -4.06725,-1.25183 -4.28101,-1.44292 -1.66594,-1.4893 4.51717,-0.0801 10.522681,3.83214 12.875881,8.3879 3.67544,7.11563 1.82549,20.32664 -3.52228,25.15354 l -2.07452,1.87246 2.05525,-3.5 z m 159.91567,2.33772 c 0.6875,-0.27741 1.8125,-0.27741 2.5,0 0.6875,0.27741 0.125,0.50439 -1.25,0.50439 -1.375,0 -1.9375,-0.22698 -1.25,-0.50439 z m 12.79535,-0.44459 c -2.19825,-6.10386 -3.77985,-15.06009 -4.2589,-24.1172 l -0.56722,-10.72407 -14.60962,-0.3185 -14.60961,-0.3185 15.35017,0.0426 15.35017,0.0426 0.39211,8.75414 c 0.21566,4.81477 1.29264,12.88022 2.39329,17.92321 1.10065,5.04299 1.78971,9.38053 1.53126,9.63899 -0.25846,0.25845 -0.6957,-0.15699 -0.97165,-0.92321 z m -36.98608,-2.59927 c -1.00132,-2.6094 -1.93732,-23.65144 -1.18535,-26.64754 1.46268,-5.82779 2.12865,-1.90009 2.18015,12.85782 0.0297,8.52272 -0.0346,15.49586 -0.14301,15.49586 -0.1084,0 -0.4917,-0.76776 -0.85179,-1.70614 z m -17.05927,-1.41625 c -1.65,-0.52276 -7.44844,-0.82158 -12.88542,-0.66404 -9.63355,0.27913 -9.908,0.2254 -10.77149,-2.10875 -0.48733,-1.31735 -0.69248,-2.58877 -0.45588,-2.82536 0.2366,-0.2366 0.7215,0.4877 1.07756,1.60955 0.59985,1.88995 1.21238,1.99733 8.34131,1.46222 7.79363,-0.58499 18.77418,0.82903 20.59763,2.65248 1.25603,1.25603 -1.7435,1.19197 -5.90371,-0.1261 z m 28.5,-9.4846 c 0,-1.01759 0.55016,-1.39587 1.5,-1.03138 0.825,0.31658 1.5,0.13972 1.5,-0.39301 0,-0.53274 0.47656,-0.96862 1.05902,-0.96862 0.58246,0 0.7809,0.45 0.44098,1 -0.35191,0.5694 0.50929,1 2,1 1.55807,0 2.35777,-0.42112 1.97519,-1.04014 -0.35356,-0.57208 0.51988,-1.95474 1.94098,-3.07258 2.50025,-1.9667 3.71853,-4.7066 1.4767,-3.32107 -0.75564,0.46701 -0.87828,-0.0368 -0.38628,-1.58697 0.68537,-2.15943 0.53067,-2.23945 -3.14287,-1.62577 -2.12504,0.355 -4.87622,0.92319 -6.11372,1.26263 -1.34155,0.36798 -2.25,0.17401 -2.25,-0.48042 0,-1.13846 1.63346,-1.62427 8.6206,-2.56383 4.10694,-0.55226 4.12259,-0.54184 4.72103,3.14591 0.39122,2.41086 0.17499,3.97032 -0.6206,4.47582 -0.67157,0.42669 -0.81379,0.78269 -0.31604,0.79111 0.49774,0.008 0.0905,0.91531 -0.90499,2.01531 -1.6277,1.79859 -1.64331,2 -0.15499,2 0.91025,0 1.65499,0.45 1.65499,1 0,0.5641 -2.83333,1 -6.5,1 -5.30345,0 -6.5,-0.29582 -6.5,-1.60699 z m -211.293451,-0.0198 c -0.94654,-0.94654 1.98386,-6.04044 3.89734,-6.77471 1.96962,-0.75581 5.39611,0.14704 5.39611,1.42184 0,0.48705 -0.52223,2.03173 -1.16052,3.43261 -0.88865,1.95037 -1.90378,2.54705 -4.33333,2.54705 -1.74505,0 -3.45487,-0.28205 -3.7996,-0.62678 z m 174.932311,-0.10831 c -2.77381,-0.28656 -4.00349,-0.94324 -4.36663,-2.3319 -0.27802,-1.06315 -0.99301,-1.933 -1.58886,-1.933 -0.71303,0 -0.67316,-0.41021 0.11663,-1.2 1.80631,-1.80631 1.45142,-2.8 -1,-2.8 -1.53859,0 -1.88386,-0.31614 -1.14843,-1.05157 0.58617,-0.58617 3.88335,-0.9181 7.45,-0.75 l 6.39843,0.30157 0.30226,5.25 c 0.22242,3.86318 -0.0417,5.20559 -1,5.0819 -0.71624,-0.0925 -3.03977,-0.34761 -5.1634,-0.56699 z m 5.36114,-1.82392 c 0,-0.85746 -0.45,-1.2809 -1,-0.94098 -0.55,0.33992 -1,1.04148 -1,1.55902 0,0.51754 0.45,0.94098 1,0.94098 0.55,0 1,-0.70156 1,-1.55902 z m -5.33333,-0.82804 c 0,-1.64337 -2.88585,-1.45541 -3.44579,0.22443 -0.21315,0.63945 0.47495,1.16263 1.52912,1.16263 1.05417,0 1.91667,-0.62418 1.91667,-1.38706 z m 4.33333,-4.17196 c 0,-1.90519 -0.52314,-2.44098 -2.38337,-2.44098 -1.52357,0 -2.56768,0.70483 -2.8943,1.95379 -0.4843,1.85197 -0.38375,1.87047 1.92923,0.35494 2.39539,-1.56951 2.43129,-1.54994 1.95683,1.06658 -0.27554,1.51952 -0.0803,2.41635 0.45414,2.08605 0.51561,-0.31867 0.93747,-1.67784 0.93747,-3.02038 z m -138.000001,4.93658 c 0,-1.34023 -0.26513,-1.40241 -1.52417,-0.3575 -2.13044,1.76811 -3.02584,0.44906 -1.8936,-2.78957 1.34374,-3.84363 5.94236,-4.368 7.54078,-0.85987 0.62695,1.37601 0.86987,3.20554 0.53983,4.06561 -0.80274,2.09191 -4.66284,2.04333 -4.66284,-0.0587 z m 169.000001,-2.38908 c 0,-1.44167 4.24174,-3.95875 5.41297,-3.21209 1.6159,1.03014 2.91319,0.96932 4.58703,-0.21504 1.30677,-0.92463 1.32062,-0.8328 0.1075,0.71282 -0.76588,0.97579 -1.62447,1.54219 -1.90799,1.25867 -0.28352,-0.28352 -1.14602,0.008 -1.91666,0.64738 -1.71741,1.42533 -6.28285,2.01265 -6.28285,0.80826 z m 5.45729,-0.91938 c 0.31644,-0.512 0.19299,-1.1672 -0.27431,-1.45601 -0.46731,-0.28881 -0.84965,0.13009 -0.84965,0.9309 0,1.68617 0.31534,1.83349 1.12396,0.52511 z m -207.457291,-6.0691 c -0.90129,-0.58246 -1.02463,-0.97549 -0.30902,-0.98469 0.65504,-0.008 1.4691,0.43469 1.80902,0.98469 0.7673,1.24153 0.42112,1.24153 -1.5,0 z m 148.000001,-4.97198 c 0,-0.4578 1.41715,-1.32639 3.14922,-1.9302 4.00484,-1.39609 30.85078,-1.48121 30.85078,-0.0978 0,0.61821 -5.2522,1 -13.7566,1 -7.56613,0 -15.21613,0.41859 -17,0.93019 -1.78387,0.51161 -3.2434,0.55563 -3.2434,0.0978 z M 31.033029,900.8429 c 0,-1.61958 10.69481,-5.05535 17.77508,-5.71035 5.99818,-0.5549 6.99509,-0.38509 9.22492,1.57132 l 2.5,2.19344 -2.5,-0.63975 c -8.33822,-2.13377 -17.36926,-1.33395 -24.25,2.14768 -1.5125,0.76532 -2.75,0.96227 -2.75,0.43766 z m 56.5,-0.0975 c -1.1,-0.47269 -3.35,-0.92658 -5,-1.00866 -1.65,-0.0821 -2.40937,-0.38558 -1.68749,-0.67446 1.9227,-0.7694 10.18749,0.64577 10.18749,1.74439 0,1.11306 -0.79977,1.09906 -3.5,-0.0613 z m 151.250001,-1.66228 c 0.6875,-0.27741 1.8125,-0.27741 2.5,0 0.6875,0.27741 0.125,0.50438 -1.25,0.50438 -1.375,0 -1.9375,-0.22697 -1.25,-0.50438 z m -42.32138,-11.83772 0.0714,-6 5.5,0.18549 c 3.025,0.10203 10.13719,0.32703 15.80487,0.5 9.79964,0.29909 10.14284,0.38159 7,1.68273 -2.71111,1.1224 -5.1015,1.15805 -13.30487,0.19842 -5.5,-0.64339 -10.99095,-1.37475 -12.2021,-1.62525 -2.03638,-0.42117 -2.22989,-0.0222 -2.57138,5.30158 l -0.36928,5.75703 0.0714,-6 z m 75.32315,1.91844 c -0.31986,-0.31986 0.0551,-2.10541 0.83334,-3.96788 0.77819,-1.86248 1.41489,-3.67756 1.41489,-4.03353 0,-0.35596 -8.2125,-0.40354 -18.25,-0.10573 -11.88124,0.35252 -15.45822,0.26231 -10.25,-0.25849 14.44882,-1.44483 27.9782,-2.02268 29.20847,-1.24753 0.94377,0.59464 0.94006,1.67046 -0.017,4.9117 -1.3233,4.48174 -2.0297,5.61148 -2.93973,4.70146 z M 106.53303,885.5337 c -2.75,-1.1039 -8.375001,-2.37929 -12.500001,-2.83418 l -7.5,-0.82709 9,0.31888 c 8.709961,0.30861 17.500001,2.65061 17.500001,4.66267 0,1.17253 -0.58712,1.05328 -6.5,-1.32028 z m -32.769031,-1.44424 c 0.67703,-0.27392 2.02703,-0.29059 3,-0.0371 0.97297,0.25354 0.41903,0.47766 -1.23097,0.49804 -1.65,0.0204 -2.44606,-0.18706 -1.76903,-0.46099 z m 8.01903,-1.00634 c 0.6875,-0.27741 1.8125,-0.27741 2.5,0 0.6875,0.27741 0.125,0.50438 -1.25,0.50438 -1.375,0 -1.9375,-0.22697 -1.25,-0.50438 z"
       id="path3113"
       style="fill:#000000" />
  </g>
</svg>
