<?xml version="1.0" encoding="UTF-8" standalone="no"?>
<!-- Created with Inkscape (http://www.inkscape.org/) -->

<svg
   xmlns:dc="http://purl.org/dc/elements/1.1/"
   xmlns:cc="http://creativecommons.org/ns#"
   xmlns:rdf="http://www.w3.org/1999/02/22-rdf-syntax-ns#"
   xmlns:svg="http://www.w3.org/2000/svg"
   xmlns="http://www.w3.org/2000/svg"
   version="1.1"
   width="744.09448"
   height="1052.3622"
   id="svg2">
  <defs
     id="defs4" />
  <metadata
     id="metadata7">
    <rdf:RDF>
      <cc:Work
         rdf:about="">
        <dc:format>image/svg+xml</dc:format>
        <dc:type
           rdf:resource="http://purl.org/dc/dcmitype/StillImage" />
        <dc:title></dc:title>
      </cc:Work>
    </rdf:RDF>
  </metadata>
  <g
     id="layer1">
    <path
       d="m 135.17314,982.16519 c -3.94251,-3.8295 -16.10949,-9.56947 -25.2274,-11.90144 -17.433626,-4.45877 -42.297196,-1.19624 -57.130176,7.49647 -2.34189,1.37244 -4.4172,2.49534 -4.6118,2.49534 -0.1946,0 -0.44693,-1.125 -0.56073,-2.5 -0.202,-2.44067 1.26017,-3.53156 1.95193,-1.45629 0.20119,0.60359 3.5044,-0.38864 7.83333,-2.353 13.43614,-6.09699 18.79997,-7.17733 35.48543,-7.1472 13.602196,0.0246 15.752796,0.27906 23.078406,2.73109 4.44313,1.4872 10.87081,4.50882 14.28374,6.7147 3.41293,2.20589 6.592,4.0107 7.0646,4.0107 1.2058,0 2.30466,3.20337 1.35603,3.95304 -0.43053,0.34024 -2.01604,-0.5793 -3.52336,-2.04341 z m -49.020456,-0.86901 c -2.06858,-0.40115 -3.94488,-0.9119 -4.16957,-1.135 -0.22468,-0.22309 5.74278,-0.26098 13.26105,-0.0842 7.518256,0.17678 14.097056,0.73928 14.619556,1.25 1.12271,1.09739 -18.021716,1.07253 -23.711036,-0.0308 z m -0.29259,-29.62473 c 4.9205,-0.76472 10.46315,-1.89099 12.317,-2.50281 4.171666,-1.37678 5.600456,-0.3827 1.62532,1.13081 -4.55476,1.7342 -12.20483,2.96476 -17.77518,2.85926 -4.54425,-0.0861 -4.11755,-0.25165 3.83286,-1.48726 z m 32.553626,-7.34765 c -5.45637,-1.09403 -10.37311,-3.81414 -14.09126,-7.79577 l -3.40874,-3.65029 3.49249,2.82839 c 11.04711,8.94651 26.25492,9.6867 31.83412,1.54943 1.9611,-2.86027 2.26664,-3.04305 1.67162,-1 -2.05152,7.04408 -9.41325,10.09032 -19.49823,8.06824 z m -65.414816,-4.06614 c -1.60316,-0.50451 -4.11355,-2.22972 -5.57865,-3.8338 -2.16921,-2.37499 -2.44518,-3.21551 -1.48629,-4.52686 0.64763,-0.88569 1.41905,-1.36881 1.71427,-1.0736 0.29521,0.29521 4.75072,-1.65185 9.90112,-4.32681 5.1504,-2.67496 12.06437,-6.02559 15.36437,-7.44585 l 6,-2.5823 -3,-1.18042 c -2.33255,-0.9178 -3.88994,-0.90136 -7,0.0739 -5.15737,1.61727 -13.46165,5.66336 -15.92189,7.75763 -1.05705,0.8998 -1.58972,1.06822 -1.18373,0.37426 1.08002,-1.84607 11.74371,-8.74215 15.59371,-10.08426 4.61212,-1.6078 7.0095,-1.44946 11.31885,0.74757 2.0514,1.04587 4.62155,1.66839 5.71144,1.38337 1.10179,-0.28812 1.98162,-0.0224 1.98162,0.59843 0,0.61415 -0.63218,1.11663 -1.40484,1.11663 -1.04858,0 -1.30382,1.07778 -1.00647,4.25 0.3849,4.10632 0.36425,4.1418 -0.611,1.04923 -0.55515,-1.76042 -1.4222,-3.45592 -1.92677,-3.76776 -0.50458,-0.31185 -3.41762,0.4535 -6.47343,1.70077 -4.1403,1.68992 -5.7994,2.96591 -6.51122,5.00768 -0.62646,1.79694 -1.45576,2.54785 -2.40959,2.18183 -0.79991,-0.30695 -1.74827,-0.0826 -2.10747,0.49862 -0.39745,0.6431 -0.0456,0.82361 0.89885,0.46119 3.07792,-1.18111 1.47169,1.42864 -1.84919,3.0045 -4.03027,1.91248 -6.75894,2.05387 -8.37866,0.43415 -0.9064,-0.90639 -1.76913,-0.86439 -3.72292,0.18124 -3.18978,1.70712 -2.80767,3.00745 1.56226,5.31635 4.71052,2.48885 16.47922,1.64406 23.18288,-1.66414 2.60834,-1.28719 4.28167,-1.78516 3.71852,-1.1066 -3.31226,3.99102 -20.03664,7.44996 -26.37577,5.45504 z m 8.46448,-12.52778 c 1.62269,-0.83912 2.95034,-1.75068 2.95034,-2.02568 0,-0.44787 -5.88762,2.25777 -6.91667,3.17854 -1.01113,0.90474 1.26896,0.242 3.96633,-1.15286 z m 67.679696,1.23688 -6.77064,-3.09728 -1.53606,2.19304 c -1.15385,1.64735 -2.55011,2.19304 -5.61133,2.19304 -4.27634,0 -11.26144,-3.46268 -10.25854,-5.08541 0.31088,-0.50302 -0.58631,-0.91459 -1.99377,-0.91459 -1.73252,0 -2.59121,0.56521 -2.6587,1.75 -0.0632,1.1099 -0.353096,0.83954 -0.792516,-0.73914 -0.54139,-1.94502 -0.13706,-2.95088 1.849676,-4.60143 4.13096,-3.43194 6.87925,-4.53715 13.67601,-5.49969 7.11598,-1.00774 11.7733,0.25417 16.19469,4.38799 4.31543,4.03476 4.64903,6.34156 0.3583,2.47765 -2.27483,-2.04854 -5.21257,-3.99481 -6.52831,-4.32504 -4.62029,-1.15962 -17.17233,0.18548 -20.20144,2.16482 l -2.88448,1.88484 9.81412,0.80422 c 5.39777,0.44232 10.33151,1.2501 10.96388,1.79506 0.63236,0.54497 4.29975,2.51196 8.14975,4.3711 8.76513,4.23261 7.37014,4.42234 -1.77064,0.24082 z m -13.72936,-3.2112 c 0,-1 -1,-1.5 -3,-1.5 -3.56765,0 -3.84392,0.72523 -0.75,1.96884 3.20843,1.28963 3.75,1.22192 3.75,-0.46884 z m -70.999996,-7.5 c 0,-0.55 0.47236,-1 1.04968,-1 0.57733,0 5.03085,-4.05 9.89672,-9 6.25289,-6.36099 9.53708,-8.99071 11.20032,-8.96832 2.28043,0.0307 2.26041,0.0995 -0.64672,2.22279 -1.65,1.20511 -6.67954,5.69085 -11.17675,9.96832 -7.74178,7.3635 -10.32325,9.05824 -10.32325,6.77721 z m 73.499996,-10.53921 c -4.95,-1.27406 -10.21094,-2.34895 -11.69098,-2.38864 -3.41975,-0.0917 -4.80371,-2.07215 -1.44804,-2.07215 1.36346,0 7.68237,1.125 14.04203,2.5 6.35966,1.375 12.69566,2.5 14.08001,2.5 1.38434,0 2.51698,0.45 2.51698,1 0,1.63133 -7.87179,0.93896 -17.5,-1.53921 z"
       id="path3009"
       style="fill:#000000" />
  </g>
</svg>
