<?xml version="1.0" encoding="UTF-8" standalone="no"?>
<!-- Created with Inkscape (http://www.inkscape.org/) -->

<svg
   xmlns:dc="http://purl.org/dc/elements/1.1/"
   xmlns:cc="http://creativecommons.org/ns#"
   xmlns:rdf="http://www.w3.org/1999/02/22-rdf-syntax-ns#"
   xmlns:svg="http://www.w3.org/2000/svg"
   xmlns="http://www.w3.org/2000/svg"
   version="1.1"
   width="744.09448"
   height="1052.3622"
   id="svg2">
  <defs
     id="defs4" />
  <metadata
     id="metadata7">
    <rdf:RDF>
      <cc:Work
         rdf:about="">
        <dc:format>image/svg+xml</dc:format>
        <dc:type
           rdf:resource="http://purl.org/dc/dcmitype/StillImage" />
        <dc:title></dc:title>
      </cc:Work>
    </rdf:RDF>
  </metadata>
  <g
     id="layer1">
    <path
       d="m 67.802056,972.22679 c -0.275,-0.29376 -2.525,-0.71405 -5,-0.93395 -4.91397,-0.43662 -15.26573,-4.70756 -13.25,-5.4667 0.6875,-0.25892 1.25,-1.02266 1.25,-1.6972 0,-1.78007 8.95788,-12.04349 10.87492,-12.45986 1.1533,-0.25049 0.86947,0.47528 -0.9777,2.5 -2.60526,2.85568 -8.89722,11.81321 -8.89722,12.6665 0,0.24926 0.7875,0.65823 1.75,0.90883 1.33497,0.34757 1.77389,-0.19063 1.85071,-2.26934 0.10223,-2.76591 4.17363,-9.51203 5.15088,-8.53477 0.29338,0.29337 -0.0719,1.33178 -0.81171,2.30757 -0.73982,0.9758 0.63641,-0.0258 3.0583,-2.22583 l 4.40343,-4 -3.5532,4.5 c -4.02274,5.09466 -7.29832,11 -6.10149,11 0.43905,0 1.65008,-1.58171 2.69117,-3.51491 3.10634,-5.76811 5.06727,-6.41588 2.18122,-0.72053 -1.45915,2.87949 -2.26377,5.23544 -1.78803,5.23544 0.47573,0 1.72081,-1.89881 2.76685,-4.21958 2.14916,-4.76822 6.22887,-10.00538 7.28544,-9.35238 0.38569,0.23837 0.7635,-0.54792 0.83958,-1.74732 0.1176,-1.85424 -0.37531,-1.59436 -3.29242,1.73589 -1.8869,2.15414 -3.43073,3.47991 -3.43073,2.94617 0,-0.53375 1.56494,-2.48724 3.47763,-4.3411 2.73255,-2.64849 3.23332,-3.66504 2.33729,-4.74469 -0.93271,-1.12384 -1.93009,-0.59895 -5.47763,2.8827 -2.38551,2.3412 -4.33729,3.7654 -4.33729,3.16488 0,-0.60051 1.8,-2.71804 4,-4.70561 2.2,-1.98756 4,-3.92412 4,-4.30345 0,-0.37933 -1.2375,0.45165 -2.75,1.84662 -2.13124,1.96563 -3.31251,2.36767 -5.25,1.78677 -2.18447,-0.65494 -2.23559,-0.76212 -0.40499,-0.84922 2.4175,-0.11502 4.8991,-2.55791 6.2167,-6.11972 0.88359,-2.38856 1.00397,-2.29669 3.30265,2.52056 2.14821,4.50191 2.74714,5.02967 6.01786,5.30282 4.62796,0.38651 8.86156,-2.97959 9.18555,-7.30334 0.12364,-1.65 0.66522,-3 1.20352,-3 0.53829,0 1.13103,1.35 1.3172,3 0.44836,3.97386 1.84686,5.5008 5.03395,5.49626 6.26921,-0.009 11.016554,-5.56546 9.871704,-11.55437 -0.66276,-3.46698 1.44215,-2.57685 2.40309,1.01623 0.88574,3.31192 -1.1222,7.92293 -4.15758,9.54742 -1.094314,0.58565 -1.989654,1.55409 -1.989654,2.15209 0,0.76984 0.39179,0.76211 1.342014,-0.0265 0.7381,-0.61257 1.71025,-0.78017 2.16032,-0.37244 0.45008,0.40772 0.53868,0.25012 0.19691,-0.35023 -0.34178,-0.60035 0.93607,-2.60112 2.83967,-4.44616 3.98029,-3.85786 4.6898,-3.39114 0.96109,0.63221 -2.81704,3.03963 -3.39743,5.38038 -0.81277,3.27794 1.48251,-1.20591 1.60524,-1.1538 1.01146,0.4295 -0.41566,1.10832 -0.28506,1.56045 0.33928,1.17459 0.55829,-0.34504 0.90894,-1.15591 0.77922,-1.80194 -0.36934,-1.83935 2.4938,-5.6746 4.23627,-5.6746 0.86479,0 2.83504,-1.31795 4.37832,-2.92879 2.16741,-2.26229 2.79317,-3.85527 2.74977,-7 -0.0637,-4.61884 1.47358,-5.47121 2.38292,-1.32121 0.33142,1.5125 0.78484,3.33587 1.0076,4.05194 0.22276,0.71606 0.026,1.06767 -0.4373,0.78136 -0.46327,-0.28632 -1.35812,0.61148 -1.98854,1.99511 -1.58389,3.47626 -1.43331,4.16218 0.40894,1.86272 1.50089,-1.87339 1.51815,-1.86455 0.49462,0.25318 -0.5833,1.20687 -1.57765,2.51389 -2.20968,2.9045 -0.71004,0.43884 -0.87649,0.26907 -0.4356,-0.4443 0.39244,-0.63498 0.32116,-1.15451 -0.1584,-1.15451 -1.07538,0 -5.42149,4.60611 -7.612,8.06737 -1.56415,2.47153 -1.51973,2.66803 1.18988,5.264 2.59278,2.48405 4.17601,2.65198 4.17601,0.44295 0,-0.4908 -0.51699,-0.57284 -1.14886,-0.18232 -1.73468,1.07209 3.27386,-7.48173 6.26729,-10.70358 1.44013,-1.55003 2.34013,-3.17152 2,-3.60333 -0.34014,-0.4318 -0.21292,-0.45458 0.28269,-0.0506 0.49562,0.40396 1.55115,-0.046 2.34562,-1 0.79448,-0.95395 0.50361,-0.15945 -0.64636,1.76555 -1.14997,1.925 -2.57645,3.37635 -3.16995,3.22522 -0.5935,-0.15112 -0.82903,0.12983 -0.52341,0.62434 0.30563,0.49451 -0.77777,3.31816 -2.40755,6.27477 -1.62978,2.95662 -2.95337,6.05067 -2.94132,6.87567 0.0121,0.825 0.73039,0.19168 1.59628,-1.40737 0.8659,-1.59906 3.54788,-5.79 5.95996,-9.31321 2.41209,-3.52321 4.38561,-7.03194 4.38561,-7.79717 0,-0.76524 1.125,-2.51634 2.5,-3.89134 1.41566,-1.41566 2.52749,-3.71249 2.56339,-5.29545 l 0.0634,-2.79546 1.01556,2.5 c 1.29045,3.17671 0.37246,10.70712 -2.3006,18.87219 -3.55241,10.8511 -10.81229,15.89545 -28.34173,19.69258 -6.938624,1.50301 -34.538814,3.16678 -35.500004,2.13998 z m 29.96088,-3.19646 c 10.178604,-1.79127 20.018204,-4.60226 18.289124,-5.22486 -0.6875,-0.24755 -1.25,-1.05253 -1.25,-1.78884 0,-0.73631 -1.881,-2.94881 -4.18,-4.91667 -3.62918,-3.10644 -4.86327,-3.57792 -9.36514,-3.57792 -3.519924,0 -5.951054,0.59435 -7.570004,1.85067 -1.31167,1.01787 -2.94736,1.65537 -3.63486,1.41667 -1.58947,-0.55187 -1.61939,0.96327 -0.05,2.53266 0.80282,0.80282 0.83823,1.2 0.10699,1.2 -0.60116,0 -1.32483,-0.60412 -1.60817,-1.34248 -0.90313,-2.35352 -7.50319,-4.8594 -10.85808,-4.12254 -3.28969,0.72254 -9.60657,5.92305 -13.02385,10.72217 -1.73323,2.4341 -1.85708,3.10367 -0.70861,3.83093 2.24566,1.42205 24.65876,1.03817 33.8526,-0.57979 z m 23.039904,-8.36528 c 4.3e-4,-0.90365 1.57543,-3.41225 3.5,-5.57466 4.03748,-4.53644 4.68535,-3.99001 0.99922,0.84276 -2.96069,3.88167 -3.36317,6.21806 -0.44598,2.58889 2.69502,-3.35278 5.38068,-8.38669 4.02858,-7.55105 -1.58588,0.98013 -1.35945,0.23948 1.40535,-4.59688 1.36838,-2.39364 2.49338,-5.2324 2.5,-6.30836 0.007,-1.08291 -3.50778,3.38154 -7.87207,10 -4.33626,6.57596 -7.69685,12.27414 -7.46797,12.66262 0.73493,1.24741 3.35206,-0.36314 3.35287,-2.06332 z m -46.000784,-6.64301 c 0.69443,-0.83674 0.80272,-1.5 0.24489,-1.5 -0.55,0 -1.5602,0.675 -2.24489,1.5 -0.69443,0.83674 -0.80272,1.5 -0.24489,1.5 0.55,0 1.5602,-0.675 2.24489,-1.5 z m 21.41135,-3.37354 c -0.1788,-0.20544 -1.132,-0.0215 -2.11822,0.40876 -0.98622,0.43026 -2.0342,0.743 -2.32884,0.69497 -0.29465,-0.048 -0.53572,0.73489 -0.53572,1.73983 0,1.68881 0.20096,1.66447 2.65393,-0.32143 1.45966,-1.18172 2.50764,-2.31668 2.32885,-2.52213 z m 21.508364,1.87354 c 1.12265,-2.35727 1.10183,-2.38918 -0.36454,-0.55887 -0.85535,1.06762 -1.55517,2.38012 -1.55517,2.91667 0,1.27054 0.4619,0.70323 1.91971,-2.3578 z m -29.571764,-0.40829 c 1.41929,-2.1661 1.42319,-2.53676 0.0388,-3.6857 -1.25865,-1.04459 -1.71365,-1.01574 -2.49645,0.15829 -2.56854,3.85226 -2.8561,4.78172 -1.63231,5.27608 2.139,0.86407 2.47106,0.7221 4.08997,-1.74867 z m -42.34982,10.90336 c -0.54897,-1.4439 -0.98812,-3.15847 -0.97589,-3.81017 0.0267,-1.42236 3.92362,-6.59243 3.95552,-5.24781 0.0122,0.5154 1.37224,-0.35629 3.02224,-1.93709 1.65,-1.5808 3,-2.50989 3,-2.06465 0,0.44525 0.69712,0.23098 1.54916,-0.47615 1.34643,-1.11744 1.48514,-0.93267 1.05999,1.4119 -0.26904,1.48368 -1.52866,3.97185 -2.79916,5.52928 -1.27049,1.55743 -2.79255,3.65335 -3.38235,4.65759 -0.85467,1.45525 -1.24129,1.55257 -1.90451,0.47946 -0.60464,-0.97833 -0.44816,-1.12367 0.57236,-0.53161 0.77248,0.44816 1.07099,0.44667 0.66336,-0.003 -0.40763,-0.44997 0.88068,-2.88462 2.8629,-5.41032 l 3.60404,-4.59219 -4.55149,4.6268 c -3.27522,3.32941 -4.40408,5.19052 -4.02578,6.63714 0.80918,3.09433 -1.5088,3.73376 -2.65039,0.73113 z m -3.54949,-5.76831 c -0.26872,-0.70028 1.7704,-3.7176 4.53139,-6.70515 3.5335,-3.82346 5.01997,-6.25949 5.01997,-8.22676 0,-4.25469 1.41948,-3.33706 2.5808,1.66838 0.791,3.40934 0.75722,4.23226 -0.14308,3.48508 -1.47187,-1.22154 -12.00619,8.32288 -10.99389,9.9608 0.37081,0.59999 0.40852,1.09089 0.0838,1.09089 -0.32473,0 -0.81027,-0.57296 -1.07899,-1.27324 z m 69.551364,-3.49463 c 0,-0.88732 4.87652,-8.23213 5.46565,-8.23213 0.21646,0 -0.73824,2.025 -2.12154,4.5 -2.42187,4.3332 -3.34411,5.36245 -3.34411,3.73213 z m -61.500004,-2.23213 c 0.99549,-1.1 2.03497,-2 2.30998,-2 0.275,0 -0.31449,0.9 -1.30998,2 -0.99549,1.1 -2.03498,2 -2.30998,2 -0.275,0 0.31449,-0.9 1.30998,-2 z m -12.53066,-3.683 c -0.67649,-2.09935 -1.60251,-4.29042 -2.05781,-4.86904 -0.45531,-0.57862 -0.61243,-2.15362 -0.34915,-3.5 0.41789,-2.13714 0.36272,-2.19402 -0.43452,-0.44796 -0.84872,1.8588 -0.96434,1.87457 -1.63775,0.22332 -0.84833,-2.08016 3.21548,-6.36034 6.92206,-7.29063 1.27999,-0.32126 6.54838,0.14606 11.70754,1.03847 13.58846,2.35049 23.57536,2.90619 30.12773,1.6764 5.31587,-0.99771 9.00695,-2.342 26.752564,-9.74328 6.79861,-2.83554 17.89442,-3.89773 19.89251,-1.90428 0.66845,0.6669 -1.39516,1.02497 -6.19509,1.07497 -6.45756,0.0673 -8.55316,0.66006 -20.38626,5.76679 -18.827684,8.12534 -22.889244,8.49368 -50.369844,4.56801 -10.22012,-1.45996 -13.66972,-0.8401 -14.53615,2.61203 -0.84543,3.36849 0.40649,9.71263 1.75249,8.88076 0.70011,-0.43269 0.80692,0.14838 0.31657,1.72221 l -0.74003,2.37523 2.3829,-2 2.3829,-2 -1.98934,2.5 c -1.09414,1.375 -2.06179,2.64265 -2.15034,2.817 -0.0885,0.17435 -0.71448,-1.40065 -1.39098,-3.5 z m -8.88339,-14.41912 c -0.10565,-3.1986 3.61335,-8.91442 6.94406,-10.67248 3.14051,-1.65766 9.74557,-0.91131 11.85757,1.33987 1.49522,1.59375 1.46705,1.66692 -0.38758,1.00667 -8.90739,-3.17104 -14.922,-0.31132 -17.54428,8.34163 l -0.78381,2.58643 -0.086,-2.60212 z m 109.944684,0.60212 c 0,-0.55 0.43621,-1.675 0.96937,-2.5 0.53316,-0.825 0.96937,-1.05 0.96937,-0.5 0,0.55 -0.43621,1.675 -0.96937,2.5 -0.53316,0.825 -0.96937,1.05 -0.96937,0.5 z m -62.530634,-10.5178 c 5.5,-0.97867 11.125,-2.08343 12.5,-2.45502 2.33159,-0.63011 2.37763,-0.57571 0.6834,0.80754 -2.14973,1.75515 -12.51891,3.71461 -18.76531,3.54608 -3.45715,-0.0933 -2.24308,-0.50622 5.58191,-1.8986 z m 61.638674,-2.33459 c -2.8681,-3.05296 -8.35951,-4.64761 -16.00469,-4.64761 -3.81419,0 -6.13398,-0.41823 -6.13398,-1.10589 0,-1.75673 14.85425,-0.63758 19.11144,1.43991 1.9863,0.9693 4.11415,2.86568 4.72856,4.21417 1.39174,3.05452 1.09134,3.07208 -1.70133,0.0994 z m -48.138674,-4.60197 c -5.86418,-2.01416 -13,-8.66432 -13,-12.11523 0,-0.99681 -0.45,-2.09049 -1,-2.43041 -0.55,-0.33992 -1,-0.24085 -1,0.22014 0,1.28324 -7.12425,8.36146 -10.5,10.43217 -3.72784,2.28668 -5.85571,2.45585 -2.47251,0.19657 4.11381,-2.74718 9.05909,-7.68842 10.55783,-10.54922 2.08312,-3.97626 1.7381,-6.59542 -1.23134,-9.34741 -1.45532,-1.34874 -2.19603,-2.45225 -1.64603,-2.45225 0.55001,0 2.2139,1.125 3.69755,2.5 1.48365,1.375 2.84311,2.5 3.02102,2.5 0.17791,0 0.59468,-1.2375 0.92615,-2.75 0.33146,-1.5125 1.51764,-3.875 2.63595,-5.25 l 2.03328,-2.5 -1.98899,4.5 c -3.40358,7.70046 -2.42882,14.83108 2.78071,20.34158 4.07007,4.30522 9.65042,6.7656 15.5099,6.83834 3.659864,0.0454 4.590514,0.30088 3.176484,0.87188 -3.101804,1.25255 -5.546554,1.03866 -11.500004,-1.00616 z m -44.40415,-4.09562 c -4.2788,-3.75684 -5.97886,-8.61215 -5.34076,-15.25303 0.46862,-4.87696 3.08931,-8.69699 5.96648,-8.69699 0.55,0 -0.008,0.81611 -1.23966,1.81357 -1.61589,1.30846 -2.37535,3.22559 -2.72682,6.88342 -0.61595,6.41036 0.99674,11.33423 4.99143,15.23977 4.05401,3.96354 2.85939,3.97314 -1.65067,0.0133 z m 69.085724,-6.64115 c 3.40872,-6.63873 2.91001,-14.03818 -1.23797,-18.36774 -1.5885,-1.65803 -4.02565,-3.28623 -5.41589,-3.61821 -1.39024,-0.33198 -3.79959,-1.24478 -5.35411,-2.02845 -1.55452,-0.78366 -4.704524,-1.79621 -7.000004,-2.25009 l -4.1736,-0.82525 4.5,-0.10583 c 2.8923,-0.068 5.669754,0.60737 7.774174,1.89044 1.80079,1.09794 4.20829,1.99626 5.35,1.99626 3.15754,0 8.60539,6.04151 9.43487,10.46299 0.8554,4.55969 -1.60519,13.36381 -4.45598,15.94374 -1.56881,1.41976 -1.47033,0.89241 0.57851,-3.09785 z m -16.561864,-0.95312 c 1.22139,-1.47167 1.10305,-1.56483 -1.12755,-0.8876 -2.03804,0.61876 -2.26438,0.51749 -1.24216,-0.55576 1.74777,-1.83501 1.55822,-3.91239 -0.35699,-3.91239 -0.95297,0 -1.39216,0.55982 -1.07914,1.37555 0.31163,0.81208 -0.47761,1.83366 -1.92673,2.49392 -3.47141,1.58168 -4.38305,-1.18047 -1.42782,-4.32616 4.26248,-4.53721 10.040684,-3.76453 10.040684,1.34268 0,4.03859 -0.926524,6.11401 -2.729434,6.11401 -1.29278,0 -1.31495,-0.2416 -0.15086,-1.64425 z m 0.88029,-6.35575 c 0,-0.55 -0.47656,-1 -1.05902,-1 -0.58246,0 -0.7809,0.45 -0.44098,1 0.33992,0.55 0.81648,1 1.05902,1 0.24254,0 0.44098,-0.45 0.44098,-1 z m -41.39301,5.41821 c -0.33384,-0.86998 -0.60699,-2.36013 -0.60699,-3.31144 0,-1.89961 3.49312,-6.10677 5.07034,-6.10677 2.67701,0 2.22972,6.55709 -0.64327,9.43007 -1.98998,1.98998 -3.05317,1.98668 -3.82008,-0.0119 z m -28.04397,-4.66821 c 3.12793,-10.08576 11.35139,-20.75 16.00084,-20.75 2.68889,0 2.59844,0.14539 -1.8424,2.96169 -4.94155,3.13384 -9.92658,9.96909 -11.87926,16.28831 -0.63733,2.0625 -1.56787,3.75 -2.06787,3.75 -0.50001,0 -0.5951,-1.0125 -0.21131,-2.25 z m 96.381264,-22.36326 c -5.02553,-3.813 -12.70734,-7.18192 -20.02505,-8.78216 -3.53058,-0.77207 -5.47871,-1.44894 -4.32919,-1.50417 3.71648,-0.17855 17.62083,3.83313 21.82501,6.29694 4.28326,2.51016 8.58127,6.60265 6.93422,6.60265 -0.52839,0 -2.51064,-1.17597 -4.40499,-2.61326 z M 92.052056,865.83271 c 0.9625,-0.25152 2.5375,-0.25152 3.5,0 0.9625,0.25153 0.175,0.45733 -1.75,0.45733 -1.925,0 -2.7125,-0.2058 -1.75,-0.45733 z m -5.5,-0.97295 c 0.6875,-0.27741 1.8125,-0.27741 2.5,0 0.6875,0.27741 0.125,0.50438 -1.25,0.50438 -1.375,0 -1.9375,-0.22697 -1.25,-0.50438 z"
       id="path3022"
       style="fill:#000000" />
  </g>
</svg>
