<?xml version="1.0" encoding="UTF-8" standalone="no"?>
<!-- Created with Inkscape (http://www.inkscape.org/) -->

<svg
   xmlns:dc="http://purl.org/dc/elements/1.1/"
   xmlns:cc="http://creativecommons.org/ns#"
   xmlns:rdf="http://www.w3.org/1999/02/22-rdf-syntax-ns#"
   xmlns:svg="http://www.w3.org/2000/svg"
   xmlns="http://www.w3.org/2000/svg"
   version="1.1"
   width="744.09448"
   height="1052.3622"
   id="svg2">
  <defs
     id="defs4" />
  <metadata
     id="metadata7">
    <rdf:RDF>
      <cc:Work
         rdf:about="">
        <dc:format>image/svg+xml</dc:format>
        <dc:type
           rdf:resource="http://purl.org/dc/dcmitype/StillImage" />
        <dc:title></dc:title>
      </cc:Work>
    </rdf:RDF>
  </metadata>
  <g
     id="layer1">
    <path
       d="m 80.780705,982.72672 c -0.90901,-1.4708 2.33732,-3.60596 3.58522,-2.35806 0.58877,0.58877 0.76814,1.55969 0.3986,2.15762 -0.80999,1.31059 -3.22269,1.43198 -3.98382,0.20044 z m -4.57003,-8.12915 c 0,-2.05503 9.43784,-4.70277 10.52024,-2.95141 0.32879,0.53199 -0.34322,0.96725 -1.49334,0.96725 -1.15013,0 -3.65168,0.65204 -5.55902,1.44897 -1.90733,0.79694 -3.46788,1.03777 -3.46788,0.53519 z m -0.75,-26.64644 c -0.6875,-0.27741 -1.25,-1.15772 -1.25,-1.95624 0,-1.17498 0.40932,-1.23279 2.14642,-0.30312 1.18054,0.63181 4.11572,0.92677 6.52262,0.65548 3.64001,-0.41029 4.18356,-0.26116 3.23113,0.88645 -1.10335,1.32946 -7.98462,1.793 -10.65017,0.71743 z m -15.0981,-11.77783 c 11.66772,-6.26668 14.31144,-16.65726 6.47314,-25.44133 -2.08965,-2.34179 -2.09061,-2.3605 -0.0577,-1.12355 6.29505,3.83036 8.28918,12.95437 4.16789,19.06995 -2.52596,3.74826 -8.91475,8.45667 -12.73521,9.38559 -1.375,0.33432 -0.40664,-0.51647 2.1519,-1.89066 z m -16.90447,-0.80989 c -4.09922,-5.13705 -5.81782,-17.83238 -3.12247,-23.06574 1.4013,-2.72079 4.96134,-6.68426 6.0039,-6.68426 0.42913,0 -0.28729,1.06752 -1.59204,2.37227 -4.94354,4.94354 -5.9851,16.42806 -2.17283,23.95825 2.42191,4.78389 2.63723,5.61729 0.88344,3.41948 z m 50.25257,-3.6969 c -1.49166,-0.68059 -0.51896,-0.93039 3.82692,-0.98281 5.058215,-0.061 6.212545,-0.45591 8.749995,-2.99337 2.45867,-2.45866 2.93934,-3.76941 3.02544,-8.25 0.0975,-5.07564 0.14224,-5.16182 0.94769,-1.82692 1.14686,4.74844 -0.5262,10.61065 -3.60374,12.62714 -2.93349,1.92209 -10.123275,2.71401 -12.946305,1.42596 z m -36.1,-7.4531 c -0.36606,-0.95394 -0.17057,-2.22944 0.43444,-2.83443 0.79999,-0.80001 1.28151,-0.62698 1.76556,0.63443 0.36606,0.95394 0.17057,2.22943 -0.43444,2.83443 -0.8,0.80001 -1.28151,0.62698 -1.76556,-0.63443 z m -26.20505,-5.1 c -0.0204,-1.65 0.18706,-2.44606 0.46099,-1.76903 0.27392,0.67703 0.29059,2.02703 0.037,3 -0.25354,0.97297 -0.47766,0.41903 -0.49804,-1.23097 z m 48.41204,0.91821 c -2.04364,-5.32564 0.99239,-13.15584 6.09879,-15.72932 3.73474,-1.8822 8.61759,-3.02113 7.88746,-1.83975 -0.31589,0.51112 -1.75047,1.22449 -3.18795,1.58527 -6.67343,1.67493 -11.11113,7.98962 -9.95303,14.16281 0.66567,3.5483 0.20138,4.54852 -0.84527,1.82099 z m 13.39301,-0.31122 c 0,-0.49116 0.7118,-1.16616 1.58179,-1.5 2.44628,-0.93873 2.7695,-0.7352 1.41821,0.89301 -1.37965,1.66238 -3,1.99022 -3,0.60699 z m 21.115995,-11.54127 c -0.34616,-5.77214 -7.87566,-14.97407 -15.949905,-19.49265 -0.90718,-0.50768 -1.3473,-1.22519 -0.97803,-1.59446 0.93186,-0.93186 8.865375,4.67929 12.550965,8.87694 3.34192,3.80624 5.67085,9.63172 4.95185,12.38636 -0.40134,1.53765 -0.47342,1.51556 -0.57488,-0.17619 z M 44.142325,892.3763 c 1.8874,-2.05311 3.6499,-3.51467 3.91666,-3.24791 0.26677,0.26676 0.29528,0.59752 0.0634,0.73502 -0.23191,0.1375 -1.99441,1.59906 -3.91666,3.2479 l -3.49501,2.99791 3.43165,-3.73292 z"
       id="path3035"
       style="fill:#000000" />
  </g>
</svg>
