<?xml version="1.0" encoding="UTF-8" standalone="no"?>
<!-- Created with Inkscape (http://www.inkscape.org/) -->

<svg
   xmlns:dc="http://purl.org/dc/elements/1.1/"
   xmlns:cc="http://creativecommons.org/ns#"
   xmlns:rdf="http://www.w3.org/1999/02/22-rdf-syntax-ns#"
   xmlns:svg="http://www.w3.org/2000/svg"
   xmlns="http://www.w3.org/2000/svg"
   version="1.1"
   width="744.09448"
   height="1052.3622"
   id="svg2">
  <defs
     id="defs4" />
  <metadata
     id="metadata7">
    <rdf:RDF>
      <cc:Work
         rdf:about="">
        <dc:format>image/svg+xml</dc:format>
        <dc:type
           rdf:resource="http://purl.org/dc/dcmitype/StillImage" />
        <dc:title></dc:title>
      </cc:Work>
    </rdf:RDF>
  </metadata>
  <g
     id="layer1">
    <path
       d="m 80.362967,994.2855 c -4.24933,-1.85633 -9.5,-6.49694 -9.5,-8.39621 0,-1.1734 0.87731,-0.77471 3.25,1.47694 1.7875,1.69632 4.69015,3.80959 6.45034,4.69617 4.08053,2.05529 11.51436,2.0694 15.45938,0.0293 1.68323,-0.87042 2.79314,-1.15014 2.46648,-0.62159 -2.25169,3.6433 -12.56436,5.24506 -18.1262,2.81534 z m 1.95454,-12.0657 c -2.90826,-2.90826 -3.16744,-6.59031 -0.6258,-8.89046 2.33449,-2.11269 3.56319,-2.11873 2.75536,-0.0135 -0.53855,1.40344 -0.39802,1.44902 0.96922,0.31431 1.31901,-1.09468 1.74134,-1.09701 2.41109,-0.0133 0.44659,0.72259 1.31229,1.0046 1.92379,0.62668 0.61149,-0.378 1.1118,-0.16251 1.1118,0.47879 0,0.6413 0.675,0.90699 1.5,0.5904 2.02493,-0.77703 1.90713,-0.24357 -0.94319,4.27164 -1.34376,2.12865 -2.16876,4.14471 -1.83334,4.48013 0.33543,0.33542 -0.61059,0.60986 -2.10226,0.60986 -1.5462,0 -3.76731,-1.05519 -5.16667,-2.45455 z m 6.04546,-0.54545 c 0.33992,-0.55 -0.0835,-1 -0.94098,-1 -0.85746,0 -1.55902,0.45 -1.55902,1 0,0.55 0.42344,1 0.94098,1 0.51754,0 1.2191,-0.45 1.55902,-1 z m -0.88732,-6.72065 c -0.42691,-0.42691 -1.41441,0.0966 -2.19444,1.16335 -2.20292,3.01267 -1.67,4.2535 0.7762,1.8073 1.20695,-1.20694 1.84516,-2.54374 1.41824,-2.97065 z m 4.73141,5.22845 c 1.24313,-2.68024 2.65591,-3.32272 2.65591,-1.2078 0,1.39031 -1.93884,3.7 -3.10592,3.7 -0.38825,0 -0.18575,-1.12149 0.45001,-2.4922 z m 3.65591,-1.27447 c 0,-3.53487 -3.5972,-7.1581 -8.18467,-8.24391 l -3.31533,-0.7847 3.82692,-0.10236 c 2.97664,-0.0796 4.47639,0.54711 6.75,2.82072 2.9033,2.90329 3.90129,7.35432 1.92308,8.57692 -0.57839,0.35747 -1,-0.59818 -1,-2.26667 z m -17.5,-24.23333 c -0.39079,-0.63232 2.06937,-0.99437 6.69098,-0.98469 5.08823,0.0107 6.85326,0.30985 5.80902,0.98469 -1.97888,1.27885 -11.70963,1.27885 -12.5,0 z m 15.3245,-3.67418 c 0.42673,-2.09296 0.67819,-2.34442 0.96961,-0.9696 0.2164,1.02092 -0.0429,2.29254 -0.57615,2.82582 -0.62614,0.62614 -0.76551,-0.0314 -0.39346,-1.85622 z m -18.57448,-12.40593 c 4.71437,-2.74587 5.99283,-11.70363 3.20548,-22.45979 -2.03664,-7.85926 -8.59978,-21.33166 -12.09408,-24.82596 l -2.78365,-2.78364 2.55362,1.1635 c 3.16026,1.43991 8.04321,9.35937 12.12604,19.66672 2.58476,6.52537 3.10931,9.25296 3.16993,16.48323 0.0658,7.84473 -0.15659,8.90846 -2.35167,11.25 -1.33338,1.42233 -3.13338,2.57237 -4,2.55564 -1.32602,-0.0256 -1.29839,-0.19192 0.17433,-1.0497 z m -21.06323,-3.41617 c -4.13639,-3.48055 -6.27889,-9.47782 -6.30471,-17.64817 -0.0337,-10.66965 4.48826,-23.90026 9.32704,-27.28947 3.60078,-2.52208 3.90313,-1.81241 0.71497,1.67817 -4.28298,4.68927 -7.12566,12.93472 -7.67283,22.25575 -0.57005,9.71092 0.81248,15.36406 4.89441,20.01313 3.59528,4.0948 3.20699,4.49594 -0.95888,0.99059 z m 36.79808,0.24628 c -5.33329,-3.62437 -7.43163,-8.82986 -7.82872,-19.42127 -0.37556,-10.01733 1.32314,-17.90681 4.80766,-22.32873 1.62958,-2.06797 1.51135,-1.37672 -0.68416,4 -2.18742,5.35692 -2.65686,8.08273 -2.66942,15.5 -0.0129,7.61387 0.36691,9.75676 2.46604,13.91357 2.80263,5.5499 6.10897,8.4186 11.04653,9.58435 l 3.377203,0.79736 -3.602123,0.10236 c -2.22594,0.0633 -4.86703,-0.75725 -6.91301,-2.14764 z M 107.7964,930.66 c 3.13294,-5.5438 5.35103,-16.6227 4.67062,-23.32878 -1.07936,-10.63811 -5.07321,-16.77381 -10.77899,-16.55961 -1.27878,0.048 -3.675063,-0.38995 -5.325063,-0.97324 -2.43738,-0.86164 -1.68723,-0.95732 4.000003,-0.51015 5.72042,0.44978 7.40278,0.99267 9.20345,2.96991 3.0493,3.34831 4.28443,8.5251 4.29097,17.98472 0.006,9.43573 -2.05128,17.27674 -5.5546,21.16512 l -2.49243,2.76638 1.98604,-3.51435 z m -44.415283,-9.95628 c -0.32994,-0.53385 0.10506,-2.33385 0.96666,-4 1.17966,-2.28121 2.25995,-3.02937 4.3742,-3.02937 1.54421,0 3.07755,0.2699 3.40743,0.59977 0.71773,0.71774 -1.30048,5.59404 -2.74609,6.63492 -1.47455,1.06172 -5.3,0.93086 -6.0022,-0.20532 z m 34.72562,-1.69373 c -0.69093,-0.27855 -1.00187,-0.91803 -0.69098,-1.42105 0.31088,-0.50303 0.12619,-0.91459 -0.41044,-0.91459 -0.53663,0 -1.18193,0.5625 -1.43402,1.25 -0.34485,0.94051 -0.75992,0.96698 -1.67643,0.1069 -1.66174,-1.55942 1.46427,-6.3569 4.14213,-6.3569 1.0692,0 1.66907,0.44485 1.33305,0.98855 -0.33856,0.5478 0.0241,0.74486 0.813323,0.442 0.92679,-0.35565 1.5809,0.27279 1.87269,1.79919 0.80537,4.21303 -0.44897,5.51711 -3.949323,4.1059 z m -53.08899,-26.08564 c 1.39093,-1.5125 4.00998,-4.86463 5.82012,-7.44918 4.32091,-6.16949 13.0251,-10.3801 13.0251,-6.30082 0,1.02822 -1.03083,1.5 -3.27749,1.5 -4.38712,0 -6.95226,1.97549 -11.76215,9.05837 -2.21918,3.2679 -4.55231,5.94163 -5.18471,5.94163 -0.63241,0 -0.0118,-1.2375 1.37913,-2.75 z M 111.8492,883.6411 c -0.69103,-1.66828 -2.65812,-4.1798 -4.37132,-5.58114 -1.71444,-1.40234 -2.16496,-2.07898 -1.00205,-1.50496 2.41855,1.19382 8.38714,7.70823 8.38714,9.15415 0,2.06438 -1.81912,0.81611 -3.01377,-2.06805 z m -21.545103,-8.49855 c 1.06762,-0.80751 2.64262,-1.45225 3.5,-1.43277 0.99919,0.0227 0.6613,0.54854 -0.94113,1.46457 -3.27204,1.87047 -5.04477,1.84843 -2.55887,-0.0318 z"
       id="path3048"
       style="fill:#000000" />
  </g>
</svg>
