<?xml version="1.0" encoding="UTF-8" standalone="no"?>
<!-- Created with Inkscape (http://www.inkscape.org/) -->

<svg
   xmlns:dc="http://purl.org/dc/elements/1.1/"
   xmlns:cc="http://creativecommons.org/ns#"
   xmlns:rdf="http://www.w3.org/1999/02/22-rdf-syntax-ns#"
   xmlns:svg="http://www.w3.org/2000/svg"
   xmlns="http://www.w3.org/2000/svg"
   version="1.1"
   width="744.09448"
   height="1052.3622"
   id="svg2">
  <defs
     id="defs4" />
  <metadata
     id="metadata7">
    <rdf:RDF>
      <cc:Work
         rdf:about="">
        <dc:format>image/svg+xml</dc:format>
        <dc:type
           rdf:resource="http://purl.org/dc/dcmitype/StillImage" />
        <dc:title></dc:title>
      </cc:Work>
    </rdf:RDF>
  </metadata>
  <g
     id="layer1">
    <path
       d="m 49.649433,1018.9186 c -2.49193,-0.6722 -5.59418,-1.967 -6.89389,-2.8774 -2.51018,-1.7582 -6.06024,-6.5962 -6.065,-8.2653 -0.002,-0.55 0.90476,0.4886 2.01407,2.3081 4.22258,6.9259 17.2633,9.3011 28.33096,5.1601 5.80157,-2.1706 14.57584,-10.3203 14.72359,-13.6754 0.0434,-0.986 0.29471,-1.2639 0.55843,-0.6175 0.65003,1.5933 -2.89911,8.325 -5.79006,10.9821 -3.59444,3.3036 -9.82615,6.2007 -15.75737,7.3255 -6.24666,1.1847 -5.36876,1.2115 -11.12073,-0.3402 z m 33.18867,-22.64271 c 0,-1.375 0.22698,-1.9375 0.50439,-1.25 0.27741,0.6875 0.27741,1.8125 0,2.5 -0.27741,0.6875 -0.50439,0.125 -0.50439,-1.25 z m -45.15789,-2.3848 c 0,-1.44777 4.01178,-8.47574 6.58145,-11.52963 l 2.67706,-3.1815 -2.1573,-2.29633 c -2.19493,-2.33641 -2.52345,-4.58265 -1.84506,-12.61581 0.48881,-5.78821 2.84093,-9.31304 7.51585,-11.26307 5.21126,-2.17375 25.07649,-8.4255 28.88596,-9.09065 4.08518,-0.71329 9.0512,0.73993 12.00217,3.51222 3.458789,3.24937 2.843279,4.45095 -0.73686,1.43846 -4.08034,-3.43338 -11.26041,-3.49252 -20.61367,-0.16979 -3.74528,1.3305 -10.04012,3.36503 -13.98853,4.52118 -5.25592,1.539 -7.86763,2.92056 -9.75,5.15762 -3.04997,3.62469 -3.19377,5.02859 -0.74233,7.24711 2.45929,2.22563 6.32871,2.0886 8.9092,-0.31549 2.70787,-2.52276 3.53608,-0.68574 1.56466,3.47048 l -1.42299,3 1.9352,-2.41001 c 2.00465,-2.49652 2.58898,-6.7224 1.06019,-7.66724 -0.48125,-0.29743 -0.875,-1.18923 -0.875,-1.98177 0,-1.0683 0.51725,-0.92372 2,0.55902 2.36865,2.36865 6.39758,2.56264 10.35517,0.49858 2.55735,-1.33377 2.79324,-1.32771 2.26145,0.0581 -0.34006,0.88619 -0.17137,1.28618 0.39483,0.93624 0.5437,-0.33602 0.98855,-1.50991 0.98855,-2.60864 0,-1.86464 0.14802,-1.89401 2.22251,-0.44098 1.22237,0.85618 3.24737,1.5567 4.5,1.5567 3.00869,0 6.60145,-3.65317 5.96948,-6.06985 -0.37363,-1.42873 0.22768,-1.16433 2.48446,1.09246 1.63757,1.63756 3.84278,2.97739 4.90047,2.97739 1.057689,0 1.923079,0.45 1.923079,1 0,1.68172 -3.585009,1.11427 -6.261569,-0.99111 -2.22612,-1.75107 -2.60443,-1.80047 -3.1381,-0.40975 -0.33375,0.86974 -0.40015,1.91574 -0.14756,2.32444 0.53807,0.87062 -0.4332,1.10319 -6.27867,1.50344 -2.37924,0.16291 -4.98732,0.95762 -5.79572,1.76603 -1.2931,1.29309 -1.13368,1.47367 1.3259,1.50185 6.84211,0.0784 7.78193,0.45474 11.91969,4.77314 l 4.28114,4.46805 2.04745,-2.6029 c 1.126089,-1.4316 2.047439,-3.44222 2.047439,-4.46805 0,-1.02583 0.45,-1.86514 1,-1.86514 0.55,0 1,0.24293 1,0.53984 0,1.39045 -4.000689,8.15325 -5.769559,9.7529 -2.38131,2.15352 -9.23044,3.51741 -9.23044,1.8381 0,-0.62196 1.0125,-1.13773 2.25,-1.14615 4.94373,-0.0336 5.33824,-1.59644 1.39776,-5.53693 -3.68498,-3.68499 -3.76063,-3.70839 -10.42983,-3.22774 -11.57691,0.83436 -26.24374,10.11084 -33.33647,21.08468 -2.1348,3.30295 -3.88146,5.69268 -3.88146,5.3105 z m 10.84785,-18.29853 c -1.03299,-1.24468 -0.82758,-1.82336 1.1865,-3.34258 2.90287,-2.18964 3.52974,-1.89661 2.01149,0.94026 -0.74151,1.38551 -0.7687,2.08565 -0.081,2.08565 0.94561,0 1.13234,-0.54762 1.43518,-4.209 0.13721,-1.65884 -5.96412,-2.80167 -7.48599,-1.40219 -0.91765,0.84385 -1.06022,0.69016 -0.59257,-0.63881 0.85362,-2.42588 -0.0134,-2.19399 -1.38602,0.37068 -0.87421,1.63347 -0.85768,1.94931 0.072,1.37477 0.86318,-0.53348 1.0148,-0.14065 0.53238,1.37932 -0.9437,2.97333 0.093,2.64819 1.99197,-0.62477 1.55119,-2.67348 1.55097,-2.32906 -0.002,2.62523 -0.51184,1.63323 -0.39851,2.16148 0.36277,1.69098 0.63525,-0.39262 1.10711,0.005 1.10711,0.93379 0,0.88992 0.47185,1.32641 1.04856,0.96999 0.70897,-0.43817 0.64396,-1.13555 -0.20071,-2.15332 z m 15.15215,-10.93911 c 0,-1.12034 -1.87801,-0.13785 -2.4159,1.26388 -0.52667,1.37248 -0.38034,1.43434 0.89301,0.37756 0.83759,-0.69514 1.52289,-1.43379 1.52289,-1.64144 z m 4,-0.96862 c 0,-0.19039 -0.675,-0.0872 -1.5,0.22943 -0.825,0.31659 -1.5,1.03256 -1.5,1.59106 0,0.58531 0.63541,0.48812 1.5,-0.22943 0.825,-0.68469 1.5,-1.40067 1.5,-1.59106 z m -7,0.53204 c 0,-0.58246 -0.45,-0.7809 -1,-0.44098 -0.55,0.33992 -1,0.81648 -1,1.05902 0,0.24254 0.45,0.44098 1,0.44098 0.55,0 1,-0.47656 1,-1.05902 z m -26.92105,-13.23082 c -0.12595,-2.85537 3.70169,-9.50576 5.86651,-10.19285 2.16186,-0.68615 6.05454,0.9553 6.05454,2.55306 0,0.62338 -0.80087,0.57138 -2.12649,-0.13807 -3.29831,-1.7652 -6.41405,0.2317 -8.18788,5.24765 -0.84026,2.37603 -1.56326,3.51462 -1.60668,2.53021 z m 20.47869,-9.6169 c -0.30822,-0.49871 0.27449,-0.68842 1.2949,-0.42157 1.59113,0.41609 14.13552,-1.40831 22.14746,-3.22103 l 2.5,-0.56563 -2.50635,1.46176 c -4.86021,2.83458 -22.1307,4.85851 -23.43601,2.74647 z m 47.442357,-0.94129 c 0,-1.989 -6.282088,-5.14428 -10.249997,-5.14823 -2.0625,-0.002 -3.75,-0.45374 -3.75,-1.00374 0,-1.53137 6.735129,-1.18833 10.020019,0.51035 2.959558,1.53045 5.624888,5.17808 4.560998,6.24196 -0.31956,0.31956 -0.58102,0.0494 -0.58102,-0.60034 z M 47.457703,929.71919 c 1.22238,-0.85619 2.22251,-2.03629 2.22251,-2.62245 0,-0.74356 -0.3959,-0.73717 -1.30961,0.0211 -1.76774,1.46709 -7.10193,-0.0267 -7.50156,-2.10077 -0.17114,-0.88823 0.8598,-2.3822 2.29097,-3.31994 2.11138,-1.38343 3.07477,-1.48963 5.10822,-0.56313 1.37835,0.62802 2.70991,1.14185 2.95903,1.14185 1.34637,0 -0.80374,-12.97418 -3.02442,-18.25 -0.40514,-0.9625 -0.31069,-1.75 0.20987,-1.75 2.50767,0 5.95978,14.4963 4.85478,20.38647 -0.729,3.88587 -4.44169,8.61353 -6.76433,8.61353 -0.69738,0 -0.26784,-0.70052 0.95454,-1.5567 z m 28.22251,-1.56403 c -3.51733,-1.39843 -7.84853,-5.7287 -10.09158,-10.08943 -3.29868,-6.41296 -1.89408,-17.06707 2.75917,-20.92893 0.86096,-0.71453 0.56916,0.31838 -0.69544,2.46172 -3.08784,5.2335 -2.89501,13.42691 0.45033,19.1353 3.00972,5.1357 6.42783,7.52756 13.07752,9.15117 l 5,1.22081 -4,0.0217 c -2.2,0.0119 -5.125,-0.42562 -6.5,-0.9723 z m -42.5,-1.03961 c -3.85229,-2.11784 -9.47863,-8.24486 -10.54881,-11.48755 -2.15012,-6.51495 4.55034,-15.64829 13.04881,-17.78672 1.88376,-0.474 1.63726,-0.14926 -1,1.31742 -13.25349,7.37076 -13.83283,17.73692 -1.5,26.83958 3.22883,2.38315 3.22883,2.89236 0,1.11727 z m 67.578647,-9.49393 c 5.2617,-10.32051 -0.977628,-25.40549 -11.897967,-28.76603 -4.46463,-1.37391 -4.52837,-1.44361 -1.38102,-1.51005 11.224519,-0.23693 20.308157,15.50412 15.783617,27.35145 -0.92869,2.43175 -2.30446,4.93253 -3.05725,5.5573 -0.848188,0.70394 -0.638028,-0.29728 0.55262,-2.63267 z m -21.078647,-4.36111 c 1.20927,-0.9242 0.98802,-1.03538 -1.14155,-0.57367 -2.3814,0.51631 -2.67851,0.25345 -3.01689,-2.66912 -0.54582,-4.71429 0.0325,-6.56708 2.27168,-7.27777 2.25899,-0.71698 6.30227,1.57529 7.83706,4.44308 1.25638,2.34757 -1.18537,5.58897 -4.9503,6.57147 -2.01405,0.52559 -2.20843,0.42957 -1,-0.49399 z m 1,-9.04364 c 0,-0.58246 -0.45,-0.7809 -1,-0.44098 -0.55,0.33992 -1,0.81648 -1,1.05902 0,0.24254 0.45,0.44098 1,0.44098 0.55,0 1,-0.47656 1,-1.05902 z m -35.36163,-4.44098 c -0.31658,-0.825 -0.41982,-1.5 -0.22943,-1.5 0.19039,0 0.90637,0.675 1.59106,1.5 0.71755,0.86459 0.81474,1.5 0.22943,1.5 -0.5585,0 -1.27447,-0.675 -1.59106,-1.5 z m 2.01475,-3.3308 c -2.66992,-2.95023 -10.6194,-6.03767 -18.33047,-7.11925 l -6.82265,-0.95697 8.12222,0.35019 c 8.3658,0.36069 15.60402,2.68866 18.22232,5.86069 2.02977,2.45904 0.91929,4.19765 -1.19142,1.86534 z m 21.34688,-6.23722 c 0,-0.45484 3.68918,-4.02018 8.19818,-7.92298 8.48215,-7.34179 18.612369,-13.009 23.253797,-13.009 3.62759,0 2.37242,1.62276 -1.870888,2.41881 -6.074549,1.13959 -16.901939,7.37856 -23.331089,13.44386 -3.4375,3.24296 -6.25,5.52415 -6.25,5.06931 z"
       id="path3061"
       style="fill:#000000" />
  </g>
</svg>
