<?xml version="1.0" encoding="UTF-8" standalone="no"?>
<!-- Created with Inkscape (http://www.inkscape.org/) -->

<svg
   xmlns:dc="http://purl.org/dc/elements/1.1/"
   xmlns:cc="http://creativecommons.org/ns#"
   xmlns:rdf="http://www.w3.org/1999/02/22-rdf-syntax-ns#"
   xmlns:svg="http://www.w3.org/2000/svg"
   xmlns="http://www.w3.org/2000/svg"
   version="1.1"
   width="744.09448"
   height="1052.3622"
   id="svg2">
  <defs
     id="defs4" />
  <metadata
     id="metadata7">
    <rdf:RDF>
      <cc:Work
         rdf:about="">
        <dc:format>image/svg+xml</dc:format>
        <dc:type
           rdf:resource="http://purl.org/dc/dcmitype/StillImage" />
        <dc:title></dc:title>
      </cc:Work>
    </rdf:RDF>
  </metadata>
  <g
     id="layer1">
    <path
       d="m 75.157975,1016.0794 c -6.09326,-1.641 -15.26455,-6.0843 -15.26455,-7.3954 0,-0.4969 2.5875,0.3677 5.75,1.9212 13.49214,6.6276 28.06829,6.5997 41.659725,-0.08 6.5876,-3.2375 6.59028,-3.2384 6.59028,-2.0633 0,1.4279 -9.33829,6.012 -15.534965,7.626 -7.1977,1.8748 -16.21948,1.8714 -23.20049,-0.01 z m -2.62155,-10.0428 c -16.17526,-3.9156 -31.46387,-16.94858 -40.03954,-34.13234 -3.44083,-6.89465 -3.30799,-8.12536 0.19246,-1.78324 4.77848,8.65762 8.82605,13.91706 15.55336,20.21013 15.01013,14.04125 34.94879,18.45015 55.198845,12.20585 17.58004,-5.42106 28.18143,-14.31099 36.38103,-30.50784 3.25361,-6.42695 3.99771,-6.87067 1.50093,-0.89505 -2.8213,6.75232 -9.47561,16.34251 -14.4308,20.79765 -13.9838,12.57264 -36.523875,18.42154 -54.356285,14.10484 z m 6.54548,-23.27793 c -0.79728,-0.50561 1.75132,-1.07228 6.5,-1.44523 4.29634,-0.33742 9.94902,-1.26221 12.56152,-2.05509 2.612505,-0.79288 4.750005,-1.07053 4.750005,-0.61701 0,1.12826 -5.211945,2.70687 -13.000005,3.93749 -7.82522,1.23648 -9.11159,1.25788 -10.81152,0.17984 z m -57.11428,-5.63765 c -0.068,-2.03969 3.37761,-8.5 4.53355,-8.5 0.35042,0 0.13106,0.60979 -0.48748,1.35509 -0.61854,0.74529 -1.76694,3.1078 -2.55199,5.25 -0.86774,2.36785 -1.45352,3.11078 -1.49408,1.89491 z m 13.9258,-11.54858 c -2.70813,-1.44505 -3.03418,-1.87707 -1.44113,-1.9095 2.16882,-0.0442 6.29146,2.44617 5.43956,3.28582 -0.27414,0.27019 -2.07343,-0.34915 -3.99843,-1.37632 z m 114.675155,-3.05829 c -0.20456,-0.76622 -0.86352,-2.88863 -1.46435,-4.71645 -0.91692,-2.78941 -0.87127,-3.13979 0.28411,-2.18091 1.50881,1.25221 3.03685,6.80581 2.12379,7.71886 -0.31439,0.3144 -0.73899,-0.0553 -0.94355,-0.8215 z m -7.5962,-2.3098 c -0.0434,-1.05416 0.19292,-1.64479 0.52522,-1.3125 0.33229,0.33229 0.36781,1.1948 0.0789,1.91667 -0.31922,0.79773 -0.55618,0.56078 -0.60416,-0.60417 z m -10.07895,-1.39326 c 0,-1.83519 5.83506,-5.29478 9.7405,-5.77512 4.0097,-0.49316 4.01154,-0.49468 -3.2405,2.67922 -1.1,0.48142 -3.0125,1.61207 -4.25,2.51254 -1.2375,0.90048 -2.25,1.16299 -2.25,0.58336 z m -67.389165,-1.01072 c -0.27895,-0.45136 0.36287,-2.25136 1.42629,-4 1.3584,-2.23372 2.69075,-3.17935 4.47956,-3.17935 3.29444,0 4.07308,2.17027 1.94429,5.41921 -1.6672,2.54447 -6.67188,3.6666 -7.85014,1.76014 z m 12.63916,-0.19221 c 2.59329,-1.61009 2.14029,-3.81178 -1.5,-7.29032 l -3.25,-3.1056 3.5,2.15346 c 4.59084,2.82462 5.80237,4.75893 4.3877,7.00532 -0.60614,0.9625 -1.95383,1.87907 -2.99488,2.03683 -1.75874,0.26651 -1.76885,0.20986 -0.14282,-0.79969 z m 20.39255,-0.0154 c -5.9538,-1.78419 -8.40791,-6.29492 -4.95059,-9.09935 1.28813,-1.04488 1.50433,-1.06053 0.90585,-0.0656 -1.30675,2.17239 0.1953,5.77787 2.92527,7.02173 3.126435,1.4245 4.803455,1.50879 3.995075,0.2008 -0.86576,-1.40081 2.27766,-7.02936 3.92574,-7.02936 3.28314,0 4.55611,1.28719 4.55611,4.60699 0,1.98464 -0.51885,3.44212 -1.25,3.51133 -0.6875,0.0651 0.1,0.46183 1.75,0.88168 2.37696,0.60483 1.75392,0.77009 -3,0.79573 -3.3,0.0178 -7.28585,-0.35297 -8.857455,-0.82394 z m 7.494305,-1.86606 c -1.15087,-0.72914 -1.15087,-0.94805 0,-1.40573 0.74973,-0.29816 0.85575,-0.57763 0.23559,-0.62106 -0.62015,-0.0434 -1.68775,0.59606 -2.37244,1.42106 -1.04736,1.262 -0.86846,1.49757 1.12755,1.48469 1.72037,-0.0111 1.99778,-0.25269 1.0093,-0.87895 z m -57.091175,-0.55069 c -0.65956,-0.79473 -1.05216,-2.46676 -0.87244,-3.71564 0.34849,-2.42166 6.05829,-6.86876 8.72464,-6.7952 0.88117,0.0243 -0.0786,0.93159 -2.13289,2.0162 -4.09269,2.16085 -5.795,5.99359 -3.75421,8.45259 0.69321,0.83526 0.79582,1.48701 0.23411,1.48701 -0.55,0 -1.53964,-0.65023 -2.19921,-1.44496 z m 72.969635,-3.74834 c -0.0173,-3.03555 -3.2046,-5.8067 -6.6788,-5.8067 -1.22016,0 -2.52698,-0.49918 -2.90405,-1.10928 -1.03683,-1.67763 7.68125,-0.0143 9.81754,1.87314 1.94536,1.71871 2.21586,3.96789 0.75,6.23614 -0.75809,1.17306 -0.97271,0.91297 -0.98469,-1.1933 z m -16.01531,-6.8067 -3.5,-0.73672 3.69098,-0.13164 c 2.03004,-0.0724 3.9691,0.31836 4.30902,0.86836 0.67043,1.08478 0.65357,1.08478 -4.5,0 z M 59.164255,944.0168 c 0.33229,-0.33229 1.19479,-0.36782 1.91667,-0.079 0.79773,0.31923 0.56078,0.55619 -0.60417,0.60417 -1.05416,0.0434 -1.64479,-0.19293 -1.3125,-0.52522 z m -11.27083,-10.68016 c 4.42737,-4.62889 23.47747,-7.70144 26.78664,-4.32037 1.6279,1.66327 1.51385,1.71048 -2.28664,0.94659 -7.03625,-1.4143 -12.30524,-0.50392 -24,4.14672 -1.79339,0.71317 -1.84504,0.63332 -0.5,-0.77294 z m 73.071035,-4.81304 c -1.33594,-0.53383 -4.71094,-1.38792 -7.5,-1.89799 -4.93273,-0.9021 -4.89516,-0.91284 1.37758,-0.39389 3.54674,0.29343 7.59674,1.15803 9,1.92134 2.89538,1.57495 0.80888,1.84362 -2.87758,0.37054 z m -23.800205,-0.5068 c 0.33229,-0.33229 1.19479,-0.36782 1.91667,-0.079 0.79773,0.31923 0.56078,0.55619 -0.60417,0.60417 -1.05416,0.0434 -1.64479,-0.19293 -1.3125,-0.52522 z"
       id="path3074"
       style="fill:#000000" />
  </g>
</svg>
