<?xml version="1.0" encoding="UTF-8" standalone="no"?>
<!-- Created with Inkscape (http://www.inkscape.org/) -->

<svg
   xmlns:dc="http://purl.org/dc/elements/1.1/"
   xmlns:cc="http://creativecommons.org/ns#"
   xmlns:rdf="http://www.w3.org/1999/02/22-rdf-syntax-ns#"
   xmlns:svg="http://www.w3.org/2000/svg"
   xmlns="http://www.w3.org/2000/svg"
   version="1.1"
   width="744.09448"
   height="1052.3622"
   id="svg2">
  <defs
     id="defs4" />
  <metadata
     id="metadata7">
    <rdf:RDF>
      <cc:Work
         rdf:about="">
        <dc:format>image/svg+xml</dc:format>
        <dc:type
           rdf:resource="http://purl.org/dc/dcmitype/StillImage" />
        <dc:title></dc:title>
      </cc:Work>
    </rdf:RDF>
  </metadata>
  <g
     id="layer1">
    <path
       d="m 92.171674,1028.9313 c 8.031136,-1.1709 12.718326,-4.4524 16.031156,-11.2236 4.88506,-9.9847 4.4879,-19.89677 -1.52932,-38.16785 -4.08953,-12.41769 -3.69416,-12.03895 -9.517166,-9.11704 -2.70337,1.35652 -7.05271,3.00371 -9.66521,3.66043 l -4.75,1.19404 -0.18025,4.63128 -0.18025,4.63129 -0.36827,-4.59637 -0.36826,-4.59637 -8.85809,-0.0696 -8.85809,-0.0696 -0.67681,11.16594 c -0.60444,9.97186 0.0852,18.99395 1.92363,25.16595 0.32766,1.1 -0.18286,0.425 -1.13449,-1.5 -1.36719,-2.7656 -1.80796,-6.9096 -2.10071,-19.75002 -0.36854,-16.16463 -0.38253,-16.25 -2.662,-16.25 -3.78726,0 -5.03224,-2.40171 -3.64505,-7.03173 0.65391,-2.18255 1.62086,-3.96827 2.14878,-3.96827 1.24758,0 1.23442,0.0986 -0.59872,4.48596 -0.85722,2.05162 -1.32506,3.96373 -1.03964,4.24915 1.04898,1.04898 9.2901,2.17858 16.09822,2.20656 11.24735,0.0462 21.80286,-2.96253 27.34246,-7.79373 1.288356,-1.1236 2.863356,-2.23275 3.499996,-2.46477 0.86149,-0.31397 0.83784,-0.96332 -0.0925,-2.53895 -1.97955,-3.3527 -1.46812,-3.63507 1.39614,-0.77081 2.5872,2.5872 2.60501,2.69159 0.79967,4.68647 -1.61623,1.78592 -1.6893,2.4393 -0.58598,5.24022 5.20798,13.22115 7.39232,21.7618 7.87771,30.80142 0.33477,6.2347 0.0828,10.9686 -0.71845,13.5 -3.20003,10.1095 -10.28259,15.4965 -20.084806,15.2766 l -5.43428,-0.122 5.93054,-0.8646 z m -9.15971,-0.4956 c 0.33229,-0.3323 1.19479,-0.3678 1.91667,-0.079 0.79773,0.3192 0.56078,0.5562 -0.60417,0.6042 -1.05416,0.043 -1.64479,-0.193 -1.3125,-0.5253 z m -16.27083,-12.3958 c -0.5887,-1.1001 -0.84537,-2.0001 -0.57037,-2.0001 0.275,0 0.98167,0.9 1.57037,2.0001 0.5887,1.1 0.84537,2 0.57037,2 -0.275,0 -0.98167,-0.9 -1.57037,-2 z m 16.07895,-27.41672 c -0.0434,-1.05416 0.19292,-1.64479 0.52522,-1.3125 0.33229,0.33229 0.36782,1.1948 0.0789,1.91667 -0.31923,0.79773 -0.55619,0.56078 -0.60417,-0.60417 z m -11.76363,-30.30861 c -0.70508,-0.48329 0.44218,-0.85467 2.83397,-0.91738 2.44469,-0.0641 5.19152,-0.97253 7.01328,-2.31941 3.57222,-2.64106 5.10071,-1.85677 2.14388,1.10006 -2.20469,2.20469 -9.89318,3.57473 -11.99113,2.13673 z m -28.01755,-3.41841 c -0.92546,-1.11716 0.002,-1.35961 5.25805,-1.37504 7.0737,-0.0208 7.23262,1.45011 0.24182,2.23807 -2.97459,0.33528 -4.73617,0.0589 -5.49987,-0.86303 z m 11.98567,-7.06691 c 2.98995,-0.79335 3.55136,-1.28352 2.67688,-2.33721 -0.6086,-0.73332 -1.67655,-1.11458 -2.37322,-0.84724 -1.89796,0.72831 -3.77467,-2.12364 -3.40936,-5.18105 0.18028,-1.50882 1.40489,-3.40786 2.77963,-4.31047 1.44256,-0.94714 2.14088,-1.09722 1.69098,-0.36343 -0.48631,0.7932 -0.19665,1.25 0.79263,1.25 0.85746,0 1.55902,-0.45 1.55902,-1 0,-1.59467 5.70102,-1.15613 7.42857,0.57143 0.86429,0.86428 1.57143,1.98928 1.57143,2.5 0,0.51071 0.41424,0.92857 0.92055,0.92857 1.85151,0 2.22726,-5.81084 0.59341,-9.17701 l -1.61289,-3.32299 2.04947,2.36078 c 2.69259,3.10162 2.64852,8.48918 -0.10104,12.35058 -2.52183,3.54159 -11.05667,7.80943 -15.3495,7.67552 -2.88232,-0.0899 -2.85159,-0.13296 0.78344,-1.09748 z m 7.71656,-6.34842 c 0,-0.24254 -0.45,-0.44098 -1,-0.44098 -0.55,0 -1,0.47656 -1,1.05902 0,0.58246 0.45,0.7809 1,0.44098 0.55,-0.33992 1,-0.81648 1,-1.05902 z m -2.06582,-2.48166 c -0.84175,-0.52023 -0.78608,-0.85019 0.20267,-1.20136 0.74973,-0.26629 1.05559,-0.81582 0.67968,-1.22119 -1.20496,-1.29941 -2.81653,0.49992 -2.81653,3.14469 0,2.20007 0.21933,2.3814 1.54733,1.27926 1.11559,-0.92586 1.22353,-1.4843 0.38685,-2.0014 z m 36.56582,9.04068 c -1.66542,-0.71566 -1.44531,-0.87119 1.31574,-0.92972 1.823656,-0.0387 4.186156,-0.53611 5.249996,-1.10546 1.34686,-0.72082 1.93426,-0.7133 1.93426,0.0248 0,0.58296 -1.15429,1.49879 -2.5651,2.03518 -2.96646,1.12785 -3.255466,1.12664 -5.934896,-0.0248 z m -62.3,-4.2 c -3.56707,-3.56707 1.19567,-15.5578 7.70745,-19.4044 1.7009,-1.00475 3.09255,-2.17979 3.09255,-2.61121 0,-0.43141 1.6875,-0.74381 3.75,-0.6942 l 3.75,0.0902 -3.09651,0.89863 c -8.1898,2.37674 -16.73203,14.29646 -14.48362,20.21025 1.14775,3.01879 1.0317,3.26231 -0.71987,1.51074 z m 53.35426,-0.52702 c -3.12331,-0.79461 -9.37753,-5.07424 -10.51126,-7.19264 -1.92803,-3.60255 -1.2268,-6.54055 2.01863,-8.45767 3.0653,-1.81072 8.62624,-1.54468 7.45126,0.35647 -0.3129,0.50628 0.3437,1.40892 1.4591,2.00587 2.81577,1.50695 2.57932,5.59955 -0.48773,8.44199 l -2.51573,2.33151 2.26573,0.60709 c 7.4189,1.98785 15.588906,-0.42819 18.786026,-5.55542 l 2.06408,-3.31018 -0.68007,3 c -0.89818,3.96213 -2.24244,5.53315 -6.12218,7.1549 -3.138036,1.31173 -9.819036,1.61253 -13.727856,0.61808 z m -4.55426,-6.832 c 0,-0.24254 -0.70156,-0.44098 -1.55902,-0.44098 -0.85746,0 -1.27636,0.45734 -0.9309,1.01631 0.57081,0.92358 2.48992,0.48015 2.48992,-0.57533 z m 4,-4.60765 c 0,-1.13837 -0.72459,-1.83333 -1.91152,-1.83333 -1.28144,0 -1.80109,0.57683 -1.57651,1.75 0.40666,2.12432 0.19128,1.91667 1.98803,1.91667 0.825,0 1.5,-0.825 1.5,-1.83334 z m -57.4742,0.66667 c 3.32757,-16.28795 21.50961,-28.97708 29.08691,-20.29957 l 1.88729,2.16133 -2.47251,-1.68088 c -7.46804,-5.07699 -19.43723,2.55846 -26.19762,16.71211 -1.78811,3.74362 -2.67978,4.94602 -2.30407,3.10701 z m 46.51334,-6.32692 c -0.0526,-3.1267 5.12398,-8.17308 8.38394,-8.17308 1.41731,0 2.57692,-0.41968 2.57692,-0.93261 0,-3.48838 10.46706,-0.66462 14.499996,3.91175 1.64824,1.87034 1.13015,1.72 -2.945776,-0.85482 -4.74822,-2.99952 -9.34432,-4.21175 -8.05422,-2.12432 0.35129,0.56839 -0.50032,1 -1.9731,1 -4.68721,0 -9.49983,2.71306 -11.02029,6.21257 -1.23474,2.84188 -1.43363,2.97206 -1.46747,0.96051 z m 30.039806,-5.58975 c -0.0434,-1.05416 0.19292,-1.64479 0.52522,-1.3125 0.33229,0.33229 0.36782,1.1948 0.0789,1.91667 -0.31923,0.79773 -0.55619,0.56078 -0.60417,-0.60417 z m -30.999996,-6.76075 c -0.2014,-4.27915 11.25616,-8.59925 19.5199,-7.36003 3.04944,0.45729 5.568596,1.66705 7.714596,3.70474 l 3.18655,3.02571 -3.5,-2.3465 c -4.836066,-3.24224 -15.601466,-3.28874 -21.657756,-0.0935 -2.28676,1.20646 -4.38873,2.7681 -4.67105,3.4703 -0.33113,0.82362 -0.54131,0.68142 -0.59224,-0.40068 z"
       id="path3087"
       style="fill:#000000" />
  </g>
</svg>
