<?xml version="1.0" encoding="UTF-8" standalone="no"?>
<!-- Created with Inkscape (http://www.inkscape.org/) -->

<svg
   xmlns:dc="http://purl.org/dc/elements/1.1/"
   xmlns:cc="http://creativecommons.org/ns#"
   xmlns:rdf="http://www.w3.org/1999/02/22-rdf-syntax-ns#"
   xmlns:svg="http://www.w3.org/2000/svg"
   xmlns="http://www.w3.org/2000/svg"
   version="1.1"
   width="744.09448"
   height="1052.3622"
   id="svg2">
  <defs
     id="defs4" />
  <metadata
     id="metadata7">
    <rdf:RDF>
      <cc:Work
         rdf:about="">
        <dc:format>image/svg+xml</dc:format>
        <dc:type
           rdf:resource="http://purl.org/dc/dcmitype/StillImage" />
        <dc:title></dc:title>
      </cc:Work>
    </rdf:RDF>
  </metadata>
  <g
     id="layer1">
    <path
       d="m 226.43108,1035.8337 c -0.90248,-1.0875 -0.65045,-1.3696 1.23967,-1.3878 3.43785,-0.033 16.84656,-3.7812 13.87244,-3.8778 -1.375,-0.045 -7,1.0948 -12.5,2.5321 -13.77034,3.5984 -14.5,3.7314 -14.5,2.6434 0,-1.02 2.92177,-2.0174 15.57907,-5.3185 9.38984,-2.449 34.42093,-3.9747 34.42093,-2.0982 0,0.6499 -1.61584,1.149 -3.75,1.1584 -2.0625,0.01 -10.38285,1.7484 -18.48967,3.8649 -12.28401,3.2072 -14.92839,3.621 -15.87244,2.4835 z m -31.13789,-15.8118 c -1.5125,-0.789 -2.75,-1.0112 -2.75,-0.4938 0,0.5173 -0.45,0.9407 -1,0.9407 -0.55,0 -1.00689,-1.6875 -1.01531,-3.75 -0.008,-2.0625 -0.37808,-4.3216 -0.82145,-5.0202 -1.42656,-2.2476 0.87088,-14.51024 3.20287,-17.09537 2.06837,-2.2929 2.41022,-2.33895 11.13389,-1.5 16.23178,1.561 43.92765,1.06241 54.78707,-0.98629 5.38289,-1.01552 10.88293,-1.57135 12.22232,-1.23519 4.22986,1.06163 6.49061,4.44601 6.49061,9.71655 0,2.6138 0.45,5.0305 1,5.3705 0.55,0.3399 0.99311,1.6039 0.98469,2.809 -0.0117,1.6761 -0.22539,1.8591 -0.90921,0.7788 -0.69169,-1.0926 -0.99673,-0.8664 -1.3485,1 -0.36889,1.9573 -0.4803,1.8036 -0.5908,-0.8148 -0.0955,-2.2639 -0.89756,-3.7258 -2.68753,-4.8986 -3.46625,-2.2712 -4.66177,-0.8496 -5.24992,6.2427 l -0.47165,5.6874 3.38646,-0.6351 c 2.97313,-0.5576 3.14235,-0.4847 1.38646,0.5977 -1.41492,0.8722 -8.87469,1.2803 -25.5,1.395 -17.21164,0.1188 -25.45752,0.5871 -30.81538,1.75 -9.07713,1.9703 -17.81773,2.0277 -21.43462,0.141 z m 18.16799,-0.8498 c 3.5299,-0.6619 6.57765,-1.6841 6.77278,-2.2717 0.62132,-1.8709 -4.0865,-7.7429 -6.97439,-8.6991 -3.98336,-1.3188 -5.94066,0.555 -5.12442,4.9059 0.87186,4.6474 -0.12619,4.2029 -2.47243,-1.1011 -2.04916,-4.6325 -4.16891,-5.8415 -9.16183,-5.2257 -4.06342,0.5012 -5.09244,1.5954 -4.57689,4.8666 0.60417,3.8335 3.12784,6.6114 7.03786,7.7467 4.21933,1.2251 7.01062,1.1824 14.49932,-0.2216 z m 17.6638,-2.7033 c 4.7953,0 5.41821,-0.2357 5.41821,-2.0497 0,-6.0816 -5.43257,-10.2342 -10.89043,-8.3246 -2.31306,0.8093 -2.64442,1.522 -2.91629,6.2724 -0.26463,4.6238 -0.0818,5.2731 1.33178,4.7306 0.90118,-0.3458 4.07671,-0.6287 7.05673,-0.6287 z m 22.41821,-0.9349 c 0,-4.4837 -5.1985,-11.0651 -8.74006,-11.0651 -4.77314,0 -6.25994,1.6709 -6.25994,7.0351 l 0,4.9649 7.5,0 c 4.125,0 7.5,-0.4208 7.5,-0.9349 z m 13,-1.6148 c 0,-3.3251 -2.46631,-8.0316 -4.64736,-8.8685 -2.00301,-0.7686 -6.35264,3.6763 -6.35264,6.4919 0,0.9695 -0.27314,2.4745 -0.60699,3.3445 -0.51266,1.3359 0.34207,1.5818 5.5,1.5818 5.87917,0 6.10699,-0.095 6.10699,-2.5497 z m -62.11653,-8.7003 c -0.11232,-0.6875 0.31796,-2.5168 0.95616,-4.0651 0.6382,-1.54835 1.16037,-3.23585 1.16037,-3.75005 0,-0.51419 0.45,-0.9349 1,-0.9349 0.55,0 1,1.2949 1,2.87756 0,3.24499 1.29901,4.65739 5.1791,5.63129 2.49991,0.6274 2.72486,0.3963 3.57221,-3.6696 0.49736,-2.38661 0.82937,-4.45416 0.7378,-4.59461 -0.42302,-0.64881 -21.89411,-3.02646 -23.1115,-2.5593 -1.62001,0.62166 -1.82393,5.61218 -0.34243,8.38041 0.75624,1.413 2.10356,1.9343 5,1.9343 2.18065,0 3.96482,0.45 3.96482,1 0,0.55 0.24473,1 0.54384,1 0.29911,0 0.45194,-0.5625 0.33963,-1.25 z m 22.76373,-0.9394 c 2.75687,-0.9969 5.3528,-4.6147 5.3528,-7.45987 0,-0.19293 -2.65186,-0.35078 -5.89301,-0.35078 -4.31574,0 -6.04707,0.40148 -6.46862,1.5 -0.61648,1.60652 0.0692,4.22085 1.63931,6.25005 1.18606,1.5328 1.29476,1.534 5.36952,0.061 z m 31.16288,-6.56547 c -0.17054,-2.05985 -0.78209,-3.66284 -1.359,-3.56221 -0.5769,0.10064 -5.8644,0.72484 -11.75,1.38711 -11.69417,1.31589 -12.75796,2.16821 -8.80267,7.05277 1.85874,2.2955 1.97208,2.3093 5.42355,0.6634 2.20034,-1.0492 3.64783,-2.5169 3.85159,-3.90529 0.52057,-3.54698 2.6513,-3.40003 3.00856,0.20749 0.33896,3.4226 3.68144,6.4934 4.52979,4.1616 0.673,-1.8499 2.2881,-1.5164 2.2881,0.4725 0,1.4142 0.27916,1.3239 1.56008,-0.5049 0.93036,-1.3282 1.43491,-3.73902 1.25,-5.97247 z m 14.8104,-1.09756 c 0.52897,-2.64488 0.28235,-3.1339 -1.85041,-3.66919 -1.35339,-0.33968 -4.21782,-0.47379 -6.36539,-0.29802 -3.77127,0.30867 -3.89914,0.43917 -3.74257,3.81959 0.0892,1.925 0.20166,3.79605 0.25,4.15795 0.0483,0.3619 1.54368,1.5082 3.32298,2.5473 l 3.23508,1.8894 2.26999,-2.6977 c 1.2485,-1.4837 2.54464,-4.07095 2.88032,-5.74933 z m -81.01631,5.12323 c -0.3323,-0.3323 -0.56864,0.2583 -0.52522,1.3125 0.048,1.1649 0.28494,1.4019 0.60416,0.6042 0.28887,-0.7219 0.25335,-1.5844 -0.0789,-1.9167 z m -96.604173,15.7292 c 0,-0.55 0.64296,-1 1.4288,-1 2.26871,0 8.571203,-6.5208 8.571203,-8.8681 0,-1.1726 0.45857,-2.1319 1.01905,-2.1319 1.28653,0 0.18875,4.6906 -1.82574,7.8011 -2.28721,3.5315 -9.193313,6.6858 -9.193313,4.1989 z m -32.34954,-12.5272 c -8.54909,-1.7267 -13.65046,-3.3845 -13.65046,-4.4361 0,-0.4444 3.2625,0.095 7.25,1.1995 4.21315,1.1666 10.70448,2.0612 15.49704,2.1356 4.99342,0.078 8.11858,0.5227 7.9214,1.1282 -0.49837,1.5304 -9.37628,1.5162 -17.01798,-0.027 z m -45.57151,-6.56786 c -0.0434,-1.42726 0.70855,-3.2979 1.67105,-4.15698 3.87074,-3.45482 10.04619,-4.04579 42.75,-4.09107 28.38665,-0.0393 32.36698,0.14985 35.25,1.67506 4.203483,2.22378 4.189713,2.95858 -0.0225,1.19862 -2.5776,-1.07699 -10.2749,-1.32635 -36.25,-1.17434 -29.35916,0.17181 -33.43788,0.39182 -37.17313,2.00517 -2.72557,1.17724 -4.53738,2.74529 -5.17106,4.47537 l -0.97541,2.66323 -0.079,-2.59506 z M 281.26352,988.18442 c -0.94618,-5.10638 -1.72033,-10.05638 -1.72033,-11 0,-0.94362 -0.12616,-1.71567 -0.28036,-1.71567 -0.1542,0 -3.87646,1.51665 -8.27171,3.37033 -8.65003,3.64812 -17.44793,5.92145 -17.44793,4.50844 0,-0.48332 0.93391,-0.87877 2.07536,-0.87877 1.14145,0 6.67917,-1.8 12.30605,-4 5.62688,-2.2 10.90282,-4 11.72431,-4 1.10192,0 1.82531,2.16353 2.75843,8.25 0.69564,4.5375 1.51186,9.7125 1.81383,11.5 0.30196,1.7875 0.14709,3.25 -0.34415,3.25 -0.49124,0 -1.66731,-4.17795 -2.6135,-9.28433 z m -84.16512,-6.2901 c -3.81963,-1.33407 -7.75713,-2.42557 -8.75,-2.42557 -0.99286,0 -1.80521,-0.675 -1.80521,-1.5 0,-0.825 0.21962,-1.5 0.48804,-1.5 2.06802,0 19.51196,6.30007 19.51196,7.04695 0,1.3817 -1.66471,1.09592 -9.44479,-1.62138 z M 59.203167,974.1419 c -2.112,-0.64523 -3.53538,-1.47478 -3.16305,-1.84343 0.37233,-0.36865 2.77534,-0.06 5.34002,0.68594 2.56468,0.74592 6.01305,1.54262 7.66305,1.77045 2.09194,0.28885 1.63791,0.43632 -1.5,0.48721 -2.475,0.0401 -6.22801,-0.45494 -8.34002,-1.10017 z m 168.930823,-1.48332 c 2.79994,-0.99243 6.76316,-2.79114 8.80716,-3.99712 4.29949,-2.53677 5.31569,-2.75754 3.693,-0.80231 -1.47356,1.77554 -9.54435,5.21097 -14.09096,5.998 -2.65238,0.45913 -2.26712,0.16887 1.5908,-1.19857 z m -21.24232,-1.75044 c -1.40833,-1.40833 -2.30111,-2.82009 -1.98396,-3.13724 0.31715,-0.31716 1.89543,0.83512 3.50727,2.5606 3.49801,3.74463 2.1536,4.25355 -1.52331,0.57664 z M 88.799497,967.46939 c -2.33402,-0.49181 -5.03402,-1.40212 -6,-2.02292 -1.57072,-1.00946 -1.54497,-1.05169 0.24369,-0.39964 2.88388,1.0513 15.04276,1.7535 17.908493,1.03424 2.65216,-0.66565 8.59151,-5.2629 8.59151,-6.65011 0,-0.47301 -2.51633,-1.65321 -5.59185,-2.62268 -5.369933,-1.69273 -5.631933,-1.69103 -6.602123,0.0426 -0.55566,0.99289 -2.57464,2.4589 -4.48664,3.25778 -3.15645,1.31885 -3.76822,1.28207 -6.64788,-0.39975 -2.19162,-1.27997 -3.17151,-2.60736 -3.17151,-4.29621 0,-2.75032 -2.13989,-3.62894 -9.31739,-3.82563 -3.95672,-0.10844 -4.26154,0.0576 -3.64888,1.98796 0.57418,1.80908 0.41247,1.96299 -1.14612,1.09076 -1.40903,-0.78853 -2.44761,-0.48289 -4.64659,1.36742 -3.72937,3.13806 -10.11223,4.80321 -14.65025,3.82193 -3.55904,-0.7696 -3.54217,-0.78163 1.90923,-1.36229 6.74074,-0.71798 14,-4.44047 14,-7.17909 0,-1.68074 -6.19066,-0.832 -7.83971,1.07482 -2.61909,3.0285 -7.29703,3.53307 -9.93869,1.072 -1.22188,-1.13836 -2.2216,-2.67096 -2.2216,-3.40578 0,-0.73483 -1.2375,-1.58579 -2.75,-1.89102 -1.5125,-0.30523 -3.5375,-0.85963 -4.5,-1.23199 -1.27704,-0.49405 -1.75859,-0.17515 -1.7818,1.17997 -0.0307,1.79143 -0.0805,1.79274 -1.41126,0.0372 -1.33392,-1.7597 -1.4144,-1.7597 -2.43779,0 -0.98764,1.69822 -1.06036,1.67983 -1.08874,-0.27524 -0.0571,-3.93362 5.45751,-6.90832 14.75743,-7.96049 3.62383,-0.40999 6.19328,-0.28406 6.56778,0.32189 0.36975,0.59827 -1.67287,1.18584 -5.12023,1.47285 -3.15446,0.26263 -7.08539,1.0473 -8.73539,1.74371 l -3,1.2662 5.46604,1.28089 c 4.6774,1.09608 6.02287,1.05808 9.3255,-0.26337 3.56329,-1.42574 3.98796,-1.41025 5.53396,0.20186 1.57847,1.64598 1.53113,1.70484 -0.8255,1.0264 -1.77841,-0.51198 -2.20507,-0.40678 -1.47819,0.36449 0.562,0.59631 4.26152,1.3853 8.22117,1.75331 7.15368,0.66486 7.20588,0.65197 8.22632,-2.03198 0.56483,-1.48561 1.42027,-2.45801 1.901,-2.16091 0.48072,0.2971 3.72266,-2.66502 7.20431,-6.5825 3.48165,-3.91748 6.48773,-6.65032 6.68018,-6.07298 0.19244,0.57733 -3.01345,4.57904 -7.12421,8.89267 -5.40363,5.67031 -7.10411,8.05115 -6.13846,8.59447 0.73461,0.41332 5.3119,0.79434 10.17176,0.8467 4.85987,0.0523 9.06112,0.41269 9.33612,0.80074 0.6979,0.9848 17.177043,5.25735 17.815393,4.619 0.28653,-0.28652 -0.04,-1.56908 -0.72558,-2.85013 -1.33825,-2.50054 -5.63202,-5.39396 -9.932453,-6.69312 -2.45638,-0.74207 -2.48476,-0.80929 -0.37524,-0.88874 5.305673,-0.19983 13.152453,5.39532 13.469513,9.60445 0.25266,3.35412 -3.20928,9.23634 -6.41017,10.89159 -3.77935,1.95437 -11.924293,2.61145 -17.585153,1.41865 z m -2.87475,-12.55258 c 0.34149,-0.88992 0.17385,-1.29132 -0.39301,-0.94098 -0.5437,0.33602 -0.98855,1.0344 -0.98855,1.55194 0,1.43843 0.71677,1.12146 1.38156,-0.61096 z m -31.07254,-3.37916 c 0.44496,-0.0379 0.5309,-0.5189 0.19098,-1.0689 -0.33992,-0.55 -2.05398,-0.96447 -3.80902,-0.92105 -1.75504,0.0434 -2.57756,0.32289 -1.82783,0.62105 1.14413,0.455 1.14572,0.67648 0.01,1.37842 -0.852,0.52657 -0.24575,0.69245 1.63685,0.44785 1.64453,-0.21366 3.35411,-0.41947 3.79906,-0.45737 z m 159.699843,13.64124 c -1.37013,-0.69321 -2.64913,-2.08072 -2.84222,-3.08338 -0.31504,-1.63586 -0.0398,-1.59283 2.68165,0.4192 2.53652,1.87533 3.8045,2.13641 7.74954,1.59569 2.59424,-0.35559 6.67101,-1.73874 9.05949,-3.07369 4.46822,-2.49733 5.72284,-2.12696 2.54303,0.75072 -2.4045,2.17605 -9.70315,4.68485 -13.57608,4.66658 -1.71835,-0.008 -4.24528,-0.58191 -5.61541,-1.27512 z m -29.75038,-7.41476 c -3.15757,-0.60891 -7.87461,-5.62603 -8.5731,-9.11849 -0.8834,-4.41699 0.89565,-9.38909 4.92413,-13.76198 l 3.60657,-3.91491 -2.68924,3.78974 c -3.66094,5.15907 -4.71749,9.28851 -3.51713,13.74631 1.17464,4.36228 3.53966,6.68397 8.67409,8.51514 3.63162,1.2952 2.39679,1.67409 -2.42532,0.74419 z m 29.99152,-0.51588 c -1.2375,-0.59682 -2.25,-1.46636 -2.25,-1.93231 0,-1.12489 0.14886,-1.10076 4.54727,0.73701 2.08533,0.8713 4.82667,1.38631 6.09186,1.14445 1.26519,-0.24185 2.06241,-0.0547 1.77159,0.41581 -0.73473,1.18881 -7.43827,0.94804 -10.16072,-0.36496 z m 18.97179,-3.24922 c -2.35302,-0.73477 -5.81049,-2.50466 -7.68328,-3.93311 -1.87279,-1.42844 -3.86273,-2.59717 -4.4221,-2.59717 -0.55937,0 -1.45615,-0.78467 -1.99286,-1.7437 -0.89881,-1.60609 -1.19869,-1.5469 -3.79969,0.75 l -2.82386,2.4937 2.33568,-2.65565 c 2.05016,-2.33102 2.1796,-2.94223 1.0589,-5 l -1.27677,-2.34435 -0.64933,3.08729 c -0.84061,3.99679 -1.75517,5.41271 -3.49611,5.41271 -0.9039,0 -1.18051,-0.59699 -0.77105,-1.66404 0.4533,-1.18128 0.26904,-1.43568 -0.63511,-0.87688 -0.77403,0.47838 -0.63571,-0.18647 0.35259,-1.69481 1.43574,-2.19122 1.45183,-2.62675 0.13735,-3.71767 -2.35937,-1.95811 -3.82051,-0.7637 -4.25574,3.47884 -0.29828,2.90755 0.0493,4.25713 1.33952,5.20054 1.60436,1.17313 1.56712,1.27402 -0.47024,1.27402 -1.38965,0 -2.63622,-0.92982 -3.35164,-2.5 -1.83668,-4.03106 -4.48166,-3.10806 -3.86965,1.35035 0.10195,0.7427 -0.29473,1.05364 -0.88152,0.69099 -0.58678,-0.36266 -1.06688,-1.17113 -1.06688,-1.79661 0,-1.92196 5.1881,-8.74473 6.64957,-8.74473 0.75766,0 2.23812,-0.53742 3.28991,-1.19427 1.48464,-0.92718 2.50687,-0.92339 4.57071,0.017 l 2.65837,1.21123 -2.35021,-4.26696 c -1.40467,-2.55028 -3.84774,-5.0716 -6.07246,-6.26696 -6.34716,-3.41039 -5.68519,-4.65827 2.02565,-3.81857 3.70066,0.403 7.69799,0.75204 8.88297,0.77565 1.18498,0.0236 2.00159,0.29035 1.81468,0.59277 -0.1869,0.30241 0.45607,1.04689 1.42883,1.65439 1.30685,0.81614 1.80306,0.80312 1.90045,-0.0498 1.49671,-13.10834 5.43771,-30.89979 6.9568,-31.40615 1.66058,-0.55353 1.58559,2.38809 -0.32508,12.75176 -2.24566,12.18071 -3.17116,20 -2.36724,20 1.18464,0 8.22945,-7.29829 12.5832,-13.03594 6.58824,-8.68243 16.80151,-19.31506 18.12655,-18.87083 0.68936,0.23112 -1.66542,3.42951 -5.45317,7.40677 -9.76182,10.25025 -14.22792,16.20447 -17.59599,23.45902 -1.64931,3.55247 -3.61182,7.07211 -4.36114,7.82143 -0.74932,0.74932 -1.3624,1.625 -1.3624,1.94596 0,0.63891 1.00816,-0.15774 8.58224,-6.7817 4.4204,-3.86589 21.71163,-16.35496 29.57516,-21.36148 1.50547,-0.9585 2.90845,-1.2857 3.23655,-0.75482 0.31854,0.5154 -3.01479,3.29659 -7.4074,6.18041 -4.3926,2.88383 -7.98655,5.6366 -7.98655,6.11726 0,0.48065 -0.5625,0.88393 -1.25,0.89616 -0.6875,0.0122 -2.375,0.90222 -3.75,1.97776 l -2.5,1.95553 3.5,0.12191 c 1.925,0.067 4.625,0.47347 6,0.90315 1.47052,0.45952 -0.38256,0.59051 -4.5,0.31809 l -7,-0.46315 -8.5,7.41886 c -4.675,4.08038 -9.1362,8.61301 -9.91378,10.07252 -1.25926,2.36362 -1.21855,2.86939 0.37246,4.62744 2.26921,2.50744 8.81379,5.01768 15.68894,6.01765 l 5.35238,0.77849 -5,0.0579 c -2.75,0.0318 -6.92519,-0.54331 -9.27821,-1.27807 z m -12.89291,-23.28028 c -0.66478,-1.91232 -3.19281,-4.25 -4.59607,-4.25 -1.02086,0 3.40198,5.86122 4.48581,5.94467 0.39523,0.0304 0.44485,-0.73217 0.11026,-1.69467 z m -8.32888,-4.25 c 0,-0.55 -0.45,-1 -1,-1 -0.55,0 -1,0.45 -1,1 0,0.55 0.45,1 1,1 0.55,0 1,-0.45 1,-1 z m 36.73097,27.34406 c 0.67703,-0.27392 2.02703,-0.29059 3,-0.0371 0.97297,0.25355 0.41903,0.47767 -1.23097,0.49805 -1.65,0.0204 -2.44606,-0.18707 -1.76903,-0.46099 z m 5.53986,-0.94823 c 0.33229,-0.33229 1.19479,-0.36782 1.91667,-0.0789 0.79773,0.31923 0.56078,0.55619 -0.60417,0.60417 -1.05416,0.0434 -1.64479,-0.19293 -1.3125,-0.52522 z m -9.71727,-3.64583 c -1.05467,-3.43609 -1.444,-10.80032 -0.5415,-10.24254 0.54337,0.33581 0.98794,1.24149 0.98794,2.0126 0,0.77112 0.96469,2.30077 2.14375,3.39924 1.73061,1.61231 2.54966,1.78757 4.25,0.90941 2.1057,-1.0875 2.10573,-1.08726 0.10625,0.89746 -1.1,1.09188 -2.675,1.75894 -3.5,1.48235 -1.19839,-0.40176 -1.25411,-0.23745 -0.27713,0.81718 0.97276,1.05005 1.7909,1.07683 4,0.13092 2.57099,-1.10085 2.63304,-1.07657 0.836,0.32713 -2.34579,1.83234 -7.47229,2.00284 -8.00531,0.26625 z m -77.47461,-5.16667 c -0.0434,-1.05416 0.19292,-1.64479 0.52522,-1.3125 0.33229,0.33229 0.36781,1.1948 0.0789,1.91667 -0.31922,0.79773 -0.55618,0.56078 -0.60416,-0.60417 z m 119.65228,-0.18544 c -0.39263,-0.39263 -0.25251,-1.26979 0.31139,-1.94924 0.56389,-0.67945 1.41068,-3.19586 1.88176,-5.59201 l 0.85649,-4.35664 0.10956,4.55887 c 0.10721,4.46065 -1.74193,8.7563 -3.1592,7.33902 z m -185.25116,-4.4187 c -1.59177,-1.66144 -5.275963,-4.66124 -8.187093,-6.66621 -5.351,-3.68537 -5.96905,-4.69728 -4.39084,-7.18888 0.69905,-1.10362 1.74845,-0.77256 5.30272,1.67284 8.187143,5.6329 14.010573,11.53937 13.263943,13.45306 -0.98609,2.5274 -2.69782,2.16417 -5.98873,-1.27081 z m 67.15185,0.0208 c 0.34933,-1.375 0.97817,-3.41849 1.39743,-4.5411 0.89811,-2.40473 3.97065,-5.22169 3.97065,-3.64036 0,0.58488 -0.49031,1.36646 -1.08958,1.73683 -0.59928,0.37037 -1.95,2.53442 -3.00161,4.80901 -1.05162,2.27459 -1.62622,3.01062 -1.27689,1.63562 z m 89.44703,0.94113 c -0.0434,-0.85738 -0.71142,-2.42382 -1.48443,-3.48098 -1.30414,-1.78352 -1.36978,-1.70717 -0.91025,1.05887 l 0.49523,2.98098 -2.07505,-3.25 c -1.14128,-1.7875 -2.75667,-3.25 -3.58975,-3.25 -0.83309,0 -1.5147,-0.47656 -1.5147,-1.05902 0,-0.58246 -0.51953,-0.73793 -1.15451,-0.34549 -0.66719,0.41235 -0.88482,0.27716 -0.51558,-0.32027 3.08542,-4.99232 13.5866,2.34852 11.34667,7.93187 -0.36365,0.90647 -0.54228,0.82698 -0.59763,-0.26596 z m 21.36435,-1.16364 c 1.9769,-2.82242 1.99444,-8.03031 0.0398,-11.81022 -2.1824,-4.22025 -6.84881,-6.2663 -15.9831,-7.00801 l -8,-0.6496 8.34887,-0.15483 c 9.72885,-0.18042 14.35966,1.49996 17.26545,6.26514 2.4203,3.969 2.38441,8.24979 -0.10336,12.33003 -1.08986,1.7875 -2.23869,3.25 -2.55297,3.25 -0.31427,0 0.12912,-1.00013 0.98531,-2.22251 z m -32.4433,-1.77749 c 1.93876,-1.25292 3,-1.25292 3,0 0,0.55 -1.0125,0.99311 -2.25,0.98469 -1.81944,-0.0124 -1.96296,-0.20082 -0.75,-0.98469 z M 37.112507,936.70472 c -1.80245,-1.80245 0.56983,-3.79058 10.41402,-8.72763 6.04084,-3.02959 11.21584,-5.50835 11.5,-5.50835 1.51471,0 0.19664,3.97779 -1.73334,5.23101 -4.11634,2.67295 -19.60251,9.58314 -20.18068,9.00497 z M 207.30236,918.56796 c -8.64191,-4.80446 -10.06131,-6.24863 -2.25917,-2.29861 5.3706,2.71899 10.81342,6.20868 9.5,6.09097 -0.275,-0.0246 -3.53338,-1.73121 -7.24083,-3.79236 z"
       id="path3100"
       style="fill:#000000" />
  </g>
</svg>
