<?xml version="1.0" encoding="UTF-8" standalone="no"?>
<!-- Created with Inkscape (http://www.inkscape.org/) -->

<svg
   xmlns:dc="http://purl.org/dc/elements/1.1/"
   xmlns:cc="http://creativecommons.org/ns#"
   xmlns:rdf="http://www.w3.org/1999/02/22-rdf-syntax-ns#"
   xmlns:svg="http://www.w3.org/2000/svg"
   xmlns="http://www.w3.org/2000/svg"
   version="1.1"
   width="744.09448"
   height="1052.3622"
   id="svg2">
  <defs
     id="defs4" />
  <metadata
     id="metadata7">
    <rdf:RDF>
      <cc:Work
         rdf:about="">
        <dc:format>image/svg+xml</dc:format>
        <dc:type
           rdf:resource="http://purl.org/dc/dcmitype/StillImage" />
        <dc:title></dc:title>
      </cc:Work>
    </rdf:RDF>
  </metadata>
  <g
     id="layer1">
    <path
       d="m 233.32081,652.65932 c -17.03474,-5.44879 -31.43507,-15.84484 -41.92468,-30.26674 -15.18238,-20.87388 -21.04735,-42.2365 -16.08298,-58.58065 3.28665,-10.82055 7.27317,-15.88772 15.85714,-20.1556 5.73166,-2.84973 7.34013,-4.14782 7.82452,-6.31466 0.93766,-4.19446 -0.26791,-6.44581 -4.32703,-8.08056 -4.6813,-1.88533 -7.55772,-4.95792 -10.17014,-10.86375 -3.31674,-7.49803 -3.52721,-12.40552 -1.02526,-23.90574 3.91584,-17.99919 1.99471,-30.38506 -9.06174,-58.42242 -5.57938,-14.14843 -6.97545,-21.62251 -4.95153,-26.5087 1.88162,-4.54262 11.51019,-12.66908 17.28254,-14.58634 6.87235,-2.28263 12.51042,-1.38737 22.11878,3.51219 21.63907,11.03436 59.535,44.43946 72.76356,64.14076 6.18119,9.20565 18.10062,31.0859 24.86969,45.65275 2.35405,5.06587 4.65849,8.97681 5.12096,8.69099 0.46247,-0.28583 0.84086,-2.0506 0.84086,-3.92171 0,-3.64085 3.07951,-7.47994 6,-7.47994 2.92049,0 6,3.83909 6,7.47994 0,5.71303 1.59455,4.83001 4.96328,-2.74853 4.76856,-10.72769 19.42076,-38.03591 24.53892,-45.73472 7.15349,-10.76039 18.10698,-22.54245 33.93006,-36.49669 29.00236,-25.57695 46.37347,-35.75793 58.23685,-34.13188 5.66872,0.77699 8.82189,2.46963 15.07677,8.0933 9.20828,8.27904 9.32158,13.41366 0.78415,35.53858 -10.67415,27.66227 -12.40367,39.19475 -8.54083,56.95029 2.4956,11.47104 2.28338,16.38443 -1.03133,23.87787 -2.58856,5.85187 -5.01841,8.44446 -10.03425,10.70629 -2.4982,1.12653 -4.18388,2.65436 -4.55352,4.12712 -1.1802,4.70232 0.3193,6.69411 7.86955,10.4531 8.57842,4.27088 12.59235,9.37568 15.9225,20.24982 5.0335,16.4362 -1.23697,38.59713 -16.75531,59.21618 -9.01165,11.97367 -16.32533,17.99788 -29.75193,24.50636 -16.38372,7.94193 -18.81759,8.16168 -32.07919,2.89646 -13.08737,-5.19604 -21.72301,-11.54573 -28.92678,-21.26955 -9.59052,-12.9455 -27.26357,-38.16649 -28.17903,-40.21394 -0.62589,-1.39981 -1.05565,1.17367 -1.43208,8.57559 -0.46385,9.121 -0.88169,11.08004 -3.03783,14.24317 -1.375,2.01717 -2.725,3.66757 -3,3.66757 -0.275,0 -1.625,-1.6504 -3,-3.66757 -2.15614,-3.16313 -2.57398,-5.12217 -3.03783,-14.24317 -0.37308,-7.33595 -0.80847,-9.96293 -1.4213,-8.57559 -1.55393,3.51777 -32.22493,45.89853 -35.18809,48.6224 -5.53196,5.08521 -11.55269,8.77798 -18.66397,11.44738 -3.95384,1.48418 -8.60682,3.31314 -10.33994,4.06437 -4.06738,1.763 -6.58909,1.66125 -13.48357,-0.54403 z m 8.13469,-5.63978 c 0,-0.30231 -0.68656,-1.87731 -1.52568,-3.5 -1.66625,-3.22217 -4.48932,-3.84212 -6.49438,-1.42617 -1.50776,1.81674 -0.88676,2.58787 3.34183,4.14975 3.70949,1.37015 4.67823,1.53093 4.67823,0.77642 z m 160.75001,-1.57202 c 2.52831,-0.93134 2.81004,-1.91828 1.05,-3.67832 -2.12637,-2.12637 -4.5516,-1.28618 -6.67483,2.31243 l -2.07238,3.51243 2.7236,-0.65886 c 1.49799,-0.36237 3.73611,-1.03182 4.97361,-1.48768 z m -135.78517,-9.64877 2.44576,-1.98046 -3.18664,-0.6999 c -1.97693,-0.43421 -4.68147,-2.39811 -7.12429,-5.1733 l -3.93763,-4.47339 -1.13784,5.48091 c -0.83254,4.01032 -0.8441,6.57171 -0.0431,9.54638 l 1.09472,4.06548 4.72164,-2.39263 c 2.5969,-1.31595 5.82223,-3.28384 7.16739,-4.37309 z m 117.05344,2.7026 c 0.8041,-2.9862 0.78924,-5.54237 -0.0559,-9.61329 l -1.15123,-5.54546 -3.08484,3.74245 c -1.69666,2.05835 -4.81749,4.51818 -6.93518,5.46629 -3.15337,1.41181 -3.59589,1.93502 -2.44465,2.89047 1.19507,0.99182 11.7422,7.05592 12.36497,7.10927 0.1163,0.01 0.70436,-1.81241 1.30681,-4.04973 z m -155.20644,0.80637 c 0.28493,-1.47954 -0.45818,-1.73228 -4.98852,-1.6966 l -5.32332,0.0419 3.5,1.92916 c 4.08605,2.25219 6.34276,2.16126 6.81184,-0.27447 z m 187.18817,0.26148 3.5,-1.91617 -5.25,-0.0419 c -3.72929,-0.0298 -5.25,0.34429 -5.25,1.29141 0,3.15887 2.08512,3.35745 7,0.66667 z m -168.33912,-6.67244 c -0.26928,-0.26928 -1.44638,0.0224 -2.61578,0.6483 l -2.12619,1.1379 2.29054,1.86782 c 2.27168,1.85243 2.29322,1.84709 2.61578,-0.6483 0.17889,-1.38387 0.10493,-2.73644 -0.16435,-3.00572 z m 145.59676,0.92244 c -2.52347,-1.92349 -3.25764,-1.51858 -3.25764,1.79668 l 0,3.04669 2.44877,-1.79669 c 2.21726,-1.62682 2.29373,-1.91485 0.80887,-3.04668 z m -153.5362,-3.79848 c 5.83516,-2.90778 6.66133,-3.73005 8.73548,-8.69421 1.37422,-3.28897 1.3501,-3.77405 -0.2883,-5.79739 -1.74352,-2.15315 -1.87086,-2.16526 -5.11694,-0.48665 -4.21617,2.18027 -8.05169,0.83246 -8.05169,-2.82939 0,-3.12181 2.00943,-4.70133 6.79803,-5.34362 4.17789,-0.56037 9.8687,1.66768 10.86041,4.25203 0.59726,1.55644 3.34156,2.02414 3.34156,0.56949 0,-0.48302 2.58444,-2.62052 5.74321,-4.75 6.76547,-4.56094 8.17167,-5.80283 10.5002,-9.27335 2.16647,-3.22897 2.27034,-9.91993 0.19989,-12.87592 -1.73159,-2.47219 -4.4433,-2.98332 -4.4433,-0.83752 0,1.94773 -4.41333,4.61501 -7.63608,4.61501 -1.48854,0 -3.52937,-0.74474 -4.53518,-1.65499 -2.03712,-1.84357 -2.43244,-6.34131 -0.70885,-8.0649 1.87559,-1.87559 -5.48788,-3.3482 -11.26429,-2.25272 -6.15564,1.16739 -7.98248,2.14625 -11.24774,6.02679 -3.73404,4.43765 -3.4841,6.94582 0.69214,6.94582 5.65873,0 7.74103,4.457 3.47749,7.4433 -3.49603,2.44871 -7.5496,1.93844 -10.85441,-1.36638 -5.1728,-5.17279 -3.51597,-13.07636 3.79074,-18.083 4.19716,-2.87594 2.89752,-3.63709 -3.47175,-2.03329 -15.42796,3.88481 -24.76016,12.91985 -26.85115,25.99614 -0.51226,3.20349 -0.24911,4.02915 1.7248,5.41173 2.85856,2.00221 10.6813,2.10047 13.23442,0.16623 1.94194,-1.47121 1.47365,-3.53473 -0.80217,-3.53473 -1.8762,0 -2.80655,-2.9835 -1.44278,-4.62675 0.62683,-0.75529 2.64377,-1.37325 4.48207,-1.37325 3.69554,0 5.49089,2.17188 5.63148,6.81255 0.0559,1.84443 1.0424,3.31483 3.14492,4.68745 1.68493,1.1 3.7519,3.228 4.59326,4.72888 1.42564,2.54316 1.38507,2.87357 -0.59605,4.85469 -2.70512,2.70512 -5.82461,1.85413 -7.89752,-2.15444 -1.81425,-3.50837 -4.73493,-3.80719 -6.90665,-0.70662 -1.80555,2.57778 -1.95932,5.78774 -0.5247,10.95297 1.26066,4.53886 3.84566,5.63727 13.52166,5.74557 5.65995,0.0633 8.06413,-0.42459 12.16779,-2.46953 z m 180.11587,1.45535 c 2.48666,-0.86686 3.36379,-1.93998 4.23738,-5.18423 2.56114,-9.51137 -3.56686,-17.47294 -7.53804,-9.79351 -2.07291,4.00857 -5.1924,4.85956 -7.89752,2.15444 -1.98112,-1.98112 -2.02169,-2.31153 -0.59605,-4.85469 0.84136,-1.50088 2.95853,-3.62888 4.70482,-4.72888 2.37364,-1.49518 3.19281,-2.75723 3.24538,-5 0.0387,-1.65 0.66812,-3.7875 1.39877,-4.75 1.58682,-2.09038 6.88571,-2.32517 8.50276,-0.37675 1.36377,1.64325 0.43342,4.62675 -1.44278,4.62675 -2.27582,0 -2.74411,2.06352 -0.80217,3.53473 4.32483,3.27649 15.35014,0.83639 15.35014,-3.39726 0,-4.47913 -4.46609,-14.60356 -8.00144,-18.13891 -4.56759,-4.56759 -14.92855,-9.59746 -21.56249,-10.46779 -5.28931,-0.69393 -5.28125,-0.64405 0.61417,3.8005 3.02001,2.27678 4.94976,6.16304 4.94976,9.96816 0,7.39988 -8.04793,12.15701 -13.77749,8.14387 -4.26354,-2.9863 -2.18124,-7.4433 3.47749,-7.4433 4.13439,0 4.32837,-1.96296 0.66818,-6.76171 -3.26811,-4.28471 -8.13979,-6.39147 -14.92054,-6.4524 -6.55926,-0.0589 -7.53091,0.54777 -6.79222,4.2412 0.87134,4.35671 -1.83006,7.97291 -5.95597,7.97291 -3.67111,0 -7.69946,-2.38406 -7.69946,-4.5567 0,-2.195 -2.69057,-1.72316 -4.4433,0.77921 -3.94151,5.6273 -0.47065,15.25243 7.15991,19.85529 2.08087,1.25521 5.49897,3.61124 7.59579,5.23564 3.74745,2.90314 3.83618,2.91945 5.21017,0.95782 2.95507,-4.21896 12.12035,-5.47236 16.06667,-2.19721 2.26439,1.87928 1.73231,5.82232 -0.95062,7.04475 -1.84412,0.84024 -3.09059,0.69883 -5.69031,-0.64553 -3.23193,-1.6713 -3.37894,-1.65967 -5.04594,0.39899 -3.71067,4.58248 1.80036,12.46494 11.01906,15.76061 4.43684,1.58617 14.72433,1.73518 18.91589,0.274 z m -148.53026,-3.47121 c 1.19275,-0.4577 1.26225,-1.11643 0.36783,-3.48603 -1.62892,-4.31549 0.23086,-5.84186 4.58692,-3.7646 l 3.28184,1.56499 5.28471,-7.37902 c 2.90659,-4.05847 5.00771,-7.82722 4.66916,-8.37501 -0.95386,-1.54338 -11.61568,-1.17507 -16.76391,0.57911 -5.89247,2.00777 -13.73361,8.7869 -13.73361,11.87352 0,2.43669 4.20658,7.2651 7.5,8.60869 2.53047,1.03233 3.00541,1.06971 4.80706,0.37835 z m 104.74198,-3.63853 c 1.62303,-1.62304 2.95097,-4.00312 2.95097,-5.28907 0,-3.3677 -8.10794,-10.16566 -14.32756,-12.01269 -5.61842,-1.66849 -16.67245,-2.02258 -16.67245,-0.53406 0,0.52872 2.35507,4.31095 5.23348,8.40494 5.19993,7.39591 5.25081,7.43467 7.93666,6.04577 1.48674,-0.76883 3.40667,-1.12791 4.26651,-0.79795 1.74102,0.66809 2.11665,3.92594 0.56335,4.88593 -1.55468,0.96085 -1.18036,2.31605 0.75,2.7153 3.26051,0.67436 6.33757,-0.45672 9.29904,-3.41817 z m -168.33453,-4.602 0.21452,-5.80089 -3.96452,-1.05819 c -4.43664,-1.18421 -4.62173,-0.84476 -2.41678,4.43242 1.15656,2.76804 5.07165,8.25071 5.87658,8.22954 0.0416,-0.001 0.17222,-2.61239 0.2902,-5.80288 z m 228.40477,-1.69513 c 2.71497,-5.91236 2.52631,-6.39445 -2.0267,-5.17919 l -3.90743,1.04296 0.10645,5.79299 c 0.10398,5.6581 0.15168,5.75283 2.04866,4.06811 1.06822,-0.94868 2.76877,-3.52487 3.77902,-5.72487 z M 195.87805,591.75322 c 3.66536,-8.70852 3.54584,-15.36948 -0.34563,-19.26094 -3.97773,-3.97774 -7.30412,-3.85884 -9.14645,0.32692 -0.89875,2.04194 -2.26682,3.36878 -3.68047,3.56955 -2.58301,0.36685 -2.93058,3.18928 -1.17247,9.5208 0.97394,3.50747 1.2985,3.78305 3.74442,3.17924 3.94296,-0.97338 5.00865,-2.40998 2.92805,-3.94715 -1.71309,-1.26565 -2.48169,-5.55912 -1,-5.58609 0.4125,-0.008 1.7209,-0.27412 2.90755,-0.59246 2.8897,-0.77521 6.34245,2.74765 6.34245,6.47125 0,4.18958 -3.37239,7.89054 -8.04804,8.83217 l -3.98577,0.80269 3.69331,7.5 3.69332,7.5 0.74614,-6.09612 c 0.41037,-3.35286 1.90599,-8.8518 3.32359,-12.21986 z m 253.06765,10.56598 3.36555,-7.25 -3.89674,-0.80269 c -7.00133,-1.44221 -10.40059,-9.25572 -5.959,-13.69731 2.1894,-2.1894 2.45514,-2.2527 5.75,-1.36971 2.99352,0.80223 3.09122,4.96794 0.13849,5.9051 -1.77517,0.56342 -1.89463,0.88225 -0.75,2.00158 0.74883,0.73228 2.53802,1.61951 3.97597,1.97162 3.02492,0.7407 3.48741,-0.0266 4.46704,-7.41145 0.60831,-4.58568 0.49659,-4.95045 -1.61181,-5.26218 -2.21688,-0.32778 -3.27803,-1.56363 -4.36615,-5.08496 -0.8539,-2.76332 -5.35193,-2.15546 -8.68046,1.17308 -3.90742,3.90741 -4.01232,10.54928 -0.3057,19.35581 1.43957,3.42025 2.85207,8.80669 3.13889,11.96987 0.28683,3.16318 0.71205,5.75124 0.94494,5.75124 0.23289,0 1.93793,-3.2625 3.78898,-7.25 z m -149.9902,-7.90378 c 7.8391,-11.07999 7.87298,-10.84622 -1.57206,-10.84622 -6.03853,0 -8.97321,0.49261 -11.93434,2.00327 -4.56671,2.32976 -5.4917,3.79855 -6.41894,10.19263 l -0.68098,4.69589 5.30316,0.36912 c 2.91674,0.20302 6.42816,0.43287 7.80316,0.51079 2.02498,0.11474 3.45004,-1.20115 7.5,-6.92548 z m 55.36354,6.16479 4.36355,-0.011 -0.66976,-4.75 c -1.2977,-9.20349 -5.69364,-12.04535 -18.83122,-12.17392 l -7.77389,-0.0761 1.77389,3.30341 c 0.97564,1.81688 3.57389,5.87971 5.77389,9.02852 3.80054,5.43961 4.17453,5.69929 7.5,5.20759 1.925,-0.28463 5.46359,-0.52246 7.86354,-0.52851 z m -73.44578,-19.12645 2.43297,-2.11544 -4.67537,-3.50473 c -2.57145,-1.9276 -6.13468,-5.10382 -7.9183,-7.05828 -1.78362,-1.95445 -3.42642,-3.36288 -3.65066,-3.12983 -0.22424,0.23304 -0.56492,2.5969 -0.75706,5.25302 l -0.34934,4.8293 4,1.37651 c 2.2,0.75708 4.9,2.49332 6,3.85831 1.1,1.365 2.10908,2.50988 2.24239,2.5442 0.13332,0.0343 1.33723,-0.88957 2.67537,-2.05306 z m 83.59328,-3.39027 c 1.5893,-0.82186 3.85421,-1.49429 5.03314,-1.49429 2.0089,0 2.09911,-0.32965 1.43659,-5.25 -0.3888,-2.8875 -0.89921,-5.45568 -1.13423,-5.70706 -0.23502,-0.25138 -1.87164,1.14394 -3.63693,3.1007 -1.76529,1.95677 -5.33959,5.16789 -7.94289,7.13583 l -4.73328,3.57807 2.70812,1.97273 c 2.65966,1.93743 2.73203,1.9386 4.04398,0.0655 0.73473,-1.04897 2.6362,-2.57964 4.2255,-3.4015 z m -159.29236,-2.85284 -2.43791,-2.63053 1.06783,4.00061 c 0.90417,3.38749 1.2778,3.79064 2.4379,2.63054 1.1601,-1.1601 0.99645,-1.77323 -1.06782,-4.00062 z m 228.04061,0.79123 1.09484,-3.56732 -2.44336,2.63643 c -1.34385,1.45004 -2.18447,3.05534 -1.86805,3.56732 1.09175,1.76648 2.12527,0.91936 3.21657,-2.63643 z m -123.63304,-0.50776 c 0.52826,-0.78371 0.76809,-3.36544 0.53294,-5.73719 -0.65972,-6.6539 -7.65919,-12.82718 -7.65919,-6.75512 0,3.23953 -3.60061,4.48637 -5.51013,1.90809 -2.36124,-3.18819 -2.39427,-5.34031 -0.1225,-7.9814 3.13715,-3.64716 8.78449,-3.54606 12.72353,0.22779 l 2.9091,2.78709 0,-12.72033 c 0,-11.64037 -0.2157,-13.14601 -2.54066,-17.73408 -2.96407,-5.84933 -4.54933,-6.74605 -7.96706,-4.50667 -3.1373,2.05564 -3.16961,4.09699 -0.0967,6.11042 3.16379,2.07299 3.9721,5.41275 1.87174,7.73362 -5.54006,6.1217 -13.62764,-8.01456 -8.65058,-15.12031 0.8892,-1.2695 3.0267,-3.21751 4.75,-4.3289 1.72331,-1.1114 2.23329,-1.71673 1.13329,-1.34519 -1.1,0.37155 -4.68838,1.58319 -7.97419,2.69255 -4.09754,1.38341 -8.54127,2.00986 -14.14634,1.99423 l -8.17216,-0.0228 0.53333,3.97622 c 0.61894,4.61453 -1.33895,6.81239 -6.11564,6.86523 -2.67335,0.0296 -2.8318,0.24781 -2.25903,3.11164 1.80063,9.00316 8.04725,15.87427 15.16042,16.67602 l 4.69762,0.52949 -0.70575,-4.17726 c -1.16367,-6.88772 2.4199,-9.26084 7.02719,-4.65354 4.88547,4.88546 2.05076,13.43189 -5.12241,15.44364 -3.56342,0.99937 -9.19543,-0.61446 -13.65772,-3.91358 l -2.87963,-2.129 2.15325,4.22071 c 2.86678,5.61937 11.2765,13.61891 17.46106,16.60941 4.34054,2.09883 6.09905,2.36801 13.33288,2.04091 5.75631,-0.2603 8.62987,-0.8174 9.29337,-1.80172 z m 40.37375,-0.32315 c 2.75,-1.30828 6.84478,-4.11639 9.0995,-6.24023 3.89412,-3.66808 9.4005,-11.01091 9.4005,-12.5357 0,-0.39043 -1.9125,0.38361 -4.25,1.72009 -6.13593,3.50827 -12.02413,3.33378 -15.82692,-0.46901 -4.62856,-4.62855 -3.70314,-12.06944 1.75936,-14.14628 3.97329,-1.51064 5.63495,0.4672 4.84093,5.76206 -0.64542,4.30399 -0.64349,4.3073 2.51423,4.3073 6.88403,0 12.58028,-4.83121 15.51993,-13.16304 2.06931,-5.86503 1.86992,-6.83696 -1.40254,-6.83696 -4.09492,0 -6.56029,-3.11499 -5.86354,-7.40858 l 0.56048,-3.45382 -8.17597,0.0441 c -7.65128,0.0413 -10.32633,-0.53246 -22.17596,-4.75637 -1.1,-0.39211 -0.43156,0.37779 1.48543,1.71088 6.32626,4.39932 7.76852,10.95907 3.73021,16.96588 -2.60284,3.8716 -5.7038,4.76687 -8.12494,2.34572 -2.07779,-2.07779 -1.24756,-5.29048 2.01085,-7.78125 3.06581,-2.34354 3.03794,-4.20148 -0.0938,-6.25349 -3.41773,-2.23938 -5.00299,-1.34266 -7.96706,4.50667 -2.32499,4.5881 -2.54069,6.09374 -2.54069,17.73411 l 0,12.72033 3.01125,-2.88496 c 7.17856,-6.87749 18.27606,0.25479 12.43005,7.9887 -1.17669,1.55667 -1.86207,1.7479 -3.2182,0.89787 -0.9477,-0.59402 -1.8669,-2.04659 -2.04265,-3.22792 -0.4143,-2.78476 -2.28643,-2.72841 -4.99075,0.1502 -4.18123,4.45072 -4.14256,13.1864 0.062,13.99641 6.88364,1.32616 15.39904,0.61429 20.24835,-1.69271 z m -133.99857,-5.21198 c 0.55079,-1.69722 1.61839,-3.82924 2.37245,-4.73782 2.65355,-3.19733 7.12612,-1.35039 7.12612,2.94272 0,2.02423 0.29125,2.12705 3.75,1.32386 7.9559,-1.84754 20.29019,-0.36695 29.45813,3.53609 2.19313,0.93368 3.23526,-2.65563 3.18702,-10.97673 -0.0281,-4.83813 -0.66833,-7.19736 -3.2567,-12 -4.03594,-7.48857 -7.18909,-10.03821 -10.37953,-8.3929 -3.85125,1.98608 -6.62821,5.04337 -7.28114,8.01617 -0.82855,3.77234 0.0949,5.18264 2.43612,3.72052 4.38062,-2.73575 6.91879,2.34561 3.0861,6.1783 -2.81471,2.81471 -5.66368,2.49017 -9.20212,-1.04827 -2.65702,-2.65703 -2.97959,-3.56028 -2.51321,-7.03744 0.60317,-4.49693 4.71698,-10.50229 8.31839,-12.1432 3.2043,-1.45998 3.02037,-2.35811 -0.75228,-3.67326 -16.0291,-5.58778 -35.85078,8.78492 -35.85078,25.99539 0,9.88506 7.00181,15.99898 9.50143,8.29657 z m 166.49858,1.50772 c 6.44883,-2.46401 18.70569,-3.503 24.75,-2.09801 4.0425,0.93967 4.25,0.87701 4.25,-1.28335 0,-3.06162 2.40895,-4.88131 5.45118,-4.11776 1.8341,0.46033 2.7531,1.64652 3.54016,4.56945 1.21804,4.52347 2.21342,5.41933 5.02858,4.52584 3.40653,-1.08119 5.24005,-6.06993 4.7957,-13.04838 -1.05948,-16.63878 -20.2331,-29.72755 -35.6664,-24.34747 -3.89124,1.35649 -3.88458,1.88272 0.0557,4.40217 4.40355,2.81566 6.85172,6.50361 7.49348,11.2883 0.4861,3.62411 0.18822,4.4789 -2.49631,7.16343 -3.64925,3.64925 -7.44043,3.97382 -9.64542,0.82576 -3.09592,-4.42005 -0.64205,-8.56091 3.52941,-5.95579 2.34122,1.46212 3.26466,0.0518 2.43611,-3.72052 -0.65809,-2.99626 -3.43115,-6.02952 -7.37395,-8.06584 -2.07614,-1.07226 -2.70229,-0.88183 -5.34325,1.62503 -4.97247,4.72001 -8.12583,11.97895 -8.18411,18.83963 -0.0434,5.1088 0.87278,11.50119 1.64814,11.4995 0.12702,-2.8e-4 2.70595,-0.94617 5.73095,-2.10199 z m -181.34038,-4.8782 c -1.01173,-3.79047 -0.45636,-8.53948 1.83347,-15.67812 1.32583,-4.13332 -5.20976,-3.12838 -12.77073,1.9637 -2.18676,1.47271 -7.72237,10.09123 -7.72237,12.02314 0,0.21698 1.94723,-0.0511 4.32717,-0.59569 3.53121,-0.80805 5.01917,-0.66183 8.08909,0.79495 2.06905,0.98182 4.28007,2.61484 4.91337,3.62892 1.88925,3.02517 2.46215,2.1047 1.33,-2.1369 z m 236.50011,1.50476 c 2.66923,-3.39338 8.41317,-5.01212 13.14698,-3.70505 2.03131,0.56087 3.69329,0.78153 3.69329,0.49035 0,-0.29118 -1.37169,-3.0674 -3.04819,-6.16939 -2.5339,-4.6884 -3.95729,-6.09097 -8.43634,-8.31301 -6.23989,-3.09557 -10.09657,-2.85519 -8.9964,0.56074 2.27312,7.05783 2.83123,11.84789 1.8213,15.6316 -1.23366,4.62192 -0.86951,4.9231 1.81936,1.50476 z M 211.89559,535.6354 c 4.73382,-5.23081 5.87007,-15.82629 2.27008,-21.16832 -2.72386,-4.04193 -4.33756,-4.28276 -6.01649,-0.89788 -1.47384,2.97139 -6.36362,4.0237 -7.30444,1.57196 -0.46852,-1.22094 -1.5044,-1.42352 -4.74432,-0.92782 -2.2797,0.3488 -4.2906,0.75474 -4.46866,0.90209 -0.94599,0.78286 3.12902,6.41038 5.06277,6.99159 3.76541,1.13173 9.76097,7.55982 9.76097,10.46513 0,2.42294 1.56856,4.99705 3.04501,4.99705 0.35476,0 1.43255,-0.87021 2.39508,-1.9338 z m 217.35992,0.7338 c 0.66,-0.66 1.2,-2.37457 1.2,-3.81016 0,-3.08612 5.18589,-8.80585 9.28038,-10.23572 2.33187,-0.81433 6.58561,-6.34536 5.54336,-7.20789 -0.17806,-0.14735 -2.18896,-0.55329 -4.46866,-0.90209 -3.17652,-0.486 -4.27896,-0.28488 -4.71862,0.86084 -1.0405,2.7115 -5.4353,1.78469 -7.13646,-1.50498 -0.85325,-1.65 -2.13194,-3 -2.84154,-3 -1.97187,0 -5.65846,7.33637 -5.65846,11.26043 0,4.20317 2.43698,11.45996 4.68132,13.93992 1.91838,2.11979 2.5121,2.20623 4.11868,0.59965 z M 257.6441,529.94831 c 0.31753,-4.98675 0.8836,-6.95874 2.29349,-7.98967 1.02955,-0.75283 1.67976,-1.4949 1.44491,-1.64906 -0.23485,-0.15415 -2.5645,-1.27795 -5.177,-2.49733 l -4.75,-2.21706 0,4.41028 c 0,3.24534 -0.66035,5.19506 -2.5,7.38136 -2.81996,3.35133 -3.06273,4.18237 -1.22178,4.18237 0.70302,0 2.84052,1.10293 4.75,2.45096 1.90948,1.34803 3.75686,2.47303 4.10528,2.5 0.34843,0.027 0.82322,-2.93036 1.0551,-6.57185 z m 126.5966,4.12089 c 2.02349,-1.375 4.24962,-2.5 4.94694,-2.5 1.83023,0 1.5841,-0.83548 -1.23213,-4.18237 -1.83002,-2.17486 -2.5,-4.1394 -2.5,-7.33062 l 0,-4.35954 -4.90722,2.18626 c -4.61942,2.05804 -4.8126,2.29223 -3.29379,3.99287 1.00667,1.12719 1.76773,4.22978 2.02372,8.25 0.22565,3.54387 0.60673,6.4434 0.84684,6.4434 0.24011,0 2.09214,-1.125 4.11564,-2.5 z m -151.06169,-5.4603 c 7.09248,-1.00442 10.95105,-3.01015 12.21211,-6.348 1.28826,-3.4098 -0.39574,-5.50905 -4.32985,-5.39753 -3.88694,0.11018 -6.60577,-1.67823 -6.60577,-4.34519 0,-2.3533 2.88371,-5.20758 4.59703,-4.55012 0.87765,0.33679 0.45238,-1.45269 -1.23399,-5.19249 -1.41523,-3.1385 -2.99482,-7.16086 -3.51018,-8.93856 -0.83599,-2.88367 -1.14607,-3.10165 -2.87564,-2.02151 -2.73832,1.71011 -3.15732,3.42054 -1.88126,7.67966 1.78546,5.95932 -0.23435,16.51993 -5.64168,29.49765 -0.66105,1.58653 -0.48257,1.80122 1.01854,1.22519 1.00102,-0.38412 4.71383,-1.10822 8.25069,-1.6091 z m 179.7556,0.2103 c -5.05596,-12.04004 -7.30649,-23.48107 -5.76833,-29.32451 1.14096,-4.33448 0.73052,-6.16881 -1.72315,-7.70115 -1.7274,-1.07878 -2.02777,-0.90359 -2.62088,1.52862 -0.36843,1.51087 -1.95167,5.41429 -3.51831,8.67425 -3.18817,6.63418 -3.28472,6.96047 -1.78542,6.03385 1.41146,-0.87233 4.93699,2.39219 4.93699,4.57148 0,2.57652 -2.75617,4.37075 -6.54888,4.26324 -4.21734,-0.11954 -5.81996,1.60389 -4.56381,4.90782 1.38531,3.64365 5.53495,5.86542 12.90407,6.90902 3.62311,0.51309 6.80223,1.14766 7.06471,1.41014 1.17856,1.17856 2.28728,0.30911 1.62301,-1.27276 z M 225.0588,502.33002 c -0.43905,-8.89193 -2.04981,-13.75419 -6.13911,-18.53162 -5.60344,-6.54636 -9.12744,-8.70366 -12.04564,-7.37405 -3.04957,1.38948 -6.40991,6.8038 -6.41481,10.33583 -0.005,3.32024 1.3183,4.24936 3.82312,2.68508 4.24726,-2.65246 6.7487,1.42949 3.61644,5.90143 -3.03701,4.33593 -11.39328,1.54227 -12.85938,-4.29914 -0.95213,-3.79358 1.09293,-10.04071 4.59124,-14.02507 1.70005,-1.93625 2.91861,-3.6884 2.70792,-3.89368 -0.39299,-0.38287 -6.39471,-0.84234 -8.63308,-0.66092 -0.87399,0.0708 -1.25522,2.28218 -1.26736,7.35132 -0.01,3.9875 -0.71389,10.4 -1.56519,14.25 -2.73967,12.39011 -2.86969,14.38923 -0.98291,15.11326 0.93115,0.35731 2.88866,0.10488 4.35002,-0.56096 l 2.65701,-1.21062 -2.32612,-1.7546 c -3.26478,-2.46263 -2.48224,-5.50093 1.51731,-5.89108 2.959,-0.28866 5.70824,1.327 6.54875,3.84853 0.25779,0.77338 1.16644,0.77368 3.19862,0.001 3.68802,-1.40219 9.04862,0.0447 11.60554,3.1325 1.0575,1.27706 2.46753,4.79692 3.1334,7.82192 l 1.21069,5.5 1.79134,-5.73918 c 1.14892,-3.68097 1.68047,-7.98445 1.4822,-12 z m 191.36583,11.88793 c 1.43289,-6.9022 5.22701,-10.79018 10.6837,-10.94798 2.11595,-0.0612 4.55453,0.22349 5.41906,0.63262 1.12281,0.53137 1.91014,0.001 2.75591,-1.85477 1.01449,-2.22658 1.72009,-2.55426 4.92812,-2.28863 2.96823,0.24577 3.80847,0.76224 4.05477,2.49235 0.20521,1.44139 -0.45014,2.58952 -1.93022,3.38163 -2.16161,1.15686 -2.17468,1.24772 -0.36955,2.56767 5.32297,3.89225 7.50752,-0.13124 5.01186,-9.23084 -0.8901,-3.24544 -1.88648,-10.5133 -2.21418,-16.1508 l -0.59582,-10.25 -4.85638,0 c -2.67102,0 -4.85639,0.26597 -4.85639,0.59104 0,0.32507 1.54277,2.39341 3.42838,4.59632 3.77403,4.40911 5.23187,9.94585 3.68798,14.00659 -2.13303,5.6103 -9.63985,7.75215 -12.55966,3.58354 -3.13226,-4.47193 -0.63082,-8.55389 3.61644,-5.90143 2.50482,1.56428 3.82773,0.63516 3.82312,-2.68508 -0.005,-3.57273 -3.37701,-8.95171 -6.50531,-10.37706 -2.2019,-1.00325 -2.96978,-0.77612 -6.19137,1.83133 -11.12032,9.00043 -14.73718,22.14901 -10.23042,37.19125 0.68608,2.28992 1.36928,4.1635 1.51823,4.1635 0.14895,0 0.77073,-2.40806 1.38173,-5.35125 z m -147.8951,-1.39875 c -2.70564,-2.6125 -5.23012,-5.99624 -5.60997,-7.51941 -1.48359,-5.94924 3.8373,-12.36163 9.87568,-11.90153 7.68533,0.58561 9.03435,8.67094 1.44673,8.67094 -4.54836,0 -4.89756,3.16494 -0.85696,7.76693 3.61607,4.11848 10.00682,6.22578 16.62012,5.48037 5.53082,-0.62341 5.75406,-0.81835 4.5534,-3.97632 -0.67241,-1.76857 -0.55934,-3.26504 0.38409,-5.08352 1.23506,-2.38057 0.9519,-3.30588 -3.71271,-12.13229 -5.04841,-9.55265 -5.05076,-9.55517 -8.91208,-9.55517 -4.94827,0 -8.20143,-2.90198 -6.97996,-6.22648 0.45943,-1.25044 1.83325,-2.42183 3.05293,-2.60309 2.66429,-0.39595 2.37822,-1.39335 -2.43775,-8.49924 -6.39144,-9.43048 -5.80838,-9.02007 -11.70602,-8.23968 -6.51598,0.86222 -13.35723,3.79992 -17.16801,7.3721 -2.73941,2.5679 -7.99424,12.159 -7.1334,13.01985 0.22428,0.22428 1.84791,-0.0942 3.60806,-0.70784 10.28995,-3.5871 20.66316,2.7305 18.51789,11.27796 -0.88592,3.52978 -4.73767,5.32768 -8.11607,3.78837 -3.01248,-1.37258 -3.22836,-3.71013 -0.5,-5.41402 2.69783,-1.68482 2.51655,-3.21154 -0.54705,-4.60741 -3.36624,-1.53377 -5.79158,-1.4637 -9.98507,0.28845 -4.20836,1.75837 -4.52784,4.643 -1.43094,12.9202 3.81047,10.1844 17.44362,19.29211 30.70974,20.51583 0.68568,0.0632 -0.96702,-2.0225 -3.67265,-4.635 z m 110.53454,0.18455 c 8.90391,-4.26371 14.67104,-10.26962 16.8245,-17.52108 2.4058,-8.10123 2.12721,-9.78143 -1.90094,-11.4645 -4.19349,-1.75215 -6.61883,-1.82222 -9.98507,-0.28845 -3.0636,1.39587 -3.24488,2.92259 -0.54705,4.60741 2.72836,1.70389 2.51248,4.04144 -0.5,5.41402 -5.29992,2.41481 -10.00923,-2.98831 -7.88045,-9.04145 1.9657,-5.58943 11.93844,-9.05297 17.4986,-6.07727 4.22392,2.26058 5.02478,0.79586 2.49504,-4.56323 -4.07677,-8.63637 -11.49373,-13.62471 -22.40473,-15.06849 -5.89764,-0.78039 -5.31458,-1.1908 -11.70602,8.23968 -4.81857,7.10974 -5.19689,8.32881 -2.58469,8.32881 1.40307,0 2.48753,0.93578 3.1726,2.73766 0.88598,2.33032 0.71702,2.99989 -1.13554,4.5 -1.92246,1.55672 -5.17126,2.2663 -8.56139,1.86992 -0.60862,-0.0712 -3.38155,4.17535 -6.16208,9.43669 -4.67011,8.83683 -4.95358,9.76252 -3.71847,12.14319 0.94343,1.81848 1.0565,3.31495 0.38409,5.08352 -0.52411,1.37852 -0.72523,2.73409 -0.44694,3.01239 1.48157,1.48157 10.94032,1.33927 15.03958,-0.22625 7.99577,-3.05362 12.76213,-11.93863 6.51039,-12.13608 -4.33151,-0.13679 -4.84916,-0.37044 -5.52275,-2.4927 -1.53885,-4.84849 7.09236,-8.01938 12.16243,-4.46817 2.75401,1.92898 4.73888,6.89544 3.9739,9.94335 -0.79124,3.15257 -5.1948,8.36743 -9.07096,10.7422 l -3.04262,1.86408 5,-0.58563 c 2.75,-0.3221 8.19886,-2.11743 12.10857,-3.98962 z m -147.30886,-29.7732 c 0.72556,-1.89078 -0.51276,-6.77693 -2.38397,-9.40666 -1.9734,-2.77333 -8.84322,-5.27252 -14.29147,-5.19913 l -4.12427,0.0555 2.92825,2.19445 c 1.61053,1.20694 5.38936,4.78194 8.39739,7.94444 5.36256,5.63794 8.45147,7.07621 9.47407,4.41135 z m 182.37304,-3.91135 c 2.75593,-2.8875 6.54449,-6.46637 8.41902,-7.95304 l 3.40824,-2.70304 -4.07186,-0.047 c -2.23952,-0.0258 -6.15348,0.66231 -8.69767,1.52921 -3.85673,1.31412 -4.97966,2.30713 -6.75417,5.97278 -2.33212,4.81752 -1.93568,8.45105 0.92206,8.45105 0.96998,0 4.01845,-2.3625 6.77438,-5.25 z M 244.48659,461.34197 c 3.122,-2.44333 3.20776,-2.67678 1.58098,-4.30355 -2.49534,-2.49534 -1.80045,-7.87122 1.07027,-8.2799 1.39614,-0.19876 2.57964,0.43168 3.28518,1.75 1.45876,2.72571 2.46609,2.59918 3.87196,-0.48637 1.61621,-3.54718 1.44819,-6.47759 -0.49447,-8.62421 -2.49796,-2.76022 -3.61681,-2.26538 -6.29574,2.78446 -3.10325,5.84968 -10.05167,13.60435 -15.62706,17.44032 l -4.31836,2.97111 4.1476,3.86884 4.14761,3.86884 2.66548,-4.20303 c 1.46602,-2.31168 4.15097,-5.36561 5.96655,-6.78651 z m 162.12343,1.72723 c -1.43084,-1.1 -5.20095,-4.431 -8.37802,-7.40222 l -5.77649,-5.40222 0,3.02977 c 0,1.66638 -0.68344,3.59699 -1.51876,4.29024 -1.31794,1.09379 -1.01571,1.69105 2.28572,4.51695 2.09246,1.79107 4.66527,4.8549 5.71736,6.80851 l 1.9129,3.55203 4.17941,-3.69653 4.1794,-3.69653 -2.60152,-2 z m -212.15452,1.5 c -3.18738,-2.4932 -3.94174,-2.4932 -3.28975,0 0.3582,1.36976 1.35283,1.99299 3.15638,1.97776 l 2.63337,-0.0222 -2.5,-1.95553 z m 251.28976,0 c 0.28766,-1.1 0.29862,-2 0.0244,-2 -0.27426,0 -1.64282,0.9 -3.04124,2 l -2.54259,2 2.51823,0 c 1.67722,0 2.6929,-0.66793 3.04124,-2 z m -221.23239,-4.02927 c 5.43365,-2.77204 11.49843,-8.39003 15.54674,-14.40142 3.44322,-5.1129 3.734,-7.05301 0.65202,-4.35043 -3.04257,2.66801 -8.03967,4.78112 -11.30647,4.78112 -4.25769,0 -9.94966,-5.58641 -9.94966,-9.76514 0,-6.47372 7.92334,-11.25684 9.91406,-5.98486 0.47495,1.25781 0.46074,2.99271 -0.0322,3.93426 -0.48502,0.92634 -0.88184,2.44635 -0.88184,3.37781 0,2.48697 7.47044,1.07922 11.80092,-2.22379 l 3.36793,-2.56885 -3.33442,-3.46479 c -3.53393,-3.67209 -20.98064,-17.30464 -22.14619,-17.30464 -0.37853,0 -0.68824,1.40938 -0.68824,3.13197 0,3.37776 -3.42504,9.79319 -5.33156,9.98651 -3.99434,0.40504 -6.96473,-2.07263 -5.95316,-4.96568 0.31785,-0.90904 1.73681,-2.90667 3.15325,-4.43918 3.50291,-3.78994 2.06786,-6.10431 -4.03716,-6.5109 -3.67541,-0.24478 -5.33115,0.28505 -9.37507,3 -5.49056,3.68617 -10.51119,12.01628 -10.79379,17.90882 -0.15448,3.22104 0.0207,3.40367 3.54515,3.6963 2.03922,0.16931 4.70018,-0.22334 5.91326,-0.87255 l 2.20559,-1.1804 -2.26859,-1.7112 c -1.34097,-1.0115 -2.11995,-2.49476 -1.90507,-3.62745 0.48289,-2.5454 5.97475,-3.14578 8.22172,-0.89882 2.052,2.052 2.0981,7.36274 0.0888,10.23139 -1.90743,2.72323 -8.34882,4.55091 -12.97821,3.68243 -2.9722,-0.55759 -3.48046,-0.37986 -3.45308,1.20747 0.0583,3.37872 5.40999,12.6967 8.7179,15.17888 l 3.25,2.43873 0,-4.16028 c 0,-5.38562 2.05724,-10.2093 5.51368,-12.92814 7.47187,-5.87737 17.90958,1.50546 12.20144,8.63036 -1.80753,2.25615 -5.17995,1.00739 -5.53154,-2.04826 -0.35621,-3.09578 -0.51779,-3.17669 -3.33398,-1.66951 -3.60442,1.92903 -6.06029,10.46071 -3.96355,13.76937 2.2604,3.56693 16.27321,3.64003 23.17132,0.12087 z m 209.51879,1.36167 c 3.66484,-1.40633 2.37425,-11.85288 -1.82796,-14.79622 -3.02539,-2.11906 -3.56754,-1.95169 -3.93177,1.21382 -0.64093,5.57028 -7.06642,3.34918 -7.06642,-2.44265 0,-5.37573 7.98849,-8.2801 13.04088,-4.74127 3.24996,2.27636 6.20912,8.72083 6.20912,13.52224 l 0,4.168 3.25,-2.50311 c 3.33116,-2.56561 7.13405,-9.00488 8.35157,-14.14134 0.67799,-2.86031 0.64963,-2.88158 -2.94368,-2.20747 -4.75633,0.89229 -11.19159,-0.90057 -13.12128,-3.65559 -2.00928,-2.86865 -1.96318,-8.17939 0.0888,-10.23139 2.24697,-2.24696 7.73883,-1.64658 8.22172,0.89882 0.21488,1.13269 -0.5641,2.61595 -1.90507,3.62745 l -2.26859,1.7112 2.20559,1.1804 c 1.21308,0.64921 3.87404,1.04186 5.91326,0.87255 3.51961,-0.29223 3.69953,-0.47871 3.54729,-3.67668 -0.27383,-5.75207 -5.40558,-14.23074 -10.85127,-17.92844 -4.00692,-2.72077 -5.63645,-3.24531 -9.31973,-3 -6.13319,0.40846 -7.55181,2.7324 -3.97452,6.5109 2.51039,2.6516 3.18993,4.27845 2.92437,7.0012 -0.16581,1.70007 -3.66242,3.39742 -5.5258,2.68237 -2.39867,-0.92046 -5.59266,-6.78295 -5.59266,-10.26522 0,-1.72259 -0.30971,-3.13197 -0.68824,-3.13197 -1.16148,0 -18.60637,13.62642 -22.12235,17.28005 l -3.31059,3.44019 3.02589,2.54612 c 2.9322,2.46729 10.57353,4.58874 11.86751,3.29476 0.35059,-0.3506 0.16642,-1.88534 -0.40928,-3.41054 -2.42713,-6.43021 3.34712,-9.87723 7.56448,-4.51572 2.78569,3.54143 2.61104,7.57177 -0.4877,11.25441 -3.37881,4.01549 -8.25834,4.94721 -13.50903,2.57948 -2.16821,-0.97773 -4.44471,-2.38318 -5.05889,-3.12322 -2.36623,-2.85113 -2.92701,-1.16452 -0.79947,2.40447 4.97558,8.34661 14.80691,16.44729 22.25965,18.34119 3.12967,0.79532 13.45059,0.31321 16.24417,-0.75879 z M 263.29509,450.89845 c -2.09507,-2.2301 -2.33677,-2.28086 -2.9892,-0.62777 -1.31702,3.33702 -0.92245,3.96271 2.20909,3.5031 l 3.05949,-0.44904 -2.27938,-2.42629 z m 113.79071,1.42075 c -0.33164,-1.2375 -0.60913,-2.66594 -0.61664,-3.17431 -0.008,-0.50838 -1.17296,0.16479 -2.58989,1.49593 l -2.57624,2.42025 2.32624,0.65438 c 3.80451,1.07024 4.08694,0.95615 3.45653,-1.39625 z m 13.17643,-3.5108 c 1.96898,0.5149 1.93875,0.30299 -0.61827,-4.33451 -2.94831,-5.34717 -3.64734,-5.70436 -6.35971,-3.2497 -2.27309,2.05712 -2.3532,6.15122 -0.18104,9.25242 l 1.6477,2.35243 1.72056,-2.281 c 1.17204,-1.5538 2.38056,-2.10841 3.79076,-1.73964 z m -208.6159,-32.79735 c -2.98753,-2.51239 -2.32903,-6.97276 0.90458,-6.12715 2.56565,0.67093 3.16231,-0.60712 1.362,-2.91738 -1.41586,-1.81689 -1.63029,-1.72776 -5.05874,2.10268 -3.17336,3.54545 -3.51913,4.45456 -3.04282,8.00012 0.29557,2.20006 1.27758,5.77165 2.18226,7.93686 l 1.64488,3.93674 2.22761,-5.43686 2.22761,-5.43686 -2.44738,-2.05815 z m 278.21133,6.2732 c 0.87882,-2.63172 1.59785,-5.81924 1.59785,-7.08339 0,-2.99865 -6.45039,-10.50772 -7.84422,-9.13166 -1.84615,1.8226 -1.72404,3.9049 0.23182,3.95329 1.03817,0.0257 2.38817,0.87963 3,1.89764 0.92061,1.53182 0.6658,2.19146 -1.47796,3.82607 l -2.59037,1.97513 2.09037,5.35407 c 1.1497,2.94474 2.38383,5.04801 2.74251,4.67394 0.35868,-0.37408 1.37118,-2.83337 2.25,-5.46509 z M 200.9555,403.98474 c 2.94063,-1.00513 -6.4398,-3.89845 -9.85784,-3.04058 -2.58668,0.64922 -2.59052,0.66547 -0.9631,4.07822 l 1.63394,3.4264 3.5935,-1.89022 c 1.97642,-1.03961 4.4935,-2.19784 5.5935,-2.57382 z m 247.50001,-1.86025 c 0,-1.25925 -6.15509,-1.38816 -10,-0.20944 -3.65737,1.12123 -4.1255,1.50804 -2.5,2.06574 1.1,0.3774 3.575,1.46434 5.5,2.41543 l 3.5,1.72924 1.75,-2.8023 c 0.9625,-1.54127 1.75,-2.98067 1.75,-3.19867 z"
       id="path2996"
       style="fill:#000000" />
  </g>
</svg>
