<?xml version="1.0" encoding="UTF-8" standalone="no"?>
<!-- Created with Inkscape (http://www.inkscape.org/) -->

<svg
   xmlns:dc="http://purl.org/dc/elements/1.1/"
   xmlns:cc="http://creativecommons.org/ns#"
   xmlns:rdf="http://www.w3.org/1999/02/22-rdf-syntax-ns#"
   xmlns:svg="http://www.w3.org/2000/svg"
   xmlns="http://www.w3.org/2000/svg"
   xmlns:sodipodi="http://sodipodi.sourceforge.net/DTD/sodipodi-0.dtd"
   xmlns:inkscape="http://www.inkscape.org/namespaces/inkscape"
   version="1.1"
   width="100%"
   height="100%"
   viewBox="0 0 400 400"
   id="svg2"
   inkscape:version="0.48.4 r9939"
   sodipodi:docname="coin.svg">
  <sodipodi:namedview
     pagecolor="#ffffff"
     bordercolor="#666666"
     borderopacity="1"
     objecttolerance="10"
     gridtolerance="10"
     guidetolerance="10"
     inkscape:pageopacity="0"
     inkscape:pageshadow="2"
     inkscape:window-width="1680"
     inkscape:window-height="988"
     id="namedview3446"
     showgrid="false"
     inkscape:zoom="3.3978559"
     inkscape:cx="206.82013"
     inkscape:cy="242.38222"
     inkscape:window-x="-8"
     inkscape:window-y="-8"
     inkscape:window-maximized="1"
     inkscape:current-layer="svg2" />
  <defs
     id="defs4">
    <linearGradient
       x1="272.32999"
       y1="544.14001"
       x2="300.04001"
       y2="651.95001"
       id="linearGradient4180"
       gradientUnits="userSpaceOnUse">
      <stop
         id="stop3719"
         style="stop-color:#e4eae8;stop-opacity:1"
         offset="0" />
      <stop
         id="stop3725"
         style="stop-color:#c2cacb;stop-opacity:1"
         offset="0.47047001" />
      <stop
         id="stop3721"
         style="stop-color:#e4eae8;stop-opacity:0"
         offset="1" />
    </linearGradient>
    <linearGradient
       x1="464.42999"
       y1="565.46997"
       x2="220.45"
       y2="623.04999"
       id="linearGradient4182"
       gradientUnits="userSpaceOnUse">
      <stop
         id="stop3592"
         style="stop-color:#70706f;stop-opacity:1"
         offset="0" />
      <stop
         id="stop3594"
         style="stop-color:#70706f;stop-opacity:0"
         offset="1" />
    </linearGradient>
    <linearGradient
       x1="269.47"
       y1="586.67999"
       x2="463.89999"
       y2="586.67999"
       id="linearGradient4184"
       gradientUnits="userSpaceOnUse">
      <stop
         id="stop3729"
         style="stop-color:#eaedeb;stop-opacity:1"
         offset="0" />
      <stop
         id="stop3731"
         style="stop-color:#eaedeb;stop-opacity:0"
         offset="1" />
    </linearGradient>
    <linearGradient
       x1="463.78"
       y1="557.84998"
       x2="245.96001"
       y2="621.84998"
       id="linearGradient4186"
       gradientUnits="userSpaceOnUse">
      <stop
         id="stop3711"
         style="stop-color:#878c8f;stop-opacity:1"
         offset="0" />
      <stop
         id="stop3713"
         style="stop-color:#878c8f;stop-opacity:0"
         offset="1" />
    </linearGradient>
  </defs>
  <metadata
     id="metadata81">
    <rdf:RDF>
      <cc:Work>
        <dc:format>image/svg+xml</dc:format>
        <dc:type
           rdf:resource="http://purl.org/dc/dcmitype/StillImage" />
        <cc:license
           rdf:resource="http://creativecommons.org/licenses/publicdomain/" />
        <dc:publisher>
          <cc:Agent
             rdf:about="http://openclipart.org/">
            <dc:title>Openclipart</dc:title>
          </cc:Agent>
        </dc:publisher>
        <dc:title></dc:title>
        <dc:date>2010-04-08T05:14:37</dc:date>
        <dc:description>A single hypothetical silver coin (I mean, no one has Thalers anymore, right?), drawn in Inkscape.</dc:description>
        <dc:source>https://openclipart.org/detail/39661/one-coin-by-j_alves</dc:source>
        <dc:creator>
          <cc:Agent>
            <dc:title>J_Alves</dc:title>
          </cc:Agent>
        </dc:creator>
        <dc:subject>
          <rdf:Bag>
            <rdf:li>coin</rdf:li>
            <rdf:li>currency</rdf:li>
            <rdf:li>money</rdf:li>
            <rdf:li>silver coin</rdf:li>
            <rdf:li>thaler</rdf:li>
          </rdf:Bag>
        </dc:subject>
      </cc:Work>
      <cc:License
         rdf:about="http://creativecommons.org/licenses/publicdomain/">
        <cc:permits
           rdf:resource="http://creativecommons.org/ns#Reproduction" />
        <cc:permits
           rdf:resource="http://creativecommons.org/ns#Distribution" />
        <cc:permits
           rdf:resource="http://creativecommons.org/ns#DerivativeWorks" />
      </cc:License>
    </rdf:RDF>
  </metadata>
  <path
     style="fill:#000000"
     d="m 148.12348,257.37472 c -4.55312,-0.43633 -7.89154,-0.92333 -12.07021,-1.76076 -32.56612,-6.52649 -59.728636,-27.12882 -74.443796,-56.46442 -4.33962,-8.6513 -7.61533,-18.33578 -9.52072,-28.14752 -1.41242,-7.27325 -1.65468,-10.25702 -1.63339,-20.11703 0.0173,-7.98751 0.124,-10.0077 0.73977,-14.00145 2.83716,-18.40113 9.43555,-34.46148 20.10066,-48.924614 15.29519,-20.74206 38.697816,-35.483974 64.596536,-40.691004 7.42658,-1.49314 11.82818,-1.912669 20.27796,-1.93275 7.964,-0.01893 11.2517,0.243606 18.13898,1.448474 21.77729,3.809734 41.78333,14.15892 57.18069,29.579733 14.81465,14.837211 24.87545,33.759251 29.10887,54.747021 3.23963,16.06095 2.59683,32.22479 -1.9397,48.77555 -3.24508,11.83912 -9.60903,24.83332 -17.16665,35.05165 -17.6718,23.89325 -45.21857,39.30893 -75.61965,42.31815 -3.03208,0.30013 -15.0204,0.38048 -17.74935,0.11897 z"
     id="path3561" />
  <path
     style="fill:#000000"
     d="m 169.528,256.47478 c 27.92079,-3.8183 52.4637,-17.59444 69.61639,-39.07627 5.96344,-7.46854 12.814,-19.53582 16.15258,-28.45282 10.6075,-28.33153 8.97284,-58.35356 -4.64859,-85.37595 -8.09605,-16.061055 -19.59451,-29.259893 -34.127,-39.173676 -26.99819,-18.417627 -60.19441,-23.621625 -90.6071,-14.203995 -24.18505,7.489176 -43.734886,21.899508 -57.274726,42.217638 -9.26011,13.895903 -14.82659,28.743923 -17.28704,46.111473 -0.7897,5.57429 -0.79608,20.41468 -0.0111,25.72151 2.06522,13.96101 5.22475,24.04089 11.22124,35.79923 11.42848,22.40979 30.31339,39.66811 53.979796,49.33041 8.68959,3.5477 19.41228,6.30965 28.04039,7.22264 1.85881,0.19669 3.88661,0.41367 4.50621,0.48218 2.77839,0.30721 16.8121,-0.10639 20.4389,-0.60237 z"
     id="path3559" />
  <path
     style="fill:#000000"
     d="m 150.21565,240.33298 c -3.61303,-0.22448 -10.93117,-1.46028 -15.28894,-2.58183 -35.606296,-9.1639 -60.942926,-37.22564 -66.660586,-73.83033 -1.04843,-6.71207 -1.04459,-18.35241 0.008,-25.10605 5.69598,-36.537 31.62802,-65.056297 67.135126,-73.833233 37.83823,-9.353165 77.75787,7.488616 97.56801,41.163183 13.50615,22.95864 16.12961,50.32792 7.20414,75.15721 -11.23423,31.25191 -37.79848,53.02452 -71.07584,58.25525 -4.18948,0.65853 -14.17619,1.06867 -18.89018,0.7758 z"
     id="path3557" />
  <path
     style="fill:#000000"
     d="m 168.72332,239.20939 c 19.44101,-2.94034 36.50488,-11.43516 50.05941,-24.92081 13.61332,-13.54415 22.05514,-30.13272 25.30421,-49.72401 0.61874,-3.73091 0.72195,-5.57402 0.72992,-13.03584 0.008,-7.58738 -0.085,-9.26257 -0.73317,-13.19677 C 241.68233,123.75731 236.1051,110.25974 227.79136,98.902592 206.5546,69.891664 168.99084,56.527777 134.3036,65.642869 99.509824,74.785961 74.403294,102.68324 68.741234,138.4929 c -1.15796,7.32353 -1.21627,18.04573 -0.13652,25.10605 4.65094,30.41177 23.04161,55.32185 50.228376,68.03412 15.67366,7.32886 33.56362,10.04562 49.89023,7.57632 z"
     id="path3555" />
  <path
     style="fill:#000000"
     d="m 149.57442,233.78442 c -2.22286,-0.3992 -2.91907,-0.64818 -3.00092,-1.07321 -0.0714,-0.37063 0.10083,-0.55343 0.52135,-0.55343 1.15777,0 1.42809,-0.73565 0.96537,-2.62712 l -0.41955,-1.715 -2.37156,-0.42378 c -1.30436,-0.23308 -2.54967,-0.35544 -2.76735,-0.27191 -0.21767,0.0835 -0.72263,0.84724 -1.12213,1.69713 l -0.72635,1.54525 0.83825,0.6684 c 0.75877,0.60502 1.13325,1.4489 0.64298,1.4489 -0.1074,0 -1.4834,-0.23567 -3.05779,-0.52371 -2.99583,-0.54809 -3.73252,-1.16529 -1.87727,-1.57278 1.18937,-0.26122 1.72042,-0.96813 5.77407,-7.6861 3.00064,-4.97284 3.07565,-5.06402 4.01335,-4.87858 0.52556,0.10394 1.05589,0.29489 1.17851,0.42435 0.12262,0.12945 0.83343,3.20464 1.57958,6.83375 1.35998,6.6147 1.84606,8.04681 2.73122,8.04681 0.48631,0 0.6696,0.82578 0.23398,1.05422 -0.13277,0.0696 -1.54385,-0.1073 -3.13574,-0.39319 z"
     id="path3553" />
  <path
     style="fill:#000000"
     d="m 152.10314,233.39068 c -1.01186,-0.48995 -1.24806,-1.21454 -2.7328,-8.38314 -0.74378,-3.59114 -1.36481,-6.54518 -1.38006,-6.56453 -0.0153,-0.0193 -0.41658,-0.12837 -0.89183,-0.24225 -0.81809,-0.19604 -0.97954,-0.0142 -3.03218,3.41484 -4.49091,7.50233 -5.22236,8.52026 -6.48402,9.02348 l -1.18299,0.47184 2.40198,0.3833 c 1.32109,0.21082 2.58304,0.44181 2.80433,0.51333 0.22128,0.0715 0.40234,0.007 0.40234,-0.14421 0,-0.15082 -0.28896,-0.34979 -0.64212,-0.44215 -1.06142,-0.27756 -1.12377,-1.14895 -0.21481,-3.00226 0.96303,-1.9636 1.06591,-1.99227 4.71939,-1.31523 l 2.09218,0.38771 0.45066,1.89873 c 0.50294,2.119 0.29694,2.78544 -0.96393,3.11835 -0.56653,0.14958 -0.6447,0.25464 -0.29142,0.39161 0.65825,0.25521 3.83843,0.78678 4.82809,0.80701 0.78107,0.016 0.78451,0.007 0.11719,-0.31643 z"
     id="path3551" />
  <path
     style="fill:#000000"
     d="m 144.429,226.30831 c -0.88126,-0.1681 -1.65085,-0.35419 -1.71019,-0.41353 -0.14226,-0.14226 3.15208,-5.93048 3.49643,-6.1433 0.14649,-0.0905 0.36238,0.38257 0.47975,1.05135 0.11737,0.66878 0.41437,2.20312 0.66001,3.40965 0.24564,1.20652 0.44661,2.25663 0.44661,2.33357 0,0.21422 -1.59127,0.10205 -3.37261,-0.23774 z"
     id="path3549" />
  <path
     style="fill:#000000"
     d="m 146.83309,223.61396 c -0.30907,-1.51257 -0.625,-2.81317 -0.70206,-2.89023 -0.0771,-0.0771 -0.76166,0.95231 -1.52132,2.2875 -0.75967,1.33519 -1.31374,2.49509 -1.23127,2.57755 0.15949,0.1595 2.62251,0.68091 3.49567,0.74002 0.47653,0.0323 0.47303,-0.19915 -0.041,-2.71484 z"
     id="path3547" />
  <path
     style="fill:#000000"
     d="m 158.4234,233.68253 c 0,-0.22357 0.3259,-0.54947 0.72421,-0.72422 0.94947,-0.41655 1.05055,-1.69481 0.55838,-7.06156 -0.44624,-4.86588 -0.65464,-5.55917 -1.75401,-5.83509 -0.44884,-0.11265 -0.81607,-0.39403 -0.81607,-0.62528 0,-0.29036 0.7718,-0.49055 2.49451,-0.64701 3.85333,-0.34996 4.10387,-0.34375 4.10387,0.10184 0,0.22715 -0.3621,0.59259 -0.80468,0.81208 -1.05523,0.52333 -1.11661,1.41306 -0.51301,7.43655 0.31391,3.13253 0.62622,4.89134 0.89931,5.06456 0.72703,0.46117 1.68838,0.30117 3.44245,-0.57292 1.50321,-0.74907 3.20878,-2.49374 3.67516,-3.75938 0.10775,-0.29243 0.23454,-0.29313 0.54319,-0.003 0.32154,0.30226 0.2901,0.83765 -0.15608,2.65832 -0.30728,1.2539 -0.67473,2.35154 -0.81654,2.43918 -0.28504,0.17617 -9.28993,1.12055 -10.69554,1.12169 -0.49873,3.2e-4 -0.88515,-0.17674 -0.88515,-0.40577 z"
     id="path3545" />
  <path
     style="fill:#000000"
     d="m 164.2171,233.28433 c 2.56694,-0.25503 4.89758,-0.46798 5.17921,-0.47325 0.35831,-0.007 0.6364,-0.56525 0.92619,-1.86033 0.22777,-1.01792 0.48675,-2.06803 0.57552,-2.33357 0.0888,-0.26555 -0.53772,0.29752 -1.39219,1.25126 -2.2773,2.54187 -5.50786,3.73756 -6.58656,2.43781 -0.48286,-0.58182 -1.33871,-8.21217 -1.20714,-10.7623 0.078,-1.51104 0.20567,-1.82017 0.89561,-2.1679 0.76136,-0.38372 0.72669,-0.40429 -0.64374,-0.3821 -0.79664,0.0129 -2.17264,0.12357 -3.05779,0.24593 -1.45431,0.20104 -1.52299,0.2457 -0.71283,0.4636 0.49812,0.13397 1.0216,0.57007 1.17796,0.98134 0.40044,1.05323 1.34744,10.98826 1.1071,11.61459 -0.11008,0.28685 -0.58128,0.72864 -1.04712,0.98175 -1.05139,0.57126 -0.93314,0.57134 4.78578,0.003 z"
     id="path3543" />
  <path
     style="fill:#000000"
     d="m 176.77013,231.10275 c 0,-0.2262 0.29225,-0.6615 0.64944,-0.96734 0.48864,-0.41839 0.59651,-0.77481 0.43564,-1.43949 -0.41597,-1.71879 -3.36551,-9.86281 -3.73194,-10.30434 -0.20448,-0.24637 -0.69923,-0.38536 -1.09944,-0.30885 -0.44905,0.0858 -0.79836,-0.0451 -0.9123,-0.34206 -0.10155,-0.26464 -0.14502,-0.50771 -0.0966,-0.54015 0.0484,-0.0325 2.75937,-0.97485 6.02433,-2.09422 l 5.93628,-2.03522 1.3797,1.577 c 2.14517,2.45196 1.89469,2.82024 -1.18205,1.73795 -2.18909,-0.77005 -3.02036,-0.78789 -5.11967,-0.10989 -1.24662,0.40262 -1.70037,0.72257 -1.84566,1.30145 -0.17744,0.70697 0.61348,3.44164 1.17566,4.06494 0.13269,0.14712 0.83785,-0.0369 1.56704,-0.40888 1.21269,-0.61867 1.32578,-0.78402 1.32578,-1.93832 0,-1.08874 0.43486,-1.93799 0.80356,-1.56929 0.0643,0.0643 0.62404,1.53567 1.24378,3.26961 0.91684,2.56521 1.04104,3.18554 0.66655,3.32924 -0.26333,0.10105 -0.85987,-0.2512 -1.39433,-0.82334 -1.01943,-1.09131 -1.37245,-1.17243 -2.85417,-0.6559 l -0.98693,0.34404 0.78221,2.31141 c 0.87213,2.57712 1.44451,3.19783 2.67652,2.90254 2.4608,-0.58981 4.76296,-2.56073 5.67207,-4.85595 0.37658,-0.95074 0.73161,-1.36796 1.16405,-1.36796 0.57994,0 0.60767,0.16951 0.4081,2.49451 -0.11776,1.37198 -0.30486,2.59546 -0.41576,2.71885 -0.20963,0.23322 -11.53511,4.12094 -12.00489,4.12094 -0.14683,0 -0.26697,-0.18507 -0.26697,-0.41128 z"
     id="path3541" />
  <path
     style="fill:#000000"
     d="m 183.20102,229.09963 c 2.91739,-0.98396 5.40073,-1.89336 5.51855,-2.02089 0.28042,-0.30353 0.53393,-4.57714 0.27152,-4.57714 -0.1109,0 -0.53797,0.71809 -0.94905,1.59575 -0.95311,2.03493 -1.95857,2.98471 -4.28713,4.04971 -2.08708,0.95457 -3.11901,0.88625 -3.70675,-0.24541 -0.41449,-0.79807 -1.66867,-4.38713 -1.66867,-4.77521 0,-0.32439 1.84195,-0.94671 2.80209,-0.94671 0.46222,0 1.15704,0.4185 1.72227,1.03735 0.52111,0.57054 0.94747,0.8829 0.94747,0.69413 0,-0.38446 -0.99826,-3.30896 -1.6348,-4.78927 l -0.41521,-0.96562 -0.18202,1.25521 c -0.20743,1.4305 -1.27773,2.42588 -2.72797,2.53702 -0.84082,0.0644 -0.96735,-0.0762 -1.52974,-1.70005 -0.826,-2.385 -0.68454,-3.19948 0.69604,-4.00767 1.50649,-0.8819 5.09995,-0.90643 6.8513,-0.0468 0.67019,0.32897 1.28198,0.53467 1.35952,0.45713 0.0776,-0.0776 -0.47079,-0.81284 -1.21853,-1.63396 l -1.35952,-1.49296 -5.79371,2.05644 c -3.8038,1.35014 -5.44795,2.06269 -4.78703,2.07463 0.55367,0.01 1.15401,0.19924 1.33409,0.42053 0.33563,0.41243 3.40586,9.01554 3.79701,10.63961 0.16774,0.69649 0.0446,1.08698 -0.53853,1.7077 -0.42352,0.45081 -0.547,0.73013 -0.28077,0.6351 0.26138,-0.0933 2.86219,-0.97468 5.77957,-1.95864 z"
     id="path3539" />
  <path
     style="fill:#000000"
     d="m 129.21348,228.62796 c -2.84526,-1.34898 -3.57389,-2.33806 -1.60936,-2.18465 1.00324,0.0784 1.10143,-0.0238 2.39772,-2.49328 l 1.35163,-2.57498 -3.0948,-1.52889 c -1.70215,-0.8409 -3.26867,-1.5289 -3.48118,-1.5289 -0.44865,0 -2.4038,4.1993 -2.4038,5.1629 0,0.35805 0.21726,0.73438 0.48281,0.83628 0.26554,0.1019 0.48281,0.47153 0.48281,0.8214 0,0.34987 -0.12038,0.58785 -0.2675,0.52884 -3.21542,-1.2897 -5.77023,-2.67156 -5.6274,-3.04378 0.0975,-0.25407 0.62939,-0.44317 1.24656,-0.44317 1.0634,0 1.10161,-0.0521 3.14131,-4.28405 1.13565,-2.35623 2.26329,-4.8329 2.50586,-5.50373 0.41886,-1.15833 0.40224,-1.2511 -0.33042,-1.84437 -0.56494,-0.45746 -0.67589,-0.72028 -0.41445,-0.98171 0.26143,-0.26144 1.10117,6e-5 3.1367,0.97677 2.81532,1.35089 3.40151,2.14185 1.58735,2.14185 -0.74657,0 -1.08536,0.27341 -1.79479,1.44843 -1.61142,2.66898 -1.64235,2.59851 1.88275,4.2885 1.72798,0.82842 3.23063,1.50599 3.33922,1.50571 0.26863,-6.5e-4 1.89472,-3.66212 1.89472,-4.2663 0,-0.26608 -0.28882,-0.68249 -0.64183,-0.92537 -0.41201,-0.28348 -0.54691,-0.5895 -0.37675,-0.85463 0.36168,-0.5635 5.84667,1.96237 5.84667,2.69242 0,0.32401 -0.25733,0.48175 -0.72421,0.44393 -0.39832,-0.0323 -0.90606,-0.0426 -1.12832,-0.0231 -0.44552,0.0393 -4.82885,8.89973 -5.11801,10.34556 -0.1369,0.68448 -0.023,1.00489 0.46569,1.31008 0.57293,0.3578 0.65591,1.26924 0.11343,1.24603 -0.11383,-0.005 -1.40192,-0.5754 -2.86241,-1.26785 z"
     id="path3537" />
  <path
     style="fill:#000000"
     d="m 131.58537,228.77045 c -0.94808,-0.94808 -0.76371,-1.53937 2.68299,-8.60445 1.28768,-2.63951 1.86814,-3.50712 2.44288,-3.65137 0.41462,-0.10406 0.90694,-0.0946 1.09403,0.021 0.18709,0.11563 0.34017,0.13135 0.34017,0.0349 0,-0.21825 -3.41546,-1.94449 -4.50622,-2.27753 -0.78,-0.23816 -0.7874,-0.22632 -0.2414,0.38571 0.7784,0.87253 0.71073,1.55545 -0.38328,3.86795 l -0.94604,1.99975 -3.47945,-1.62304 c -1.91369,-0.89267 -3.5789,-1.72014 -3.70046,-1.83882 -0.12156,-0.11867 0.31296,-1.22967 0.96561,-2.46888 1.09865,-2.08605 1.2642,-2.25287 2.23272,-2.24999 0.57535,0.002 1.04609,-0.0329 1.04609,-0.0769 0,-0.044 -1.15874,-0.66259 -2.57498,-1.37466 -2.37173,-1.19248 -3.30376,-1.3274 -2.06443,-0.29885 0.33551,0.27845 0.45102,0.72145 0.33689,1.2921 -0.25734,1.2867 -4.51012,10.04219 -5.11969,10.54028 -0.29711,0.24277 -0.81104,0.33813 -1.18413,0.21971 -0.36256,-0.11506 -0.6592,-0.12912 -0.6592,-0.0312 0,0.22032 3.40845,1.94506 4.50622,2.28023 0.78,0.23816 0.7874,0.22633 0.2414,-0.38571 -0.3098,-0.34726 -0.56327,-0.8854 -0.56327,-1.19584 0,-0.57623 1.81015,-4.97093 2.23828,-5.4341 0.12991,-0.14054 1.85462,0.49779 3.83269,1.4185 4.09802,1.90747 3.95575,1.54803 2.05775,5.19848 -1.10381,2.12295 -2.07282,2.88901 -2.96047,2.34041 -0.18709,-0.11563 -0.3338,-0.0931 -0.32603,0.0502 0.015,0.27698 4.89237,2.65586 5.09367,2.4844 0.0653,-0.0556 -0.11572,-0.33568 -0.40234,-0.6223 z"
     id="path3535" />
  <path
     style="fill:#000000"
     d="m 196.31744,223.70605 c -0.0764,-0.21987 0.12162,-0.73553 0.43996,-1.14591 0.70201,-0.905 0.6864,-0.94643 -2.38722,-6.33505 -2.68409,-4.7057 -2.93485,-5.00041 -4.17227,-4.90362 -0.53111,0.0415 -1.01475,-0.0693 -1.07475,-0.24634 -0.06,-0.17703 2.02394,-1.51682 4.63101,-2.97732 4.95999,-2.77862 6.33217,-3.16384 8.21461,-2.30615 1.9133,0.87177 2.45648,4.017 0.9939,5.75518 -0.4646,0.55215 -0.7905,1.04869 -0.72421,1.10344 0.0663,0.0547 1.45814,0.70997 3.09301,1.45607 1.97695,0.90221 3.31377,1.32247 3.9915,1.25483 1.57958,-0.15765 1.43443,0.53043 -0.34253,1.62381 l -1.61554,0.99405 -3.75021,-1.76213 c -2.06262,-0.96916 -3.89607,-1.76212 -4.07433,-1.76212 -0.17827,0 -0.80913,0.29976 -1.40193,0.66612 l -1.07781,0.66612 0.87888,1.51557 c 1.69273,2.91899 1.83679,3.04918 3.10983,2.81035 1.88112,-0.3529 1.41657,0.54812 -1.02393,1.98592 -3.3822,1.99261 -3.549,2.06491 -3.70797,1.60718 z"
     id="path3533" />
  <path
     style="fill:#000000"
     d="m 201.55431,220.67149 c 0.42168,-0.40188 0.37568,-0.41993 -0.36329,-0.14251 -0.63251,0.23745 -1.01617,0.19852 -1.51978,-0.15423 -0.88543,-0.62018 -3.10752,-4.60885 -2.74447,-4.92635 0.15524,-0.13576 0.78921,-0.54583 1.40881,-0.91126 l 1.12656,-0.66442 3.70153,1.73515 c 2.03584,0.95433 3.8678,1.73709 4.07102,1.73946 0.20322,0.002 0.99985,-0.35605 1.7703,-0.79649 l 1.40081,-0.8008 -1.28749,-0.005 c -0.84775,-0.004 -2.33144,-0.49823 -4.344,-1.44847 -2.76873,-1.30725 -3.86636,-2.09453 -2.92022,-2.09453 0.54667,0 1.62891,-1.98709 1.63025,-2.99331 0.002,-1.14153 -0.78553,-2.68201 -1.59033,-3.11273 -1.44053,-0.77095 -2.95563,-0.37911 -6.94399,1.79586 -2.14549,1.17001 -4.25303,2.41374 -4.68341,2.76385 -0.43039,0.35011 -0.59323,0.53794 -0.36189,0.4174 1.3932,-0.72592 2.35733,0.46386 6.51573,8.04068 1.36782,2.49222 1.37862,2.53661 0.84429,3.46763 l -0.54125,0.94308 2.174,-1.19625 c 1.19571,-0.65794 2.39127,-1.40332 2.65682,-1.65641 z"
     id="path3531" />
  <path
     style="fill:#000000"
     d="m 195.69336,214.20103 c -2.54828,-4.33282 -2.54058,-4.63237 0.159,-6.1806 3.17943,-1.82344 5.84826,-0.94142 5.84826,1.93279 0,1.55335 -0.94796,2.62663 -3.60967,4.08688 l -1.88427,1.03373 -0.51332,-0.8728 z"
     id="path3529" />
  <path
     style="fill:#000000"
     d="m 197.6227,213.92044 c 2.52092,-1.54158 3.27491,-2.18412 3.5758,-3.04724 0.58016,-1.66425 -0.57511,-3.4996 -2.20285,-3.4996 -1.75118,0 -4.84441,1.77638 -4.84441,2.78205 0,0.6129 2.00753,4.29023 2.3449,4.29532 0.139,0.002 0.64595,-0.23664 1.12656,-0.53053 z"
     id="path3527" />
  <path
     style="fill:#000000"
     d="m 106.16767,215.19606 c -2.02259,-1.48818 -2.74735,-2.19461 -2.50264,-2.43932 0.24471,-0.24471 0.57893,-0.23764 1.15406,0.0244 0.44529,0.20288 0.99237,0.29711 1.21576,0.2094 0.53926,-0.21174 7.32641,-9.25434 7.32641,-9.76106 0,-0.21722 -0.53879,-0.62006 -1.19731,-0.89521 -1.14585,-0.47877 -2.7866,-0.45833 -4.47154,0.0557 -0.45283,0.13815 -0.74174,0.046 -0.86526,-0.27584 -0.2408,-0.62752 3.06693,-2.96951 3.69132,-2.61359 1.5363,0.87572 9.91932,7.36847 9.89904,7.66692 -0.0588,0.86519 -1.17632,3.55705 -1.52495,3.67326 -0.44893,0.14964 -0.58516,-0.20828 -0.85961,-2.25858 -0.20742,-1.54949 -1.44318,-3.46166 -2.23713,-3.46166 -0.37713,0 -5.94317,7.2183 -6.87769,8.91932 -0.42979,0.7823 -0.2577,2.02434 0.28048,2.02434 0.35779,0 0.40441,0.86321 0.0582,1.0772 -0.13311,0.0823 -1.52321,-0.79312 -3.08912,-1.94529 z"
     id="path3525" />
  <path
     style="fill:#000000"
     d="m 108.744,216.11928 c -0.29299,-0.32374 -0.5327,-0.89547 -0.5327,-1.27052 0,-0.61251 6.37886,-9.5746 7.19458,-10.10815 1.02945,-0.67334 2.76573,1.68866 3.01473,4.10115 0.20693,2.00496 0.42128,1.95501 1.15781,-0.26986 l 0.50903,-1.53761 -4.95913,-3.72238 -4.95913,-3.72239 -1.46175,1.04975 c -1.61659,1.16095 -1.90953,1.73868 -0.63612,1.25453 1.99105,-0.757 5.61181,0.14386 5.61181,1.39624 0,0.48699 -6.3276,9.14084 -7.20779,9.85762 -0.44856,0.36529 -0.76736,0.3882 -1.50857,0.10843 -0.5169,-0.19511 -0.93981,-0.29973 -0.93981,-0.23249 0,0.0672 1.05011,0.92103 2.33358,1.8973 2.33618,1.77702 3.38382,2.30377 2.38346,1.19838 z"
     id="path3523" />
  <path
     style="fill:#000000"
     d="M 102.04227,188.29889 C 94.707994,174.32515 91.682434,164.8558 91.243874,154.50226 l -0.18763,-4.42954 -1.80286,-1.01941 c -6.68529,-3.78017 -10.5591,-9.00709 -11.7886,-15.90633 -0.53684,-3.01242 -0.6298,-8.49459 -0.14405,-8.49459 0.59116,0 4.29031,1.98433 6.1064,3.27565 1.8198,1.29395 4.22481,3.87999 5.44599,5.85591 1.17848,1.90681 2.29395,5.61342 2.51564,8.35926 l 0.21204,2.6262 0.37095,-2.09217 c 0.53966,-3.04374 1.30284,-5.83493 2.62997,-9.61866 l 1.17225,-3.34215 -1.58674,-1.48472 c -3.60316,-3.37151 -6.35531,-7.76278 -7.38733,-11.78707 -0.68578,-2.67418 -0.68817,-8.07873 -0.005,-11.26554 0.30362,-1.41623 0.60702,-2.63081 0.67424,-2.69904 0.53983,-0.54802 5.98251,4.87785 7.56144,7.53808 2.12299,3.57689 2.69368,5.64313 2.70752,9.80296 0.007,2.0376 -0.0982,4.35652 -0.23339,5.15316 -0.22437,1.32261 -0.0891,1.15485 1.55771,-1.93124 0.991876,-1.85881 2.577026,-4.61082 3.522556,-6.11557 2.04508,-3.25462 2.25106,-3.76089 2.55369,-6.27652 1.19867,-9.96405 6.68754,-17.019804 14.74337,-18.952113 l 0.88803,-0.213006 -0.19961,2.340434 c -0.31747,3.722239 -1.33064,7.812285 -2.59804,10.487985 -2.16823,4.57753 -6.48333,8.00353 -11.45097,9.09157 -1.01792,0.22295 -1.85076,0.51958 -1.85076,0.65918 0,0.1396 -0.88022,1.65098 -1.95605,3.35863 -2.4643,3.91156 -5.709386,10.34033 -7.211036,14.2856 -2.60002,6.83103 -3.66867,12.0575 -3.93448,19.24237 l -0.193,5.21655 1.02115,0.95389 c 0.56162,0.52463 2.06826,1.36373 3.34808,1.86464 2.05542,0.80448 2.7421,0.91076 5.884666,0.91076 3.46409,0 3.62215,-0.0318 6.00584,-1.21014 1.59802,-0.78993 3.30688,-2.01213 4.92121,-3.51973 l 2.47309,-2.3096 -1.46981,-0.74698 c -3.2642,-1.65891 -8.17933,-2.19026 -11.66794,-1.26135 -2.207256,0.58773 -5.325766,2.28155 -7.156296,3.88696 -2.25363,1.97647 -2.90947,2.37746 -1.65283,1.01057 3.45297,-3.75592 10.159136,-6.42374 14.581176,-5.80062 1.72881,0.24362 5.17621,1.32933 6.78221,2.13597 l 1.24636,0.62601 -1.24636,1.29192 c -1.86364,1.93175 -4.53177,3.90885 -6.87913,5.09747 -1.81648,0.91981 -2.49786,1.07939 -5.17084,1.21103 -3.461056,0.17045 -5.539516,-0.27984 -8.733316,-1.89207 -2.14747,-1.08404 -2.07244,-1.23734 -1.3735,2.80635 1.29376,7.485 4.09198,15.12179 9.227916,25.18449 1.93022,3.78184 3.4551,6.93046 3.38861,6.99695 -0.0665,0.0665 -1.35536,-2.2311 -2.86416,-5.10576 z"
     id="path3521" />
  <path
     style="fill:#000000"
     d="m 91.146484,145.47463 c -0.012,-7.73155 -2.25124,-12.84105 -7.34332,-16.75596 -2.06092,-1.58449 -5.80559,-3.57391 -6.12184,-3.25234 -0.40062,0.40737 -0.10621,6.7674 0.41676,9.00316 0.91798,3.92445 2.52848,6.73774 5.62965,9.83411 2.57728,2.57328 6.5546,5.31062 7.16665,4.93236 0.14173,-0.0876 0.25517,-1.78019 0.2521,-3.76133 z"
     id="path3519" />
  <path
     style="fill:#000000"
     d="m 86.319314,139.78505 c -2.16206,-3.91595 -3.86823,-7.18272 -3.79147,-7.25947 0.0768,-0.0768 1.90887,3.06406 4.07136,6.97959 2.1625,3.91552 3.86866,7.18229 3.79148,7.25947 -0.0772,0.0772 -1.9093,-3.06363 -4.07137,-6.97959 z"
     id="path3517" />
  <path
     style="fill:#000000"
     d="m 96.609384,126.96696 c 0.008,-0.23173 0.12315,-0.35419 0.25592,-0.27214 0.13277,0.0821 0.25804,-0.38013 0.27838,-1.02709 0.0204,-0.64695 0.14336,-2.47986 0.27337,-4.07313 0.29689,-3.63846 -0.29289,-6.65356 -1.97478,-10.09556 -0.95965,-1.96394 -1.84669,-3.10184 -4.41689,-5.66607 l -3.21608,-3.20859 -0.46617,1.59923 c -0.30576,1.04891 -0.47825,3.26067 -0.50126,6.42732 -0.0314,4.31965 0.0467,5.06536 0.74112,7.0812 1.12979,3.27945 3.08208,6.36357 5.78764,9.14296 l 2.3795,2.44445 0.42236,-0.96562 c 0.23231,-0.53109 0.4289,-1.15522 0.43689,-1.38696 z"
     id="path3515" />
  <path
     style="fill:#000000"
     d="m 95.658284,126.49452 c 0,-0.16551 -4.20687,-13.90996 -4.70159,-15.36078 -0.10778,-0.31605 -0.0572,-0.37163 0.14632,-0.16093 0.44504,0.46066 4.982,15.29137 4.74913,15.52425 -0.10663,0.10662 -0.19386,0.10548 -0.19386,-0.003 z"
     id="path3513" />
  <path
     style="fill:#000000"
     d="m 109.33786,112.05834 c 6.39013,-2.62115 9.86209,-8.27301 10.74218,-17.486828 l 0.23724,-2.483677 -0.9835,0.188855 c -0.54092,0.103872 -2.06982,0.720373 -3.39754,1.369999 -5.64343,2.761202 -9.18333,8.545771 -10.44341,17.065631 l -0.38992,2.63637 0.99092,-0.18308 c 0.545,-0.10069 2.00482,-0.59897 3.24403,-1.10727 z"
     id="path3511" />
  <path
     style="fill:#000000"
     d="m 106.71191,111.35668 c 0.28611,-0.80847 8.62225,-12.519715 8.79129,-12.35067 0.0755,0.07549 -1.91798,3.01617 -4.42995,6.53484 -2.51197,3.51866 -4.47457,6.13579 -4.36134,5.81583 z"
     id="path3509" />
  <path
     style="fill:#000000"
     d="m 151.98595,181.46491 0,-6.27855 6.43745,0 6.43745,0 0,-31.06069 0,-31.06069 -9.97805,0 c -7.08035,0 -9.97804,-0.10348 -9.97804,-0.35631 0,-0.19597 0.22911,-0.26839 0.50913,-0.16094 0.28002,0.10746 4.84257,0.19538 10.13898,0.19538 l 9.62985,0 0,31.54349 0,31.5435 -6.43745,0 -6.43745,0 0,5.79371 0,5.7937 23.81856,0 23.81857,0 0,-5.63277 0,-5.63277 -5.3109,0 -5.3109,0 0,-43.61371 0,-43.613716 -11.18794,0 -11.18795,0 -0.76883,2.172639 c -2.11638,5.980627 -5.41743,10.473957 -10.97375,14.937267 -1.92506,1.54636 -9.35874,6.46964 -9.52202,6.30636 -0.0707,-0.0707 1.9698,-1.53851 4.53446,-3.26178 8.74819,-5.87816 13.66389,-11.672359 15.80164,-18.625592 l 0.56901,-1.850767 11.52863,0 11.52862,0 0,43.613719 0,43.61371 5.4791,0 5.47909,0 -0.0877,5.87417 -0.0877,5.87417 -24.2209,0.0825 -24.2209,0.0825 0,-6.27854 z"
     id="path3507" />
  <path
     style="fill:#000000"
     d="m 182.13467,176.25926 c -0.3629,-0.36289 -0.25611,-78.000413 0.10729,-78.000413 0.21281,0 0.32187,13.250413 0.32187,39.107503 0,21.50912 -0.0483,39.1075 -0.10729,39.1075 -0.059,0 -0.20385,-0.0966 -0.32187,-0.21459 z"
     id="path3505" />
  <path
     style="fill:#000000"
     d="m 86.250674,163.75832 c -6.39684,-1.07595 -11.18569,-5.25025 -13.84542,-12.06865 -0.94621,-2.42567 -1.03882,-2.36327 3.21647,-2.16728 6.94825,0.32003 10.6274,2.37484 13.86323,7.74267 0.9341,1.54953 2.63273,5.86372 2.63273,6.68659 0,0.40287 -2.88832,0.30769 -5.86701,-0.19333 z"
     id="path3503" />
  <path
     style="fill:#000000"
     d="m 91.795814,163.81032 c 0,-0.51498 -1.4665,-4.1586 -2.31299,-5.74678 -3.00035,-5.62923 -7.8703,-8.29454 -15.17028,-8.30262 -2.57433,-0.003 -2.55004,-0.18549 -0.53477,4.02097 2.82455,5.89567 7.53315,9.15077 14.15917,9.78835 3.7136,0.35734 3.85887,0.36637 3.85887,0.24008 z"
     id="path3501" />
  <path
     style="fill:#000000"
     d="m 85.184284,158.41307 c -3.00228,-2.12909 -5.67474,-3.99502 -5.93881,-4.14652 -0.26407,-0.15149 -0.40753,-0.34804 -0.3188,-0.43677 0.0887,-0.0887 2.62228,1.57447 5.63009,3.69601 3.00781,2.12155 5.68481,3.98295 5.94888,4.13646 0.26407,0.15351 0.403,0.35623 0.30873,0.4505 -0.0943,0.0943 -2.62781,-1.57059 -5.63009,-3.69968 z"
     id="path3499" />
  <path
     style="fill:#000000"
     d="m 230.04002,160.09751 c -1.72573,-0.45266 -3.0519,-1.32403 -3.99364,-2.62407 -2.82688,-3.9024 -0.45725,-8.25207 5.03992,-9.25121 3.16711,-0.57564 6.97685,0.57958 8.44061,2.55943 0.79779,1.07907 1.20985,3.46499 0.84765,4.90811 -0.32269,1.28568 -1.97999,2.93872 -3.67916,3.66968 -1.73295,0.74549 -5.17274,1.12695 -6.65538,0.73806 z"
     id="path3497" />
  <path
     style="fill:#000000"
     d="m 234.80059,159.57712 c 1.76985,-0.28506 4.07897,-1.75784 4.7968,-3.05944 0.82294,-1.49219 0.65949,-4.00625 -0.3529,-5.42802 -1.27135,-1.78545 -2.9888,-2.45321 -6.30762,-2.45246 -2.52501,6.5e-4 -3.10948,0.11242 -4.55334,0.87137 -2.00591,1.05438 -3.02527,2.5535 -3.0534,4.49047 -0.0247,1.69739 0.36664,2.71806 1.49766,3.90668 1.01213,1.06368 2.03013,1.52741 4.01691,1.82983 1.4459,0.22009 1.65871,0.21157 3.95589,-0.15843 z"
     id="path3495" />
  <path
     style="fill:#000000"
     d="m 228.37044,157.45044 c -2.08608,-0.60355 -3.08078,-3.3933 -1.78339,-5.00176 1.39137,-1.72499 5.33437,-2.4765 9.24667,-1.76237 4.87917,0.89062 4.98468,5.73254 0.14753,6.76992 -1.93458,0.41489 -6.16792,0.41167 -7.61081,-0.006 z"
     id="path3493" />
  <path
     style="fill:#000000"
     d="m 237.35315,156.61719 c 1.98984,-1.15873 2.35394,-3.50113 0.72934,-4.69215 -2.35949,-1.72978 -8.74438,-1.49162 -10.77126,0.40177 -1.68575,1.57472 -0.96401,4.09539 1.38108,4.82343 1.72454,0.53539 7.42897,0.1843 8.66084,-0.53305 z"
     id="path3491" />
  <path
     style="fill:#000000"
     d="m 94.853604,156.59139 c 0.28829,-0.28718 12.211616,-2.65873 13.330876,-2.65152 1.15587,0.007 -0.26883,0.34309 -6.08875,1.43444 -3.452086,0.64734 -6.566196,1.25814 -6.920256,1.35734 -0.428,0.11991 -0.53587,0.0729 -0.32187,-0.14026 z"
     id="path3489" />
  <path
     style="fill:#000000"
     d="m 224.58458,145.81553 c -0.31268,-1.44403 -1.14295,-6.25553 -1.14295,-6.62347 0,-0.7774 0.91561,-0.34008 1.24074,0.59261 0.18595,0.53342 0.56366,1.05641 0.83935,1.16221 0.65562,0.25158 10.50411,-1.446 11.06769,-1.90773 0.27888,-0.22848 0.37233,-0.73438 0.26164,-1.41644 -0.13852,-0.85364 -0.0646,-1.06102 0.37832,-1.06102 0.39398,0 0.76882,0.64128 1.31841,2.2556 0.42235,1.24058 0.70868,2.31329 0.63629,2.38379 -0.0724,0.0705 -3.00894,0.65051 -6.52566,1.2889 -3.51672,0.6384 -6.52221,1.23993 -6.67885,1.33675 -0.15665,0.0968 -0.28482,0.74685 -0.28482,1.44452 0,1.41794 -0.83261,1.82614 -1.11016,0.54428 z"
     id="path3487" />
  <path
     style="fill:#000000"
     d="m 226.33849,143.42801 c 0.44257,-0.20979 3.41139,-0.83825 6.59737,-1.39658 3.18598,-0.55833 5.82239,-1.04484 5.85868,-1.08114 0.0363,-0.0363 -0.2816,-1.00236 -0.70643,-2.14682 -0.74036,-1.99446 -0.77312,-2.0312 -0.78919,-0.88514 -0.012,0.85752 -0.19991,1.29371 -0.66431,1.54225 -0.88851,0.47551 -9.58616,1.97829 -10.77799,1.86222 -0.73353,-0.0714 -1.10192,-0.36388 -1.53747,-1.22051 -0.31504,-0.6196 -0.50917,-0.83687 -0.43139,-0.48281 0.0778,0.35406 0.23181,1.22312 0.3423,1.93124 0.11049,0.70812 0.37015,2.08412 0.57702,3.05779 l 0.37612,1.7703 0.1753,-1.28468 c 0.13079,-0.95849 0.37962,-1.38154 0.97999,-1.66612 z"
     id="path3485" />
  <path
     style="fill:#000000"
     d="m 100.32543,144.72534 c -2.090456,-0.53395 -6.237116,-2.38703 -7.220126,-3.22655 -0.23679,-0.20222 1.97513,-2.34354 4.00125,-3.87353 2.41884,-1.82657 5.591196,-3.42562 7.856556,-3.96018 2.24478,-0.5297 6.68237,-0.24301 9.05738,0.58516 2.27156,0.79209 4.49073,1.92026 4.49073,2.28296 0,0.15416 -1.26498,1.4777 -2.81107,2.9412 -2.14745,2.03274 -3.45638,2.97055 -5.54457,3.97254 -2.58271,1.23927 -2.91149,1.31524 -5.95996,1.37723 -1.77454,0.0361 -3.51613,-0.008 -3.87019,-0.0988 z"
     id="path3483" />
  <path
     style="fill:#000000"
     d="m 107.40662,144.17097 c 2.22023,-0.59308 4.16399,-1.62952 6.43745,-3.43255 1.77932,-1.41115 4.23986,-4.08472 3.97525,-4.31943 -0.3601,-0.31941 -2.94088,-1.46403 -4.45806,-1.97721 -1.25671,-0.42508 -2.7041,-0.59937 -4.98902,-0.60076 -3.58616,-0.002 -5.61404,0.5694 -8.782776,2.47552 -1.75601,1.0563 -5.86242,4.59652 -5.86242,5.05411 0,0.33312 4.31899,2.31045 6.11558,2.79985 1.941326,0.52883 5.585176,0.52905 7.563996,3.2e-4 z"
     id="path3481" />
  <path
     style="fill:#000000"
     d="m 96.302024,140.7613 c 0,-0.25211 14.016986,-3.01422 14.492306,-2.85578 0.18696,0.0623 -2.99733,0.77662 -7.07619,1.58735 -4.078866,0.81073 -7.416116,1.38152 -7.416116,1.26843 z"
     id="path3479" />
  <path
     style="fill:#000000"
     d="m 223.28142,131.22653 c -1.37994,-0.71952 -2.07591,-1.4176 -2.77089,-2.77929 -2.20519,-4.32069 2.47744,-9.33935 8.68631,-9.30965 2.38369,0.0114 3.95083,0.69494 5.12616,2.23587 0.74306,0.97421 0.86698,1.44653 0.86698,3.30449 0,1.92952 -0.10761,2.30379 -0.97892,3.40472 -0.6077,0.76785 -1.87548,1.69461 -3.34317,2.44392 -2.02931,1.03602 -2.66583,1.20674 -4.49292,1.20504 -1.30061,-0.001 -2.504,-0.1977 -3.09355,-0.5051 z"
     id="path3477" />
  <path
     style="fill:#000000"
     d="m 230.70419,130.36045 c 4.21726,-2.14756 5.50568,-5.99143 3.01932,-9.00782 -3.48128,-4.22339 -13.5006,-0.60214 -13.5006,4.87948 0,1.56494 1.34193,3.62181 2.91383,4.4662 1.92444,1.03378 5.15734,0.88944 7.56745,-0.33786 z"
     id="path3475" />
  <path
     style="fill:#000000"
     d="m 222.22877,128.90646 c -1.34594,-1.25728 -1.44666,-3.07792 -0.24902,-4.50123 1.72032,-2.04448 8.19247,-3.91671 10.39127,-3.00593 0.53478,0.22151 1.22794,0.8774 1.54037,1.45754 1.14562,2.1273 -0.21387,4.07811 -3.93802,5.65088 -1.63434,0.69021 -3.23935,1.11352 -4.60635,1.21489 -1.98835,0.14745 -2.15239,0.10479 -3.13825,-0.81615 z"
     id="path3473" />
  <path
     style="fill:#000000"
     d="m 227.40282,129.00036 c 3.86201,-1.00592 6.45992,-2.88741 6.41002,-4.64233 -0.068,-2.39269 -1.4925,-3.15294 -4.91317,-2.62221 -4.29188,0.66591 -7.40108,2.75288 -7.37904,4.95299 0.025,2.49343 2.08138,3.30154 5.88219,2.31155 z"
     id="path3471" />
  <path
     style="fill:#000000"
     d="m 107.08868,126.70781 c -1.85434,-0.44828 -6.44671,-2.50888 -6.77491,-3.03991 -0.20713,-0.33515 2.99724,-3.36127 5.11572,-4.83114 5.70225,-3.95641 12.24339,-4.44023 18.37888,-1.3594 0.89271,0.44825 1.67766,0.86421 1.74433,0.92434 0.27303,0.24623 -2.74601,3.47836 -4.53456,4.85462 -4.71625,3.62907 -8.90326,4.66654 -13.92946,3.45149 z"
     id="path3469" />
  <path
     style="fill:#000000"
     d="m 114.11948,126.39557 c 3.01562,-0.77751 5.44046,-2.2367 8.47813,-5.10185 l 2.76301,-2.60608 -1.73487,-0.86991 c -2.48918,-1.24814 -5.22916,-1.88549 -8.07666,-1.87872 -3.11207,0.007 -5.00328,0.46072 -7.65966,1.83602 -2.07334,1.07344 -6.75634,4.74957 -6.99858,5.49383 -0.17492,0.53743 3.38962,2.27525 6.15291,2.99972 2.85592,0.74875 4.54652,0.7791 7.07572,0.12699 z"
     id="path3467" />
  <path
     style="fill:#000000"
     d="m 102.57853,123.35208 c 0.85615,-0.38715 14.04272,-2.95007 14.22755,-2.76524 0.21922,0.21922 -0.49035,0.38433 -7.71382,1.79489 -6.96551,1.36019 -7.57736,1.45133 -6.51373,0.97035 z"
     id="path3465" />
  <path
     style="fill:#000000"
     d="m 214.36037,114.7607 -2.79681,-4.75188 0.82702,-0.43332 c 0.74328,-0.38945 1.04317,-0.33506 2.96172,0.53711 2.9209,1.32784 4.32309,1.66097 6.99984,1.66307 2.50734,0.002 3.74641,-0.61269 4.33014,-2.14804 0.41822,-1.09998 -0.37882,-2.83525 -1.58994,-3.46155 -1.26778,-0.6556 -1.2167,-0.66669 -2.27716,0.49437 -1.07726,1.17944 -2.14464,1.06299 -2.47933,-0.27049 -0.16624,-0.66239 -0.0275,-0.99574 0.66095,-1.58791 0.47925,-0.41224 1.11677,-0.76555 1.4167,-0.78515 2.95335,-0.19295 5.26106,1.72033 6.16206,5.10885 0.31081,1.16893 0.27532,1.57335 -0.24012,2.73592 -0.75055,1.69285 -1.15625,2.03261 -3.02344,2.53201 -1.28833,0.34457 -1.81739,0.31132 -4.01081,-0.2521 -1.38969,-0.35697 -3.35377,-1.03054 -4.36463,-1.49683 l -1.83792,-0.84781 1.47321,2.42658 c 1.52811,2.51701 2.48521,3.22661 3.8799,2.87656 0.40523,-0.1017 0.73678,-0.12158 0.73678,-0.0442 0,0.0774 0.0828,0.35656 0.18403,0.62032 0.13747,0.35825 -0.26668,0.61061 -1.59743,0.99747 -0.9798,0.28484 -1.96967,0.59011 -2.1997,0.67838 -0.27009,0.10364 -1.40895,-1.52274 -3.21506,-4.59138 z"
     id="path3463" />
  <path
     style="fill:#000000"
     d="m 219.05901,118.48254 c 1.81267,-0.51463 2.16631,-0.90924 0.82593,-0.92159 -0.61075,-0.006 -1.36701,-0.20491 -1.68059,-0.44284 -0.60247,-0.45714 -3.85811,-5.68683 -3.66219,-5.88275 0.0631,-0.0631 1.19013,0.39608 2.5046,1.02032 2.99258,1.42117 6.14488,2.11491 8.03742,1.76884 2.85707,-0.52246 3.96834,-3.22849 2.58053,-6.28376 -0.65591,-1.44397 -2.24627,-2.93999 -3.44532,-3.24093 -2.36167,-0.59274 -4.91158,1.44303 -3.05322,2.4376 0.63078,0.33758 0.71799,0.28655 1.88581,-1.10342 0.65433,-0.7788 1.58845,-0.58392 2.88158,0.60114 1.00094,0.91729 1.19498,1.30633 1.19498,2.3959 0,3.64964 -5.29599,4.50866 -11.42411,1.85301 -2.26247,-0.98045 -3.52833,-1.19358 -3.52833,-0.59405 0,0.42122 5.01766,8.76011 5.27355,8.76416 0.15649,0.003 0.8807,-0.16476 1.60936,-0.37163 z"
     id="path3459" />
</svg>
