<?xml version="1.0" encoding="UTF-8" standalone="no"?>
<!-- Created with Inkscape (http://www.inkscape.org/) -->

<svg
   xmlns:dc="http://purl.org/dc/elements/1.1/"
   xmlns:cc="http://creativecommons.org/ns#"
   xmlns:rdf="http://www.w3.org/1999/02/22-rdf-syntax-ns#"
   xmlns:svg="http://www.w3.org/2000/svg"
   xmlns="http://www.w3.org/2000/svg"
   version="1.1"
   width="456.07898"
   height="453.24597"
   id="svg2">
  <defs
     id="defs4" />
  <metadata
     id="metadata7">
    <rdf:RDF>
      <cc:Work
         rdf:about="">
        <dc:format>image/svg+xml</dc:format>
        <dc:type
           rdf:resource="http://purl.org/dc/dcmitype/StillImage" />
        <dc:title></dc:title>
      </cc:Work>
    </rdf:RDF>
  </metadata>
  <g
     transform="translate(-92.897777,-510.64095)"
     id="layer1">
    <path
       d="m 201.11232,961.60461 c -2.15449,-3.65908 2.78085,-13.97938 9.63128,-20.14001 3.47703,-3.12693 12.53972,-6.38615 20.1393,-7.24275 l 13.81742,-1.5574 0,-20.78745 0,-20.78742 -26.62709,-0.87928 -26.6271,-0.87924 -0.94447,-11.41161 c -0.7399,-8.93989 -2.22294,-11.41161 -6.84697,-11.41161 -5.50905,0 -5.90249,-2.40268 -5.90249,-36.04551 0,-31.65937 -0.70979,-36.68788 -5.83305,-41.32437 -13.99331,-12.66376 -34.15895,14.36716 -40.95025,54.89153 -1.31522,7.84802 -0.33745,10.04383 5.69659,12.79311 9.76987,4.45148 12.54045,19.98998 6.66982,37.40709 -4.33341,12.85641 -5.06,13.4315 -19.27796,15.25836 -8.73061,1.12181 -17.88707,0.48753 -22.38257,-1.55043 -6.848073,-3.10448 -7.69685,-5.46467 -8.500158,-23.63646 -0.805839,-18.22906 -0.184594,-20.74436 6.403509,-25.92655 5.390629,-4.24028 8.196839,-10.85353 10.745769,-25.32407 4.79875,-27.24289 16.74348,-50.26587 31.69994,-61.10027 6.76321,-4.89924 14.29064,-8.90772 16.72762,-8.90772 2.43698,0 7.12379,-3.42348 10.41513,-7.60774 3.29133,-4.18426 7.83856,-7.60774 10.10494,-7.60774 2.26639,0 7.50784,-7.3985 11.64769,-16.44111 5.95754,-13.01298 7.74897,-22.572 8.59159,-45.8446 l 1.06461,-29.40349 -9.89006,1.85759 c -8.5966,1.61465 -9.89007,1.02554 -9.89007,-4.50439 0,-5.62269 1.23767,-6.12978 10.65084,-4.36386 9.9084,1.85882 10.65084,1.45762 10.65084,-5.7555 0,-6.52332 -1.56928,-7.90491 -9.89006,-8.70719 -5.43954,-0.52446 -9.20537,-2.32297 -8.36852,-3.99667 0.83685,-1.6737 6.0768,-2.62841 11.64433,-2.12158 9.03456,0.82246 10.01598,0.16819 9.12929,-6.08619 -0.71908,-5.07209 -3.30499,-7.27368 -9.36201,-7.97062 -4.60352,-0.52969 -8.36851,-2.8448 -8.36851,-5.14582 0,-6.7553 6.69874,-8.94 10.68719,-3.48547 10.17694,13.91779 21.64221,-5.39652 23.70572,-39.93451 1.95622,-32.74207 13.16891,-41.06676 40.13672,-29.79888 6.88298,2.87589 15.97375,3.78531 26.73568,2.67458 15.05825,-1.55415 16.97758,-1.00211 25.07226,7.21131 8.60798,8.73425 8.8696,8.79039 14.54019,3.1198 4.3521,-4.3521 8.88834,-5.46464 18.41584,-4.5166 8.86493,0.88211 17.18676,-0.84 27.85684,-5.76466 33.30234,-15.37035 47.16799,-6.74067 47.16799,29.35633 0,12.6368 1.96654,22.43463 6.14803,30.63103 6.78921,13.30793 10.34218,14.59478 18.90369,6.84674 4.84872,-4.38805 6.1675,-4.53017 8.40734,-0.90607 3.66462,5.92949 0.99029,9.15358 -7.59273,9.15358 -8.71035,0 -11.71672,4.02018 -9.12138,12.19732 1.53433,4.8342 3.06911,5.44292 7.60412,3.01587 8.26121,-4.42128 15.21119,-3.72504 15.21119,1.52384 0,3.20495 -3.23566,4.56464 -10.86249,4.56464 -9.52419,0 -10.74267,0.84357 -9.89006,6.84697 0.7969,5.61115 2.89481,6.84697 11.62326,6.84697 7.43867,0 10.65084,1.37664 10.65084,4.56464 0,3.27956 -2.78437,4.34721 -9.89007,3.79229 l -9.89006,-0.77235 0,27.03171 c 0,33.96078 8.78338,56.39331 25.63368,65.4678 10.00366,5.38733 11.14439,5.43176 18.34384,0.7145 9.305,-6.09688 18.72454,-23.76237 21.37033,-40.0782 1.073,-6.61697 2.58283,-15.11198 3.35514,-18.87781 0.94731,-4.61927 -0.0438,-6.84697 -3.04587,-6.84697 -2.44756,0 -6.58182,-3.04349 -9.18729,-6.7633 -5.26577,-7.51797 -6.44385,-31.38299 -1.69409,-34.3185 1.6737,-1.03441 3.0431,-8.56607 3.0431,-16.73704 0,-16.29917 2.76325,-19.75237 13.62446,-17.02638 4.85571,1.21871 7.844,4.77202 9.19812,10.93732 1.62931,7.41815 3.55963,9.13216 10.28466,9.13216 11.14912,0 15.5889,5.17009 15.5488,18.10643 -0.0615,19.81073 -3.56539,33.39248 -9.0653,35.13809 -3.76251,1.19417 -5.82619,6.23645 -7.15934,17.49276 -4.09226,34.55284 -22.265,65.30792 -43.941,74.36475 -5.69662,2.38019 -13.61047,8.02191 -17.58633,12.53716 -6.71432,7.62521 -7.23576,10.74019 -7.32507,43.76089 -0.0889,32.83413 -0.56133,35.69896 -6.18236,37.48301 -4.52901,1.43743 -6.08619,4.60429 -6.08619,12.37746 l 0,10.44576 -27.38787,0 -27.38787,0 0,21.30168 0,21.30167 12.4767,0 c 10.13171,0 14.42129,1.9446 22.82322,10.34653 18.28971,18.28971 15.54791,20.40305 -25.19526,19.42025 l -35.54175,-0.85736 0.77289,-35.75638 0.77291,-35.75639 -52.33446,0 -52.33445,0 1.30197,36.51716 1.30197,36.51716 -34.22136,0 c -18.82176,0 -34.8261,-1.02704 -35.56521,-2.28232 z m 50.33296,-6.0509 c -8.84305,-0.61668 -22.53698,-0.6102 -30.43097,0.0152 -7.89398,0.62377 -0.65876,1.12829 16.07827,1.12038 16.73703,-0.009 23.19575,-0.51894 14.3527,-1.1356 z m 168.99387,0.009 c -7.95009,-0.62687 -20.95933,-0.62687 -28.90942,0 -7.95009,0.62688 -1.44547,1.13977 14.45471,1.13977 15.90018,0 22.4048,-0.51289 14.45471,-1.13977 z M 262.9589,942.58525 c 0,-5.99949 -1.53216,-9.12929 -4.46914,-9.12929 -2.45802,0 -3.81019,1.71175 -3.00482,3.80387 1.08609,2.82138 -2.70346,3.54421 -14.67182,2.79853 -12.77498,-0.79595 -17.69549,0.29213 -23.62227,5.22417 l -7.48614,6.22953 26.6271,0.10124 26.62709,0.10124 0,-9.12929 z m 161.31696,2.62541 c -6.13732,-5.10553 -10.60279,-6.05032 -23.52923,-4.97836 -13.03051,1.08057 -15.33842,0.5809 -12.5934,-2.72664 2.54504,-3.06656 2.24621,-4.0497 -1.23093,-4.0497 -2.77558,0 -5.12183,3.61103 -5.93175,9.12929 l -1.33988,9.12929 26.10003,-0.10133 26.10006,-0.10134 -7.5749,-6.3014 z M 262.9589,924.32667 c 0,-1.6737 -1.97327,-3.04309 -4.38505,-3.04309 -2.41178,0 -5.23138,1.36939 -6.26579,3.04309 -1.0344,1.67371 0.93887,3.0431 4.38505,3.0431 3.44619,0 6.26579,-1.36939 6.26579,-3.0431 z m 127.81006,0 c 0,-1.6737 -2.05409,-3.04309 -4.56465,-3.04309 -2.51055,0 -4.56464,1.36939 -4.56464,3.04309 0,1.67371 2.05409,3.0431 4.56464,3.0431 2.51056,0 4.56465,-1.36939 4.56465,-3.0431 z M 262.9589,915.19738 c 0,-1.6737 -2.8196,-3.04309 -6.26579,-3.04309 -3.44618,0 -5.41945,1.36939 -4.38505,3.04309 1.03441,1.67371 3.85401,3.0431 6.26579,3.0431 2.41178,0 4.38505,-1.36939 4.38505,-3.0431 z m 127.81006,0 c 0,-1.6737 -2.05409,-3.04309 -4.56465,-3.04309 -2.51055,0 -4.56464,1.36939 -4.56464,3.04309 0,1.67371 2.05409,3.0431 4.56464,3.0431 2.51056,0 4.56465,-1.36939 4.56465,-3.0431 z M 262.9589,903.025 c 0,-1.67371 -1.97327,-3.0431 -4.38505,-3.0431 -2.41178,0 -5.23138,1.36939 -6.26579,3.0431 -1.0344,1.6737 0.93887,3.04309 4.38505,3.04309 3.44619,0 6.26579,-1.36939 6.26579,-3.04309 z m 127.81006,0 c 0,-1.67371 -2.05409,-3.0431 -4.56465,-3.0431 -2.51055,0 -4.56464,1.36939 -4.56464,3.0431 0,1.6737 2.05409,3.04309 4.56464,3.04309 2.51056,0 4.56465,-1.36939 4.56465,-3.04309 z m -255.62012,-4.56465 c 0,-2.51055 -1.36939,-4.56464 -3.04309,-4.56464 -1.6737,0 -3.0431,-2.73879 -3.0431,-6.0862 0,-3.3474 1.3694,-6.08619 3.0431,-6.08619 1.6737,0 3.04309,1.64327 3.04309,3.65172 0,2.7648 0.85512,2.7966 3.52085,0.13085 2.4572,-2.45721 2.65717,-6.54817 0.66194,-13.54178 -2.66404,-9.33786 -3.85361,-10.08482 -17.45122,-10.9581 -8.14632,-0.5232 -16.50423,0.64958 -18.92051,2.65492 -4.435967,3.68154 -6.2645,33.37029 -2.29948,37.3353 1.1158,1.11584 9.33216,2.02877 18.25858,2.02877 12.3978,0 16.22984,-1.07778 16.22984,-4.56465 z m 126.28851,-4.56464 c 1.03441,-1.67371 -0.25416,-3.0431 -2.8635,-3.0431 -2.60933,0 -4.74424,1.36939 -4.74424,3.0431 0,1.6737 1.28858,3.04309 2.8635,3.04309 1.57493,0 3.70984,-1.36939 4.74424,-3.04309 z m 129.33161,0 c 0,-1.67371 -2.05409,-3.0431 -4.56465,-3.0431 -2.51055,0 -4.56464,1.36939 -4.56464,3.0431 0,1.6737 2.05409,3.04309 4.56464,3.04309 2.51056,0 4.56465,-1.36939 4.56465,-3.04309 z m 53.25419,-13.69394 c 0,-1.96514 -43.38713,-3.32479 -122.48464,-3.83838 -108.00585,-0.70131 -122.48464,-0.24755 -122.48464,3.83838 0,4.08594 14.47879,4.53969 122.48464,3.83838 79.09751,-0.51358 122.48464,-1.87324 122.48464,-3.83838 z m -1.52194,-9.89006 c -2.2e-4,-1.25528 -54.77611,-2.28232 -121.72421,-2.28232 -66.9481,0 -121.72367,1.02704 -121.72348,2.28232 1.9e-4,1.25528 54.77609,2.28232 121.72422,2.28232 66.94812,0 121.72368,-1.02704 121.72347,-2.28232 z M 457.71708,855.857 c 0,-3.98907 -17.07515,-4.56464 -135.41779,-4.56464 -118.34265,0 -135.4178,0.57557 -135.4178,4.56464 0,3.98907 17.07515,4.56464 135.4178,4.56464 118.34264,0 135.41779,-0.57557 135.41779,-4.56464 z m -337.21314,-3.60032 c -2.19673,-0.87906 -4.8214,-0.77097 -5.8326,0.2401 -1.01119,1.01122 0.78613,1.73043 3.99406,1.5983 3.54504,-0.14607 4.26612,-0.8671 1.83854,-1.83852 z m 5.51562,-11.83828 c 0,-2.83386 -2.07044,-4.38626 -5.07325,-3.80387 -7.63443,1.48061 -8.6827,8.59163 -1.26654,8.59163 3.73795,0 6.33979,-1.9649 6.33979,-4.78776 z m 97.37909,0.0718 c 0,-3.57098 -1.27378,-4.00301 -5.24684,-1.77957 -11.92152,6.67163 -21.84167,-9.25838 -11.24309,-18.05442 3.78851,-3.14419 6.05345,-3.21795 10.65084,-0.34682 5.64711,3.52677 5.83909,2.31245 5.83909,-36.93388 l 0,-40.58056 -8.76892,1.28701 c -10.32685,1.51565 -13.85196,-2.75689 -11.15158,-13.51605 1.69196,-6.74133 3.1594,-7.5449 10.93732,-5.98932 6.70068,1.34014 8.98318,0.65616 8.98318,-2.69193 0,-2.8983 -3.05015,-4.48857 -8.60912,-4.48857 -7.31797,0 -9.59625,2.16782 -15.19125,14.45471 -9.87218,21.6798 -12.56039,38.18004 -12.6424,77.59897 l -0.0744,35.75638 18.25858,0 c 14.46131,0 18.25858,-0.98076 18.25858,-4.71585 z m 188.67198,-59.18908 0,-63.90503 -91.29289,0 -91.2929,0 0,63.90503 0,63.90503 91.2929,0 91.29289,0 0,-63.90503 z m -111.22389,50.49532 c -12.41382,-5.40712 -24.82534,-20.673 -28.79581,-35.4182 -9.56395,-35.51783 25.34515,-70.29728 60.93915,-60.71281 25.60396,6.89443 42.52877,32.00382 38.46237,57.06216 -5.20881,32.09812 -41.06222,51.93719 -70.60571,39.06885 z m 40.08898,-8.07489 c 31.92404,-15.45415 32.5297,-61.1857 1.02612,-77.47684 -11.30636,-5.84675 -31.24988,-5.74951 -42.77147,0.20854 -21.7096,11.22647 -28.63278,46.63053 -12.79834,65.44871 15.29647,18.17882 33.33327,22.0874 54.54369,11.8196 z m -37.46904,-11.84254 c -12.52302,-7.63583 -17.69894,-24.11128 -11.88691,-37.83719 8.19601,-19.35599 25.52017,-26.64648 43.28612,-18.21599 22.93998,10.88573 25.39085,40.99025 4.48118,55.04315 -12.6437,8.49751 -23.11713,8.79232 -35.88039,1.01003 z m 33.40406,-6.27021 c 10.17351,-8.00246 13.01739,-21.27894 7.03578,-32.84609 -5.21933,-10.09307 -10.22829,-12.76326 -23.94231,-12.76326 -18.79749,0 -29.932,21.91425 -20.28922,39.93197 6.52172,12.18592 25.28129,15.0493 37.19575,5.67738 z m 119.3513,0.94534 c -2.23683,-39.2881 -6.96218,-64.01735 -15.32153,-80.18256 -3.56113,-6.88648 -6.74801,-8.97549 -13.69254,-8.97549 -7.29668,0 -9.05114,1.29771 -9.05114,6.69482 0,5.20707 0.8115,5.88332 3.65171,3.04309 9.11143,-9.11143 23.49146,1.23368 17.24073,12.40313 -3.39062,6.0587 -16.60691,7.06896 -18.87706,1.44296 -0.84419,-2.09213 -1.643,15.72159 -1.77513,39.58603 -0.23036,41.63194 -0.009,43.24612 5.44282,39.84077 7.88798,-4.9261 15.6186,-1.1673 15.6186,7.59411 0,10.3094 -6.98144,15.52567 -15.02096,11.22306 -5.07778,-2.71754 -6.28071,-2.46658 -6.28071,1.31039 0,3.72947 4.06065,4.6717 20.13291,4.6717 l 20.13292,0 -2.20062,-38.65201 z m -237.22417,26.21448 c 2.8634,-4.63308 -3.35475,-10.04246 -9.03731,-7.86187 -2.73395,1.04914 -3.96272,3.77837 -2.92206,6.49029 2.0769,5.4123 8.97325,6.20323 11.95937,1.37158 z m 215.89599,-2.77795 c 0,-2.46473 -2.39644,-4.94281 -5.32542,-5.50688 -3.73647,-0.71957 -5.32542,0.92352 -5.32542,5.50688 0,4.58336 1.58895,6.22645 5.32542,5.50688 2.92898,-0.56407 5.32542,-3.04216 5.32542,-5.50688 z M 127.08262,828.5666 c 2.14614,-5.59275 -3.55946,-9.46914 -7.75788,-5.27073 -3.24823,3.24823 -0.91189,9.73791 3.50574,9.73791 1.39585,0 3.30932,-2.01024 4.25214,-4.46718 z m 5.02313,-14.98737 c 0,-6.84937 -8.34799,-8.20662 -10.06609,-1.63655 -1.12135,4.28803 0.031,5.87561 4.26479,5.87561 3.19071,0 5.8013,-1.90759 5.8013,-4.23906 z m 4.72852,-11.24157 c 1.12453,-1.81955 0.46363,-4.88922 -1.46867,-6.82152 -2.65565,-2.65565 -4.1762,-2.44069 -6.22887,0.88061 -2.90043,4.693 -1.43788,9.24916 2.96902,9.24916 1.47615,0 3.60398,-1.48872 4.72852,-3.30825 z m 9.12929,-12.17238 c 3.13597,-5.07412 -3.9171,-10.8928 -8.11509,-6.69482 -3.5115,3.51149 -1.31377,10.00306 3.38657,10.00306 1.47615,0 3.60398,-1.48871 4.72852,-3.30824 z m 11.42367,-13.85553 c -0.94715,-2.46822 -3.71147,-3.72429 -6.14293,-2.79125 -2.43146,0.93305 -5.16122,1.69644 -6.06611,1.69644 -0.90491,0 -0.008,1.97269 1.99292,4.38376 4.50919,5.43324 12.56761,2.83894 10.21612,-3.28895 z m 24.08703,-6.42023 c 1.51109,-16.90835 1.02333,-18.13426 -5.17007,-12.99419 -4.63024,3.84275 -6.45089,21.57874 -2.60945,25.42016 4.53633,4.53634 6.55123,1.31802 7.77952,-12.42597 z m 289.85712,-3.80387 c -4.77249,-19.38911 -12.17747,-15.23249 -9.12512,5.12216 2.04116,13.61132 2.45882,14.15074 6.58852,8.50909 2.65242,-3.62357 3.66309,-9.05466 2.5366,-13.63125 z m 24.33004,-6.23888 c -3.25933,-5.2737 -10.55647,-2.99062 -10.55647,3.30285 0,5.27878 0.91126,5.70557 6.17143,2.89041 3.39427,-1.81656 5.36757,-4.60353 4.38504,-6.19326 z m 9.22366,-5.93351 c 3.27699,-5.30227 -1.58025,-9.8258 -6.32361,-5.88915 -2.34313,1.94461 -3.50979,4.7499 -2.59257,6.23396 2.21988,3.59182 6.5876,3.42292 8.91618,-0.34481 z m 9.33957,-12.51261 c 1.15005,-1.86083 0.2401,-4.52733 -2.02241,-5.92556 -4.3352,-2.6793 -9.61098,2.55429 -6.93677,6.88126 2.14139,3.46487 6.51548,2.99827 8.95918,-0.9557 z m -295.76753,-4.33961 c 1.98744,-5.17918 -4.99335,-9.2346 -10.276,-5.96974 -2.39299,1.47895 -2.32883,3.27641 0.22689,6.35585 4.61544,5.56126 7.81406,5.43836 10.04912,-0.38611 z m 217.42063,-2.4193 c 0.66343,-3.4207 -1.07126,-5.07325 -5.32542,-5.07325 -3.4701,0 -6.30931,1.82586 -6.30931,4.05746 0,9.32022 9.85729,10.18083 11.63473,1.01579 z m 83.76434,-6.49734 c 2.14611,-5.59275 -3.55948,-9.46914 -7.75789,-5.27072 -3.24823,3.24823 -0.91189,9.73791 3.50574,9.73791 1.39587,0 3.30931,-2.01024 4.25215,-4.46719 z m 5.02312,-14.98736 c 0,-2.33149 -2.05409,-5.0273 -4.56465,-5.99069 -3.10484,-1.19144 -4.56464,0.16424 -4.56464,4.23907 0,3.29632 2.05299,5.99068 4.56464,5.99068 2.51056,0 4.56465,-1.90758 4.56465,-4.23906 z m -91.2929,-1.79384 c 0,-2.04408 -38.3261,-3.09639 -112.77417,-3.09639 -71.07271,0 -112.10825,1.07748 -110.97332,2.91384 2.53805,4.10664 223.74749,4.28713 223.74749,0.18255 z m 0,-9.18258 c 0,-1.9739 -39.56025,-3.0431 -112.59457,-3.0431 -73.03432,0 -112.59458,1.0692 -112.59458,3.0431 0,1.9739 39.56026,3.0431 112.59458,3.0431 73.03432,0 112.59457,-1.0692 112.59457,-3.0431 z m 94.28941,-6.84697 c 0.0724,-3.55288 -8.47615,-2.68256 -10.81453,1.101 -1.15005,1.86083 -0.2401,4.52733 2.02241,5.92556 3.86126,2.38639 8.67852,-1.46354 8.79212,-7.02656 z m -94.88643,-33.47406 c -1.98319,-49.8157 -12.38949,-70.85679 -42.66595,-86.2687 -16.90797,-8.60682 -23.68515,-9.22981 -23.68515,-2.17723 0,15.82563 -27.44831,25.49399 -38.79949,13.66669 -5.13639,-5.35185 -5.6061,-5.22223 -13.23336,3.65171 -6.01649,6.99989 -10.47123,9.20051 -18.62463,9.20051 -14.14709,0 -26.48991,-8.42722 -28.72725,-19.61391 -0.98903,-4.94516 -3.41305,-8.99119 -5.38671,-8.99119 -7.35906,0 -31.44044,17.88467 -37.68406,27.98706 -9.07392,14.68191 -15.6876,45.43654 -15.74055,73.1959 l -0.045,23.584 112.9775,0 112.97751,0 -1.36288,-34.23484 z m -145.78237,15.15483 c -15.16778,-10.13274 -20.98059,-24.02355 -20.98619,-50.15044 -0.005,-24.68409 0.72938,-25.30593 20.16454,-17.06778 15.42321,6.53757 50.59715,6.38778 70.73592,-0.30127 8.50654,-2.82542 17.04899,-4.15905 18.98322,-2.96364 5.77038,3.5663 1.14371,41.97508 -6.74758,56.01576 -9.04868,16.09998 -21.17462,21.37499 -49.13575,21.37499 -18.50729,0 -24.57425,-1.2694 -33.01416,-6.90762 z m 30.74172,-47.5132 c 0,-3.37113 -2.81958,-6.48689 -6.84697,-7.56619 -12.17415,-3.26254 -17.4978,-2.1487 -17.4978,3.66099 0,7.86141 2.61589,9.63647 14.20112,9.63647 7.90553,0 10.14365,-1.26456 10.14365,-5.73127 z m 30.43097,-2.25685 c 0,-7.32372 -0.79097,-7.82994 -9.50968,-6.0862 -5.23032,1.04607 -10.7079,1.90194 -12.17239,1.90194 -1.46449,0 -2.66271,2.73878 -2.66271,6.08619 0,5.07183 2.02874,6.08619 12.17239,6.08619 11.10972,0 12.17239,-0.69737 12.17239,-7.98812 z m -59.2676,-1.3705 c 1.10246,-3.47353 1.53709,-6.61974 0.96584,-6.99157 -0.57124,-0.37182 -4.80446,-2.29336 -9.40714,-4.27007 -8.03369,-3.45023 -8.36852,-3.2403 -8.36852,5.24689 0,8.11002 2.21026,10.1899 12.72809,11.97728 1.14249,0.19415 2.97927,-2.48899 4.08173,-5.96253 z m 80.04696,1.64156 c 1.34276,-1.17552 2.98631,-16.62771 1.76858,-16.62771 -0.52794,0 -4.44782,1.5892 -8.71082,3.53156 -10.51836,4.79249 -11.3331,19.28136 -0.90396,16.0756 3.76583,-1.15756 7.29661,-2.49831 7.8462,-2.97945 z m 158.76334,59.44971 c 0,-1.67371 -2.0541,-3.0431 -4.56465,-3.0431 -2.51055,0 -4.56464,1.36939 -4.56464,3.0431 0,1.6737 2.05409,3.04309 4.56464,3.04309 2.51055,0 4.56465,-1.36939 4.56465,-3.04309 z m 12.17238,-13.69394 c 0,-3.1672 -3.18451,-4.56464 -10.40194,-4.56464 -12.70886,0 -20.56954,-2.74971 -18.31041,-6.40507 0.92602,-1.49832 4.34165,-2.72422 7.59028,-2.72422 3.87785,0 5.90659,-2.09042 5.90659,-6.0862 0,-5.07182 -2.02874,-6.08619 -12.17239,-6.08619 -11.55415,0 -12.17238,0.47384 -12.17238,9.32935 0,17.05249 4.40004,21.10162 22.93028,21.10162 12.75346,0 16.62997,-1.06404 16.62997,-4.56465 z m 1.52155,-22.82322 c 0,-13.22523 -0.33851,-13.72657 -9.89006,-14.64752 -10.58895,-1.02096 -12.72797,2.41777 -5.32542,8.56132 5.93169,4.92287 5.78358,10.51873 -0.44323,16.74554 -4.64842,4.64843 -4.26621,4.93705 5.32542,4.02123 10.07195,-0.96168 10.33329,-1.33295 10.33329,-14.68057 z m -25.86632,-22.82323 c 0,-10.14365 -1.18343,-13.69393 -4.56465,-13.69393 -3.38121,0 -4.56464,3.55028 -4.56464,13.69393 0,10.14366 1.18343,13.69394 4.56464,13.69394 3.38122,0 4.56465,-3.55028 4.56465,-13.69394 z M 311.42758,584.61101 c 9.04832,-11.50307 8.11044,-24.12072 -2.58815,-34.81931 -4.89236,-4.89236 -11.84466,-8.8952 -15.44956,-8.8952 -9.76555,0 -24.34478,16.01568 -24.34478,26.7434 0,14.29874 10.4148,24.98924 24.34478,24.98924 9.04827,0 13.17285,-1.83346 18.03771,-8.01813 z m -11.95152,-16.32664 c 0,-1.6737 1.36939,-3.0431 3.0431,-3.0431 1.6737,0 3.04309,1.3694 3.04309,3.0431 0,1.6737 -1.36939,3.0431 -3.04309,3.0431 -1.67371,0 -3.0431,-1.3694 -3.0431,-3.0431 z m 55.5491,14.45471 c 2.73884,-2.09213 5.87052,-7.50079 6.95928,-12.01925 1.53508,-6.37066 0.23691,-9.95804 -5.78131,-15.97626 -4.26848,-4.26848 -9.93946,-7.76088 -12.60217,-7.76088 -6.89478,0 -19.78013,13.78643 -19.78013,21.16335 0,14.0952 19.7591,23.33575 31.20433,14.59304 z m -22.07504,-14.45471 c 0,-1.6737 2.05409,-3.0431 4.56465,-3.0431 2.51055,0 4.56464,1.3694 4.56464,3.0431 0,1.6737 -2.05409,3.0431 -4.56464,3.0431 -2.51056,0 -4.56465,-1.3694 -4.56465,-3.0431 z m -86.72825,0.38417 c 5.41848,-3.1257 5.16808,-3.30317 -2.28232,-1.61763 -6.99922,1.58347 -8.36852,0.88414 -8.36852,-4.27395 0,-15.88174 6.74608,-19.38124 22.01092,-11.41808 5.56239,2.90172 8.96711,3.28676 10.27993,1.16257 2.38134,-3.85309 -3.03954,-7.59931 -16.5416,-11.43142 -17.46697,-4.95742 -21.71136,0.2824 -21.79389,26.90521 -0.0387,12.49545 0.31971,13.09205 5.28387,8.7945 2.92898,-2.53567 8.0642,-6.19021 11.41161,-8.1212 z m 167.51802,-7.8636 c -2.7945,-22.36637 -7.80931,-25.1231 -30.35613,-16.68726 -20.1898,7.55398 -23.02298,10.99662 -12.37993,15.0431 10.22533,3.88766 10.0348,3.92682 9.53695,-1.9605 -0.4733,-5.5968 13.87372,-11.80531 20.97941,-9.0786 2.61542,1.00363 4.46425,5.68048 4.46425,11.29281 0,9.99035 -0.53001,10.12798 -16.73703,4.34597 -3.34741,-1.19422 0.76077,1.93184 9.12929,6.94679 8.36852,5.01496 15.72344,8.6381 16.34429,8.05142 0.62082,-0.58668 0.17924,-8.66586 -0.9811,-17.95373 z m -150.78099,1.39324 c 2.51056,-1.62245 3.19525,-2.9499 1.52155,-2.9499 -1.6737,0 -5.09719,1.32745 -7.60774,2.9499 -2.51056,1.62244 -3.19525,2.94989 -1.52155,2.94989 1.6737,0 5.09719,-1.32745 7.60774,-2.94989 z m -13.94282,-1.84713 c 6.7995,-2.60921 5.98283,-7.28216 -1.27266,-7.28216 -3.38122,0 -6.08619,2.02873 -6.08619,4.56464 0,5.12169 0.55733,5.32751 7.35885,2.71752 z m 151.98264,-2.71752 c -1.88611,-4.9151 -13.27286,-6.41186 -13.27286,-1.74468 0,2.42804 4.81239,4.66086 12.83767,5.95632 1.20272,0.19415 1.39858,-1.70108 0.43519,-4.21164 z m -57.39776,-25.03488 c -12.13971,-1.72835 -14.55545,-4.57618 -9.61417,-11.33379 6.11813,-8.36704 20.26501,-4.18149 20.26501,5.99568 0,4.15237 -0.34235,7.34459 -0.76077,7.09381 -0.41843,-0.25078 -4.86896,-1.04084 -9.89007,-1.7557 z m -56.63168,-13.7646 c 3.17403,-8.64945 19.84024,-11.35149 22.77905,-3.69309 2.99055,7.79327 -0.50074,10.54006 -13.3969,10.54006 -11.05101,0 -11.71651,-0.48567 -9.38215,-6.84697 z"
       id="path3002"
       style="fill:#000000" />
  </g>
</svg>
