<?xml version="1.0" encoding="UTF-8" standalone="no"?>
<!-- Created with Inkscape (http://www.inkscape.org/) -->

<svg
   xmlns:dc="http://purl.org/dc/elements/1.1/"
   xmlns:cc="http://creativecommons.org/ns#"
   xmlns:rdf="http://www.w3.org/1999/02/22-rdf-syntax-ns#"
   xmlns:svg="http://www.w3.org/2000/svg"
   xmlns="http://www.w3.org/2000/svg"
   version="1.1"
   width="3296.5625"
   height="805"
   id="svg2">
  <metadata
     id="metadata570">
    <rdf:RDF>
      <cc:Work
         rdf:about="">
        <dc:format>image/svg+xml</dc:format>
        <dc:type
           rdf:resource="http://purl.org/dc/dcmitype/StillImage" />
        <dc:title></dc:title>
        <dc:creator>
          <cc:Agent>
            <dc:title>Dan Newman</dc:title>
          </cc:Agent>
        </dc:creator>
        <dc:subject>
          <rdf:Bag>
            <rdf:li>eggbot</rdf:li>
          </rdf:Bag>
        </dc:subject>
        <dc:description>A drawing intended for plotting with an Eggbot.  See http://www.egg-bot.com/ for details.</dc:description>
        <cc:license
           rdf:resource="http://creativecommons.org/licenses/publicdomain/" />
      </cc:Work>
      <cc:License
         rdf:about="http://creativecommons.org/licenses/publicdomain/">
        <cc:permits
           rdf:resource="http://creativecommons.org/ns#Reproduction" />
        <cc:permits
           rdf:resource="http://creativecommons.org/ns#Distribution" />
        <cc:permits
           rdf:resource="http://creativecommons.org/ns#DerivativeWorks" />
      </cc:License>
    </rdf:RDF>
  </metadata>
  <defs
     id="defs568" />
  <g
     transform="matrix(53.333333,0,0,33.777774,88.28125,43.5)"
     id="g4"
     style="fill:none;stroke:#000000;stroke-width:0.01875" />
  <g
     transform="translate(88.28125,2.5)"
     id="layer1">
    <path
       d="m 1600,800 10,0 m -10,-800 10,0 m 1510,70.666716 -26.6667,33.777774 -53.3333,16.88888 53.3333,16.88889 26.6667,33.77777 26.6666,-33.77777 53.3334,-16.88889 -53.3334,-16.88888 -53.3333,0 0,33.77777 53.3333,0 0,-33.77777 L 3120,70.666716 m 0,101.333314 -26.6667,33.77778 -53.3333,16.88888 53.3333,16.88889 26.6667,33.77778 26.6666,-33.77778 53.3334,-16.88889 -53.3334,-16.88888 -53.3333,0 0,33.77777 53.3333,0 0,-33.77777 L 3120,172.00003 m 0,101.33333 -26.6667,33.77777 L 3040,324.00002 3093.3333,340.8889 3120,374.66668 3146.6666,340.8889 3200,324.00002 l -53.3334,-16.88889 -53.3333,0 0,33.77777 53.3333,0 0,-33.77777 L 3120,273.33336 m 0,101.33332 -26.6667,33.77774 L 3040,425.33331 3093.3333,442.2222 3120,475.99997 3146.6666,442.2222 3200,425.33331 l -53.3334,-16.88889 -53.3333,0 0,33.77778 53.3333,0 0,-33.77778 L 3120,374.66668 m 0,101.33329 -26.6667,33.77777 -53.3333,16.88889 53.3333,16.88889 26.6667,33.77777 26.6666,-33.77777 53.3334,-16.88889 -53.3334,-16.88889 -53.3333,0 0,33.77778 53.3333,0 0,-33.77778 L 3120,475.99997 m 0,101.33332 -26.6667,33.77778 -53.3333,16.88888 53.3333,16.88889 26.6667,33.77777 26.6666,-33.77777 53.3334,-16.88889 -53.3334,-16.88888 -53.3333,0 0,33.77777 53.3333,0 0,-33.77777 L 3120,577.33329 m 0,101.33332 -26.6667,33.77778 -53.3333,16.88888 53.3333,16.88889 26.6667,33.77778 26.6666,-33.77778 53.3334,-16.88889 -53.3334,-16.88888 -53.3333,0 0,33.77777 53.3333,0 0,-33.77777 L 3120,678.66661 m -80,-50.66666 -26.6667,33.77778 L 2960,678.66661 3013.3333,695.5555 3040,729.33327 3066.6666,695.5555 3120,678.66661 l -53.3334,-16.88888 -53.3333,0 0,33.77777 53.3333,0 0,-33.77777 L 3040,627.99995 m 0,-101.33332 -26.6667,33.77777 -53.3333,16.88889 53.3333,16.88889 26.6667,33.77777 26.6666,-33.77777 53.3334,-16.88889 -53.3334,-16.88889 -53.3333,0 0,33.77778 53.3333,0 0,-33.77778 L 3040,526.66663 m 0,-101.33332 -26.6667,33.77777 -53.3333,16.88889 53.3333,16.88889 26.6667,33.77777 26.6666,-33.77777 53.3334,-16.88889 -53.3334,-16.88889 -53.3333,0 0,33.77778 53.3333,0 0,-33.77778 L 3040,425.33331 m 0,-101.33329 -26.6667,33.77777 -53.3333,16.88889 53.3333,16.88889 26.6667,33.77774 26.6666,-33.77774 53.3334,-16.88889 -53.3334,-16.88889 -53.3333,0 0,33.77778 53.3333,0 0,-33.77778 L 3040,324.00002 m 0,-101.33333 -26.6667,33.77778 -53.3333,16.88889 53.3333,16.88888 26.6667,33.77778 26.6666,-33.77778 53.3334,-16.88888 -53.3334,-16.88889 -53.3333,0 0,33.77777 53.3333,0 0,-33.77777 L 3040,222.66669 m 0,-101.33332 -26.6667,33.77778 -53.3333,16.88888 53.3333,16.88889 26.6667,33.77777 26.6666,-33.77777 53.3334,-16.88889 -53.3334,-16.88888 -53.3333,0 0,33.77777 53.3333,0 0,-33.77777 L 3040,121.33337 M 3040,20.000053 3013.3333,53.777829 2960,70.666716 3013.3333,87.555602 3040,121.33337 3066.6666,87.555602 3120,70.666716 l -53.3334,-16.888887 -53.3333,0 0,33.777773 53.3333,0 0,-33.777773 L 3040,20.000053 m -80,50.666663 -26.6667,33.777774 -53.3333,16.88888 53.3333,16.88889 26.6667,33.77777 26.6666,-33.77777 53.3334,-16.88889 -53.3334,-16.88888 -53.3333,0 0,33.77777 53.3333,0 0,-33.77777 L 2960,70.666716 m 0,101.333314 -26.6667,33.77778 -53.3333,16.88888 53.3333,16.88889 26.6667,33.77778 26.6666,-33.77778 53.3334,-16.88889 -53.3334,-16.88888 -53.3333,0 0,33.77777 53.3333,0 0,-33.77777 L 2960,172.00003 m 0,101.33333 -26.6667,33.77777 L 2880,324.00002 2933.3333,340.8889 2960,374.66668 2986.6666,340.8889 3040,324.00002 l -53.3334,-16.88889 -53.3333,0 0,33.77777 53.3333,0 0,-33.77777 L 2960,273.33336 m 0,101.33332 -26.6667,33.77774 L 2880,425.33331 2933.3333,442.2222 2960,475.99997 2986.6666,442.2222 3040,425.33331 l -53.3334,-16.88889 -53.3333,0 0,33.77778 53.3333,0 0,-33.77778 L 2960,374.66668 m 0,101.33329 -26.6667,33.77777 -53.3333,16.88889 53.3333,16.88889 26.6667,33.77777 26.6666,-33.77777 53.3334,-16.88889 -53.3334,-16.88889 -53.3333,0 0,33.77778 53.3333,0 0,-33.77778 L 2960,475.99997 m 0,101.33332 -26.6667,33.77778 -53.3333,16.88888 53.3333,16.88889 26.6667,33.77777 26.6666,-33.77777 53.3334,-16.88889 -53.3334,-16.88888 -53.3333,0 0,33.77777 53.3333,0 0,-33.77777 L 2960,577.33329 m 0,101.33332 -26.6667,33.77778 -53.3333,16.88888 53.3333,16.88889 26.6667,33.77778 26.6666,-33.77778 53.3334,-16.88889 -53.3334,-16.88888 -53.3333,0 0,33.77777 53.3333,0 0,-33.77777 L 2960,678.66661 m -80,-50.66666 -26.6667,33.77778 L 2800,678.66661 2853.3333,695.5555 2880,729.33327 2906.6666,695.5555 2960,678.66661 l -53.3334,-16.88888 -53.3333,0 0,33.77777 53.3333,0 0,-33.77777 L 2880,627.99995 m 0,-101.33332 -26.6667,33.77777 -53.3333,16.88889 53.3333,16.88889 26.6667,33.77777 26.6666,-33.77777 53.3334,-16.88889 -53.3334,-16.88889 -53.3333,0 0,33.77778 53.3333,0 0,-33.77778 L 2880,526.66663 m 0,-101.33332 -26.6667,33.77777 -53.3333,16.88889 53.3333,16.88889 26.6667,33.77777 26.6666,-33.77777 53.3334,-16.88889 -53.3334,-16.88889 -53.3333,0 0,33.77778 53.3333,0 0,-33.77778 L 2880,425.33331 m 0,-101.33329 -26.6667,33.77777 -53.3333,16.88889 53.3333,16.88889 26.6667,33.77774 26.6666,-33.77774 53.3334,-16.88889 -53.3334,-16.88889 -53.3333,0 0,33.77778 53.3333,0 0,-33.77778 L 2880,324.00002 m 0,-101.33333 -26.6667,33.77778 -53.3333,16.88889 53.3333,16.88888 26.6667,33.77778 26.6666,-33.77778 53.3334,-16.88888 -53.3334,-16.88889 -53.3333,0 0,33.77777 53.3333,0 0,-33.77777 L 2880,222.66669 m 0,-101.33332 -26.6667,33.77778 -53.3333,16.88888 53.3333,16.88889 26.6667,33.77777 26.6666,-33.77777 53.3334,-16.88889 -53.3334,-16.88888 -53.3333,0 0,33.77777 53.3333,0 0,-33.77777 L 2880,121.33337 M 2880,20.000053 2853.3333,53.777829 2800,70.666716 2853.3333,87.555602 2880,121.33337 2906.6666,87.555602 2960,70.666716 l -53.3334,-16.888887 -53.3333,0 0,33.777773 53.3333,0 0,-33.777773 L 2880,20.000053 m -80,50.666663 -26.6667,33.777774 -53.3333,16.88888 53.3333,16.88889 26.6667,33.77777 26.6666,-33.77777 53.3334,-16.88889 -53.3334,-16.88888 -53.3333,0 0,33.77777 53.3333,0 0,-33.77777 L 2800,70.666716 m 0,101.333314 -26.6667,33.77778 -53.3333,16.88888 53.3333,16.88889 26.6667,33.77778 26.6666,-33.77778 53.3334,-16.88889 -53.3334,-16.88888 -53.3333,0 0,33.77777 53.3333,0 0,-33.77777 L 2800,172.00003 m 0,101.33333 -26.6667,33.77777 L 2720,324.00002 2773.3333,340.8889 2800,374.66668 2826.6666,340.8889 2880,324.00002 l -53.3334,-16.88889 -53.3333,0 0,33.77777 53.3333,0 0,-33.77777 L 2800,273.33336 m 0,101.33332 -26.6667,33.77774 L 2720,425.33331 2773.3333,442.2222 2800,475.99997 2826.6666,442.2222 2880,425.33331 l -53.3334,-16.88889 -53.3333,0 0,33.77778 53.3333,0 0,-33.77778 L 2800,374.66668 m 0,101.33329 -26.6667,33.77777 -53.3333,16.88889 53.3333,16.88889 26.6667,33.77777 26.6666,-33.77777 53.3334,-16.88889 -53.3334,-16.88889 -53.3333,0 0,33.77778 53.3333,0 0,-33.77778 L 2800,475.99997 m 0,101.33332 -26.6667,33.77778 -53.3333,16.88888 53.3333,16.88889 26.6667,33.77777 26.6666,-33.77777 53.3334,-16.88889 -53.3334,-16.88888 -53.3333,0 0,33.77777 53.3333,0 0,-33.77777 L 2800,577.33329 m 0,101.33332 -26.6667,33.77778 -53.3333,16.88888 53.3333,16.88889 26.6667,33.77778 26.6666,-33.77778 53.3334,-16.88889 -53.3334,-16.88888 -53.3333,0 0,33.77777 53.3333,0 0,-33.77777 L 2800,678.66661 m -80,-50.66666 -26.6667,33.77778 L 2640,678.66661 2693.3333,695.5555 2720,729.33327 2746.6666,695.5555 2800,678.66661 l -53.3334,-16.88888 -53.3333,0 0,33.77777 53.3333,0 0,-33.77777 L 2720,627.99995 m 0,-101.33332 -26.6667,33.77777 -53.3333,16.88889 53.3333,16.88889 26.6667,33.77777 26.6666,-33.77777 53.3334,-16.88889 -53.3334,-16.88889 -53.3333,0 0,33.77778 53.3333,0 0,-33.77778 L 2720,526.66663 m 0,-101.33332 -26.6667,33.77777 -53.3333,16.88889 53.3333,16.88889 26.6667,33.77777 26.6666,-33.77777 53.3334,-16.88889 -53.3334,-16.88889 -53.3333,0 0,33.77778 53.3333,0 0,-33.77778 L 2720,425.33331 m 0,-101.33329 -26.6667,33.77777 -53.3333,16.88889 53.3333,16.88889 26.6667,33.77774 26.6666,-33.77774 53.3334,-16.88889 -53.3334,-16.88889 -53.3333,0 0,33.77778 53.3333,0 0,-33.77778 L 2720,324.00002 m 0,-101.33333 -26.6667,33.77778 -53.3333,16.88889 53.3333,16.88888 26.6667,33.77778 26.6666,-33.77778 53.3334,-16.88888 -53.3334,-16.88889 -53.3333,0 0,33.77777 53.3333,0 0,-33.77777 L 2720,222.66669 m 0,-101.33332 -26.6667,33.77778 -53.3333,16.88888 53.3333,16.88889 26.6667,33.77777 26.6666,-33.77777 53.3334,-16.88889 -53.3334,-16.88888 -53.3333,0 0,33.77777 53.3333,0 0,-33.77777 L 2720,121.33337 M 2720,20.000053 2693.3333,53.777829 2640,70.666716 2693.3333,87.555602 2720,121.33337 2746.6666,87.555602 2800,70.666716 l -53.3334,-16.888887 -53.3333,0 0,33.777773 53.3333,0 0,-33.777773 L 2720,20.000053 m -80,50.666663 -26.6667,33.777774 -53.3333,16.88888 53.3333,16.88889 26.6667,33.77777 26.6667,-33.77777 53.3333,-16.88889 -53.3333,-16.88888 -53.3334,0 0,33.77777 53.3334,0 0,-33.77777 L 2640,70.666716 m 0,101.333314 -26.6667,33.77778 -53.3333,16.88888 53.3333,16.88889 26.6667,33.77778 26.6667,-33.77778 53.3333,-16.88889 -53.3333,-16.88888 -53.3334,0 0,33.77777 53.3334,0 0,-33.77777 L 2640,172.00003 m 0,101.33333 -26.6667,33.77777 L 2560,324.00002 2613.3333,340.8889 2640,374.66668 2666.6667,340.8889 2720,324.00002 l -53.3333,-16.88889 -53.3334,0 0,33.77777 53.3334,0 0,-33.77777 L 2640,273.33336 m 0,101.33332 -26.6667,33.77774 L 2560,425.33331 2613.3333,442.2222 2640,475.99997 2666.6667,442.2222 2720,425.33331 l -53.3333,-16.88889 -53.3334,0 0,33.77778 53.3334,0 0,-33.77778 L 2640,374.66668 m 0,101.33329 -26.6667,33.77777 -53.3333,16.88889 53.3333,16.88889 26.6667,33.77777 26.6667,-33.77777 53.3333,-16.88889 -53.3333,-16.88889 -53.3334,0 0,33.77778 53.3334,0 0,-33.77778 L 2640,475.99997 m 0,101.33332 -26.6667,33.77778 -53.3333,16.88888 53.3333,16.88889 26.6667,33.77777 26.6667,-33.77777 53.3333,-16.88889 -53.3333,-16.88888 -53.3334,0 0,33.77777 53.3334,0 0,-33.77777 L 2640,577.33329 m 0,101.33332 -26.6667,33.77778 -53.3333,16.88888 53.3333,16.88889 26.6667,33.77778 26.6667,-33.77778 53.3333,-16.88889 -53.3333,-16.88888 -53.3334,0 0,33.77777 53.3334,0 0,-33.77777 L 2640,678.66661 m -80,-50.66666 -26.6667,33.77778 L 2480,678.66661 2533.3333,695.5555 2560,729.33327 2586.6667,695.5555 2640,678.66661 l -53.3333,-16.88888 -53.3334,0 0,33.77777 53.3334,0 0,-33.77777 L 2560,627.99995 m 0,-101.33332 -26.6667,33.77777 -53.3333,16.88889 53.3333,16.88889 26.6667,33.77777 26.6667,-33.77777 53.3333,-16.88889 -53.3333,-16.88889 -53.3334,0 0,33.77778 53.3334,0 0,-33.77778 L 2560,526.66663 m 0,-101.33332 -26.6667,33.77777 -53.3333,16.88889 53.3333,16.88889 26.6667,33.77777 26.6667,-33.77777 53.3333,-16.88889 -53.3333,-16.88889 -53.3334,0 0,33.77778 53.3334,0 0,-33.77778 L 2560,425.33331 m 0,-101.33329 -26.6667,33.77777 -53.3333,16.88889 53.3333,16.88889 26.6667,33.77774 26.6667,-33.77774 53.3333,-16.88889 -53.3333,-16.88889 -53.3334,0 0,33.77778 53.3334,0 0,-33.77778 L 2560,324.00002 m 0,-101.33333 -26.6667,33.77778 -53.3333,16.88889 53.3333,16.88888 26.6667,33.77778 26.6667,-33.77778 53.3333,-16.88888 -53.3333,-16.88889 -53.3334,0 0,33.77777 53.3334,0 0,-33.77777 L 2560,222.66669 m 0,-101.33332 -26.6667,33.77778 -53.3333,16.88888 53.3333,16.88889 26.6667,33.77777 26.6667,-33.77777 53.3333,-16.88889 -53.3333,-16.88888 -53.3334,0 0,33.77777 53.3334,0 0,-33.77777 L 2560,121.33337 M 2560,20.000053 2533.3333,53.777829 2480,70.666716 2533.3333,87.555602 2560,121.33337 2586.6667,87.555602 2640,70.666716 l -53.3333,-16.888887 -53.3334,0 0,33.777773 53.3334,0 0,-33.777773 L 2560,20.000053 m -80,50.666663 -26.6667,33.777774 -53.3333,16.88888 53.3333,16.88889 26.6667,33.77777 26.6667,-33.77777 53.3333,-16.88889 -53.3333,-16.88888 -53.3334,0 0,33.77777 53.3334,0 0,-33.77777 L 2480,70.666716 m 0,101.333314 -26.6667,33.77778 -53.3333,16.88888 53.3333,16.88889 26.6667,33.77778 26.6667,-33.77778 53.3333,-16.88889 -53.3333,-16.88888 -53.3334,0 0,33.77777 53.3334,0 0,-33.77777 L 2480,172.00003 m 0,101.33333 -26.6667,33.77777 L 2400,324.00002 2453.3333,340.8889 2480,374.66668 2506.6667,340.8889 2560,324.00002 l -53.3333,-16.88889 -53.3334,0 0,33.77777 53.3334,0 0,-33.77777 L 2480,273.33336 m 0,101.33332 -26.6667,33.77774 L 2400,425.33331 2453.3333,442.2222 2480,475.99997 2506.6667,442.2222 2560,425.33331 l -53.3333,-16.88889 -53.3334,0 0,33.77778 53.3334,0 0,-33.77778 L 2480,374.66668 m 0,101.33329 -26.6667,33.77777 -53.3333,16.88889 53.3333,16.88889 26.6667,33.77777 26.6667,-33.77777 53.3333,-16.88889 -53.3333,-16.88889 -53.3334,0 0,33.77778 53.3334,0 0,-33.77778 L 2480,475.99997 m 0,101.33332 -26.6667,33.77778 -53.3333,16.88888 53.3333,16.88889 26.6667,33.77777 26.6667,-33.77777 53.3333,-16.88889 -53.3333,-16.88888 -53.3334,0 0,33.77777 53.3334,0 0,-33.77777 L 2480,577.33329 m 0,101.33332 -26.6667,33.77778 -53.3333,16.88888 53.3333,16.88889 26.6667,33.77778 26.6667,-33.77778 53.3333,-16.88889 -53.3333,-16.88888 -53.3334,0 0,33.77777 53.3334,0 0,-33.77777 L 2480,678.66661 m -80,-50.66666 -26.6667,33.77778 L 2320,678.66661 2373.3333,695.5555 2400,729.33327 2426.6667,695.5555 2480,678.66661 l -53.3333,-16.88888 -53.3334,0 0,33.77777 53.3334,0 0,-33.77777 L 2400,627.99995 m 0,-101.33332 -26.6667,33.77777 -53.3333,16.88889 53.3333,16.88889 26.6667,33.77777 26.6667,-33.77777 53.3333,-16.88889 -53.3333,-16.88889 -53.3334,0 0,33.77778 53.3334,0 0,-33.77778 L 2400,526.66663 m 0,-101.33332 -26.6667,33.77777 -53.3333,16.88889 53.3333,16.88889 26.6667,33.77777 26.6667,-33.77777 53.3333,-16.88889 -53.3333,-16.88889 -53.3334,0 0,33.77778 53.3334,0 0,-33.77778 L 2400,425.33331 m 0,-101.33329 -26.6667,33.77777 -53.3333,16.88889 53.3333,16.88889 26.6667,33.77774 26.6667,-33.77774 53.3333,-16.88889 -53.3333,-16.88889 -53.3334,0 0,33.77778 53.3334,0 0,-33.77778 L 2400,324.00002 m 0,-101.33333 -26.6667,33.77778 -53.3333,16.88889 53.3333,16.88888 26.6667,33.77778 26.6667,-33.77778 53.3333,-16.88888 -53.3333,-16.88889 -53.3334,0 0,33.77777 53.3334,0 0,-33.77777 L 2400,222.66669 m 0,-101.33332 -26.6667,33.77778 -53.3333,16.88888 53.3333,16.88889 26.6667,33.77777 26.6667,-33.77777 53.3333,-16.88889 -53.3333,-16.88888 -53.3334,0 0,33.77777 53.3334,0 0,-33.77777 L 2400,121.33337 M 2400,20.000053 2373.3333,53.777829 2320,70.666716 2373.3333,87.555602 2400,121.33337 2426.6667,87.555602 2480,70.666716 l -53.3333,-16.888887 -53.3334,0 0,33.777773 53.3334,0 0,-33.777773 L 2400,20.000053 m -80,50.666663 -26.6667,33.777774 -53.3333,16.88888 53.3333,16.88889 26.6667,33.77777 26.6667,-33.77777 53.3333,-16.88889 -53.3333,-16.88888 -53.3334,0 0,33.77777 53.3334,0 0,-33.77777 L 2320,70.666716 m 0,101.333314 -26.6667,33.77778 -53.3333,16.88888 53.3333,16.88889 26.6667,33.77778 26.6667,-33.77778 53.3333,-16.88889 -53.3333,-16.88888 -53.3334,0 0,33.77777 53.3334,0 0,-33.77777 L 2320,172.00003 m 0,101.33333 -26.6667,33.77777 L 2240,324.00002 2293.3333,340.8889 2320,374.66668 2346.6667,340.8889 2400,324.00002 l -53.3333,-16.88889 -53.3334,0 0,33.77777 53.3334,0 0,-33.77777 L 2320,273.33336 m 0,101.33332 -26.6667,33.77774 L 2240,425.33331 2293.3333,442.2222 2320,475.99997 2346.6667,442.2222 2400,425.33331 l -53.3333,-16.88889 -53.3334,0 0,33.77778 53.3334,0 0,-33.77778 L 2320,374.66668 m 0,101.33329 -26.6667,33.77777 -53.3333,16.88889 53.3333,16.88889 26.6667,33.77777 26.6667,-33.77777 53.3333,-16.88889 -53.3333,-16.88889 -53.3334,0 0,33.77778 53.3334,0 0,-33.77778 L 2320,475.99997 m 0,101.33332 -26.6667,33.77778 -53.3333,16.88888 53.3333,16.88889 26.6667,33.77777 26.6667,-33.77777 53.3333,-16.88889 -53.3333,-16.88888 -53.3334,0 0,33.77777 53.3334,0 0,-33.77777 L 2320,577.33329 m 0,101.33332 -26.6667,33.77778 -53.3333,16.88888 53.3333,16.88889 26.6667,33.77778 26.6667,-33.77778 53.3333,-16.88889 -53.3333,-16.88888 -53.3334,0 0,33.77777 53.3334,0 0,-33.77777 L 2320,678.66661 m -80,-50.66666 -26.6667,33.77778 L 2160,678.66661 2213.3333,695.5555 2240,729.33327 2266.6667,695.5555 2320,678.66661 l -53.3333,-16.88888 -53.3334,0 0,33.77777 53.3334,0 0,-33.77777 L 2240,627.99995 m 0,-101.33332 -26.6667,33.77777 -53.3333,16.88889 53.3333,16.88889 26.6667,33.77777 26.6667,-33.77777 53.3333,-16.88889 -53.3333,-16.88889 -53.3334,0 0,33.77778 53.3334,0 0,-33.77778 L 2240,526.66663 m 0,-101.33332 -26.6667,33.77777 -53.3333,16.88889 53.3333,16.88889 26.6667,33.77777 26.6667,-33.77777 53.3333,-16.88889 -53.3333,-16.88889 -53.3334,0 0,33.77778 53.3334,0 0,-33.77778 L 2240,425.33331 m 0,-101.33329 -26.6667,33.77777 -53.3333,16.88889 53.3333,16.88889 26.6667,33.77774 26.6667,-33.77774 53.3333,-16.88889 -53.3333,-16.88889 -53.3334,0 0,33.77778 53.3334,0 0,-33.77778 L 2240,324.00002 m 0,-101.33333 -26.6667,33.77778 -53.3333,16.88889 53.3333,16.88888 26.6667,33.77778 26.6667,-33.77778 53.3333,-16.88888 -53.3333,-16.88889 -53.3334,0 0,33.77777 53.3334,0 0,-33.77777 L 2240,222.66669 m 0,-101.33332 -26.6667,33.77778 -53.3333,16.88888 53.3333,16.88889 26.6667,33.77777 26.6667,-33.77777 53.3333,-16.88889 -53.3333,-16.88888 -53.3334,0 0,33.77777 53.3334,0 0,-33.77777 L 2240,121.33337 M 2240,20.000053 2213.3333,53.777829 2160,70.666716 2213.3333,87.555602 2240,121.33337 2266.6667,87.555602 2320,70.666716 l -53.3333,-16.888887 -53.3334,0 0,33.777773 53.3334,0 0,-33.777773 L 2240,20.000053 m -80,50.666663 -26.6667,33.777774 -53.3333,16.88888 53.3333,16.88889 26.6667,33.77777 26.6667,-33.77777 53.3333,-16.88889 -53.3333,-16.88888 -53.3334,0 0,33.77777 53.3334,0 0,-33.77777 L 2160,70.666716 m 0,101.333314 -26.6667,33.77778 -53.3333,16.88888 53.3333,16.88889 26.6667,33.77778 26.6667,-33.77778 53.3333,-16.88889 -53.3333,-16.88888 -53.3334,0 0,33.77777 53.3334,0 0,-33.77777 L 2160,172.00003 m 0,101.33333 -26.6667,33.77777 L 2080,324.00002 2133.3333,340.8889 2160,374.66668 2186.6667,340.8889 2240,324.00002 l -53.3333,-16.88889 -53.3334,0 0,33.77777 53.3334,0 0,-33.77777 L 2160,273.33336 m 0,101.33332 -26.6667,33.77774 L 2080,425.33331 2133.3333,442.2222 2160,475.99997 2186.6667,442.2222 2240,425.33331 l -53.3333,-16.88889 -53.3334,0 0,33.77778 53.3334,0 0,-33.77778 L 2160,374.66668 m 0,101.33329 -26.6667,33.77777 -53.3333,16.88889 53.3333,16.88889 26.6667,33.77777 26.6667,-33.77777 53.3333,-16.88889 -53.3333,-16.88889 -53.3334,0 0,33.77778 53.3334,0 0,-33.77778 L 2160,475.99997 m 0,101.33332 -26.6667,33.77778 -53.3333,16.88888 53.3333,16.88889 26.6667,33.77777 26.6667,-33.77777 53.3333,-16.88889 -53.3333,-16.88888 -53.3334,0 0,33.77777 53.3334,0 0,-33.77777 L 2160,577.33329 m 0,101.33332 -26.6667,33.77778 -53.3333,16.88888 53.3333,16.88889 26.6667,33.77778 26.6667,-33.77778 53.3333,-16.88889 -53.3333,-16.88888 -53.3334,0 0,33.77777 53.3334,0 0,-33.77777 L 2160,678.66661 m -80,-50.66666 -26.6667,33.77778 L 2000,678.66661 2053.3333,695.5555 2080,729.33327 2106.6667,695.5555 2160,678.66661 l -53.3333,-16.88888 -53.3334,0 0,33.77777 53.3334,0 0,-33.77777 L 2080,627.99995 m 0,-101.33332 -26.6667,33.77777 -53.3333,16.88889 53.3333,16.88889 26.6667,33.77777 26.6667,-33.77777 53.3333,-16.88889 -53.3333,-16.88889 -53.3334,0 0,33.77778 53.3334,0 0,-33.77778 L 2080,526.66663 m 0,-101.33332 -26.6667,33.77777 -53.3333,16.88889 53.3333,16.88889 26.6667,33.77777 26.6667,-33.77777 53.3333,-16.88889 -53.3333,-16.88889 -53.3334,0 0,33.77778 53.3334,0 0,-33.77778 L 2080,425.33331 m 0,-101.33329 -26.6667,33.77777 -53.3333,16.88889 53.3333,16.88889 26.6667,33.77774 26.6667,-33.77774 53.3333,-16.88889 -53.3333,-16.88889 -53.3334,0 0,33.77778 53.3334,0 0,-33.77778 L 2080,324.00002 m 0,-101.33333 -26.6667,33.77778 -53.3333,16.88889 53.3333,16.88888 26.6667,33.77778 26.6667,-33.77778 53.3333,-16.88888 -53.3333,-16.88889 -53.3334,0 0,33.77777 53.3334,0 0,-33.77777 L 2080,222.66669 m 0,-101.33332 -26.6667,33.77778 -53.3333,16.88888 53.3333,16.88889 26.6667,33.77777 26.6667,-33.77777 53.3333,-16.88889 -53.3333,-16.88888 -53.3334,0 0,33.77777 53.3334,0 0,-33.77777 L 2080,121.33337 M 2080,20.000053 2053.3333,53.777829 2000,70.666716 2053.3333,87.555602 2080,121.33337 2106.6667,87.555602 2160,70.666716 l -53.3333,-16.888887 -53.3334,0 0,33.777773 53.3334,0 0,-33.777773 L 2080,20.000053 m -80,50.666663 -26.6667,33.777774 -53.3333,16.88888 53.3333,16.88889 26.6667,33.77777 26.6667,-33.77777 53.3333,-16.88889 -53.3333,-16.88888 -53.3334,0 0,33.77777 53.3334,0 0,-33.77777 L 2000,70.666716 m 0,101.333314 -26.6667,33.77778 -53.3333,16.88888 53.3333,16.88889 26.6667,33.77778 26.6667,-33.77778 53.3333,-16.88889 -53.3333,-16.88888 -53.3334,0 0,33.77777 53.3334,0 0,-33.77777 L 2000,172.00003 m 0,101.33333 -26.6667,33.77777 L 1920,324.00002 1973.3333,340.8889 2000,374.66668 2026.6667,340.8889 2080,324.00002 l -53.3333,-16.88889 -53.3334,0 0,33.77777 53.3334,0 0,-33.77777 L 2000,273.33336 m 0,101.33332 -26.6667,33.77774 L 1920,425.33331 1973.3333,442.2222 2000,475.99997 2026.6667,442.2222 2080,425.33331 l -53.3333,-16.88889 -53.3334,0 0,33.77778 53.3334,0 0,-33.77778 L 2000,374.66668 m 0,101.33329 -26.6667,33.77777 -53.3333,16.88889 53.3333,16.88889 26.6667,33.77777 26.6667,-33.77777 53.3333,-16.88889 -53.3333,-16.88889 -53.3334,0 0,33.77778 53.3334,0 0,-33.77778 L 2000,475.99997 m 0,101.33332 -26.6667,33.77778 -53.3333,16.88888 53.3333,16.88889 26.6667,33.77777 26.6667,-33.77777 53.3333,-16.88889 -53.3333,-16.88888 -53.3334,0 0,33.77777 53.3334,0 0,-33.77777 L 2000,577.33329 m 0,101.33332 -26.6667,33.77778 -53.3333,16.88888 53.3333,16.88889 26.6667,33.77778 26.6667,-33.77778 53.3333,-16.88889 -53.3333,-16.88888 -53.3334,0 0,33.77777 53.3334,0 0,-33.77777 L 2000,678.66661 m -80,-50.66666 -26.6667,33.77778 L 1840,678.66661 1893.3333,695.5555 1920,729.33327 1946.6667,695.5555 2000,678.66661 l -53.3333,-16.88888 -53.3334,0 0,33.77777 53.3334,0 0,-33.77777 L 1920,627.99995 m 0,-101.33332 -26.6667,33.77777 -53.3333,16.88889 53.3333,16.88889 26.6667,33.77777 26.6667,-33.77777 53.3333,-16.88889 -53.3333,-16.88889 -53.3334,0 0,33.77778 53.3334,0 0,-33.77778 L 1920,526.66663 m 0,-101.33332 -26.6667,33.77777 -53.3333,16.88889 53.3333,16.88889 26.6667,33.77777 26.6667,-33.77777 53.3333,-16.88889 -53.3333,-16.88889 -53.3334,0 0,33.77778 53.3334,0 0,-33.77778 L 1920,425.33331 m 0,-101.33329 -26.6667,33.77777 -53.3333,16.88889 53.3333,16.88889 26.6667,33.77774 26.6667,-33.77774 53.3333,-16.88889 -53.3333,-16.88889 -53.3334,0 0,33.77778 53.3334,0 0,-33.77778 L 1920,324.00002 m 0,-101.33333 -26.6667,33.77778 -53.3333,16.88889 53.3333,16.88888 26.6667,33.77778 26.6667,-33.77778 53.3333,-16.88888 -53.3333,-16.88889 -53.3334,0 0,33.77777 53.3334,0 0,-33.77777 L 1920,222.66669 m 0,-101.33332 -26.6667,33.77778 -53.3333,16.88888 53.3333,16.88889 26.6667,33.77777 26.6667,-33.77777 53.3333,-16.88889 -53.3333,-16.88888 -53.3334,0 0,33.77777 53.3334,0 0,-33.77777 L 1920,121.33337 M 1920,20.000053 1893.3333,53.777829 1840,70.666716 1893.3333,87.555602 1920,121.33337 1946.6667,87.555602 2000,70.666716 l -53.3333,-16.888887 -53.3334,0 0,33.777773 53.3334,0 0,-33.777773 L 1920,20.000053 m -80,50.666663 -26.6667,33.777774 -53.3333,16.88888 53.3333,16.88889 26.6667,33.77777 26.6667,-33.77777 53.3333,-16.88889 -53.3333,-16.88888 -53.3334,0 0,33.77777 53.3334,0 0,-33.77777 L 1840,70.666716 m 0,101.333314 -26.6667,33.77778 -53.3333,16.88888 53.3333,16.88889 26.6667,33.77778 26.6667,-33.77778 53.3333,-16.88889 -53.3333,-16.88888 -53.3334,0 0,33.77777 53.3334,0 0,-33.77777 L 1840,172.00003 m 0,101.33333 -26.6667,33.77777 L 1760,324.00002 1813.3333,340.8889 1840,374.66668 1866.6667,340.8889 1920,324.00002 l -53.3333,-16.88889 -53.3334,0 0,33.77777 53.3334,0 0,-33.77777 L 1840,273.33336 m 0,101.33332 -26.6667,33.77774 L 1760,425.33331 1813.3333,442.2222 1840,475.99997 1866.6667,442.2222 1920,425.33331 l -53.3333,-16.88889 -53.3334,0 0,33.77778 53.3334,0 0,-33.77778 L 1840,374.66668 m 0,101.33329 -26.6667,33.77777 -53.3333,16.88889 53.3333,16.88889 26.6667,33.77777 26.6667,-33.77777 53.3333,-16.88889 -53.3333,-16.88889 -53.3334,0 0,33.77778 53.3334,0 0,-33.77778 L 1840,475.99997 m 0,101.33332 -26.6667,33.77778 -53.3333,16.88888 53.3333,16.88889 26.6667,33.77777 26.6667,-33.77777 53.3333,-16.88889 -53.3333,-16.88888 -53.3334,0 0,33.77777 53.3334,0 0,-33.77777 L 1840,577.33329 m 0,101.33332 -26.6667,33.77778 -53.3333,16.88888 53.3333,16.88889 26.6667,33.77778 26.6667,-33.77778 53.3333,-16.88889 -53.3333,-16.88888 -53.3334,0 0,33.77777 53.3334,0 0,-33.77777 L 1840,678.66661 m -80,-50.66666 -26.6667,33.77778 L 1680,678.66661 1733.3333,695.5555 1760,729.33327 1786.6667,695.5555 1840,678.66661 l -53.3333,-16.88888 -53.3334,0 0,33.77777 53.3334,0 0,-33.77777 L 1760,627.99995 m 0,-101.33332 -26.6667,33.77777 -53.3333,16.88889 53.3333,16.88889 26.6667,33.77777 26.6667,-33.77777 53.3333,-16.88889 -53.3333,-16.88889 -53.3334,0 0,33.77778 53.3334,0 0,-33.77778 L 1760,526.66663 m 0,-101.33332 -26.6667,33.77777 -53.3333,16.88889 53.3333,16.88889 26.6667,33.77777 26.6667,-33.77777 53.3333,-16.88889 -53.3333,-16.88889 -53.3334,0 0,33.77778 53.3334,0 0,-33.77778 L 1760,425.33331 m 0,-101.33329 -26.6667,33.77777 -53.3333,16.88889 53.3333,16.88889 26.6667,33.77774 26.6667,-33.77774 53.3333,-16.88889 -53.3333,-16.88889 -53.3334,0 0,33.77778 53.3334,0 0,-33.77778 L 1760,324.00002 m 0,-101.33333 -26.6667,33.77778 -53.3333,16.88889 53.3333,16.88888 26.6667,33.77778 26.6667,-33.77778 53.3333,-16.88888 -53.3333,-16.88889 -53.3334,0 0,33.77777 53.3334,0 0,-33.77777 L 1760,222.66669 m 0,-101.33332 -26.6667,33.77778 -53.3333,16.88888 53.3333,16.88889 26.6667,33.77777 26.6667,-33.77777 53.3333,-16.88889 -53.3333,-16.88888 -53.3334,0 0,33.77777 53.3334,0 0,-33.77777 L 1760,121.33337 M 1760,20.000053 1733.3333,53.777829 1680,70.666716 1733.3333,87.555602 1760,121.33337 1786.6667,87.555602 1840,70.666716 l -53.3333,-16.888887 -53.3334,0 0,33.777773 53.3334,0 0,-33.777773 L 1760,20.000053 m -80,50.666663 -26.6667,33.777774 -53.3333,16.88888 53.3333,16.88889 26.6667,33.77777 26.6667,-33.77777 53.3333,-16.88889 -53.3333,-16.88888 -53.3334,0 0,33.77777 53.3334,0 0,-33.77777 L 1680,70.666716 m 0,101.333314 -26.6667,33.77778 -53.3333,16.88888 53.3333,16.88889 26.6667,33.77778 26.6667,-33.77778 53.3333,-16.88889 -53.3333,-16.88888 -53.3334,0 0,33.77777 53.3334,0 0,-33.77777 L 1680,172.00003 m 0,101.33333 -26.6667,33.77777 L 1600,324.00002 1653.3333,340.8889 1680,374.66668 1706.6667,340.8889 1760,324.00002 l -53.3333,-16.88889 -53.3334,0 0,33.77777 53.3334,0 0,-33.77777 L 1680,273.33336 m 0,101.33332 -26.6667,33.77774 L 1600,425.33331 1653.3333,442.2222 1680,475.99997 1706.6667,442.2222 1760,425.33331 l -53.3333,-16.88889 -53.3334,0 0,33.77778 53.3334,0 0,-33.77778 L 1680,374.66668 m 0,101.33329 -26.6667,33.77777 -53.3333,16.88889 53.3333,16.88889 26.6667,33.77777 26.6667,-33.77777 53.3333,-16.88889 -53.3333,-16.88889 -53.3334,0 0,33.77778 53.3334,0 0,-33.77778 L 1680,475.99997 m 0,101.33332 -26.6667,33.77778 -53.3333,16.88888 53.3333,16.88889 26.6667,33.77777 26.6667,-33.77777 53.3333,-16.88889 -53.3333,-16.88888 -53.3334,0 0,33.77777 53.3334,0 0,-33.77777 L 1680,577.33329 m 0,101.33332 -26.6667,33.77778 -53.3333,16.88888 53.3333,16.88889 26.6667,33.77778 26.6667,-33.77778 53.3333,-16.88889 -53.3333,-16.88888 -53.3334,0 0,33.77777 53.3334,0 0,-33.77777 L 1680,678.66661 m -80,-50.66666 -26.6667,33.77778 L 1520,678.66661 1573.3333,695.5555 1600,729.33327 1626.6667,695.5555 1680,678.66661 l -53.3333,-16.88888 -53.3334,0 0,33.77777 53.3334,0 0,-33.77777 L 1600,627.99995 m 0,-101.33332 -26.6667,33.77777 -53.3333,16.88889 53.3333,16.88889 26.6667,33.77777 26.6667,-33.77777 53.3333,-16.88889 -53.3333,-16.88889 -53.3334,0 0,33.77778 53.3334,0 0,-33.77778 L 1600,526.66663 m 0,-101.33332 -26.6667,33.77777 -53.3333,16.88889 53.3333,16.88889 26.6667,33.77777 26.6667,-33.77777 53.3333,-16.88889 -53.3333,-16.88889 -53.3334,0 0,33.77778 53.3334,0 0,-33.77778 L 1600,425.33331 m 0,-101.33329 -26.6667,33.77777 -53.3333,16.88889 53.3333,16.88889 26.6667,33.77774 26.6667,-33.77774 53.3333,-16.88889 -53.3333,-16.88889 -53.3334,0 0,33.77778 53.3334,0 0,-33.77778 L 1600,324.00002 m 0,-101.33333 -26.6667,33.77778 -53.3333,16.88889 53.3333,16.88888 26.6667,33.77778 26.6667,-33.77778 53.3333,-16.88888 -53.3333,-16.88889 -53.3334,0 0,33.77777 53.3334,0 0,-33.77777 L 1600,222.66669 m 0,-101.33332 -26.6667,33.77778 -53.3333,16.88888 53.3333,16.88889 26.6667,33.77777 26.6667,-33.77777 53.3333,-16.88889 -53.3333,-16.88888 -53.3334,0 0,33.77777 53.3334,0 0,-33.77777 L 1600,121.33337 M 1600,20.000053 1573.3333,53.777829 1520,70.666716 1573.3333,87.555602 1600,121.33337 1626.6667,87.555602 1680,70.666716 l -53.3333,-16.888887 -53.3334,0 0,33.777773 53.3334,0 0,-33.777773 L 1600,20.000053 m -80,50.666663 -26.6667,33.777774 -53.3333,16.88888 53.3333,16.88889 26.6667,33.77777 26.6667,-33.77777 53.3333,-16.88889 -53.3333,-16.88888 -53.3334,0 0,33.77777 53.3334,0 0,-33.77777 L 1520,70.666716 m 0,101.333314 -26.6667,33.77778 -53.3333,16.88888 53.3333,16.88889 26.6667,33.77778 26.6667,-33.77778 53.3333,-16.88889 -53.3333,-16.88888 -53.3334,0 0,33.77777 53.3334,0 0,-33.77777 L 1520,172.00003 m 0,101.33333 -26.6667,33.77777 L 1440,324.00002 1493.3333,340.8889 1520,374.66668 1546.6667,340.8889 1600,324.00002 l -53.3333,-16.88889 -53.3334,0 0,33.77777 53.3334,0 0,-33.77777 L 1520,273.33336 m 0,101.33332 -26.6667,33.77774 L 1440,425.33331 1493.3333,442.2222 1520,475.99997 1546.6667,442.2222 1600,425.33331 l -53.3333,-16.88889 -53.3334,0 0,33.77778 53.3334,0 0,-33.77778 L 1520,374.66668 m 0,101.33329 -26.6667,33.77777 -53.3333,16.88889 53.3333,16.88889 26.6667,33.77777 26.6667,-33.77777 53.3333,-16.88889 -53.3333,-16.88889 -53.3334,0 0,33.77778 53.3334,0 0,-33.77778 L 1520,475.99997 m 0,101.33332 -26.6667,33.77778 -53.3333,16.88888 53.3333,16.88889 26.6667,33.77777 26.6667,-33.77777 53.3333,-16.88889 -53.3333,-16.88888 -53.3334,0 0,33.77777 53.3334,0 0,-33.77777 L 1520,577.33329 m 0,101.33332 -26.6667,33.77778 -53.3333,16.88888 53.3333,16.88889 26.6667,33.77778 26.6667,-33.77778 53.3333,-16.88889 -53.3333,-16.88888 -53.3334,0 0,33.77777 53.3334,0 0,-33.77777 L 1520,678.66661 m -80,-50.66666 -26.6667,33.77778 L 1360,678.66661 1413.3333,695.5555 1440,729.33327 1466.6667,695.5555 1520,678.66661 l -53.3333,-16.88888 -53.3334,0 0,33.77777 53.3334,0 0,-33.77777 L 1440,627.99995 m 0,-101.33332 -26.6667,33.77777 -53.3333,16.88889 53.3333,16.88889 26.6667,33.77777 26.6667,-33.77777 53.3333,-16.88889 -53.3333,-16.88889 -53.3334,0 0,33.77778 53.3334,0 0,-33.77778 L 1440,526.66663 m 0,-101.33332 -26.6667,33.77777 -53.3333,16.88889 53.3333,16.88889 26.6667,33.77777 26.6667,-33.77777 53.3333,-16.88889 -53.3333,-16.88889 -53.3334,0 0,33.77778 53.3334,0 0,-33.77778 L 1440,425.33331 m 0,-101.33329 -26.6667,33.77777 -53.3333,16.88889 53.3333,16.88889 26.6667,33.77774 26.6667,-33.77774 53.3333,-16.88889 -53.3333,-16.88889 -53.3334,0 0,33.77778 53.3334,0 0,-33.77778 L 1440,324.00002 m 0,-101.33333 -26.6667,33.77778 -53.3333,16.88889 53.3333,16.88888 26.6667,33.77778 26.6667,-33.77778 53.3333,-16.88888 -53.3333,-16.88889 -53.3334,0 0,33.77777 53.3334,0 0,-33.77777 L 1440,222.66669 m 0,-101.33332 -26.6667,33.77778 -53.3333,16.88888 53.3333,16.88889 26.6667,33.77777 26.6667,-33.77777 53.3333,-16.88889 -53.3333,-16.88888 -53.3334,0 0,33.77777 53.3334,0 0,-33.77777 L 1440,121.33337 M 1440,20.000053 1413.3333,53.777829 1360,70.666716 1413.3333,87.555602 1440,121.33337 1466.6667,87.555602 1520,70.666716 l -53.3333,-16.888887 -53.3334,0 0,33.777773 53.3334,0 0,-33.777773 L 1440,20.000053 m -80,50.666663 -26.6667,33.777774 -53.3333,16.88888 53.3333,16.88889 26.6667,33.77777 26.6667,-33.77777 53.3333,-16.88889 -53.3333,-16.88888 -53.3334,0 0,33.77777 53.3334,0 0,-33.77777 L 1360,70.666716 m 0,101.333314 -26.6667,33.77778 -53.3333,16.88888 53.3333,16.88889 26.6667,33.77778 26.6667,-33.77778 53.3333,-16.88889 -53.3333,-16.88888 -53.3334,0 0,33.77777 53.3334,0 0,-33.77777 L 1360,172.00003 m 0,101.33333 -26.6667,33.77777 L 1280,324.00002 1333.3333,340.8889 1360,374.66668 1386.6667,340.8889 1440,324.00002 l -53.3333,-16.88889 -53.3334,0 0,33.77777 53.3334,0 0,-33.77777 L 1360,273.33336 m 0,101.33332 -26.6667,33.77774 L 1280,425.33331 1333.3333,442.2222 1360,475.99997 1386.6667,442.2222 1440,425.33331 l -53.3333,-16.88889 -53.3334,0 0,33.77778 53.3334,0 0,-33.77778 L 1360,374.66668 m 0,101.33329 -26.6667,33.77777 -53.3333,16.88889 53.3333,16.88889 26.6667,33.77777 26.6667,-33.77777 53.3333,-16.88889 -53.3333,-16.88889 -53.3334,0 0,33.77778 53.3334,0 0,-33.77778 L 1360,475.99997 m 0,101.33332 -26.6667,33.77778 -53.3333,16.88888 53.3333,16.88889 26.6667,33.77777 26.6667,-33.77777 53.3333,-16.88889 -53.3333,-16.88888 -53.3334,0 0,33.77777 53.3334,0 0,-33.77777 L 1360,577.33329 m 0,101.33332 -26.6667,33.77778 -53.3333,16.88888 53.3333,16.88889 26.6667,33.77778 26.6667,-33.77778 53.3333,-16.88889 -53.3333,-16.88888 -53.3334,0 0,33.77777 53.3334,0 0,-33.77777 L 1360,678.66661 m -80,-50.66666 -26.6667,33.77778 L 1200,678.66661 1253.3333,695.5555 1280,729.33327 1306.6667,695.5555 1360,678.66661 l -53.3333,-16.88888 -53.3334,0 0,33.77777 53.3334,0 0,-33.77777 L 1280,627.99995 m 0,-101.33332 -26.6667,33.77777 -53.3333,16.88889 53.3333,16.88889 26.6667,33.77777 26.6667,-33.77777 53.3333,-16.88889 -53.3333,-16.88889 -53.3334,0 0,33.77778 53.3334,0 0,-33.77778 L 1280,526.66663 m 0,-101.33332 -26.6667,33.77777 -53.3333,16.88889 53.3333,16.88889 26.6667,33.77777 26.6667,-33.77777 53.3333,-16.88889 -53.3333,-16.88889 -53.3334,0 0,33.77778 53.3334,0 0,-33.77778 L 1280,425.33331 m 0,-101.33329 -26.6667,33.77777 -53.3333,16.88889 53.3333,16.88889 26.6667,33.77774 26.6667,-33.77774 53.3333,-16.88889 -53.3333,-16.88889 -53.3334,0 0,33.77778 53.3334,0 0,-33.77778 L 1280,324.00002 m 0,-101.33333 -26.6667,33.77778 -53.3333,16.88889 53.3333,16.88888 26.6667,33.77778 26.6667,-33.77778 53.3333,-16.88888 -53.3333,-16.88889 -53.3334,0 0,33.77777 53.3334,0 0,-33.77777 L 1280,222.66669 m 0,-101.33332 -26.6667,33.77778 -53.3333,16.88888 53.3333,16.88889 26.6667,33.77777 26.6667,-33.77777 53.3333,-16.88889 -53.3333,-16.88888 -53.3334,0 0,33.77777 53.3334,0 0,-33.77777 L 1280,121.33337 M 1280,20.000053 1253.3333,53.777829 1200,70.666716 1253.3333,87.555602 1280,121.33337 1306.6667,87.555602 1360,70.666716 l -53.3333,-16.888887 -53.3334,0 0,33.777773 53.3334,0 0,-33.777773 L 1280,20.000053 m -80,50.666663 -26.6667,33.777774 -53.3333,16.88888 53.3333,16.88889 26.6667,33.77777 26.6667,-33.77777 53.3333,-16.88889 -53.3333,-16.88888 -53.3334,0 0,33.77777 53.3334,0 0,-33.77777 L 1200,70.666716 m 0,101.333314 -26.6667,33.77778 -53.3333,16.88888 53.3333,16.88889 26.6667,33.77778 26.6667,-33.77778 53.3333,-16.88889 -53.3333,-16.88888 -53.3334,0 0,33.77777 53.3334,0 0,-33.77777 L 1200,172.00003 m 0,101.33333 -26.6667,33.77777 L 1120,324.00002 1173.3333,340.8889 1200,374.66668 1226.6667,340.8889 1280,324.00002 l -53.3333,-16.88889 -53.3334,0 0,33.77777 53.3334,0 0,-33.77777 L 1200,273.33336 m 0,101.33332 -26.6667,33.77774 L 1120,425.33331 1173.3333,442.2222 1200,475.99997 1226.6667,442.2222 1280,425.33331 l -53.3333,-16.88889 -53.3334,0 0,33.77778 53.3334,0 0,-33.77778 L 1200,374.66668 m 0,101.33329 -26.6667,33.77777 -53.3333,16.88889 53.3333,16.88889 26.6667,33.77777 26.6667,-33.77777 53.3333,-16.88889 -53.3333,-16.88889 -53.3334,0 0,33.77778 53.3334,0 0,-33.77778 L 1200,475.99997 m 0,101.33332 -26.6667,33.77778 -53.3333,16.88888 53.3333,16.88889 26.6667,33.77777 26.6667,-33.77777 53.3333,-16.88889 -53.3333,-16.88888 -53.3334,0 0,33.77777 53.3334,0 0,-33.77777 L 1200,577.33329 m 0,101.33332 -26.6667,33.77778 -53.3333,16.88888 53.3333,16.88889 26.6667,33.77778 26.6667,-33.77778 53.3333,-16.88889 -53.3333,-16.88888 -53.3334,0 0,33.77777 53.3334,0 0,-33.77777 L 1200,678.66661 m -80,-50.66666 -26.6667,33.77778 L 1040,678.66661 1093.3333,695.5555 1120,729.33327 1146.6667,695.5555 1200,678.66661 l -53.3333,-16.88888 -53.3334,0 0,33.77777 53.3334,0 0,-33.77777 L 1120,627.99995 m 0,-101.33332 -26.6667,33.77777 -53.3333,16.88889 53.3333,16.88889 26.6667,33.77777 26.6667,-33.77777 53.3333,-16.88889 -53.3333,-16.88889 -53.3334,0 0,33.77778 53.3334,0 0,-33.77778 L 1120,526.66663 m 0,-101.33332 -26.6667,33.77777 -53.3333,16.88889 53.3333,16.88889 26.6667,33.77777 26.6667,-33.77777 53.3333,-16.88889 -53.3333,-16.88889 -53.3334,0 0,33.77778 53.3334,0 0,-33.77778 L 1120,425.33331 m 0,-101.33329 -26.6667,33.77777 -53.3333,16.88889 53.3333,16.88889 26.6667,33.77774 26.6667,-33.77774 53.3333,-16.88889 -53.3333,-16.88889 -53.3334,0 0,33.77778 53.3334,0 0,-33.77778 L 1120,324.00002 m 0,-101.33333 -26.6667,33.77778 -53.3333,16.88889 53.3333,16.88888 26.6667,33.77778 26.6667,-33.77778 53.3333,-16.88888 -53.3333,-16.88889 -53.3334,0 0,33.77777 53.3334,0 0,-33.77777 L 1120,222.66669 m 0,-101.33332 -26.6667,33.77778 -53.3333,16.88888 53.3333,16.88889 26.6667,33.77777 26.6667,-33.77777 53.3333,-16.88889 -53.3333,-16.88888 -53.3334,0 0,33.77777 53.3334,0 0,-33.77777 L 1120,121.33337 M 1120,20.000053 1093.3333,53.777829 1040,70.666716 1093.3333,87.555602 1120,121.33337 1146.6667,87.555602 1200,70.666716 l -53.3333,-16.888887 -53.3334,0 0,33.777773 53.3334,0 0,-33.777773 L 1120,20.000053 m -80,50.666663 -26.6667,33.777774 -53.33331,16.88888 53.33331,16.88889 26.6667,33.77777 26.6667,-33.77777 53.3333,-16.88889 -53.3333,-16.88888 -53.3334,0 0,33.77777 53.3334,0 0,-33.77777 L 1040,70.666716 m 0,101.333314 -26.6667,33.77778 -53.33331,16.88888 53.33331,16.88889 26.6667,33.77778 26.6667,-33.77778 53.3333,-16.88889 -53.3333,-16.88888 -53.3334,0 0,33.77777 53.3334,0 0,-33.77777 L 1040,172.00003 m 0,101.33333 -26.6667,33.77777 -53.33331,16.88889 53.33331,16.88888 26.6667,33.77778 26.6667,-33.77778 53.3333,-16.88888 -53.3333,-16.88889 -53.3334,0 0,33.77777 53.3334,0 0,-33.77777 L 1040,273.33336 m 0,101.33332 -26.6667,33.77774 -53.33331,16.88889 53.33331,16.88889 26.6667,33.77777 26.6667,-33.77777 53.3333,-16.88889 -53.3333,-16.88889 -53.3334,0 0,33.77778 53.3334,0 0,-33.77778 L 1040,374.66668 m 0,101.33329 -26.6667,33.77777 -53.33331,16.88889 53.33331,16.88889 26.6667,33.77777 26.6667,-33.77777 53.3333,-16.88889 -53.3333,-16.88889 -53.3334,0 0,33.77778 53.3334,0 0,-33.77778 L 1040,475.99997 m 0,101.33332 -26.6667,33.77778 -53.33331,16.88888 53.33331,16.88889 26.6667,33.77777 26.6667,-33.77777 53.3333,-16.88889 -53.3333,-16.88888 -53.3334,0 0,33.77777 53.3334,0 0,-33.77777 L 1040,577.33329 m 0,101.33332 -26.6667,33.77778 -53.33331,16.88888 53.33331,16.88889 26.6667,33.77778 26.6667,-33.77778 53.3333,-16.88889 -53.3333,-16.88888 -53.3334,0 0,33.77777 53.3334,0 0,-33.77777 L 1040,678.66661 m -80.00001,-50.66666 -26.66666,33.77778 -53.33334,16.88888 53.33334,16.88889 26.66666,33.77777 26.66667,-33.77777 53.33334,-16.88889 -53.33334,-16.88888 -53.33333,0 0,33.77777 53.33333,0 0,-33.77777 -26.66667,-33.77778 m 0,-101.33332 -26.66666,33.77777 -53.33334,16.88889 53.33334,16.88889 26.66666,33.77777 26.66667,-33.77777 L 1040,577.33329 986.66666,560.4444 l -53.33333,0 0,33.77778 53.33333,0 0,-33.77778 -26.66667,-33.77777 m 0,-101.33332 -26.66666,33.77777 -53.33334,16.88889 53.33334,16.88889 26.66666,33.77777 26.66667,-33.77777 53.33334,-16.88889 -53.33334,-16.88889 -53.33333,0 0,33.77778 53.33333,0 0,-33.77778 -26.66667,-33.77777 m 0,-101.33329 -26.66666,33.77777 -53.33334,16.88889 53.33334,16.88889 26.66666,33.77774 26.66667,-33.77774 53.33334,-16.88889 -53.33334,-16.88889 -53.33333,0 0,33.77778 53.33333,0 0,-33.77778 -26.66667,-33.77777 m 0,-101.33333 -26.66666,33.77778 -53.33334,16.88889 53.33334,16.88888 26.66666,33.77778 26.66667,-33.77778 53.33334,-16.88888 -53.33334,-16.88889 -53.33333,0 0,33.77777 53.33333,0 0,-33.77777 -26.66667,-33.77778 m 0,-101.33332 -26.66666,33.77778 -53.33334,16.88888 53.33334,16.88889 26.66666,33.77777 26.66667,-33.77777 53.33334,-16.88889 -53.33334,-16.88888 -53.33333,0 0,33.77777 53.33333,0 0,-33.77777 -26.66667,-33.77778 m 0,-101.333317 -26.66666,33.777776 -53.33334,16.888887 53.33334,16.888886 26.66666,33.777768 L 986.66666,87.555602 1040,70.666716 986.66666,53.777829 l -53.33333,0 0,33.777773 53.33333,0 0,-33.777773 -26.66667,-33.777776 m -80,50.666663 L 853.33333,104.44449 800,121.33337 l 53.33333,16.88889 26.66666,33.77777 26.66667,-33.77777 53.33333,-16.88889 -53.33333,-16.88888 -53.33333,0 0,33.77777 53.33333,0 0,-33.77777 -26.66667,-33.777774 m 0,101.333314 -26.66666,33.77778 L 800,222.66669 l 53.33333,16.88889 26.66666,33.77778 26.66667,-33.77778 53.33333,-16.88889 -53.33333,-16.88888 -53.33333,0 0,33.77777 53.33333,0 0,-33.77777 -26.66667,-33.77778 m 0,101.33333 -26.66666,33.77777 L 800,324.00002 l 53.33333,16.88888 26.66666,33.77778 26.66667,-33.77778 53.33333,-16.88888 -53.33333,-16.88889 -53.33333,0 0,33.77777 53.33333,0 0,-33.77777 -26.66667,-33.77777 m 0,101.33332 -26.66666,33.77774 L 800,425.33331 l 53.33333,16.88889 26.66666,33.77777 26.66667,-33.77777 53.33333,-16.88889 -53.33333,-16.88889 -53.33333,0 0,33.77778 53.33333,0 0,-33.77778 -26.66667,-33.77774 m 0,101.33329 -26.66666,33.77777 L 800,526.66663 l 53.33333,16.88889 26.66666,33.77777 26.66667,-33.77777 53.33333,-16.88889 -53.33333,-16.88889 -53.33333,0 0,33.77778 53.33333,0 0,-33.77778 -26.66667,-33.77777 m 0,101.33332 -26.66666,33.77778 L 800,627.99995 l 53.33333,16.88889 26.66666,33.77777 26.66667,-33.77777 53.33333,-16.88889 -53.33333,-16.88888 -53.33333,0 0,33.77777 53.33333,0 0,-33.77777 -26.66667,-33.77778 m 0,101.33332 -26.66666,33.77778 L 800,729.33327 l 53.33333,16.88889 26.66666,33.77778 26.66667,-33.77778 53.33333,-16.88889 -53.33333,-16.88888 -53.33333,0 0,33.77777 53.33333,0 0,-33.77777 -26.66667,-33.77778 M 800,627.99995 773.33333,661.77773 720,678.66661 773.33333,695.5555 800,729.33327 l 26.66666,-33.77777 53.33333,-16.88889 -53.33333,-16.88888 -53.33333,0 0,33.77777 53.33333,0 0,-33.77777 L 800,627.99995 M 800,526.66663 773.33333,560.4444 720,577.33329 773.33333,594.22218 800,627.99995 l 26.66666,-33.77777 53.33333,-16.88889 -53.33333,-16.88889 -53.33333,0 0,33.77778 53.33333,0 0,-33.77778 L 800,526.66663 M 800,425.33331 773.33333,459.11108 720,475.99997 773.33333,492.88886 800,526.66663 l 26.66666,-33.77777 53.33333,-16.88889 -53.33333,-16.88889 -53.33333,0 0,33.77778 53.33333,0 0,-33.77778 L 800,425.33331 M 800,324.00002 773.33333,357.77779 720,374.66668 773.33333,391.55557 800,425.33331 l 26.66666,-33.77774 53.33333,-16.88889 -53.33333,-16.88889 -53.33333,0 0,33.77778 53.33333,0 0,-33.77778 L 800,324.00002 M 800,222.66669 773.33333,256.44447 720,273.33336 773.33333,290.22224 800,324.00002 l 26.66666,-33.77778 53.33333,-16.88888 -53.33333,-16.88889 -53.33333,0 0,33.77777 53.33333,0 0,-33.77777 L 800,222.66669 M 800,121.33337 773.33333,155.11115 720,172.00003 773.33333,188.88892 800,222.66669 l 26.66666,-33.77777 53.33333,-16.88889 -53.33333,-16.88888 -53.33333,0 0,33.77777 53.33333,0 0,-33.77777 L 800,121.33337 M 800,20.000053 773.33333,53.777829 720,70.666716 773.33333,87.555602 800,121.33337 826.66666,87.555602 879.99999,70.666716 826.66666,53.777829 l -53.33333,0 0,33.777773 53.33333,0 0,-33.777773 L 800,20.000053 M 720,70.666716 693.33333,104.44449 640,121.33337 693.33333,138.22226 720,172.00003 746.66666,138.22226 800,121.33337 l -53.33334,-16.88888 -53.33333,0 0,33.77777 53.33333,0 0,-33.77777 L 720,70.666716 M 720,172.00003 693.33333,205.77781 640,222.66669 693.33333,239.55558 720,273.33336 746.66666,239.55558 800,222.66669 l -53.33334,-16.88888 -53.33333,0 0,33.77777 53.33333,0 0,-33.77777 L 720,172.00003 m 0,101.33333 -26.66667,33.77777 L 640,324.00002 693.33333,340.8889 720,374.66668 746.66666,340.8889 800,324.00002 l -53.33334,-16.88889 -53.33333,0 0,33.77777 53.33333,0 0,-33.77777 L 720,273.33336 m 0,101.33332 -26.66667,33.77774 L 640,425.33331 693.33333,442.2222 720,475.99997 746.66666,442.2222 800,425.33331 l -53.33334,-16.88889 -53.33333,0 0,33.77778 53.33333,0 0,-33.77778 L 720,374.66668 m 0,101.33329 -26.66667,33.77777 L 640,526.66663 693.33333,543.55552 720,577.33329 746.66666,543.55552 800,526.66663 l -53.33334,-16.88889 -53.33333,0 0,33.77778 53.33333,0 0,-33.77778 L 720,475.99997 m 0,101.33332 -26.66667,33.77778 L 640,627.99995 693.33333,644.88884 720,678.66661 746.66666,644.88884 800,627.99995 l -53.33334,-16.88888 -53.33333,0 0,33.77777 53.33333,0 0,-33.77777 L 720,577.33329 m 0,101.33332 -26.66667,33.77778 L 640,729.33327 693.33333,746.22216 720,779.99994 746.66666,746.22216 800,729.33327 l -53.33334,-16.88888 -53.33333,0 0,33.77777 53.33333,0 0,-33.77777 L 720,678.66661 M 640,627.99995 613.33333,661.77773 560,678.66661 613.33333,695.5555 640,729.33327 666.66666,695.5555 720,678.66661 l -53.33334,-16.88888 -53.33333,0 0,33.77777 53.33333,0 0,-33.77777 L 640,627.99995 M 640,526.66663 613.33333,560.4444 560,577.33329 613.33333,594.22218 640,627.99995 666.66666,594.22218 720,577.33329 666.66666,560.4444 l -53.33333,0 0,33.77778 53.33333,0 0,-33.77778 L 640,526.66663 M 640,425.33331 613.33333,459.11108 560,475.99997 613.33333,492.88886 640,526.66663 666.66666,492.88886 720,475.99997 l -53.33334,-16.88889 -53.33333,0 0,33.77778 53.33333,0 0,-33.77778 L 640,425.33331 M 640,324.00002 613.33333,357.77779 560,374.66668 613.33333,391.55557 640,425.33331 666.66666,391.55557 720,374.66668 l -53.33334,-16.88889 -53.33333,0 0,33.77778 53.33333,0 0,-33.77778 L 640,324.00002 M 640,222.66669 613.33333,256.44447 560,273.33336 613.33333,290.22224 640,324.00002 666.66666,290.22224 720,273.33336 l -53.33334,-16.88889 -53.33333,0 0,33.77777 53.33333,0 0,-33.77777 L 640,222.66669 M 640,121.33337 613.33333,155.11115 560,172.00003 613.33333,188.88892 640,222.66669 666.66666,188.88892 720,172.00003 l -53.33334,-16.88888 -53.33333,0 0,33.77777 53.33333,0 0,-33.77777 L 640,121.33337 M 640,20.000053 613.33333,53.777829 560,70.666716 613.33333,87.555602 640,121.33337 666.66666,87.555602 720,70.666716 666.66666,53.777829 l -53.33333,0 0,33.777773 53.33333,0 0,-33.777773 L 640,20.000053 M 560,70.666716 533.33333,104.44449 480,121.33337 533.33333,138.22226 560,172.00003 586.66666,138.22226 640,121.33337 l -53.33334,-16.88888 -53.33333,0 0,33.77777 53.33333,0 0,-33.77777 L 560,70.666716 M 560,172.00003 533.33333,205.77781 480,222.66669 533.33333,239.55558 560,273.33336 586.66666,239.55558 640,222.66669 l -53.33334,-16.88888 -53.33333,0 0,33.77777 53.33333,0 0,-33.77777 L 560,172.00003 m 0,101.33333 -26.66667,33.77777 L 480,324.00002 533.33333,340.8889 560,374.66668 586.66666,340.8889 640,324.00002 l -53.33334,-16.88889 -53.33333,0 0,33.77777 53.33333,0 0,-33.77777 L 560,273.33336 m 0,101.33332 -26.66667,33.77774 L 480,425.33331 533.33333,442.2222 560,475.99997 586.66666,442.2222 640,425.33331 l -53.33334,-16.88889 -53.33333,0 0,33.77778 53.33333,0 0,-33.77778 L 560,374.66668 m 0,101.33329 -26.66667,33.77777 L 480,526.66663 533.33333,543.55552 560,577.33329 586.66666,543.55552 640,526.66663 l -53.33334,-16.88889 -53.33333,0 0,33.77778 53.33333,0 0,-33.77778 L 560,475.99997 m 0,101.33332 -26.66667,33.77778 L 480,627.99995 533.33333,644.88884 560,678.66661 586.66666,644.88884 640,627.99995 l -53.33334,-16.88888 -53.33333,0 0,33.77777 53.33333,0 0,-33.77777 L 560,577.33329 m 0,101.33332 -26.66667,33.77778 L 480,729.33327 533.33333,746.22216 560,779.99994 586.66666,746.22216 640,729.33327 l -53.33334,-16.88888 -53.33333,0 0,33.77777 53.33333,0 0,-33.77777 L 560,678.66661 M 480,627.99995 453.33333,661.77773 400,678.66661 453.33333,695.5555 480,729.33327 506.66666,695.5555 560,678.66661 l -53.33334,-16.88888 -53.33333,0 0,33.77777 53.33333,0 0,-33.77777 L 480,627.99995 M 480,526.66663 453.33333,560.4444 400,577.33329 453.33333,594.22218 480,627.99995 506.66666,594.22218 560,577.33329 506.66666,560.4444 l -53.33333,0 0,33.77778 53.33333,0 0,-33.77778 L 480,526.66663 M 480,425.33331 453.33333,459.11108 400,475.99997 453.33333,492.88886 480,526.66663 506.66666,492.88886 560,475.99997 l -53.33334,-16.88889 -53.33333,0 0,33.77778 53.33333,0 0,-33.77778 L 480,425.33331 M 480,324.00002 453.33333,357.77779 400,374.66668 453.33333,391.55557 480,425.33331 506.66666,391.55557 560,374.66668 l -53.33334,-16.88889 -53.33333,0 0,33.77778 53.33333,0 0,-33.77778 L 480,324.00002 M 480,222.66669 453.33333,256.44447 400,273.33336 453.33333,290.22224 480,324.00002 506.66666,290.22224 560,273.33336 l -53.33334,-16.88889 -53.33333,0 0,33.77777 53.33333,0 0,-33.77777 L 480,222.66669 M 480,121.33337 453.33333,155.11115 400,172.00003 453.33333,188.88892 480,222.66669 506.66666,188.88892 560,172.00003 l -53.33334,-16.88888 -53.33333,0 0,33.77777 53.33333,0 0,-33.77777 L 480,121.33337 M 480,20.000053 453.33333,53.777829 400,70.666716 453.33333,87.555602 480,121.33337 506.66666,87.555602 560,70.666716 506.66666,53.777829 l -53.33333,0 0,33.777773 53.33333,0 0,-33.777773 L 480,20.000053 M 400,70.666716 373.33333,104.44449 320,121.33337 373.33333,138.22226 400,172.00003 426.66666,138.22226 480,121.33337 l -53.33334,-16.88888 -53.33333,0 0,33.77777 53.33333,0 0,-33.77777 L 400,70.666716 M 400,172.00003 373.33333,205.77781 320,222.66669 373.33333,239.55558 400,273.33336 426.66666,239.55558 480,222.66669 l -53.33334,-16.88888 -53.33333,0 0,33.77777 53.33333,0 0,-33.77777 L 400,172.00003 m 0,101.33333 -26.66667,33.77777 L 320,324.00002 373.33333,340.8889 400,374.66668 426.66666,340.8889 480,324.00002 l -53.33334,-16.88889 -53.33333,0 0,33.77777 53.33333,0 0,-33.77777 L 400,273.33336 m 0,101.33332 -26.66667,33.77774 L 320,425.33331 373.33333,442.2222 400,475.99997 426.66666,442.2222 480,425.33331 l -53.33334,-16.88889 -53.33333,0 0,33.77778 53.33333,0 0,-33.77778 L 400,374.66668 m 0,101.33329 -26.66667,33.77777 L 320,526.66663 373.33333,543.55552 400,577.33329 426.66666,543.55552 480,526.66663 l -53.33334,-16.88889 -53.33333,0 0,33.77778 53.33333,0 0,-33.77778 L 400,475.99997 m 0,101.33332 -26.66667,33.77778 L 320,627.99995 373.33333,644.88884 400,678.66661 426.66666,644.88884 480,627.99995 l -53.33334,-16.88888 -53.33333,0 0,33.77777 53.33333,0 0,-33.77777 L 400,577.33329 m 0,101.33332 -26.66667,33.77778 L 320,729.33327 373.33333,746.22216 400,779.99994 426.66666,746.22216 480,729.33327 l -53.33334,-16.88888 -53.33333,0 0,33.77777 53.33333,0 0,-33.77777 L 400,678.66661 M 320,627.99995 293.33333,661.77773 240,678.66661 293.33333,695.5555 320,729.33327 346.66666,695.5555 400,678.66661 l -53.33334,-16.88888 -53.33333,0 0,33.77777 53.33333,0 0,-33.77777 L 320,627.99995 M 320,526.66663 293.33333,560.4444 240,577.33329 293.33333,594.22218 320,627.99995 346.66666,594.22218 400,577.33329 346.66666,560.4444 l -53.33333,0 0,33.77778 53.33333,0 0,-33.77778 L 320,526.66663 M 320,425.33331 293.33333,459.11108 240,475.99997 293.33333,492.88886 320,526.66663 346.66666,492.88886 400,475.99997 l -53.33334,-16.88889 -53.33333,0 0,33.77778 53.33333,0 0,-33.77778 L 320,425.33331 M 320,324.00002 293.33333,357.77779 240,374.66668 293.33333,391.55557 320,425.33331 346.66666,391.55557 400,374.66668 l -53.33334,-16.88889 -53.33333,0 0,33.77778 53.33333,0 0,-33.77778 L 320,324.00002 M 320,222.66669 293.33333,256.44447 240,273.33336 293.33333,290.22224 320,324.00002 346.66666,290.22224 400,273.33336 l -53.33334,-16.88889 -53.33333,0 0,33.77777 53.33333,0 0,-33.77777 L 320,222.66669 M 320,121.33337 293.33333,155.11115 240,172.00003 293.33333,188.88892 320,222.66669 346.66666,188.88892 400,172.00003 l -53.33334,-16.88888 -53.33333,0 0,33.77777 53.33333,0 0,-33.77777 L 320,121.33337 M 320,20.000053 293.33333,53.777829 240,70.666716 293.33333,87.555602 320,121.33337 346.66666,87.555602 400,70.666716 346.66666,53.777829 l -53.33333,0 0,33.777773 53.33333,0 0,-33.777773 L 320,20.000053 M 240,70.666716 213.33333,104.44449 160,121.33337 213.33333,138.22226 240,172.00003 266.66667,138.22226 320,121.33337 l -53.33333,-16.88888 -53.33334,0 0,33.77777 53.33334,0 0,-33.77777 L 240,70.666716 M 240,172.00003 213.33333,205.77781 160,222.66669 213.33333,239.55558 240,273.33336 266.66667,239.55558 320,222.66669 l -53.33333,-16.88888 -53.33334,0 0,33.77777 53.33334,0 0,-33.77777 L 240,172.00003 m 0,101.33333 -26.66667,33.77777 L 160,324.00002 213.33333,340.8889 240,374.66668 266.66667,340.8889 320,324.00002 l -53.33333,-16.88889 -53.33334,0 0,33.77777 53.33334,0 0,-33.77777 L 240,273.33336 m 0,101.33332 -26.66667,33.77774 L 160,425.33331 213.33333,442.2222 240,475.99997 266.66667,442.2222 320,425.33331 l -53.33333,-16.88889 -53.33334,0 0,33.77778 53.33334,0 0,-33.77778 L 240,374.66668 m 0,101.33329 -26.66667,33.77777 L 160,526.66663 213.33333,543.55552 240,577.33329 266.66667,543.55552 320,526.66663 l -53.33333,-16.88889 -53.33334,0 0,33.77778 53.33334,0 0,-33.77778 L 240,475.99997 m 0,101.33332 -26.66667,33.77778 L 160,627.99995 213.33333,644.88884 240,678.66661 266.66667,644.88884 320,627.99995 l -53.33333,-16.88888 -53.33334,0 0,33.77777 53.33334,0 0,-33.77777 L 240,577.33329 m 0,101.33332 -26.66667,33.77778 L 160,729.33327 213.33333,746.22216 240,779.99994 266.66667,746.22216 320,729.33327 l -53.33333,-16.88888 -53.33334,0 0,33.77777 53.33334,0 0,-33.77777 L 240,678.66661 M 160,627.99995 133.33333,661.77773 80,678.66661 133.33333,695.5555 160,729.33327 186.66667,695.5555 240,678.66661 l -53.33333,-16.88888 -53.33334,0 0,33.77777 53.33334,0 0,-33.77777 L 160,627.99995 M 160,526.66663 133.33333,560.4444 80,577.33329 133.33333,594.22218 160,627.99995 186.66667,594.22218 240,577.33329 186.66667,560.4444 l -53.33334,0 0,33.77778 53.33334,0 0,-33.77778 L 160,526.66663 M 160,425.33331 133.33333,459.11108 80,475.99997 133.33333,492.88886 160,526.66663 186.66667,492.88886 240,475.99997 l -53.33333,-16.88889 -53.33334,0 0,33.77778 53.33334,0 0,-33.77778 L 160,425.33331 M 160,324.00002 133.33333,357.77779 80,374.66668 133.33333,391.55557 160,425.33331 186.66667,391.55557 240,374.66668 l -53.33333,-16.88889 -53.33334,0 0,33.77778 53.33334,0 0,-33.77778 L 160,324.00002 M 160,222.66669 133.33333,256.44447 80,273.33336 133.33333,290.22224 160,324.00002 186.66667,290.22224 240,273.33336 l -53.33333,-16.88889 -53.33334,0 0,33.77777 53.33334,0 0,-33.77777 L 160,222.66669 M 160,121.33337 133.33333,155.11115 80,172.00003 133.33333,188.88892 160,222.66669 186.66667,188.88892 240,172.00003 l -53.33333,-16.88888 -53.33334,0 0,33.77777 53.33334,0 0,-33.77777 L 160,121.33337 M 160,20.000053 133.33333,53.777829 80,70.666716 133.33333,87.555602 160,121.33337 186.66667,87.555602 240,70.666716 186.66667,53.777829 l -53.33334,0 0,33.777773 53.33334,0 0,-33.777773 L 160,20.000053 M 80,70.666716 53.333333,104.44449 0,121.33337 53.333333,138.22226 80,172.00003 106.66667,138.22226 160,121.33337 l -53.33333,-16.88888 -53.333337,0 0,33.77777 53.333337,0 0,-33.77777 L 80,70.666716 M 80,172.00003 53.333333,205.77781 0,222.66669 53.333333,239.55558 80,273.33336 106.66667,239.55558 160,222.66669 l -53.33333,-16.88888 -53.333337,0 0,33.77777 53.333337,0 0,-33.77777 L 80,172.00003 M 80,273.33336 53.333333,307.11113 0,324.00002 53.333333,340.8889 80,374.66668 106.66667,340.8889 160,324.00002 l -53.33333,-16.88889 -53.333337,0 0,33.77777 53.333337,0 0,-33.77777 L 80,273.33336 M 80,374.66668 53.333333,408.44442 0,425.33331 53.333333,442.2222 80,475.99997 106.66667,442.2222 160,425.33331 l -53.33333,-16.88889 -53.333337,0 0,33.77778 53.333337,0 0,-33.77778 L 80,374.66668 M 80,475.99997 53.333333,509.77774 0,526.66663 53.333333,543.55552 80,577.33329 106.66667,543.55552 160,526.66663 l -53.33333,-16.88889 -53.333337,0 0,33.77778 53.333337,0 0,-33.77778 L 80,475.99997 M 80,577.33329 53.333333,611.11107 0,627.99995 53.333333,644.88884 80,678.66661 106.66667,644.88884 160,627.99995 l -53.33333,-16.88888 -53.333337,0 0,33.77777 53.333337,0 0,-33.77777 L 80,577.33329 M 80,678.66661 53.333333,712.44439 0,729.33327 53.333333,746.22216 80,779.99994 106.66667,746.22216 160,729.33327 l -53.33333,-16.88888 -53.333337,0 0,33.77777 53.333337,0 0,-33.77777 L 80,678.66661 M 0,627.99995 -26.666667,661.77773 -80,678.66661 -26.666667,695.5555 0,729.33327 26.666667,695.5555 80,678.66661 26.666667,661.77773 l -53.333334,0 0,33.77777 53.333334,0 0,-33.77777 L 0,627.99995 M 0,526.66663 -26.666667,560.4444 -80,577.33329 -26.666667,594.22218 0,627.99995 26.666667,594.22218 80,577.33329 26.666667,560.4444 l -53.333334,0 0,33.77778 53.333334,0 0,-33.77778 L 0,526.66663 M 0,425.33331 -26.666667,459.11108 -80,475.99997 -26.666667,492.88886 0,526.66663 26.666667,492.88886 80,475.99997 26.666667,459.11108 l -53.333334,0 0,33.77778 53.333334,0 0,-33.77778 L 0,425.33331 M 0,324.00002 -26.666667,357.77779 -80,374.66668 -26.666667,391.55557 0,425.33331 26.666667,391.55557 80,374.66668 26.666667,357.77779 l -53.333334,0 0,33.77778 53.333334,0 0,-33.77778 L 0,324.00002 M 0,222.66669 -26.666667,256.44447 -80,273.33336 -26.666667,290.22224 0,324.00002 26.666667,290.22224 80,273.33336 26.666667,256.44447 l -53.333334,0 0,33.77777 53.333334,0 0,-33.77777 L 0,222.66669 M 0,121.33337 -26.666667,155.11115 -80,172.00003 -26.666667,188.88892 0,222.66669 26.666667,188.88892 80,172.00003 26.666667,155.11115 l -53.333334,0 0,33.77777 53.333334,0 0,-33.77777 L 0,121.33337 M 0,20.000053 -26.666667,53.777829 -80,70.666716 -26.666667,87.555602 0,121.33337 26.666667,87.555602 80,70.666716 26.666667,53.777829 l -53.333334,0 0,33.777773 53.333334,0 0,-33.777773 L 0,20.000053"
       id="path4637-5"
       style="fill:none;stroke:#000000;stroke-width:5" />
  </g>
</svg>
